<svg width="101" height="182" viewBox="0 0 101 182" fill="none" xmlns="http://www.w3.org/2000/svg">
<path fill-rule="evenodd" clip-rule="evenodd" d="M55.4883 150.917C55.8738 151.177 56.0809 151.601 57.1268 152.122C57.9564 152.535 58.3707 152.574 59.5934 152.58C59.3001 153.185 59.3405 159.174 59.3356 160.28C59.3326 160.979 59.5771 163.865 59.4993 164.349C59.4157 164.867 59.438 170.881 59.4343 171.721L59.0952 168.707C59.0287 168.174 59.0344 167.726 58.9641 167.2C58.7294 165.456 58.6488 164.637 58.3094 162.786C58.1027 161.661 58.0611 161.012 58.0672 159.676L57.9175 159.675C57.6722 160.707 57.484 161.885 57.6472 162.996C57.7194 163.488 57.631 164.011 57.7035 164.503C57.8147 165.261 57.7293 169.63 57.7191 170.741C57.71 171.717 57.8521 172.718 57.9761 173.613C58.114 174.61 57.9848 175.46 57.9942 176.576C58.0014 177.44 58.0184 177.377 57.3263 177.162C57.0807 177.086 56.3009 176.918 56.1819 176.732C56.1282 176.649 55.9819 174.093 55.9842 173.801C56.0125 170.436 56.2869 169.794 55.7631 166.129C55.6656 165.446 55.5733 164.908 55.5794 164.152C55.5956 162.187 55.6089 161.924 55.4467 159.966C55.2309 157.364 56.1992 154.632 55.7283 152.093C55.6531 151.686 55.4977 151.307 55.4883 150.916V150.917ZM64.8036 73.0447C64.7915 75.7948 65.0489 75.071 65.4772 77.2908C65.6389 78.1291 65.7588 79.7899 66.4875 80.0046C66.7063 80.0688 66.6481 79.9713 66.6481 79.9725L66.4867 79.5684C66.4206 79.4029 66.3571 79.1277 66.3469 78.8851C66.3359 78.6193 66.3571 78.3272 66.3552 78.0585C66.348 77.1721 66.0641 75.5042 66.0698 74.1718C66.0732 73.4681 66.2191 72.7495 65.9069 72.1002C65.8026 71.8836 65.6892 71.7676 65.6329 71.5529L65.3335 71.5514C65.2296 71.9343 64.8074 72.1815 64.8036 73.0447ZM75.9536 122.07C76.1743 121.981 76.0345 122.229 76.1532 121.82C76.1887 121.699 76.1842 121.558 76.2034 121.42C76.2307 121.217 76.29 120.896 76.3391 120.656C76.8796 118.038 76.643 118.325 76.6547 115.717C76.6581 114.923 76.7213 110.983 76.6351 110.376C76.3864 108.627 76.6506 107.213 76.6188 106.749C76.5871 106.287 76.4166 105.946 76.3252 105.546C76.0844 105.609 76.1588 105.586 76.0428 105.787C75.9736 105.907 75.9094 106.071 75.8625 106.206C75.3572 107.684 75.5583 109.996 75.5518 111.375C75.5469 112.464 75.4989 114.947 75.5942 115.875C75.7435 117.328 76.008 118.584 75.892 119.98C75.8398 120.611 75.7442 121.629 75.9536 122.07V122.07ZM75.0907 131.188C75.0843 132.651 75.3587 132.818 74.7543 134.003C74.3673 134.762 74.0233 135.415 73.69 136.234C73.4496 136.824 72.9885 138.421 72.8324 138.673L72.1513 139.638C71.9181 139.998 71.7431 140.374 71.531 140.74C70.5782 142.385 69.8053 143.09 68.5462 144.338L67.3409 145.604C67.2419 145.704 66.975 145.952 67.1977 146.063C67.494 146.211 68.9854 145.035 69.2496 144.823C72.9635 141.844 72.3164 140.566 73.5411 139.238C74.2584 138.46 74.9811 135.626 75.4294 134.459C75.7771 133.552 75.8474 132.724 75.9135 131.568C76.0402 129.368 77.1718 127.681 76.31 126.034C75.2026 126.769 75.0956 130.068 75.0907 131.189V131.188ZM46.6934 76.5538C46.6866 78.0883 46.8476 80.5436 46.8903 82.2395L47.0351 84.4786C47.0774 86.1488 46.8684 87.8194 46.8616 89.3407C46.8575 90.2652 46.9266 90.9384 46.9228 91.8111L47.4168 99.1383C47.8874 98.7967 47.7582 97.1465 47.8058 96.6014C47.9709 94.7063 47.8957 90.9108 47.9086 88.6698C47.912 88.0942 48.0696 86.7052 48.0737 85.7568C48.0794 84.4275 48.0144 80.6426 48.1429 79.8186L48.2669 75.8878C48.268 75.1602 48.2703 74.6314 48.0726 74.0702C47.878 73.5183 47.6383 73.2307 47.6073 72.5209C47.5775 71.8186 47.6066 71.1965 47.5491 70.5687C47.4244 69.1997 47.331 69.609 47.1757 68.9287C46.9485 68.9884 47.037 68.9215 46.9346 69.1362C46.5917 69.8543 47.0502 71.054 46.8174 72.5481C46.7191 73.1785 46.7834 73.8868 46.7796 74.5377C46.7769 74.9871 46.7021 75.0797 46.6949 75.5042C46.6893 75.8511 46.6949 76.2057 46.6934 76.5538ZM44.5847 28.9891C44.5689 32.5798 45.075 32.7918 45.1577 33.931C45.2084 34.6329 45.1555 34.6831 45.1543 35.2713C45.1528 36.271 45.0697 37.1218 45.0693 38.1903C45.0693 38.73 44.9865 39.0158 44.9865 39.6084C44.9858 40.1069 44.982 40.6059 44.9797 41.1044C44.9767 41.8252 45.1324 42.4163 45.1891 43.0558C45.5108 46.7032 45.6253 47.3877 45.6083 51.2762C45.6053 51.9116 45.5762 52.3976 45.53 52.9249L46.3034 63.3919C46.3502 63.7646 46.3464 63.8212 46.5989 63.9921C46.9107 63.7657 46.8964 63.1738 46.9021 62.645L46.8469 53.9938C46.769 53.4068 46.8643 52.6021 46.7811 51.9747L46.3128 44.1013C46.3147 43.6277 46.371 43.4251 46.3926 43.0551C46.6167 39.176 46.6371 38.6015 46.0694 34.5161C46.0067 34.0648 45.8366 33.344 45.8385 32.9581C45.8426 32.02 45.9953 31.2796 45.9995 30.3414C46.0029 29.5417 45.9254 28.9853 45.9356 28.246C45.9462 27.4387 45.7326 27.0755 45.4178 26.6003C44.8096 27.0033 44.5889 27.9724 44.5847 28.9895V28.9891ZM67.2211 67.4467C67.2162 68.5409 66.9543 69.397 66.8004 70.402C66.6417 71.4372 66.825 72.499 66.8197 73.7262C66.8152 74.8117 66.7392 75.4244 66.8129 76.4872C66.8734 77.3569 67.1738 78.173 67.1697 79.1115C67.1629 80.6944 66.8923 81.0005 67.0688 82.6364C67.212 83.9642 66.7989 86.5717 66.9807 88.9767C67.1066 90.6379 67.2566 93.4594 67.2487 95.1878C67.2392 97.2107 67.477 97.7758 67.5299 99.1523C67.5798 100.462 67.5624 102.081 67.6614 103.34L67.8859 103.341C68.2416 101.843 68.3455 100.868 68.3527 99.2306L67.963 92.9167L68.0341 86.2172C68.0341 85.7383 68.1108 85.6072 68.118 85.1752C68.1456 83.5473 67.977 82.6503 67.9838 81.0591C67.9876 80.1845 68.2151 79.4777 68.2185 78.6677C68.2291 76.2506 67.8629 76.6989 68.2979 73.5603C68.3282 73.3441 68.2605 72.6161 68.2265 72.3315C67.9294 69.8249 68.2575 69.8623 68.2684 67.3019C68.2711 66.7758 68.2299 66.0157 68.2873 65.5183C68.3501 64.9721 68.7522 62.0248 67.8447 61.6918C67.2748 62.8661 67.3674 64.7699 67.1844 65.9084C67.1054 66.3982 67.2237 66.8722 67.2211 67.4467ZM70.8284 97.2969C70.8261 97.8491 70.8722 98.7078 70.7997 99.2204C70.7297 99.7162 70.681 100.555 70.7479 101.174C70.8817 102.414 70.7256 103.714 70.7195 105.073C70.7165 105.779 70.783 106.227 70.7846 106.87L71.0378 110.49C71.3878 112.927 70.825 115.075 70.8156 117.261C70.8084 118.846 70.8189 119.47 70.9505 121.074C71.2222 124.379 71.1931 122.723 71.0011 126.011C70.9478 126.921 70.9475 127.742 70.9176 128.63L70.2894 133.404C69.7818 135.89 70.6334 137.951 68.0401 140.523C67.6595 140.9 67.4059 141.009 67.3455 141.174C68.3531 141.746 70.3129 139.242 70.7698 137.644C71.1776 136.22 70.9592 136.026 71.1323 134.705C71.3069 133.369 71.4944 133.405 71.4997 131.696C71.5034 130.525 71.5783 129.624 71.5896 128.479C71.5957 127.891 71.5193 127.545 71.5205 126.91C71.5227 125.288 71.9139 124.042 71.9154 122.276C71.9162 120.998 71.7642 114.932 71.9082 114.007C72.0012 113.413 72.019 112.603 71.9287 111.989C71.8289 111.309 71.909 109.745 71.9022 108.888L71.4154 99.9166L71.7038 95.0253C71.9755 93.2024 72.0024 92.1562 71.7438 90.2853C71.4827 88.4015 71.7593 87.7272 71.3353 85.5527C71.1667 84.6876 70.9622 83.0162 70.9701 82.0437C70.9739 81.6098 70.9951 81.1222 70.9788 80.6948C70.9641 80.296 70.8284 79.9887 70.5347 79.8621C69.3759 79.3621 69.752 82.0509 69.7686 82.7135C69.8086 84.3032 70.2826 85.408 70.2735 87.4241C70.2705 88.1551 70.1953 89.3479 70.2811 90.0226C70.3707 90.729 70.5623 91.514 70.6243 92.2877L70.8284 97.2969ZM43.5363 148.321C43.794 148.186 44.0488 148.024 44.2911 147.881C44.5447 147.731 44.7722 147.499 45.036 147.431C45.0338 147.929 45.0307 148.428 45.0292 148.926C45.0281 149.539 44.9465 149.873 44.948 150.421C44.9499 150.969 44.8682 151.304 44.8667 151.916L44.3833 159.84C44.3769 161.339 44.7722 164.037 44.5269 165.768L44.2249 171.696C44.0711 172.67 44.4045 171.829 44.0235 173.371C43.7487 174.483 43.737 174.944 43.6051 176.032C43.5431 176.541 43.7789 178.243 43.7763 178.904C43.0736 178.901 42.7565 178.804 42.2066 178.673C42.416 178.241 42.6035 177.406 42.7376 176.881C43.836 172.597 43.1787 172.358 43.4705 170.485C43.5998 169.657 43.4403 169.049 43.4478 168.286C43.4618 166.894 43.3178 165.089 43.3223 163.646C43.3235 163.173 43.2437 163.024 43.2483 162.528C43.2585 161.306 43.1742 158.898 43.3129 158.009C43.4085 157.395 43.336 154.098 43.4837 153.149L43.6092 149.82C43.672 149.134 43.6213 149.003 43.5363 148.32V148.321ZM27.04 141.967C27.3749 142.048 27.557 142.21 27.836 142.369L30.4632 143.488L34.5112 144.389C36.2895 144.633 38.1076 145.621 39.2959 145.751C39.8636 145.814 40.5417 145.723 41.6355 145.889L42.8 146C42.7089 146.335 42.1794 146.708 41.8986 146.893C41.6551 146.775 41.2965 146.678 41.0111 146.582C39.7808 146.165 39.6621 145.954 38.1238 145.721C37.3395 145.603 36.6516 145.589 35.929 145.44C35.2766 145.306 34.4882 145.199 33.7576 145.136C32.7843 145.054 31.3896 144.247 30.1612 143.787C29.2809 143.457 27.5604 142.752 27.04 141.967ZM35.6156 130.266C35.6954 130.187 35.8983 130.386 35.6988 130.305C35.6969 130.305 35.4898 130.391 35.6156 130.266ZM35.3167 130.19C35.698 130.192 35.4406 130.19 35.5408 130.266C35.1458 130.265 35.4293 130.265 35.3167 130.19ZM35.3167 130.19C35.2747 130.19 35.1946 130.191 35.1723 130.185C35.0373 130.144 35.0925 130.163 35.0181 130.114C35.0596 130.114 35.1398 130.113 35.1625 130.12C35.2978 130.159 35.2422 130.14 35.3167 130.19ZM19.8858 85.408L19.9607 85.4084C19.9577 86.0434 20.0329 86.393 20.0283 87.0536C20.0219 88.0386 19.9826 88.6698 20.0813 89.6079L20.1557 92.1392C20.1595 91.3137 19.8598 89.9995 19.8688 88.9238C19.879 87.7525 19.8806 86.5801 19.8858 85.408ZM2.28853 91.387L2.21331 91.3866C2.21974 89.9916 1.92644 88.7375 1.93438 86.8994C1.94005 85.6212 2.15171 84.5844 2.24242 83.4554L2.56331 79.9479C2.56067 80.5765 2.4057 81.7943 2.40154 82.7139C2.39927 83.1874 2.39587 83.661 2.39512 84.1343C2.3936 84.7216 2.31423 85.047 2.31159 85.5524C2.30025 87.497 2.29722 89.4424 2.28853 91.3866V91.387ZM24.1334 139.786C23.8998 139.723 23.7097 139.515 23.5056 139.366C22.0497 138.308 20.4664 137.498 18.9727 136.489C17.09 135.217 14.4787 131.609 13.0458 129.783C12.7287 129.379 12.4275 129.048 12.1115 128.625L10.792 126.732C9.8297 125.192 8.88592 123.601 8.08539 121.97C6.11732 117.956 4.47506 113.823 3.7248 109.393C3.51616 108.163 3.41487 106.933 3.28485 105.66C3.14802 104.322 3.05353 103.135 2.89441 101.804C2.74889 100.598 2.55008 99.2926 2.41931 98.0309C2.35052 97.3661 2.34258 96.7122 2.34485 96.0198C2.34636 95.5704 2.2719 95.477 2.26888 95.0529C2.26585 94.681 2.2753 94.3015 2.27681 93.9285L2.35165 93.9288C2.34371 95.7657 2.77762 97.4715 3.04484 99.1232C3.18204 99.9763 3.31471 100.849 3.41713 101.657C3.53506 102.582 3.55849 103.435 3.68247 104.372C4.22145 108.438 4.58996 108.399 5.37008 111.558C6.07348 114.407 5.24913 114.418 7.01688 118.785C7.59781 120.218 8.47318 121.243 9.15465 122.622C10.1011 124.536 11.7479 127.512 13.0953 129.064C13.3346 129.34 13.6169 129.613 14.0089 129.647C13.9809 129.288 12.8992 127.478 12.6251 126.924C11.9285 125.515 11.1847 124.312 10.4987 122.926C9.84293 121.6 9.10967 119.921 8.64591 118.51C8.29667 117.446 8.02907 116.419 7.62994 115.422C7.2463 114.461 6.92352 113.418 6.57957 112.369C5.50728 109.106 5.14897 105.46 4.49093 102.081C3.74105 98.2346 3.82383 94.5517 3.86238 90.4946C3.87258 89.4027 3.63484 87.6032 3.78376 86.5869C3.94893 85.4601 3.75088 83.7124 3.82231 82.4939C3.89451 81.2613 4.02301 79.9691 4.23316 78.7774C4.32576 78.2512 4.49434 77.5826 4.65913 77.1041C4.75476 76.8252 4.81409 76.5866 4.90594 76.3013C4.94147 76.189 4.99816 76.0178 5.03596 75.9074L5.19886 75.5457C5.19433 76.6547 4.94336 77.8434 4.88666 78.9108C4.85945 79.4169 4.83715 80.087 4.75929 80.5855C4.68521 81.0682 4.69164 81.8906 4.64968 82.3521C4.5911 82.9969 4.74228 85.112 4.8345 85.809L5.34098 92.6766C5.5413 94.8711 5.97105 97.1242 6.06592 99.3281C6.2171 102.834 6.7746 105.487 7.59516 108.831C7.8382 109.822 8.068 110.738 8.30045 111.779C8.9479 114.677 9.84633 117.555 10.9519 120.243C11.5695 121.743 12.4445 123.025 13.1826 124.434C13.3274 124.71 13.3433 124.848 13.6558 124.933C13.6317 123.575 12.3598 120.818 11.9289 119.275C11.4001 117.379 10.7338 115.52 10.2073 113.612L8.90973 109.389C8.58694 108.453 8.30272 107.525 8.1092 106.534C7.79473 104.923 7.77999 103.122 7.57324 101.482C7.50067 100.911 7.53771 100.372 7.46477 99.8032C7.40013 99.2997 7.37746 98.6768 7.30073 98.1042C6.82563 94.5703 6.4745 91.5696 6.49113 87.8145C6.49944 85.9311 6.35695 84.3153 6.36526 82.4304L6.45068 80.6388C6.49188 79.4237 6.38152 78.2138 6.5705 77.0043C6.65781 76.4423 6.61888 75.7782 6.62153 75.1784C6.62379 74.4697 6.70128 74.0463 6.7043 73.3841L6.8536 73.3849C6.84642 74.9648 7.11779 79.5454 7.41941 80.8649L7.718 80.866C7.9051 80.0779 8.6444 74.2618 8.64818 73.3928L8.79785 73.3936C9.08775 74.6632 9.4162 78.3283 9.28958 79.7476L9.43624 83.7037C9.52619 84.5341 9.49822 85.4299 9.56739 86.3287C9.63353 87.1799 9.76809 87.9797 9.88412 88.8433C10.1544 90.8545 10.4734 94.2305 10.6351 96.4374C10.7625 98.1783 10.8789 99.8115 11.1091 101.551C11.515 104.608 11.5415 105.5 12.5408 108.544L13.5201 111.742C13.6116 112.071 13.6755 112.582 14.0089 112.672C13.8543 111.994 13.7655 111.24 13.626 110.521C13.2004 108.328 12.5938 106.616 12.3326 104.209C12.1674 102.693 12.0695 101.167 11.8545 99.6206C11.6473 98.1265 11.4742 94.359 11.3344 92.5428C11.2459 91.3889 11.224 88.7435 11.0845 87.7279C10.9141 86.4814 11.035 84.1203 10.8702 82.8786C10.8166 82.4723 10.8884 82.0475 10.8445 81.6382C10.7168 80.4566 10.8627 79.2165 10.8733 77.9621C10.8801 77.146 10.6537 76.4275 10.6574 75.6444C10.885 75.909 11.0226 76.2722 11.0981 76.6222C11.2743 77.4371 11.3457 78.4398 11.3896 79.3114C11.4134 79.8001 11.3393 80.3047 11.4032 80.7866L11.6628 83.5072C11.7513 84.4892 11.8114 85.2349 11.8065 86.3427C11.7981 88.3062 11.5748 90.1632 11.8775 92.0042C12.1599 93.7187 12.5832 95.285 12.7926 97.0531C13.0072 98.8662 13.0001 100.688 13.3372 102.394C13.5096 103.266 13.6891 104.006 13.8297 104.884C13.965 105.725 14.0198 106.638 14.1476 107.547C14.8185 112.31 15.4323 117.354 17.9091 121.536C18.7164 122.9 19.7985 124.073 20.8092 125.287L23.3068 128.023C24.7964 129.531 27.1042 130.308 28.9804 131.258C29.6555 131.6 30.3861 131.827 31.1496 132.086C32.3016 132.475 33.3305 132.905 34.5271 133.205C34.9784 133.319 35.2664 133.441 35.6757 133.555C36.6021 133.813 37.1781 133.935 38.2123 134.019C40.9884 134.244 40.9189 134.628 43.2116 135.019C43.5831 135.082 44.1187 135.204 44.499 135.232C45.0383 135.271 45.3388 135.296 45.4616 135.766C44.8448 136.059 39.3458 135.434 38.0837 135.263C35.9169 134.969 33.6774 134.384 31.7347 133.591C30.7788 133.201 29.8256 132.866 28.926 132.355C28.5945 132.167 28.4415 131.977 28.4328 131.504L28.2831 131.503C28.3504 132.358 28.9101 132.788 29.578 133.198C31.5654 134.416 33.6324 135.36 35.881 136.032C37.8309 136.615 40.1626 136.827 42.3763 137.113C43.3669 137.24 43.7899 137.2 44.4755 137.271C44.8716 137.313 44.7163 137.274 45.0833 137.266C45.4378 137.258 45.3645 137.354 45.7474 137.336C46.0293 137.323 46.1106 137.264 46.5025 137.266C46.5555 137.498 46.597 137.483 46.6503 137.716C45.2023 137.709 43.96 137.926 42.5362 137.997C41.2519 138.061 36.9551 137.564 35.8239 137.28C33.6188 136.727 31.7317 135.649 29.8709 134.396C27.6765 132.92 26.696 132.673 24.4082 130.952C22.7829 129.73 21.2246 128.185 19.9735 126.563C19.3102 125.702 17.9956 124.419 17.1581 123.473C16.2211 122.414 14.5233 118.734 14.1279 117.617C13.6162 116.173 13.0647 114.759 12.6614 113.19C11.1526 107.332 10.9043 103.988 10.0981 98.0865C9.8709 96.4196 9.56663 94.6304 9.38558 92.9117C9.29638 92.0613 9.13121 91.172 9.09758 90.2936L8.75665 85.4205C8.73057 85.1767 8.76308 84.9287 8.74456 84.6876C8.71772 84.3327 8.66934 83.6459 8.62587 83.3167C8.54688 82.7244 8.68408 82.3827 8.68635 81.9167L8.46222 81.9156C8.36206 82.3355 8.18328 82.6254 8.11146 83.0638C8.05704 83.3961 8.0011 84.1384 7.99921 84.4533C7.98296 87.3356 7.97313 90.5321 8.25018 93.292C9.26728 103.412 10.086 108.633 13.4895 118.324C13.8838 119.449 14.4564 120.356 14.9678 121.4C15.5343 122.554 16.1818 123.7 17.0405 124.631C18.3789 126.082 19.5687 128.171 20.7223 129.32C22.2523 130.846 23.6122 132.516 25.4019 133.764C26.024 134.198 26.6159 134.568 27.2728 134.961C27.901 135.338 28.4687 135.75 29.0708 136.158C29.3822 136.369 29.6544 136.538 30.0055 136.72C31.1065 137.286 32.1236 137.699 33.4076 137.963C35.0612 138.303 36.8531 138.542 38.5267 138.919C39.4093 139.117 40.1826 139.303 41.0417 139.479C43.2864 139.939 44.4638 139.425 46.6435 139.435C46.6416 139.85 46.5664 139.878 46.5649 140.257C46.0339 140.255 45.7115 140.219 45.2893 140.18C43.5004 140.015 41.6264 141.022 38.8714 140.216C38.1283 139.998 37.4352 139.779 36.7068 139.532C36.0125 139.297 35.396 138.979 34.6556 138.736C34.0293 138.53 32.9767 138.36 32.217 138.324C29.5901 138.201 28.302 136.835 26.4262 135.578C26.1143 135.369 25.9015 135.198 25.5916 134.991C24.172 134.038 22.7913 133.086 21.4446 132.029C21.2563 131.881 21.2495 131.868 21.0855 131.714L19.1855 130.025C18.9383 129.778 18.7463 129.541 18.467 129.323L15.594 126.512C15.6099 127.402 17.5931 129.126 18.1438 129.791C18.7055 130.469 20.9642 132.696 21.7923 133.396L23.39 134.715C24.5042 135.722 26.3475 137.119 27.5672 137.946C28.6985 138.712 30.1434 139.541 31.5302 139.824C32.3266 139.987 33.1944 140.083 33.9719 140.307C34.7558 140.533 35.3393 140.851 36.1248 141.077C37.637 141.513 40.6475 142.418 42.2085 142.246C43.6621 142.087 44.9669 142.044 46.4825 142.051C46.4406 142.531 46.0883 142.712 45.88 143.021C45.1929 142.858 44.8384 142.866 44.0843 142.866L42.2172 142.78C39.2396 142.768 38.0486 143.116 35.2229 141.971C34.2489 141.576 33.4442 141.137 32.5314 140.693C31.5873 140.233 29.6838 139.665 28.3262 139.054L26.9576 138.401C25.6419 137.727 24.2547 137.224 22.9848 136.458C22.7081 136.292 21.9325 135.803 21.685 135.736C21.8067 136.2 23.4516 137.225 23.831 137.48L28.5583 140.537C29.9257 141.457 30.9308 141.992 32.4876 142.523C33.4695 142.858 34.6046 143.087 35.5744 143.335C37.14 143.733 38.8669 143.999 40.4343 144.324C41.3437 144.513 42.9712 144.858 43.8534 144.881C43.401 145.55 43.2403 145.439 42.3128 145.292C40.4234 144.992 38.4833 144.696 36.646 144.283C35.421 144.008 34.2406 143.765 33.1211 143.384C31.0608 142.683 30.3676 142.722 28.3186 141.52C26.9175 140.698 25.5576 139.844 24.3466 138.756C23.9425 138.393 23.6092 138.104 23.1424 137.791C22.6605 137.467 22.2795 137.177 21.8305 136.858C21.2163 136.42 19.7324 135.22 18.9957 135.201C19.5657 136.289 21.0432 136.376 21.7318 137.328C22.3861 138.232 23.8537 139.36 24.1353 139.785L24.1334 139.786ZM74.8416 51.9271L74.6304 49.5311C74.6088 48.5254 74.3348 46.5758 74.1216 45.6426C74.9044 46.2217 74.845 51.1704 74.8416 51.9267V51.9271ZM74.8416 51.9271C74.8995 52.0189 74.8711 51.9259 74.9006 52.0918C75.0801 53.0825 74.6859 56.0306 74.8288 57.3743C75.0336 59.3034 75.3247 60.4793 75.6297 62.3128C75.8304 63.5151 75.7295 64.5791 75.5908 65.826C75.536 66.3181 75.384 66.9504 75.3186 67.4285L75.1372 69.2027C75.1126 69.5977 75.1845 69.733 75.2064 70.0286C75.2328 70.3952 75.2317 70.642 75.2676 70.9357L75.759 74.2459C75.9948 75.9834 75.9793 77.9122 76.1955 79.545L76.3546 83.1092C76.5421 85.7822 77.0815 86.7055 77.0671 89.9965L76.9805 92.7632C76.9609 93.1105 76.8989 93.2232 76.8997 93.6582C76.9019 94.8367 76.6593 96.1229 76.8418 97.3672L77.0833 102.786C77.0815 103.218 77.1495 103.295 77.1593 103.678C77.1669 103.997 77.131 104.318 77.1726 104.632C77.3683 106.106 77.2096 108.592 77.202 110.26C77.1979 111.219 77.3203 112.005 77.3426 112.876C77.351 113.196 77.3256 113.532 77.3332 113.853L77.4024 115.72C77.3967 117.016 77.1952 117.942 77.0815 119.227C76.976 120.417 76.931 121.565 76.9223 122.896C76.917 123.596 76.9941 123.992 76.9892 124.691C76.9847 125.34 76.9821 125.989 76.9824 126.637C76.9821 127.594 76.7455 128.902 76.7405 130.224C76.736 131.46 76.6192 132.556 76.4888 133.8C76.3104 135.488 75.6391 136.738 75.3024 138.31C75.1829 138.867 75.1077 139.417 74.9788 139.937C74.6874 141.118 74.4387 141.715 73.7909 142.57C72.7953 143.882 72.6944 144.447 71.3084 145.773C70.7384 146.319 68.6683 147.652 67.8391 148.056L66.0248 149.08C65.3638 149.49 64.8664 149.777 64.0768 149.968C63.7865 150.039 63.5991 150.096 63.2986 150.16C62.7898 150.267 62.275 150.328 61.8018 150.528C61.5221 150.646 61.4125 150.768 61.0962 150.792C60.4778 150.839 59.853 150.916 59.3023 150.785C59.3609 150.745 59.3394 150.75 59.4479 150.706C59.5941 150.646 59.5008 150.683 59.6746 150.634C62.2641 149.917 61.9776 149.903 64.3452 148.812C66.7596 147.7 66.4587 148.263 69.1313 146.506C69.7126 146.124 71.4494 144.987 71.5197 144.184C70.8371 144.18 70.1605 145.119 69.2957 145.545L67.6433 146.357C66.7713 146.728 65.7433 146.98 64.8516 147.22C63.5934 147.559 62.585 148.205 61.3796 148.6C60.784 148.794 60.1116 148.933 59.4278 149.034C58.2013 149.215 58.3041 149.308 57.4386 149.505C57.1649 149.32 56.7881 148.961 56.6948 148.605C57.7523 148.609 60.3085 148.049 61.1544 147.697C62.6511 147.073 63.9018 146.104 64.6861 145.776L66.0604 145.135C66.2048 145.052 66.3571 144.983 66.5064 144.909C67.1183 144.608 67.7302 144.395 68.2752 143.99C68.8868 143.535 70.2804 141.262 70.3389 140.589C69.9167 140.597 69.8457 140.817 69.5702 141.091C68.9 141.757 68.2087 142.286 67.3817 142.788C66.8477 143.111 66.2943 143.398 65.857 143.803C65.3517 144.273 64.9185 144.536 64.2631 144.823C62.7222 145.5 61.1933 146.181 59.4089 146.386C58.6659 146.472 57.8695 146.614 57.0746 146.59C56.5636 146.576 56.4748 146.435 55.8818 146.432C55.7207 145.726 55.7412 144.403 55.7449 143.516C56.2609 143.507 56.5451 143.389 57.1975 143.491C57.7285 143.573 58.1711 143.496 58.6485 143.441C59.5537 143.335 60.5821 143.178 61.3721 142.959C62.7588 142.575 65.7281 141.408 66.6027 140.275C66.8291 139.981 67.0495 139.687 67.2876 139.389C67.4373 139.203 67.4585 139.165 67.6357 138.989C68.0061 138.619 68.5077 138.08 68.7314 137.615C68.9117 137.24 68.894 136.767 68.9669 136.276C69.0391 135.794 69.12 135.421 69.2005 134.934C69.5475 132.827 69.5547 130.273 69.4991 128.096C69.49 127.727 69.4318 127.722 69.4227 127.353L69.0916 118.152C69.0962 117.538 69.0172 117.207 69.0217 116.658C69.0315 115.513 68.9526 114.599 68.9631 113.515C68.9688 112.91 68.8883 112.624 68.894 112.02C68.8993 111.472 68.8996 110.923 68.9019 110.375C68.9053 109.594 68.9148 108.848 68.8104 108.083C68.7628 107.734 68.7708 107.687 68.5402 107.531C68.3542 107.807 68.4189 107.671 68.3531 108.094C68.3232 108.29 68.2711 108.628 68.2563 108.747L68.0764 110.894C67.9755 112.624 68.129 114.529 67.9827 116.207C67.8973 117.189 68.0069 118.212 67.8595 119.161C67.4218 121.972 68.7738 126.661 68.2994 130.721C68.2136 131.456 68.2526 132.99 68.273 133.778C68.2821 134.136 68.3316 134.12 68.3474 134.448C68.3803 135.11 68.3728 136.073 68.2015 136.63C68.0662 137.069 67.8553 137.206 67.5677 137.493C67.3953 137.665 67.367 137.687 67.1674 137.84C66.9788 137.984 66.904 138.079 66.7426 138.238C66.5661 138.413 66.5128 138.426 66.3321 138.574C66.187 138.695 66.088 138.809 65.9534 138.943C65.1362 139.756 63.2835 141.088 62.3847 141.501C61.9931 141.682 61.6499 141.788 61.2107 141.895C60.3085 142.115 58.2444 142.537 57.2451 142.476C56.7908 142.448 56.3058 142.322 55.8251 142.32C55.836 141.909 56.0394 141.577 56.1289 141.199C57.0429 141.416 57.8596 141.183 58.8284 140.993C62.3431 140.306 62.4943 140.669 64.86 137.991C64.8766 137.973 65.1661 137.802 65.1926 137.501C64.4049 137.497 63.0635 138.736 61.6068 139.216C60.9091 139.445 60.2004 139.514 59.3829 139.676C58.6307 139.824 57.8536 140.053 57.0319 139.858C57.696 138.615 57.7939 139.043 59.4184 138.886C61.3007 138.703 62.8231 137.944 64.0946 136.693C64.6339 136.162 65.0871 135.32 65.2202 134.374C65.4413 132.802 65.747 133.372 66.2373 131.945C66.5774 130.955 66.5937 130.171 66.7679 129.026C67.1584 126.459 66.5215 124.235 66.5283 122.627C66.5298 122.319 66.6039 122.268 66.6103 121.882C66.6591 118.984 66.8016 119.884 66.4213 116.258C66.3102 115.198 66.2509 114.169 66.1103 113.141C65.9825 112.208 65.7247 111.143 65.6866 110.136C65.6476 109.114 65.5456 107.906 65.552 106.845C65.5581 105.718 65.5641 104.495 65.4371 103.534L65.3468 101.911C65.3483 101.338 65.3642 100.759 65.3596 100.186C65.3566 99.8005 65.3014 99.7741 65.2852 99.4415L65.2179 96.9027C65.1551 96.0987 65.216 95.398 65.2292 94.5778C65.2356 94.1734 65.3014 94.1367 65.3128 93.7607L65.3936 91.2888C65.4065 90.9123 65.4707 90.8749 65.4772 90.472C65.4972 89.2848 65.3914 88.3183 65.2424 87.2744C65.1064 86.3174 64.942 85.3486 64.8063 84.282C64.7496 83.8345 64.6702 83.2339 64.6173 82.7573L64.4744 80.3674C64.4646 79.9933 64.4022 79.9506 64.3969 79.5492C64.3886 78.9614 64.4809 78.5589 64.4831 77.9027C64.4907 75.4581 64.2957 73.9364 63.8806 71.6508C62.5668 64.4146 64.609 65.6192 63.8379 59.2607C63.4324 55.9142 64.1936 53.5349 64.9786 50.3895C65.0988 49.9091 65.1601 49.465 65.2152 48.9011L65.4893 47.5245C65.4938 47.5132 65.504 47.4901 65.5138 47.4746C65.5116 47.9565 65.6064 48.1122 65.5883 48.5972C65.5157 50.4942 64.7035 52.0862 64.6611 53.9783C64.657 54.1771 64.6369 54.4247 64.6377 54.4885C64.6513 55.7657 64.9299 57.5655 64.8675 58.6133C64.8191 59.4304 64.6181 60.1236 64.7261 60.9857C64.8131 61.6808 64.9556 62.4606 65.0712 63.1753C65.1737 63.8099 65.2617 64.7949 65.5104 65.2707C66.0256 65.2617 65.6616 65.1593 66.1091 65.1241L66.0524 65.0262C65.9152 64.7148 66.1156 63.6462 66.1193 62.8056C66.1235 61.8668 66.1397 61.0666 66.21 60.1931C66.3374 58.5974 66.41 59.5786 66.2161 57.7961C65.967 55.5 65.5592 52.6274 66.0982 50.467L67.0971 46.4428C67.1625 46.2942 67.1398 46.3245 67.2396 46.2111C67.4203 47.0022 67.3942 48.1274 67.3795 48.9816C67.3727 49.3981 67.3005 49.4567 67.2956 49.8732C67.2914 50.3045 67.2442 50.4609 67.2203 50.7792C67.192 51.1507 67.2865 51.2569 67.2906 51.6693C67.2971 52.3024 67.4362 52.8414 67.4343 53.4624C67.4301 54.8862 67.2638 55.8787 67.5643 57.056C67.754 57.8002 67.991 58.7535 68.0061 59.5268C68.0129 59.8753 67.9264 59.9906 67.9245 60.4211L68.0742 60.4218C68.2152 59.8292 68.3769 59.1866 68.4506 58.5482C68.5285 57.8762 68.5791 57.166 68.6891 56.536C69.5214 51.7679 68.7296 52.8342 68.7125 50.5577C68.7076 49.8876 68.7832 48.957 68.7144 48.3228C68.6116 47.3646 68.6491 46.1861 68.801 45.1581C68.8558 44.7862 68.8135 44.4415 69.0429 44.2755C69.0482 44.6112 69.1604 44.9551 69.2304 45.2802C69.3162 45.6766 69.3649 45.9318 69.453 46.3256C69.7871 47.8201 70.0604 49.0197 70.0623 50.6363C70.0634 51.4542 69.95 52.1727 69.9734 53.1052C69.9999 54.1552 70.4841 56.3133 70.3189 57.7296C70.0793 59.7782 70.4508 61.9953 70.1549 64.9245C69.9859 66.6019 69.803 67.8262 70.0951 69.5115C70.2267 70.2678 70.4315 70.8646 70.574 71.5684C71.2736 75.0355 70.9611 75.6141 71.3371 78.2557C71.4105 78.7702 71.4101 79.5658 71.8568 79.906C72.1248 80.1101 71.61 79.813 71.9279 79.9487C72.2923 80.1044 72.1653 79.2441 72.2118 78.941C72.2715 78.5532 72.2582 78.2028 72.2582 77.7859L72.3992 75.4497C72.5538 74.3601 72.4261 71.6572 72.3127 70.7376C72.0651 68.7337 72.2858 67.6837 72.1581 66.0516C72.1052 65.3769 72.0572 64.4702 71.9706 63.8556C71.6936 61.883 71.5031 61.5939 71.5155 59.4622C71.5182 59.0097 71.5824 58.8272 71.5976 58.3426C71.6066 58.0301 71.6388 58.0335 71.6637 57.809C71.9559 55.201 71.5598 54.6923 71.5511 52.5828C71.5492 52.1455 71.4725 51.9675 71.4774 51.4644C71.4902 50.2202 71.4135 49.2953 71.2162 48.0756C71.0994 47.3552 71.0374 46.721 70.9369 45.9699C70.8817 45.5599 70.8636 45.3123 70.8118 44.903C70.7732 44.5994 70.6882 44.1304 70.6897 43.7581C71.1591 43.7604 71.3628 43.6866 71.737 43.6885C72.1188 45.361 72.5652 46.9527 72.6929 48.697C72.7352 49.2741 72.7798 49.9337 72.8399 50.5607C73.1336 53.6098 73.1518 52.9211 72.7496 55.901C72.5916 57.0746 72.7704 58.4942 72.9163 59.6421C73.1733 61.6676 72.996 63.4384 72.9873 65.4526L72.9768 68.446C72.9741 68.8954 72.8989 68.988 72.8921 69.4121C72.8505 71.8987 72.7538 72.4494 73.3207 74.7996C73.4526 75.3458 73.5343 75.8919 73.6325 76.5005C73.823 77.6767 74.1246 78.6284 74.1193 80.0379C74.1175 80.6354 74.0804 81.3758 73.9931 81.9386C73.758 83.4535 74.1023 86.2225 74.0842 87.8152C74.063 89.7017 74.6504 91.2132 74.9399 92.9231C75.4437 95.8996 74.9267 98.0479 75.5239 100.384C75.6021 100.69 75.658 100.811 75.7945 101.084C75.8731 101.241 75.8894 101.289 75.9854 101.416C76.1384 101.619 76.0795 101.588 76.2677 101.657C76.4083 101.357 76.1524 100.698 76.1003 100.334C76.0352 99.8841 76.0557 99.3031 76.056 98.7396C76.0568 97.2141 76.3977 95.5129 76.2375 94.0188C76.1211 92.939 76.132 92.0073 75.9941 90.9093C75.7506 88.9609 76.239 86.7517 75.9045 84.6706C75.8209 84.1471 75.6989 83.7011 75.6214 83.2396C75.4536 82.2452 75.5084 81.185 75.3697 80.1384C75.1089 78.1669 75.3054 75.8375 74.9917 73.888L74.7573 71.664C74.7483 71.2876 74.6837 71.2505 74.6803 70.8461C74.6761 70.3018 74.7067 69.7379 74.6931 69.1955C74.6814 68.728 74.5805 68.0911 74.5506 67.6247C74.4852 66.5868 74.2101 65.5531 74.3575 64.5061C74.6417 62.4882 74.7872 60.3799 74.5767 58.2927C74.393 56.4664 74.6886 55.3117 74.8299 53.6426C74.873 53.1316 74.839 52.4547 74.8413 51.9263L74.8416 51.9271ZM21.2465 48.0272L21.2291 51.9902C21.2235 53.2979 21.4839 54.4171 21.5111 55.7305C21.5334 56.7873 22.0225 58.6461 22.0198 59.2471C22.0153 60.2854 21.6373 61.3149 21.632 62.5358C21.6211 65.0054 21.6577 64.5991 21.9994 67.0101C22.1219 67.8749 22.151 69.1449 22.199 70.0879C22.2213 70.5184 22.3048 71.1689 22.3351 71.5907C22.4095 72.6218 22.6325 73.7209 22.6276 74.5797C22.625 75.1428 22.5467 75.514 22.5437 76.1482C22.5331 78.6012 23.5733 82.4648 23.557 84.0776C23.5506 84.6766 23.5532 85.2753 23.5472 85.8744L23.6681 88.4385C23.729 89.0281 23.4149 90.3801 23.7626 92.1369C24.1421 94.049 23.9694 93.2047 23.9573 94.9229C23.9528 95.4653 23.8155 95.799 23.8957 96.3977C24.1296 98.1424 23.8137 100.541 24.0533 102.346C24.1157 102.816 24.0677 103.421 24.1206 103.843C24.189 104.391 24.1939 104.748 24.291 105.238C24.5983 106.793 24.8943 108.68 25.513 110.13C25.9794 111.225 26.5256 112.172 26.9844 113.288C27.159 113.714 27.3083 113.962 27.4709 114.369C27.6118 114.721 27.7921 115.005 27.9475 115.385L28.6607 116.987C29.3735 118.319 30.0414 118.946 31.3287 119.702C31.6481 119.89 32.0355 120.066 32.37 120.234C33.0186 120.56 33.7534 120.911 34.3551 121.318L35.2354 122.009C36.9041 123.325 36.6414 123.773 39.0661 124.391L41.4711 125.134C41.4688 125.602 41.3172 126.026 41.3138 126.778C40.9994 126.704 40.1085 126.131 39.7475 125.949L36.4887 124.414C35.4096 123.869 34.4352 123.274 33.4204 122.617C31.7052 121.506 29.9885 120.384 28.4335 119.073C27.7683 118.511 27.2664 117.764 26.8264 117.018C26.5286 116.513 26.2474 115.997 26.013 115.441C25.7556 114.83 25.5183 114.348 25.2628 113.729C24.5711 112.054 24.7676 111.318 24.4706 109.676C24.3122 108.801 23.901 107.297 23.5381 106.43C23.4062 106.115 23.5393 106.143 23.235 106.061C23.1167 106.558 22.9319 106.951 22.9292 107.555C22.9194 109.774 23.4909 112.09 24.3708 113.943C25.0594 115.394 25.7519 116.863 26.7599 118.126L29.9507 121.589C30.1038 121.737 30.1321 121.738 30.2799 121.858C31.1349 122.548 31.9278 123.317 32.8803 123.896C33.9794 124.564 35.2384 125.113 36.4698 125.624C37.0957 125.884 37.6404 126.161 38.2818 126.434C38.9285 126.709 39.5049 126.913 40.1588 127.179C41.5641 127.748 41.1857 127.33 41.5826 128.373C41.8264 129.012 42.2739 129.595 42.2705 130.371C40.6361 129.266 39.2604 128.891 37.5845 127.869C36.2423 127.05 35.1288 126.886 33.8127 126.248C32.24 125.484 30.9122 124.306 29.5266 123.274C27.8904 122.056 27.0608 121.526 25.8815 119.741C25.6283 119.358 25.3875 119.011 25.1724 118.583C24.7635 117.766 24.4052 116.986 24.0658 116.106C23.7211 115.215 23.5585 114.273 23.2497 113.342C22.62 111.441 21.9749 109.757 21.6241 107.732L21.3731 104.407C21.3093 102.755 21.0103 101.192 20.7623 99.5779C20.6146 98.6167 20.4399 95.4558 20.4441 94.4584L20.5189 94.4587C20.5118 96.1467 21.5651 101.062 22.1586 102.586C22.2954 102.937 22.4375 103.269 22.7977 103.366C23.2233 102.618 22.3521 97.0675 22.1476 95.8224L21.2552 89.6348C21.0341 88.2246 21.008 86.7411 20.816 85.3056C20.5072 83.0007 20.9317 75.0729 20.7404 73.6185C20.5416 72.1096 20.5681 70.7418 20.3866 69.205C20.3557 68.9491 20.2963 68.468 20.2162 68.1826C20.1111 67.8107 19.9025 67.7188 19.8159 67.3877L19.5914 67.3866C19.4924 67.8031 19.2894 68.005 19.2868 68.5817L19.2739 71.4977C19.2694 72.5454 19.4984 73.4423 19.4863 74.4889C19.4746 75.5495 19.6727 76.4449 19.6991 77.4798C19.7112 77.9677 19.65 78.5706 19.7006 79.0415L19.8182 83.7635C19.8276 81.6083 19.0589 79.7695 18.8793 77.6967C18.8355 77.1857 18.772 76.6078 18.7346 76.1286C18.6907 75.5707 18.7557 74.9062 18.7406 74.3351C18.7308 73.9587 18.6673 73.9205 18.6639 73.5176C18.662 73.2205 18.6692 72.9143 18.6722 72.6161C18.6945 70.4099 17.9446 67.8349 17.9594 64.4642C17.965 63.1897 17.934 62.1986 17.832 61.0916C17.7114 59.7955 17.5368 58.4783 17.5425 57.1339C17.5485 55.777 17.9291 54.3011 17.9367 52.6497C17.9476 50.1669 17.4011 50.6654 18.3419 48.1757L18.9364 46.298L18.919 50.3366C18.9186 50.9043 18.8385 51.1821 18.8355 51.6791C18.8328 52.1281 18.8328 52.5783 18.8317 53.0273C18.8313 53.5886 18.7561 53.9057 18.7482 54.3702C18.741 54.8117 18.738 55.28 18.7421 55.7218C18.7455 56.025 18.7981 56.144 18.8026 56.3247C18.8083 56.5522 18.741 56.6501 18.7395 56.9895C18.7315 58.8 19.1764 59.9671 19.1722 61.2515C19.17 61.9904 19.1745 62.8465 19.2751 63.5317C19.4368 64.632 19.5725 64.6679 19.7498 65.4442L20.5186 60.5125C20.5303 57.8641 20.6297 57.2284 20.3337 54.6665C20.1644 53.2091 20.1304 51.7963 20.1183 50.2636C20.1153 49.8346 20.0412 49.6963 20.0427 49.2204C20.0438 48.72 20.1209 48.5375 20.1277 48.1013C20.1413 47.3045 20.1773 46.6284 20.2101 45.9306C20.2895 44.2336 20.7499 42.6582 21.1426 41.0889C21.2518 40.6539 21.2204 40.5665 21.5799 40.3284C21.5776 40.9147 21.6245 41.7836 21.5602 42.3358C21.3849 43.8348 21.6668 44.4263 21.4177 46.0985C21.3232 46.7353 21.2499 47.3212 21.2465 48.0283V48.0272ZM23.7377 42.7297L23.726 45.3463C23.7226 46.1676 24.1878 49.592 24.3443 50.5407C24.632 52.2812 24.282 54.9432 24.2729 57.013C24.2672 58.326 24.5707 59.613 24.6939 60.8395L25.1339 66.7308C25.2802 68.6588 25.7882 69.6566 25.7757 72.4974C26.4583 72.3183 26.3094 70.041 26.312 69.434C26.3184 67.9997 26.1741 66.8658 26.1805 65.3959C26.1831 64.7238 26.2394 63.9792 26.1461 63.345L26.0471 61.3588C26.0607 59.7139 25.8898 56.985 25.6585 55.4905C25.375 53.6536 24.9661 51.7347 24.974 49.9125L25.0609 47.8942C25.064 47.1957 25.064 46.4961 25.0677 45.7976C25.0712 45.211 25.1959 44.4248 25.2288 43.8571L25.3146 40.7899C25.3149 40.3318 25.3845 40.2116 25.3981 39.8223C25.4094 39.4799 25.3962 39.1155 25.3977 38.7705C25.4004 38.3196 25.4778 38.2277 25.4797 37.8014C25.8509 37.8898 26.3672 38.0319 26.6745 38.1801C26.6715 38.8786 26.6711 39.5774 26.6639 40.2751C26.6571 40.9471 26.7769 41.6687 26.806 42.2935C26.8378 43.0022 26.8691 43.6232 26.9338 44.251C27.0014 44.9082 27.0834 45.6067 27.0861 46.2587L27.664 52.0136C27.7116 52.6531 27.8042 53.3342 27.8012 54.0369C27.7944 55.5389 27.6364 56.7193 27.8345 58.0985C28.0147 59.3556 28.1126 60.6909 28.2767 61.9042L28.7344 65.6929C28.7726 66.0467 28.9098 68.9703 29.592 68.9502C29.9998 68.9382 29.8781 68.584 29.9208 68.1932C30.1268 66.2992 29.9942 64.011 29.7972 62.1835C29.7417 61.6665 29.654 61.1078 29.6415 60.6263L29.4102 57.3554C29.2741 56.2922 29.6022 55.1726 29.5164 54.1238L29.2431 49.1834C29.2125 48.0465 29.1022 46.9738 29.1086 45.8184C29.1142 44.5212 29.0027 42.219 28.8191 40.8939C28.7548 40.4256 28.5745 39.8503 28.5386 39.385C29.2378 39.5755 29.6948 40.6043 29.9488 41.1879C30.4092 42.2421 30.3993 42.4704 30.3869 43.9546C30.3748 45.4646 30.5944 46.9062 30.7951 48.3148C31.0528 50.123 30.879 51.1526 30.8714 52.9294C30.8691 53.4291 30.8948 54.0112 30.865 54.5002C30.8465 54.7962 30.7652 54.9009 30.8038 55.2237C30.9587 56.5121 30.8574 57.4098 31.2501 58.8075C31.5245 59.7831 31.8084 60.8777 31.8038 61.9817C31.794 64.1331 31.3015 64.8701 31.5665 67.5019C31.6202 68.0382 31.6474 68.618 31.7086 69.2224C31.9324 71.4293 31.5098 74.261 31.7944 76.4328L32.0238 79.9275C32.0117 82.6658 31.6247 84.4555 31.9297 87.3163C32.0004 87.9759 32.0798 88.677 32.1743 89.3819L32.999 97.7214C33.3066 101.571 32.4967 101.887 33.5436 107.008C33.705 107.798 33.9053 108.423 34.1287 109.108C34.5641 110.444 35.125 111.538 35.9018 112.711C36.5851 113.742 37.3667 114.892 38.4307 115.564C39.4115 116.185 40.1308 116.303 41.2851 116.308L41.3528 117.953C41.2454 117.901 40.11 117.709 38.5649 116.92C37.6774 116.468 36.1342 115.065 35.4928 114.234C34.6375 113.125 33.9798 111.868 33.2042 110.694C32.6524 109.859 32.2502 109.184 32.0586 108.033C31.7721 106.31 31.3136 104.831 31.3238 103.029L31.1269 99.3534C31.0933 99.0404 31.1417 98.7286 31.0993 98.4127C30.8586 96.5916 31.2516 92.0719 31.0188 89.8566C30.9882 89.5596 31.0234 89.3063 30.9806 89.0013C30.7282 87.189 30.5728 84.6381 30.4356 82.7675C30.1476 78.8552 29.7647 73.874 28.7782 70.0426C28.7076 69.7678 28.6184 69.5675 28.556 69.2946L28.3322 69.2934C28.0113 70.6409 28.6221 73.1139 28.6093 74.676C28.6059 75.0963 28.6335 75.2759 28.6671 75.5865C28.7355 76.22 28.6463 76.9578 28.7238 77.5406C28.8754 78.684 28.6369 80.2801 28.731 81.4794C28.7771 82.0758 28.7975 82.6496 28.7915 83.3545C28.7877 83.7888 28.8474 83.9025 28.8644 84.2499C28.8807 84.5757 28.8621 84.9658 28.8587 85.298C28.8527 85.9689 28.9298 86.4372 28.9264 87.1674L28.8973 93.151C28.8962 93.5841 28.9634 93.6612 28.9733 94.0437C29.0247 96.1082 29.3535 98.2686 29.6808 100.265C29.8619 101.372 30.0047 102.635 30.0497 103.846C30.0905 104.944 30.4345 106.134 30.6008 107.245C30.9326 109.463 30.9534 109.973 31.8832 111.855C32.3863 112.874 33.411 114.915 34.0898 115.624C34.5581 116.113 35.1178 116.567 35.5234 117.106C36.0386 117.792 37.6347 118.849 38.4621 119.181C39.3575 119.541 40.4491 119.968 41.6434 119.973C41.7425 120.41 41.7893 120.697 41.7867 121.246C40.9585 120.802 40.4559 120.919 39.1893 120.098C38.7917 119.84 38.4659 119.599 38.0611 119.355C35.1367 117.6 34.9073 118.166 32.7234 115.117C32.5764 114.912 32.5114 114.785 32.3632 114.581C32.2045 114.36 32.1134 114.234 31.9645 114.008C31.7018 113.611 31.4372 113.263 31.1522 112.878C29.7239 110.952 29.4045 109.948 28.8213 107.595C28.5756 106.603 28.4959 105.417 28.2842 104.33C28.1739 103.76 28.0597 103.362 27.9101 102.84C27.5933 101.735 27.8035 100.505 27.6353 99.3152C27.5453 98.6818 27.5143 98.2153 27.447 97.566C27.331 96.4329 27.4402 95.0888 27.2841 93.9311C27.1296 92.7832 27.1488 91.5454 27.0305 90.3858C26.9152 89.2598 26.6352 88.1252 26.6068 87.0087C26.5418 84.4752 26.6662 81.9122 26.6454 79.3768C26.6412 78.8125 26.5108 77.2851 26.3668 76.8248C26.2731 76.5281 26.1261 76.4181 26.0584 76.1618L25.8346 76.1607C25.7693 76.9072 25.6789 76.369 25.6785 78.0316L25.5931 79.9732C25.5897 80.7549 25.6967 81.4567 25.7352 82.2149C25.8074 83.6402 26.1797 85.109 26.1642 86.5547L26.2202 90.4448C26.2164 92.2023 25.9821 92.4419 26.2992 94.6844C26.4129 95.4876 26.4742 96.5413 26.563 97.4008C26.6533 98.2773 26.9285 99.0518 26.9992 99.9464C27.0721 100.882 27.0891 101.798 27.1375 102.787L27.3473 105.557C27.4693 107.505 28.2366 108.461 28.7605 110.187C28.8727 110.556 28.9498 110.968 29.0591 111.38C29.7987 114.169 31.6032 115.44 33.5603 117.414L35.1258 118.841C35.8885 119.558 36.6222 120.36 37.4612 120.993C38.9519 122.116 40.0061 122.209 41.8577 122.218C41.8547 122.887 41.7016 123.68 41.699 124.311C41.3849 124.143 41.1649 124.005 40.8478 123.815C40.5462 123.634 40.2763 123.517 39.9592 123.356C39.6334 123.19 39.3469 123.098 39.0374 122.929C38.8412 122.823 38.814 122.784 38.6159 122.677L34.611 120.542C33.5765 120.018 32.2941 119.05 31.5786 118.188L30.3105 116.765C29.8324 116.282 29.4144 115.857 28.9736 115.335C28.1315 114.34 27.6905 112.949 27.1753 111.757C26.9031 111.129 26.6072 110.525 26.3581 109.887C25.8312 108.541 25.6079 106.957 25.2881 105.513C25.1411 104.851 25.0069 103.298 24.9706 102.478C24.9309 101.556 24.6554 100.16 24.68 99.4108L24.7658 98.0653C24.771 96.9015 24.6267 95.8077 24.6316 94.6999C24.6395 92.8898 25.0171 92.7613 24.7453 90.5657C24.6728 89.978 24.6516 89.4915 24.5787 88.945C24.4475 87.9608 24.1534 87.0597 23.9845 86.0343C23.8174 85.0179 23.8122 83.9256 23.6999 82.8178C23.5854 81.6907 23.7211 80.6056 23.7264 79.3666C23.729 78.7713 23.6836 78.3533 23.6579 77.871C23.6092 76.962 23.7675 75.8825 23.5385 74.8627C23.1356 73.067 23.2263 73.8661 23.4467 72.0994L23.7063 66.9538C23.7093 66.244 23.5778 65.7757 23.5623 65.1611C23.4916 62.3778 23.7434 62.7856 22.9889 59.9225C22.7259 58.9258 22.9296 58.2689 22.9277 57.2307C22.9262 56.5129 22.9447 55.0653 23.0453 54.4201C23.1583 53.6944 23.0184 53.2873 23.0214 52.5942C23.0252 51.8004 23.1889 50.9954 23.0865 50.2221C22.8945 48.7684 22.8922 47.2475 22.6367 45.7545C22.2632 43.5699 21.728 44.4471 22.3804 41.8834C22.5524 41.211 22.795 39.78 23.0207 39.2236C23.1212 38.9764 23.6708 38.6113 23.9807 38.5407C23.9747 39.9641 23.7445 41.2363 23.7381 42.7274L23.7377 42.7297ZM41.3017 27.478C41.2919 29.708 41.2031 28.9876 40.9979 30.8525C40.9517 31.2728 40.9786 31.6991 40.9279 32.0578C40.6343 34.1347 41.7867 38.4533 41.764 41.313C41.7542 42.6049 41.8487 44.0355 41.823 45.5784C41.8162 46.0028 41.7413 46.095 41.7383 46.5444L41.7481 52.1232C41.8143 52.5734 41.7515 53.0239 41.8169 53.4699C41.9783 54.5721 42.0255 57.0424 42.2247 58.7236C42.3585 59.8534 43.2838 65.6506 43.2226 66.3619L42.9013 71.825C42.8941 73.4163 43.1496 74.8329 43.48 76.0904C43.8243 77.4012 43.9641 78.8953 44.1214 80.3682C44.3258 82.2868 44.4887 85.3838 44.4774 87.3848C44.4619 90.2577 44.2083 89.7981 44.7106 93.1839C44.79 93.7187 44.7972 94.4331 44.7117 94.9811C44.5213 96.2046 44.6774 98.7884 44.9782 99.9914C45.1997 100.879 45.2103 100.318 45.0338 101.614C44.9899 101.935 45.0323 102.247 45.005 102.562C44.8384 104.493 45.0474 106.611 44.9053 108.245C44.765 109.854 44.6002 110.577 44.5923 112.36L44.7284 116.319C44.7545 116.674 44.838 117.244 44.8637 117.599C44.9306 118.497 44.9204 119.313 45.027 120.192C45.4692 123.843 45.0515 124.26 44.7529 127.693C44.6849 128.48 44.7409 129.562 44.7374 130.381C44.7333 131.355 44.6551 132.059 44.6513 132.998L44.0552 132.693C44.3262 129.547 45.1052 126.623 43.8591 123.508C43.5007 122.613 43.5673 122.664 43.4478 121.754C43.3824 121.262 43.5189 121.22 43.5113 120.807L43.4403 119.233C43.4418 118.959 43.4399 118.683 43.4414 118.409L43.5465 116.713C43.7056 115.587 43.497 115.319 43.5348 114.222C43.5688 113.224 43.7374 112.953 43.5283 111.627C43.5045 111.476 43.3273 110.941 43.3276 110.859C43.3299 110.313 43.6799 108.18 43.6406 107.577C43.5646 106.433 43.4191 105.433 43.624 104.248C44.3141 100.244 43.5472 100.313 43.3866 97.4745C43.3662 97.1151 43.3424 96.4707 43.2861 96.0851C43.2282 95.6875 43.2229 95.1232 43.1848 94.7706C43.1587 94.5264 43.1889 94.2792 43.1776 94.0332C43.0793 91.9506 42.752 91.539 42.9712 89.0191C43.1247 87.2506 42.8488 86.2512 42.8457 84.8327C42.8446 84.4276 42.78 84.3931 42.7705 84.0144C42.7263 82.3041 42.7652 80.6252 42.5279 78.8949C42.4016 77.9749 42.4292 77.0924 42.4334 76.1595C42.4375 75.2392 42.5917 74.1114 42.5978 72.7201C42.6023 71.6958 42.2312 71.0846 42.2361 69.9519C42.2402 69.036 42.4678 68.4067 42.4723 67.3359C42.4795 65.685 41.8978 64.1648 41.8899 63.0744C41.8755 61.1672 42.0044 60.4577 41.6083 58.5135C41.2466 56.7333 40.9162 56.1191 41.2073 54.2682C41.5013 52.3984 41.016 51.0653 40.8312 49.3081L40.66 47.17C40.5579 46.4719 40.6781 45.6887 40.6225 44.9736C40.5704 44.3069 40.5012 43.5033 40.4154 42.871C40.0348 40.0691 40.2714 40.6255 40.2827 38.0149C40.2873 37.0133 40.1414 36.2944 40.1455 35.3219C40.152 33.8093 40.2321 32.5223 40.2389 31.0603C40.2499 28.6803 39.9751 26.9957 40.192 24.4735C40.2722 23.5366 39.7963 21.9415 40.13 18.9341C40.3542 16.912 40.0091 15.4107 40.4608 13.7102C40.4929 13.59 40.4702 13.6475 40.5133 13.5375L40.6161 13.3409C40.6146 13.6267 40.6331 13.9487 40.5991 14.2292L40.635 18.7568C40.6728 19.0267 40.6902 19.3782 40.7151 19.5706C40.7578 19.8937 40.804 20.1489 40.8115 20.4429C40.875 23.0146 40.9582 23.402 41.1668 25.6743C41.222 26.2749 41.3048 26.781 41.3017 27.4765V27.478ZM50.5222 5.08694C50.5986 5.16971 50.5974 4.95616 50.5959 5.31107C50.5199 5.22829 50.5207 5.44185 50.5222 5.08694ZM50.5222 5.08694L50.0161 4.09931C49.8736 3.80034 49.7111 3.32524 49.6344 2.98885C50.0248 3.27837 50.4712 4.43381 50.5222 5.08694ZM50.5959 5.31107L50.6496 5.40745C50.6587 5.42748 50.7161 5.56052 50.7169 5.56355C50.7641 5.68298 50.7841 5.74573 50.8185 5.83569C52.1441 9.29785 52.0061 9.38818 52.4442 13.1576C52.5545 14.1071 52.7152 15.0418 52.7987 16.0819C52.8286 16.4595 52.8429 17.1285 52.903 17.5409L53.0636 22.2957C53.0595 23.4273 52.8425 24.3605 52.9 25.4358C53.0081 27.4693 53.5002 29.279 53.4726 31.3446C53.459 32.3968 53.6125 33.3644 53.6877 34.4072C53.767 35.5044 53.6782 36.3178 53.668 37.4793C53.6582 38.645 53.9466 39.3227 54.2089 40.2188C54.7857 42.1922 54.2712 43.4984 54.396 44.723C54.4406 45.1566 54.5377 45.7073 54.5997 46.1597C54.7218 47.0506 54.6976 48.3526 54.5581 49.2643C54.4534 49.9507 54.2629 51.6647 54.8019 52.0635C54.8068 50.9443 54.7955 50.6609 54.9501 49.5837C55.0631 48.7975 55.2691 47.8885 55.2755 47.0581C55.2868 45.6298 55.0612 44.545 55.2275 43.0294C55.3825 41.6169 55.2109 40.6614 54.9032 39.3072C54.7233 38.5191 54.7649 37.4563 54.859 36.6493C54.9724 35.673 54.9017 34.8789 54.8824 33.9673C54.8745 33.5904 54.7849 33.0322 54.749 32.6852C54.7055 32.2827 54.7422 31.6976 54.7418 31.2743C54.743 30.3675 54.899 29.6192 54.907 28.6576C54.9115 28.1266 54.8306 27.8828 54.8359 27.3132L54.9229 24.5469C54.9958 23.1605 55.0355 21.7749 54.9372 20.4384C54.8083 18.7005 54.8609 16.7449 54.7358 14.9802L54.2542 10.0526C54.2818 9.88293 54.2554 9.98046 54.3143 9.88823C54.8352 12.1693 55.1224 15.1695 55.1031 17.5186C55.0975 18.2458 55.1731 18.7587 55.1697 19.5384C55.1663 20.2354 55.164 20.9339 55.1602 21.6316C55.1568 22.2655 55.1689 23.0248 55.2464 23.6307C55.5076 25.6671 55.4429 27.6254 55.4959 29.7114C55.5284 30.9628 55.7506 32.3129 55.8511 33.6022C55.9494 34.8578 55.7733 36.5741 55.9437 37.7545C56.1384 39.1133 56.1985 40.455 56.1184 41.8252L56.0254 45.9371C56.0201 47.0967 56.1244 49.1244 55.9638 50.1559C55.7669 51.4153 56.1516 52.9064 56.1403 54.1612C56.129 55.5793 56.0987 57.0349 56.2015 58.3441C56.355 60.2926 56.4272 60.2396 55.9687 62.0278C55.5257 63.7574 55.6281 65.9227 55.8954 67.8046C55.9902 68.4721 56.1505 69.0564 56.2102 69.651C56.3633 71.1757 55.8058 72.8391 56.2348 75.6565C56.5825 77.9367 56.6921 79.1084 56.5413 81.6812C56.4638 83.0109 56.3055 84.3349 56.2994 85.6427C56.2809 89.9016 56.9476 93.0399 56.2892 97.6488C56.1063 98.9278 56.0394 100.248 56.0768 101.721C56.1244 103.587 56.7341 105.302 56.9854 107.147L57.2353 111.069C57.2281 111.781 57.2545 112.591 57.171 113.184C56.9272 114.904 57.233 117.461 57.4367 119.207C57.5074 119.814 57.6223 120.434 57.7451 121.06C58.4198 124.514 57.9024 124.927 57.9802 127.974C58.0052 128.963 58.1257 129.972 58.1167 131.039L58.1843 133.132C58.1817 133.727 58.1238 134.652 58.1934 135.207C58.2236 135.443 58.4674 136.866 58.5407 137.021C57.7799 137.018 57.637 136.831 57.637 136.831L57.7372 136.287C57.7867 136.086 57.8404 135.759 57.8691 135.518C58.0766 133.721 57.4885 132.743 57.4431 130.963C57.4295 130.399 57.4541 129.804 57.4564 129.238C57.4582 128.692 57.332 128.189 57.2428 127.737C57.1461 127.246 57.0338 126.839 56.8992 126.365C56.7299 125.769 56.787 125.432 56.6936 124.782L56.5141 121.535C56.4559 120.25 56.2979 118.843 56.3062 117.493C56.3085 117.104 56.3905 116.959 56.3837 116.677C56.3773 116.418 56.3123 116.303 56.313 115.928L56.2265 112.601C56.2998 112.141 56.1913 112.204 56.1845 111.812L56.0348 111.811C55.9755 112.061 55.8602 112.334 55.8243 112.575C55.7759 112.891 55.8039 113.279 55.8024 113.605L55.7173 116.524C55.7117 117.553 55.5242 117.888 55.6901 119.523C55.9267 121.854 55.9982 124.903 56.3527 127.055C56.7768 129.626 56.4041 129.061 56.3966 130.731C56.3913 131.987 56.6997 133.12 56.8788 134.351C56.9752 135.008 56.8637 135.715 56.8274 136.269C56.7462 137.503 56.5285 136.873 55.9831 137.52C55.6652 137.897 55.4702 138.352 55.243 138.801L54.5638 140.219L54.6549 136.406C54.622 135.749 54.7229 135.059 54.6337 134.418C54.5415 133.757 54.4791 133.208 54.4466 132.518C54.4092 131.701 54.3695 131.628 54.5309 130.722C54.6235 130.201 54.7637 129.43 54.7641 128.855C54.7652 128.166 54.9149 127.711 54.8034 126.954L54.6572 118.984C54.6606 118.218 54.6666 115.722 54.7811 114.978C54.9323 113.999 55.0162 112.218 54.865 111.185C54.4738 108.523 54.393 108.585 54.4175 105.523C54.4266 104.399 54.2962 103.841 54.475 102.653C54.6178 101.705 54.4047 100.726 54.3676 99.7665L54.3049 97.7429C54.2901 95.8686 53.6661 94.1949 53.5773 92.3603L53.5886 90.4939C53.5962 90.1722 53.5886 89.8393 53.589 89.5165C53.589 89.058 53.6586 88.9386 53.6722 88.5493C53.6986 87.7665 53.5973 87.2668 53.603 86.5275C53.614 85.1574 53.6155 83.7858 53.6215 82.4145C53.6279 80.9782 53.4768 79.8984 53.4148 78.5256C53.3887 77.9545 53.2734 77.2961 53.38 76.6127C53.4344 76.262 53.4065 76.0435 53.4269 75.6837L53.5985 70.6749C53.6057 69.163 53.3626 68.2155 53.188 66.9878C53.0085 65.7277 53.0206 64.4732 53.0353 63.0445C53.0553 61.0031 52.5844 60.1814 52.8308 57.358L52.7775 53.3236C52.7779 52.5987 52.8565 52.0824 52.8614 51.3053C52.8705 49.9197 52.482 48.8051 52.6747 47.4372C52.8274 46.3509 53.075 44.7654 52.9586 43.69C52.7367 41.6332 53.4428 40.1119 53.4465 38.1461C53.4473 37.4865 53.2088 36.8103 52.612 37.0038C52.0276 37.1932 52.1577 37.8433 52.084 38.5044C52.0182 39.0906 52.0035 39.8008 51.9165 40.4384C51.7306 41.7942 51.943 42.9995 52.1142 44.2294C52.2189 44.9861 52.0295 47.365 51.9237 48.1069C51.83 48.7616 51.997 49.3183 51.9721 50.0334C51.9059 51.9218 51.0684 53.5338 51.3269 55.5064L51.624 59.2328C51.7578 60.4373 52.0753 61.6185 52.0632 62.8918L52.0375 69.0251C52.0375 69.4832 51.9672 69.6034 51.9539 69.9923C51.9415 70.3789 51.9668 70.6273 51.909 70.9984C51.839 71.4448 51.9056 72.4188 51.9634 72.8917C52.0322 73.4575 52.1622 74.007 52.2582 74.6091C52.5375 76.3629 52.29 78.6538 52.2839 80.539C52.2816 81.2118 52.3451 81.9492 52.2435 82.6012C52.0008 84.1566 52.262 85.8842 52.4653 87.3575C52.7662 89.5335 52.5096 91.7744 52.8977 94.0755C53.2269 96.0224 52.6963 97.385 53.1895 99.8905C53.8971 103.484 52.8463 105.597 52.8304 109.255C52.8263 110.35 53.0621 112.262 52.92 113.174C52.6184 115.107 53.0376 117.013 53.335 118.804L53.4567 120.699C53.4416 121.083 53.3747 121.159 53.3721 121.591C53.3615 123.429 53.0708 125.109 53.0512 126.45C53.0425 127.084 53.0179 127.824 52.9283 128.429C52.8335 129.072 52.7813 129.659 52.6861 130.212C52.2873 132.524 53.1392 133.464 53.2386 135.575C53.2617 136.06 53.2727 137.124 53.2186 137.584L53.0686 139.536C53.0255 142.089 53.8634 142.781 53.798 144.928C53.781 145.495 53.5626 146.108 53.4564 146.686C53.1948 148.101 53.3059 149.935 53.5418 151.355C53.8479 153.198 53.49 152.434 53.2609 153.924C53.0304 155.426 53.6865 157.752 53.9783 159.261C54.1805 160.303 53.4942 163.251 53.4824 164.888C53.473 166.214 53.781 167.335 53.7686 168.705C53.7644 169.136 53.6979 169.216 53.6843 169.597C53.6729 169.932 53.7069 170.313 53.6786 170.643C53.3641 174.25 53.9613 175.204 53.956 176.405C53.3297 176.403 52.4321 176.773 52.0091 176.994L52.4714 175.358C52.5889 174.779 52.6898 174.212 52.7858 173.572C53.1789 170.937 52.0764 167.965 52.3882 165.961C52.7326 163.754 51.9105 161.504 52.3058 158.068C52.5141 156.256 52.6158 149.339 52.4162 147.855C52.3364 147.264 52.1425 146.641 52.0103 146.099C51.8848 145.583 51.7056 144.917 51.7015 144.321C51.6882 142.315 51.9596 140.479 52.2401 138.55C52.8671 134.243 52.4249 133.184 51.8587 129.052C51.774 128.435 51.7234 127.75 51.6508 127.174L51.4928 124.204C51.5061 122.862 51.3515 121.513 51.3639 120.163L51.0098 115.228C50.5668 115.522 50.6273 116.305 50.6296 116.872L50.5449 118.89C50.5385 120.355 50.4583 121.573 50.4519 123.002C50.4413 125.447 50.3948 126.637 50.5706 129.063C50.5974 129.434 50.6182 129.743 50.6398 130.037C50.6677 130.421 50.7067 130.673 50.7157 131.003C50.7762 133.244 51.3307 135.932 51.2834 138.711L51.1277 140.656C50.9671 142.611 50.6477 144.478 50.8012 146.478C50.9028 147.799 50.6715 148.919 50.5547 150.217C50.3279 152.732 50.269 155.635 50.2259 158.222C50.2149 158.869 50.1053 159.563 50.1382 160.237C50.2418 162.345 50.7841 163.173 50.5589 165.843C50.5056 166.473 50.405 167.075 50.4043 167.79L50.5078 176.005C50.478 176.273 50.4156 176.619 50.348 176.896C50.2724 177.206 50.2871 177.474 50.2856 177.884C48.7964 178.664 49.1525 179.15 46.9153 179.14C46.9202 178.088 47.7914 174.745 48.0106 173.336C48.2264 171.953 47.9615 170.186 48.0862 168.756C48.2854 166.472 48.1743 166.418 48.1766 164.341C48.1777 162.882 48.386 161.572 48.6014 160.113C48.6793 159.587 48.756 158.451 48.6853 157.956L48.4498 155.881C48.3791 155.144 48.3568 154.454 48.3701 153.645C48.3776 153.214 48.454 153.083 48.4544 152.604C48.4547 152.205 48.4566 151.805 48.4581 151.406C48.4619 150.593 48.4411 149.911 48.3882 149.168L48.2635 144.675L48.0386 144.674C47.988 145.258 47.7249 145.838 47.5828 146.392C47.4191 147.029 47.3352 147.571 47.2687 148.329C47.1489 149.681 47.0566 151.113 46.8605 152.423C46.7705 153.029 46.7108 153.728 46.6069 154.42C46.5513 154.785 46.6008 155.131 46.5502 155.49C46.416 156.44 46.6008 157.604 46.7063 158.576C46.7796 159.251 46.8518 159.919 46.8469 160.671L46.8314 163.961C46.8272 164.437 46.8843 164.636 46.9028 165.008C46.989 166.74 46.2119 168.749 46.2032 171.061C46.1998 171.852 46.1612 172.554 46.1204 173.232C46.0373 174.634 45.733 175.922 45.727 177.341L45.5754 176.895C45.5399 176.677 45.5334 176.615 45.4956 176.379C45.1581 174.301 45.4442 172.56 45.3021 170.615C45.276 170.26 45.1698 169.986 45.1275 169.596C45.0806 169.162 45.5062 166.021 45.558 165.154C45.575 164.871 45.6105 164.308 45.6559 163.976C45.86 162.507 45.6449 160.69 45.8177 159.182C46.0361 157.269 46.2202 155.302 45.9496 153.371C45.8925 152.964 45.9118 152.578 45.9122 152.142C45.9129 151.286 46.0392 150.672 46.1673 149.922C46.3895 148.622 46.7093 146.983 46.6356 145.546C46.5982 144.812 47.9868 143.067 48.2748 142.284C48.505 141.659 48.581 141.029 48.8486 140.384C48.9899 140.042 49.0504 139.875 49.1362 139.473C49.3063 138.674 49.3131 139.185 49.6249 138.689C49.8846 138.274 50.0146 137.275 49.9246 136.552C49.8381 135.858 49.6038 135.144 49.5225 134.494C49.3603 133.196 49.5285 129.074 49.5365 127.259C49.5437 125.584 49.4004 124.083 49.4076 122.472C49.4174 120.219 49.2643 119.911 49.0663 117.898C48.9147 116.353 48.8376 114.715 48.8501 113.199C48.8561 112.471 48.9295 111.444 48.8297 110.762L48.7193 108.415C48.7178 107.917 48.6687 107.706 48.6524 107.289C48.6377 106.897 48.669 106.418 48.4324 106.243C48.1199 106.469 48.3519 106.576 48.3542 106.989L47.9517 113.568C47.9241 114.069 47.8413 114.869 47.7978 115.366C47.7351 116.084 47.7215 118.686 47.8194 119.356C48.0473 120.917 47.8129 122.246 48.2435 124.891C48.6498 127.39 48.7673 129.819 48.5394 132.336C48.4869 132.92 48.3429 133.56 48.3088 134.132C48.2623 134.917 48.454 135.335 48.4513 136.002C48.2015 135.833 47.4165 134.739 47.0196 134.368C46.8824 134.24 46.5797 133.993 46.4413 133.9C46.5063 133.624 46.6284 133.36 46.6598 133.069C46.7339 132.376 46.8053 131.756 46.7093 131.102C46.5513 130.018 46.4712 127.141 46.4761 125.973C46.4791 125.305 46.5177 124.535 46.4855 123.879L46.3234 121.881C46.145 120.457 46.2811 119.276 46.2879 117.747C46.2977 115.459 45.9307 113.664 45.9409 111.689C45.9511 109.63 46.1219 107.503 45.9042 105.472C45.8313 104.794 45.8472 104.084 45.8298 103.387C45.8203 102.997 45.7519 102.876 45.7553 102.418C45.7587 102.044 45.7602 101.67 45.7617 101.295C45.7636 100.945 45.7678 100.595 45.7693 100.246C45.7723 99.2593 45.5573 98.2913 45.7372 97.1389C45.8215 96.5977 45.8275 95.7083 45.8664 95.1663C46.1004 91.9222 45.5565 91.8164 45.5913 89.1808L45.3297 85.1215C45.2027 84.1365 45.2454 83.1334 45.1695 82.1541C45.1415 81.798 45.0992 81.5705 45.1029 81.1033C45.1177 79.325 45.1339 78.7913 45.3887 77.0353C45.9012 73.5017 45.1525 70.4916 44.6921 67.2913C44.6104 66.7274 44.5749 65.911 44.5103 65.3123L44.4332 63.3046C44.4392 62.5815 44.4396 61.8585 44.4434 61.1358L44.3852 58.0667C44.3814 57.6343 44.3058 57.5032 44.31 57.0243C44.3236 55.427 44.1115 54.247 44.1066 52.9079C44.1047 52.3296 43.9755 51.537 43.9641 50.9648C43.9286 49.3074 43.5873 46.8071 43.3609 45.0863C43.0256 42.5452 42.8767 39.8386 42.9055 36.9763C42.9191 35.6439 42.7713 34.267 42.7754 32.8613C42.7777 32.2078 42.6318 31.6141 42.5354 31.015C42.3268 29.7136 42.3238 25.9359 42.4893 24.7668L42.752 20.6761C42.7577 19.2784 42.6893 17.9631 42.6957 16.4886C42.6972 16.1386 42.7017 15.7886 42.7025 15.439C42.7044 14.9764 42.6258 14.8592 42.6273 14.397C42.6292 13.7011 42.6738 12.9093 42.6397 12.2256C42.5415 10.2371 42.3997 10.4835 42.8805 8.489C43.0967 7.59549 43.1833 6.79307 43.4584 5.84173C43.5495 5.52575 43.576 5.20977 43.7925 5.05254C43.816 5.35188 43.9781 5.77899 44.056 6.13163C44.1376 6.50392 44.1822 6.95484 44.2208 7.30862C44.2797 7.84986 44.1558 8.09252 44.1478 8.56497C44.1244 9.9865 44.0938 10.9462 43.921 12.3923C43.842 13.0495 44.056 14.225 44.1233 14.8494C44.2998 16.4803 44.3281 18.1997 44.3224 20.0124C44.3202 20.7933 44.5126 21.6868 44.6089 22.408C44.6645 22.8184 44.7038 23.165 44.7768 23.5823C44.8391 23.9383 44.9155 24.3276 45.2776 24.4259L45.8868 22.0364C46.2187 20.1224 45.8283 18.2658 45.8373 16.2785C45.843 14.9843 45.8105 11.4617 45.6294 10.38C45.4669 9.41389 45.1143 8.84656 45.1256 7.82719L44.9238 3.48511C44.9166 3.16233 44.8739 3.12151 44.8357 2.82367C44.7934 2.4922 44.844 2.56628 44.9264 2.21704C45.1347 2.37049 45.0999 2.54058 45.2107 2.82859C45.4968 3.56865 45.7678 4.13976 45.9473 4.92781L47.3756 11.0304C47.5714 12.0698 47.6126 13.3614 47.7657 14.4404C47.9297 15.5936 48.1554 16.4913 48.1486 17.7843C48.1399 19.2852 48.1501 20.0941 48.4317 21.2998C48.7227 22.5433 48.7405 23.2523 48.5806 24.6039C48.1637 28.1224 48.999 28.342 49.0587 31.3234C49.0667 31.7002 49.1317 31.7369 49.1351 32.1413C49.1377 32.4471 49.1071 32.8077 49.1385 33.1059C49.2556 34.1891 49.1986 35.6084 49.0153 36.6837L48.7307 39.176C48.7216 39.4553 48.8032 39.6636 48.7983 40.0691C48.7926 40.5083 48.852 40.6153 48.8694 40.9668C48.8841 41.2715 48.8656 41.6279 48.8648 41.9389C48.8626 43.1904 48.6346 44.1659 48.6241 45.4529C48.6188 46.1113 48.6955 46.5388 48.6921 47.2471C48.6815 49.2219 48.3508 50.5267 48.9204 52.4551C49.4291 54.1771 48.9533 55.7456 48.945 57.6423C48.9419 58.3328 49.0187 58.8393 49.0138 59.4353L48.9896 64.0008C48.999 64.3787 49.0584 64.4634 49.0618 64.8966C49.0659 65.3036 49.1268 65.3403 49.1358 65.7164L49.1884 70.43C49.1835 71.4947 49.0757 73.1657 49.1827 74.1575C49.3067 75.3088 49.2439 76.6146 49.3044 77.8336C49.3214 78.1718 49.38 78.2425 49.3785 78.6534L49.3373 88.0798C49.3346 88.5122 49.2662 88.5889 49.2534 88.9711C49.1903 90.8125 49.3135 94.4746 49.5565 96.1955C49.6298 96.716 49.716 97.3793 49.7406 97.8737C49.8147 99.3867 49.7035 100.892 49.9114 102.395L50.5914 108.346C50.7195 109.566 50.8869 110.594 50.8741 111.862C50.8696 112.266 50.8321 113.283 51.2419 113.433C51.3046 113.284 51.3666 112.327 51.4312 111.897C51.6773 110.26 51.6047 108.137 51.4327 106.544C51.3023 105.337 51.4221 104.179 51.2558 102.997C51.0279 101.37 51.0631 98.2441 50.7736 95.957C50.4867 93.6911 50.7429 90.9361 50.7531 88.6071L50.605 73.7156C50.4791 72.5473 50.67 71.1768 50.5154 70.0078C50.379 68.9786 50.4587 67.0014 50.3816 66.4182L50.117 62.8828C50.1295 61.6506 50.1722 60.3606 50.0392 59.2384C49.8997 58.0645 49.6986 57.0009 49.6994 55.7747C49.6998 54.0758 49.888 54.3192 49.5992 52.3039C49.4046 50.9466 49.6272 50.1427 49.8105 48.9022C49.9829 47.7362 49.891 46.6941 49.8967 45.3833C49.9023 43.9263 50.2074 42.9428 50.2134 41.8732C50.221 40.5405 50.0713 39.5838 50.0773 38.2806C50.083 37.0023 50.224 35.7978 50.0618 34.648C49.9424 33.8044 49.9477 32.8802 49.9522 31.9966C49.9553 31.5642 50.0244 31.4855 50.0354 31.103C50.0694 29.9068 50.1817 28.6765 50.0063 27.481C49.9073 26.8037 50.1132 24.878 50.0664 23.8484C49.9715 21.762 49.1321 21.7325 49.5312 18.9533C49.5705 18.6786 49.6189 18.3788 49.6366 18.1585C49.8237 15.8136 49.4696 16.1885 49.1668 14.0198C48.8338 11.6306 49.0572 9.83834 48.3602 7.3003C48.2189 6.784 48.0458 6.34594 47.9173 5.87802C47.6542 4.91949 47.4437 3.93074 47.071 2.99489C46.9519 2.6963 46.597 1.83492 46.5751 1.55107C47.4429 1.13946 47.6569 1.69394 47.9071 2.31493C48.2472 3.15931 48.5575 4.06945 49.0583 4.8216C49.6 5.63423 49.5123 6.89777 49.7054 7.82794C49.8313 8.43306 50.0513 9.11793 50.1219 9.79751C50.3079 11.5747 50.6477 13.2808 50.8972 15.0595C51.0653 16.2577 50.9176 17.3466 51.0835 18.5225C51.2082 19.4062 51.2173 19.8234 51.1281 20.7903C51.0336 21.818 50.9304 26.4609 51.1262 27.8605L51.3099 30.1351C51.3167 30.888 51.4641 31.6107 51.5911 32.2385C51.6606 32.5805 51.7491 32.8364 51.8455 33.1777C51.8954 33.355 51.9233 33.4895 51.9706 33.6494C52.0624 33.9578 51.9819 33.951 52.2643 34.0281C52.4253 33.6966 52.0889 31.1518 52.1301 30.4382C52.1633 29.8614 52.3349 29.3085 52.2847 28.6482C52.265 28.3836 52.1766 28.0563 52.152 27.8114C52.1184 27.4784 52.1637 27.1095 52.1471 26.7742C52.1297 26.425 52.0688 26.3146 52.0745 25.8781C52.0802 25.4593 52.0492 25.2756 52.0159 24.9683C51.9456 24.3182 52.0171 23.7633 51.9252 23.1227C51.8542 22.6298 51.7532 21.9147 51.8394 21.3576C52.0515 19.9939 51.8802 18.953 51.8122 17.6505C51.7782 16.9921 51.8904 16.4845 51.8972 15.7807C51.9071 14.6442 51.6814 13.5118 51.6879 12.0419C51.7049 8.19117 51.2902 8.92706 50.7611 6.18605C50.698 5.86025 50.6016 5.62553 50.5959 5.30728V5.31107ZM35.0177 130.113C34.3271 130.11 32.9351 129.717 32.3016 129.529C31.4516 129.278 30.597 129.053 29.8494 128.61C28.4018 127.753 26.8612 127.19 25.4775 126.243C24.8516 125.815 23.4168 124.527 22.7633 123.946C22.5252 123.734 22.1136 123.323 21.9197 123.07C21.657 122.726 21.4227 122.519 21.1252 122.219C20.7782 121.869 20.6146 121.687 20.3254 121.3C20.0703 120.957 19.9146 120.695 19.6806 120.301C18.583 118.453 17.942 116.462 17.1622 114.46C16.212 112.019 15.7388 108.99 15.2966 106.259C14.5119 101.412 14.7289 102.036 14.75 96.8996C14.7542 95.8092 14.8729 94.8832 14.7531 93.7697C14.6454 92.77 14.5482 91.7397 14.5531 90.6175C14.5705 86.9663 14.651 84.8305 13.4604 81.6503C13.1369 80.7851 12.8054 80.0681 12.6497 79.1043C12.274 76.776 12.175 76.9423 11.6556 75.1016C11.52 74.619 11.4508 74.2138 11.2932 73.7489C11.1926 73.4526 10.9118 72.8565 10.7557 72.643C10.4998 72.2926 10.2387 72.1134 9.94346 71.8111C9.37803 71.2309 8.76459 70.6628 7.97956 70.4069C6.02321 69.7704 4.08954 71.0377 3.24554 72.0749C1.82099 73.8252 1.46079 74.3748 0.9751 76.5436C0.381316 79.1942 -0.108526 79.195 0.222193 82.2652C0.30459 83.0283 0.251297 83.9449 0.224839 84.7246C0.212367 85.0939 0.154538 85.0981 0.142065 85.467C0.132994 85.7315 0.159451 86.0267 0.136773 86.2879C0.111449 86.5797 0.0626908 86.6534 0.0604231 87.0367C0.0490841 88.9541 -0.0563667 89.9054 0.0407704 91.9748L0.168899 96.0171C0.237311 96.9087 0.194981 97.2961 0.364687 98.3537C0.602049 99.8308 0.985305 101.064 1.2136 102.5C1.40371 103.694 1.51559 105.217 1.34399 106.432L1.23741 108.879C1.2582 109.307 1.35269 109.879 1.42299 110.333C1.57833 111.34 1.80133 112.149 2.08897 113.023C2.37849 113.905 2.61623 114.681 2.9598 115.51C3.29278 116.313 3.63749 117.05 4.01508 117.815C5.59384 121.007 6.86115 124.393 8.58241 127.506C9.61841 129.379 10.6155 130.738 12.2203 132.164C14.1105 133.843 15.6379 135.995 17.8762 137.501C19.6912 138.722 19.4466 138.88 20.8595 140.35C21.0556 140.554 21.0693 140.662 21.2737 140.833C22.3135 141.704 23.1046 142.238 24.3186 142.803C25.4457 143.326 26.332 144.165 27.3544 144.856C28.5541 145.665 30.5509 146.667 32.025 146.926C33.1029 147.116 34.2262 146.797 35.1889 146.991C36.1361 147.182 36.9706 147.447 37.9416 147.613C39.0064 147.795 39.8061 148.006 40.9208 148.011C40.9151 149.242 40.6225 150.514 40.6017 151.745C40.584 152.801 40.4929 154.806 40.6305 155.743C40.6804 156.08 40.6414 156.347 40.6581 156.684L40.8614 161.544C40.8962 162.218 40.7798 162.756 40.7779 163.488C40.7711 166.063 40.2918 168.41 40.076 170.892C39.977 172.031 40.4241 175.034 40.6029 176.391C40.6789 176.967 40.7904 177.64 40.7877 178.218C40.5987 178.126 40.4419 178.116 40.2729 177.984L39.8821 177.552C38.0754 175.289 37.253 173.911 36.7828 170.947C36.7129 170.509 36.6565 170.034 36.2631 169.824C35.1515 170.561 35.5854 174.974 36.0858 176.029C35.7388 175.935 35.125 175.401 34.8744 175.145C34.6836 174.951 34.5456 174.814 34.3528 174.62C33.8248 174.091 33.3766 173.327 32.6618 173.021C31.6485 172.587 31.8598 173.473 32.1421 173.909C32.5035 174.466 33.1808 175.061 33.7069 175.484C33.9326 175.665 34.0565 175.838 34.2916 176.021C34.5173 176.197 34.6106 176.309 34.8729 176.487C35.2324 176.732 36.6463 177.579 36.8263 177.827C36.4207 177.825 35.8303 177.965 35.4788 178.046C35.1821 177.598 34.7187 177.023 34.3007 176.682C32.72 175.395 32.7745 175.823 31.8488 175.316C31.1598 174.939 30.4912 173.602 29.8913 173.46L29.682 173.699C29.6615 174.756 29.8048 175.238 30.1034 176.004C30.2073 176.27 31.3125 178.309 31.6455 178.645C32.1916 179.196 32.9536 179.389 33.753 179.385C34.5993 179.379 35.3299 179.563 36.1316 179.781C36.5254 179.889 36.7673 180.063 37.115 180.221C38.0981 180.669 39.6572 180.584 40.7994 180.812C41.8672 181.026 42.278 181.638 44.4921 181.355C46.1246 181.147 47.7842 180.916 49.3868 180.66C50.1647 180.535 50.9418 180.334 51.9082 180.447C52.8769 180.56 53.5316 180.474 54.3593 180.193C54.9282 180 55.8156 180.302 56.6932 180.394C57.0614 180.432 57.5168 180.54 57.8925 180.619C58.3019 180.706 58.7365 180.693 59.2487 180.695C59.7468 180.696 60.0228 180.617 60.592 180.624C61.5127 180.633 62.2218 180.385 63.082 180.281C63.5477 180.225 63.9086 180.222 64.3765 180.16C65.278 180.04 65.9591 179.986 66.7842 179.81C67.7688 179.601 68.1826 179.58 69.1306 179.903C70.5245 180.379 72.1898 180.679 73.6159 181.041C75.3194 181.472 76.7315 181.203 78.421 180.735C78.853 180.615 79.09 180.528 79.4611 180.357C79.9415 180.137 80.0621 180.184 80.7088 180.188C81.7183 180.195 82.551 180.123 83.4782 180.128C85.179 180.137 86.373 179.435 87.8837 178.939C88.908 178.603 89.8866 177.965 90.9713 177.849C92.3071 177.707 93.6054 177.818 94.9078 177.614C95.6675 177.495 96.2651 177.125 96.981 176.851C97.6927 176.58 98.3965 176.455 99.0976 176.133C99.5152 175.942 100.063 175.637 100.294 175.227C100.437 174.973 100.368 174.921 100.249 174.742C99.8913 174.835 99.6838 175.04 99.2854 175.121C98.7291 175.234 96.7663 174.997 95.533 175.09C95.0227 175.129 94.7491 175.107 94.2755 175.174C93.2625 175.317 92.2628 175.943 91.2264 176.229C90.9509 176.305 90.3953 176.53 90.2154 176.538C88.8181 176.605 89.3782 176.537 87.9593 176.839C87.0363 177.034 86.246 176.916 85.402 177.037C84.0704 177.229 83.1951 177.158 81.7664 177.5C79.3243 178.085 79.6032 178.229 77.1177 177.867C73.4813 177.338 72.7602 177.655 69.6136 177.849C69.3513 177.866 69.391 177.808 69.0629 177.822L67.1848 178.035C66.0706 178.218 66.3283 178.157 65.3899 178.101L63.4471 178.017C62.8749 178.019 62.6035 177.94 62.1 177.938C62.3431 177.438 61.9598 175.513 61.9621 174.799C61.9685 172.546 62.0022 170.24 61.8393 167.998C61.7561 166.862 61.5645 165.98 61.6979 164.765C62.0641 161.419 62.512 158.551 62.0468 155.137L61.4651 152.213C63.1001 152.221 64.3773 151.302 65.7595 150.612C66.8065 150.09 68.9333 149.619 70.2184 149.102C73.1106 147.937 72.6389 146.764 73.8393 144.718C74.3337 143.874 75.0389 143.268 75.5968 142.435C76.7882 140.659 77.2856 138.535 77.6337 136.455C77.9447 134.595 77.7304 133.726 77.8729 132.715L78.0846 130.901C78.2932 129.054 78.6984 127.53 78.7067 125.52C78.7124 124.109 78.6496 122.908 78.6485 121.557C78.6474 119.67 79.0507 117.291 79.0488 115.952C79.0476 115.342 79.0091 114.523 79.0609 113.936C79.11 113.371 79.1486 104.718 79.0677 104.169L78.9592 102.266C78.9724 100.388 78.3802 97.5728 78.3926 94.9373L78.4229 87.0903C78.3242 85.8294 78.2838 84.6052 78.2921 83.195L78.5313 79.4558C78.5922 78.7577 78.4652 77.428 78.4743 76.5421C78.4871 75.2328 78.1783 73.2129 78.057 71.9683C77.8862 70.2232 77.9478 67.9766 77.7282 66.3381C77.4352 64.1629 77.4001 62.8914 77.4228 60.6112L77.2686 56.8187C77.1162 55.6583 77.385 54.1264 77.2001 52.8663C77.0255 51.6814 77.2289 50.2168 77.0784 49.0409C76.4178 43.8711 76.0062 45.5587 75.5756 44.5752C75.1894 43.6908 75.0216 42.6113 74.2259 41.9669C73.7969 41.6196 73.4356 41.4986 72.9616 41.2102C72.4608 40.9044 72.2375 41.1373 71.5772 40.7956C70.4485 40.2124 69.5014 40.4671 68.4393 40.8856C66.8703 41.5028 65.964 42.0164 65.1359 43.5615C64.3074 45.107 62.7656 44.59 62.1877 48.6233C61.9311 50.411 61.5837 52.1519 61.5214 53.959C61.5104 54.2776 61.524 54.6159 61.5221 54.9368C61.5199 55.382 61.4224 55.5113 61.4371 55.9029L61.6797 59.6886C61.8487 60.8459 61.6616 62.4757 61.5044 63.4051C60.9941 66.4182 61.4719 67.534 61.9428 70.4458C62.0441 71.0684 62.1186 71.5673 62.2047 72.1966C62.6719 75.6236 62.1998 78.5831 62.5358 81.8434C62.656 83.0083 62.8654 84.1229 63.0744 85.2557C63.2759 86.3465 63.5458 87.5148 63.5405 88.7401C63.5356 89.8086 63.302 91.0404 63.2986 92.4782C63.2971 93.2111 63.2181 93.6669 63.2154 94.4217C63.2056 96.8596 63.2389 97.5388 63.5775 100.018C63.751 101.289 63.9536 102.376 63.8523 103.626C63.7434 104.968 63.5386 105.879 63.5322 107.284C63.5129 111.798 63.9657 111.046 64.4529 114.337C64.6335 115.558 65.196 118.505 65.0278 119.682C64.9148 120.473 64.8872 123.53 64.8762 124.563C64.8713 125.019 64.9306 125.176 64.9484 125.534C65.0198 126.97 64.7076 127.668 65.027 129.253C65.3324 130.767 64.2957 131.795 63.824 132.963C63.2676 134.338 63.364 134.127 62.0868 135.191L60.3383 136.507L60.0246 132.424C59.8765 131.304 59.4498 128.507 59.407 127.528L59.5151 122.158C59.7336 120.24 59.3942 117.998 59.0816 116.088C58.8065 114.406 58.4682 109.407 58.659 107.776C58.6999 107.428 58.6779 107.023 58.6318 106.708C58.5782 106.346 58.6111 105.99 58.608 105.615C58.605 105.254 58.5585 104.981 58.5287 104.576L58.2539 101.574C58.1484 100.104 58.0399 98.7392 58.043 97.315C58.0456 96.0545 58.2709 94.2407 58.2115 93.0539C58.193 92.6819 58.1359 92.4824 58.1405 92.0069C58.1435 91.6735 58.1696 91.2162 58.1352 90.8964L57.8702 85.6495C57.8774 85.1653 57.8079 85.0058 57.7973 84.6044C57.7878 84.2355 57.8166 83.8478 57.8071 83.4785L57.741 81.3112C57.7519 80.1785 57.5361 79.2596 57.7221 78.0653C57.8279 77.3891 57.7024 76.5855 57.8064 75.8969C57.8578 75.5574 57.8759 75.1689 57.9111 74.876C58.1492 72.8973 58.2304 71.7264 58.2399 69.575C58.2463 68.0896 58.2697 66.6008 57.9753 65.445C57.6831 64.2986 57.3774 63.8277 57.5641 62.5845C57.6166 62.2361 57.6752 61.911 57.6797 61.5742C57.6892 60.8055 57.7663 60.2975 57.8483 59.5661C57.9609 58.5516 57.8052 57.9617 57.8457 57.4658C57.8929 56.8845 58.0509 56.0945 58.153 55.5177C58.2622 54.8941 58.3007 54.1249 58.3744 53.488C58.4606 52.7472 58.3219 52.0299 58.3166 51.4077C58.3109 50.6631 58.3253 49.9053 58.3317 49.16L58.0169 45.005C57.9352 44.4282 57.9043 43.557 57.9084 42.9538C57.9205 41.1369 57.9061 39.351 57.6865 37.5904C57.4991 36.0956 57.6189 34.0002 57.4428 32.3227C57.3445 31.3873 57.2712 28.9139 57.4193 27.9648C57.707 26.1203 57.3248 24.4694 57.1196 22.8158C56.9042 21.0851 57.1022 19.2587 56.855 17.5689C56.6521 16.1814 56.8361 15.4273 56.3939 13.5594C56.1157 12.387 55.7321 11.2225 55.3711 10.1063C55.1874 9.53937 54.8548 9.08656 54.7354 8.50298C54.6027 7.85704 54.6553 7.12757 54.5347 6.4684C54.179 4.52377 53.7731 4.82878 53.0009 3.59661C52.5156 2.82292 51.861 1.47623 50.9803 1.13266C50.563 0.969754 50.563 1.05896 50.2183 0.770951C48.8883 -0.339511 45.2794 -0.0719164 43.7094 0.464039C42.4254 0.902478 41.0145 2.72654 40.5284 3.93981C40.1198 4.9588 40.096 6.44307 39.4622 7.3706C37.7043 9.94266 38.3835 10.1384 38.0569 12.6368C37.9817 13.209 37.7897 13.9434 37.7666 14.5977C37.7447 15.2327 37.8199 16.1141 37.8895 16.6402C38.0354 17.7446 37.7054 19.6439 37.7387 20.9585C37.7553 21.6063 37.9035 22.3452 37.9549 22.9779L38.0981 24.9948C38.154 26.1275 38.0448 26.9235 38.2111 28.2335C38.2603 28.6236 38.2754 28.8742 38.3101 29.2518C38.4685 30.9931 38.5214 31.5865 38.5086 33.4468C38.4938 35.6466 38.7376 37.6449 38.4923 39.8885C38.3774 40.9328 38.4277 41.9246 38.5641 42.9954C38.6069 43.3325 38.5914 43.6451 38.6118 44.0654L38.6772 46.2338C38.6594 50.2198 39.712 51.952 39.6905 54.0882C39.6716 55.9637 40.0775 57.502 40.0488 58.1261C40.0201 58.7444 39.9123 59.6179 39.9653 60.2929C40.0798 61.7572 40.0881 64.152 40.087 65.6812C40.0873 66.1401 40.028 66.402 40.0087 66.7339C39.997 66.9417 40.0431 67.0778 40.0594 67.1961C40.0889 67.4108 40.0722 67.5627 40.076 67.7759C40.0836 68.1709 40.1539 68.3417 40.1489 68.8202C40.1282 70.8593 40.5677 71.6213 40.5783 72.8614C40.5821 73.29 40.6535 73.383 40.652 73.8317C40.649 74.9024 40.533 76.1399 40.6456 77.1876C40.7873 78.5079 40.8784 79.9434 40.9865 81.3169C41.0995 82.7619 40.8641 84.3304 41.1131 85.5834C41.3811 86.9327 41.6918 87.9226 41.5565 89.47C41.4242 90.9883 41.7704 92.2049 41.9156 93.4987C42.0739 94.9157 41.8241 96.2613 41.6241 97.5739C41.3743 99.2173 41.4208 101.131 41.4204 102.926C41.4204 103.404 41.3437 103.536 41.3361 103.968C41.307 105.641 42.2988 109.881 41.812 111.132C41.6899 111.445 41.6427 111.637 41.5712 112.015C41.468 112.562 41.2972 113.442 41.2949 113.99C40.55 113.987 40.5069 114.097 39.7449 113.964C38.3347 113.716 37.7818 112.508 37.3539 111.197C37.0651 110.312 36.8504 109.462 36.5923 108.527C36.1565 106.949 35.4236 104.6 35.1575 103.026C34.9224 101.639 34.3517 94.6118 34.357 93.3974C34.3615 92.3402 34.3986 91.0472 34.5101 90.097C34.5947 89.3744 34.4042 87.6236 34.3079 86.8949C34.1794 85.9311 33.8857 84.9669 33.8759 83.8984C33.8725 83.5083 33.8199 83.4849 33.8033 83.1512C33.7893 82.8699 33.8063 82.5396 33.8078 82.2535C33.8146 80.7103 33.6993 78.8287 33.4983 77.349C33.4295 76.8478 33.38 76.2673 33.3879 75.7461C33.397 75.1269 33.2685 74.6745 33.3637 74.069C33.4488 73.5282 33.3694 72.9393 33.4019 72.3807L33.4847 70.7365C33.4922 68.9665 33.3686 67.5333 33.1951 65.8116C33.0613 64.4846 32.9944 62.207 33.197 60.9079C33.3573 59.8776 33.1437 58.6745 33.0935 57.6494C33.0406 56.5923 33.2193 55.1447 33.0886 54.1552L32.8459 50.9708C32.7102 49.8758 32.5738 48.9139 32.4574 47.8571C32.2865 46.3093 32.0594 43.0744 31.5941 41.7896C30.9156 39.9176 30.0667 39.0105 28.8633 37.6464C27.6719 36.2955 26.3842 35.1594 24.3659 35.1753C22.5305 35.1904 19.7849 36.726 18.62 38.0913C17.3312 39.6012 16.2082 42.168 16.0317 44.1912C15.9403 45.2299 15.8507 46.312 15.7037 47.3155C15.6349 47.7861 15.5177 48.3179 15.4856 48.8228L15.4791 50.3929C15.5377 51.5627 15.3276 52.5995 15.3888 53.8328C15.4051 54.1654 15.4602 54.1918 15.4633 54.5774C15.4659 54.8756 15.4568 55.1791 15.4572 55.4788C15.4587 56.3855 15.3593 55.9649 15.4459 57.0519C15.4667 57.3131 15.4368 57.6086 15.4432 57.8728C15.4833 59.4675 15.8949 61.1505 15.6693 62.7527C15.5404 63.6617 15.5906 66.1094 15.6908 66.9334C15.9478 69.0375 16.4139 70.684 16.6648 72.8168C16.9388 75.1421 17.5175 79.9441 17.5066 82.3302C17.4952 84.9095 18.0947 89.0701 18.6775 91.5923C19.1496 93.6363 19.0403 94.1964 18.8703 96.2484C18.5717 99.8663 18.7089 100.672 19.5056 103.948C19.9614 105.825 20.4607 107.906 20.4509 109.934C20.446 111.017 20.4558 112.255 20.7087 113.104C21.2212 114.827 21.9454 116.419 22.7334 118.02L23.9943 120.27C24.9683 121.746 25.7175 122.875 27.215 124.001C27.8745 124.496 28.5103 124.99 29.0341 125.622C29.8498 126.607 31.647 128.448 32.5541 129.056C33.4669 129.669 34.6753 129.872 35.0184 130.113H35.0177Z" fill="#FF8200"/>
</svg>
