<svg width="34" height="34" viewBox="0 0 34 34" fill="none" xmlns="http://www.w3.org/2000/svg">
<g clip-path="url(#clip0_35_790)">
<path d="M33.2308 22.1538V33.2308H22.1538C20.2114 33.2288 18.3036 32.716 16.6218 31.7439C14.9401 30.7718 13.5435 29.3745 12.5723 27.6923C13.6161 27.6848 14.6564 27.5698 15.6766 27.3489C16.4536 28.3204 17.4392 29.1047 18.5605 29.6435C19.6817 30.1823 20.9099 30.4619 22.1538 30.4615H30.4615V22.1538C30.4612 20.9094 30.1808 19.681 29.641 18.5597C29.1012 17.4384 28.3159 16.453 27.3434 15.6766C27.5661 14.6566 27.683 13.6163 27.6923 12.5723C29.3745 13.5435 30.7718 14.9401 31.7439 16.6218C32.716 18.3036 33.2288 20.2114 33.2308 22.1538ZM24.9231 12.4615C24.9231 9.15653 23.6102 5.98689 21.2732 3.6499C18.9362 1.31291 15.7665 0 12.4615 0C9.15653 0 5.98689 1.31291 3.6499 3.6499C1.31291 5.98689 0 9.15653 0 12.4615L0 24.9231H12.4615C15.7654 24.9194 18.9329 23.6053 21.2691 21.2691C23.6053 18.9329 24.9194 15.7654 24.9231 12.4615ZM2.76923 12.4615C2.76923 10.5446 3.33767 8.67067 4.40268 7.07678C5.46768 5.48289 6.98142 4.2406 8.75245 3.50701C10.5235 2.77343 12.4723 2.58149 14.3524 2.95547C16.2325 3.32945 17.9595 4.25255 19.315 5.60804C20.6705 6.96354 21.5936 8.69054 21.9676 10.5707C22.3416 12.4508 22.1497 14.3996 21.4161 16.1706C20.6825 17.9417 19.4402 19.4554 17.8463 20.5204C16.2524 21.5854 14.3785 22.1538 12.4615 22.1538H2.76923V12.4615Z" fill="#F9F6F1"/>
</g>
<defs>
<clipPath id="clip0_35_790">
<rect width="33.2308" height="33.2308" fill="white"/>
</clipPath>
</defs>
</svg>
