<svg width="32" height="32" viewBox="0 0 32 32" fill="none" xmlns="http://www.w3.org/2000/svg">
<g clip-path="url(#clip0_231_3793)">
<path d="M20 4C20 2.93913 19.5786 1.92172 18.8284 1.17157C18.0783 0.421427 17.0609 0 16 0L0 0V32H2.66667V17.3333H13.3333V18.6667C13.3333 19.7275 13.7548 20.7449 14.5049 21.4951C15.2551 22.2452 16.2725 22.6667 17.3333 22.6667H32V5.33333H20V4ZM2.66667 2.66667H16C16.3536 2.66667 16.6928 2.80714 16.9428 3.05719C17.1929 3.30724 17.3333 3.64638 17.3333 4V14.6667H2.66667V2.66667ZM29.3333 8V20H17.3333C16.9797 20 16.6406 19.8595 16.3905 19.6095C16.1405 19.3594 16 19.0203 16 18.6667V17.3333H20V8H29.3333Z" fill="#323232"/>
</g>
<defs>
<clipPath id="clip0_231_3793">
<rect width="32" height="32" fill="white"/>
</clipPath>
</defs>
</svg>
