<svg width="32" height="32" viewBox="0 0 32 32" fill="none" xmlns="http://www.w3.org/2000/svg">
<g clip-path="url(#clip0_231_3786)">
<path d="M23.3339 1.2229C21.8325 1.24625 20.3639 1.66537 19.0763 2.43793C17.7887 3.21049 16.7277 4.30913 16.0006 5.6229C15.2734 4.30913 14.2125 3.21049 12.9249 2.43793C11.6373 1.66537 10.1687 1.24625 8.66726 1.2229C6.27385 1.32689 4.01887 2.37391 2.39497 4.13521C0.771075 5.89651 -0.0897386 8.22893 0.000595429 10.6229C0.000595429 19.6562 14.6086 30.0896 15.2299 30.5322L16.0006 31.0776L16.7713 30.5322C17.3926 30.0922 32.0006 19.6562 32.0006 10.6229C32.0909 8.22893 31.2301 5.89651 29.6062 4.13521C27.9823 2.37391 25.7273 1.32689 23.3339 1.2229V1.2229ZM16.0006 27.7949C11.6633 24.5549 2.66726 16.5949 2.66726 10.6229C2.57612 8.93586 3.15575 7.28121 4.27975 6.01983C5.40374 4.75846 6.98091 3.9927 8.66726 3.88957C10.3536 3.9927 11.9308 4.75846 13.0548 6.01983C14.1788 7.28121 14.7584 8.93586 14.6673 10.6229H17.3339C17.2428 8.93586 17.8224 7.28121 18.9464 6.01983C20.0704 4.75846 21.6476 3.9927 23.3339 3.88957C25.0203 3.9927 26.5974 4.75846 27.7214 6.01983C28.8454 7.28121 29.4251 8.93586 29.3339 10.6229C29.3339 16.5976 20.3379 24.5549 16.0006 27.7949Z" fill="#323232"/>
</g>
<defs>
<clipPath id="clip0_231_3786">
<rect width="32" height="32" fill="white"/>
</clipPath>
</defs>
</svg>
