<svg width="50" height="50" viewBox="0 0 50 50" fill="none" xmlns="http://www.w3.org/2000/svg">
<path d="M25 0C38.8071 5.1544e-07 50 11.1929 50 25C50 38.8071 38.8071 50 25 50C11.1929 50 5.15406e-07 38.8071 0 25C0 11.1929 11.1929 0 25 0ZM25.2432 10C16.9769 10.0002 10 16.4252 10 24.9648C10.0001 28.5402 10.6591 31.0078 11.2393 33.2236C11.7263 35.0221 12.1562 36.6696 12.1562 38.6191C12.364 41.2163 17.1275 39.6984 18.6318 37.7559C21.01 39.4825 22.3782 39.9141 25.3223 39.9141C29.2309 39.8931 32.9719 38.3162 35.7236 35.5283C38.4753 32.7404 40.0132 28.9695 40 25.0439C40 16.7416 33.5168 10 25.2432 10ZM25.4443 17.3818V17.3887C27.4494 17.5041 29.3294 18.4053 30.6797 19.8984C32.03 21.3918 32.7433 23.3583 32.665 25.374C32.5304 27.3856 31.615 29.2642 30.1162 30.6055C28.6174 31.9466 26.6545 32.6436 24.6494 32.5469C23.3435 32.4417 22.0877 31.993 21.0098 31.2451C20.3579 31.8998 19.3119 32.7492 18.8965 32.6484C18.0298 32.4175 17.013 27.9932 17.5859 24.3604C18.2808 19.9718 21.4186 17.1732 25.4443 17.3818Z" fill="white"/>
</svg>
