<svg width="34" height="34" viewBox="0 0 34 34" fill="none" xmlns="http://www.w3.org/2000/svg">
<g clip-path="url(#clip0_35_785)">
<path d="M31.9846 1.24572C31.1764 0.475902 30.103 0.0465088 28.9869 0.0465088C27.8708 0.0465088 26.7974 0.475902 25.9892 1.24572L10.4718 16.7534C9.98907 16.6605 9.49851 16.6141 9.0069 16.615C8.00748 16.6121 7.01743 16.8075 6.09408 17.1899C5.17072 17.5723 4.3324 18.1341 3.62767 18.8428C0.969203 21.5068 0.257511 29.946 0.138434 31.6103L0.0332031 33.1971L1.61859 33.0863C3.28013 32.9728 11.7263 32.2653 14.3875 29.6026C15.2678 28.7198 15.9176 27.6341 16.2798 26.4412C16.642 25.2482 16.7054 23.9845 16.4644 22.7613L31.9846 7.2411C32.7775 6.44495 33.2227 5.36707 33.2227 4.24341C33.2227 3.11976 32.7775 2.04187 31.9846 1.24572ZM12.4297 27.6448C11.142 28.9311 6.52151 29.8048 3.05028 30.1786C3.44213 26.5786 4.35597 22.0316 5.58551 20.8006C6.508 19.9698 7.71418 19.5247 8.95524 19.5571C10.1963 19.5895 11.3776 20.097 12.2555 20.9748C13.1333 21.8527 13.6408 23.034 13.6732 24.2751C13.7056 25.5161 13.2605 26.7223 12.4297 27.6448ZM30.0295 5.28326L15.3235 19.9906C14.7771 19.1633 14.071 18.4534 13.2466 17.9026L27.9471 3.20079C28.2268 2.93367 28.5987 2.78462 28.9855 2.78462C29.3723 2.78462 29.7442 2.93367 30.024 3.20079C30.1613 3.33703 30.2704 3.49902 30.3451 3.6775C30.4197 3.85598 30.4584 4.04743 30.4589 4.24088C30.4594 4.43433 30.4217 4.62598 30.3481 4.80485C30.2744 4.98372 30.1661 5.14629 30.0295 5.28326Z" fill="#F9F6F1"/>
</g>
<defs>
<clipPath id="clip0_35_785">
<rect width="33.2308" height="33.2308" fill="white"/>
</clipPath>
</defs>
</svg>
