<svg width="34" height="34" viewBox="0 0 34 34" fill="none" xmlns="http://www.w3.org/2000/svg">
<g clip-path="url(#clip0_35_780)">
<path d="M26.3077 19.3851C25.1681 19.3925 24.0485 19.6853 23.0511 20.2366L18.4154 14.6774L28.7543 2.27121L26.6275 0.498901L16.6154 12.5146L6.60185 0.498901L4.47508 2.27121L14.8154 14.6774L10.1797 20.2366C9.18202 19.686 8.0626 19.3932 6.92308 19.3851C5.55382 19.3851 4.21532 19.7911 3.07682 20.5518C1.93833 21.3125 1.05098 22.3938 0.526991 23.6588C0.00299966 24.9238 -0.1341 26.3158 0.133028 27.6588C0.400157 29.0017 1.05952 30.2353 2.02773 31.2035C2.99594 32.1717 4.22951 32.8311 5.57246 33.0982C6.9154 33.3653 8.3074 33.2282 9.57243 32.7042C10.8375 32.1802 11.9187 31.2929 12.6794 30.1544C13.4401 29.0159 13.8462 27.6774 13.8462 26.3081C13.8382 24.7435 13.2949 23.2287 12.3065 22.0158L16.6154 16.8401L20.9229 22.0158C19.9358 23.2294 19.393 24.7438 19.3846 26.3081C19.3846 27.6774 19.7907 29.0159 20.5514 30.1544C21.3121 31.2929 22.3933 32.1802 23.6583 32.7042C24.9234 33.2282 26.3154 33.3653 27.6583 33.0982C29.0013 32.8311 30.2348 32.1717 31.2031 31.2035C32.1713 30.2353 32.8306 29.0017 33.0977 27.6588C33.3649 26.3158 33.2278 24.9238 32.7038 23.6588C32.1798 22.3938 31.2924 21.3125 30.154 20.5518C29.0155 19.7911 27.677 19.3851 26.3077 19.3851ZM6.92308 30.462C6.10153 30.462 5.29842 30.2184 4.61533 29.7619C3.93223 29.3055 3.39982 28.6568 3.08543 27.8977C2.77103 27.1387 2.68877 26.3035 2.84905 25.4978C3.00933 24.692 3.40494 23.9518 3.98587 23.3709C4.56679 22.79 5.30694 22.3944 6.11271 22.2341C6.91847 22.0738 7.75367 22.1561 8.51269 22.4705C9.2717 22.7849 9.92045 23.3173 10.3769 24.0004C10.8333 24.6835 11.0769 25.4866 11.0769 26.3081C11.0769 27.4098 10.6393 28.4663 9.86029 29.2453C9.0813 30.0243 8.02475 30.462 6.92308 30.462ZM26.3077 30.462C25.4861 30.462 24.683 30.2184 23.9999 29.7619C23.3168 29.3055 22.7844 28.6568 22.47 27.8977C22.1556 27.1387 22.0734 26.3035 22.2337 25.4978C22.3939 24.692 22.7896 23.9518 23.3705 23.3709C23.9514 22.79 24.6916 22.3944 25.4973 22.2341C26.3031 22.0738 27.1383 22.1561 27.8973 22.4705C28.6563 22.7849 29.3051 23.3173 29.7615 24.0004C30.2179 24.6835 30.4615 25.4866 30.4615 26.3081C30.4615 27.4098 30.0239 28.4663 29.2449 29.2453C28.4659 30.0243 27.4094 30.462 26.3077 30.462Z" fill="#F9F6F1"/>
</g>
<defs>
<clipPath id="clip0_35_780">
<rect width="33.2308" height="33.2308" fill="white"/>
</clipPath>
</defs>
</svg>
