<svg width="20" height="20" viewBox="0 0 20 20" fill="none" xmlns="http://www.w3.org/2000/svg">
<g clip-path="url(#clip0_245_2926)">
<path d="M19.9998 18.824L14.7917 13.6158C17.7039 10.0541 17.1774 4.80594 13.6156 1.89371C10.0539 -1.01852 4.80577 -0.491992 1.89354 3.06977C-1.01868 6.63152 -0.492156 11.8796 3.06956 14.7919C6.13744 17.3003 10.5478 17.3003 13.6156 14.7919L18.8238 20L19.9998 18.824ZM8.35592 15.0098C4.6812 15.0098 1.70226 12.0308 1.70226 8.35609C1.70226 4.68137 4.6812 1.70242 8.35592 1.70242C12.0306 1.70242 15.0096 4.68137 15.0096 8.35609C15.0054 12.0291 12.0289 15.0056 8.35592 15.0098Z" fill="black"/>
</g>
<defs>
<clipPath id="clip0_245_2926">
<rect width="20" height="20" fill="white"/>
</clipPath>
</defs>
</svg>
