<svg width="26" height="25" viewBox="0 0 26 25" fill="none" xmlns="http://www.w3.org/2000/svg">
<g clip-path="url(#clip0_150_9369)">
<path d="M18 6C18 4.4087 17.3679 2.88258 16.2426 1.75736C15.1174 0.632141 13.5913 0 12 0C10.4087 0 8.88258 0.632141 7.75736 1.75736C6.63214 2.88258 6 4.4087 6 6H0V21C0 21.7956 0.31607 22.5587 0.87868 23.1213C1.44129 23.6839 2.20435 24 3 24H14V22H3C2.73478 22 2.48043 21.8946 2.29289 21.7071C2.10536 21.5196 2 21.2652 2 21V8H6V10H8V8H16V10H18V8H22V14H24V6H18ZM8 6C8 4.93913 8.42143 3.92172 9.17157 3.17157C9.92172 2.42143 10.9391 2 12 2C13.0609 2 14.0783 2.42143 14.8284 3.17157C15.5786 3.92172 16 4.93913 16 6H8Z" fill="#FF2A04"/>
</g>
<path d="M18.651 24.6624H18.684C18.9321 24.6632 19.1778 24.6146 19.407 24.5193C19.6361 24.424 19.8442 24.284 20.019 24.1074L25.28 18.8282L23.866 17.4093L18.685 22.6133L16.441 20.2651L15 21.656L17.306 24.0643C17.4783 24.25 17.6863 24.3987 17.9175 24.5015C18.1487 24.6043 18.3982 24.659 18.651 24.6624Z" fill="#FF2A04"/>
<defs>
<clipPath id="clip0_150_9369">
<rect width="24" height="24" fill="white"/>
</clipPath>
</defs>
</svg>
