<svg width="50" height="50" viewBox="0 0 50 50" fill="none" xmlns="http://www.w3.org/2000/svg">
<path d="M25 0C38.8071 5.15406e-07 50 11.1929 50 25C50 38.8071 38.8071 50 25 50C11.1929 50 5.1544e-07 38.8071 0 25C0 11.1929 11.1929 0 25 0ZM37.2832 17.1357C37.703 15.4524 36.6418 14.6892 35.542 15.1885L11.4609 24.4736C9.81717 25.1329 9.82657 26.0504 11.1611 26.459L17.3408 28.3877L31.6475 19.3613C32.3228 18.9518 32.9431 19.1726 32.4346 19.624L20.8418 30.085V30.0859L20.417 36.458C21.0418 36.4579 21.3182 36.1721 21.667 35.833L24.6699 32.9131L30.917 37.5293C32.0664 38.1633 32.8962 37.8348 33.1826 36.4619L37.2832 17.1357Z" fill="white"/>
</svg>
