<svg width="32" height="32" viewBox="0 0 32 32" fill="none" xmlns="http://www.w3.org/2000/svg">
<g clip-path="url(#clip0_231_3779)">
<path d="M20.028 9.33292L20.476 6.61159C20.5935 5.89317 20.5155 5.15638 20.2504 4.47842C19.9853 3.80046 19.5427 3.20629 18.969 2.75817C18.3953 2.31004 17.7116 2.02446 16.9897 1.93135C16.2677 1.83824 15.5339 1.94102 14.8653 2.22892C13.9413 2.64361 13.199 3.3793 12.776 4.29959L10.2893 9.33292H4C2.93913 9.33292 1.92172 9.75435 1.17157 10.5045C0.421427 11.2546 0 12.2721 0 13.3329L0 25.3329C0 26.3938 0.421427 27.4112 1.17157 28.1614C1.92172 28.9115 2.93913 29.3329 4 29.3329H29.3573L32 14.6169L32.0213 9.33292H20.028ZM2.66667 25.3329V13.3329C2.66667 12.9793 2.80714 12.6402 3.05719 12.3901C3.30724 12.1401 3.64638 11.9996 4 11.9996H9.33333V26.6663H4C3.64638 26.6663 3.30724 26.5258 3.05719 26.2757C2.80714 26.0257 2.66667 25.6865 2.66667 25.3329V25.3329ZM29.3333 14.2663L27.1067 26.6663H12V11.8783L15.2253 5.34492C15.3345 5.14731 15.4891 4.97844 15.6763 4.85219C15.8635 4.72595 16.078 4.64594 16.3021 4.61873C16.5262 4.59153 16.7536 4.61791 16.9656 4.69571C17.1776 4.77351 17.368 4.90051 17.5213 5.06626C17.6523 5.21859 17.7481 5.39795 17.8018 5.59155C17.8555 5.78515 17.8658 5.98821 17.832 6.18626L16.8733 11.9996H29.3333V14.2663Z" fill="#323232"/>
</g>
<defs>
<clipPath id="clip0_231_3779">
<rect width="32" height="32" fill="white"/>
</clipPath>
</defs>
</svg>
