<svg width="34" height="34" viewBox="0 0 34 34" fill="none" xmlns="http://www.w3.org/2000/svg">
<g clip-path="url(#clip0_35_775)">
<path d="M26.3077 6.92225H23.5385V5.53764C23.5385 4.43597 23.1008 3.37942 22.3218 2.60042C21.5428 1.82143 20.4863 1.38379 19.3846 1.38379H4.15385C3.05218 1.38379 1.99563 1.82143 1.21663 2.60042C0.437636 3.37942 0 4.43597 0 5.53764L0 26.3069H2.826C2.79037 26.536 2.7714 26.7673 2.76923 26.9992C2.76923 28.2845 3.27981 29.5171 4.18864 30.4259C5.09747 31.3348 6.3301 31.8453 7.61539 31.8453C8.90066 31.8453 10.1333 31.3348 11.0421 30.4259C11.951 29.5171 12.4615 28.2845 12.4615 26.9992C12.4594 26.7673 12.4404 26.536 12.4048 26.3069H20.826C20.7904 26.536 20.7714 26.7673 20.7692 26.9992C20.7692 28.2845 21.2798 29.5171 22.1886 30.4259C23.0975 31.3348 24.3301 31.8453 25.6154 31.8453C26.9007 31.8453 28.1333 31.3348 29.0421 30.4259C29.951 29.5171 30.4615 28.2845 30.4615 26.9992C30.4594 26.7673 30.4404 26.536 30.4048 26.3069H33.2308V13.8453C33.2286 12.0099 32.4985 10.2503 31.2006 8.9524C29.9028 7.65455 28.1431 6.92445 26.3077 6.92225ZM26.3077 9.69148C27.4094 9.69148 28.4659 10.1291 29.2449 10.9081C30.0239 11.6871 30.4615 12.7437 30.4615 13.8453V15.2299H23.5385V9.69148H26.3077ZM9.69231 26.9992C9.69231 27.55 9.47349 28.0783 9.08399 28.4678C8.69449 28.8573 8.16622 29.0761 7.61539 29.0761C7.06455 29.0761 6.53628 28.8573 6.14678 28.4678C5.75728 28.0783 5.53846 27.55 5.53846 26.9992C5.53931 26.7625 5.58294 26.528 5.66723 26.3069H9.56354C9.64783 26.528 9.69146 26.7625 9.69231 26.9992ZM20.7692 23.5376H2.76923V5.53764C2.76923 5.17041 2.91511 4.81823 3.17478 4.55856C3.43444 4.2989 3.78662 4.15302 4.15385 4.15302H19.3846C19.7518 4.15302 20.104 4.2989 20.3637 4.55856C20.6234 4.81823 20.7692 5.17041 20.7692 5.53764V23.5376ZM27.6923 26.9992C27.6923 27.55 27.4735 28.0783 27.084 28.4678C26.6945 28.8573 26.1662 29.0761 25.6154 29.0761C25.0646 29.0761 24.5363 28.8573 24.1468 28.4678C23.7573 28.0783 23.5385 27.55 23.5385 26.9992C23.5391 26.7625 23.5827 26.5279 23.6672 26.3069H27.5635C27.6481 26.5279 27.6917 26.7625 27.6923 26.9992ZM23.5385 23.5376V17.9992H30.4615V23.5376H23.5385Z" fill="#F9F6F1"/>
</g>
<defs>
<clipPath id="clip0_35_775">
<rect width="33.2308" height="33.2308" fill="white"/>
</clipPath>
</defs>
</svg>
