<svg width="50" height="50" viewBox="0 0 50 50" fill="none" xmlns="http://www.w3.org/2000/svg">
<path d="M25 0C38.8071 5.15406e-07 50 11.1929 50 25C50 38.8071 38.8071 50 25 50C11.1929 50 5.1544e-07 38.8071 0 25C0 11.1929 11.1929 0 25 0ZM24.4893 18.3369C23.0586 18.3228 21.8481 18.3419 21.1621 18.6709C20.7058 18.8899 20.3542 19.3791 20.5693 19.4072C20.8342 19.4419 21.4338 19.5656 21.752 19.9902C22.1624 20.539 22.1485 21.7693 22.1484 21.7715C22.1484 21.7715 22.3845 25.1667 21.5967 25.5879C21.0567 25.8772 20.3161 25.2869 18.7236 22.5869C17.9135 21.2128 17.3006 19.6946 17.293 19.6758C17.293 19.6758 17.1735 19.39 16.9609 19.2363C16.704 19.0509 16.3457 18.9932 16.3457 18.9932L12.5361 19.0176C12.5361 19.0176 11.9641 19.0331 11.7539 19.2773C11.5674 19.4937 11.7393 19.9434 11.7393 19.9434C11.7543 19.9779 14.7302 26.8029 18.0996 30.2471C21.1887 33.4031 24.6945 33.2052 24.7139 33.2041H26.3076C26.3076 33.2041 26.7886 33.1514 27.0352 32.8916C27.2608 32.6535 27.2529 32.2041 27.2529 32.2041C27.2526 32.177 27.2298 30.1037 28.2158 29.7959C29.194 29.4912 30.4502 31.8252 31.7832 32.7227C32.7901 33.4012 33.5547 33.2529 33.5547 33.2529L37.1162 33.2041C37.1162 33.2041 38.9782 33.0917 38.0957 31.6543C38.0227 31.5365 37.5807 30.5899 35.4482 28.6465C33.2141 26.6122 33.5138 26.9412 36.2031 23.4219C37.841 21.2791 38.4955 19.9708 38.291 19.4111C38.0967 18.876 36.8916 19.0176 36.8916 19.0176L32.8828 19.042C32.8828 19.042 32.5856 19.0027 32.3652 19.1318C32.1532 19.2567 32.0138 19.5452 32.0098 19.5537C32.0098 19.5537 31.3758 21.2122 30.5293 22.623C28.7439 25.5981 28.0304 25.7556 27.7383 25.5713C27.059 25.1397 27.2285 23.84 27.2285 22.917C27.2285 20.0328 27.6746 18.8306 26.3613 18.5195C25.9257 18.4158 25.6044 18.3484 24.4893 18.3369Z" fill="#323232"/>
</svg>
