<svg width="40" height="40" viewBox="0 0 40 40" fill="none" xmlns="http://www.w3.org/2000/svg">
<path d="M20 40C31.0457 40 40 31.0457 40 20C40 8.9543 31.0457 0 20 0C8.9543 0 0 8.9543 0 20C0 31.0457 8.9543 40 20 40Z" fill="white"/>
<path d="M20.6589 7.33334C23.8404 7.33472 26.8267 8.57367 29.072 10.8216C31.3172 13.0694 32.5528 16.0572 32.5515 19.2347C32.5488 25.7903 27.2159 31.1246 20.6589 31.1273H20.6541C18.6639 31.1265 16.7083 30.6273 14.9714 29.68L8.66675 31.3333L10.3542 25.1703C9.31359 23.3667 8.76546 21.3209 8.76636 19.2249C8.76911 12.668 14.104 7.33349 20.6589 7.33334ZM20.6628 9.34213C15.2107 9.34233 10.7763 13.7761 10.7742 19.2259C10.7734 21.0937 11.2964 22.9129 12.2859 24.4867L12.5203 24.8607L11.5222 28.5081L15.2634 27.5267L15.6238 27.7406C17.1413 28.6411 18.8814 29.1178 20.655 29.1185H20.6589C26.1071 29.1185 30.5415 24.6841 30.5437 19.2337C30.5447 16.5926 29.5173 14.1089 27.6511 12.2406C25.7849 10.3724 23.3029 9.34305 20.6628 9.34213ZM17.0183 13.7435C17.2007 13.7527 17.446 13.6748 17.6873 14.2542C17.935 14.8496 18.529 16.3116 18.6033 16.4603C18.6775 16.609 18.7267 16.7825 18.6277 16.9808C18.5287 17.1789 18.4794 17.3035 18.3308 17.4769C18.1823 17.6503 18.0182 17.8643 17.8845 17.9974C17.7359 18.1455 17.5814 18.3066 17.7546 18.6039C17.9281 18.9016 18.5248 19.8747 19.408 20.6624C20.5429 21.6747 21.5005 21.9883 21.7976 22.1371C22.0945 22.2857 22.2679 22.2609 22.4412 22.0628C22.6145 21.8645 23.1845 21.1953 23.3826 20.8978C23.5806 20.6005 23.7783 20.6493 24.0505 20.7484C24.3228 20.8476 25.7826 21.5659 26.0808 21.7152C26.378 21.864 26.5769 21.9389 26.6511 22.0628C26.7252 22.1875 26.7246 22.7823 26.4773 23.4759C26.2294 24.1699 25.0423 24.8037 24.4714 24.889C23.9596 24.9655 23.3119 24.9969 22.6003 24.7708C22.1687 24.6339 21.615 24.4511 20.906 24.1449C17.9251 22.8577 15.9784 19.856 15.8298 19.6576C15.6807 19.4585 14.6161 18.0464 14.616 16.5843C14.616 15.1219 15.3836 14.4024 15.656 14.1048C15.9284 13.8073 16.2509 13.7328 16.449 13.7328C16.647 13.7328 16.8452 13.7348 17.0183 13.7435Z" fill="#323232"/>
</svg>
