<svg width="50" height="50" viewBox="0 0 50 50" fill="none" xmlns="http://www.w3.org/2000/svg">
<path d="M25 50C38.8071 50 50 38.8071 50 25C50 11.1929 38.8071 0 25 0C11.1929 0 0 11.1929 0 25C0 38.8071 11.1929 50 25 50Z" fill="white"/>
<path d="M25.8236 9.1665C29.8004 9.16822 33.5336 10.716 36.3402 13.5259C39.1469 16.3357 40.6914 20.0714 40.6898 24.0435C40.6863 32.2378 34.0197 38.9053 25.8236 38.9087H25.8177C23.3299 38.9078 20.8854 38.2834 18.7142 37.0991L10.8334 39.1665L12.9427 31.4634C11.6419 29.209 10.9573 26.6516 10.9584 24.0317C10.9616 15.8354 17.6299 9.16668 25.8236 9.1665ZM25.8285 11.6772C19.0134 11.6775 13.4711 17.2196 13.4681 24.0317C13.4672 26.3664 14.12 28.6407 15.3568 30.6079L15.6508 31.0757L14.4027 35.6353L19.0795 34.4077L19.5306 34.6763C21.4275 35.8018 23.6019 36.397 25.8187 36.3979H25.8236C32.6337 36.3979 38.1772 30.8553 38.1801 24.0425C38.1813 20.7409 36.8966 17.6368 34.5638 15.3013C32.231 12.9658 29.1287 11.6784 25.8285 11.6772ZM20.5609 17.1665C20.8085 17.1665 21.0564 17.1683 21.2728 17.1792C21.5008 17.1906 21.8072 17.0926 22.1088 17.8169C22.4182 18.5605 23.1612 20.3883 23.2543 20.5747C23.3472 20.7606 23.4084 20.9781 23.2845 21.2261C23.1609 21.4736 23.099 21.6286 22.9135 21.8452C22.7277 22.062 22.5229 22.3301 22.3558 22.4966C22.17 22.6817 21.9772 22.8827 22.1937 23.2544C22.4106 23.6266 23.1562 24.8429 24.2601 25.8276C25.6786 27.0928 26.8749 27.4855 27.2465 27.6714C27.6178 27.8574 27.8345 27.8255 28.0511 27.5776C28.2679 27.3296 28.9804 26.4933 29.2279 26.1216C29.4754 25.7502 29.7227 25.8122 30.0629 25.936C30.4034 26.0601 32.2305 26.9581 32.6019 27.144C32.9728 27.3297 33.2198 27.4231 33.3129 27.5776C33.4057 27.7325 33.4063 28.4766 33.097 29.3442C32.7874 30.2119 31.3029 31.0042 30.5892 31.1108C29.9495 31.2065 29.1399 31.246 28.2504 30.9634C27.7109 30.7922 27.0184 30.5639 26.1322 30.1812C22.4086 28.5732 19.976 24.8252 19.7875 24.5728C19.6017 24.3249 18.27 22.5583 18.2699 20.73C18.2699 18.9018 19.2302 18.0032 19.5707 17.6313C19.9111 17.2595 20.3133 17.1665 20.5609 17.1665Z" fill="#323232"/>
</svg>
