<svg width="50" height="50" viewBox="0 0 50 50" fill="none" xmlns="http://www.w3.org/2000/svg">
<path d="M25 50C38.8071 50 50 38.8071 50 25C50 11.1929 38.8071 0 25 0C11.1929 0 0 11.1929 0 25C0 38.8071 11.1929 50 25 50Z" fill="#323232"/>
<path d="M25.8232 9.16675C29.8 9.16846 33.5332 10.7162 36.3398 13.5261C39.1465 16.3359 40.691 20.0716 40.6895 24.0437C40.686 32.2381 34.0194 38.9056 25.8232 38.9089H25.8174C23.3295 38.908 20.8851 38.2836 18.7139 37.0994L10.833 39.1667L12.9424 31.4636C11.6415 29.2092 10.957 26.6519 10.958 24.032C10.9613 15.8357 17.6295 9.16693 25.8232 9.16675ZM25.8281 11.6775C19.013 11.6777 13.4707 17.2199 13.4678 24.032C13.4668 26.3667 14.1196 28.641 15.3564 30.6082L15.6504 31.0759L14.4023 35.6355L19.0791 34.408L19.5303 34.6765C21.4271 35.802 23.6015 36.3973 25.8184 36.3982H25.8232C32.6333 36.3982 38.1768 30.8556 38.1797 24.0427C38.181 20.7412 36.8963 17.637 34.5635 15.3015C32.2307 12.966 29.1284 11.6786 25.8281 11.6775ZM20.5605 17.1667C20.8081 17.1667 21.056 17.1686 21.2725 17.1794C21.5004 17.1909 21.8069 17.0929 22.1084 17.8171C22.4179 18.5608 23.1609 20.3885 23.2539 20.575C23.3468 20.7609 23.408 20.9783 23.2842 21.2263C23.1605 21.4738 23.0986 21.6288 22.9131 21.8455C22.7274 22.0623 22.5226 22.3303 22.3555 22.4968C22.1696 22.682 21.9768 22.883 22.1934 23.2546C22.4102 23.6268 23.1558 24.8432 24.2598 25.8279C25.6782 27.093 26.8745 27.4857 27.2461 27.6716C27.6174 27.8576 27.8341 27.8257 28.0508 27.5779C28.2676 27.3299 28.98 26.4936 29.2275 26.1218C29.475 25.7504 29.7223 25.8125 30.0625 25.9363C30.4031 26.0604 32.2301 26.9584 32.6016 27.1443C32.9724 27.33 33.2194 27.4233 33.3125 27.5779C33.4053 27.7327 33.4059 28.4768 33.0967 29.3445C32.787 30.2121 31.3026 31.0045 30.5889 31.1111C29.9491 31.2067 29.1395 31.2462 28.25 30.9636C27.7105 30.7925 27.018 30.5641 26.1318 30.1814C22.4082 28.5735 19.9757 24.8255 19.7871 24.573C19.6014 24.3251 18.2696 22.5585 18.2695 20.7302C18.2695 18.902 19.2298 18.0035 19.5703 17.6316C19.9108 17.2597 20.3129 17.1667 20.5605 17.1667Z" fill="#E9D4BF"/>
</svg>
