<svg width="136" height="98" viewBox="0 0 136 98" fill="none" xmlns="http://www.w3.org/2000/svg">
<path d="M89.5332 12.5231C87.2099 10.1998 83.1865 11.7865 83.1865 15.0165V34.7931C83.1865 43.0665 90.2132 49.9231 98.7699 49.9231C104.153 49.9798 111.633 49.9798 118.037 49.9798C121.267 49.9798 122.967 46.1831 120.7 43.9165C112.54 35.6998 97.9199 20.9098 89.5332 12.5231Z" fill="white" fill-opacity="0.05"/>
<path d="M116.167 57.7435H99.7903C86.3603 57.7435 75.4237 46.8068 75.4237 33.3768V17.0002C75.4237 13.8835 72.8737 11.3335 69.757 11.3335H45.7303C28.277 11.3335 14.167 22.6668 14.167 42.8968V93.1035C14.167 113.334 28.277 124.667 45.7303 124.667H90.2703C107.724 124.667 121.834 113.334 121.834 93.1035V63.4102C121.834 60.2935 119.284 57.7435 116.167 57.7435ZM65.167 100.584H42.5003C40.177 100.584 38.2503 98.6568 38.2503 96.3335C38.2503 94.0102 40.177 92.0835 42.5003 92.0835H65.167C67.4903 92.0835 69.417 94.0102 69.417 96.3335C69.417 98.6568 67.4903 100.584 65.167 100.584ZM76.5003 77.9168H42.5003C40.177 77.9168 38.2503 75.9902 38.2503 73.6668C38.2503 71.3435 40.177 69.4168 42.5003 69.4168H76.5003C78.8237 69.4168 80.7503 71.3435 80.7503 73.6668C80.7503 75.9902 78.8237 77.9168 76.5003 77.9168Z" fill="white" fill-opacity="0.05"/>
</svg>
