<svg width="1652" height="397" viewBox="0 0 1652 397" fill="none" xmlns="http://www.w3.org/2000/svg">
<path d="M198 397C307.352 397 396 308.129 396 198.5C396 88.8715 307.352 0 198 0C88.6476 0 0 88.8715 0 198.5C0 308.129 88.6476 397 198 397Z" fill="#383738"/>
<path d="M485.048 119.6H487.7L518.708 191H509.528L503.408 176.516H469.34L463.22 191H454.04L485.048 119.6ZM500.042 168.764L486.374 136.736L472.706 168.764H500.042ZM527.87 119.6H568.364V127.352H537.05V191H527.87V119.6ZM581.062 119.6H621.862V127.352H590.242V150.404H620.74V158.156H590.242V183.248H622.27V191H581.062V119.6ZM633.855 119.6H643.035V149.486H676.695V119.6H685.875V191H676.695V157.238H643.035V191H633.855V119.6ZM715.903 127.352H697.135V119.6H743.851V127.352H725.083V191H715.903V127.352ZM782.255 192.428C775.523 192.428 769.369 190.83 763.793 187.634C758.285 184.438 753.933 180.018 750.737 174.374C747.541 168.73 745.943 162.372 745.943 155.3C745.943 148.228 747.575 141.87 750.839 136.226C754.103 130.582 758.523 126.162 764.099 122.966C769.675 119.77 775.829 118.172 782.561 118.172C790.449 118.172 797.385 120.212 803.369 124.292L803.981 134.39H802.961C800.037 131.67 796.909 129.596 793.577 128.168C790.245 126.672 786.437 125.924 782.153 125.924C777.325 125.924 772.837 127.114 768.689 129.494C764.541 131.874 761.243 135.308 758.795 139.796C756.347 144.216 755.123 149.384 755.123 155.3C755.123 161.216 756.347 166.418 758.795 170.906C761.243 175.326 764.541 178.726 768.689 181.106C772.837 183.486 777.325 184.676 782.153 184.676C786.437 184.676 790.245 183.962 793.577 182.534C796.909 181.038 800.037 178.93 802.961 176.21H803.981L803.369 186.308C797.385 190.388 790.347 192.428 782.255 192.428ZM832.346 127.352H813.578V119.6H860.294V127.352H841.526V191H832.346V127.352ZM871.523 119.6H894.677C899.369 119.6 903.449 120.382 906.917 121.946C910.385 123.442 913.037 125.516 914.873 128.168C916.777 130.82 917.729 133.846 917.729 137.246C917.729 144.726 914.261 150.132 907.325 153.464C911.609 154.756 915.009 156.898 917.525 159.89C920.109 162.882 921.401 166.52 921.401 170.804C921.401 175.224 920.245 178.964 917.933 182.024C915.689 185.016 912.731 187.26 909.059 188.756C905.387 190.252 901.511 191 897.431 191H871.523V119.6ZM895.187 150.404C899.403 150.404 902.701 149.35 905.081 147.242C907.461 145.134 908.651 142.346 908.651 138.878C908.651 135.41 907.461 132.622 905.081 130.514C902.701 128.406 899.403 127.352 895.187 127.352H880.703V150.404H895.187ZM897.125 183.248C901.885 183.248 905.591 182.126 908.243 179.882C910.895 177.57 912.221 174.51 912.221 170.702C912.221 166.894 910.895 163.868 908.243 161.624C905.591 159.312 901.885 158.156 897.125 158.156H880.703V183.248H897.125ZM965.956 192.428C959.088 192.428 952.798 190.83 947.086 187.634C941.442 184.37 936.954 179.916 933.622 174.272C930.358 168.628 928.726 162.304 928.726 155.3C928.726 148.296 930.358 141.972 933.622 136.328C936.954 130.684 941.442 126.264 947.086 123.068C952.798 119.804 959.088 118.172 965.956 118.172C972.824 118.172 979.08 119.804 984.724 123.068C990.436 126.264 994.924 130.684 998.188 136.328C1001.52 141.972 1003.19 148.296 1003.19 155.3C1003.19 162.304 1001.52 168.628 998.188 174.272C994.924 179.916 990.436 184.37 984.724 187.634C979.08 190.83 972.824 192.428 965.956 192.428ZM965.956 184.676C971.192 184.676 975.918 183.486 980.134 181.106C984.418 178.726 987.784 175.326 990.232 170.906C992.748 166.486 994.006 161.284 994.006 155.3C994.006 149.316 992.748 144.114 990.232 139.694C987.784 135.274 984.418 131.874 980.134 129.494C975.918 127.114 971.192 125.924 965.956 125.924C960.72 125.924 955.96 127.114 951.676 129.494C947.46 131.874 944.094 135.274 941.578 139.694C939.13 144.114 937.906 149.316 937.906 155.3C937.906 161.284 939.13 166.486 941.578 170.906C944.094 175.326 947.46 178.726 951.676 181.106C955.96 183.486 960.72 184.676 965.956 184.676ZM1050.65 119.6H1053.71L1074.41 171.824L1095.12 119.6H1098.18L1116.74 191H1107.56L1095.22 143.162L1075.43 191H1073.39L1053.6 143.162L1041.26 191H1032.08L1050.65 119.6ZM1152.23 119.6H1154.88L1185.89 191H1176.71L1170.59 176.516H1136.52L1130.4 191H1121.22L1152.23 119.6ZM1167.23 168.764L1153.56 136.736L1139.89 168.764H1167.23ZM1195.05 119.6H1213.21C1218.45 119.6 1222.93 120.586 1226.67 122.558C1230.48 124.53 1233.34 127.182 1235.24 130.514C1237.21 133.778 1238.2 137.348 1238.2 141.224C1238.2 145.1 1237.21 148.704 1235.24 152.036C1233.34 155.3 1230.48 157.918 1226.67 159.89C1222.93 161.862 1218.45 162.848 1213.21 162.848H1204.23V191H1195.05V119.6ZM1213.31 155.096C1218.07 155.096 1221.88 153.94 1224.74 151.628C1227.59 149.248 1229.02 145.78 1229.02 141.224C1229.02 136.668 1227.59 133.234 1224.74 130.922C1221.88 128.542 1218.07 127.352 1213.31 127.352H1204.23V155.096H1213.31ZM1248.84 119.6H1258.02V154.382L1285.05 119.6H1295.76L1267.82 154.688L1298.21 191H1287.5L1258.02 155.81V191H1248.84V119.6ZM1306.62 119.6H1347.42V127.352H1315.8V150.404H1346.29V158.156H1315.8V183.248H1347.82V191H1306.62V119.6ZM1375.12 127.352H1356.35V119.6H1403.07V127.352H1384.3V191H1375.12V127.352ZM1414.29 119.6H1423.47V174.782L1461.32 119.6H1468.86V191H1459.68V135.614L1421.84 191H1414.29V119.6ZM1483.12 119.6H1492.3V149.486H1525.96V119.6H1535.14V191H1525.96V157.238H1492.3V191H1483.12V119.6ZM1549.46 119.6H1589.96V127.352H1558.64V191H1549.46V119.6ZM1616.31 119.6H1618.96L1649.97 191H1640.79L1634.67 176.516H1600.6L1594.48 191H1585.3L1616.31 119.6ZM1631.31 168.764L1617.64 136.736L1603.97 168.764H1631.31Z" fill="#383738"/>
<path d="M475.916 269.12C472.076 269.12 468.583 268.24 465.436 266.48C462.29 264.667 459.783 262.187 457.916 259.04C456.103 255.84 455.196 252.24 455.196 248.24C455.196 244.24 456.103 240.667 457.916 237.52C459.783 234.32 462.29 231.84 465.436 230.08C468.583 228.267 472.076 227.36 475.916 227.36C479.756 227.36 483.25 228.267 486.396 230.08C489.543 231.84 492.023 234.32 493.836 237.52C495.703 240.667 496.636 244.24 496.636 248.24C496.636 252.24 495.703 255.84 493.836 259.04C492.023 262.187 489.543 264.667 486.396 266.48C483.25 268.24 479.756 269.12 475.916 269.12ZM475.916 263.36C478.636 263.36 481.063 262.72 483.196 261.44C485.383 260.16 487.09 258.373 488.316 256.08C489.596 253.787 490.236 251.173 490.236 248.24C490.236 245.307 489.596 242.693 488.316 240.4C487.09 238.107 485.383 236.32 483.196 235.04C481.063 233.76 478.636 233.12 475.916 233.12C473.196 233.12 470.743 233.76 468.556 235.04C466.423 236.32 464.716 238.107 463.436 240.4C462.21 242.693 461.596 245.307 461.596 248.24C461.596 251.173 462.21 253.787 463.436 256.08C464.716 258.373 466.423 260.16 468.556 261.44C470.743 262.72 473.196 263.36 475.916 263.36ZM512.293 234.24H499.653V228.48H531.333V234.24H518.693V268H512.293V234.24ZM557.198 228.48H573.358C577.785 228.48 581.171 229.387 583.518 231.2C585.918 232.96 587.118 235.307 587.118 238.24C587.118 242.56 585.331 245.547 581.758 247.2C584.051 247.947 585.838 249.147 587.118 250.8C588.451 252.453 589.118 254.453 589.118 256.8C589.118 260.48 587.705 263.28 584.878 265.2C582.105 267.067 578.558 268 574.238 268H557.198V228.48ZM574.238 244.56C578.398 244.56 580.478 242.827 580.478 239.36C580.478 235.893 578.398 234.16 574.238 234.16H563.598V244.56H574.238ZM574.558 262.24C579.465 262.24 581.918 260.293 581.918 256.4C581.918 254.373 581.251 252.853 579.918 251.84C578.585 250.827 576.798 250.32 574.558 250.32H563.598V262.24H574.558ZM608.713 269.12C606.153 269.12 603.833 268.827 601.753 268.24C599.673 267.707 597.993 267.067 596.713 266.32L596.473 259.6H597.193C598.419 260.72 600.073 261.627 602.153 262.32C604.233 263.013 606.419 263.36 608.713 263.36C612.179 263.36 614.766 262.72 616.473 261.44C618.233 260.16 619.113 258.453 619.113 256.32C619.113 252.267 615.779 250.24 609.113 250.24H605.353V244.48H608.873C612.233 244.48 614.553 243.92 615.832 242.8C617.113 241.68 617.753 240.32 617.753 238.72C617.753 236.8 617.006 235.387 615.513 234.48C614.073 233.573 612.206 233.12 609.913 233.12C607.299 233.12 604.899 233.68 602.713 234.8C600.526 235.92 598.793 237.493 597.513 239.52H596.793L597.113 232.32C598.393 230.88 600.179 229.707 602.473 228.8C604.766 227.84 607.353 227.36 610.233 227.36C614.499 227.36 617.886 228.373 620.393 230.4C622.899 232.427 624.153 234.987 624.153 238.08C624.153 239.893 623.699 241.573 622.793 243.12C621.939 244.667 620.739 245.92 619.193 246.88C621.059 247.573 622.579 248.72 623.753 250.32C624.926 251.92 625.513 253.92 625.513 256.32C625.513 260.213 623.993 263.333 620.953 265.68C617.913 267.973 613.833 269.12 608.713 269.12ZM634.464 228.48H661.344V234.24H640.864V268H634.464V228.48ZM667.173 269.12C665.359 269.12 663.919 268.773 662.853 268.08L662.213 262.48H662.933C663.733 263.28 664.693 263.68 665.813 263.68C667.466 263.68 668.373 262.56 668.533 260.32L670.693 228.48H699.093V268H692.693V234.24H676.453L674.533 260.88C674.373 263.333 673.679 265.333 672.453 266.88C671.279 268.373 669.519 269.12 667.173 269.12ZM716.028 251.28C713.574 250.32 711.681 248.907 710.348 247.04C709.014 245.173 708.348 242.987 708.348 240.48C708.348 236.853 709.681 233.947 712.348 231.76C715.014 229.573 718.641 228.48 723.228 228.48H737.308V268H730.908V252.48H722.188L712.908 268H705.948L716.028 251.28ZM730.908 246.72V234.24H722.588C720.134 234.24 718.214 234.827 716.828 236C715.441 237.12 714.747 238.613 714.747 240.48C714.747 242.293 715.441 243.787 716.828 244.96C718.214 246.133 720.134 246.72 722.588 246.72H730.908ZM745.591 262.24H747.191C748.417 262.24 749.377 261.92 750.071 261.28C750.764 260.587 751.191 259.307 751.351 257.44L753.351 228.48H781.751V262.24H785.751V276.4H779.351V268H751.991V276.4H745.591V262.24ZM775.351 262.24V234.24H758.951L757.351 257.04C757.191 259.547 756.764 261.28 756.071 262.24H775.351ZM811.071 269.12C807.231 269.12 803.737 268.187 800.591 266.32C797.444 264.453 794.964 261.92 793.151 258.72C791.337 255.52 790.431 252.027 790.431 248.24C790.431 244.453 791.337 240.96 793.151 237.76C794.964 234.56 797.444 232.027 800.591 230.16C803.737 228.293 807.231 227.36 811.071 227.36C814.004 227.36 816.671 227.947 819.071 229.12C821.471 230.24 823.417 231.68 824.911 233.44V228.48H831.311V268H824.911V263.04C823.417 264.8 821.471 266.267 819.071 267.44C816.671 268.56 814.004 269.12 811.071 269.12ZM811.071 263.36C813.897 263.36 816.377 262.693 818.511 261.36C820.697 259.973 822.377 258.133 823.551 255.84C824.724 253.547 825.311 251.013 825.311 248.24C825.311 245.467 824.724 242.933 823.551 240.64C822.377 238.347 820.697 236.533 818.511 235.2C816.377 233.813 813.897 233.12 811.071 233.12C808.244 233.12 805.737 233.813 803.551 235.2C801.417 236.533 799.764 238.347 798.591 240.64C797.417 242.933 796.831 245.467 796.831 248.24C796.831 251.013 797.417 253.547 798.591 255.84C799.764 258.133 801.417 259.973 803.551 261.36C805.737 262.693 808.244 263.36 811.071 263.36ZM857.231 262.24H858.831C860.058 262.24 861.018 261.92 861.711 261.28C862.405 260.587 862.831 259.307 862.991 257.44L864.991 228.48H893.391V262.24H897.391V276.4H890.991V268H863.631V276.4H857.231V262.24ZM886.991 262.24V234.24H870.591L868.991 257.04C868.831 259.547 868.405 261.28 867.711 262.24H886.991ZM922.791 269.12C918.951 269.12 915.458 268.24 912.311 266.48C909.165 264.667 906.658 262.187 904.791 259.04C902.978 255.84 902.071 252.24 902.071 248.24C902.071 244.24 902.978 240.667 904.791 237.52C906.658 234.32 909.165 231.84 912.311 230.08C915.458 228.267 918.951 227.36 922.791 227.36C926.631 227.36 930.125 228.267 933.271 230.08C936.418 231.84 938.898 234.32 940.711 237.52C942.578 240.667 943.511 244.24 943.511 248.24C943.511 252.24 942.578 255.84 940.711 259.04C938.898 262.187 936.418 264.667 933.271 266.48C930.125 268.24 926.631 269.12 922.791 269.12ZM922.791 263.36C925.511 263.36 927.938 262.72 930.071 261.44C932.258 260.16 933.965 258.373 935.191 256.08C936.471 253.787 937.111 251.173 937.111 248.24C937.111 245.307 936.471 242.693 935.191 240.4C933.965 238.107 932.258 236.32 930.071 235.04C927.938 233.76 925.511 233.12 922.791 233.12C920.071 233.12 917.618 233.76 915.431 235.04C913.298 236.32 911.591 238.107 910.311 240.4C909.085 242.693 908.471 245.307 908.471 248.24C908.471 251.173 909.085 253.787 910.311 256.08C911.591 258.373 913.298 260.16 915.431 261.44C917.618 262.72 920.071 263.36 922.791 263.36ZM969.229 228.48H1002.43V268H996.029V234.24H975.629V268H969.229V228.48ZM1031.31 269.12C1027.47 269.12 1023.97 268.24 1020.83 266.48C1017.68 264.667 1015.17 262.187 1013.31 259.04C1011.49 255.84 1010.59 252.24 1010.59 248.24C1010.59 244.24 1011.49 240.667 1013.31 237.52C1015.17 234.32 1017.68 231.84 1020.83 230.08C1023.97 228.267 1027.47 227.36 1031.31 227.36C1035.15 227.36 1038.64 228.267 1041.79 230.08C1044.93 231.84 1047.41 234.32 1049.23 237.52C1051.09 240.667 1052.03 244.24 1052.03 248.24C1052.03 252.24 1051.09 255.84 1049.23 259.04C1047.41 262.187 1044.93 264.667 1041.79 266.48C1038.64 268.24 1035.15 269.12 1031.31 269.12ZM1031.31 263.36C1034.03 263.36 1036.45 262.72 1038.59 261.44C1040.77 260.16 1042.48 258.373 1043.71 256.08C1044.99 253.787 1045.63 251.173 1045.63 248.24C1045.63 245.307 1044.99 242.693 1043.71 240.4C1042.48 238.107 1040.77 236.32 1038.59 235.04C1036.45 233.76 1034.03 233.12 1031.31 233.12C1028.59 233.12 1026.13 233.76 1023.95 235.04C1021.81 236.32 1020.11 238.107 1018.83 240.4C1017.6 242.693 1016.99 245.307 1016.99 248.24C1016.99 251.173 1017.6 253.787 1018.83 256.08C1020.11 258.373 1021.81 260.16 1023.95 261.44C1026.13 262.72 1028.59 263.36 1031.31 263.36ZM1060.17 228.48H1066.57V246.64L1082.81 228.48H1090.41L1073.45 247.04L1090.81 268H1083.13L1066.57 247.76V268H1060.17V228.48ZM1108.56 260.88L1093.2 228.48H1100.08L1111.92 253.84L1124.16 228.48H1131.04L1103.2 286.08H1096.4L1108.56 260.88ZM1137.28 228.48H1170.48V268H1164.08V234.24H1143.68V268H1137.28V228.48ZM1180.71 228.48H1187.11V246.64L1203.35 228.48H1210.95L1193.99 247.04L1211.35 268H1203.67L1187.11 247.76V268H1180.71V228.48ZM1217.75 228.48H1224.15V256.08L1248.23 228.48H1251.75V268H1245.35V240.4L1221.27 268H1217.75V228.48Z" fill="#383738"/>
<path d="M157.231 227.472H97.9981L84.3227 266H70L120.17 132H135.383L185.553 266H170.987L157.231 227.472ZM127.776 144.6L102.772 214.468H152.619L127.776 144.6Z" fill="white"/>
<path d="M254.658 266L208.21 147.67V266H194.535V132.081H216.302L260.808 246.776L305.071 132.081H327V266H313.325V147.67L266.958 266H254.658Z" fill="white"/>
</svg>
