<svg width="56" height="56" viewBox="0 0 56 56" fill="none" xmlns="http://www.w3.org/2000/svg">
<g clip-path="url(#clip0_102_4597)">
<circle cx="28" cy="28" r="28" fill="white"/>
<path d="M33 19.5H23C20 19.5 18 21 18 24.5V31.5C18 35 20 36.5 23 36.5H33C36 36.5 38 35 38 31.5V24.5C38 21 36 19.5 33 19.5ZM33.47 25.59L30.34 28.09C29.68 28.62 28.84 28.88 28 28.88C27.16 28.88 26.31 28.62 25.66 28.09L22.53 25.59C22.21 25.33 22.16 24.85 22.41 24.53C22.67 24.21 23.14 24.15 23.46 24.41L26.59 26.91C27.35 27.52 28.64 27.52 29.4 26.91L32.53 24.41C32.85 24.15 33.33 24.2 33.58 24.53C33.84 24.85 33.79 25.33 33.47 25.59Z" fill="#292D32"/>
</g>
<defs>
<clipPath id="clip0_102_4597">
<rect width="56" height="56" fill="white"/>
</clipPath>
</defs>
</svg>
