<svg width="56" height="56" viewBox="0 0 56 56" fill="none" xmlns="http://www.w3.org/2000/svg">
<g clip-path="url(#clip0_102_4597)">
<path d="M28 0C43.464 0 56 12.536 56 28C56 43.464 43.464 56 28 56C12.536 56 0 43.464 0 28C0 12.536 12.536 0 28 0ZM23 19.5C20 19.5 18 21 18 24.5V31.5C18 35 20 36.5 23 36.5H33C36 36.5 38 35 38 31.5V24.5C38 21 36 19.5 33 19.5H23ZM32.5303 24.4102C32.8503 24.1502 33.3301 24.2003 33.5801 24.5303C33.8399 24.8503 33.7897 25.3299 33.4697 25.5898L30.3398 28.0898C29.6798 28.6198 28.84 28.8799 28 28.8799C27.16 28.8799 26.3102 28.6198 25.6602 28.0898L22.5303 25.5898C22.2103 25.3299 22.1602 24.8503 22.4102 24.5303C22.6702 24.2103 23.14 24.1502 23.46 24.4102L26.5898 26.9102C27.3498 27.5202 28.6404 27.5202 29.4004 26.9102L32.5303 24.4102Z" fill="white"/>
</g>
<defs>
<clipPath id="clip0_102_4597">
<rect width="56" height="56" fill="white"/>
</clipPath>
</defs>
</svg>
