<svg width="136" height="98" viewBox="0 0 136 98" fill="none" xmlns="http://www.w3.org/2000/svg">
<path d="M50.9997 11.3335C36.153 11.3335 24.083 23.4035 24.083 38.2502C24.083 52.8135 35.473 64.6002 50.3197 65.1102C50.773 65.0535 51.2263 65.0535 51.5663 65.1102C51.6797 65.1102 51.7363 65.1102 51.8497 65.1102C51.9063 65.1102 51.9063 65.1102 51.963 65.1102C66.4697 64.6002 77.8597 52.8135 77.9163 38.2502C77.9163 23.4035 65.8463 11.3335 50.9997 11.3335Z" fill="white" fill-opacity="0.05"/>
<path d="M79.7864 80.1833C63.9764 69.6433 38.1931 69.6433 22.2698 80.1833C15.0731 85 11.1064 91.5167 11.1064 98.4867C11.1064 105.457 15.0731 111.917 22.2131 116.677C30.1464 122.003 40.5731 124.667 50.9998 124.667C61.4264 124.667 71.8531 122.003 79.7864 116.677C86.9264 111.86 90.8931 105.4 90.8931 98.3733C90.8365 91.4033 86.9264 84.9433 79.7864 80.1833Z" fill="white" fill-opacity="0.05"/>
<path d="M113.277 41.5936C114.184 52.5869 106.364 62.2202 95.5404 63.5236C95.4837 63.5236 95.4837 63.5236 95.427 63.5236H95.257C94.917 63.5236 94.577 63.5236 94.2937 63.6369C88.797 63.9202 83.7537 62.1636 79.957 58.9336C85.7937 53.7202 89.137 45.9002 88.457 37.4002C88.0604 32.8102 86.4737 28.6169 84.0937 25.0469C86.247 23.9702 88.7404 23.2902 91.2904 23.0636C102.397 22.1002 112.314 30.3736 113.277 41.5936Z" fill="white" fill-opacity="0.05"/>
<path d="M124.61 94.01C124.156 99.5066 120.643 104.267 114.75 107.497C109.083 110.613 101.943 112.087 94.8597 111.917C98.9397 108.233 101.32 103.643 101.773 98.77C102.34 91.7433 98.9964 85 92.3097 79.6166C88.513 76.6133 84.093 74.2333 79.2764 72.4766C91.7997 68.85 107.553 71.2866 117.243 79.1066C122.456 83.3 125.12 88.57 124.61 94.01Z" fill="white" fill-opacity="0.05"/>
</svg>
