<svg width="56" height="56" viewBox="0 0 56 56" fill="none" xmlns="http://www.w3.org/2000/svg">
<g clip-path="url(#clip0_102_4594)">
<path d="M28 0C43.464 0 56 12.536 56 28C56 43.464 43.464 56 28 56C12.536 56 0 43.464 0 28C0 12.536 12.536 0 28 0ZM32.6396 30.04C32.3897 30.04 32.1597 30.11 31.9297 30.25C31.6998 30.3699 31.4598 30.5598 31.21 30.8096L30.4492 31.5596C30.3393 31.6695 30.2098 31.7304 30.04 31.7305C29.9502 31.7305 29.8699 31.7203 29.79 31.6904C29.72 31.6604 29.6594 31.6304 29.6094 31.6104C29.3994 31.5004 29.1491 31.3399 28.8691 31.1299L25.5996 34.4004C25.9696 34.7103 26.3601 35.0001 26.75 35.29C27.8899 36.12 29.0395 36.7805 30.1895 37.2705C31.3393 37.7604 32.4293 37.9999 33.4492 38C34.1391 38 34.7792 37.8698 35.3691 37.6299C35.3791 37.6299 35.3895 37.6202 35.3994 37.6201C36.0094 37.3701 36.55 36.9804 37.04 36.4404C37.33 36.1204 37.5497 35.7799 37.7197 35.4199C37.7597 35.34 37.7894 35.2596 37.8193 35.1797C37.9193 34.8998 37.9697 34.61 37.9697 34.3301C37.9697 34.0501 37.9096 33.7998 37.8096 33.5498C37.6996 33.2999 37.5196 33.0901 37.2598 32.9102L33.9492 30.5596C33.6995 30.3898 33.4698 30.2599 33.25 30.1699C33.03 30.0799 32.8296 30.04 32.6396 30.04ZM21.5898 18C20.8499 18 20.1497 18.3105 19.5098 18.9404C18.9799 19.4403 18.6003 20.0005 18.3604 20.6104C18.1204 21.2103 18 21.8601 18 22.54C18 23.5799 18.2401 24.6697 18.71 25.8096C19.1899 26.9395 19.85 28.0798 20.6699 29.2197C21.4999 30.3597 22.43 31.4502 23.46 32.4902C23.5699 32.6001 23.6801 32.6997 23.79 32.8096C24.19 33.1896 24.8102 33.1898 25.2002 32.7998L27.0498 30.9502C27.4498 30.5502 27.44 29.9095 27.04 29.5195C26.9401 29.4196 26.8304 29.3196 26.7305 29.2197C26.2105 28.6897 25.7303 28.1596 25.2803 27.6396C24.8404 27.1197 24.5296 26.6903 24.3496 26.3604C24.3296 26.3004 24.2995 26.2402 24.2695 26.1602C24.2495 26.0802 24.2402 26.0097 24.2402 25.9297C24.2403 25.7698 24.2905 25.6402 24.4004 25.5303L25.1602 24.7402C25.4 24.5003 25.5897 24.2602 25.7197 24.0303C25.8597 23.8004 25.9296 23.5602 25.9297 23.3203C25.9297 23.1303 25.88 22.92 25.79 22.71C25.7 22.49 25.5696 22.2598 25.3896 22.0098L23.0703 18.7402C22.8904 18.4803 22.6603 18.2997 22.4004 18.1797C22.1504 18.0597 21.8698 18 21.5898 18Z" fill="white"/>
</g>
<defs>
<clipPath id="clip0_102_4594">
<rect width="56" height="56" fill="white"/>
</clipPath>
</defs>
</svg>
