<svg width="56" height="56" viewBox="0 0 56 56" fill="none" xmlns="http://www.w3.org/2000/svg">
<g clip-path="url(#clip0_102_4594)">
<circle cx="28" cy="28" r="28" fill="white"/>
<path d="M27.05 30.95L25.2 32.8C24.81 33.19 24.19 33.19 23.79 32.81C23.68 32.7 23.57 32.6 23.46 32.49C22.43 31.45 21.5 30.36 20.67 29.22C19.85 28.08 19.19 26.94 18.71 25.81C18.24 24.67 18 23.58 18 22.54C18 21.86 18.12 21.21 18.36 20.61C18.6 20 18.98 19.44 19.51 18.94C20.15 18.31 20.85 18 21.59 18C21.87 18 22.15 18.06 22.4 18.18C22.66 18.3 22.89 18.48 23.07 18.74L25.39 22.01C25.57 22.26 25.7 22.49 25.79 22.71C25.88 22.92 25.93 23.13 25.93 23.32C25.93 23.56 25.86 23.8 25.72 24.03C25.59 24.26 25.4 24.5 25.16 24.74L24.4 25.53C24.29 25.64 24.24 25.77 24.24 25.93C24.24 26.01 24.25 26.08 24.27 26.16C24.3 26.24 24.33 26.3 24.35 26.36C24.53 26.69 24.84 27.12 25.28 27.64C25.73 28.16 26.21 28.69 26.73 29.22C26.83 29.32 26.94 29.42 27.04 29.52C27.44 29.91 27.45 30.55 27.05 30.95Z" fill="#292D32"/>
<path d="M37.9696 34.33C37.9696 34.61 37.9196 34.9 37.8196 35.18C37.7896 35.26 37.7596 35.34 37.7196 35.42C37.5496 35.78 37.3296 36.12 37.0396 36.44C36.5496 36.98 36.0096 37.37 35.3996 37.62C35.3896 37.62 35.3796 37.63 35.3696 37.63C34.7796 37.87 34.1396 38 33.4496 38C32.4296 38 31.3396 37.76 30.1896 37.27C29.0396 36.78 27.8896 36.12 26.7496 35.29C26.3596 35 25.9696 34.71 25.5996 34.4L28.8696 31.13C29.1496 31.34 29.3996 31.5 29.6096 31.61C29.6596 31.63 29.7196 31.66 29.7896 31.69C29.8696 31.72 29.9496 31.73 30.0396 31.73C30.2096 31.73 30.3396 31.67 30.4496 31.56L31.2096 30.81C31.4596 30.56 31.6996 30.37 31.9296 30.25C32.1596 30.11 32.3896 30.04 32.6396 30.04C32.8296 30.04 33.0296 30.08 33.2496 30.17C33.4696 30.26 33.6996 30.39 33.9496 30.56L37.2596 32.91C37.5196 33.09 37.6996 33.3 37.8096 33.55C37.9096 33.8 37.9696 34.05 37.9696 34.33Z" fill="#292D32"/>
</g>
<defs>
<clipPath id="clip0_102_4594">
<rect width="56" height="56" fill="white"/>
</clipPath>
</defs>
</svg>
