<svg width="56" height="56" viewBox="0 0 56 56" fill="none" xmlns="http://www.w3.org/2000/svg">
<path d="M28 0C43.464 5.15408e-07 56 12.536 56 28C56 43.464 43.464 56 28 56C12.536 56 5.1544e-07 43.464 0 28C0 12.536 12.536 0 28 0ZM38.9209 19.748C39.2758 18.3457 38.3777 17.71 37.4473 18.126L17.0742 25.8633C15.6836 26.4126 15.6914 27.1761 16.8203 27.5166L22.0488 29.124L34.1523 21.6035C34.7236 21.2623 35.2481 21.4453 34.8184 21.8213L25.0107 30.5391L24.6504 35.8486C25.1791 35.8486 25.4129 35.6107 25.708 35.3281L28.249 32.8955L33.5342 36.7412C34.5068 37.2697 35.2089 36.9959 35.4512 35.8516L38.9209 19.748Z" fill="white"/>
</svg>
