<svg width="136" height="102" viewBox="0 0 136 102" fill="none" xmlns="http://www.w3.org/2000/svg">
<path d="M91.743 11.3335H44.2563C23.6297 11.3335 11.333 23.6302 11.333 44.2568V91.6868C11.333 112.37 23.6297 124.667 44.2563 124.667H91.6863C112.313 124.667 124.61 112.37 124.61 91.7435V44.2568C124.666 23.6302 112.37 11.3335 91.743 11.3335ZM95.653 81.2035C95.653 81.7135 95.5397 82.2235 95.3697 82.7335C94.973 83.6968 94.1797 84.4902 93.2164 84.8868C92.7064 85.1135 92.1963 85.1702 91.6863 85.1702H81.1463C78.9363 85.1702 77.1797 83.4135 77.1797 81.2035C77.1797 78.9935 78.9363 77.2368 81.1463 77.2368H82.1663L70.2097 65.2802L64.4297 73.8935C63.7497 74.8568 62.7297 75.5368 61.5397 75.6502C60.3497 75.7635 59.2163 75.3668 58.3663 74.5168L41.4797 57.6302C39.9497 56.1002 39.9497 53.6068 41.4797 52.0202C43.0097 50.4335 45.503 50.4902 47.0897 52.0202L60.5763 65.5068L66.3563 56.8935C67.0363 55.9302 68.0563 55.2502 69.2463 55.1368C70.493 55.0235 71.5697 55.4202 72.4197 56.2702L87.833 71.6835V70.6635C87.833 68.4535 89.5897 66.6968 91.7997 66.6968C94.0097 66.6968 95.7663 68.4535 95.7663 70.6635V81.2035H95.653Z" fill="white" fill-opacity="0.05"/>
</svg>
