<svg width="138" height="100" viewBox="0 0 138 100" fill="none" xmlns="http://www.w3.org/2000/svg">
<path d="M123.97 61.7552L116.15 52.6702C114.655 50.9452 113.447 47.7252 113.447 45.4252V35.6502C113.447 29.5552 108.445 24.5527 102.35 24.5527H92.5746C90.3321 24.5527 87.0546 23.3452 85.3296 21.8502L76.2446 14.0302C72.2771 10.6377 65.7796 10.6377 61.7546 14.0302L52.7271 21.9077C51.0021 23.3452 47.7246 24.5527 45.4821 24.5527H35.5346C29.4396 24.5527 24.4371 29.5552 24.4371 35.6502V45.4827C24.4371 47.7252 23.2296 50.9452 21.7921 52.6702L14.0296 61.8127C10.6946 65.7802 10.6946 72.2202 14.0296 76.1877L21.7921 85.3302C23.2296 87.0552 24.4371 90.2752 24.4371 92.5177V102.35C24.4371 108.445 29.4396 113.448 35.5346 113.448H45.4821C47.7246 113.448 51.0021 114.655 52.7271 116.15L61.8121 123.97C65.7796 127.363 72.2771 127.363 76.3021 123.97L85.3871 116.15C87.1121 114.655 90.3321 113.448 92.6321 113.448H102.407C108.502 113.448 113.505 108.445 113.505 102.35V92.5752C113.505 90.3327 114.712 87.0552 116.207 85.3302L124.027 76.2452C127.362 72.2777 127.362 65.7227 123.97 61.7552ZM92.9196 58.1327L65.1471 85.9052C64.3421 86.7102 63.2496 87.1702 62.0996 87.1702C60.9496 87.1702 59.8571 86.7102 59.0521 85.9052L45.1371 71.9902C43.4696 70.3227 43.4696 67.5627 45.1371 65.8952C46.8046 64.2277 49.5646 64.2277 51.2321 65.8952L62.0996 76.7627L86.8246 52.0377C88.4921 50.3702 91.2521 50.3702 92.9196 52.0377C94.5871 53.7052 94.5871 56.4652 92.9196 58.1327Z" fill="white" fill-opacity="0.05"/>
</svg>
