<svg width="26" height="12" viewBox="0 0 26 12" fill="none" xmlns="http://www.w3.org/2000/svg">
<path d="M24.75 6.27295C25.1642 6.27295 25.5 5.93716 25.5 5.52295C25.5 5.10874 25.1642 4.77295 24.75 4.77295L24.75 5.52295L24.75 6.27295ZM0.219669 4.99262C-0.0732231 5.28551 -0.0732231 5.76039 0.219669 6.05328L4.99264 10.8263C5.28553 11.1191 5.76041 11.1191 6.0533 10.8263C6.34619 10.5334 6.34619 10.0585 6.0533 9.76559L1.81066 5.52295L6.0533 1.28031C6.34619 0.987417 6.34619 0.512543 6.0533 0.21965C5.76041 -0.0732434 5.28553 -0.0732433 4.99264 0.21965L0.219669 4.99262ZM24.75 5.52295L24.75 4.77295L0.75 4.77295L0.75 5.52295L0.75 6.27295L24.75 6.27295L24.75 5.52295Z" fill="#1A712D"/>
</svg>
