<svg width="16" height="16" viewBox="0 0 16 16" fill="none" xmlns="http://www.w3.org/2000/svg">
<g clip-path="url(#clip0_169_55547)">
<path d="M8 16C12.4183 16 16 12.4183 16 8C16 3.58172 12.4183 0 8 0C3.58172 0 0 3.58172 0 8C0 12.4183 3.58172 16 8 16Z" fill="#F0F0F0"/>
<path d="M16 7.99989C16 4.8282 14.1542 2.0877 11.4783 0.793701V15.206C14.1542 13.9121 16 11.1716 16 7.99989Z" fill="#D80027"/>
<path d="M0 7.99989C0 11.1716 1.84578 13.9121 4.52175 15.2061V0.793701C1.84578 2.0877 0 4.8282 0 7.99989Z" fill="#D80027"/>
<path d="M9.39131 9.04344L10.7826 8.34778L10.087 7.99997V7.30431L8.69566 7.99997L9.39131 6.60865H8.69566L8 5.56519L7.30434 6.60865H6.60869L7.30434 7.99997L5.91303 7.30431V7.99997L5.21741 8.34778L6.60869 9.04344L6.26088 9.73909H7.65219V10.7826H8.34781V9.73909H9.73913L9.39131 9.04344Z" fill="#D80027"/>
</g>
<defs>
<clipPath id="clip0_169_55547">
<rect width="16" height="16" fill="white"/>
</clipPath>
</defs>
</svg>
