<svg width="28" height="28" viewBox="0 0 28 28" fill="none" xmlns="http://www.w3.org/2000/svg">
<g clip-path="url(#clip0_41_51655)">
<path d="M14 3.5C8.20167 3.5 3.5 8.20167 3.5 14C3.5 19.7983 8.20167 24.5 14 24.5C14.9683 24.5 15.75 23.7183 15.75 22.75C15.75 22.295 15.5808 21.8867 15.295 21.5775C15.0208 21.2683 14.8575 20.8658 14.8575 20.4167C14.8575 19.4483 15.6392 18.6667 16.6075 18.6667H18.6667C21.8867 18.6667 24.5 16.0533 24.5 12.8333C24.5 7.67667 19.7983 3.5 14 3.5ZM7.58333 14C6.615 14 5.83333 13.2183 5.83333 12.25C5.83333 11.2817 6.615 10.5 7.58333 10.5C8.55167 10.5 9.33333 11.2817 9.33333 12.25C9.33333 13.2183 8.55167 14 7.58333 14ZM11.0833 9.33333C10.115 9.33333 9.33333 8.55167 9.33333 7.58333C9.33333 6.615 10.115 5.83333 11.0833 5.83333C12.0517 5.83333 12.8333 6.615 12.8333 7.58333C12.8333 8.55167 12.0517 9.33333 11.0833 9.33333ZM16.9167 9.33333C15.9483 9.33333 15.1667 8.55167 15.1667 7.58333C15.1667 6.615 15.9483 5.83333 16.9167 5.83333C17.885 5.83333 18.6667 6.615 18.6667 7.58333C18.6667 8.55167 17.885 9.33333 16.9167 9.33333ZM20.4167 14C19.4483 14 18.6667 13.2183 18.6667 12.25C18.6667 11.2817 19.4483 10.5 20.4167 10.5C21.385 10.5 22.1667 11.2817 22.1667 12.25C22.1667 13.2183 21.385 14 20.4167 14Z" fill="#FEE92E"/>
</g>
<defs>
<clipPath id="clip0_41_51655">
<rect width="28" height="28" fill="white"/>
</clipPath>
</defs>
</svg>
