<svg width="16" height="16" viewBox="0 0 16 16" fill="none" xmlns="http://www.w3.org/2000/svg">
<g clip-path="url(#clip0_169_56218)">
<path d="M8 16C12.4183 16 16 12.4183 16 8C16 3.58172 12.4183 0 8 0C3.58172 0 0 3.58172 0 8C0 12.4183 3.58172 16 8 16Z" fill="#F0F0F0"/>
<path d="M0.972717 4.17391H15.0273C13.6704 1.68716 11.0323 0 8 0C4.96766 0 2.32956 1.68716 0.972717 4.17391Z" fill="#D80027"/>
<path d="M8 16.0001C11.0323 16.0001 13.6704 14.3129 15.0273 11.8262H0.972717C2.32956 14.3129 4.96766 16.0001 8 16.0001Z" fill="#D80027"/>
<path d="M10.7826 7.99988C10.7826 9.53669 9.53678 10.4347 8 10.4347C6.46322 10.4347 5.21741 9.53669 5.21741 7.99988C5.21741 6.46307 6.46322 5.21729 8 5.21729C9.53678 5.21729 10.7826 6.46307 10.7826 7.99988Z" fill="#FFDA44"/>
<path d="M10.7826 8C10.7826 9.53681 9.53678 10.7826 8 10.7826C6.46322 10.7826 5.21741 9.53681 5.21741 8" fill="#0052B4"/>
<path d="M6.26086 7.30444H6.95652V8.69576H6.26086V7.30444Z" fill="#D80027"/>
<path d="M9.04346 7.30444H9.73911V8.69576H9.04346V7.30444Z" fill="#D80027"/>
<path d="M7.65219 6.26099H8.34785V8.69577H7.65219V6.26099Z" fill="#D80027"/>
</g>
<defs>
<clipPath id="clip0_169_56218">
<rect width="16" height="16" fill="white"/>
</clipPath>
</defs>
</svg>
