<svg width="261.000000" height="88.000000" viewBox="0 0 261 88" fill="none" xmlns="http://www.w3.org/2000/svg" xmlns:xlink="http://www.w3.org/1999/xlink">
	<desc>
			Created with Pixso.
	</desc>
	<defs>
		<clipPath id="clip840_6862">
			<rect id="лого-02 3" width="261.000000" height="88.000000" fill="white" fill-opacity="0"/>
		</clipPath>
	</defs>
	<rect id="лого-02 3" width="261.000000" height="88.000000" fill="#FFFFFF" fill-opacity="0"/>
	<g clip-path="url(#clip840_6862)">
		<path id="Vector" d="M86.5154 44C86.5154 60.7363 72.989 74.3027 56.3035 74.3027C39.6179 74.3027 26.0916 60.7363 26.0916 44C26.0916 27.2656 39.6179 13.6992 56.3035 13.6992C72.989 13.6992 86.5154 27.2656 86.5154 44Z" fill="#383738" fill-opacity="1.000000" fill-rule="evenodd"/>
		<path id="Vector" d="M97.4731 39.6641L96.5786 41.8457L95.6841 41.8457L98.9268 33.9961L99.7095 33.9961L102.952 41.8457L102.063 41.8457L101.191 39.6641L97.4731 39.6641ZM99.3181 35.1797L97.8086 38.8809L100.827 38.8809L99.3181 35.1797Z" fill="#222221" fill-opacity="1.000000" fill-rule="nonzero"/>
		<path id="Vector" d="M104.406 33.9961L109.269 33.9961L109.269 34.7637L105.244 34.7637L105.244 41.8301L104.406 41.8301L104.406 33.9961Z" fill="#222221" fill-opacity="1.000000" fill-rule="nonzero"/>
		<path id="Vector" d="M116.034 41.0664L116.034 41.8457L110.55 41.8457L110.55 33.9961L115.917 33.9961L115.917 34.7637L111.394 34.7637L111.394 37.3438L115.022 37.3438L115.022 38.1289L111.394 38.1289L111.394 41.0508L116.034 41.0664Z" fill="#222221" fill-opacity="1.000000" fill-rule="nonzero"/>
		<path id="Vector" d="M117.7 33.9961L118.522 33.9961L118.522 37.4727L122.877 37.4727L122.877 33.9961L123.716 33.9961L123.716 41.8457L122.877 41.8457L122.877 38.2637L118.522 38.2637L118.522 41.8457L117.678 41.8457L117.7 33.9961Z" fill="#222221" fill-opacity="1.000000" fill-rule="nonzero"/>
		<path id="Vector" d="M126.757 35.0625C127.27 34.5488 127.912 34.1855 128.615 34.0078C129.317 33.8301 130.054 33.8457 130.749 34.0527C131.068 34.1445 131.373 34.2812 131.654 34.457C131.875 34.5996 132.085 34.7578 132.281 34.9336C132.427 35.0527 132.559 35.1914 132.672 35.3438L132.801 35.5117L132.241 36.0156L132.141 35.8691C132.05 35.7539 131.948 35.6484 131.839 35.5508C131.676 35.3984 131.5 35.2617 131.313 35.1406C131.082 35.002 130.834 34.8945 130.575 34.8164C130.264 34.7188 129.94 34.6699 129.614 34.6699C129.193 34.6621 128.774 34.7402 128.385 34.9023C127.995 35.0625 127.643 35.3027 127.35 35.6055C126.758 36.2305 126.428 37.0605 126.428 37.9219C126.428 38.7832 126.758 39.6133 127.35 40.2383C127.643 40.541 127.995 40.7812 128.385 40.9434C128.774 41.1035 129.193 41.1816 129.614 41.1738C129.939 41.1777 130.264 41.1289 130.575 41.0332C130.844 40.9609 131.101 40.8477 131.336 40.6973C131.53 40.5781 131.717 40.4473 131.895 40.3047C132.019 40.207 132.128 40.0918 132.219 39.9629L132.325 39.8281L132.884 40.3379C132.843 40.3984 132.798 40.4531 132.75 40.5078C132.627 40.6445 132.495 40.7754 132.353 40.8945C132.151 41.0781 131.934 41.2441 131.705 41.3926C131.42 41.5605 131.116 41.6934 130.799 41.7852C130.424 41.9004 130.034 41.959 129.642 41.959C128.847 41.9551 128.07 41.7168 127.41 41.2734C126.75 40.8281 126.235 40.1992 125.93 39.4609C125.625 38.7246 125.545 37.9141 125.698 37.1309C125.851 36.3496 126.231 35.6289 126.791 35.0625L126.757 35.0625Z" fill="#222221" fill-opacity="1.000000" fill-rule="nonzero"/>
		<path id="Vector" d="M139.342 33.998L139.342 34.7656L136.876 34.7656L136.876 41.8301L136.043 41.8301L136.043 34.7656L133.578 34.7656L133.578 33.9805L139.342 33.998Z" fill="#222221" fill-opacity="1.000000" fill-rule="nonzero"/>
		<path id="Vector" d="M145.178 37.7031C145.285 37.7637 145.386 37.832 145.48 37.9102C145.625 38.0195 145.759 38.1426 145.877 38.2812C146.006 38.4512 146.11 38.6406 146.185 38.8418C146.328 39.248 146.352 39.6875 146.253 40.1074C146.154 40.5273 145.936 40.9082 145.625 41.207C145.392 41.4219 145.119 41.5879 144.822 41.6973C144.524 41.8066 144.209 41.8555 143.893 41.8418L140.706 41.8418L140.706 33.9902L143.725 33.9902C144.009 33.9766 144.293 34.0195 144.561 34.1152C144.828 34.2109 145.074 34.3594 145.285 34.5508C145.483 34.7324 145.641 34.9551 145.747 35.2031C145.854 35.4492 145.905 35.7168 145.9 35.9863C145.901 36.2031 145.873 36.418 145.816 36.627C145.77 36.793 145.694 36.9512 145.592 37.0918C145.508 37.1992 145.416 37.3008 145.318 37.3945C145.252 37.457 145.179 37.5117 145.1 37.5566L145.011 37.6133L145.178 37.7031ZM141.572 34.7656L141.572 37.2832L143.753 37.2832C144.113 37.3008 144.466 37.1777 144.737 36.9395C144.859 36.8164 144.954 36.6699 145.015 36.5078C145.077 36.3457 145.104 36.1719 145.094 35.998C145.101 35.832 145.073 35.668 145.011 35.5137C144.949 35.3613 144.856 35.2207 144.737 35.1074C144.466 34.8691 144.113 34.7461 143.753 34.7656L141.572 34.7656ZM143.92 41.0508C144.333 41.0645 144.734 40.9141 145.039 40.6348C145.179 40.5 145.29 40.3379 145.363 40.1562C145.436 39.9766 145.47 39.7812 145.463 39.5879C145.469 39.3809 145.434 39.1758 145.36 38.9824C145.286 38.791 145.175 38.6152 145.033 38.4648C144.889 38.3145 144.715 38.1973 144.522 38.1172C144.33 38.0391 144.123 38 143.915 38.0059L141.567 38.0059L141.567 41.0391L143.92 41.0508Z" fill="#222221" fill-opacity="1.000000" fill-rule="nonzero"/>
		<path id="Vector" d="M154.593 40.7812C153.933 41.4492 153.062 41.8652 152.13 41.9609C151.198 42.0566 150.261 41.8242 149.481 41.3047C148.7 40.7852 148.123 40.0098 147.849 39.1113C147.575 38.2129 147.62 37.2461 147.977 36.377C148.333 35.5078 148.98 34.791 149.805 34.3457C150.631 33.9004 151.585 33.7578 152.504 33.9395C153.424 34.123 154.251 34.6191 154.846 35.3457C155.441 36.0723 155.767 36.9824 155.767 37.9219C155.776 38.4551 155.677 38.9824 155.475 39.4746C155.273 39.9668 154.973 40.4102 154.593 40.7812ZM149.477 40.2207C150.081 40.8203 150.895 41.1562 151.744 41.1562C152.594 41.1562 153.408 40.8203 154.011 40.2207C154.603 39.5957 154.933 38.7676 154.933 37.9062C154.933 37.043 154.603 36.2148 154.011 35.5898C153.408 34.9902 152.594 34.6543 151.744 34.6543C150.895 34.6543 150.081 34.9902 149.477 35.5898C148.886 36.2148 148.556 37.043 148.556 37.9062C148.556 38.7676 148.886 39.5957 149.477 40.2207Z" fill="#222221" fill-opacity="1.000000" fill-rule="nonzero"/>
		<path id="Vector" d="M163.706 39.6035L160.575 35.459L160.575 41.8457L159.736 41.8457L159.736 33.9961L160.452 33.9961L163.695 38.2637L166.937 33.9961L167.664 33.9961L167.664 41.8457L166.831 41.8457L166.831 35.459L163.706 39.6035Z" fill="#222221" fill-opacity="1.000000" fill-rule="nonzero"/>
		<path id="Vector" d="M170.918 39.6641L170.023 41.8457L169.129 41.8457L172.371 33.9961L173.148 33.9961L176.396 41.8457L175.502 41.8457L174.607 39.6641L170.918 39.6641ZM172.763 35.1797L171.253 38.8809L174.272 38.8809L172.763 35.1797Z" fill="#222221" fill-opacity="1.000000" fill-rule="nonzero"/>
		<path id="Vector" d="M180.813 33.998C181.145 33.9863 181.476 34.0449 181.785 34.166C182.095 34.2871 182.376 34.4707 182.613 34.7031C183.074 35.1738 183.332 35.8066 183.332 36.4648C183.332 37.123 183.074 37.7559 182.613 38.2246C182.377 38.459 182.097 38.6426 181.789 38.7656C181.48 38.8867 181.15 38.9453 180.819 38.9375L178.694 38.9375L178.694 41.8477L177.85 41.8477L177.85 33.998L180.813 33.998ZM178.689 34.7832L178.689 38.1465L180.813 38.1465C181.037 38.1621 181.262 38.1289 181.472 38.0488C181.682 37.9688 181.873 37.8457 182.032 37.6875C182.191 37.5273 182.314 37.3359 182.393 37.125C182.472 36.9141 182.505 36.6895 182.49 36.4648C182.505 36.2402 182.472 36.0137 182.393 35.8027C182.314 35.5918 182.191 35.4004 182.032 35.2422C181.873 35.082 181.682 34.959 181.472 34.8809C181.262 34.8008 181.037 34.7676 180.813 34.7832L178.689 34.7832Z" fill="#222221" fill-opacity="1.000000" fill-rule="nonzero"/>
		<path id="Vector" d="M189.976 33.9961L191.038 33.9961L188.075 37.248L191.318 41.8457L190.312 41.8457L187.516 37.8652L185.951 39.5469L185.951 41.8457L185.112 41.8457L185.112 33.9961L185.951 33.9961L185.951 38.4258L189.976 33.9961Z" fill="#222221" fill-opacity="1.000000" fill-rule="nonzero"/>
		<path id="Vector" d="M198.083 41.0664L198.083 41.8457L192.604 41.8457L192.604 33.9961L197.971 33.9961L197.971 34.7637L193.437 34.7637L193.437 37.3438L197.071 37.3438L197.071 38.1289L193.437 38.1289L193.437 41.0508L198.083 41.0664Z" fill="#222221" fill-opacity="1.000000" fill-rule="nonzero"/>
		<path id="Vector" d="M204.568 33.998L204.568 34.7656L202.103 34.7656L202.103 41.8301L201.264 41.8301L201.264 34.7656L198.804 34.7656L198.804 33.9805L204.568 33.998Z" fill="#222221" fill-opacity="1.000000" fill-rule="nonzero"/>
		<path id="Vector" d="M211.495 41.8457L211.495 35.5098L206.681 41.8457L205.96 41.8457L205.96 33.9961L206.799 33.9961L206.799 40.3379L211.601 33.9961L212.328 33.9961L212.328 41.8457L211.495 41.8457Z" fill="#222221" fill-opacity="1.000000" fill-rule="nonzero"/>
		<path id="Vector" d="M214.681 33.9961L215.526 33.9961L215.526 37.4727L219.881 37.4727L219.881 33.9961L220.719 33.9961L220.719 41.8457L219.881 41.8457L219.881 38.2637L215.52 38.2637L215.52 41.8457L214.681 41.8457L214.681 33.9961Z" fill="#222221" fill-opacity="1.000000" fill-rule="nonzero"/>
		<path id="Vector" d="M223.067 33.9961L227.931 33.9961L227.931 34.7637L223.906 34.7637L223.906 41.8301L223.067 41.8301L223.067 33.9961Z" fill="#222221" fill-opacity="1.000000" fill-rule="nonzero"/>
		<path id="Vector" d="M229.435 39.6641L228.541 41.8457L227.646 41.8457L230.889 33.9961L231.666 33.9961L234.908 41.8457L234.019 41.8457L233.13 39.6641L229.435 39.6641ZM231.28 35.1797L229.776 38.875L232.795 38.875L231.28 35.1797Z" fill="#222221" fill-opacity="1.000000" fill-rule="nonzero"/>
		<path id="Vector" d="M96.6514 49.9727C96.905 49.7148 97.2073 49.5117 97.5403 49.3711C97.8733 49.2324 98.2305 49.1602 98.5913 49.1602C98.9521 49.1602 99.3096 49.2324 99.6426 49.3711C99.9753 49.5117 100.278 49.7148 100.531 49.9727C101.045 50.5078 101.332 51.2227 101.332 51.9668C101.332 52.709 101.045 53.4238 100.531 53.959C100.277 54.2148 99.9744 54.418 99.6416 54.5566C99.3086 54.6953 98.9517 54.7676 98.5913 54.7676C98.231 54.7676 97.874 54.6953 97.541 54.5566C97.2083 54.418 96.9058 54.2148 96.6514 53.959C96.1379 53.4238 95.8511 52.709 95.8511 51.9668C95.8511 51.2227 96.1379 50.5078 96.6514 49.9727ZM99.9722 50.4941C99.7949 50.3047 99.5811 50.1543 99.3435 50.0508C99.1062 49.9473 98.8501 49.8945 98.5913 49.8945C98.3325 49.8945 98.0767 49.9473 97.8391 50.0508C97.6016 50.1543 97.3877 50.3047 97.2104 50.4941C96.8403 50.8945 96.6345 51.4199 96.6345 51.9668C96.6345 52.5117 96.8403 53.0371 97.2104 53.4375C97.3872 53.627 97.6011 53.7793 97.8386 53.8828C98.0762 53.9863 98.3323 54.0391 98.5913 54.0391C98.8503 54.0391 99.1064 53.9863 99.344 53.8828C99.5815 53.7793 99.7954 53.627 99.9722 53.4375C100.343 53.0371 100.549 52.5098 100.549 51.9629C100.549 51.416 100.343 50.8887 99.9722 50.4883L99.9722 50.4941Z" fill="#222221" fill-opacity="1.000000" fill-rule="nonzero"/>
		<path id="Vector" d="M102.058 49.2773L106.636 49.2773L106.636 50.0059L104.736 50.0059L104.736 54.6602L103.953 54.6602L103.953 50.0059L102.058 50.0059L102.058 49.2773Z" fill="#222221" fill-opacity="1.000000" fill-rule="nonzero"/>
		<path id="Vector" d="M112.333 49.2773C112.763 49.252 113.185 49.3945 113.513 49.6758C113.656 49.7988 113.77 49.9531 113.846 50.127C113.922 50.3008 113.959 50.4883 113.955 50.6777C113.955 50.875 113.91 51.0703 113.824 51.2461C113.738 51.4238 113.612 51.5781 113.457 51.6992L113.284 51.8008L113.379 51.834C113.456 51.8672 113.531 51.9062 113.602 51.9512C113.701 52.0137 113.792 52.0898 113.871 52.1758C113.964 52.2852 114.037 52.4102 114.083 52.5449C114.155 52.7246 114.189 52.9141 114.184 53.1074C114.19 53.3145 114.153 53.5234 114.074 53.7168C113.995 53.9102 113.876 54.084 113.725 54.2285C113.37 54.5273 112.914 54.6777 112.451 54.6484L109.879 54.6484L109.879 49.2656L112.333 49.2773ZM112.333 50.0059L110.656 50.0059L110.656 51.4629L112.333 51.4629C112.892 51.4629 113.177 51.2168 113.177 50.7344C113.177 50.252 112.898 50.0059 112.333 50.0059ZM110.656 52.1367L110.656 53.9316L112.445 53.9316C112.702 53.9492 112.955 53.8633 113.149 53.6953C113.308 53.5117 113.396 53.2773 113.396 53.0332C113.396 52.791 113.308 52.5547 113.149 52.3711C112.955 52.2031 112.702 52.1191 112.445 52.1367L110.656 52.1367Z" fill="#222221" fill-opacity="1.000000" fill-rule="nonzero"/>
		<path id="Vector" d="M118.846 51.166C118.802 51.293 118.732 51.4082 118.639 51.5078C118.563 51.584 118.479 51.6543 118.388 51.7148C118.321 51.7617 118.25 51.8008 118.176 51.832L118.092 51.832L118.209 51.832C118.297 51.8574 118.381 51.8945 118.461 51.9395C118.574 51.998 118.68 52.0703 118.774 52.1582C118.883 52.2656 118.97 52.3926 119.031 52.5332C119.112 52.709 119.152 52.9004 119.148 53.0938C119.147 53.3164 119.096 53.5352 119 53.7344C118.903 53.9355 118.762 54.1113 118.589 54.25C118.153 54.5879 117.608 54.7539 117.057 54.7148C116.605 54.7188 116.16 54.6055 115.766 54.3828C115.626 54.3027 115.494 54.2109 115.369 54.1094C115.279 54.0352 115.195 53.9551 115.117 53.8672L115.045 53.7676L115.548 53.2617C115.587 53.3125 115.648 53.3809 115.727 53.4648C115.893 53.6152 116.081 53.7383 116.286 53.8281C116.537 53.9609 116.818 54.0312 117.102 54.0312C117.441 54.0547 117.778 53.9668 118.064 53.7832C118.166 53.709 118.248 53.6113 118.305 53.498C118.361 53.3848 118.39 53.2598 118.388 53.1328C118.39 53.0059 118.362 52.8809 118.304 52.7656C118.247 52.6523 118.162 52.5547 118.058 52.4824C117.774 52.2988 117.439 52.2129 117.102 52.2363L116.487 52.2363L116.487 51.5078L117.102 51.5078C117.381 51.5254 117.656 51.4355 117.874 51.2598C117.964 51.1895 118.036 51.0977 118.087 50.9941C118.137 50.8887 118.164 50.7754 118.164 50.6602C118.167 50.5527 118.143 50.4453 118.097 50.3477C118.05 50.25 117.981 50.166 117.896 50.0996C117.664 49.9375 117.384 49.8613 117.102 49.8809C116.859 49.8789 116.619 49.9316 116.398 50.0332C116.219 50.1016 116.055 50.207 115.917 50.3418L115.76 50.498L115.201 49.9375C115.251 49.8809 115.33 49.8086 115.425 49.7188C115.623 49.5762 115.839 49.459 116.068 49.3711C116.394 49.2207 116.749 49.1426 117.108 49.1465C117.592 49.125 118.067 49.2871 118.438 49.6016C118.663 49.7812 118.825 50.0293 118.902 50.3086C118.979 50.5859 118.968 50.8828 118.869 51.1543L118.846 51.166Z" fill="#222221" fill-opacity="1.000000" fill-rule="nonzero"/>
		<path id="Vector" d="M124.186 50.0059L121.39 50.0059L121.39 54.6602L120.607 54.6602L120.607 49.2773L124.186 49.2773L124.186 50.0059Z" fill="#222221" fill-opacity="1.000000" fill-rule="nonzero"/>
		<path id="Vector" d="M129.658 49.2773L129.658 54.6602L128.876 54.6602L128.876 50.0059L126.528 50.0059L126.528 50.8477C126.536 51.5098 126.497 52.1699 126.41 52.8262C126.365 53.2461 126.246 53.6543 126.058 54.0332C125.935 54.2598 125.756 54.4531 125.538 54.5938C125.326 54.7031 125.089 54.7578 124.851 54.75C124.758 54.7578 124.664 54.7578 124.571 54.75C124.502 54.7363 124.435 54.7148 124.37 54.6875L124.292 54.6875L124.292 53.9023C124.43 53.9746 124.583 54.0137 124.739 54.0156C124.84 54.0234 124.942 54.0098 125.038 53.9746C125.135 53.9414 125.223 53.8887 125.298 53.8184C125.481 53.5488 125.595 53.2363 125.628 52.9102C125.731 52.2383 125.776 51.5566 125.762 50.875L125.762 49.3047L129.658 49.2773Z" fill="#222221" fill-opacity="1.000000" fill-rule="nonzero"/>
		<path id="Vector" d="M131.649 49.7852C132.037 49.4355 132.547 49.252 133.069 49.2754L135.355 49.2754L135.355 54.6582L134.573 54.6582L134.573 52.8633L133.008 52.8633L131.889 54.6582L130.989 54.6582L132.219 52.6953L132.096 52.6562C132.004 52.6133 131.914 52.5645 131.828 52.5117C131.701 52.4336 131.588 52.3379 131.492 52.2246C131.378 52.084 131.288 51.9238 131.224 51.7539C131.138 51.5371 131.096 51.3047 131.101 51.0703C131.095 50.8281 131.141 50.5898 131.236 50.3672C131.33 50.1465 131.471 49.9473 131.649 49.7852ZM133.069 50.0039C132.756 49.9883 132.45 50.0957 132.214 50.3008C132.109 50.4004 132.027 50.5195 131.972 50.6504C131.917 50.7832 131.891 50.9258 131.895 51.0703C131.889 51.2129 131.914 51.3555 131.968 51.4883C132.022 51.6211 132.104 51.7402 132.208 51.8379C132.441 52.0469 132.746 52.1562 133.058 52.1465L134.562 52.1465L134.562 50.0156L133.069 50.0039Z" fill="#222221" fill-opacity="1.000000" fill-rule="nonzero"/>
		<path id="Vector" d="M142.12 56.0039L141.337 56.0039L141.337 54.6582L137.027 54.6582L137.027 56.0039L136.25 56.0039L136.25 53.9297L136.636 53.9297L136.736 53.8184C136.823 53.7031 136.901 53.584 136.971 53.459C137.083 53.2656 137.181 53.0625 137.262 52.8535C137.364 52.5723 137.441 52.2812 137.491 51.9844C137.558 51.6152 137.592 51.2383 137.592 50.8633L137.592 49.293L141.276 49.293L141.276 53.9473L142.12 53.9473L142.12 56.0039ZM138.375 50.8457C138.378 51.4141 138.303 51.9805 138.151 52.5293C138.055 52.9082 137.905 53.2734 137.704 53.6113L137.48 53.9238L140.499 53.9238L140.499 50L138.375 50L138.375 50.8457Z" fill="#222221" fill-opacity="1.000000" fill-rule="nonzero"/>
		<path id="Vector" d="M146.587 51.2402C146.595 51.0605 146.566 50.8828 146.501 50.7148C146.437 50.5488 146.338 50.3965 146.212 50.2695C146.086 50.1445 145.935 50.0449 145.768 49.9805C145.602 49.916 145.424 49.8848 145.245 49.8945C144.967 49.8926 144.693 49.9609 144.446 50.0898C144.236 50.1855 144.046 50.3203 143.887 50.4883L143.719 50.6777L143.216 50.1738L143.305 50.0625C143.344 50.0176 143.428 49.9395 143.557 49.8203C143.684 49.707 143.821 49.6035 143.965 49.5117C144.14 49.4062 144.328 49.3223 144.524 49.2656C144.753 49.1973 144.99 49.1602 145.229 49.1582C145.509 49.1504 145.789 49.1992 146.05 49.3027C146.312 49.4062 146.55 49.5605 146.749 49.7598C146.946 49.9512 147.102 50.1816 147.206 50.4355C147.309 50.6914 147.36 50.9648 147.353 51.2402L147.353 54.6602L146.57 54.6602L146.57 53.9316C146.551 53.9629 146.529 53.9941 146.503 54.0215C146.44 54.0938 146.371 54.1602 146.296 54.2227C146.191 54.3203 146.075 54.4082 145.95 54.4805C145.797 54.5684 145.634 54.6367 145.463 54.6816C145.26 54.7383 145.049 54.7676 144.837 54.7656C144.343 54.7812 143.861 54.6113 143.484 54.2891C143.316 54.1621 143.178 53.998 143.081 53.8105C142.985 53.6211 142.931 53.4141 142.925 53.2012C142.917 53.002 142.948 52.8047 143.017 52.6172C143.086 52.4297 143.192 52.2598 143.328 52.1133C143.646 51.8066 144.053 51.6113 144.491 51.5527L146.587 51.2402ZM146.101 53.5449C146.264 53.3711 146.391 53.168 146.475 52.9453C146.558 52.7227 146.597 52.4863 146.587 52.248L146.587 51.9121L144.742 52.248C144.077 52.377 143.736 52.6973 143.736 53.2012C143.733 53.3184 143.759 53.4336 143.811 53.5391C143.862 53.6426 143.938 53.7324 144.032 53.8027C144.271 53.9746 144.561 54.0586 144.854 54.043C145.085 54.0508 145.315 54.0098 145.529 53.9238C145.744 53.8379 145.938 53.709 146.101 53.5449Z" fill="#222221" fill-opacity="1.000000" fill-rule="nonzero"/>
		<path id="Vector" d="M156.253 56.0039L155.47 56.0039L155.47 54.6582L151.166 54.6582L151.166 56.0039L150.389 56.0039L150.389 53.9297L150.78 53.9297C150.811 53.8906 150.845 53.8535 150.881 53.8184C150.966 53.7051 151.043 53.584 151.11 53.459C151.225 53.2656 151.322 53.0645 151.401 52.8535C151.506 52.5723 151.582 52.2812 151.63 51.9844C151.697 51.6152 151.731 51.2383 151.73 50.8633L151.73 49.293L155.42 49.293L155.42 53.9473L156.259 53.9473L156.253 56.0039ZM152.508 50.8457C152.514 51.4141 152.439 51.9805 152.284 52.5293C152.191 52.9102 152.04 53.2754 151.837 53.6113L151.613 53.9238L154.632 53.9238L154.632 50L152.508 50L152.508 50.8457Z" fill="#222221" fill-opacity="1.000000" fill-rule="nonzero"/>
		<path id="Vector" d="M157.886 49.9707C158.137 49.7109 158.44 49.5039 158.775 49.3633C159.109 49.2227 159.469 49.1543 159.831 49.1582C160.192 49.1523 160.55 49.2227 160.883 49.3633C161.216 49.502 161.516 49.709 161.766 49.9707C162.279 50.5078 162.566 51.2227 162.566 51.9648C162.566 52.709 162.279 53.4219 161.766 53.959C161.516 54.2188 161.216 54.4258 160.883 54.5645C160.55 54.7031 160.192 54.7715 159.831 54.7656C159.469 54.7715 159.11 54.7031 158.775 54.5645C158.44 54.4258 158.138 54.2188 157.886 53.959C157.372 53.4219 157.085 52.709 157.085 51.9648C157.085 51.2227 157.372 50.5078 157.886 49.9707ZM161.207 50.4922C161.029 50.3047 160.815 50.1523 160.578 50.0508C160.341 49.9473 160.084 49.8945 159.826 49.8945C159.567 49.8945 159.311 49.9473 159.073 50.0508C158.836 50.1523 158.622 50.3047 158.445 50.4922C158.075 50.8926 157.869 51.4199 157.869 51.9648C157.869 52.5117 158.075 53.0371 158.445 53.4375C158.622 53.627 158.835 53.7773 159.073 53.8809C159.311 53.9844 159.567 54.0391 159.826 54.0391C160.085 54.0391 160.341 53.9844 160.578 53.8809C160.816 53.7773 161.03 53.627 161.207 53.4375C161.577 53.0352 161.783 52.5098 161.783 51.9629C161.783 51.416 161.577 50.8887 161.207 50.4883L161.207 50.4922Z" fill="#222221" fill-opacity="1.000000" fill-rule="nonzero"/>
		<path id="Vector" d="M169.956 50.0176L166.881 50.0176L166.881 54.6602L166.104 54.6602L166.104 49.2773L170.744 49.2773L170.744 54.6602L169.956 54.6602L169.956 50.0176Z" fill="#222221" fill-opacity="1.000000" fill-rule="nonzero"/>
		<path id="Vector" d="M172.919 49.9727C173.173 49.7148 173.475 49.5117 173.808 49.3711C174.141 49.2324 174.498 49.1602 174.859 49.1602C175.22 49.1602 175.577 49.2324 175.91 49.3711C176.243 49.5117 176.545 49.7148 176.799 49.9727C177.309 50.5098 177.593 51.2246 177.593 51.9668C177.593 52.707 177.309 53.4219 176.799 53.959C176.545 54.2148 176.242 54.418 175.909 54.5566C175.576 54.6953 175.219 54.7676 174.859 54.7676C174.499 54.7676 174.142 54.6953 173.809 54.5566C173.476 54.418 173.174 54.2148 172.919 53.959C172.406 53.4238 172.119 52.709 172.119 51.9668C172.119 51.2227 172.406 50.5078 172.919 49.9727ZM176.24 50.4941C176.063 50.3047 175.849 50.1543 175.611 50.0508C175.374 49.9473 175.118 49.8945 174.859 49.8945C174.6 49.8945 174.344 49.9473 174.107 50.0508C173.869 50.1543 173.656 50.3047 173.478 50.4941C173.108 50.8945 172.902 51.4199 172.902 51.9668C172.902 52.5117 173.108 53.0371 173.478 53.4375C173.653 53.6309 173.866 53.7852 174.104 53.8887C174.342 53.9941 174.599 54.0469 174.859 54.043C175.118 54.0449 175.375 53.9941 175.613 53.8906C175.851 53.7871 176.064 53.6348 176.24 53.4434C176.611 53.043 176.816 52.5156 176.816 51.9688C176.816 51.4219 176.611 50.8945 176.24 50.4941Z" fill="#222221" fill-opacity="1.000000" fill-rule="nonzero"/>
		<path id="Vector" d="M179.773 54.6602L178.991 54.6602L178.991 49.2773L179.773 49.2773L179.773 52.1484L182.451 49.2891L183.407 49.2891L181.339 51.4746L183.631 54.6719L182.737 54.6719L180.836 52.0352L179.773 53.1582L179.773 54.6602Z" fill="#222221" fill-opacity="1.000000" fill-rule="nonzero"/>
		<path id="Vector" d="M186.091 54.6602L183.933 49.2773L184.777 49.2773L186.51 53.6504L188.243 49.2773L189.082 49.2773L186.622 55.4453C186.469 55.8945 186.225 56.3066 185.906 56.6562C185.645 56.8984 185.3 57.0273 184.945 57.0156C184.828 57.0156 184.713 57.0059 184.598 56.9863C184.512 56.9766 184.428 56.9551 184.346 56.9258L184.274 56.9258L184.274 56.1914C184.452 56.2637 184.641 56.3027 184.833 56.3086C185.071 56.3027 185.3 56.2168 185.484 56.0645C185.667 55.9121 185.794 55.7012 185.845 55.4668L186.091 54.6602Z" fill="#222221" fill-opacity="1.000000" fill-rule="nonzero"/>
		<path id="Vector" d="M193.996 50.0176L190.921 50.0176L190.921 54.6602L190.144 54.6602L190.144 49.2773L194.784 49.2773L194.784 54.6602L193.996 54.6602L193.996 50.0176Z" fill="#222221" fill-opacity="1.000000" fill-rule="nonzero"/>
		<path id="Vector" d="M197.35 54.6602L196.568 54.6602L196.568 49.2773L197.35 49.2773L197.35 52.1484L200.028 49.2891L200.984 49.2891L198.916 51.4746L201.208 54.6719L200.313 54.6719L198.413 52.0352L197.35 53.1582L197.35 54.6602Z" fill="#222221" fill-opacity="1.000000" fill-rule="nonzero"/>
		<path id="Vector" d="M206.882 49.2773L206.882 54.6602L206.094 54.6602L206.094 50.623L202.852 54.6602L202.186 54.6602L202.186 49.2773L202.941 49.2773L202.941 53.3145L206.189 49.2773L206.882 49.2773Z" fill="#222221" fill-opacity="1.000000" fill-rule="nonzero"/>
		<path id="Vector" d="M47.0232 37.1875L49.5054 37.1875L54.4475 50.084L51.9038 50.084L50.9031 47.4258L45.6589 47.4258L44.6135 50.0781L42.0698 50.0781L47.0232 37.1875ZM48.281 40.6074L46.5591 45.0312L49.9973 45.0312L48.281 40.6074Z" fill="#FFFFFF" fill-opacity="1.000000" fill-rule="nonzero"/>
		<path id="Vector" d="M57.584 37.1875L59.9712 37.1875L62.9453 46.1582L65.9531 37.1875L68.3347 37.1875L70.4927 50.084L68.1279 50.084L66.7471 41.9434L64.0188 50.084L61.8608 50.084L59.1548 41.9434L57.7461 50.084L55.3477 50.084L57.584 37.1875Z" fill="#FFFFFF" fill-opacity="1.000000" fill-rule="nonzero"/>
	</g>
</svg>
