<svg width="89" height="89" viewBox="0 0 89 89" fill="none" xmlns="http://www.w3.org/2000/svg">
<path d="M15.082 41C13.149 41 11.582 42.567 11.582 44.5C11.582 46.433 13.149 48 15.082 48V44.5V41ZM75.071 46.9749C76.4378 45.608 76.4378 43.392 75.071 42.0251L52.7971 19.7513C51.4303 18.3844 49.2142 18.3844 47.8474 19.7513C46.4805 21.1181 46.4805 23.3342 47.8474 24.701L67.6464 44.5L47.8474 64.299C46.4805 65.6658 46.4805 67.8819 47.8474 69.2487C49.2142 70.6156 51.4303 70.6156 52.7971 69.2487L75.071 46.9749ZM15.082 44.5V48H72.5961V44.5V41H15.082V44.5Z" fill="#1C9B03"/>
<circle cx="44.5" cy="44.5" r="41" stroke="url(#paint0_linear_25_1240)" stroke-width="7"/>
<defs>
<linearGradient id="paint0_linear_25_1240" x1="44.5" y1="0" x2="44.5" y2="89" gradientUnits="userSpaceOnUse">
<stop stop-color="#003420"/>
<stop offset="1" stop-color="#009A5F"/>
</linearGradient>
</defs>
</svg>
