<svg width="19" height="15" viewBox="0 0 19 15" fill="none" xmlns="http://www.w3.org/2000/svg">
<path d="M17.9358 1.82996C18.3941 1.52188 18.516 0.900548 18.2079 0.442175C17.8998 -0.0161986 17.2785 -0.138037 16.8201 0.170042L17.3779 1L17.9358 1.82996ZM0.0184605 11.8155C-0.0878139 12.3575 0.265382 12.883 0.807344 12.9893L9.63915 14.7211C10.1811 14.8274 10.7066 14.4742 10.8129 13.9322C10.9192 13.3903 10.566 12.8648 10.024 12.7585L2.17351 11.2191L3.71293 3.36859C3.8192 2.82662 3.46601 2.30112 2.92404 2.19485C2.38208 2.08857 1.85658 2.44177 1.75031 2.98373L0.0184605 11.8155ZM17.3779 1L16.8201 0.170042L0.441947 11.178L0.999772 12.008L1.5576 12.8379L17.9358 1.82996L17.3779 1Z" fill="#CA0003"/>
</svg>
