<svg width="20" height="15" viewBox="0 0 20 15" fill="none" xmlns="http://www.w3.org/2000/svg">
<path d="M0.506218 12.2671C0.0259594 12.5398 -0.142294 13.1502 0.130414 13.6305C0.403122 14.1108 1.01352 14.279 1.49378 14.0063L1 13.1367L0.506218 12.2671ZM19.1242 3.65831C19.271 3.12588 18.9583 2.57529 18.4259 2.42853L9.74947 0.0369271C9.21704 -0.109834 8.66645 0.202811 8.51969 0.735239C8.37293 1.26767 8.68558 1.81826 9.218 1.96502L16.9304 4.09089L14.8045 11.8033C14.6577 12.3357 14.9704 12.8863 15.5028 13.033C16.0352 13.1798 16.5858 12.8672 16.7326 12.3347L19.1242 3.65831ZM1 13.1367L1.49378 14.0063L18.6539 4.26216L18.1602 3.39258L17.6664 2.52299L0.506218 12.2671L1 13.1367Z" fill="#EDD900"/>
</svg>
