<svg width="49" height="49" viewBox="0 0 49 49" fill="none" xmlns="http://www.w3.org/2000/svg">
<path d="M10.748 34.8869C10.4495 34.5821 10.3024 34.2185 10.3068 33.7962C10.3112 33.3738 10.4658 33.0134 10.7706 32.7148L19.6866 23.9824L11.0885 15.2036C10.79 14.8987 10.6429 14.5351 10.6473 14.1128C10.6517 13.6904 10.8063 13.33 11.1111 13.0314L13.5344 10.658C13.8697 10.3296 14.2333 10.1825 14.6252 10.2168C15.0476 10.2212 15.408 10.3758 15.7065 10.6806L24.3046 19.4594L32.992 10.9509C33.2968 10.6524 33.6604 10.5053 34.0828 10.5097C34.5051 10.5141 34.8656 10.6687 35.1641 10.9735L37.7615 13.6254C38.0899 13.9607 38.2369 14.3243 38.2027 14.7162C38.1983 15.1385 38.0437 15.499 37.7389 15.7975L29.0515 24.3061L37.6496 33.0849C37.9481 33.3897 38.0952 33.7533 38.0908 34.1757C38.1169 34.5682 37.9623 34.9286 37.627 35.257L35.2037 37.6304C34.8989 37.929 34.5353 38.0761 34.1129 38.0717C33.6906 38.0673 33.3301 37.9127 33.0316 37.6078L24.4335 28.829L15.5175 37.5615C15.2127 37.86 14.8491 38.0071 14.4267 38.0027C14.0342 38.0288 13.6738 37.8742 13.3454 37.5389L10.748 34.8869Z" fill="white"/>
</svg>
