<svg width="62" height="62" viewBox="0 0 62 62" fill="none" xmlns="http://www.w3.org/2000/svg">
<path fill-rule="evenodd" clip-rule="evenodd" d="M27.5295 29.0625C27.5786 29.0625 27.6282 29.0625 27.6786 29.0625H34.4704C36.0424 29.0625 36.9995 29.0622 37.8298 29.156C44.7164 29.9318 50.1515 35.3669 50.9275 42.2535C51.021 43.0838 51.021 44.0409 51.0208 45.6129V45.7619C51.0208 45.7984 51.0208 45.8345 51.0208 45.8699C51.021 46.4496 51.021 46.8963 50.9761 47.2954C50.6051 50.5892 48.0058 53.1885 44.712 53.5595C44.3129 53.6044 43.8662 53.6044 43.2868 53.6042C43.2512 53.6042 43.2152 53.6042 43.1786 53.6042H18.8214C18.7849 53.6042 18.7488 53.6042 18.7133 53.6042C18.1337 53.6044 17.6871 53.6044 17.2879 53.5595C13.9943 53.1885 11.3949 50.5892 11.0238 47.2954C10.9788 46.8963 10.979 46.4496 10.9791 45.8702C10.9791 45.8345 10.9792 45.7984 10.9792 45.7619C10.9792 45.7116 10.9791 45.662 10.9791 45.6129C10.9791 44.0409 10.979 43.0838 11.0726 42.2535C11.8485 35.3669 17.2835 29.9318 24.1702 29.156C25.0004 29.0622 25.9575 29.0625 27.5295 29.0625ZM27.6786 32.9375C25.9121 32.9375 25.1895 32.9406 24.6041 33.0065C19.5139 33.58 15.4967 37.5973 14.9232 42.6875C14.8572 43.2729 14.8542 43.9955 14.8542 45.7619C14.8542 46.5003 14.8572 46.7085 14.8745 46.8617C15.0431 48.3587 16.2247 49.5401 17.7218 49.7088C17.8747 49.7261 18.0832 49.7292 18.8214 49.7292H43.1786C43.9169 49.7292 44.1254 49.7261 44.2783 49.7088C45.7753 49.5401 46.957 48.3587 47.1256 46.8617C47.1427 46.7085 47.1458 46.5003 47.1458 45.7619C47.1458 43.9955 47.1427 43.2729 47.0768 42.6875C46.5033 37.5973 42.486 33.58 37.396 33.0065C36.8104 32.9406 36.0878 32.9375 34.3213 32.9375H27.6786Z" fill="white"/>
<path fill-rule="evenodd" clip-rule="evenodd" d="M30.9999 9.6875C27.7899 9.6875 25.1875 12.2898 25.1875 15.5C25.1875 18.7102 27.7899 21.3125 30.9999 21.3125C34.2103 21.3125 36.8124 18.7102 36.8124 15.5C36.8124 12.2898 34.2103 9.6875 30.9999 9.6875ZM21.3125 15.5C21.3125 10.1497 25.6497 5.8125 30.9999 5.8125C36.3503 5.8125 40.6874 10.1497 40.6874 15.5C40.6874 20.8503 36.3503 25.1875 30.9999 25.1875C25.6497 25.1875 21.3125 20.8503 21.3125 15.5Z" fill="white"/>
</svg>
