<svg width="261" height="400" viewBox="0 0 261 400" fill="none" xmlns="http://www.w3.org/2000/svg">
<path d="M80.8334 18.2316C84.682 23.6488 96.9326 42.953 99.8508 48.0908C101.569 51.1154 105.381 56.5272 108.678 60.8927M80.8334 18.2316C80.1047 17.2058 79.1459 15.8563 77.9954 14.2758M80.8334 18.2316C80.9806 20.7612 81.183 25.5094 81.1516 29.2965M77.9954 14.2758C73.07 7.50966 64.63 -3.48933 55.674 -11.4429C44.6259 -21.2544 38.9347 -26.6162 32.6656 -30.7311C26.3965 -34.8459 15.7734 -40.6742 13.8945 -41.8472C12.0156 -43.0203 -0.450046 -48.7932 0.742078 -50.0586C1.01592 -51.1939 3.54722 -52.9093 11.4817 -50.6888C19.551 -48.4306 32.9605 -37.5839 45.4827 -27.2316M77.9954 14.2758C77.4124 19.3289 75.7985 30.9242 74.0072 36.8798C71.7681 44.3243 67.6501 50.5958 61.7075 57.5369C55.765 64.478 49.1098 78.5104 46.6089 87.4997C45.1919 92.5931 42.1573 101.734 39.6678 109.025M80.9709 33.2892C80.4837 37.6073 77.0084 55.2326 73.3335 66.1015C69.6587 76.9704 63.7161 83.9115 61.052 87.3728C58.3878 90.8341 48.9415 104.028 37.0201 116.682C37.7094 114.718 38.6423 112.029 39.6678 109.025M80.9709 33.2892C81.0852 32.2758 81.1386 30.869 81.1516 29.2965M80.9709 33.2892C80.7901 37.282 76.1583 47.2662 72.2641 51.3996C68.3699 55.5331 65.6831 67.2537 64.514 71.662C63.3448 76.0704 54.801 83.8721 51.6315 91.0372C49.0959 96.7693 43.9562 102.317 41.7032 104.374M55.8732 -18.6226C55.2043 -19.1998 54.538 -19.7606 53.8754 -20.303C51.1743 -22.5137 48.3518 -24.8597 45.4827 -27.2316M55.8732 -18.6226C60.4444 -20.434 73.789 -16.1009 79.89 -13.7079C68.9689 -19.2198 63.6302 -23.0553 58.3459 -25.0481C54.1184 -26.6423 48.009 -27.1681 45.4827 -27.2316M55.8732 -18.6226C63.1866 -12.3118 70.7977 -4.05193 77.0452 3.24823M83.4799 10.9882C86.1099 14.242 88.182 16.9184 89.4506 18.5873C93.4501 23.8489 103.561 40.6791 109.247 50.1538M83.4799 10.9882C88.7399 13.218 100.145 18.5117 103.686 21.8479C108.113 26.0182 115.051 31.9572 122.846 35.7188C123.783 36.1711 124.786 36.5902 125.835 36.9806M83.4799 10.9882C83.1216 10.5449 82.753 10.091 82.3747 9.6274M157.843 3.00616C155.719 2.89329 153.293 2.8911 150.61 2.99828M157.843 3.00616C146.564 12.4438 124.303 19.3961 114.583 21.6925M157.843 3.00616C162.583 3.25804 170.226 3.29612 176.089 3.91047M77.0452 3.24823C85.4054 9.44688 91.4098 12.0733 95.7093 11.9441C99.364 11.8342 109.826 9.07648 120.77 6.88189M77.0452 3.24823C78.9668 5.49364 80.7594 7.64824 82.3747 9.6274M219.438 32.9712C221.922 32.0346 224.448 31.1696 226.891 30.439C236.032 27.7051 242.941 22.2718 244.133 21.0065C236.01 23.9878 228.997 22.4591 224.399 20.4149M219.438 32.9712C212.63 35.5393 206.147 38.6466 202.613 41.0052C201.795 41.5509 200.88 42.0908 199.878 42.608M219.438 32.9712C207.511 35.1396 194.383 34.2953 183.744 33.0707M108.844 19.5411C110.326 23.5422 120.789 32.8346 125.835 36.9806M108.844 19.5411C108.222 19.269 107.496 18.9739 106.689 18.6606M108.844 19.5411C109.842 19.9779 110.945 20.4115 112.124 20.8399M82.3747 9.6274C85.3903 11.1523 91.7129 13.3393 97.6721 15.4155M109.62 295.548C103.456 289.741 100.506 281.753 97.0421 275.324M109.62 295.548C107.074 282.202 101.89 254.468 101.521 250.299C101.152 246.129 93.7264 224.644 90.06 214.422M109.62 295.548C109.961 293.044 110.671 290.529 111.631 288.046M111.648 64.7092C112.648 65.946 113.458 66.8821 113.944 67.3396C116.157 69.4247 125.373 90.0497 127.641 93.9775C129.908 97.9053 138.401 114.863 141.319 120.001C142.62 122.291 144.66 124.803 146.996 127.278M111.648 64.7092C112.064 67.6457 112.695 75.0002 111.886 80.9263C110.876 88.3339 116.207 102.313 118.547 108.698C120.887 115.083 134.791 138.333 139.345 146.803C143.487 154.507 147.002 175.455 147.204 189.139M111.648 64.7092C111.224 64.1852 110.766 63.6072 110.285 62.9887M111.648 64.7092C106.897 83.0546 111.347 104.304 113.598 109.517C115.848 114.73 127.123 138.871 132.588 147.006C136.961 153.514 144.154 177.806 147.204 189.139M59.1502 189.481C57.616 199.978 59.6323 216.209 61.9544 221.98C63.2733 225.257 64.6624 230.912 65.9261 236.135M59.1502 189.481C63.9634 175.247 78.7853 141.089 99.5667 118.324M59.1502 189.481C59.6673 185.943 60.1342 181.881 60.6465 177.754M108.678 60.8927C108.093 67.2153 102.113 83.0644 99.838 89.2805C99.3838 90.5214 98.5523 92.2637 97.4728 94.3249M108.678 60.8927C109.232 61.6264 109.772 62.3305 110.285 62.9887M63.4714 160.71C63.9041 159.001 64.3849 157.448 64.9267 156.11C65.8992 153.71 67.3136 150.418 68.9509 146.765M63.4714 160.71C60.5278 164.506 51.9584 174.943 41.2292 186.331C30.4999 197.72 21.7239 202.389 18.677 203.301C22.9176 198.8 26.2834 193.947 29.0603 189.198M63.4714 160.71C62.2356 165.592 61.3928 171.743 60.6465 177.754M63.4714 160.71C66.9944 153.847 75.8771 138.962 88.3074 123.202M85.1918 115.49C79.4761 121.45 66.9558 131.151 57.4188 141.274C52.5132 146.481 50.1789 150.635 48.3386 154.216M85.1918 115.49C89.5594 111.027 99.4573 101.292 104.107 98.0519M85.1918 115.49C87.374 111.868 89.8294 107.789 92.1132 103.88M85.1918 115.49C84.0208 117.433 82.9284 119.244 81.9834 120.827M195.993 399.613C198.915 393.31 198.31 385.804 195.135 378.353M195.993 399.613C198.451 395.92 203.746 388.726 210.458 381.153M195.993 399.613C206.725 375.589 211.403 353.513 213.036 337.446M222.744 368.685C221.069 370.185 219.422 371.747 217.818 373.341M222.744 368.685C222.85 357.639 221.051 331.143 213.003 313.53M222.744 368.685C224.458 367.15 226.115 365.516 227.712 363.812M168.117 173.91C175.073 180.463 189.933 194.463 193.727 198.038C194.757 199.007 196.173 200.342 197.853 201.894M168.117 173.91C162.587 161.535 158.787 144.115 157.578 136.951M168.117 173.91L146.996 127.278M168.117 173.91C168.904 176.058 169.651 178.239 170.347 180.447M157.578 136.951C162.712 141.147 168.944 145.832 173.813 148.226C174.583 148.604 175.419 149 176.287 149.401M157.578 136.951C157.121 136.578 156.672 136.208 156.234 135.844C153.265 133.378 149.902 130.357 146.996 127.278M165.51 272.965C167.666 252.306 172.028 243.876 174.889 226.269C177.025 213.124 175.551 199.574 172.163 186.719M165.51 272.965C164.054 286.913 164.966 300.37 166.608 312.343M165.51 272.965C167.779 266.545 172.829 252.274 174.874 246.556C177.429 239.41 184.936 220.74 183.548 217.077M202.852 142.742C207.75 162.882 218.013 177.328 227.68 192.406C235.413 204.469 258.888 222.206 269.659 229.567C268.8 227.557 268.063 225.603 267.421 223.707M202.852 142.742C203.609 142.932 204.482 143.153 205.451 143.399M202.852 142.742C197.716 141.644 194.627 138.934 191.965 135.927M277.019 145.737C281.47 146.587 291.676 149.395 296.223 150.693C294.809 149.195 292.623 146.712 290.251 143.728M277.019 145.737C273.85 145.132 265.811 148.463 256.958 150.723M277.019 145.737C272.224 144.406 264.232 142.102 256.459 139.687M280.847 129.638C281.509 130.945 282.263 132.276 283.077 133.606M280.847 129.638C276.008 128.862 264.25 127.617 255.926 128.851C245.52 130.393 233.325 131.302 228.403 128.925M280.847 129.638C279.834 127.643 278.628 125.712 277.32 123.879M248.099 92.8149C249.661 93.9475 251.011 95.0368 252.186 96.0782M248.099 92.8149C238.069 93.0645 216.727 93.9407 211.599 95.4492C205.188 97.3349 193.579 99.3722 188.665 99.5199C186.419 99.5875 182.217 99.1366 178.195 98.5979M248.099 92.8149C246.792 91.868 245.486 90.9298 244.179 90.0075M145.297 77.7701C137.113 71.2537 129.787 62.5599 124.15 59.0408C119.64 56.2255 112.335 51.9431 109.247 50.1538M145.297 77.7701C146.361 78.6548 147.581 79.6606 148.923 80.7547M145.297 77.7701C145.895 76.7378 146.963 75.1311 148.28 73.5557M165.616 110.049C167.041 112.055 168.748 114.005 170.593 115.876M165.616 110.049C165.589 105.432 165.099 95.3939 163.357 92.1756M165.616 110.049C163.806 107.501 162.028 104.604 160.447 101.599M154.763 85.4603C155.312 90.2075 157.547 96.0846 160.447 101.599M154.763 85.4603C155.434 85.9948 156.119 86.5373 156.813 87.0853M154.763 85.4603C159.278 82.778 169.388 77.4088 173.703 77.391C179.097 77.3686 193.403 75.487 199.627 71.4149M154.763 85.4603C153.707 84.62 152.684 83.7995 151.702 83.0082M109.247 50.1538C110.38 52.0431 111.338 53.6399 112.037 54.7942C114.796 59.3548 118.323 67.4728 122.211 74.1956M220.355 147.256C226.195 148.795 232.297 150.441 237.24 151.852C239.967 152.63 242.97 152.81 246.076 152.609M220.355 147.256C222.168 148.964 225.041 151.67 228.116 154.568M220.355 147.256C219.963 147.153 219.572 147.05 219.182 146.947M197.148 251.42C196.896 250.913 196.568 250.192 196.175 249.285M197.148 251.42C194.801 262.146 189.081 286.335 184.978 297.278C180.875 308.221 179.644 332.445 179.541 343.189M197.148 251.42C197.468 252.061 197.837 252.952 198.247 254.054M172.163 186.719C176.732 192.005 187.38 203.762 193.422 208.498C199.463 213.234 211.794 216.87 217.204 218.096M172.163 186.719C185.893 202.552 201.42 209.132 207.467 210.443M172.163 186.719C171.607 184.608 170.999 182.516 170.347 180.447M172.163 186.719C174.743 193.68 178.378 203.411 182.098 213.249M97.0421 275.324C95.5302 272.518 93.9206 270.009 91.9032 268.109C90.7974 267.067 89.4577 265.904 87.9851 264.666M97.0421 275.324C94.1984 260.513 92.3856 245.575 91.245 232.066M110.285 62.9887C110.039 67.216 108.64 75.4281 106.913 84.3047M176.287 149.401C180.201 151.21 184.771 153.121 186.893 153.98C185.33 153.105 175.194 142.959 171.96 137.523C169.083 132.687 165.233 127.881 161.079 123.733M176.287 149.401C175.163 148.262 174.101 147.057 173.1 145.815M161.079 123.733C160.564 123.218 160.044 122.714 159.52 122.22C154.778 117.752 153.422 113.49 149.89 108.37C148.437 106.265 145.639 102.589 142.407 98.5755M161.079 123.733C161.443 124.748 162.091 126.476 163.025 128.636M87.9851 264.666C87.7915 257.903 88.1726 241.915 91.245 232.066M87.9851 264.666C86.5178 263.432 84.9185 262.123 83.2867 260.784M91.245 232.066C90.9531 228.607 90.7051 225.243 90.4953 221.998M83.2867 260.784C83.2749 253.343 84.7001 235.168 90.4953 221.998M83.2867 260.784C81.6112 259.409 79.9016 258.002 78.2655 256.612M90.4953 221.998C90.3267 219.391 90.1826 216.861 90.06 214.422M78.2655 256.612C78.5495 248.286 81.2712 227.449 89.8861 210.703M78.2655 256.612C77.0081 255.543 75.7942 254.484 74.6728 253.457M89.8861 210.703C89.5862 203.767 89.4602 197.689 89.427 192.819M89.8861 210.703C89.9386 211.917 89.9964 213.157 90.06 214.422M74.6728 253.457C71.5373 250.585 69.1248 247.961 68.5061 246.066C67.7761 243.83 66.8874 240.108 65.9261 236.135M74.6728 253.457C76.0868 238.864 81.0171 206.307 89.427 192.819M89.427 192.819C89.4063 189.775 89.4218 187.203 89.4538 185.189C89.523 180.834 90.3869 173.209 91.609 164.528M89.427 192.819C90.8904 198.868 99.6856 230.708 102.052 237.065C103.945 242.151 109.227 273.171 111.631 288.046M65.9261 236.135C69.2699 219.492 79.0877 181.872 91.609 164.528M91.609 164.528C91.8741 162.645 92.1561 160.713 92.4504 158.753M99.5667 118.324C99.7335 117.559 99.8861 116.889 100.022 116.325C100.291 115.212 100.615 113.829 100.981 112.235M99.5667 118.324C99.294 119.575 98.9832 121.079 98.6437 122.789M78.0304 127.851C79.0284 125.948 79.9803 124.213 80.8468 122.741C81.1945 122.151 81.5752 121.51 81.9834 120.827M78.0304 127.851C84.7441 120.641 99.1657 105.486 103.142 102.545M78.0304 127.851C77.5315 128.802 77.021 129.796 76.5039 130.82M103.142 102.545C102.959 103.388 102.778 104.215 102.601 105.02M103.142 102.545C103.267 101.969 103.394 101.385 103.521 100.794M104.107 98.0519C104.521 96.104 104.94 94.1037 105.354 92.0887M104.107 98.0519C103.91 98.9792 103.715 99.8947 103.521 100.794M92.1132 103.88C94.8032 101.113 101.217 94.8793 105.354 92.0887M92.1132 103.88C94.1378 100.415 96.0276 97.0843 97.4728 94.3249M105.354 92.0887C105.888 89.4919 106.414 86.8705 106.913 84.3047M105.354 92.0887C104.929 101.203 106.877 109.049 106.374 111.099C105.871 113.149 119.822 146.62 128.317 158.508C135.114 168.018 141.365 193.193 143.641 204.592M97.4728 94.3249C99.4015 93.1223 103.99 89.4347 106.913 84.3047M60.6465 177.754C64.9044 165.698 78.9324 135.716 100.981 112.235M100.981 112.235C101.333 110.704 101.723 108.978 102.139 107.109M102.139 107.109C97.1662 112.388 92.5319 117.845 88.3074 123.202M102.139 107.109C102.29 106.431 102.444 105.734 102.601 105.02M72.2026 139.677C75.3983 135.522 83.0932 126.41 88.3074 123.202M72.2026 139.677C71.0678 142.094 69.9665 144.499 68.9509 146.765M72.2026 139.677C73.6182 136.662 75.0858 133.627 76.5039 130.82M29.0603 189.198C39.4814 179.112 62.0491 156.504 68.9509 146.765M29.0603 189.198C32.6796 183.008 35.2983 176.995 37.5489 172.168M37.5489 172.168C39.3969 168.204 40.9967 165.04 42.6985 163.233C45.3037 160.468 46.601 157.597 48.3386 154.216M37.5489 172.168C45.3733 165.741 64.1183 148.473 76.5039 130.82M48.3386 154.216C52.5234 151.192 65.1111 140.281 81.9834 120.827M39.6678 109.025C40.2736 107.629 40.958 106.064 41.7032 104.374M81.1516 29.2965C78.7196 36.3123 68.7323 53.248 62.6933 61.5584C58.379 67.4955 47.9234 90.2734 41.7032 104.374M111.631 288.046C113.088 284.277 115.12 280.584 117.311 277.118M117.311 277.118C115.808 260.774 111.69 225.485 107.243 215.085C101.683 202.085 91.973 161.886 92.4504 158.753M117.311 277.118C118.269 275.602 119.258 274.13 120.242 272.714M92.4504 158.753C93.1964 153.787 94.0219 148.647 94.8546 143.701M120.242 272.714C118.649 256.086 114.594 220.458 111.117 210.973C106.771 199.115 93.2521 152.94 94.8546 143.701M120.242 272.714C121.464 270.956 122.679 269.285 123.821 267.726M94.8546 143.701C95.3923 140.507 95.933 137.395 96.4571 134.463M123.821 267.726C126.467 264.111 128.719 261.094 129.748 258.979C131.446 255.491 132.047 250.292 132.59 245.533M123.821 267.726C123.431 250.639 121.559 214.839 117.187 208.331C111.721 200.196 104.094 170.916 102.088 165.444C100.082 159.971 96.4571 134.463 96.4571 134.463M96.4571 134.463C96.9981 131.436 97.5215 128.601 98.0058 126.067M132.59 245.533C133.066 241.355 133.498 237.517 134.587 235.472C134.849 234.98 135.169 234.482 135.528 233.971M132.59 245.533C128.483 230.318 119.632 198.812 117.086 194.502C113.903 189.115 101.568 158.84 101.331 154.21C101.093 149.579 96.9631 131.352 98.0058 126.067M98.0058 126.067C98.2273 124.908 98.4406 123.811 98.6437 122.789M135.528 233.971C131.82 220.126 123.119 190.632 117.987 183.409C111.573 174.38 98.4775 127.966 98.6437 122.789M135.528 233.971C136.897 232.021 138.829 229.87 140.241 227.066M140.241 227.066C141.752 224.068 142.67 220.323 141.675 215.279C141.368 213.725 141.248 212.429 141.267 211.313M140.241 227.066C138.477 218.759 133.484 199.141 127.626 187.115C120.302 172.083 103.194 130.062 103.347 124.831C103.5 119.601 102.588 110.872 102.601 105.02M141.267 211.313C137.114 199.239 127.964 173.58 124.588 167.534C120.369 159.976 112.509 134.738 108.61 126.844C105.49 120.529 103.917 106.846 103.521 100.794M141.267 211.313C141.321 208.283 142.41 206.57 143.641 204.592M143.641 204.592C145.167 202.137 146.911 199.275 147.164 192.983C147.212 191.787 147.224 190.498 147.204 189.139M195.135 378.353C194.541 376.96 193.857 375.568 193.09 374.188C191.817 371.894 189.781 368.719 187.416 365.007M195.135 378.353C196.421 367.274 200.143 342.376 204.737 331.418C209.331 320.46 211.604 311.614 212.165 308.561M195.135 378.353C196.89 346.716 201.07 332.143 204.239 324.978C207.409 317.813 210.868 307.339 211.174 303.447M195.135 378.353C191.678 347.18 195.913 334.45 198.413 325.461C200.914 316.472 203.063 305.956 203.83 300.707C204.443 296.509 207.225 292.76 208.539 291.41M212.165 308.561C211.87 306.948 211.538 305.235 211.174 303.447M212.165 308.561C212.494 310.353 212.776 312.021 213.003 313.53M211.174 303.447C216.432 308.401 217.055 311.376 218.745 316.55C219.975 320.317 225.584 349.467 227.712 363.812M211.174 303.447C210.718 301.202 210.214 298.838 209.674 296.405M208.539 291.41C206.596 283.049 204.356 274.297 202.303 267.024M208.539 291.41C208.931 293.096 209.31 294.766 209.674 296.405M187.416 365.007C186.312 359.978 184.786 351.736 183.829 343.476M187.416 365.007C185.849 362.547 184.138 359.851 182.409 357.019M200.364 260.421C200.899 262.132 197.224 274.778 195.581 281.59C194.164 287.465 188.253 303.765 184.928 316.472M200.364 260.421C200.979 262.42 201.631 264.643 202.303 267.024M200.364 260.421C199.786 258.54 199.24 256.858 198.742 255.43M183.829 343.476C182.895 335.421 182.501 327.349 183.563 322.219C183.933 320.432 184.398 318.498 184.928 316.472M183.829 343.476C185.161 335.937 188.964 317.753 193.515 305.321C199.204 289.781 202.768 268.656 202.303 267.024M182.409 357.019C176.773 347.791 170.946 337.123 169.302 328.488C168.356 323.523 167.397 318.105 166.608 312.343M182.409 357.019C181.543 353.792 180.457 348.898 179.541 343.189M196.175 249.285C194.766 253.737 191.436 264.071 189.392 269.788C186.837 276.935 182.037 288.536 178.567 309.152C176.777 319.785 177.879 332.829 179.541 343.189M196.175 249.285C195.274 247.207 194.03 244.149 192.564 240.449M184.928 316.472C187.435 297.204 191.859 285.25 193.958 275.882C195.638 268.388 197.847 259.124 198.742 255.43M198.742 255.43C198.571 254.941 198.406 254.481 198.247 254.054M166.608 312.343C168.654 301.092 173.418 276.355 176.105 267.421C178.792 258.488 184.689 236.695 187.301 226.915M187.301 226.915C187.604 227.704 187.905 228.485 188.202 229.257M187.301 226.915C186.657 225.236 186.001 223.52 185.338 221.782M183.548 217.077C184.147 218.655 184.745 220.227 185.338 221.782M183.548 217.077C183.065 215.803 182.581 214.525 182.098 213.249M217.204 218.096C218.346 218.901 219.455 219.638 220.512 220.286C229.59 225.854 242.888 238.979 247.071 245.308C250.406 250.355 256.052 267.452 255.932 281.721M217.204 218.096C214.079 215.894 210.703 213.188 207.467 210.443M207.467 210.443C203.925 207.438 200.549 204.385 197.853 201.894M197.853 201.894C192.921 200.395 180.515 194.007 170.347 180.447M210.458 381.153C212.133 371.93 214.994 350.278 213.036 337.446M210.458 381.153C212.763 378.551 215.236 375.905 217.818 373.341M213.036 337.446C213.541 332.484 213.755 328.096 213.767 324.4M217.818 373.341C218.409 363.634 218.428 340.256 213.767 324.4M213.767 324.4C213.774 322.06 213.701 319.997 213.569 318.243C213.472 316.946 213.278 315.355 213.003 313.53M227.712 363.812C228.108 363.389 228.5 362.963 228.889 362.532M228.889 362.532C228.049 349.997 225.44 322.62 221.725 313.387C218.01 304.154 212.143 298.218 209.674 296.405M228.889 362.532C233.897 356.981 238.277 350.796 241.915 344.948M241.915 344.948C239.84 334.235 234.882 311.332 231.649 305.419C227.607 298.029 221.469 289.857 217.778 281.603C214.087 273.349 203.76 258.338 198.247 254.054M241.915 344.948C245.254 339.579 247.968 334.493 249.969 330.442M249.969 330.442C251.01 328.334 251.858 326.506 252.5 325.064C252.999 323.945 253.405 322.508 253.732 320.851M249.969 330.442C246.823 319.581 239.276 296.278 234.25 289.957C227.968 282.054 221.683 270.354 218.205 267.078C214.727 263.801 203.923 251.831 202.974 250.937C202.026 250.043 194.241 243.736 192.564 240.449M192.564 240.449C191.257 237.15 189.774 233.34 188.202 229.257M253.732 320.851C255.375 312.542 255.052 298.71 254.592 291.804C254.826 291.025 255.026 290.219 255.196 289.387M253.732 320.851C250.264 312.408 242.92 294.184 241.286 288.823C239.244 282.122 226.524 267.75 221.782 263.282C217.039 258.814 210.083 252.26 205.657 248.09C201.23 243.92 197.436 240.345 196.135 237.925C195.094 235.989 190.413 231.34 188.202 229.257M255.196 289.387C252.35 283.92 245.078 271.495 238.754 265.538C230.85 258.091 223.839 249.695 218.835 246.772C213.831 243.848 208.823 239.661 204.732 237.035C200.642 234.408 195.446 231.305 193.424 229.4C191.806 227.876 187.359 223.686 185.338 221.782M255.196 289.387C255.682 286.999 255.909 284.41 255.932 281.721M255.932 281.721C249.718 268.701 233.18 253.718 229.087 250.459C224.995 247.201 215.582 240.722 210.596 238.413C205.61 236.103 197.769 230.475 194.931 227.801C192.093 225.127 183.767 217.67 182.098 213.249M173.1 145.815C165.456 140.414 148.29 126.155 140.785 112.332C133.279 98.5083 125.275 81.1479 122.211 74.1956M173.1 145.815C170.915 143.103 169.022 140.211 167.419 137.424M122.211 74.1956C124.243 77.7083 126.373 80.8401 128.543 82.8846C129.701 83.9756 131.032 85.3501 132.456 86.899M167.419 137.424C162.799 134.465 152.649 126.853 149.006 120.077C145.363 113.302 136.455 95.1352 132.456 86.899M167.419 137.424C165.569 134.209 164.106 131.134 163.025 128.636M132.456 86.899C135.61 90.3298 139.219 94.6167 142.407 98.5755M163.025 128.636C160.231 126.956 153.922 122.081 151.038 116.02C148.154 109.959 144.082 101.865 142.407 98.5755M263.936 210.303C262.343 202.475 261.424 196.071 258.074 191.185C252.292 182.752 245.19 170.653 238.866 164.696C237.529 163.435 235.888 161.89 234.124 160.227M263.936 210.303C258.415 203.954 246.627 189.238 243.639 181.168C240.651 173.098 236.05 163.845 234.124 160.227M263.936 210.303C264.365 212.415 264.844 214.631 265.433 216.948M234.124 160.227C232.192 158.408 230.111 156.448 228.116 154.568M265.433 216.948C260.304 211.412 248.614 197.679 242.89 187.031C237.166 176.383 230.656 160.952 228.116 154.568M265.433 216.948C265.983 219.113 266.629 221.366 267.421 223.707M267.421 223.707C265.698 222.619 263.017 220.7 259.679 217.988M205.451 143.399C208.793 152.227 219.1 174.274 233.59 191.834C238.337 197.587 243.042 202.636 247.408 206.941M205.451 143.399C206.689 143.713 208.083 144.069 209.592 144.457M247.408 206.941C243.492 201.713 238.063 194.162 232.52 185.941M247.408 206.941C251.986 211.457 256.192 215.155 259.679 217.988M209.592 144.457C212.053 153.929 222.473 171.037 232.52 185.941M209.592 144.457C210.214 144.616 210.855 144.781 211.513 144.951M232.52 185.941C226.784 174.734 215.224 151.021 214.872 145.821M214.872 145.821C213.717 145.52 212.593 145.23 211.513 144.951M214.872 145.821C215.503 145.985 216.144 146.152 216.792 146.321M259.679 217.988C253.515 210.518 239.619 192.07 233.347 178.04C227.076 164.011 221.291 151.466 219.182 146.947M219.182 146.947C218.377 146.736 217.579 146.527 216.792 146.321M191.965 135.927C189.735 133.408 187.804 130.681 185.219 128.518C183.641 127.197 181.82 125.741 179.905 124.171M191.965 135.927C188.922 129.021 182.669 113.233 182.002 105.326M182.002 105.326C182.695 105.737 183.347 106.105 183.951 106.424C184.693 106.816 185.52 107.252 186.421 107.724M182.002 105.326C180.157 104.232 178.02 102.834 175.708 101.237M179.905 124.171C178.42 117.462 174.999 103.13 173.193 99.472M179.905 124.171C178.279 122.839 176.584 121.425 174.91 119.943M173.193 99.472C172.264 98.8098 171.314 98.1238 170.352 97.42M173.193 99.472C174.05 100.082 174.89 100.672 175.708 101.237M174.91 119.943C174.341 113.539 172.632 100.068 170.352 97.42M174.91 119.943C173.435 118.637 171.975 117.279 170.593 115.876M170.352 97.42C172.266 97.741 175.18 98.1941 178.195 98.5979M170.352 97.42C170.001 97.1632 169.648 96.904 169.294 96.6427M170.593 115.876C170.155 109.471 168.79 96.2908 166.838 94.8152M166.838 94.8152C165.681 93.9466 164.517 93.0635 163.357 92.1756M166.838 94.8152C167.661 95.4329 168.481 96.0433 169.294 96.6427M163.357 92.1756C162.662 91.6437 161.969 91.1102 161.28 90.577M160.447 101.599C160.559 98.7347 160.538 92.2533 159.558 89.2393M159.558 89.2393C160.128 89.6841 160.703 90.1305 161.28 90.577M159.558 89.2393C164.686 86.9634 177.761 82.081 189.033 80.7585C200.306 79.436 209.095 76.1461 212.08 74.6665M159.558 89.2393C158.63 88.5155 157.713 87.7958 156.813 87.0853M211.513 144.951C201.055 136.414 199.292 128.15 197.131 125.376C194.97 122.602 189.778 118.219 186.421 107.724M186.421 107.724C187.267 108.168 188.177 108.644 189.144 109.148M216.792 146.321C213.947 144.694 207.56 140.152 204.775 134.999C201.294 128.559 197.714 120.322 196.162 116.902C194.921 114.165 192.034 111.148 190.746 109.982M190.746 109.982C192.174 110.724 193.701 111.515 195.304 112.342M190.746 109.982C190.197 109.696 189.662 109.418 189.144 109.148M246.076 152.609C242.375 151.047 233.76 146.423 228.911 140.421C223.72 133.997 221.849 128.228 218.174 124.579M246.076 152.609C247.796 152.498 249.547 152.269 251.3 151.961M216.148 122.928C219.283 124.49 222.352 126.003 225.226 127.396M216.148 122.928C216.89 123.414 217.557 123.966 218.174 124.579M216.148 122.928C215.034 122.373 213.912 121.812 212.787 121.247M251.3 151.961C247.824 150.543 239.764 146.662 235.326 142.481C229.778 137.255 229.42 131.347 225.226 127.396M251.3 151.961C253.197 151.627 255.095 151.198 256.958 150.723M225.226 127.396C226.315 127.924 227.376 128.435 228.403 128.925M256.958 150.723C253.625 149.772 245.631 146.62 240.319 141.615C233.679 135.36 235.577 135.89 231.71 130.487M231.71 130.487C232.805 130.998 233.843 131.476 234.811 131.913M231.71 130.487C230.658 129.996 229.552 129.473 228.403 128.925M290.251 143.728C281.718 142.228 263.013 139.319 256.459 139.687M290.251 143.728C289.289 142.517 288.296 141.224 287.312 139.88M256.459 139.687C253.126 138.651 249.833 137.594 246.849 136.585M287.312 139.88L246.849 136.585M287.312 139.88C286.621 138.936 285.934 137.967 285.265 136.985M246.849 136.585C245.25 136.044 243.741 135.517 242.361 135.013M285.265 136.985L242.361 135.013M285.265 136.985C284.506 135.871 283.77 134.739 283.077 133.606M242.361 135.013C241.066 134.541 239.886 134.089 238.855 133.667C237.711 133.199 236.348 132.607 234.811 131.913M283.077 133.606C272.602 133.642 248.285 133.353 234.811 131.913M277.32 123.879C268.881 122.912 250.724 121.323 245.601 122.706C239.197 124.436 222.035 124.281 218.174 124.579M277.32 123.879C276.02 122.058 274.619 120.333 273.209 118.741M273.209 118.741C265.498 118.483 248.486 118.259 242.125 119.432C234.174 120.898 228.038 122.534 212.787 121.247M273.209 118.741C271.89 117.253 270.564 115.88 269.303 114.651M212.787 121.247C210.788 120.244 208.78 119.23 206.797 118.224M269.303 114.651C266.272 111.695 263.625 109.572 262.399 108.676C261.756 108.206 261.234 107.54 260.681 106.699M269.303 114.651C262.526 114.16 246.906 113.774 238.645 116.153C228.318 119.127 216.524 120.509 206.797 118.224M206.797 118.224C202.777 116.185 198.856 114.176 195.304 112.342M260.681 106.699C253.955 106.508 238.434 106.892 230.162 109.953C221.89 113.014 203.477 112.821 195.304 112.342M260.681 106.699C259.961 105.601 259.189 104.205 258.029 102.551M258.029 102.551C249.562 102.031 226.238 107.783 219.386 109.355C213.905 110.612 196.941 109.74 189.144 109.148M258.029 102.551C256.729 100.696 254.939 98.519 252.186 96.0782M252.186 96.0782C241.447 96.2855 218.604 97.1357 213.143 98.8777C206.317 101.055 182.897 103.257 175.708 101.237M244.179 90.0075C234.687 90.4684 214.391 91.7393 209.143 93.136C202.584 94.882 191.462 98.4286 178.195 98.5979M244.179 90.0075C242.684 88.9531 241.187 87.9196 239.685 86.9178M239.685 86.9178C229.258 88.1067 207.606 90.7214 204.417 91.6692C200.431 92.8538 178.234 98.8267 169.294 96.6427M239.685 86.9178C232.932 82.4133 226.081 78.55 218.882 76.3161M161.28 90.577C165.865 88.879 176.929 85.1184 184.508 83.661C193.983 81.8392 211.481 80.3707 218.882 76.3161M218.882 76.3161C217.296 75.824 215.693 75.411 214.071 75.0876C213.42 74.9579 212.756 74.8171 212.08 74.6665M212.08 74.6665C210.07 74.2189 207.955 73.686 205.789 73.1096M205.789 73.1096C201.132 75.5178 189.174 80.3557 178.59 80.4412C168.005 80.5268 159.662 84.9062 156.813 87.0853M205.789 73.1096C203.766 72.5714 201.698 71.9952 199.627 71.4149M199.627 71.4149C198.365 71.0614 197.103 70.7064 195.848 70.3575M195.848 70.3575C191.679 72.0366 181.803 75.3798 175.655 75.3195C169.506 75.2592 157.124 80.4202 151.702 83.0082M195.848 70.3575C193.747 69.7729 191.669 69.2054 189.66 68.691M151.702 83.0082C150.731 82.2253 149.801 81.4711 148.923 80.7547M148.923 80.7547C152.815 78.9917 162.005 75.239 167.634 74.3321C174.671 73.1984 187.036 71.4756 189.66 68.691M189.66 68.691C187.429 68.1199 185.283 67.6142 183.282 67.2231M183.282 67.2231C180.663 66.7109 178.294 66.3953 176.314 66.3865C175.016 66.3808 173.7 66.3952 172.384 66.43M183.282 67.2231C181.247 69.0067 175.135 72.5608 166.966 72.5079C158.797 72.4549 149.562 77.2101 145.966 79.5943L148.28 73.5557M148.28 73.5557C149.758 71.7895 151.549 70.0626 153.344 69.2288C156.971 67.5439 164.661 66.6345 172.384 66.43M148.28 73.5557C154.01 73.0247 166.737 68.584 172.384 66.43M199.878 42.608C195.026 41.6453 183.53 38.2022 176.358 32.1315M199.878 42.608C196.939 44.1242 193.248 45.4455 189.058 46.1487M176.358 32.1315C174.478 31.8752 172.74 31.6303 171.177 31.4193M176.358 32.1315C180.918 30.0364 191.612 25.5696 197.905 24.464C204.199 23.3584 217.099 20.7723 222.763 19.6174M176.358 32.1315C178.63 32.4413 181.111 32.7676 183.744 33.0707M189.058 46.1487C186.249 46.6202 183.215 46.8139 180.033 46.6022C178.254 46.4839 176.239 46.33 174.103 46.147M189.058 46.1487C183.641 44.7777 170.349 39.7216 160.525 30.4658M160.525 30.4658C162.267 30.5991 163.829 30.699 165.118 30.7593C166.598 30.8285 168.662 31.0799 171.177 31.4193M160.525 30.4658C157.955 30.2691 154.991 29.9997 151.927 29.6776M160.525 30.4658C166.716 28.7841 180.492 24.7027 186.063 21.8302C193.027 18.2396 209.606 13.6868 214.383 13.9424M174.103 46.147C167.99 42.9294 154.997 35.1309 151.927 29.6776M174.103 46.147C167.246 45.5599 159.13 44.6734 153.505 43.7034M151.927 29.6776C153.245 34.457 161.401 42.3869 165.314 45.7545M151.927 29.6776C148.857 29.3549 145.687 28.9793 142.71 28.571M151.927 29.6776C158.838 28.4257 174.413 24.9469 181.429 21.0474C190.199 16.173 205.442 12.1659 210.007 11.6184M153.505 43.7034C151.474 43.3532 149.768 42.9921 148.563 42.6302C143.651 41.1553 133.511 39.8376 125.835 36.9806M153.505 43.7034C149.867 41.2348 141.571 34.5943 137.486 27.7816M137.486 27.7816C136.547 27.6238 135.656 27.4634 134.827 27.3013M137.486 27.7816C139.107 28.0541 140.871 28.3188 142.71 28.571M97.6721 15.4155C102.233 13.7906 113.238 9.80904 120.77 6.88189M97.6721 15.4155C99.1938 15.9457 100.692 16.4686 102.105 16.9715M120.77 6.88189C122.701 6.49473 124.647 6.1251 126.573 5.79062C128.844 5.39624 131.058 5.04201 133.206 4.72821M102.105 16.9715C109.917 14.2165 127.075 7.91077 133.206 4.72821M102.105 16.9715C103.788 17.5702 105.35 18.1405 106.689 18.6606M133.206 4.72821C136.178 4.29408 139.022 3.93735 141.711 3.65885M106.689 18.6606C115.801 15.5348 135.562 8.15826 141.711 3.65885M141.711 3.65885C144.911 3.32745 147.893 3.1068 150.61 2.99828M112.124 20.8399C121.987 16.9559 143.494 7.95006 150.61 2.99828M112.124 20.8399C112.912 21.1266 113.735 21.411 114.583 21.6925M114.583 21.6925C117.656 22.7132 121.057 23.695 124.361 24.6084M124.361 24.6084C136.579 20.0863 164.03 9.61576 176.089 3.91047M124.361 24.6084C125.962 25.051 127.54 25.4774 129.048 25.8845M176.089 3.91047C177.695 4.07872 179.167 4.29019 180.409 4.56112M129.048 25.8845C129.886 26.1108 130.703 26.3311 131.489 26.5449C132.423 26.7987 133.552 27.052 134.827 27.3013M129.048 25.8845C142.787 20.7662 172.294 9.33593 180.409 4.56112M180.409 4.56112C181.702 4.84297 182.746 5.18918 183.433 5.61801C184.141 6.06025 184.966 6.37884 185.882 6.61367M134.827 27.3013C148.293 21.9958 177.356 10.4304 185.882 6.61367M185.882 6.61367C189.824 7.62463 195.451 7.0833 200.721 8.17205C202.136 8.46432 203.703 8.95626 205.311 9.56856M142.71 28.571C149.399 27.1722 164.721 23.5785 172.496 20.3938C182.215 16.413 197.896 10.4038 205.311 9.56856M205.311 9.56856C206.871 10.1627 208.47 10.8701 210.007 11.6184M210.007 11.6184C211.564 12.3763 213.058 13.176 214.383 13.9424M214.383 13.9424C216.591 15.2194 218.332 16.4039 219.122 17.1477C219.43 17.4381 219.89 17.8135 220.488 18.2318M171.177 31.4193C178.192 28.3662 193.448 22.1 198.347 21.4609C203.247 20.8218 215.149 19.0418 220.488 18.2318M220.488 18.2318C221.104 18.6633 221.868 19.1405 222.763 19.6174M222.763 19.6174C223.267 19.8861 223.814 20.1547 224.399 20.4149M183.744 33.0707C187.229 31.2118 195.369 27.2923 200.051 26.4853C205.903 25.4767 219.795 22.1358 224.399 20.4149" stroke="#91942D"/>
</svg>
