<svg width="300" height="344" viewBox="0 0 300 344" fill="none" xmlns="http://www.w3.org/2000/svg">
<path d="M205.056 345.685C200.065 341.297 183.704 325.327 179.683 320.998C177.316 318.449 172.361 314.059 168.149 310.569M205.056 345.685C206.002 346.515 207.245 347.608 208.728 348.882M205.056 345.685C204.332 343.257 203.043 338.682 202.203 334.989M208.728 348.882C215.077 354.334 225.82 363.098 236.365 368.779C249.373 375.787 256.144 379.697 263.192 382.26C270.239 384.823 281.918 388.053 284.016 388.762C286.114 389.472 299.573 392.224 298.704 393.73C298.698 394.897 296.629 397.149 288.397 396.812C280.025 396.47 264.48 388.997 249.913 381.802M208.728 348.882C208.134 343.83 207.038 332.174 207.412 325.966C207.879 318.207 210.445 311.156 214.632 303.035C218.82 294.913 222.07 279.727 222.437 270.403C222.645 265.12 223.497 255.527 224.243 247.858M201.461 331.062C200.942 326.748 200.271 308.795 201.349 297.373C202.426 285.95 206.613 277.829 208.41 273.847C210.207 269.866 216.367 254.854 225.059 239.798C224.84 241.868 224.55 244.7 224.243 247.858M201.461 331.062C201.582 332.075 201.854 333.456 202.203 334.989M201.461 331.062C200.718 327.135 202.93 316.353 205.77 311.435C208.609 306.517 208.529 294.492 208.653 289.933C208.778 285.374 215.299 275.817 216.736 268.115C217.886 261.954 221.612 255.373 223.331 252.852M237.822 375.812C238.606 376.22 239.383 376.613 240.153 376.988C243.29 378.519 246.576 380.153 249.913 381.802M237.822 375.812C233.79 378.626 219.806 377.477 213.319 376.551C225.214 379.405 231.292 381.91 236.893 382.634C241.374 383.214 247.44 382.321 249.913 381.802M237.822 375.812C229.253 371.352 219.947 365.064 212.188 359.395M204.146 353.342C200.839 350.78 198.207 348.652 196.588 347.32C191.486 343.119 177.777 329.064 170.065 321.151M204.146 353.342C198.515 352.382 186.198 349.852 181.984 347.42C176.718 344.379 168.6 340.194 160.149 338.326C159.133 338.101 158.06 337.924 156.95 337.785M204.146 353.342C204.597 353.691 205.06 354.048 205.535 354.413M133.611 378.209C135.704 377.83 138.065 377.275 140.652 376.553M133.611 378.209C142.417 366.431 162.484 354.546 171.416 350.076M133.611 378.209C128.94 379.054 121.493 380.774 115.646 381.524M212.188 359.395C202.627 355.285 196.179 354.11 192.025 355.224C188.493 356.171 178.946 361.261 168.799 365.913M212.188 359.395C209.802 357.652 207.562 355.967 205.535 354.413M66.7762 363.209C64.5747 364.692 62.3145 366.115 60.105 367.387C51.8379 372.15 46.3631 379.026 45.4938 380.532C52.7138 375.762 59.8904 375.638 64.8354 376.57M66.7762 363.209C72.8119 359.144 78.4062 354.63 81.3032 351.522C81.9735 350.803 82.74 350.067 83.5968 349.333M66.7762 363.209C77.8849 358.357 90.8555 356.16 101.491 354.905M177.496 350.85C175.133 347.297 162.814 340.66 156.95 337.785M177.496 350.85C178.164 350.972 178.938 351.093 179.795 351.212M177.496 350.85C176.424 350.655 175.25 350.487 174.005 350.341M205.535 354.413C202.249 353.622 195.593 352.947 189.316 352.297M113.278 82.4171C120.611 86.6509 125.32 93.7472 130.169 99.2074M113.278 82.4171C118.825 94.82 130.247 120.619 131.564 124.592C132.882 128.564 145.049 147.767 150.967 156.872M113.278 82.4171C113.522 84.9326 113.409 87.5438 113.046 90.1805M164.381 307.537C163.123 306.564 162.119 305.839 161.542 305.505C158.908 303.985 145.197 286.032 142.087 282.73C138.977 279.429 126.813 264.878 122.791 260.549C120.999 258.62 118.436 256.644 115.593 254.772M164.381 307.537C163.301 304.775 160.996 297.763 160.42 291.81C159.701 284.368 151.298 271.989 147.553 266.314C143.807 260.638 124.929 241.207 118.55 234.012C112.748 227.466 104.51 207.888 101.167 194.617M164.381 307.537C164.914 307.95 165.493 308.407 166.104 308.898M164.381 307.537C164.786 288.591 155.57 268.935 152.181 264.379C148.792 259.823 132.269 238.921 125.079 232.26C119.327 226.932 106.741 204.945 101.167 194.617M186.783 174.038C185.863 163.469 180.169 148.137 176.582 143.055C174.545 140.168 171.893 134.984 169.462 130.192M186.783 174.038C185.372 188.997 178.801 225.648 163.811 252.581M186.783 174.038C187.094 177.6 187.573 181.66 188.024 185.794M168.149 310.569C167.264 304.281 169.44 287.482 170.225 280.909C170.382 279.597 170.79 277.71 171.367 275.456M168.149 310.569C167.441 309.982 166.754 309.421 166.104 308.898M189.193 203.031C189.165 204.794 189.054 206.417 188.835 207.843C188.44 210.403 187.821 213.932 187.067 217.863M189.193 203.031C191.185 198.661 197.125 186.533 204.949 172.982C212.772 159.432 220.239 152.87 222.995 151.282C219.903 156.638 217.743 162.135 216.132 167.395M189.193 203.031C189.274 197.996 188.679 191.816 188.024 185.794M189.193 203.031C187.343 210.521 182.12 227.049 173.647 245.245M178.452 252.035C182.644 244.919 192.599 232.6 199.553 220.555C203.13 214.36 204.446 209.78 205.414 205.872M178.452 252.035C175.228 257.382 167.834 269.132 164.053 273.354M178.452 252.035C177.161 256.061 175.71 260.595 174.386 264.924M178.452 252.035C179.145 249.874 179.792 247.86 180.348 246.103M5.29126 1C3.89742 7.80589 6.21204 14.9718 11.0153 21.4933M5.29126 1C3.74892 5.15943 0.249132 13.3783 -4.54128 22.2917M5.29126 1C0.370439 26.848 0.893694 49.4086 2.9987 65.42M-13.6313 37.2499C-12.346 35.405 -11.1027 33.5063 -9.90774 31.5867M-13.6313 37.2499C-11.1948 48.0246 -3.35153 73.3969 8.53037 88.6882M-13.6313 37.2499C-14.9467 39.1383 -16.1838 41.1099 -17.346 43.135M84.3166 214.247C76.0402 209.468 58.359 199.26 53.8446 196.654C52.62 195.946 50.9347 194.973 48.9429 193.849M84.3166 214.247C92.5433 225.019 100.247 241.098 103.071 247.791M84.3166 214.247L115.593 254.772M84.3166 214.247C83.0563 212.337 81.8286 210.386 80.6436 208.397M103.071 247.791C97.1097 244.889 89.9672 241.762 84.6785 240.552C83.8423 240.361 82.9379 240.168 82.0011 239.977M103.071 247.791C103.602 248.05 104.123 248.307 104.633 248.56C108.09 250.278 112.058 252.445 115.593 254.772M64.0776 117.245C66.7295 137.847 64.4231 147.055 65.687 164.848C66.6306 178.131 71.1804 190.979 77.4336 202.711M64.0776 117.245C62.2872 103.337 58.3061 90.4503 53.9554 79.1749M64.0776 117.245C63.3454 124.016 61.7122 139.066 61.0373 145.1C60.1937 152.642 57.1803 172.538 59.373 175.784M57.6784 252.566C48.2806 234.092 34.9713 222.393 22.0965 209.941C11.7967 199.979 -15.1276 188.115 -27.3022 183.428C-26.0038 185.187 -24.8373 186.918 -23.777 188.616M57.6784 252.566C56.8976 252.555 55.9974 252.541 54.9983 252.524M57.6784 252.566C62.9299 252.454 66.5582 254.381 69.8407 256.695M-15.1899 266.704C-19.7174 266.9 -30.2955 266.514 -35.0187 266.297C-33.2984 267.429 -30.5998 269.343 -27.6059 271.702M-15.1899 266.704C-11.9666 266.564 -4.90926 261.474 3.18703 257.239M-15.1899 266.704C-10.2169 266.897 -1.91017 267.301 6.20987 267.865M-15.2135 283.252C-16.1587 282.133 -17.1988 281.01 -18.2962 279.903M-15.2135 283.252C-10.326 282.895 1.40336 281.403 9.22086 278.288C18.9927 274.394 30.6528 270.706 35.9894 271.888M-15.2135 283.252C-13.7698 284.96 -12.1516 286.563 -10.4572 288.045M25.1237 311.559C23.3426 310.816 21.7782 310.066 20.3955 309.323M25.1237 311.559C34.8273 309.01 55.3957 303.25 60.0403 300.603C65.846 297.293 76.6749 292.641 81.423 291.368C83.594 290.786 87.787 290.258 91.8252 289.858M25.1237 311.559C26.6127 312.18 28.0995 312.793 29.5842 313.39M128.63 302.563C138.093 307.023 147.223 313.8 153.517 315.928C158.553 317.632 166.647 320.119 170.065 321.151M128.63 302.563C127.392 301.947 125.972 301.249 124.416 300.492M128.63 302.563C128.286 303.705 127.616 305.515 126.696 307.351M101.434 275.821C99.5863 274.197 97.4762 272.692 95.2503 271.294M101.434 275.821C102.522 280.308 105.306 289.965 107.742 292.696M101.434 275.821C103.782 277.884 106.178 280.295 108.407 282.857M117.65 297.256C116.024 292.762 112.497 287.556 108.407 282.857M117.65 297.256C116.873 296.89 116.083 296.519 115.281 296.146M117.65 297.256C113.872 300.904 105.268 308.454 101.073 309.464C95.8282 310.726 82.3383 315.846 77.2177 321.24M117.65 297.256C118.87 297.831 120.055 298.394 121.193 298.938M170.065 321.151C168.527 319.573 167.228 318.239 166.283 317.276C162.549 313.472 157.249 306.383 151.919 300.734M39.6061 252.197C33.569 252.042 27.2521 251.844 22.1171 251.607C19.2847 251.477 16.3202 251.992 13.3443 252.901M39.6061 252.197C37.4496 250.952 34.0314 248.979 30.372 246.866M39.6061 252.197C40.012 252.208 40.4165 252.218 40.8193 252.228M38.241 145.489C38.6029 145.923 39.0876 146.55 39.6789 147.342M38.241 145.489C38.0589 134.51 38.0638 109.654 39.5407 98.0604C41.0176 86.4669 36.6464 62.609 34.2762 52.1292M38.241 145.489C37.7828 144.938 37.2183 144.156 36.5658 143.177M77.4336 202.711C71.7717 198.617 58.7058 189.624 51.7371 186.403C44.7683 183.183 31.932 182.48 26.3849 182.531M77.4336 202.711C60.4309 190.458 43.8072 187.625 37.6206 187.74M77.4336 202.711C78.4604 204.637 79.5332 206.534 80.6436 208.397M77.4336 202.711C73.322 196.53 67.5476 187.895 61.6643 179.176M130.169 99.2074C132.285 101.59 134.429 103.662 136.829 105.048C138.145 105.807 139.716 106.631 141.434 107.497M130.169 99.2074C136.342 112.968 141.541 127.088 145.757 139.974M166.104 308.898C165.37 304.728 164.844 296.414 164.483 287.378M82.0011 239.977C77.7751 239.116 72.8886 238.307 70.6259 237.959C72.348 238.452 84.5452 245.996 88.9427 250.542C92.8548 254.587 97.7063 258.379 102.703 261.461M82.0011 239.977C83.3564 240.827 84.667 241.755 85.9267 242.734M102.703 261.461C103.323 261.843 103.945 262.215 104.568 262.574C110.211 265.832 112.51 269.669 117.125 273.839C119.022 275.554 122.591 278.488 126.659 281.651M102.703 261.461C102.116 260.557 101.087 259.024 99.6817 257.137M141.434 107.497C143.177 114.034 146.483 129.682 145.757 139.974M141.434 107.497C143.146 108.361 145.003 109.267 146.899 110.195M145.757 139.974C146.836 143.272 147.851 146.49 148.802 149.599M146.899 110.195C148.621 117.434 151.413 135.449 148.802 149.599M146.899 110.195C148.846 111.148 150.833 112.124 152.745 113.101M148.802 149.599C149.565 152.098 150.287 154.527 150.967 156.872M152.745 113.101C154.383 121.269 156.525 142.174 151.992 160.452M152.745 113.101C154.214 113.852 155.639 114.603 156.967 115.345M151.992 160.452C153.878 167.132 155.398 173.019 156.55 177.751M151.992 160.452C151.661 159.282 151.32 158.088 150.967 156.872M156.967 115.345C160.679 117.419 163.63 119.418 164.668 121.12C165.892 123.128 167.613 126.547 169.462 130.192M156.967 115.345C158.946 129.872 161.634 162.691 156.55 177.751M156.55 177.751C157.27 180.708 157.847 183.215 158.279 185.183C159.212 189.436 160.125 197.056 160.932 205.785M156.55 177.751C153.735 172.201 137.855 143.236 134.09 137.593C131.079 133.079 118.806 104.104 113.046 90.1805M169.462 130.192C170.034 147.157 169.13 186.027 160.932 205.785M160.932 205.785C161.107 207.679 161.277 209.624 161.441 211.599M163.811 252.581C163.824 253.364 163.83 254.052 163.827 254.632C163.822 255.776 163.824 257.197 163.834 258.832M163.811 252.581C163.789 251.301 163.745 249.766 163.683 248.024M182.58 238.358C182.046 240.439 181.519 242.347 181.014 243.978C180.811 244.632 180.588 245.344 180.348 246.103M182.58 238.358C177.704 246.918 167.153 264.983 163.959 268.76M182.58 238.358C182.846 237.317 183.115 236.233 183.383 235.118M163.959 268.76C163.944 267.897 163.929 267.051 163.917 266.226M163.959 268.76C163.97 269.349 163.981 269.946 163.993 270.55M164.053 273.354C164.098 275.345 164.151 277.388 164.211 279.444M164.053 273.354C164.031 272.406 164.012 271.47 163.993 270.55M174.386 264.924C172.404 268.236 167.595 275.777 164.211 279.444M174.386 264.924C173.212 268.762 172.139 272.438 171.367 275.456M164.211 279.444C164.289 282.094 164.379 284.766 164.483 287.378M164.211 279.444C162.529 270.477 158.829 263.289 158.847 261.178C158.866 259.067 137.592 229.7 126.591 220.085C117.79 212.392 105.918 189.329 101.082 178.759M171.367 275.456C169.766 277.07 166.149 281.713 164.483 287.378M188.024 185.794C186.652 198.506 179.893 230.911 163.834 258.832M163.834 258.832C163.844 260.403 163.861 262.173 163.886 264.087M163.886 264.087C167.512 257.806 170.767 251.429 173.647 245.245M163.886 264.087C163.895 264.782 163.905 265.496 163.917 266.226M185.532 225.509C183.377 230.287 177.984 240.924 173.647 245.245M185.532 225.509C186.081 222.895 186.6 220.302 187.067 217.863M185.532 225.509C184.848 228.769 184.117 232.059 183.383 235.118M216.132 167.395C208.309 179.607 191.545 206.798 187.067 217.863M216.132 167.395C214.033 174.251 212.867 180.705 211.787 185.92M211.787 185.92C210.9 190.203 210.07 193.65 208.829 195.799C206.93 199.09 206.327 202.182 205.414 205.872M211.787 185.92C205.65 193.974 191.377 215.09 183.383 235.118M205.414 205.872C202.036 209.777 192.295 223.29 180.348 246.103M224.243 247.858C223.975 249.357 223.668 251.037 223.331 252.852M202.203 334.989C202.956 327.602 208.782 308.824 212.748 299.348C215.582 292.578 220.52 268.006 223.331 252.852M113.046 90.1805C112.494 94.1833 111.366 98.2452 110.031 102.122M110.031 102.122C115.251 117.683 127.373 151.079 134.092 160.178C142.492 171.551 161.185 208.441 161.441 211.599M110.031 102.122C109.447 103.818 108.823 105.478 108.191 107.082M161.441 211.599C161.857 216.604 162.235 221.796 162.562 226.801M108.191 107.082C113.564 122.898 125.702 156.639 131.267 165.071C138.223 175.611 161.997 217.441 162.562 226.801M108.191 107.082C107.406 109.073 106.607 110.979 105.855 112.759M162.562 226.801C162.773 230.032 162.962 233.186 163.126 236.16M105.855 112.759C104.11 116.886 102.612 120.34 102.097 122.635C101.247 126.42 101.858 131.617 102.424 136.373M105.855 112.759C110.162 129.299 120.216 163.709 125.968 169.037C133.157 175.697 147.313 202.439 150.523 207.303C153.734 212.168 163.126 236.16 163.126 236.16M163.126 236.16C163.296 239.23 163.438 242.11 163.55 244.687M102.424 136.373C102.92 140.549 103.383 144.384 102.793 146.624C102.651 147.163 102.454 147.721 102.222 148.302M102.424 136.373C109.919 150.236 125.777 178.864 129.246 182.473C133.582 186.984 152.547 213.611 153.843 218.063C155.139 222.515 163.349 239.304 163.55 244.687M163.55 244.687C163.601 245.866 163.645 246.982 163.683 248.024M102.222 148.302C109.015 160.922 124.264 187.626 130.919 193.476C139.237 200.788 162.654 242.947 163.683 248.024M102.222 148.302C101.338 150.514 99.9533 153.051 99.2231 156.105M99.2231 156.105C98.4426 159.37 98.4102 163.225 100.538 167.906C101.194 169.347 101.609 170.581 101.847 171.672M99.2231 156.105C102.85 163.783 112.22 181.729 120.687 192.085C131.27 205.03 157.582 241.992 158.635 247.117C159.689 252.243 162.584 260.528 163.917 266.226M101.847 171.672C108.665 182.467 123.47 205.335 128.145 210.443C133.989 216.828 147.441 239.583 153.051 246.369C157.539 251.797 162.216 264.752 163.993 270.55M101.847 171.672C102.491 174.633 101.825 176.551 101.082 178.759M101.082 178.759C100.161 181.498 99.1218 184.685 100.323 190.867C100.551 192.042 100.835 193.298 101.167 194.617M11.0153 21.4933C11.9133 22.7126 12.8983 23.9093 13.9623 25.0769C15.7293 27.0161 18.4409 29.6379 21.5955 32.7068M11.0153 21.4933C12.3106 32.5712 14.4134 57.6571 12.4617 69.3779C10.51 81.0987 10.3327 90.2306 10.4881 93.3314M11.0153 21.4933C16.5814 52.6857 15.8639 67.8291 14.4267 75.531C12.9896 83.2329 12.0313 94.2224 12.6284 98.0802M11.0153 21.4933C21.5467 51.0358 20.3526 64.3984 19.9856 73.7219C19.6187 83.0454 19.9457 93.7732 20.406 99.0575C20.7742 103.285 18.9292 107.573 17.9608 109.189M10.4881 93.3314C11.1461 94.8326 11.8636 96.4232 12.6284 98.0802M10.4881 93.3314C9.75639 91.6624 9.09822 90.104 8.53037 88.6882M12.6284 98.0802C6.37197 94.468 5.08233 91.716 2.24803 87.0685C0.184754 83.6852 -11.9767 56.6067 -17.346 43.135M12.6284 98.0802C13.5884 100.16 14.6229 102.345 15.7077 104.589M17.9608 109.189C21.7741 116.879 25.9665 124.881 29.6362 131.487M17.9608 109.189C17.1919 107.638 16.4384 106.1 15.7077 104.589M21.5955 32.7068C23.8265 37.3473 27.2061 45.0173 30.0374 52.8365M21.5955 32.7068C23.6862 34.7408 25.9716 36.9711 28.3055 39.3292M33.0417 137.468C32.1278 135.926 32.7969 122.773 32.8297 115.766C32.858 109.722 34.8627 92.5003 35.1767 79.3697M33.0417 137.468C31.9837 135.664 30.838 133.65 29.6362 131.487M33.0417 137.468C34.037 139.165 34.9546 140.677 35.7682 141.952M30.0374 52.8365C32.798 60.46 35.0374 68.2253 35.1832 73.4627C35.2339 75.2864 35.2268 77.276 35.1767 79.3697M30.0374 52.8365C30.4737 60.4791 30.9538 79.0506 29.3834 92.196C27.4204 108.628 28.8089 130.006 29.6362 131.487M28.3055 39.3292C35.9122 47.0146 44.0354 56.0572 47.6212 64.0824C49.6829 68.6966 51.8619 73.7492 53.9554 79.1749M28.3055 39.3292C29.8902 42.2708 32.0723 46.784 34.2762 52.1292M39.6789 147.342C40.0268 142.685 40.8914 131.863 41.5663 125.828C42.4099 118.286 44.4134 105.892 43.0505 85.031C42.3475 74.2709 38.2759 61.8299 34.2762 52.1292M39.6789 147.342C41.0336 149.158 42.9476 151.847 45.2251 155.112M35.1767 79.3697C37.1667 98.6972 35.6098 111.348 35.7209 120.948C35.8099 128.628 35.7895 138.151 35.7682 141.952M35.7682 141.952C36.0466 142.389 36.3128 142.798 36.5658 143.177M53.9554 79.1749C54.5512 90.5956 55.6026 115.765 55.0417 125.077C54.4808 134.389 53.7526 156.954 53.4586 167.073M53.4586 167.073C52.9822 166.374 52.5103 165.683 52.0438 165M53.4586 167.073C54.4719 168.559 55.5052 170.078 56.5496 171.617M59.373 175.784C58.4273 174.386 57.484 172.993 56.5496 171.617M59.373 175.784C60.1363 176.912 60.9012 178.045 61.6643 179.176M26.3849 182.531C25.088 182.01 23.8392 181.547 22.6623 181.16C12.547 177.829 -3.41219 168.113 -8.93829 162.915C-13.345 158.77 -22.771 143.43 -25.9348 129.515M26.3849 182.531C29.9324 183.956 33.8398 185.813 37.6206 187.74M37.6206 187.74C41.759 189.85 45.7458 192.044 48.9429 193.849M48.9429 193.849C54.0874 194.174 67.6297 197.538 80.6436 208.397M-4.54128 22.2917C-4.05131 31.652 -1.85736 53.3822 2.9987 65.42M-4.54128 22.2917C-6.18682 25.3535 -7.98465 28.4973 -9.90774 31.5867M2.9987 65.42C3.64878 70.3648 4.44972 74.685 5.28776 78.2844M-9.90774 31.5867C-8.25179 41.1694 -2.89434 63.9248 5.28776 78.2844M5.28776 78.2844C5.81847 80.5639 6.36407 82.5543 6.89564 84.2313C7.28853 85.4708 7.84336 86.9752 8.53037 88.6882M-17.346 43.135C-17.6342 43.6372 -17.9179 44.1427 -18.1969 44.6511M-18.1969 44.6511C-14.4974 56.6569 -5.66379 82.7013 0.0749124 90.8324C5.81362 98.9635 12.8879 103.391 15.7077 104.589M-18.1969 44.6511C-21.7947 51.2053 -24.635 58.2315 -26.8305 64.7595M-26.8305 64.7595C-22.3483 74.7079 -12.2574 95.8574 -7.75095 100.868C-2.11791 107.132 5.73443 113.672 11.2241 120.857C16.7137 128.041 30.2156 140.276 36.5658 143.177M-26.8305 64.7595C-28.8461 70.7525 -30.3182 76.3256 -31.3339 80.7283M-31.3339 80.7283C-31.8623 83.019 -32.2673 84.9928 -32.5609 86.5441C-32.7888 87.7477 -32.8532 89.2399 -32.791 90.928M-31.3339 80.7283C-25.7752 90.5752 -13.0718 111.518 -6.72733 116.515C1.20328 122.761 10.0099 132.702 14.148 135.091C18.2862 137.481 31.5536 146.646 32.6822 147.298C33.8107 147.949 42.8371 152.297 45.2251 155.112M45.2251 155.112C47.2553 158.021 49.5744 161.388 52.0438 165M-32.791 90.928C-32.4792 99.392 -28.9844 112.779 -26.9487 119.394C-26.9975 120.206 -27.0072 121.037 -26.9807 121.885M-32.791 90.928C-27.4749 98.3467 -16.137 114.395 -13.3144 119.236C-9.78609 125.288 5.89734 136.35 11.5403 139.608C17.1833 142.866 25.4596 147.645 30.7263 150.685C35.9931 153.726 40.5075 156.332 42.33 158.388C43.7881 160.033 49.4134 163.482 52.0438 165M-26.9807 121.885C-22.9542 126.552 -13.0201 136.971 -5.49618 141.315C3.90874 146.745 12.6617 153.304 18.2042 154.998C23.7467 156.693 29.5829 159.616 34.1677 161.232C38.7526 162.847 44.5224 164.673 46.9285 166.062C48.8533 167.173 54.1446 170.228 56.5496 171.617M-26.9807 121.885C-26.9048 124.321 -26.531 126.893 -25.9348 129.515M-25.9348 129.515C-16.8932 140.757 2.64691 151.537 7.37858 153.767C12.1103 155.997 22.7606 160.138 28.1442 161.239C33.5279 162.34 42.453 166.015 45.8299 167.965C49.2067 169.914 59.0236 175.257 61.6643 179.176M85.9267 242.734C94.6083 246.233 114.592 256.163 125.075 267.89C135.558 279.617 147.339 294.672 151.919 300.734M85.9267 242.734C88.6767 244.871 91.1842 247.25 93.3853 249.594M151.919 300.734C149.135 297.782 146.342 295.224 143.76 293.734C142.382 292.938 140.77 291.907 139.028 290.727M93.3853 249.594C98.5615 251.411 110.19 256.486 115.293 262.242C120.396 267.999 133.243 283.63 139.028 290.727M93.3853 249.594C95.9243 252.297 98.0557 254.954 99.6817 257.137M139.028 290.727C135.17 288.113 130.672 284.771 126.659 281.651M99.6817 257.137C102.787 258.129 110.048 261.422 114.248 266.658C118.449 271.893 124.272 278.835 126.659 281.651M-17.3027 200.86C-13.9526 208.112 -11.5865 214.133 -7.20275 218.118C0.36322 224.995 10.0574 235.137 17.5813 239.481C19.1729 240.4 21.1247 241.527 23.2243 242.739M-17.3027 200.86C-10.4703 205.77 4.38551 217.381 9.149 224.548C13.9125 231.714 20.5173 239.661 23.2243 242.739M-17.3027 200.86C-18.2066 198.903 -19.1821 196.857 -20.2882 194.737M23.2243 242.739C25.5226 244.066 27.9981 245.495 30.372 246.866M-20.2882 194.737C-14.0236 198.945 0.510593 209.623 8.52985 218.67C16.5491 227.716 26.4327 241.236 30.372 246.866M-20.2882 194.737C-21.3212 192.757 -22.4681 190.712 -23.777 188.616M-23.777 188.616C-21.8502 189.279 -18.7996 190.531 -14.9276 192.402M54.9983 252.524C49.7158 244.701 34.616 225.615 16.4761 211.857C10.5337 207.35 4.79371 203.518 -0.444788 200.331M54.9983 252.524C53.7209 252.503 52.2821 252.477 50.7248 252.447M-0.444788 200.331C4.56828 204.519 11.5879 210.619 18.8725 217.346M-0.444788 200.331C-5.9391 196.989 -10.8817 194.358 -14.9276 192.402M50.7248 252.447C46.152 243.794 32.0769 229.54 18.8725 217.346M50.7248 252.447C50.0828 252.434 49.4205 252.421 48.7412 252.407M18.8725 217.346C27.0315 226.933 43.7343 247.353 45.2729 252.333M45.2729 252.333C46.4662 252.36 47.6267 252.385 48.7412 252.407M45.2729 252.333C44.6205 252.319 43.9583 252.303 43.2885 252.288M-14.9276 192.402C-7.21074 198.255 10.5552 213.014 19.8842 225.225C29.2133 237.436 37.7281 248.315 40.8193 252.228M40.8193 252.228C41.651 252.249 42.4754 252.269 43.2885 252.288M69.8407 256.695C72.5897 258.633 75.096 260.843 78.1099 262.355C79.9495 263.277 82.0557 264.276 84.281 265.363M69.8407 256.695C74.39 262.716 84.1053 276.644 86.5729 284.186M86.5729 284.186C85.8038 283.945 85.0848 283.737 84.4233 283.565C83.6109 283.354 82.706 283.12 81.7205 282.867M86.5729 284.186C88.6198 284.826 91.0214 285.695 93.6382 286.717M84.281 265.363C87.2684 271.551 93.8928 284.713 96.4915 287.857M84.281 265.363C86.1697 266.286 88.1441 267.272 90.1142 268.329M96.4915 287.857C97.5486 288.288 98.6302 288.737 99.7284 289.201M96.4915 287.857C95.5176 287.46 94.5644 287.079 93.6382 286.717M90.1142 268.329C92.1408 274.431 96.9007 287.148 99.7284 289.201M90.1142 268.329C91.8501 269.261 93.5827 270.247 95.2503 271.294M99.7284 289.201C97.7922 289.328 94.8522 289.557 91.8252 289.858M99.7284 289.201C100.129 289.37 100.532 289.541 100.937 289.714M95.2503 271.294C97.1497 277.428 101.508 289.941 103.747 290.928M103.747 290.928C105.073 291.507 106.409 292.099 107.742 292.696M103.747 290.928C102.804 290.516 101.866 290.111 100.937 289.714M107.742 292.696C108.54 293.054 109.338 293.414 110.131 293.775M108.407 282.857C108.957 285.67 110.467 291.973 112.114 294.68M112.114 294.68C111.457 294.379 110.795 294.076 110.131 293.775M112.114 294.68C107.647 298.074 96.0451 305.832 85.3787 309.711C74.7124 313.59 66.9152 318.813 64.35 320.939M112.114 294.68C113.184 295.171 114.242 295.661 115.281 296.146M48.7412 252.407C60.8822 258.311 64.4985 265.948 67.2393 268.151C69.9802 270.354 76.0409 273.425 81.7205 282.867M81.7205 282.867C80.7958 282.63 79.8002 282.376 78.7436 282.108M43.2885 252.288C46.4318 253.217 53.692 256.169 57.5872 260.543C62.4562 266.01 67.8336 273.204 70.1303 276.176C71.9677 278.554 75.4711 280.826 76.9931 281.665M76.9931 281.665C75.4326 281.271 73.764 280.852 72.0145 280.415M76.9931 281.665C77.5931 281.816 78.1771 281.964 78.7436 282.108M13.3443 252.901C17.3052 253.57 26.752 256.09 32.8515 260.816C39.3809 265.875 42.5272 271.059 46.9436 273.766M13.3443 252.901C11.6959 253.405 10.044 254.03 8.40913 254.734M49.2948 274.906C45.8846 274.106 42.5502 273.34 39.4325 272.645M49.2948 274.906C48.4607 274.604 47.6843 274.219 46.9436 273.766M49.2948 274.906C50.5065 275.19 51.7277 275.478 52.9522 275.769M8.40913 254.734C12.1175 255.314 20.8544 257.237 26.135 260.286C32.7357 264.097 34.4426 269.764 39.4325 272.645M8.40913 254.734C6.63979 255.495 4.89042 256.348 3.18703 257.239M39.4325 272.645C38.2512 272.382 37.1009 272.129 35.9894 271.888M3.18703 257.239C6.64944 257.398 15.1543 258.628 21.4744 262.277C29.3745 266.838 27.4054 266.759 32.4113 271.128M32.4113 271.128C31.2278 270.882 30.1086 270.656 29.066 270.453M32.4113 271.128C33.5482 271.364 34.7445 271.618 35.9894 271.888M-27.6059 271.702C-18.9562 271.2 -0.0834744 269.73 6.20987 267.865M-27.6059 271.702C-26.3908 272.659 -25.1271 273.69 -23.8604 274.771M6.20987 267.865C9.69221 268.107 13.1402 268.378 16.2762 268.674M-23.8604 274.771L16.2762 268.674M-23.8604 274.771C-22.9706 275.531 -22.0793 276.316 -21.2024 277.118M16.2762 268.674C17.9562 268.833 19.5467 268.999 21.0049 269.172M-21.2024 277.118L21.0049 269.172M-21.2024 277.118C-20.2074 278.028 -19.231 278.96 -18.2962 279.903M21.0049 269.172C22.3739 269.334 23.6263 269.502 24.7269 269.675C25.948 269.868 27.4106 270.131 29.066 270.453M-18.2962 279.903C-8.11055 277.46 15.6218 272.15 29.066 270.453M-10.4572 288.045C-2.02236 287.047 16.0144 284.418 20.6821 281.894C26.5167 278.738 43.254 274.943 46.9436 273.766M-10.4572 288.045C-8.77274 289.519 -7.01295 290.875 -5.27457 292.101M-5.27457 292.101C2.28896 290.579 18.8962 286.885 24.817 284.281C32.2181 281.026 37.8136 278.023 52.9522 275.769M-5.27457 292.101C-3.64918 293.246 -2.04251 294.277 -0.533578 295.183M52.9522 275.769C55.1286 276.286 57.3153 276.811 59.4769 277.334M-0.533578 295.183C3.09644 297.363 6.16082 298.821 7.55928 299.411C8.29402 299.72 8.9551 300.248 9.68591 300.94M-0.533578 295.183C6.17502 294.102 21.4654 290.887 28.9584 286.672C38.3246 281.404 49.4847 277.347 59.4769 277.334M59.4769 277.334C63.8576 278.394 68.1351 279.448 72.0145 280.415M9.68591 300.94C16.2759 299.579 31.2926 295.637 38.6391 290.756C45.9855 285.875 63.9503 281.829 72.0145 280.415M9.68591 300.94C10.6393 301.842 11.7114 303.024 13.2206 304.367M13.2206 304.367C21.5807 302.926 42.957 291.965 49.2638 288.86C54.3092 286.377 71.0193 283.324 78.7436 282.108M13.2206 304.367C14.913 305.873 17.155 307.58 20.3955 309.323M20.3955 309.323C30.7992 306.652 52.8349 300.572 57.7489 297.621C63.8913 293.932 86.1777 286.405 93.6382 286.717M29.5842 313.39C38.716 310.759 58.1759 304.855 62.9616 302.289C68.9438 299.082 78.9523 293.073 91.8252 289.858M29.5842 313.39C31.2815 314.072 32.9761 314.734 34.6681 315.363M34.6681 315.363C44.5425 311.809 65.0129 304.286 67.8984 302.63C71.5053 300.561 91.7345 289.644 100.937 289.714M34.6681 315.363C42.2757 318.194 49.8312 320.379 57.3516 320.898M110.131 293.775C106.06 296.481 96.1568 302.685 89.115 305.846C80.3129 309.798 63.6219 315.25 57.3516 320.898M57.3516 320.898C59.008 321.012 60.6627 321.045 62.3159 320.987C62.9788 320.964 63.6575 320.948 64.35 320.939M64.35 320.939C66.4095 320.913 68.5899 320.945 70.8311 321.008M70.8311 321.008C74.8088 317.593 85.3343 310.136 95.6156 307.619C105.897 305.102 113.01 298.921 115.281 296.146M70.8311 321.008C72.9233 321.066 75.0685 321.152 77.2177 321.24M77.2177 321.24C78.5266 321.294 79.837 321.349 81.1379 321.401M81.1379 321.401C84.8094 318.808 93.652 313.283 99.6497 311.928C105.647 310.573 116.511 302.704 121.193 298.938M81.1379 321.401C83.3174 321.486 85.47 321.561 87.5438 321.599M121.193 298.938C122.318 299.477 123.396 299.997 124.416 300.492M124.416 300.492C121.033 303.103 112.952 308.868 107.682 311.045C101.095 313.766 89.4567 318.286 87.5438 321.599M87.5438 321.599C89.8461 321.642 92.0512 321.641 94.0878 321.562M94.0878 321.562C96.7546 321.458 99.1326 321.22 101.062 320.774C102.326 320.481 103.604 320.164 104.877 319.828M94.0878 321.562C95.6583 319.358 100.79 314.494 108.752 312.667C116.714 310.84 124.608 304.089 127.56 300.942L126.696 307.351M126.696 307.351C125.664 309.409 124.318 311.502 122.763 312.726C119.62 315.2 112.346 317.853 104.877 319.828M126.696 307.351C121.242 309.185 109.877 316.433 104.877 319.828M83.5968 349.333C88.5398 349.155 100.52 349.862 108.895 354.121M83.5968 349.333C86.1086 347.182 89.3964 345.047 93.3122 343.4M108.895 354.121C110.784 353.938 112.531 353.777 114.101 353.623M108.895 354.121C104.939 357.209 95.559 364.014 89.6882 366.537C83.8175 369.061 71.8572 374.544 66.6109 376.97M108.895 354.121C106.613 354.342 104.123 354.595 101.491 354.905M93.3122 343.4C95.9379 342.295 98.846 341.409 101.992 340.883C103.75 340.589 105.746 340.276 107.868 339.962M93.3122 343.4C98.8999 343.488 112.998 345.353 124.687 352.102M124.687 352.102C122.961 352.372 121.418 352.634 120.15 352.872C118.693 353.145 116.627 353.375 114.101 353.623M124.687 352.102C127.234 351.702 130.18 351.283 133.236 350.892M124.687 352.102C119.048 355.162 106.58 362.301 101.819 366.378C95.8672 371.473 80.779 379.716 76.0714 380.566M107.868 339.962C114.556 341.688 128.994 346.29 133.236 350.892M107.868 339.962C114.676 338.957 122.778 337.954 128.476 337.604M133.236 350.892C130.854 346.543 121.094 340.701 116.511 338.324M133.236 350.892C136.298 350.5 139.47 350.136 142.46 349.849M133.236 350.892C126.798 353.699 112.44 360.666 106.508 366.074C99.0941 372.834 85.1815 380.239 80.864 381.821M128.476 337.604C130.533 337.478 132.276 337.437 133.532 337.513C138.651 337.819 148.823 336.769 156.95 337.785M128.476 337.604C132.583 339.171 142.184 343.726 147.726 349.416M147.726 349.416C148.676 349.354 149.58 349.305 150.424 349.273M147.726 349.416C146.086 349.524 144.308 349.672 142.46 349.849M189.316 352.297C185.251 354.927 175.457 361.332 168.799 365.913M189.316 352.297C187.714 352.131 186.136 351.966 184.645 351.802M168.799 365.913C167.009 366.734 165.201 367.541 163.403 368.309C161.284 369.215 159.21 370.069 157.192 370.868M184.645 351.802C177.675 356.279 162.427 366.361 157.192 370.868M184.645 351.802C182.869 351.606 181.218 351.41 179.795 351.212M157.192 370.868C154.4 371.974 151.714 372.975 149.161 373.864M179.795 351.212C171.646 356.349 154.11 368.072 149.161 373.864M149.161 373.864C146.122 374.923 143.272 375.823 140.652 376.553M174.005 350.341C165.298 356.389 146.439 370.098 140.652 376.553M174.005 350.341C173.171 350.243 172.305 350.155 171.416 350.076M171.416 350.076C168.19 349.79 164.655 349.616 161.229 349.487M161.229 349.487C150.378 356.697 126.07 373.199 115.646 381.524M161.229 349.487C159.569 349.424 157.935 349.372 156.374 349.323M115.646 381.524C114.044 381.73 112.563 381.862 111.292 381.884M156.374 349.323C155.506 349.295 154.661 349.268 153.847 349.241C152.879 349.209 151.722 349.222 150.424 349.273M156.374 349.323C144.18 357.463 118.092 375.371 111.292 381.884M111.292 381.884C109.969 381.907 108.874 381.81 108.106 381.551C107.315 381.283 106.439 381.163 105.494 381.145M150.424 349.273C138.539 357.532 112.914 375.47 105.494 381.145M105.494 381.145C101.425 381.067 96.0733 382.888 90.6938 383.04C89.2497 383.081 87.6119 382.963 85.9063 382.736M142.46 349.849C136.272 352.749 122.187 359.769 115.353 364.656C106.81 370.765 92.9305 380.219 85.9063 382.736M85.9063 382.736C84.2512 382.517 82.5322 382.196 80.864 381.821M80.864 381.821C79.1746 381.442 77.5373 381.007 76.0714 380.566M76.0714 380.566C73.6287 379.831 71.6619 379.078 70.7226 378.536C70.3558 378.324 69.8219 378.065 69.144 377.795M114.101 353.623C107.976 358.207 94.5695 367.813 89.9485 369.562C85.3276 371.31 74.1534 375.779 69.144 377.795M69.144 377.795C68.4445 377.517 67.5918 377.228 66.6109 376.97M66.6109 376.97C66.0582 376.824 65.4649 376.688 64.8354 376.57M101.491 354.905C98.5273 357.516 91.5065 363.202 87.1354 365.064C81.6715 367.391 68.92 373.836 64.8354 376.57" stroke="#91942D"/>
</svg>
