<svg width="111" height="117" viewBox="0 0 111 117" fill="none" xmlns="http://www.w3.org/2000/svg">
<path d="M110.954 2.36987C111.158 1.56703 110.673 0.750592 109.87 0.546317C109.067 0.342042 108.251 0.827281 108.046 1.63013L110.954 2.36987ZM0.713761 107.228C0.287538 107.939 0.517886 108.86 1.22826 109.286L12.8044 116.232C13.5148 116.658 14.4362 116.428 14.8624 115.717C15.2886 115.007 15.0583 114.086 14.3479 113.659L4.05798 107.486L10.2319 97.1956C10.6582 96.4852 10.4278 95.5638 9.71744 95.1376C9.00707 94.7114 8.08568 94.9417 7.65945 95.6521L0.713761 107.228ZM108.046 1.63013C100.959 29.4858 69.7091 89.5266 1.6362 106.545L2.3638 109.455C71.8909 92.0734 103.708 30.8475 110.954 2.36987L108.046 1.63013Z" fill="#FFFCF3"/>
</svg>
