<svg width="92" height="38" viewBox="0 0 92 38" fill="none" xmlns="http://www.w3.org/2000/svg">
<path d="M0 37.6763L10.851 9.06496H16.4188L27.2292 37.6763H22.5961L20.4828 31.9297H6.74633L4.63302 37.6763H0ZM8.16875 28.0852H19.0604L13.6146 13.1523L8.16875 28.0852Z" fill="#FFFCF3"/>
<path d="M40.6818 38C38.8123 38 37.0513 37.7302 35.3985 37.1906C33.7458 36.651 32.3505 35.7742 31.2126 34.5602C30.0746 33.3461 29.316 31.7409 28.9367 29.7444H33.3665C33.7187 30.8775 34.2877 31.7678 35.0734 32.4153C35.8591 33.0359 36.7668 33.4675 37.7963 33.7103C38.853 33.9531 39.9096 34.0745 40.9663 34.0745C41.9688 34.0745 42.9035 33.9397 43.7705 33.6699C44.6646 33.4001 45.3961 32.9549 45.9651 32.3344C46.534 31.7139 46.8185 30.9045 46.8185 29.9063C46.8185 29.1509 46.6695 28.5303 46.3715 28.0447C46.0734 27.5591 45.6535 27.1679 45.1116 26.8711C44.5968 26.5474 43.9737 26.2911 43.2422 26.1022C42.4023 25.8324 41.4946 25.6031 40.5192 25.4143C39.571 25.2254 38.6227 25.0096 37.6744 24.7668C36.7532 24.524 35.8862 24.2137 35.0734 23.836C34.3961 23.5662 33.7323 23.2425 33.082 22.8647C32.4589 22.4601 31.917 21.9879 31.4564 21.4483C30.9958 20.8818 30.6165 20.2208 30.3185 19.4654C30.0475 18.71 29.9121 17.8466 29.9121 16.8754C29.9121 15.5804 30.1153 14.4743 30.5217 13.557C30.9552 12.6397 31.5106 11.8708 32.1879 11.2503C32.8924 10.6297 33.6916 10.1441 34.5857 9.7934C35.5069 9.41569 36.4687 9.1459 37.4712 8.98403C38.4737 8.82215 39.449 8.74121 40.3973 8.74121C42.1313 8.74121 43.7298 9.011 45.1929 9.55058C46.656 10.0902 47.8616 10.9535 48.8099 12.1406C49.7853 13.3007 50.3136 14.8385 50.3949 16.754H46.2089C46.1005 15.7288 45.7483 14.9194 45.1523 14.3259C44.5833 13.7054 43.8653 13.2737 42.9983 13.0309C42.1313 12.7611 41.2101 12.6262 40.2348 12.6262C39.5303 12.6262 38.8259 12.6936 38.1214 12.8285C37.417 12.9365 36.7668 13.1523 36.1707 13.476C35.6017 13.7728 35.1411 14.1775 34.7889 14.6901C34.4638 15.2027 34.3012 15.8367 34.3012 16.5921C34.3012 17.2396 34.4367 17.8197 34.7076 18.3323C34.9786 18.8179 35.3579 19.2361 35.8456 19.5868C36.3604 19.9105 36.9293 20.1938 37.5525 20.4366C38.6904 20.8683 39.9367 21.2055 41.2914 21.4483C42.6461 21.6642 43.9195 21.9744 45.1116 22.3791C45.9786 22.6489 46.7914 22.9862 47.5501 23.3908C48.3087 23.7685 48.9589 24.2407 49.5008 24.8072C50.0427 25.3468 50.4626 25.9943 50.7607 26.7497C51.0587 27.4782 51.2077 28.328 51.2077 29.2993C51.2077 30.891 50.9232 32.2535 50.3543 33.3866C49.7853 34.4927 49.0131 35.383 48.0377 36.0575C47.0624 36.732 45.938 37.2311 44.6646 37.5548C43.3912 37.8516 42.0636 38 40.6818 38Z" fill="#FFFCF3"/>
<path d="M56.7866 37.6763V9.06496H61.0945V37.6763H56.7866ZM56.8272 6.11076L60.6474 0H65.1585L60.5255 6.11076H56.8272Z" fill="#FFFCF3"/>
<path d="M64.7708 37.6763L75.6219 9.06496H81.1896L92 37.6763H87.367L85.2537 31.9297H71.5172L69.4039 37.6763H64.7708ZM72.9396 28.0852H83.8313L78.3854 13.1523L72.9396 28.0852Z" fill="#FFFCF3"/>
</svg>
