<svg width="632" height="486" viewBox="0 0 632 486" fill="none" xmlns="http://www.w3.org/2000/svg">
<path d="M-98.4857 175.213C-85.6297 175.286 -41.4706 177.846 -30.1043 179.064C-23.413 179.782 -10.6062 179.906 -0.02503 179.657M-98.4857 175.213C-100.92 175.199 -104.123 175.181 -107.905 175.204M-98.4857 175.213C-94.3461 177.839 -86.659 182.884 -80.7456 187.211M-107.905 175.204C-124.096 175.299 -150.905 176.134 -173.514 181.219C-201.404 187.492 -216.254 190.376 -229.798 195.576C-243.342 200.776 -264.495 210.88 -268.46 212.507C-272.425 214.133 -295.572 227.194 -296.213 223.893C-297.687 222.18 -297.523 216.267 -285.073 206.311C-272.412 196.186 -240.23 187.373 -209.825 179.395M-107.905 175.204C-100.626 181.826 -84.2347 197.457 -76.9027 206.998C-67.7378 218.923 -62.5375 232.475 -58.3461 249.649C-54.1546 266.823 -39.6291 293.125 -28.3332 307.206C-21.9329 315.184 -11.002 330.275 -2.36032 342.421M-74.6779 192.004C-68.4455 197.646 -44.6846 223.011 -31.7622 241.059C-18.8398 259.107 -14.6483 276.281 -12.2202 284.376C-9.79216 292.47 0.264245 322.21 6.67655 355.227C4.37045 351.927 1.19927 347.423 -2.36032 342.421M-74.6779 192.004C-76.1408 190.68 -78.2903 189.007 -80.7456 187.211M-74.6779 192.004C-68.6103 196.797 -58.1584 215.349 -56.0637 226.135C-53.9691 236.92 -38.5929 254.378 -32.9887 261.193C-27.3845 268.009 -24.7791 290.241 -17.1038 303.312C-10.9636 313.769 -8.05407 328.108 -7.36682 333.971M-184.567 172.797C-186.229 173.196 -187.863 173.609 -189.463 174.037C-195.986 175.783 -202.859 177.567 -209.825 179.395M-184.567 172.797C-182.249 163.571 -160.371 147.503 -149.722 140.622C-170.714 151.552 -182.769 155.606 -191.867 161.656C-199.146 166.496 -206.872 175.499 -209.825 179.395M-184.567 172.797C-166.394 168.437 -144.823 165.81 -126.3 164.241M-106.875 162.875C-98.7933 162.419 -92.2488 162.187 -88.1947 162.079C-75.4124 161.739 -37.5567 164.866 -16.2518 166.636M-106.875 162.875C-97.4314 157.131 -76.2348 145.195 -66.9948 143.4C-55.4448 141.157 -38.28 136.967 -23.5668 128.97C-21.7979 128.009 -20.0069 126.907 -18.209 125.7M-106.875 162.875C-107.976 162.938 -109.105 163.004 -110.26 163.075M-35.4256 37.0506C-38.002 40.2597 -40.745 44.0675 -43.6075 48.4039M-35.4256 37.0506C-33.3393 65.4262 -47.5607 108.246 -54.9323 126.109M-35.4256 37.0506C-29.6765 29.8895 -20.9843 17.9266 -13.3977 9.41101M-126.3 164.241C-107.121 158.11 -96.214 151.645 -91.5611 144.745C-87.606 138.88 -80.1222 119.332 -71.2086 99.6622M-126.3 164.241C-120.603 163.759 -115.194 163.377 -110.26 163.075M81.2104 -25.86C82.5439 -30.8189 84.0391 -35.7648 85.6505 -40.4275C91.6797 -57.8732 90.9485 -74.8626 90.3073 -78.1644C85.8159 -62.0373 75.4941 -52.7479 67.0897 -47.8338M81.2104 -25.86C77.5545 -12.2647 75.1142 1.42741 74.8276 9.64238C74.7613 11.5433 74.5758 13.5905 74.2559 15.7494M81.2104 -25.86C71.1462 -4.67642 54.9925 14.9919 41.0528 30.3209M-64.7935 132.694C-56.8343 134.884 -30.4208 128.944 -18.209 125.7M-64.7935 132.694C-65.9234 133.364 -67.2066 134.17 -68.61 135.084M-64.7935 132.694C-62.98 131.619 -61.0529 130.376 -59.049 129.009M-110.26 163.075C-104.459 160.06 -93.883 152.598 -83.8913 145.583M369.635 443.203C353.553 446.326 337.672 441.938 323.661 440.118M369.635 443.203C345.796 432.129 296.376 408.948 289.41 404.819C282.444 400.69 240.308 388.087 220.111 382.302M369.635 443.203C366.087 439.838 362.938 435.882 360.123 431.57M9.32354 179.303C12.3961 179.129 14.7818 178.913 16.0489 178.667C21.824 177.545 64.6303 186.363 73.3612 187.237C82.0922 188.111 118.322 193.924 129.688 195.143C134.754 195.686 141.004 195.318 147.531 194.444M9.32354 179.303C14.4066 181.965 26.6715 189.281 35.067 197.244C45.5613 207.198 73.541 214.613 86.2132 218.147C98.8854 221.682 151.111 226.101 169.558 228.515C186.338 230.71 223.214 248.846 244.936 263.984M9.32354 179.303C8.02183 179.377 6.59685 179.443 5.08143 179.501M9.32354 179.303C32.7752 207.485 71.1794 224.493 81.9098 226.846C92.6401 229.199 143.295 238.755 162.246 239.357C177.408 239.839 223.69 255.976 244.936 263.984M146.024 402.686C160.78 416.952 188.552 432.116 200.239 434.986C206.877 436.615 217.329 440.82 226.96 444.734M146.024 402.686C129.101 379.05 92.185 317.188 79.8977 258.834M146.024 402.686C141.049 397.877 135.197 392.557 129.293 387.091M-0.02503 179.657C9.2454 187.717 27.3878 215.01 34.5821 225.605C36.0183 227.72 37.8161 230.994 39.8346 235.017M-0.02503 179.657C1.75318 179.615 3.46853 179.563 5.08143 179.501M105.711 363.404C103.515 360.794 101.618 358.284 100.129 355.922C97.4561 351.684 93.8826 345.744 89.9937 339.046M105.711 363.404C108.348 372.314 115.065 397.563 120.836 427.279C126.607 456.995 124.03 476.054 122.02 481.87C119.74 470.125 115.918 459.357 111.595 449.632M105.711 363.404C111.983 370.858 120.694 379.13 129.293 387.091M105.711 363.404C98.9086 350.118 85.5607 319.355 74.8428 282.029M59.2095 278.212C62.1171 293.922 63.2147 324.546 68.3446 350.96C70.9832 364.546 74.8715 372.904 78.4184 379.84M59.2095 278.212C57.1326 266.311 53.0195 239.769 53.1821 228.805M59.2095 278.212C55.9858 270.694 52.3515 262.23 48.7912 254.229M59.2095 278.212C60.9394 282.246 62.551 286.008 63.9695 289.28M630.652 425.06C624.051 413.353 611.577 405.825 596.287 402.397M630.652 425.06C627.626 417.029 622.307 400.585 617.991 381.49M630.652 425.06C605.037 381.069 575.642 348.787 552.25 328.076M612.283 348.11C612.748 352.435 613.342 356.786 614.033 361.106M612.283 348.11C595.052 335.467 551.4 308.369 514.644 301.117M612.283 348.11C611.808 343.683 611.113 339.234 610.24 334.802M244.633 213.934C262.783 210.41 301.559 202.879 311.459 200.956C314.144 200.435 317.84 199.717 322.175 198.831M244.633 213.934C218.95 208.644 187.294 194.938 174.677 188.747M244.633 213.934L147.531 194.444M244.633 213.934C248.897 215.124 253.166 216.415 257.42 217.815M174.677 188.747C187.065 185.421 201.463 180.923 210.722 175.979C212.186 175.197 213.752 174.332 215.362 173.421M174.677 188.747C173.573 189.044 172.486 189.33 171.419 189.608C164.192 191.486 155.647 193.357 147.531 194.444M397.286 329.905C367.269 303.185 358.953 286.812 334.527 262.432C316.292 244.231 293.344 231.242 269.324 222.046M397.286 329.905C417.551 347.944 439.718 361.71 460.38 372.655M397.286 329.905C389.763 319.088 373.05 295.038 366.378 285.37C358.038 273.284 337.19 240.406 329.87 238.449M234.905 124.171C272.074 139.223 306.356 139.418 340.959 141.263C368.642 142.739 423.017 125.898 446.744 117.292C442.616 116.372 438.714 115.323 435.011 114.189M234.905 124.171C236.06 123.196 237.392 122.074 238.872 120.831M234.905 124.171C227.379 130.999 219.635 132.789 211.904 133.575M323.376 11.0529C329.739 5.0205 345.676 -7.83963 352.85 -13.5156C348.9 -12.9871 342.53 -12.3571 335.165 -12.0022M323.376 11.0529C318.847 15.3477 315 31.7361 308.551 48.195M323.376 11.0529C315.869 17.0811 303.225 27.0326 290.652 36.514M302.411 -13.1423C305.211 -12.7079 308.155 -12.3888 311.162 -12.1645M302.411 -13.1423C295.726 -6.41908 280.491 10.6446 273.028 25.114C263.699 43.2006 251.352 63.3844 242.059 68.4304M302.411 -13.1423C298.134 -13.8057 293.738 -14.092 289.382 -14.1071M207.583 -3.29138C211.127 -4.46661 214.363 -5.35709 217.325 -6.02609M207.583 -3.29138C196.647 12.7452 173.92 47.2583 170.497 57.0185C166.218 69.2187 156.307 89.7541 150.99 97.6394C148.558 101.245 143.104 107.336 137.716 113.046M207.583 -3.29138C204.62 -2.30885 201.671 -1.31695 198.746 -0.304517M67.8443 141.197C48.3648 146.694 26.4338 148.383 14.5397 153.263C5.02442 157.166 -9.95269 163.804 -16.2518 166.636M67.8443 141.197C70.4351 140.526 73.3937 139.745 76.627 138.874M67.8443 141.197C66.8975 139.093 65.5797 135.601 64.5934 131.752M141.496 145.738C146.256 145.765 151.247 145.285 156.271 144.501M141.496 145.738C134.214 140.566 117.892 129.997 110.869 129.099M141.496 145.738C135.45 145.704 128.89 145.224 122.385 144.312M90.6148 135.014C98.6921 139.513 110.448 142.64 122.385 144.312M90.6148 135.014C92.2127 134.563 93.8376 134.101 95.4826 133.629M90.6148 135.014C91.501 124.892 94.4848 102.948 99.3306 96.1495C105.388 87.6512 118.589 63.0544 119.222 48.6791M90.6148 135.014C88.1027 135.723 85.6574 136.405 83.3057 137.053M-16.2518 166.636C-12.0037 166.988 -8.4137 167.287 -5.81168 167.494C4.46858 168.31 21.2042 171.938 36.1556 173.424M261.765 101.775C270.778 94.3406 280.255 86.6135 288.054 80.4425C292.355 77.0388 296.031 72.5245 299.222 67.4195M261.765 101.775C266.494 100.857 273.991 99.4007 282.016 97.8422M261.765 101.775C261.159 102.275 260.555 102.773 259.954 103.27M399.175 255.873C398.094 255.697 396.592 255.398 394.723 254.991M399.175 255.873C413.373 271.674 444.909 307.979 457.464 326.783C470.02 345.588 506.68 374.881 523.44 387.177M399.175 255.873C400.543 256.096 402.359 256.521 404.554 257.122M269.324 222.046C282.787 220.839 313.281 217.391 327.544 213.251C341.808 209.11 361.445 193.847 369.481 186.733M269.324 222.046C309.702 218.361 337.574 201.403 346.462 193.384M269.324 222.046C265.379 220.535 261.406 219.127 257.42 217.815M269.324 222.046C283.172 225.854 302.563 231.136 322.219 236.403M323.661 440.118C317.546 439.324 311.788 439.019 306.524 440.041C303.638 440.602 300.299 441.393 296.691 442.307M323.661 440.118C297.184 427.857 271.673 413.834 249.164 400.367M5.08143 179.501C11.4445 184.661 22.7634 196.134 34.7568 208.872M215.362 173.421C222.626 169.315 230.788 164.295 234.534 161.932C231.394 163.398 204.009 167.86 191.818 166.802C180.972 165.86 169.074 166.478 157.867 168.318M215.362 173.421C212.304 173.899 209.212 174.207 206.13 174.376M157.867 168.318C156.477 168.547 155.097 168.794 153.731 169.059C141.356 171.462 133.129 168.777 121.098 168.544C116.15 168.448 107.215 168.692 97.261 169.236M157.867 168.318C159.872 168.893 163.319 169.828 167.767 170.799M296.691 442.307C285.849 434.973 261.165 416.317 249.164 400.367M296.691 442.307C293.095 443.219 289.233 444.253 285.287 445.303M249.164 400.367C243.402 396.92 237.837 393.509 232.503 390.174M285.287 445.303C273.585 436.918 246.646 414.152 232.503 390.174M285.287 445.303C281.235 446.382 277.094 447.479 273.062 448.478M232.503 390.174C228.217 387.495 224.081 384.864 220.111 382.302M273.062 448.478C260.305 438.629 230.647 410.82 214.072 378.374M273.062 448.478C269.963 449.246 266.928 449.957 264.048 450.559M214.072 378.374C202.839 371.012 193.149 364.345 185.462 358.897M214.072 378.374C216.039 379.663 218.053 380.973 220.111 382.302M264.048 450.559C255.995 452.24 249.149 453.066 245.474 451.898C241.137 450.519 234.286 447.711 226.96 444.734M264.048 450.559C242.723 431.856 197.15 387.341 185.462 358.897M185.462 358.897C180.657 355.492 176.635 352.562 173.507 350.237C166.745 345.211 155.743 335.241 143.488 323.518M185.462 358.897C196.616 363.43 256.565 385.576 269.223 389.039C279.35 391.809 334.042 418.547 360.123 431.57M226.96 444.734C204.595 420.685 156.589 362.774 143.488 323.518M143.488 323.518C140.829 320.975 138.112 318.349 135.366 315.673M79.8977 258.834C78.8839 257.707 78.0033 256.711 77.2711 255.86C75.8264 254.182 74.021 252.11 71.9309 249.735M79.8977 258.834C81.554 260.674 83.566 262.862 85.868 265.326M70.5384 303.422C68.6761 299.705 67.0261 296.251 65.6937 293.228C65.159 292.015 64.5823 290.693 63.9695 289.28M70.5384 303.422C66.7959 284.734 59.2786 244.964 59.1495 235.395M70.5384 303.422C71.4696 305.281 72.4538 307.205 73.4779 309.173M59.1495 235.395C60.2677 236.636 61.3618 237.853 62.4272 239.042M59.1495 235.395C58.3862 234.549 57.6117 233.691 56.8275 232.824M53.1821 228.805C50.5896 225.955 47.9205 223.039 45.223 220.112M53.1821 228.805C54.4164 230.162 55.6332 231.503 56.8275 232.824M48.7912 254.229C47.4816 246.877 44.9346 229.762 45.223 220.112M48.7912 254.229C45.635 247.135 42.5369 240.404 39.8346 235.017M45.223 220.112C41.7468 216.341 38.2237 212.554 34.7568 208.872M45.223 220.112C59.0593 231.073 73.584 236.875 76.2363 239.981C78.8885 243.087 147.222 258.975 175.489 259.056C198.104 259.121 244.709 277.735 265.185 287.034M39.8346 235.017C40.1239 230.63 39.5135 219.258 34.7568 208.872M129.293 387.091C115.164 366.786 83.9117 310.889 71.9309 249.735M71.9309 249.735C69.9231 247.453 67.6525 244.89 65.1866 242.127M65.1866 242.127C67.8615 255.9 71.2003 269.343 74.8428 282.029M65.1866 242.127C64.2915 241.124 63.3706 240.094 62.4272 239.042M82.5329 325.934C79.6158 316.221 73.9938 293.843 74.8428 282.029M82.5329 325.934C85.0479 330.446 87.5815 334.892 89.9937 339.046M82.5329 325.934C79.3953 320.304 76.2865 314.572 73.4779 309.173M111.595 449.632C107.521 421.87 97.4976 360.888 89.9937 339.046M111.595 449.632C105.96 436.956 99.4721 426.051 94.4312 417.064M94.4312 417.064C90.2921 409.684 87.1284 403.597 86.213 398.884C84.8117 391.668 81.7672 386.388 78.4184 379.84M94.4312 417.064C93.172 397.514 87.2186 348.566 73.4779 309.173M78.4184 379.84C78.3949 369.851 75.4723 337.755 63.9695 289.28M-2.36032 342.421C-3.86966 339.892 -5.55475 337.049 -7.36682 333.971M-80.7456 187.211C-72.4719 198.955 -57.1492 233.77 -50.9157 252.642C-46.4625 266.124 -22.4916 308.274 -7.36682 333.971M360.123 431.57C355.848 425.025 352.341 417.662 349.371 410.306M349.371 410.306C322.001 394.207 261.919 360.82 240.559 356.06C213.859 350.11 139.748 319.961 135.366 315.673M349.371 410.306C348.073 407.088 346.877 403.873 345.764 400.727M135.366 315.673C128.407 308.892 121.266 301.79 114.438 294.897M345.764 400.727C317.846 384.45 257.302 350.581 238.475 345.329C214.941 338.764 127.14 307.848 114.438 294.897M345.764 400.727C344.383 396.823 343.131 393.027 341.971 389.472M114.438 294.897C110.028 290.445 105.75 286.08 101.736 281.945M341.971 389.472C339.281 381.233 337.086 374.288 334.926 370.282C331.364 363.676 323.876 356.861 317.014 350.634M341.971 389.472C314.691 370.786 256.342 333.293 241.181 332.812C222.229 332.209 167.623 311.121 156.761 308.091C145.899 305.062 101.736 281.945 101.736 281.945M101.736 281.945C97.592 277.677 93.7299 273.653 90.2965 270.03M317.014 350.634C310.99 345.167 305.448 340.153 303.466 336.133C302.99 335.166 302.57 334.1 302.172 332.959M317.014 350.634C288.476 339.901 228.989 318.219 219.344 317.352C207.287 316.267 145.8 301.45 138.259 296.592C130.717 291.735 97.4208 277.637 90.2965 270.03M90.2965 270.03C88.7259 268.373 87.2451 266.8 85.868 265.326M302.172 332.959C276.236 323.148 220.079 303.504 202.937 303.406C181.511 303.285 93.8128 271.434 85.868 265.326M302.172 332.959C300.654 328.606 299.457 323.143 296.647 317.757M296.647 317.757C293.644 311.999 288.799 306.328 279.753 302.193C276.965 300.919 274.793 299.646 273.061 298.353M296.647 317.757C281.608 311.147 245.151 296.832 219.645 292.453C187.761 286.979 102.432 266.392 94.3889 260.245C86.3461 254.098 71.6045 245.671 62.4272 239.042M273.061 298.353C249.405 291.241 198.765 276.635 185.456 275.108C168.819 273.2 120.298 257.041 103.494 254.251C90.051 252.019 66.7817 239.036 56.8275 232.824M273.061 298.353C268.363 294.847 266.902 291.201 265.185 287.034M265.185 287.034C263.054 281.865 260.527 275.893 250.928 268.389C249.104 266.963 247.095 265.488 244.936 263.984M596.287 402.397C593.428 401.756 590.471 401.259 587.436 400.904C582.394 400.314 575.107 399.927 566.606 399.448M596.287 402.397C580.337 387.864 545.432 353.898 533.408 334.305C521.384 314.712 510.054 301.152 505.892 296.82M596.287 402.397C548.574 363.909 530.405 340.884 522.73 327.813C515.054 314.742 502.508 297.478 496.74 292.602M596.287 402.397C543.417 372.62 528.204 351.591 516.908 337.51C505.612 323.429 491.52 308.177 484.142 301.044C478.24 295.338 475.492 286.735 474.856 283.147M505.892 296.82C503.026 295.463 499.96 294.051 496.74 292.602M505.892 296.82C509.079 298.329 512.017 299.77 514.644 301.117M496.74 292.602C510.461 289.937 515.836 292.319 525.873 295.51C533.18 297.832 585.303 321.942 610.24 334.802M496.74 292.602C492.699 290.782 488.415 288.905 483.984 287.005M474.856 283.147C459.528 276.756 443.251 270.39 429.509 265.4M474.856 283.147C477.947 284.435 480.999 285.725 483.984 287.005M566.606 399.448C557.459 395.503 542.79 388.591 528.733 380.765M566.606 399.448C560.972 399.131 554.804 398.774 548.403 398.293M416.946 260.987C420.238 262.08 435.952 282.137 444.796 292.411C452.424 301.272 471.352 328.966 487.556 348.54M416.946 260.987C420.78 262.279 425.008 263.766 429.509 265.4M416.946 260.987C413.339 259.772 410.081 258.729 407.273 257.899M528.733 380.765C515.027 373.136 501.902 364.638 495.043 357.174C492.655 354.575 490.14 351.661 487.556 348.54M528.733 380.765C518.397 370.158 494.128 343.647 479.74 322.457C461.754 295.97 432.597 266.513 429.509 265.4M548.403 398.293C527.542 396.723 504.204 393.826 488.783 386.657C479.917 382.535 470.323 377.922 460.38 372.655M548.403 398.293C542.356 396.008 533.442 392.186 523.44 387.177M394.723 254.991C400.125 262.233 412.596 279.135 419.268 288.803C427.608 300.889 440.41 321.53 468.874 350.265C483.555 365.086 505.289 378.087 523.44 387.177M394.723 254.991C390.44 254.058 384.232 252.56 376.764 250.683M487.556 348.54C460.123 322.841 446.342 302.39 433.998 288.512C424.122 277.41 412.067 263.477 407.273 257.899M407.273 257.899C406.313 257.614 405.405 257.355 404.554 257.122M460.38 372.655C445.017 356.733 411.541 321.312 400.543 307.001C389.545 292.691 361.973 258.814 349.561 243.664M349.561 243.664C351.143 244.08 352.71 244.491 354.257 244.895M349.561 243.664C346.196 242.78 342.759 241.873 339.281 240.951M329.87 238.449C333.025 239.29 336.169 240.127 339.281 240.951M329.87 238.449C327.323 237.769 324.769 237.086 322.219 236.403M369.481 186.733C372.036 185.848 374.447 184.939 376.657 184.011C395.656 176.039 431.291 169.975 445.958 170.552C457.653 171.013 490.886 181.454 513.164 197.759M369.481 186.733C362.492 189.154 354.43 191.401 346.462 193.384M346.462 193.384C337.741 195.555 329.135 197.409 322.175 198.831M322.175 198.831C314.251 204.886 290.205 217.158 257.42 217.815M617.991 381.49C605.397 368.442 574.617 339.493 552.25 328.076M617.991 381.49C616.509 374.93 615.145 368.058 614.033 361.106M552.25 328.076C545.025 321.68 538.373 316.388 532.581 312.195M614.033 361.106C599.454 349.213 562.753 322.781 532.581 312.195M532.581 312.195C528.914 309.54 525.591 307.325 522.687 305.551C520.54 304.239 517.821 302.746 514.644 301.117M610.24 334.802C610.023 333.703 609.796 332.604 609.559 331.508M609.559 331.508C588.92 318.67 542.969 291.847 524.27 287.255C505.571 282.664 489.621 285.175 483.984 287.005M609.559 331.508C606.495 317.371 601.726 303.506 596.648 291.187M596.648 291.187C577.478 282.347 535.903 264.267 522.963 262.669C506.788 260.67 487.021 261.083 469.887 257.558C452.753 254.033 417.51 253.301 404.554 257.122M596.648 291.187C591.987 279.877 587.064 269.87 582.96 262.152M582.96 262.152C580.825 258.136 578.911 254.74 577.371 252.102C576.177 250.055 574.377 247.794 572.144 245.408M582.96 262.152C562.346 254.826 517.218 240.364 501.612 241.118C482.104 242.061 456.628 238.719 447.553 240.481C438.478 242.244 407.472 245.696 404.997 246.177C402.522 246.657 383.822 251.762 376.764 250.683M376.764 250.683C370.106 249.01 362.447 247.037 354.257 244.895M572.144 245.408C560.948 233.443 538.855 218.328 527.488 211.252C526.53 210.005 525.489 208.779 524.374 207.574M572.144 245.408C554.966 241.321 518.044 232.273 507.778 228.785C494.946 224.425 458.004 228.173 445.629 230.576C433.254 232.98 415.104 236.504 403.554 238.748C392.004 240.991 382.104 242.913 376.833 242.224C372.617 241.672 360.026 243.775 354.257 244.895M524.374 207.574C512.572 205.869 484.842 203.26 468.342 206.464C447.717 210.47 426.611 211.999 416.367 216.558C406.123 221.117 393.89 224.255 385.145 227.714C376.399 231.173 365.657 235.829 360.38 236.854C356.159 237.673 344.555 239.927 339.281 240.951M524.374 207.574C521.171 204.113 517.362 200.832 513.164 197.759M513.164 197.759C485.693 192.815 443.479 201.87 433.739 204.619C423.999 207.367 403.19 214.834 393.932 220.059C384.673 225.283 366.975 231.242 359.57 232.681C352.164 234.119 331.048 238.775 322.219 236.403M206.13 174.376C189.012 180.284 147.228 191.143 117.037 187.321C86.8461 183.498 50.5365 176.463 36.1556 173.424M206.13 174.376C199.403 174.746 192.722 174.453 186.533 173.824M36.1556 173.424C43.9676 174.2 51.2925 174.392 56.955 173.292C59.9767 172.705 63.6394 172.166 67.6808 171.679M186.533 173.824C176.668 177.738 153.247 185.085 138.49 183.154C123.732 181.224 85.1346 174.699 67.6808 171.679M186.533 173.824C179.395 173.098 172.911 171.924 167.767 170.799M67.6808 171.679C76.6324 170.599 87.4423 169.772 97.261 169.236M167.767 170.799C161.972 173.291 147.189 177.696 134.411 175.381C121.634 173.065 104.32 170.319 97.261 169.236M410.019 104.526C395.924 98.1864 384.828 92.3964 373.369 92.1403C353.593 91.6982 326.566 89.1901 310.066 92.3946C306.575 93.0724 302.295 93.9037 297.691 94.7979M410.019 104.526C393.811 106.026 357.382 107.922 341.331 103.502C325.28 99.0813 305.549 95.8573 297.691 94.7979M410.019 104.526C413.822 106.236 417.844 107.986 422.15 109.679M297.691 94.7979C292.65 95.7768 287.222 96.8311 282.016 97.8422M422.15 109.679C407.661 111.483 372.885 114.334 349.694 111.3C326.503 108.266 294.912 101.064 282.016 97.8422M422.15 109.679C426.171 111.259 430.44 112.789 435.011 114.189M435.011 114.189C431.357 115.667 425.313 117.71 417.284 119.891M238.872 120.831C256.515 125.552 302.787 134.262 346.736 131.333C361.133 130.374 374.379 128.685 386.072 126.691M238.872 120.831C240.765 119.241 242.899 117.452 245.211 115.52M386.072 126.691C373.437 126.938 355.445 126.937 336.27 126.357M386.072 126.691C398.337 124.599 408.894 122.17 417.284 119.891M245.211 115.52C262.87 122.353 301.512 125.307 336.27 126.357M245.211 115.52C246.165 114.724 247.148 113.902 248.158 113.061M336.27 126.357C312.189 122.711 261.884 114.088 253.317 108.768M253.317 108.768C251.541 110.243 249.814 111.68 248.158 113.061M253.317 108.768C254.288 107.961 255.275 107.143 256.273 106.316M417.284 119.891C398.587 121.137 353.914 122.13 324.794 116.136C295.674 110.142 269.434 105.061 259.954 103.27M259.954 103.27C258.714 104.295 257.484 105.312 256.273 106.316M211.904 133.575C205.43 134.233 198.966 134.186 192.647 135.804C188.789 136.791 184.446 138.006 179.817 139.242M211.904 133.575C197.62 130.555 165.758 122.545 152.584 114.663M152.584 114.663C154.012 114.039 155.326 113.43 156.511 112.842C157.965 112.119 159.583 111.312 161.343 110.431M152.584 114.663C148.782 116.326 144.172 118.104 139.053 119.932M179.817 139.242C167.602 133.997 141.225 123.183 133.44 121.889M179.817 139.242C175.888 140.292 171.753 141.357 167.535 142.313M133.44 121.889C131.35 122.601 129.2 123.318 127.008 124.034M133.44 121.889C135.366 121.232 137.241 120.579 139.053 119.932M167.535 142.313C156.832 135.974 133.742 123.443 127.008 124.034M167.535 142.313C163.817 143.156 160.035 143.913 156.271 144.501M127.008 124.034C129.673 121.391 133.676 117.325 137.716 113.046M127.008 124.034C126.208 124.296 125.402 124.557 124.592 124.818M156.271 144.501C145.714 137.955 123.47 125.213 118.947 126.612M118.947 126.612C116.276 127.449 113.574 128.281 110.869 129.099M118.947 126.612C120.847 126.017 122.732 125.418 124.592 124.818M110.869 129.099C109.249 129.59 107.628 130.076 106.013 130.556M122.385 144.312C118.013 140.902 107.808 133.615 101.967 131.75M101.967 131.75C103.309 131.357 104.659 130.958 106.013 130.556M101.967 131.75C104.184 121.124 111.281 95.0724 121.935 75.8719C132.589 56.6714 137.348 39.15 138.395 32.7893M101.967 131.75C99.7816 132.39 97.6152 133.018 95.4826 133.629M248.158 113.061C222.936 119.846 207.964 113.283 201.165 113.544C194.367 113.805 181.619 117.012 161.343 110.431M161.343 110.431C162.994 109.603 164.77 108.711 166.654 107.762M256.273 106.316C250.503 108.948 236.154 113.85 224.916 112.406C210.867 110.601 193.886 106.92 186.76 105.494C181.059 104.354 173.06 105.481 169.772 106.187M169.772 106.187C172.551 104.783 175.52 103.277 178.628 101.694M169.772 106.187C168.704 106.728 167.663 107.253 166.654 107.762M299.222 67.4195C292.589 71.4692 275.597 79.7782 260.692 80.6171C244.737 81.5151 233.563 77.9373 223.679 79.5895M299.222 67.4195C300.99 64.5918 302.609 61.5828 304.104 58.4809M218.798 80.9078C224.793 77.7477 230.635 74.6353 236.07 71.6938M218.798 80.9078C220.4 80.2907 222.021 79.8666 223.679 79.5895M218.798 80.9078C216.668 82.0306 214.519 83.1594 212.362 84.2886M304.104 58.4809C297.952 62.3392 282.753 70.6181 271.172 72.8671C256.697 75.6784 247.012 69.5686 236.07 71.6938M304.104 58.4809C305.722 55.1238 307.194 51.6578 308.551 48.195M236.07 71.6938C238.129 70.5792 240.13 69.4892 242.059 68.4304M308.551 48.195C303.293 52.3569 289.312 61.3536 275.452 64.0454C258.127 67.4101 261.103 65.027 248.249 64.9997M248.249 64.9997C250.289 63.8566 252.21 62.7662 253.99 61.7392M248.249 64.9997C246.289 66.0978 244.219 67.2445 242.059 68.4304M335.165 -12.0022C323.171 -0.292612 297.476 25.8041 290.652 36.514M335.165 -12.0022C332.176 -11.8582 329.023 -11.7595 325.8 -11.7312M290.652 36.514C285.26 40.5802 279.881 44.5599 274.925 48.1067M325.8 -11.7312L274.925 48.1067M325.8 -11.7312C323.537 -11.7114 321.24 -11.7264 318.941 -11.7848M274.925 48.1067C272.27 50.0068 269.737 51.7826 267.388 53.3809M318.941 -11.7848L267.388 53.3809M318.941 -11.7848C316.333 -11.8511 313.724 -11.9734 311.162 -12.1645M267.388 53.3809C265.183 54.8814 263.141 56.2255 261.313 57.3689C259.286 58.6376 256.816 60.1086 253.99 61.7392M311.162 -12.1645C299.388 4.32906 271.47 42.2008 253.99 61.7392M289.382 -14.1071C278.332 -1.94469 255.327 24.7826 251.715 34.3926C247.198 46.4051 227.572 73.1872 223.679 79.5895M289.382 -14.1071C285.051 -14.1221 280.761 -13.8691 276.667 -13.4521M276.667 -13.4521C267.553 -1.63193 247.988 24.8374 242.646 36.1537C235.969 50.2991 231.609 61.7856 212.362 84.2886M276.667 -13.4521C272.84 -13.0621 269.186 -12.5289 265.832 -11.9373M212.362 84.2886C208.528 86.2958 204.668 88.3044 200.848 90.2836M265.832 -11.9373C257.765 -10.5142 251.44 -8.75381 248.649 -7.84058C247.183 -7.36078 245.548 -7.29233 243.603 -7.37514M265.832 -11.9373C257.407 -1.84559 239.158 22.2538 233.564 37.9175C226.573 57.4972 215.423 77.5842 200.848 90.2836M200.848 90.2836C193.105 94.2945 185.521 98.1841 178.628 101.694M243.603 -7.37514C235.706 2.97523 218.779 27.7886 214.245 44.2392C209.711 60.6898 188.611 89.3968 178.628 101.694M243.603 -7.37514C241.065 -7.48317 238 -7.8487 234.092 -7.89426M234.092 -7.89426C223.712 4.81919 206.405 47.9533 201.135 60.4904C196.919 70.5202 176.391 96.1836 166.654 107.762M234.092 -7.89426C229.71 -7.94536 224.269 -7.59408 217.325 -6.02609M217.325 -6.02609C205.522 11.0769 181.058 47.9192 177.626 58.4646C173.338 71.6464 150.345 110.921 139.053 119.932M198.746 -0.304517C188.749 15.1261 167.823 48.4424 164.09 58.2627C159.424 70.538 152.434 92.014 137.716 113.046M198.746 -0.304517C195.401 0.852921 192.087 2.03717 188.817 3.26484M188.817 3.26484C178.908 20.9867 158.561 57.9502 156.448 64.0297C153.807 71.629 138.119 113.242 124.592 124.818M188.817 3.26484C174.114 8.78483 160.308 15.1827 148.668 23.9688M106.013 130.556C108.523 121.437 115.112 99.8104 121.384 86.2578C129.223 69.317 146.678 40.1735 148.668 23.9688M148.668 23.9688C146.104 25.904 143.645 27.955 141.305 30.1381C140.367 31.0134 139.395 31.8975 138.395 32.7893M138.395 32.7893C135.421 35.4418 132.196 38.1615 128.844 40.9139M128.844 40.9139C127.368 50.9477 121.461 75.1959 109.641 91.9186C97.8211 108.641 95.2771 126.694 95.4826 133.629M128.844 40.9139C125.714 43.4833 122.473 46.0811 119.222 48.6791M119.222 48.6791C117.242 50.2615 115.258 51.8438 113.294 53.4199M113.294 53.4199C111.222 61.8656 105.32 81.1544 98.2809 90.7446C91.2419 100.335 85.3645 125.613 83.3057 137.053M113.294 53.4199C110.002 56.0606 106.764 58.6835 103.687 61.2587M83.3057 137.053C80.9791 137.694 78.7441 138.303 76.627 138.874M76.627 138.874C78.2533 130.769 82.739 112.094 87.6718 102.227C93.8378 89.8943 105.098 68.5246 103.687 61.2587M103.687 61.2587C100.27 64.1178 97.0516 66.918 94.178 69.6184M94.178 69.6184C90.4154 73.1542 87.2441 76.5188 84.9935 79.62C83.5189 81.6518 82.0546 83.7361 80.6235 85.8419M94.178 69.6184C94.6813 74.8296 93.3606 88.4452 84.0512 101.217C74.7417 113.989 71.7814 133.866 71.4649 142.207L64.5934 131.752M64.5934 131.752C63.4876 127.436 62.7984 122.672 63.516 118.91C64.9659 111.31 72.2221 98.2042 80.6235 85.8419M64.5934 131.752C70.23 122.152 77.6287 97.1455 80.6235 85.8419M74.2559 15.7494C67.2641 22.2831 48.8717 36.4527 31.2358 40.862M74.2559 15.7494C73.318 22.0789 71.2253 29.3681 67.5979 36.7436M31.2358 40.862C28.7095 43.5261 26.3623 45.9789 24.2655 48.1961M31.2358 40.862C33.095 31.3326 38.1562 9.49027 43.5276 -1.64441C48.899 -12.7791 59.4068 -35.9641 63.9894 -46.1647M31.2358 40.862C34.2886 37.6426 37.6029 34.1146 41.0528 30.3209M67.5979 36.7436C65.1656 41.6891 62.0433 46.6736 58.1164 51.4335C55.9216 54.0939 53.4047 57.0844 50.704 60.2342M67.5979 36.7436C59.3256 43.7051 36.372 58.8728 10.7369 63.8513M10.7369 63.8513C12.9143 61.265 14.8347 58.9252 16.3853 56.9684C18.1657 54.7216 20.8914 51.7638 24.2655 48.1961M10.7369 63.8513C7.52531 67.6662 3.75488 72.0173 -0.211649 76.4665M10.7369 63.8513C15.0882 52.2264 24.2358 25.9777 26.0156 13.9827C28.2404 -1.01105 39.8138 -32.1958 45.6103 -39.4107M50.704 60.2342C38.746 66.2019 11.8217 77.8033 -0.211649 76.4665M50.704 60.2342C42.0374 70.3419 31.4785 82.0895 23.6018 89.8297M-0.211649 76.4665C8.78402 79.7947 30.4519 75.9395 40.1614 73.5959M-0.211649 76.4665C-4.1858 80.9243 -8.3568 85.4807 -12.3598 89.6949M-0.211649 76.4665C5.62696 64.1972 17.7538 35.8023 19.5524 20.3774C21.8007 1.09618 32.7214 -27.3723 37.0181 -35.1624M23.6018 89.8297C20.758 92.6243 18.2638 94.8965 16.3345 96.3805C8.47082 102.429 -5.0521 116.87 -18.209 125.7M23.6018 89.8297C15.616 92.7551 -4.18467 98.2867 -19.5004 97.0099M-19.5004 97.0099C-20.8086 98.3064 -22.0664 99.5243 -23.2572 100.643M-19.5004 97.0099C-17.2416 94.7714 -14.8328 92.2984 -12.3598 89.6949M-83.8913 145.583C-81.2925 136.583 -75.1177 114.8 -71.2086 99.6622M-83.8913 145.583C-81.3399 143.791 -78.8266 142.029 -76.4407 140.377M-71.2086 99.6622C-69.6361 96.1921 -68.0191 92.7182 -66.3692 89.3149C-64.4237 85.3022 -62.479 81.4235 -60.546 77.6952M-76.4407 140.377C-71.9449 124.994 -62.4719 90.9211 -60.546 77.6952M-76.4407 140.377C-73.5997 138.41 -70.9392 136.6 -68.61 135.084M-60.546 77.6952C-57.8719 72.5372 -55.2202 67.6671 -52.6203 63.128M-68.61 135.084C-63.2288 117.24 -52.4971 77.8683 -52.6203 63.128M-52.6203 63.128C-49.5264 57.7268 -46.5058 52.7944 -43.6075 48.4039M-59.049 129.009C-54.0095 109.128 -43.8658 65.1737 -43.6075 48.4039M-59.049 129.009C-57.7075 128.093 -56.3316 127.122 -54.9323 126.109M-54.9323 126.109C-49.8577 122.434 -44.4748 118.201 -39.3078 114.042M-39.3078 114.042C-32.612 89.7427 -18.0559 34.7976 -13.3977 9.41101M-39.3078 114.042C-36.8046 112.027 -34.3521 110.029 -32.0099 108.121M-13.3977 9.41101C-11.3199 7.07882 -9.32503 5.00522 -7.49626 3.35964M-32.0099 108.121C-30.7076 107.06 -29.4395 106.026 -28.2157 105.033C-26.7622 103.852 -25.0891 102.365 -23.2572 100.643M-32.0099 108.121C-24.5325 80.7588 -9.16139 21.4997 -7.49626 3.35964M-7.49626 3.35964C-5.59372 1.64769 -3.87092 0.398992 -2.42155 -0.195622C-0.92684 -0.808842 0.505212 -1.74472 1.90837 -2.91797M-23.2572 100.643C-16.3826 73.4989 -1.72509 14.7845 1.90837 -2.91797M1.90837 -2.91797C7.94891 -7.96876 13.4538 -17.4191 21.1165 -24.468C23.1735 -26.3604 25.7156 -28.2656 28.4935 -30.0998M-12.3598 89.6949C-7.00215 77.6078 4.65778 49.4811 8.43639 33.6716C13.1596 13.9098 21.431 -17.5091 28.4935 -30.0998M28.4935 -30.0998C31.1889 -31.8797 34.1063 -33.5927 37.0181 -35.1624M37.0181 -35.1624C39.9668 -36.752 42.9097 -38.1946 45.6103 -39.4107M45.6103 -39.4107C50.1103 -41.437 53.9373 -42.8342 55.9973 -43.2342C56.8017 -43.3904 57.9107 -43.6889 59.2429 -44.1555M24.2655 48.1961C27.3929 33.7278 34.7802 2.68697 39.3095 -5.73049C43.8388 -14.1479 54.4856 -34.8544 59.2429 -44.1555M59.2429 -44.1555C60.6172 -44.6368 62.2292 -45.2971 63.9894 -46.1647M63.9894 -46.1647C64.9811 -46.6536 66.0199 -47.2082 67.0897 -47.8338M41.0528 30.3209C42.0686 22.7475 45.1054 5.53426 49.1259 -2.73167C54.1515 -13.0641 64.5936 -38.6589 67.0897 -47.8338" stroke="#91942D" stroke-width="2"/>
</svg>
