<svg width="617" height="476" viewBox="0 0 617 476" fill="none" xmlns="http://www.w3.org/2000/svg">
<path d="M668.68 386.999C656.08 384.443 613.247 373.402 602.33 370.01C595.904 368.013 583.362 365.418 572.932 363.618M668.68 386.999C671.066 387.482 674.204 388.119 677.92 388.828M668.68 386.999C665.125 383.622 658.558 377.188 653.591 371.8M677.92 388.828C693.824 391.862 720.29 396.222 743.455 395.601C772.031 394.834 787.159 394.873 801.452 392.387C815.746 389.901 838.452 384.074 842.656 383.244C846.861 382.414 872.095 374.071 872.086 377.434C873.202 379.399 871.898 385.17 857.76 392.533C843.382 400.021 810.102 402.451 778.73 404.405M677.92 388.828C672.057 380.923 658.994 362.42 653.644 351.644C646.955 338.172 644.471 323.871 643.676 306.211C642.881 288.551 633.71 259.938 625.348 243.94C620.609 234.875 612.799 217.957 606.667 204.371M648.564 365.925C643.539 359.185 625.126 329.707 615.934 309.503C606.741 289.298 605.946 271.638 605.128 263.228C604.309 254.817 600.187 223.694 600.274 190.06C601.899 193.744 604.141 198.775 606.667 204.371M648.564 365.925C649.744 367.507 651.529 369.563 653.591 371.8M648.564 365.925C643.537 360.05 636.866 339.828 636.894 328.841C636.922 317.854 625.209 297.755 621.026 289.985C616.844 282.216 618.583 259.899 613.577 245.591C609.573 234.145 609.488 219.514 609.947 213.629M752.673 405.999C754.38 405.929 756.063 405.839 757.716 405.728C764.454 405.275 771.542 404.852 778.73 404.405M752.673 405.999C748.616 414.604 724.046 426.142 712.268 430.836C734.977 424.168 747.587 422.519 757.683 418.341C765.76 414.998 775.08 407.657 778.73 404.405M752.673 405.999C734 406.766 712.328 405.176 693.851 403.137M674.527 400.725C666.51 399.611 660.044 398.575 656.045 397.897C643.438 395.761 606.899 385.38 586.338 379.528M674.527 400.725C664.152 404.536 641.049 412.153 631.636 412.129C619.87 412.098 602.22 412.894 586.239 417.897C584.317 418.499 582.347 419.234 580.35 420.071M674.527 400.725C675.619 400.876 676.74 401.03 677.888 401.183M580.117 510.376C583.264 507.725 586.691 504.519 590.338 500.818M580.117 510.376C583.551 482.132 605.777 442.867 616.46 426.764M580.117 510.376C573.092 516.292 562.253 526.35 553.164 533.24M693.851 403.137C673.848 405.448 661.898 409.684 656 415.555C650.986 420.546 639.867 438.279 627.321 455.857M693.851 403.137C688.167 402.51 682.786 401.84 677.888 401.183M453.524 549.57C451.258 554.178 448.835 558.741 446.354 563.005C437.068 578.957 434.503 595.768 434.494 599.131C442.017 584.176 453.939 577.055 463.134 573.857M453.524 549.57C459.738 536.937 464.777 523.974 466.645 515.969C467.078 514.117 467.655 512.144 468.386 510.088M453.524 549.57C467.491 530.729 487.14 514.552 503.779 502.205M627.408 422.208C620.022 418.522 592.958 419.247 580.35 420.071M627.408 422.208C628.646 421.769 630.061 421.226 631.614 420.601M627.408 422.208C625.421 422.912 623.29 423.76 621.06 424.714M677.888 401.183C671.613 403.021 659.795 408.298 648.636 413.252M261.149 33.6238C277.531 33.6662 292.265 41.0398 305.66 45.5319M261.149 33.6238C282.399 49.0946 326.41 81.3853 332.447 86.7825C338.484 92.1796 377.392 112.685 396.091 122.263M261.149 33.6238C263.98 37.6107 266.305 42.1007 268.235 46.8749M563.691 362.159C560.643 361.736 558.26 361.487 556.97 361.484C551.087 361.469 510.79 344.547 502.393 342.003C493.995 339.459 459.571 326.757 448.654 323.365C443.788 321.853 437.585 321.006 431.012 320.603M563.691 362.159C559.218 358.565 548.598 349.018 541.899 339.583C533.525 327.789 507.505 315.109 495.754 309.192C484.004 303.276 433.616 288.851 415.982 282.919C399.943 277.524 367.265 252.605 348.876 233.557M563.691 362.159C564.983 362.338 566.394 362.548 567.892 362.784M563.691 362.159C546.126 329.977 511.731 305.87 501.657 301.489C491.583 297.108 443.729 277.946 425.251 273.694C410.468 270.292 368.175 245.518 348.876 233.557M472.72 116.575C460.998 99.7277 436.678 79.4841 425.766 74.4108C419.568 71.5293 410.125 65.3844 401.432 59.6839M472.72 116.575C484.758 143.036 509.028 210.864 509.811 270.492M472.72 116.575C476.672 122.255 481.386 128.605 486.123 135.109M572.932 363.618C565.393 353.918 552.865 323.635 547.853 311.85C546.853 309.497 545.721 305.937 544.518 301.6M572.932 363.618C571.179 363.315 569.486 363.035 567.892 362.784M504.685 162.905C506.336 165.891 507.712 168.72 508.717 171.324C510.52 176 512.879 182.518 515.401 189.841M504.685 162.905C503.819 153.654 502.107 127.582 502.185 97.3116C502.263 67.0407 508.473 48.8381 511.569 43.5207C511.538 55.4846 513.207 66.788 515.57 77.1655M504.685 162.905C499.971 154.38 493.023 144.581 486.123 135.109M504.685 162.905C508.793 177.255 515.946 210.018 519.251 248.711M533.853 255.476C534.035 239.5 538.874 209.241 538.944 182.334C538.979 168.493 536.779 159.542 534.639 152.052M533.853 255.476C533.592 267.554 532.5 294.391 530.222 305.116M533.853 255.476C535.564 263.475 537.494 272.481 539.442 281.02M533.853 255.476C532.935 251.183 532.08 247.181 531.321 243.697M1.54327 1C5.75856 13.7624 16.5433 23.5577 30.8833 29.8751M1.54327 1C2.96082 9.46474 5.00304 26.6261 5.54853 46.1959M1.54327 1C18.1781 49.1113 40.7822 86.4637 59.7334 111.303M4.70061 80.0492C5.08051 75.7158 5.33838 71.3326 5.49486 66.9606M4.70061 80.0492C19.165 95.7827 56.7596 130.804 91.4229 145.02M4.70061 80.0492C4.31177 84.4847 4.13458 88.9843 4.13469 93.5016M339.504 282.722C321.015 282.674 281.516 282.572 271.431 282.546C268.695 282.539 264.93 282.529 260.505 282.56M339.504 282.722C363.682 292.874 392.094 312.437 403.278 320.949M339.504 282.722L431.012 320.603M339.504 282.722C335.551 280.731 331.612 278.64 327.708 276.444M403.278 320.949C390.48 321.819 375.484 323.451 365.444 326.514C363.857 326.998 362.153 327.544 360.398 328.126M403.278 320.949C404.417 320.871 405.54 320.8 406.64 320.734C414.094 320.287 422.839 320.102 431.012 320.603M212.131 139.446C236.42 171.461 241.417 189.132 260.673 217.771C275.048 239.152 295.055 256.33 316.846 269.993M212.131 139.446C195.732 117.831 176.643 100.042 158.484 85.312M212.131 139.446C217.422 151.512 229.175 178.338 233.853 189.113C239.702 202.582 253.805 238.868 260.61 242.203M331.708 372.674C298.148 350.725 264.549 343.911 230.954 335.415C204.078 328.619 147.474 334.639 122.532 338.499C126.404 340.199 130.029 341.982 133.444 343.81M331.708 372.674C330.387 373.407 328.863 374.25 327.171 375.185M331.708 372.674C340.412 367.428 348.356 367.168 356.093 367.89M223.051 466.569C215.643 471.259 197.522 480.798 189.387 484.981C193.364 485.226 199.736 485.838 207.031 486.913M223.051 466.569C228.325 463.231 235.266 447.894 244.773 432.991M223.051 466.569C231.582 462.105 245.91 454.784 260.078 447.91M238.947 494.359C236.284 493.392 233.458 492.51 230.55 491.709M238.947 494.359C246.805 489.054 265.05 475.255 275.168 462.5C287.815 446.556 303.828 429.138 313.922 425.982M238.947 494.359C243.015 495.836 247.274 496.966 251.545 497.823M333.892 503.013C330.188 503.482 326.841 503.73 323.805 503.814M333.892 503.013C347.72 489.391 376.687 459.919 381.931 451.004C388.486 439.86 402.177 421.626 408.918 414.916C412 411.849 418.528 406.926 424.918 402.365M333.892 503.013C336.989 502.621 340.074 502.218 343.14 501.79M498.912 388.241C519.086 386.612 540.93 389.191 553.543 386.701C563.633 384.709 579.61 381.089 586.338 379.528M498.912 388.241C496.24 388.4 493.186 388.595 489.845 388.825M498.912 388.241C499.434 390.489 500.052 394.17 500.277 398.137M427.524 369.558C422.859 368.612 417.869 368.119 412.789 367.918M427.524 369.558C433.67 376.04 447.642 389.562 454.36 391.8M427.524 369.558C433.45 370.76 439.793 372.497 446 374.649M475.375 389.909C468.319 383.935 457.389 378.596 446 374.649M475.375 389.909C473.721 390.043 472.037 390.183 470.332 390.328M475.375 389.909C472.551 399.67 465.384 420.623 459.316 426.358C451.731 433.526 434.026 455.109 430.629 469.091M475.375 389.909C477.977 389.699 480.508 389.503 482.941 389.321M586.338 379.528C582.238 378.362 578.773 377.375 576.26 376.669C566.331 373.882 550.612 367.09 536.229 362.744M301.028 389.459C290.748 395.012 279.958 400.763 271.114 405.311C266.235 407.819 261.757 411.538 257.639 415.931M301.028 389.459C296.21 389.446 288.574 389.426 280.399 389.405M301.028 389.459C301.719 389.085 302.408 388.713 303.093 388.342M195.976 211.718C197.002 212.099 198.418 212.683 200.174 213.444M195.976 211.718C185.098 193.471 161.17 151.759 152.483 130.883C143.797 110.007 113.487 74.1834 99.4173 58.8811M195.976 211.718C194.677 211.235 192.977 210.467 190.939 209.453M316.846 269.993C303.403 268.576 272.818 266.068 258.023 267.375C243.229 268.683 221.013 279.865 211.754 285.292M316.846 269.993C276.517 265.808 245.894 277.062 235.624 283.213M316.846 269.993C320.424 272.237 324.051 274.386 327.708 276.444M316.846 269.993C303.994 263.581 285.989 254.653 267.721 245.688M305.66 45.5319C311.507 47.4924 317.098 48.904 322.46 48.9179C325.399 48.9254 328.829 48.7944 332.546 48.594M305.66 45.5319C329.27 62.6771 351.591 81.3641 371.075 98.9255M567.892 362.784C562.646 356.492 553.756 343.048 544.449 328.234M360.398 328.126C352.478 330.752 343.499 334.1 339.368 335.696C342.731 334.863 370.463 335.776 382.22 339.17C392.679 342.189 404.472 343.881 415.824 344.24M360.398 328.126C363.491 328.248 366.584 328.543 369.64 328.973M415.824 344.24C417.232 344.285 418.634 344.309 420.026 344.313C432.632 344.345 440.185 348.569 451.944 351.122C456.78 352.172 465.594 353.659 475.466 355.049M415.824 344.24C413.968 343.289 410.767 341.706 406.59 339.894M332.546 48.594C341.766 57.8844 362.381 80.9573 371.075 98.9255M332.546 48.594C336.249 48.3944 340.239 48.126 344.314 47.8575M371.075 98.9255C376.062 103.421 380.864 107.842 385.453 112.145M344.314 47.8575C354.175 58.3456 376.209 85.8866 385.453 112.145M344.314 47.8575C348.498 47.5817 352.773 47.3059 356.922 47.1042M385.453 112.145C389.14 115.602 392.691 118.983 396.091 122.263M356.922 47.1042C367.536 59.2321 391.262 92.247 401.257 127.283M356.922 47.1042C360.111 46.9492 363.225 46.838 366.167 46.8043M401.257 127.283C410.856 136.677 419.076 145.09 425.565 151.921M401.257 127.283C399.576 125.639 397.854 123.964 396.091 122.263M366.167 46.8043C374.393 46.7102 381.27 47.2225 384.651 49.0786C388.639 51.2686 394.819 55.3477 401.432 59.6839M366.167 46.8043C383.478 69.274 419.592 121.755 425.565 151.921M425.565 151.921C429.622 156.19 433.003 159.841 435.623 162.727C441.286 168.965 450.155 180.872 459.915 194.742M425.565 151.921C415.497 145.319 360.956 112.009 349.205 106.166C339.805 101.491 291.308 64.6908 268.235 46.8749M401.432 59.6839C418.73 87.6002 454.644 153.695 459.915 194.742M459.915 194.742C462.032 197.751 464.191 200.853 466.368 204.009M509.811 270.492C510.588 271.794 511.259 272.942 511.813 273.918C512.907 275.843 514.278 278.225 515.87 280.959M509.811 270.492C508.541 268.366 506.99 265.832 505.207 262.969M527.608 228.552C528.717 232.559 529.668 236.267 530.392 239.49C530.682 240.784 530.992 242.192 531.321 243.697M527.608 228.552C527.669 247.612 527.362 288.084 525.64 297.497M527.608 228.552C527.053 226.548 526.459 224.47 525.834 222.341M525.64 297.497C524.783 296.064 523.944 294.658 523.129 293.287M525.64 297.497C526.225 298.476 526.82 299.467 527.422 300.469M530.222 305.116C532.215 308.413 534.271 311.791 536.352 315.183M530.222 305.116C529.273 303.547 528.338 301.995 527.422 300.469M539.442 281.02C539.306 288.486 538.499 305.771 536.352 315.183M539.442 281.02C541.168 288.59 542.907 295.792 544.518 301.6M536.352 315.183C539.034 319.555 541.759 323.952 544.449 328.234M536.352 315.183C524.894 301.756 511.763 293.257 509.761 289.698C507.759 286.138 443.782 257.348 416.063 251.808C393.887 247.375 351.756 220.108 333.462 207.028M544.518 301.6C543.387 305.849 541.789 317.125 544.449 328.234M486.123 135.109C496.063 157.76 515.929 218.643 515.87 280.959M515.87 280.959C517.399 283.586 519.132 286.539 521.017 289.727M521.017 289.727C521.053 275.696 520.375 261.861 519.251 248.711M521.017 289.727C521.702 290.884 522.406 292.072 523.129 293.287M520.188 204.148C521.174 214.241 522.367 237.283 519.251 248.711M520.188 204.148C518.592 199.234 516.965 194.383 515.401 189.841M520.188 204.148C522.179 210.277 524.122 216.502 525.834 222.341M515.57 77.1655C514.204 105.191 512.258 166.961 515.401 189.841M515.57 77.1655C518.65 90.6911 522.909 102.644 526.119 112.436M526.119 112.436C528.754 120.476 530.682 127.059 530.67 131.861C530.651 139.211 532.618 144.98 534.639 152.052M526.119 112.436C523.577 131.86 519.963 181.036 525.834 222.341M534.639 152.052C532.732 161.857 529.399 193.913 531.321 243.697M606.667 204.371C607.659 207.144 608.763 210.258 609.947 213.629M653.591 371.8C647.742 358.679 639.434 321.559 636.964 301.839C635.199 287.75 619.822 241.764 609.947 213.629M268.235 46.8749C271.164 54.1223 273.183 62.0247 274.675 69.8159M274.675 69.8159C298.421 90.8988 350.921 135.264 370.958 144.061C396.006 155.057 462.897 198.954 466.368 204.009M274.675 69.8159C275.328 73.2234 275.88 76.6097 276.364 79.9106M466.368 204.009C471.886 212.006 477.521 220.354 482.888 228.436M276.364 79.9106C300.612 101.275 353.472 146.202 370.93 154.992C392.753 165.979 472.927 213.275 482.888 228.436M276.364 79.9106C276.965 84.0083 277.46 87.9746 277.912 91.6867M482.888 228.436C486.354 233.656 489.709 238.765 492.849 243.597M277.912 91.6867C278.959 100.29 279.771 107.528 281.117 111.876C283.336 119.046 289.365 127.179 294.895 134.615M277.912 91.6867C301.068 115.291 351.075 163.349 365.857 166.751C384.336 171.003 433.84 202.243 443.911 207.314C453.983 212.385 492.849 243.597 492.849 243.597M492.849 243.597C496.09 248.586 499.102 253.28 501.771 257.498M294.895 134.615C299.75 141.142 304.219 147.132 305.387 151.459C305.668 152.5 305.874 153.627 306.044 154.824M294.895 134.615C320.822 150.658 375 183.423 384.296 186.138C395.917 189.532 453.382 215.948 459.844 222.171C466.305 228.393 496.25 248.658 501.771 257.498M501.771 257.498C502.992 259.427 504.141 261.257 505.207 262.969M306.044 154.824C329.596 169.46 380.9 199.583 397.7 202.99C418.699 207.249 498.592 255.441 505.207 262.969M306.044 154.824C306.692 159.388 306.811 164.979 308.527 170.807M308.527 170.807C310.361 177.037 314.019 183.537 322.097 189.341C324.586 191.129 326.471 192.798 327.92 194.401M308.527 170.807C322.007 180.198 355.011 201.286 379.191 210.51C409.416 222.04 489.161 258.723 495.865 266.309C502.569 273.894 515.405 285.009 523.129 293.287M327.92 194.401C349.757 205.949 396.621 230.063 409.385 234.132C425.34 239.219 469.825 264.446 485.773 270.43C498.532 275.217 518.855 292.451 527.422 300.469M327.92 194.401C331.853 198.749 332.582 202.608 333.462 207.028M333.462 207.028C334.554 212.513 335.879 218.86 343.848 228.077C345.363 229.829 347.049 231.664 348.876 233.557M30.8833 29.8751C33.5643 31.0562 36.3695 32.1157 39.2793 33.0503C44.1119 34.6025 51.1867 36.3907 59.4353 38.5023M30.8833 29.8751C43.725 47.2161 71.4113 87.2849 79.4236 108.832C87.436 130.378 95.9326 145.872 99.1794 150.926M30.8833 29.8751C70.2617 76.8552 83.6409 102.957 88.6465 117.264C93.652 131.572 102.627 150.935 107.344 156.833M30.8833 29.8751C77.0045 69.3049 87.8691 92.8771 96.2319 108.875C104.595 124.873 115.475 142.559 121.336 150.983C126.025 157.722 127.058 166.694 126.989 170.338M99.1794 150.926C101.729 152.811 104.465 154.789 107.344 156.833M99.1794 150.926C96.3443 148.83 93.7392 146.849 91.4229 145.02M107.344 156.833C93.3672 156.797 88.553 153.421 79.3215 148.352C72.6012 144.662 26.1176 110.936 4.13469 93.5016M107.344 156.833C110.958 159.399 114.798 162.069 118.779 164.789M126.989 170.338C140.794 179.57 155.535 188.96 168.054 196.51M126.989 170.338C124.206 168.476 121.46 166.621 118.779 164.789M59.4353 38.5023C67.6477 44.1405 80.7049 53.7561 92.9859 64.1499M59.4353 38.5023C64.9023 39.9019 70.8849 41.4435 77.0721 43.1527M179.528 203.267C176.509 201.559 164.966 178.844 158.273 167.055C152.5 156.887 139.279 126.058 127.161 103.723M179.528 203.267C176.015 201.259 172.154 198.983 168.054 196.51M179.528 203.267C182.832 205.156 185.828 206.809 188.421 208.166M92.9859 64.1499C104.96 74.2836 116.195 85.157 121.483 93.8049C123.325 96.8162 125.229 100.162 127.161 103.723M92.9859 64.1499C101.078 76.5538 119.768 107.254 129.792 130.824C142.322 160.287 165.239 194.821 168.054 196.51M77.0721 43.1527C97.2371 48.7233 119.576 56.074 133.321 66.087C141.224 71.8441 149.746 78.2239 158.484 85.312M77.0721 43.1527C82.564 46.5626 90.5718 52.0343 99.4173 58.8811M200.174 213.444C196.273 205.294 187.301 186.302 182.623 175.527C176.775 162.058 168.202 139.332 145.825 105.64C134.283 88.2616 115.471 71.3069 99.4173 58.8811M200.174 213.444C204.195 215.186 209.997 217.855 216.962 221.14M127.161 103.723C149.113 134.238 158.684 156.966 168.115 172.966C175.659 185.767 184.796 201.766 188.421 208.166M188.421 208.166C189.309 208.63 190.15 209.06 190.939 209.453M158.484 85.312C170.482 103.902 196.484 145.123 204.511 161.289C212.537 177.454 233.045 216.019 242.296 233.281M242.296 233.281C240.824 232.568 239.367 231.862 237.927 231.166M242.296 233.281C245.428 234.799 248.625 236.353 251.859 237.929M260.61 242.203C257.676 240.768 254.753 239.34 251.859 237.929M260.61 242.203C262.977 243.361 265.351 244.525 267.721 245.688M211.754 285.292C209.076 285.667 206.535 286.093 204.187 286.576C184.006 290.728 147.87 289.794 133.592 286.394C122.206 283.682 91.6161 267.018 72.9073 246.716M211.754 285.292C219.078 284.266 227.423 283.619 235.624 283.213M235.624 283.213C244.6 282.768 253.403 282.611 260.505 282.56M260.505 282.56C269.45 278.151 295.414 270.755 327.708 276.444M5.54853 46.1959C15.3848 61.4305 39.9925 95.7805 59.7334 111.303M5.54853 46.1959C5.73591 52.9182 5.74668 59.9248 5.49486 66.9606M59.7334 111.303C65.5861 118.975 71.0904 125.452 75.9629 130.685M5.49486 66.9606C17.5018 81.4456 48.4051 114.469 75.9629 130.685M75.9629 130.685C79.0486 133.999 81.8809 136.813 84.3879 139.116C86.2407 140.817 88.6205 142.807 91.4229 145.02M4.13469 93.5016C4.13471 94.6219 4.14564 95.7433 4.16695 96.8651M4.16695 96.8651C21.9363 113.448 61.84 148.643 79.2997 156.761C96.7595 164.878 112.894 165.495 118.779 164.789M4.16695 96.8651C4.44171 111.328 6.44193 125.853 9.04446 138.921M9.04446 138.921C26.1459 151.298 63.4455 177.068 75.8325 181.137C91.3164 186.222 110.791 189.636 126.922 196.404C143.052 203.173 177.489 210.699 190.939 209.453M9.04446 138.921C11.4337 150.918 14.3305 161.687 16.866 170.053M16.866 170.053C18.1852 174.406 19.4065 178.107 20.4077 180.993C21.1844 183.232 22.5134 185.798 24.2433 188.571M16.866 170.053C35.6759 181.223 77.1603 204.131 92.6181 206.406C111.94 209.249 136.291 217.45 145.536 217.474C154.781 217.498 185.869 220.101 188.391 220.107C190.912 220.114 210.245 218.717 216.962 221.14M216.962 221.14C223.171 224.067 230.305 227.483 237.927 231.166M24.2433 188.571C32.9175 202.473 51.6739 221.571 61.4597 230.71C62.1592 232.119 62.9438 233.524 63.8045 234.921M24.2433 188.571C40.308 195.9 74.787 211.909 84.1857 217.315C95.9341 224.073 132.904 227.532 145.51 227.564C158.116 227.597 176.605 227.644 188.371 227.675C200.137 227.705 210.222 227.731 215.26 229.426C219.291 230.782 232.051 231.151 237.927 231.166M63.8045 234.921C75.0551 238.874 101.758 246.791 118.567 246.834C139.577 246.889 160.581 249.465 171.513 246.971C182.445 244.477 195.053 243.762 204.302 242.057C213.551 240.353 224.991 237.86 230.366 237.874C234.666 237.885 246.486 237.915 251.859 237.929M63.8045 234.921C66.2782 238.936 69.3818 242.891 72.9073 246.716M72.9073 246.716C98.9055 256.874 142.074 256.145 152.162 255.33C162.249 254.515 184.108 251.208 194.202 247.871C204.295 244.533 222.811 242.105 230.355 242.125C237.899 242.144 259.516 241.655 267.721 245.688M369.64 328.973C387.577 326.483 430.672 323.901 459.556 333.484C488.44 343.067 522.706 356.983 536.229 362.744M369.64 328.973C376.312 329.91 382.811 331.488 388.761 333.301M536.229 362.744C528.714 360.473 521.564 358.87 515.796 358.855C512.718 358.847 509.02 358.668 504.961 358.366M388.761 333.301C399.197 331.366 423.596 328.682 437.703 333.427C451.809 338.173 488.419 352.03 504.961 358.366M388.761 333.301C395.625 335.392 401.76 337.797 406.59 339.894M504.961 358.366C495.969 357.696 485.203 356.419 475.466 355.049M406.59 339.894C412.757 338.568 428.112 337.102 440.202 341.842C452.292 346.582 468.748 352.622 475.466 355.049M156.098 358.12C168.703 367.062 178.472 374.887 189.665 377.352C208.984 381.606 235.017 389.288 251.825 389.331C255.381 389.341 259.741 389.352 264.431 389.364M156.098 358.12C172.291 359.778 208.4 364.955 223.295 372.393C238.189 379.832 256.925 386.806 264.431 389.364M156.098 358.12C152.697 355.707 149.089 353.212 145.192 350.72M264.431 389.364C269.566 389.377 275.096 389.392 280.399 389.405M145.192 350.72C159.756 351.749 194.427 355.67 216.595 363.127C238.763 370.584 268.368 383.753 280.399 389.405M145.192 350.72C141.551 348.392 137.658 346.066 133.444 343.81M133.444 343.81C137.314 343.066 143.639 342.229 151.938 341.64M327.171 375.185C310.773 367.144 267.055 349.659 223.368 344.042C209.056 342.202 195.735 341.3 183.876 340.998M327.171 375.185C325.007 376.379 322.568 377.721 319.925 379.17M183.876 340.998C196.32 343.197 213.974 346.673 232.676 350.946M183.876 340.998C171.438 340.681 160.61 341.025 151.938 341.64M319.925 379.17C303.92 369.055 266.575 358.692 232.676 350.946M319.925 379.17C318.836 379.768 317.712 380.383 316.559 381.014M232.676 350.946C255.599 359.176 303.29 377.354 310.668 384.23M310.668 384.23C312.696 383.125 314.667 382.049 316.559 381.014M310.668 384.23C309.559 384.834 308.433 385.446 307.294 386.064M151.938 341.64C170.523 344.03 214.547 351.686 241.961 363.192C269.374 374.699 294.138 384.753 303.093 388.342M303.093 388.342C304.509 387.576 305.911 386.815 307.294 386.064M356.093 367.89C362.572 368.495 368.906 369.79 375.418 369.423C379.394 369.2 383.889 368.847 388.67 368.528M356.093 367.89C369.525 373.612 399.239 387.627 410.642 397.905M410.642 397.905C409.12 398.242 407.713 398.585 406.438 398.934C404.871 399.362 403.128 399.841 401.231 400.366M410.642 397.905C414.694 397.009 419.561 396.154 424.936 395.35M388.67 368.528C399.642 376.035 423.433 391.741 430.821 394.514M388.67 368.528C392.728 368.258 396.991 368.011 401.315 367.888M430.821 394.514C433.01 394.219 435.258 393.931 437.547 393.652M430.821 394.514C428.805 394.786 426.839 395.065 424.936 395.35M401.315 367.888C410.592 376.175 430.825 392.931 437.547 393.652M401.315 367.888C405.125 367.779 408.982 367.767 412.789 367.918M437.547 393.652C434.421 395.73 429.708 398.946 424.918 402.365M437.547 393.652C438.382 393.55 439.223 393.449 440.069 393.349M412.789 367.918C421.882 376.38 441.246 393.179 445.954 392.68M445.954 392.68C448.737 392.374 451.548 392.081 454.36 391.8M445.954 392.68C443.974 392.897 442.009 393.12 440.069 393.349M454.36 391.8C456.044 391.632 457.728 391.468 459.406 391.309M446 374.649C449.631 378.84 458.236 387.961 463.607 390.919M463.607 390.919C462.213 391.046 460.812 391.175 459.406 391.309M463.607 390.919C459.379 400.916 447.383 425.106 433.22 441.887C419.058 458.667 411.004 474.94 408.747 480.978M463.607 390.919C465.875 390.713 468.121 390.516 470.332 390.328M316.559 381.014C342.617 379.229 356.039 388.561 362.76 389.618C369.481 390.676 382.608 389.992 401.231 400.366M401.231 400.366C399.451 400.859 397.536 401.391 395.504 401.959M307.294 386.064C313.463 384.597 328.489 382.559 339.237 386.147C352.672 390.632 368.622 397.524 375.339 400.299C380.712 402.52 388.778 402.959 392.14 402.901M392.14 402.901C389.142 403.742 385.939 404.646 382.583 405.599M392.14 402.901C393.293 402.577 394.415 402.263 395.504 401.959M257.639 415.931C264.93 413.239 283.208 408.369 297.994 410.425C313.822 412.627 324.094 418.296 334.111 418.584M257.639 415.931C255.359 418.364 253.189 421.003 251.123 423.758M339.154 418.233C332.662 420.176 326.329 422.101 320.428 423.937M339.154 418.233C337.464 418.529 335.791 418.632 334.111 418.584M339.154 418.233C341.461 417.543 343.788 416.851 346.122 416.16M251.123 423.758C257.904 421.161 274.417 415.974 286.213 416.005C300.959 416.043 309.281 423.908 320.428 423.937M251.123 423.758C248.887 426.739 246.773 429.856 244.773 432.991M320.428 423.937C318.192 424.633 316.018 425.316 313.922 425.982M244.773 432.991C250.736 429.923 266.191 423.797 280.31 423.833C297.959 423.879 294.579 425.642 307.185 428.152M307.185 428.152C304.963 428.88 302.867 429.579 300.923 430.242M307.185 428.152C309.32 427.454 311.573 426.728 313.922 425.982M207.031 486.913C221.061 477.741 251.314 457.1 260.078 447.91M207.031 486.913C209.991 487.349 213.104 487.861 216.271 488.456M260.078 447.91C266.154 444.962 272.201 442.096 277.748 439.574M216.271 488.456L277.748 439.574M216.271 488.456C218.496 488.874 220.747 489.332 222.991 489.834M277.748 439.574C280.72 438.222 283.549 436.969 286.162 435.855M222.991 489.834L286.162 435.855M222.991 489.834C225.537 490.403 228.073 491.027 230.55 491.709M286.162 435.855C288.615 434.809 290.879 433.884 292.893 433.115C295.127 432.262 297.835 431.296 300.923 430.242M230.55 491.709C245.289 477.801 279.997 446.036 300.923 430.242M251.545 497.823C264.737 488.024 292.471 466.244 297.872 457.513C304.624 446.6 329.054 424.113 334.111 418.584M251.545 497.823C255.791 498.674 260.05 499.255 264.146 499.636M264.146 499.636C275.373 489.8 299.682 467.608 307.109 457.537C316.394 444.948 322.891 434.521 346.122 416.16M264.146 499.636C267.977 499.993 271.666 500.176 275.07 500.243M346.122 416.16C350.272 414.931 354.447 413.706 358.578 412.502M275.07 500.243C283.261 500.405 289.806 499.9 292.721 499.543C294.252 499.356 295.87 499.604 297.762 500.061M275.07 500.243C285.286 491.969 307.847 471.849 316.361 457.561C327.004 439.701 341.823 422.146 358.578 412.502M358.578 412.502C366.949 410.062 375.142 407.711 382.583 405.599M297.762 500.061C307.509 491.431 328.911 470.355 336.538 455.091C344.164 439.826 370.412 415.736 382.583 405.599M297.762 500.061C300.231 500.658 303.168 501.608 306.993 502.408M306.993 502.408C319.634 491.939 344.947 452.961 352.54 441.678C358.615 432.652 383.714 411.438 395.504 401.959M306.993 502.408C311.283 503.305 316.69 504.011 323.805 503.814M323.805 503.814C338.69 489.314 369.811 457.891 375.215 448.207C381.969 436.103 412.116 402.009 424.936 395.35M343.14 501.79C355.93 488.581 382.898 459.935 388.457 451.021C395.406 439.878 406.414 420.157 424.918 402.365M343.14 501.79C346.645 501.3 350.126 500.778 353.572 500.206M353.572 500.206C366.718 484.732 393.822 452.395 397.069 446.839C401.129 439.893 424.56 402.094 440.069 393.349M353.572 500.206C369.063 497.63 383.845 494.02 396.964 487.648M459.406 391.309C455.182 399.771 444.539 419.717 435.767 431.803C424.803 446.91 402.046 472.133 396.964 487.648M396.964 487.648C399.853 486.244 402.662 484.707 405.38 483.017C406.47 482.34 407.594 481.66 408.747 480.978M408.747 480.978C412.177 478.95 415.867 476.904 419.688 474.852M419.688 474.852C423.075 465.292 433.554 442.642 448.382 428.517C463.21 414.393 469.194 397.172 470.332 390.328M419.688 474.852C423.255 472.935 426.937 471.012 430.629 469.091M430.629 469.091C432.877 467.921 435.129 466.752 437.361 465.585M437.361 465.585C441.025 457.699 450.542 439.914 459.302 431.864C468.061 423.814 478.711 400.148 482.941 389.321M437.361 465.585C441.101 463.63 444.785 461.682 448.301 459.75M482.941 389.321C485.348 389.141 487.658 388.975 489.845 388.825M489.845 388.825C486.684 396.462 478.675 413.92 471.929 422.647C463.497 433.556 448.321 452.348 448.301 459.75M448.301 459.75C452.206 457.605 455.905 455.479 459.246 453.385M459.246 453.385C463.621 450.642 467.382 447.954 470.19 445.346C472.029 443.637 473.868 441.875 475.679 440.085M459.246 453.385C459.759 448.174 463.685 435.071 475.286 424.337C486.888 413.604 493.632 394.674 495.554 386.551L500.277 398.137M500.277 398.137C500.528 402.585 500.284 407.393 498.853 410.945C495.962 418.122 486.311 429.579 475.679 440.085M500.277 398.137C492.892 406.467 480.801 429.573 475.679 440.085M468.386 510.088C476.508 505.028 497.292 494.678 515.447 493.759M468.386 510.088C470.529 504.059 473.991 497.311 478.974 490.775M515.447 493.759C518.441 491.633 521.217 489.68 523.703 487.91M515.447 493.759C511.782 502.75 502.597 523.203 495.175 533.09C487.754 542.977 472.965 563.696 466.498 572.819M515.447 493.759C511.83 496.328 507.897 499.149 503.779 502.205M478.974 490.775C482.316 486.393 486.343 482.105 491.115 478.194C493.783 476.007 496.83 473.559 500.088 470.991M478.974 490.775C488.436 485.543 513.887 475.095 540.001 475.163M540.001 475.163C537.365 477.28 535.029 479.204 533.129 480.825C530.949 482.685 527.703 485.061 523.703 487.91M540.001 475.163C543.889 472.04 548.429 468.499 553.181 464.9M540.001 475.163C533.486 485.728 519.44 509.715 515.376 521.14C510.297 535.422 492.917 563.783 485.836 569.742M500.088 470.991C512.974 467.445 541.632 461.264 553.181 464.9M500.088 470.991C510.544 462.748 523.174 453.261 532.397 447.188M553.181 464.9C544.997 459.897 522.993 459.494 513.013 459.917M553.181 464.9C557.941 461.294 562.914 457.629 567.655 454.268M553.181 464.9C545.082 475.811 527.698 501.328 522.953 516.115C517.022 534.598 500.808 560.421 495.087 567.234M532.397 447.188C535.727 444.996 538.614 443.248 540.793 442.165C549.677 437.749 565.735 426.193 580.35 420.071M532.397 447.188C540.798 445.861 561.294 444.259 576.075 448.47M576.075 448.47C577.609 447.451 579.078 446.499 580.463 445.631M576.075 448.47C573.426 450.23 570.585 452.191 567.655 454.268M648.636 413.252C644.348 421.58 634.081 441.76 627.321 455.857M648.636 413.252C645.787 414.517 642.98 415.76 640.32 416.92M627.321 455.857C625.108 458.958 622.85 462.054 620.574 465.074C617.89 468.636 615.233 472.066 612.616 475.35M640.32 416.92C632.937 431.145 617.06 462.746 612.616 475.35M640.32 416.92C637.153 418.301 634.193 419.563 631.614 420.601M612.616 475.35C608.995 479.895 605.453 484.161 602.025 488.112M631.614 420.601C622.887 437.068 604.752 473.626 602.025 488.112M602.025 488.112C597.946 492.814 594.029 497.07 590.338 500.818M621.06 424.714C612.275 443.247 593.831 484.414 590.338 500.818M621.06 424.714C619.567 425.353 618.029 426.04 616.46 426.764M616.46 426.764C610.772 429.39 604.672 432.503 598.799 435.585M598.799 435.585C587.535 458.133 562.639 509.231 553.164 533.24M598.799 435.585C595.954 437.079 593.162 438.565 590.495 439.985M553.164 533.24C550.675 535.127 548.317 536.776 546.205 538.037M590.495 439.985C589.012 440.775 587.568 441.544 586.176 442.282C584.521 443.159 582.592 444.296 580.463 445.631M590.495 439.985C577.872 465.387 551.343 520.561 546.205 538.037M546.205 538.037C544.007 539.349 542.076 540.242 540.539 540.545C538.954 540.858 537.368 541.5 535.765 542.38M580.463 445.631C568.474 470.936 542.749 525.713 535.765 542.38M535.765 542.38C528.862 546.168 521.635 554.377 512.755 559.813C510.371 561.272 507.509 562.651 504.429 563.914M567.655 454.268C560.064 465.092 543.19 490.437 536.428 505.218C527.976 523.695 513.791 552.925 504.429 563.914M504.429 563.914C501.441 565.139 498.247 566.256 495.087 567.234M495.087 567.234C491.887 568.224 488.721 569.071 485.836 569.742M485.836 569.742C481.029 570.861 477.005 571.493 474.906 571.487C474.087 571.485 472.941 571.564 471.544 571.764M523.703 487.91C517.839 501.501 504.595 530.53 498.525 537.914C492.455 545.298 478.008 563.557 471.544 571.764M471.544 571.764C470.102 571.971 468.393 572.308 466.498 572.819M466.498 572.819C465.431 573.107 464.305 573.45 463.134 573.857M503.779 502.205C501.319 509.439 495.014 525.742 489.472 533.075C482.545 542.242 467.356 565.338 463.134 573.857" stroke="#91942D" stroke-width="2"/>
</svg>
