<svg width="59.996826" height="58.742920" viewBox="0 0 59.9968 58.7429" fill="none" xmlns="http://www.w3.org/2000/svg" xmlns:xlink="http://www.w3.org/1999/xlink">
	<desc>
			Created with Pixso.
	</desc>
	<defs/>
	<path id="Vector" d="M30.0107 40.3809L39.7275 40.3809L40.0715 40.3809C42.9194 40.3196 45.5637 37.9604 45.6575 35.2031C45.7827 31.4958 45.7515 27.7886 45.7202 24.0815C45.689 20.696 42.7786 18.2908 39.4614 18.3215C33.1245 18.3982 26.7717 18.3369 20.4348 18.3521C19.856 18.3521 19.2612 18.3982 18.698 18.5359C15.9912 19.21 14.2388 21.4312 14.2073 24.3113C14.176 27.666 14.1917 31.0364 14.2073 34.3911C14.2073 34.8506 14.2388 35.3103 14.3481 35.7544C14.9897 38.5579 17.2898 40.3655 20.2314 40.3809C23.4861 40.3962 26.7405 40.3809 30.0107 40.3809Z" fill="#FFFFFF" fill-opacity="1.000000" fill-rule="nonzero"/>
	<path id="Vector" d="M27.8672 0L32.0762 0C33.0461 0.122559 34.0164 0.214355 34.9707 0.383057C42.6221 1.73096 48.9277 5.34644 53.6687 11.3821C59.4111 18.7046 61.2263 26.9768 59.1921 35.969C57.6587 42.7246 54.0129 48.2854 48.3958 52.5288C41.4956 57.7373 33.6721 59.6675 25.0664 58.3347C19.23 57.4309 14.0979 54.9646 9.73242 51.0276C4.77222 46.5544 1.67432 41.0549 0.469482 34.5442C0.281738 33.5178 0.156494 32.4763 0 31.4346L0 27.3137C0.125244 26.3945 0.218994 25.4602 0.391113 24.541C1.59595 17.9231 4.66284 12.2705 9.73242 7.7207C14.0352 3.86035 19.0735 1.42456 24.8159 0.459473C25.833 0.275635 26.8501 0.153076 27.8672 0ZM39.7275 40.3809L30.0107 40.3809C26.7405 40.3809 23.4861 40.3962 20.2314 40.3809C17.2898 40.3655 14.9897 38.5579 14.3481 35.7544C14.2388 35.3103 14.2073 34.8506 14.2073 34.3911C14.1917 31.0364 14.176 27.666 14.2073 24.3113C14.2388 21.4312 15.9912 19.21 18.698 18.5359C19.2612 18.3982 19.856 18.3521 20.4348 18.3521C26.7717 18.3369 33.1245 18.3982 39.4614 18.3215C42.7786 18.2908 45.689 20.696 45.7202 24.0815C45.7515 27.7886 45.7827 31.4958 45.6575 35.2031C45.5637 37.9604 42.9194 40.3196 40.0715 40.3809L39.7275 40.3809Z" fill="#FF2E00" fill-opacity="1.000000" fill-rule="evenodd"/>
	<path id="Vector" d="M25.8171 34.1157C25.8171 30.8987 25.8171 27.8042 25.8171 24.6025C28.6179 26.1958 31.3406 27.7583 34.1726 29.3667C31.3562 30.9753 28.6179 32.5225 25.8171 34.1157Z" fill="#FF2E00" fill-opacity="1.000000" fill-rule="nonzero"/>
</svg>
