<svg width="143" height="54" viewBox="0 0 143 54" fill="none" xmlns="http://www.w3.org/2000/svg">
<path d="M48.4018 20.682V0.25997H52.0125V9.04117H54.9589L60.7071 0.25997H64.8088L57.9918 10.2544L64.8377 20.682H60.6204L55.1322 12.3341H52.0125V20.682H48.4018Z" fill="#51DE5B"/>
<path d="M75.2929 20.9131C73.1939 20.9131 71.403 20.4702 69.9202 19.5844C68.4567 18.6986 67.3301 17.4661 66.5406 15.887C65.7703 14.308 65.3852 12.5074 65.3852 10.4854C65.3852 8.42494 65.7799 6.61479 66.5695 5.05497C67.359 3.47589 68.4952 2.24344 69.978 1.35762C71.4608 0.45254 73.2517 0 75.3507 0C77.4497 0 79.231 0.442911 80.6945 1.32873C82.1773 2.21456 83.3135 3.44701 84.103 5.02608C84.8925 6.5859 85.2873 8.38643 85.2873 10.4277C85.2873 12.4497 84.8925 14.2502 84.103 15.8293C83.3327 17.4083 82.1965 18.6504 80.6945 19.5555C79.2117 20.4606 77.4112 20.9131 75.2929 20.9131ZM75.3507 17.5624C76.8142 17.5624 78.0082 17.2254 78.9325 16.5514C79.8568 15.8774 80.5308 15.0012 80.9545 13.9228C81.3974 12.8444 81.6188 11.6986 81.6188 10.4854C81.6188 9.56111 81.4937 8.67529 81.2433 7.82798C81.0122 6.98067 80.6367 6.22002 80.1168 5.54602C79.6161 4.87203 78.971 4.34246 78.1815 3.95732C77.3919 3.55292 76.4483 3.35072 75.3507 3.35072C73.9064 3.35072 72.7125 3.68772 71.7689 4.36172C70.8445 5.03571 70.1609 5.9119 69.718 6.9903C69.2751 8.06869 69.0536 9.23374 69.0536 10.4854C69.0536 11.7179 69.2751 12.8733 69.718 13.9517C70.1609 15.0301 70.8445 15.9063 71.7689 16.5803C72.7125 17.235 73.9064 17.5624 75.3507 17.5624Z" fill="#51DE5B"/>
<path d="M86.6099 25.997V17.3891C87.3802 17.3891 87.9483 17.2158 88.3142 16.8691C88.6993 16.5033 88.9786 16.0507 89.1519 15.5115C89.3252 14.9723 89.46 14.385 89.5563 13.7495C89.6525 13.0948 89.7296 12.4304 89.7874 11.7564C89.8644 11.0824 89.9221 10.418 89.9607 9.76331C90.0569 8.12646 90.1244 6.52813 90.1629 4.96831C90.2014 3.38923 90.2303 1.81979 90.2495 0.25997H104.23V17.3891H106.685V25.997H103.075V20.682H90.2206V25.997H86.6099ZM92.3293 17.3891H100.619V3.55292H93.6291L93.4269 10.4854C93.4077 10.9091 93.3788 11.4098 93.3403 11.9875C93.321 12.5459 93.2729 13.1333 93.1958 13.7495C93.1188 14.3657 93.0129 14.9916 92.8781 15.6271C92.7433 16.2433 92.5604 16.8306 92.3293 17.3891Z" fill="#51DE5B"/>
<path d="M48.4236 53.0697V32.6476H56.1072C57.6477 32.6476 58.9764 32.8883 60.0934 33.3697C61.2295 33.8319 62.1057 34.5733 62.7219 35.5939C63.3574 36.6145 63.6752 37.9529 63.6752 39.609C63.6752 41.1881 63.3285 42.5072 62.6353 43.5663C61.942 44.6255 60.9984 45.4246 59.8045 45.9638C58.6106 46.4838 57.2433 46.7437 55.7028 46.7437H52.0343V53.0697H48.4236ZM52.0343 43.5086H55.645C56.9737 43.5086 58.0425 43.1908 58.8513 42.5553C59.6601 41.9199 60.0645 40.9185 60.0645 39.5512C60.0645 38.3573 59.7275 37.4619 59.0535 36.8649C58.3795 36.2487 57.3396 35.9406 55.9338 35.9406H52.0343V43.5086Z" fill="white"/>
<path d="M76.0481 53.3008C73.9491 53.3008 72.1582 52.8578 70.6754 51.972C69.2119 51.0862 68.0853 49.8537 67.2958 48.2747C66.5255 46.6956 66.1404 44.8951 66.1404 42.8731C66.1404 40.8126 66.5351 39.0024 67.3247 37.4426C68.1142 35.8635 69.2504 34.6311 70.7332 33.7453C72.2159 32.8402 74.0068 32.3876 76.1059 32.3876C78.2049 32.3876 79.9862 32.8305 81.4497 33.7164C82.9325 34.6022 84.0686 35.8346 84.8582 37.4137C85.6477 38.9735 86.0425 40.7741 86.0425 42.8153C86.0425 44.8373 85.6477 46.6378 84.8582 48.2169C84.0879 49.796 82.9517 51.0381 81.4497 51.9431C79.9669 52.8482 78.1664 53.3008 76.0481 53.3008ZM76.1059 49.95C77.5694 49.95 78.7633 49.613 79.6877 48.939C80.612 48.265 81.286 47.3889 81.7097 46.3105C82.1526 45.2321 82.374 44.0863 82.374 42.8731C82.374 41.9487 82.2489 41.0629 81.9985 40.2156C81.7674 39.3683 81.3919 38.6077 80.872 37.9337C80.3713 37.2597 79.7262 36.7301 78.9366 36.345C78.1471 35.9406 77.2035 35.7384 76.1059 35.7384C74.6616 35.7384 73.4677 36.0754 72.5241 36.7493C71.5997 37.4233 70.9161 38.2995 70.4732 39.3779C70.0303 40.4563 69.8088 41.6214 69.8088 42.8731C69.8088 44.1055 70.0303 45.261 70.4732 46.3393C70.9161 47.4177 71.5997 48.2939 72.5241 48.9679C73.4677 49.6227 74.6616 49.95 76.1059 49.95Z" fill="white"/>
<path d="M98.1306 53.3008C96.0124 53.3008 94.2311 52.8675 92.7868 52.0009C91.3425 51.1151 90.2545 49.8923 89.5227 48.3324C88.791 46.7726 88.4251 44.9625 88.4251 42.902C88.4251 40.8415 88.8006 39.0217 89.5516 37.4426C90.3026 35.8635 91.4003 34.6311 92.8446 33.7453C94.2888 32.8402 96.0509 32.3876 98.1306 32.3876C99.6712 32.3876 101.029 32.6476 102.203 33.1675C103.378 33.6875 104.331 34.4289 105.063 35.3917C105.814 36.3353 106.296 37.5004 106.507 38.8869H103.012C102.743 37.9048 102.194 37.1345 101.366 36.576C100.538 36.0176 99.4594 35.7384 98.1306 35.7384C96.6864 35.7384 95.5213 36.0754 94.6355 36.7493C93.7497 37.4233 93.1045 38.2899 92.7001 39.349C92.315 40.4082 92.1224 41.5443 92.1224 42.7575C92.1224 44.0092 92.3246 45.1839 92.729 46.2816C93.1527 47.3792 93.8171 48.265 94.7221 48.939C95.6272 49.613 96.7923 49.95 98.2173 49.95C99.1031 49.95 99.8734 49.8249 100.528 49.5745C101.202 49.3242 101.761 48.9679 102.203 48.5058C102.666 48.0243 102.983 47.4659 103.157 46.8304H106.825C106.594 48.1976 106.074 49.3627 105.265 50.3256C104.476 51.2884 103.465 52.0298 102.232 52.5497C101.019 53.0504 99.6519 53.3008 98.1306 53.3008Z" fill="white"/>
<path d="M114.365 53.0697V35.9406H107.981V32.6476H124.331V35.9406H117.947V53.0697H114.365Z" fill="white"/>
<path d="M123.069 53.0697L130.897 32.6476H135.201L143 53.0697H139.1L137.743 49.2857H128.326L126.94 53.0697H123.069ZM129.482 46.0216H136.559L133.034 36.2872L129.482 46.0216Z" fill="white"/>
<path fill-rule="evenodd" clip-rule="evenodd" d="M35.4675 38.0914L35.4675 15.7426L8.35229 0.130825L8.35229 53.0298L26.8362 53.0298L26.8362 33.2513L35.4675 38.0914Z" fill="white"/>
<path d="M26.8732 21.9805L26.8732 53.0301L8.36488 53.0301L8.36488 33.2247L1.6919e-05 38.1121L1.59273e-05 15.4239L26.8732 0.131102L26.8732 21.9805Z" fill="#51DE5B"/>
</svg>
