<svg width="22" height="22" viewBox="0 0 22 22" fill="none" xmlns="http://www.w3.org/2000/svg">
<path d="M18.7917 10.0832H17.4167V6.4165C17.4167 5.40817 16.5917 4.58317 15.5833 4.58317H11.9167V3.20817C11.9167 1.94317 10.89 0.916504 9.625 0.916504C8.35999 0.916504 7.33333 1.94317 7.33333 3.20817V4.58317H3.66666C2.65833 4.58317 1.84249 5.40817 1.84249 6.4165V9.89984H3.20833C4.57416 9.89984 5.68333 11.009 5.68333 12.3748C5.68333 13.7407 4.57416 14.8498 3.20833 14.8498H1.83333V18.3332C1.83333 19.3415 2.65833 20.1665 3.66666 20.1665H7.15V18.7915C7.15 17.4257 8.25916 16.3165 9.625 16.3165C10.9908 16.3165 12.1 17.4257 12.1 18.7915V20.1665H15.5833C16.5917 20.1665 17.4167 19.3415 17.4167 18.3332V14.6665H18.7917C20.0567 14.6665 21.0833 13.6398 21.0833 12.3748C21.0833 11.1098 20.0567 10.0832 18.7917 10.0832Z" fill="white"/>
</svg>
