<svg width="143" height="51" viewBox="0 0 143 51" fill="none" xmlns="http://www.w3.org/2000/svg">
<path d="M48.4019 19.7513V0.248271H52.0125V8.6343H54.9589L60.7071 0.248271H64.8088L57.9919 9.79289L64.8377 19.7513H60.6204L55.1322 11.7791H52.0125V19.7513H48.4019Z" fill="white"/>
<path d="M75.2929 19.972C73.1939 19.972 71.403 19.549 69.9202 18.703C68.4567 17.8571 67.3301 16.6801 66.5406 15.1721C65.7703 13.6641 65.3852 11.9446 65.3852 10.0136C65.3852 8.0458 65.78 6.31711 66.5695 4.82748C67.359 3.31947 68.4952 2.14248 69.978 1.29652C71.4608 0.432174 73.2517 0 75.3507 0C77.4497 0 79.231 0.422979 80.6945 1.26894C82.1773 2.1149 83.3135 3.29188 84.103 4.7999C84.8926 6.28952 85.2873 8.00902 85.2873 9.95841C85.2873 11.8894 84.8926 13.6089 84.103 15.1169C83.3327 16.6249 82.1966 17.8111 80.6945 18.6755C79.2117 19.5398 77.4112 19.972 75.2929 19.972ZM75.3507 16.7721C76.8142 16.7721 78.0082 16.4502 78.9325 15.8066C79.8568 15.1629 80.5308 14.3261 80.9545 13.2963C81.3974 12.2664 81.6189 11.1722 81.6189 10.0136C81.6189 9.13084 81.4937 8.28488 81.2433 7.4757C81.0123 6.66652 80.6367 5.9401 80.1168 5.29644C79.6161 4.65277 78.971 4.14704 78.1815 3.77923C77.3919 3.39303 76.4483 3.19993 75.3507 3.19993C73.9064 3.19993 72.7125 3.52176 71.7689 4.16543C70.8446 4.80909 70.1609 5.64585 69.718 6.67572C69.2751 7.70558 69.0537 8.8182 69.0537 10.0136C69.0537 11.1906 69.2751 12.294 69.718 13.3239C70.1609 14.3537 70.8446 15.1905 71.7689 15.8341C72.7125 16.4594 73.9064 16.7721 75.3507 16.7721Z" fill="white"/>
<path d="M86.61 24.8271V16.6065C87.3802 16.6065 87.9483 16.441 88.3142 16.11C88.6993 15.7606 88.9786 15.3284 89.1519 14.8135C89.3252 14.2985 89.46 13.7376 89.5563 13.1308C89.6526 12.5055 89.7296 11.871 89.7874 11.2273C89.8644 10.5837 89.9222 9.94921 89.9607 9.32394C90.057 7.76075 90.1244 6.23435 90.1629 4.74473C90.2014 3.23671 90.2303 1.73789 90.2495 0.248271H104.23V16.6065H106.685V24.8271H103.075V19.7513H90.2206V24.8271H86.61ZM92.3293 16.6065H100.619V3.39303H93.6291L93.4269 10.0136C93.4077 10.4182 93.3788 10.8963 93.3403 11.448C93.321 11.9813 93.2729 12.5423 93.1959 13.1308C93.1188 13.7192 93.0129 14.3169 92.8781 14.9238C92.7433 15.5123 92.5604 16.0732 92.3293 16.6065Z" fill="white"/>
<path d="M48.4236 50.6814V31.1784H56.1072C57.6477 31.1784 58.9765 31.4083 60.0934 31.868C61.2295 32.3094 62.1057 33.0174 62.722 33.9921C63.3574 34.9668 63.6752 36.2449 63.6752 37.8265C63.6752 39.3345 63.3285 40.5943 62.6353 41.6058C61.942 42.6172 60.9984 43.3804 59.8045 43.8954C58.6106 44.3919 57.2433 44.6402 55.7028 44.6402H52.0343V50.6814H48.4236ZM52.0343 41.5506H55.645C56.9737 41.5506 58.0425 41.2471 58.8513 40.6403C59.6601 40.0334 60.0645 39.0771 60.0645 37.7713C60.0645 36.6311 59.7275 35.776 59.0535 35.2059C58.3795 34.6174 57.3396 34.3231 55.9339 34.3231H52.0343V41.5506Z" fill="#465347"/>
<path d="M76.0481 50.9021C73.9491 50.9021 72.1582 50.4791 70.6754 49.6332C69.2119 48.7872 68.0853 47.6102 67.2958 46.1022C66.5255 44.5942 66.1404 42.8747 66.1404 40.9437C66.1404 38.9759 66.5351 37.2472 67.3247 35.7576C68.1142 34.2496 69.2504 33.0726 70.7332 32.2266C72.216 31.3623 74.0069 30.9301 76.1059 30.9301C78.2049 30.9301 79.9862 31.3531 81.4497 32.1991C82.9325 33.045 84.0687 34.222 84.8582 35.73C85.6477 37.2196 86.0425 38.9391 86.0425 40.8885C86.0425 42.8195 85.6477 44.539 84.8582 46.047C84.0879 47.555 82.9518 48.7412 81.4497 49.6056C79.9669 50.4699 78.1664 50.9021 76.0481 50.9021ZM76.1059 47.7022C77.5694 47.7022 78.7633 47.3803 79.6877 46.7367C80.612 46.093 81.286 45.2562 81.7097 44.2264C82.1526 43.1965 82.374 42.1023 82.374 40.9437C82.374 40.061 82.2489 39.215 81.9985 38.4058C81.7674 37.5966 81.3919 36.8702 80.872 36.2266C80.3713 35.5829 79.7262 35.0772 78.9367 34.7093C78.1471 34.3231 77.2035 34.13 76.1059 34.13C74.6616 34.13 73.4677 34.4519 72.5241 35.0955C71.5997 35.7392 70.9161 36.576 70.4732 37.6058C70.0303 38.6357 69.8088 39.7483 69.8088 40.9437C69.8088 42.1207 70.0303 43.2241 70.4732 44.254C70.9161 45.2838 71.5997 46.1206 72.5241 46.7643C73.4677 47.3895 74.6616 47.7022 76.1059 47.7022Z" fill="#465347"/>
<path d="M98.1306 50.9021C96.0124 50.9021 94.2311 50.4883 92.7868 49.6608C91.3425 48.8148 90.2545 47.647 89.5228 46.1574C88.791 44.6678 88.4251 42.9391 88.4251 40.9713C88.4251 39.0035 88.8006 37.2656 89.5516 35.7576C90.3027 34.2496 91.4003 33.0726 92.8446 32.2266C94.2889 31.3623 96.0509 30.9301 98.1306 30.9301C99.6712 30.9301 101.029 31.1784 102.204 31.6749C103.378 32.1715 104.331 32.8795 105.063 33.799C105.814 34.7002 106.296 35.8128 106.507 37.1369H103.012C102.743 36.199 102.194 35.4634 101.366 34.93C100.538 34.3967 99.4594 34.13 98.1306 34.13C96.6864 34.13 95.5213 34.4519 94.6355 35.0955C93.7497 35.7392 93.1046 36.5668 92.7002 37.5783C92.315 38.5897 92.1225 39.6748 92.1225 40.8334C92.1225 42.0287 92.3246 43.1505 92.729 44.1988C93.1527 45.2471 93.8171 46.093 94.7221 46.7367C95.6272 47.3803 96.7923 47.7022 98.2173 47.7022C99.1031 47.7022 99.8734 47.5826 100.528 47.3436C101.202 47.1045 101.761 46.7643 102.204 46.3229C102.666 45.8631 102.983 45.3298 103.157 44.7229H106.825C106.594 46.0286 106.074 47.1413 105.265 48.0608C104.476 48.9803 103.465 49.6883 102.232 50.1849C101.019 50.663 99.6519 50.9021 98.1306 50.9021Z" fill="#465347"/>
<path d="M114.365 50.6814V34.3231H107.982V31.1784H124.331V34.3231H117.947V50.6814H114.365Z" fill="#465347"/>
<path d="M123.069 50.6814L130.897 31.1784H135.201L143 50.6814H139.1L137.743 47.0677H128.326L126.94 50.6814H123.069ZM129.482 43.9505H136.559L133.035 34.6542L129.482 43.9505Z" fill="#465347"/>
<path fill-rule="evenodd" clip-rule="evenodd" d="M35.4675 36.3772L35.4675 15.0341L8.35229 0.124928L8.35229 50.6433L26.8362 50.6433L26.8362 31.7549L35.4675 36.3772Z" fill="#465347"/>
<path d="M26.8732 20.9908L26.8732 50.6431L8.36486 50.6431L8.36486 31.729L1.63219e-06 36.3965L6.57191e-07 14.7293L26.8732 0.124755L26.8732 20.9908Z" fill="white"/>
</svg>
