<svg width="90" height="36" viewBox="0 0 90 36" fill="none" xmlns="http://www.w3.org/2000/svg">
<mask id="mask0_78_609" style="mask-type:luminance" maskUnits="userSpaceOnUse" x="0" y="0" width="90" height="36">
<path d="M90 0H0V36H90V0Z" fill="white"/>
</mask>
<g mask="url(#mask0_78_609)">
<mask id="mask1_78_609" style="mask-type:luminance" maskUnits="userSpaceOnUse" x="0" y="0" width="90" height="36">
<path d="M90 0H0V36H90V0Z" fill="white"/>
</mask>
<g mask="url(#mask1_78_609)">
<path d="M58.333 1.83144e-05C56.1276 0.00396946 53.973 0.646907 52.1411 1.8476C50.3094 3.04827 48.8826 4.75282 48.0416 6.74582C47.2003 8.73887 46.9824 10.9309 47.4151 13.045C47.8476 15.1591 48.9118 17.1004 50.4727 18.6235C52.0338 20.1466 54.0213 21.1832 56.1847 21.6024C58.3481 22.0216 60.5902 21.8044 62.6273 20.9785C64.6644 20.1525 66.4052 18.7547 67.6305 16.9618C68.8552 15.1689 69.509 13.0612 69.509 10.9053C69.509 9.47147 69.2197 8.05179 68.6578 6.72737C68.096 5.40301 67.2725 4.19994 66.2342 3.18702C65.1967 2.17411 63.9644 1.37125 62.6084 0.824387C61.2527 0.277525 59.7999 -0.00260927 58.333 1.83144e-05ZM58.333 14.2694C57.6527 14.2694 56.9872 14.0721 56.4211 13.7025C55.8554 13.3328 55.4141 12.8075 55.1539 12.1927C54.8933 11.578 54.8253 10.9016 54.958 10.2489C55.0908 9.59638 55.4186 8.99691 55.8996 8.52641C56.381 8.05596 56.9943 7.73556 57.6618 7.60571C58.3292 7.47591 59.0213 7.54258 59.6501 7.79721C60.279 8.05185 60.8163 8.48301 61.1945 9.03619C61.5726 9.5895 61.7746 10.2399 61.7746 10.9053C61.7791 11.3483 61.6933 11.7877 61.522 12.198C61.3507 12.6081 61.0973 12.9808 60.7766 13.294C60.4563 13.6073 60.0752 13.8549 59.6554 14.0225C59.236 14.1899 58.7864 14.2739 58.333 14.2694Z" fill="black"/>
<path d="M34.3382 21.1573H45.9299V14.1291H38.536L46.2774 0.652466H26.2288V7.67395H33.7248L26.1812 21.1573H34.3382Z" fill="black"/>
<path d="M70.1145 0.652466V7.67395H76.1728V21.1573H83.9411V7.67395H89.9994V0.652466H70.1145Z" fill="black"/>
<path d="M8.9271 0.66687L0 21.1584H12.2662L14.5083 14.7498L16.7502 21.1584H25.064L16.1028 0.66687H8.9271ZM9.99694 14.7564L12.2662 8.3412L14.5083 14.7431L9.99694 14.7564Z" fill="black"/>
<path d="M21.8674 33.3082H23.7619V34.3741C23.2958 34.7068 22.7306 34.8801 22.1537 34.8671C21.8187 34.8942 21.4816 34.8509 21.1652 34.7399C20.8488 34.6289 20.5604 34.4529 20.3195 34.2237C20.0787 33.9945 19.8908 33.7175 19.7687 33.4113C19.6467 33.1052 19.5931 32.777 19.6118 32.4489C19.5878 32.1278 19.6344 31.8055 19.7485 31.5036C19.8627 31.2017 20.0417 30.9273 20.2735 30.6987C20.5054 30.4701 20.7847 30.2929 21.0925 30.1788C21.4004 30.0647 21.7297 30.0165 22.0583 30.0373C22.41 30.0192 22.7615 30.0759 23.0886 30.2035C23.4157 30.3312 23.7105 30.5268 23.9527 30.7768L24.7841 29.9773C24.439 29.5932 24.0082 29.2918 23.5248 29.0966C23.0415 28.9014 22.5188 28.8175 21.997 28.8515C21.4957 28.8246 20.9941 28.8989 20.5236 29.0699C20.053 29.241 19.6236 29.505 19.262 29.8455C18.9006 30.1861 18.6147 30.5958 18.4224 31.049C18.2301 31.5024 18.1354 31.9896 18.1444 32.4803C18.1533 32.9709 18.2656 33.4545 18.4743 33.9009C18.6829 34.3473 18.9835 34.7468 19.3571 35.0745C19.7308 35.4023 20.1696 35.6512 20.646 35.8058C21.1225 35.9603 21.6265 36.0172 22.1264 35.9729C22.6486 35.9835 23.1675 35.891 23.6523 35.7009C24.137 35.511 24.5776 35.2274 24.9477 34.8671V32.1957H21.8674V33.3082Z" fill="black"/>
<path d="M36.7165 31.1173C36.7165 29.998 36.1305 28.9456 33.9021 28.9456H31.1013V35.9204H32.3348V33.3622H33.8407L35.7897 35.9204H37.2889L35.1491 33.1291C35.6022 33.012 36.0022 32.7506 36.2861 32.3862C36.57 32.0218 36.7215 31.5753 36.7165 31.1173ZM33.9361 32.2231H32.3348V30.078H33.8748C35.081 30.078 35.4354 30.511 35.4354 31.1173C35.4354 31.7235 34.8766 32.2231 33.9361 32.2231Z" fill="black"/>
<path d="M46.1819 28.8647C45.4589 28.8634 44.7518 29.0718 44.1501 29.4637C43.5485 29.8555 43.0792 30.4131 42.802 31.0659C42.5248 31.7186 42.4518 32.4371 42.5925 33.1304C42.7332 33.8236 43.0811 34.4605 43.5924 34.9603C44.1036 35.46 44.7552 35.8002 45.4642 35.9378C46.1736 36.0754 46.9084 36.0041 47.5762 35.733C48.244 35.4619 48.8142 35.0032 49.2151 34.415C49.6159 33.8268 49.8292 33.1355 49.8277 32.4287C49.8341 31.959 49.7445 31.4927 49.5634 31.0575C49.3826 30.6222 49.1141 30.2268 48.7742 29.8946C48.4346 29.5624 48.03 29.3001 47.5849 29.1232C47.1394 28.9463 46.6625 28.8585 46.1819 28.8647ZM46.1819 34.8603C45.6888 34.8815 45.2002 34.758 44.7793 34.5056C44.3585 34.2531 44.0246 33.8833 43.8204 33.4437C43.6165 33.0041 43.5515 32.5149 43.6344 32.039C43.7172 31.5631 43.9436 31.1223 44.2847 30.7734C44.6262 30.4245 45.0664 30.1834 45.5489 30.0811C46.0314 29.9788 46.5343 30.0201 46.9927 30.1995C47.451 30.379 47.8443 30.6885 48.1211 31.0881C48.3979 31.4878 48.5461 31.9593 48.5469 32.4421C48.5624 32.7541 48.5129 33.066 48.4009 33.3585C48.289 33.6511 48.1169 33.9183 47.8953 34.1435C47.6741 34.3688 47.4079 34.5473 47.1129 34.6683C46.8184 34.7893 46.5015 34.8501 46.1819 34.8469V34.8603Z" fill="black"/>
<path d="M60.7931 32.7827C60.7931 33.9884 60.2478 34.8678 59.0555 34.8678C57.8628 34.8678 57.1473 34.0151 57.1473 32.7427V28.9456H55.9138V32.8893C55.8892 33.2994 55.9535 33.7101 56.1025 34.0943C56.2515 34.4786 56.4818 34.8277 56.7782 35.1188C57.0751 35.4101 57.4309 35.6367 57.8235 35.784C58.216 35.9313 58.6357 35.9959 59.0555 35.9737C60.5341 35.9737 62.013 35.121 62.013 32.9492V28.9522H60.7931V32.7827Z" fill="black"/>
<path d="M71.3821 28.9456H68.4924V35.9204H69.7325V33.5288H71.375C73.5967 33.5288 74.3527 32.383 74.3527 31.2371C74.3527 30.0913 73.787 28.9456 71.3821 28.9456ZM71.3821 32.403H69.7601V30.0714H71.4502C72.6633 30.0714 73.0921 30.5576 73.0921 31.2238C73.0921 31.89 72.554 32.403 71.3544 32.403H71.3821Z" fill="black"/>
</g>
</g>
</svg>
