<svg width="90" height="36" viewBox="0 0 90 36" fill="none" xmlns="http://www.w3.org/2000/svg">
<mask id="mask0_1_224" style="mask-type:luminance" maskUnits="userSpaceOnUse" x="0" y="-1" width="90" height="37">
<path d="M90 -0.000110626H0V35.9999H90V-0.000110626Z" fill="white"/>
</mask>
<g mask="url(#mask0_1_224)">
<mask id="mask1_1_224" style="mask-type:luminance" maskUnits="userSpaceOnUse" x="0" y="-1" width="90" height="37">
<path d="M90 -0.000110626H0V35.9999H90V-0.000110626Z" fill="white"/>
</mask>
<g mask="url(#mask1_1_224)">
<path d="M58.333 -9.23119e-05C56.1276 0.00385884 53.9729 0.646796 52.1411 1.84749C50.3094 3.04816 48.8826 4.75271 48.0416 6.74571C47.2002 8.73876 46.9824 10.9308 47.415 13.0449C47.8476 15.159 48.9117 17.1003 50.4727 18.6234C52.0338 20.1465 54.0213 21.1831 56.1847 21.6023C58.3481 22.0215 60.5902 21.8043 62.6273 20.9784C64.6644 20.1524 66.4052 18.7546 67.6305 16.9617C68.8551 15.1688 69.5089 13.0611 69.5089 10.9052C69.5089 9.47136 69.2196 8.05167 68.6578 6.72726C68.0959 5.4029 67.2724 4.19983 66.2342 3.18691C65.1966 2.174 63.9644 1.37114 62.6084 0.824277C61.2527 0.277414 59.7999 -0.00271989 58.333 -9.23119e-05ZM58.333 14.2693C57.6527 14.2693 56.9872 14.072 56.4211 13.7024C55.8554 13.3327 55.414 12.8073 55.1539 12.1926C54.8933 11.5779 54.8252 10.9015 54.958 10.2488C55.0907 9.59627 55.4186 8.9968 55.8996 8.5263C56.381 8.05585 56.9943 7.73545 57.6618 7.6056C58.3292 7.4758 59.0212 7.54247 59.6501 7.7971C60.279 8.05174 60.8163 8.4829 61.1945 9.03608C61.5726 9.58939 61.7745 10.2398 61.7745 10.9052C61.7791 11.3482 61.6933 11.7876 61.5219 12.1978C61.3506 12.608 61.0973 12.9807 60.7766 13.2939C60.4563 13.6072 60.0751 13.8548 59.6554 14.0223C59.236 14.1898 58.7864 14.2738 58.333 14.2693Z" fill="white"/>
<path d="M34.3381 21.1572H45.9298V14.129H38.5359L46.2773 0.652321H26.2287V7.67381H33.7247L26.181 21.1572H34.3381Z" fill="white"/>
<path d="M70.1144 0.652321V7.67381H76.1727V21.1572H83.941V7.67381H89.9993V0.652321H70.1144Z" fill="white"/>
<path d="M8.9271 0.666759L0 21.1582H12.2662L14.5083 14.7497L16.7502 21.1582H25.064L16.1028 0.666759H8.9271ZM9.99694 14.7563L12.2662 8.34109L14.5083 14.743L9.99694 14.7563Z" fill="white"/>
<path d="M21.8674 33.3081H23.7619V34.374C23.2958 34.7067 22.7306 34.8801 22.1537 34.867C21.8187 34.8941 21.4816 34.8508 21.1652 34.7398C20.8488 34.6288 20.5604 34.4528 20.3195 34.2236C20.0786 33.9945 19.8908 33.7174 19.7687 33.4113C19.6466 33.1051 19.5931 32.7769 19.6118 32.4488C19.5878 32.1277 19.6344 31.8055 19.7485 31.5035C19.8626 31.2016 20.0417 30.9272 20.2735 30.6987C20.5054 30.4701 20.7846 30.2928 21.0925 30.1787C21.4004 30.0646 21.7296 30.0164 22.0583 30.0372C22.41 30.0191 22.7615 30.0758 23.0886 30.2035C23.4156 30.3311 23.7105 30.5267 23.9527 30.7767L24.784 29.9772C24.439 29.5931 24.0082 29.2918 23.5248 29.0965C23.0415 28.9013 22.5187 28.8174 21.9969 28.8514C21.4956 28.8245 20.9941 28.8988 20.5236 29.0698C20.053 29.2409 19.6236 29.5049 19.262 29.8455C18.9005 30.186 18.6147 30.5957 18.4224 31.0489C18.2301 31.5023 18.1354 31.9895 18.1443 32.4802C18.1533 32.9708 18.2656 33.4545 18.4743 33.9008C18.6829 34.3472 18.9835 34.7467 19.3571 35.0744C19.7307 35.4022 20.1695 35.6512 20.646 35.8057C21.1224 35.9602 21.6264 36.0171 22.1264 35.9728C22.6485 35.9834 23.1675 35.8909 23.6523 35.7009C24.137 35.5109 24.5775 35.2273 24.9476 34.867V32.1956H21.8674V33.3081Z" fill="white"/>
<path d="M36.7165 31.1171C36.7165 29.9979 36.1305 28.9454 33.9021 28.9454H31.1013V35.9202H32.3348V33.3621H33.8408L35.7898 35.9202H37.289L35.1492 33.1289C35.6022 33.0119 36.0022 32.7504 36.2861 32.386C36.5701 32.0217 36.7215 31.5751 36.7165 31.1171ZM33.9362 32.223H32.3348V30.0779H33.8748C35.081 30.0779 35.4354 30.5109 35.4354 31.1171C35.4354 31.7233 34.8766 32.223 33.9362 32.223Z" fill="white"/>
<path d="M46.182 28.8646C45.4589 28.8633 44.7518 29.0717 44.1501 29.4636C43.5485 29.8554 43.0792 30.413 42.8021 31.0658C42.5249 31.7185 42.4518 32.437 42.5926 33.1303C42.7332 33.8235 43.0811 34.4604 43.5924 34.9601C44.1037 35.4599 44.7552 35.8001 45.4642 35.9377C46.1737 36.0752 46.9084 36.004 47.5762 35.7329C48.244 35.4618 48.8143 35.0031 49.2151 34.4149C49.616 33.8267 49.8292 33.1354 49.8277 32.4286C49.8342 31.9588 49.7445 31.4926 49.5634 31.0574C49.3826 30.6221 49.1142 30.2267 48.7742 29.8945C48.4346 29.5623 48.03 29.3 47.5849 29.1231C47.1394 28.9462 46.6626 28.8583 46.182 28.8646ZM46.182 34.8602C45.6888 34.8814 45.2003 34.7578 44.7794 34.5055C44.3585 34.253 44.0246 33.8832 43.8204 33.4436C43.6166 33.004 43.5515 32.5148 43.6344 32.0389C43.7172 31.563 43.9437 31.1222 44.2848 30.7733C44.6262 30.4243 45.0664 30.1833 45.5489 30.081C46.0315 29.9787 46.5344 30.02 46.9927 30.1994C47.451 30.3789 47.8443 30.6884 48.1211 31.088C48.398 31.4877 48.5461 31.9592 48.5469 32.442C48.5624 32.754 48.5129 33.0658 48.401 33.3584C48.289 33.651 48.117 33.9181 47.8954 34.1434C47.6742 34.3687 47.4079 34.5472 47.1129 34.6682C46.8184 34.7891 46.5015 34.85 46.182 34.8468V34.8602Z" fill="white"/>
<path d="M60.7932 32.7826C60.7932 33.9883 60.2479 34.8677 59.0556 34.8677C57.8629 34.8677 57.1474 34.015 57.1474 32.7426V28.9454H55.9139V32.8891C55.8893 33.2993 55.9536 33.7099 56.1026 34.0942C56.2516 34.4784 56.4819 34.8276 56.7783 35.1187C57.0752 35.4099 57.431 35.6366 57.8236 35.7839C58.2161 35.9311 58.6358 35.9958 59.0556 35.9735C60.5342 35.9735 62.0131 35.1208 62.0131 32.9491V28.952H60.7932V32.7826Z" fill="white"/>
<path d="M71.3822 28.9454H68.4925V35.9202H69.7326V33.5287H71.3751C73.5968 33.5287 74.3528 32.3828 74.3528 31.237C74.3528 30.0912 73.7871 28.9454 71.3822 28.9454ZM71.3822 32.4028H69.7603V30.0712H71.4503C72.6634 30.0712 73.0922 30.5575 73.0922 31.2237C73.0922 31.8898 72.5541 32.4028 71.3545 32.4028H71.3822Z" fill="white"/>
</g>
</g>
</svg>
