<svg width="24" height="24" viewBox="0 0 24 24" fill="none" xmlns="http://www.w3.org/2000/svg">
<g clip-path="url(#clip0_2_1011)">
<path d="M4.078 18.1266L5.40457 19.4531L7.08738 17.7703L5.76082 16.4438L4.078 18.1266ZM11.0624 21.7969H12.9374V19.0313H11.0624V21.7969ZM4.49988 10.5938H1.68738V12.4688H4.49988V10.5938ZM14.8124 6.66563V2.15625H9.18738V6.66563C7.50925 7.64063 6.37488 9.45 6.37488 11.5313C6.37488 14.6391 8.89207 17.1563 11.9999 17.1563C15.1077 17.1563 17.6249 14.6391 17.6249 11.5313C17.6249 9.45 16.4905 7.63594 14.8124 6.66563ZM19.4999 10.5938V12.4688H22.3124V10.5938H19.4999ZM16.9171 17.7703L18.5999 19.4531L19.9264 18.1266L18.2436 16.4438L16.9171 17.7703Z" fill="white"/>
</g>
<defs>
<clipPath id="clip0_2_1011">
<rect width="22.5" height="22.5" fill="white" transform="translate(0.75 0.75)"/>
</clipPath>
</defs>
</svg>
