<svg width="22" height="22" viewBox="0 0 22 22" fill="none" xmlns="http://www.w3.org/2000/svg">
<path d="M17.8107 11.8985C17.8474 11.6052 17.8749 11.3118 17.8749 11.0002C17.8749 10.6885 17.8474 10.3952 17.8107 10.1018L19.7449 8.58933C19.9191 8.45183 19.9649 8.20433 19.8549 8.00266L18.0216 4.831C17.9116 4.62933 17.6641 4.556 17.4624 4.62933L15.1799 5.546C14.7032 5.17933 14.1899 4.87683 13.6307 4.64766L13.2824 2.2185C13.2549 1.9985 13.0624 1.8335 12.8332 1.8335H9.16658C8.93741 1.8335 8.74491 1.9985 8.71741 2.2185L8.36908 4.64766C7.80991 4.87683 7.29658 5.1885 6.81991 5.546L4.53741 4.62933C4.32658 4.54683 4.08825 4.62933 3.97825 4.831L2.14491 8.00266C2.02575 8.20433 2.08075 8.45183 2.25491 8.58933L4.18908 10.1018C4.15241 10.3952 4.12491 10.6977 4.12491 11.0002C4.12491 11.3027 4.15241 11.6052 4.18908 11.8985L2.25491 13.411C2.08075 13.5485 2.03491 13.796 2.14491 13.9977L3.97825 17.1693C4.08825 17.371 4.33575 17.4443 4.53741 17.371L6.81991 16.4543C7.29658 16.821 7.80991 17.1235 8.36908 17.3527L8.71741 19.7818C8.74491 20.0018 8.93741 20.1668 9.16658 20.1668H12.8332C13.0624 20.1668 13.2549 20.0018 13.2824 19.7818L13.6307 17.3527C14.1899 17.1235 14.7032 16.8118 15.1799 16.4543L17.4624 17.371C17.6732 17.4535 17.9116 17.371 18.0216 17.1693L19.8549 13.9977C19.9649 13.796 19.9191 13.5485 19.7449 13.411L17.8107 11.8985ZM10.9999 14.2085C9.23075 14.2085 7.79158 12.7693 7.79158 11.0002C7.79158 9.231 9.23075 7.79183 10.9999 7.79183C12.7691 7.79183 14.2082 9.231 14.2082 11.0002C14.2082 12.7693 12.7691 14.2085 10.9999 14.2085Z" fill="white"/>
</svg>
