<svg width="22" height="22" viewBox="0 0 22 22" fill="none" xmlns="http://www.w3.org/2000/svg">
<path d="M0.916687 19.2498H4.58335V8.24984H0.916687V19.2498ZM21.0834 9.1665C21.0834 8.15817 20.2584 7.33317 19.25 7.33317H13.4659L14.3367 3.144L14.3642 2.85067C14.3642 2.47484 14.2084 2.1265 13.9609 1.879L12.9892 0.916504L6.95752 6.95734C6.61835 7.28734 6.41669 7.74567 6.41669 8.24984V17.4165C6.41669 18.4248 7.24169 19.2498 8.25002 19.2498H16.5C17.2609 19.2498 17.9117 18.7915 18.1867 18.1315L20.955 11.669C21.0375 11.4582 21.0834 11.2382 21.0834 10.9998V9.249L21.0742 9.23984L21.0834 9.1665Z" fill="white"/>
</svg>
