<svg width="24" height="24" viewBox="0 0 24 24" fill="none" xmlns="http://www.w3.org/2000/svg">
<g clip-path="url(#clip0_2_890)">
<path d="M15.7499 11.0625C17.3015 11.0625 18.553 9.80156 18.553 8.25C18.553 6.69844 17.3015 5.4375 15.7499 5.4375C14.1983 5.4375 12.9374 6.69844 12.9374 8.25C12.9374 9.80156 14.1983 11.0625 15.7499 11.0625ZM8.24991 11.0625C9.80147 11.0625 11.053 9.80156 11.053 8.25C11.053 6.69844 9.80147 5.4375 8.24991 5.4375C6.69835 5.4375 5.43741 6.69844 5.43741 8.25C5.43741 9.80156 6.69835 11.0625 8.24991 11.0625ZM8.24991 12.9375C6.06085 12.9375 1.68741 14.0344 1.68741 16.2188V18.5625H14.8124V16.2188C14.8124 14.0344 10.439 12.9375 8.24991 12.9375ZM15.7499 12.9375C15.478 12.9375 15.1733 12.9563 14.8452 12.9891C15.9327 13.7719 16.6874 14.8266 16.6874 16.2188V18.5625H22.3124V16.2188C22.3124 14.0344 17.939 12.9375 15.7499 12.9375Z" fill="white"/>
</g>
<defs>
<clipPath id="clip0_2_890">
<rect width="22.5" height="22.5" fill="white" transform="translate(0.75 0.75)"/>
</clipPath>
</defs>
</svg>
