<svg width="28" height="28" viewBox="0 0 28 28" fill="none" xmlns="http://www.w3.org/2000/svg">
<path d="M19.25 10.0683C18.7717 10.0683 18.375 9.67167 18.375 9.19333V7.58333C18.375 6.35833 17.85 5.16833 16.94 4.34C16.0183 3.5 14.8283 3.115 13.5683 3.23167C11.4683 3.43 9.625 5.57667 9.625 7.81667V8.94833C9.625 9.42667 9.22833 9.82333 8.75 9.82333C8.27167 9.82333 7.875 9.42667 7.875 8.94833V7.805C7.875 4.66667 10.4067 1.77333 13.405 1.48167C15.155 1.31833 16.835 1.86667 18.1183 3.045C19.39 4.2 20.125 5.85667 20.125 7.58333V9.19333C20.125 9.67167 19.7283 10.0683 19.25 10.0683Z" fill="white"/>
<path d="M17.5 26.5417H10.5C5.11003 26.5417 4.1067 24.0333 3.85003 21.595L2.97503 14.6067C2.8467 13.3467 2.80003 11.5383 4.02503 10.185C5.07503 9.01833 6.81337 8.45833 9.33337 8.45833H18.6667C21.1984 8.45833 22.9367 9.03 23.975 10.185C25.1884 11.5383 25.1534 13.3467 25.025 14.5833L24.15 21.595C23.8934 24.0333 22.89 26.5417 17.5 26.5417ZM9.33337 10.2083C7.3617 10.2083 6.00837 10.5933 5.32003 11.3633C4.74837 11.9933 4.5617 12.9617 4.71337 14.4083L5.58837 21.3967C5.7867 23.2633 6.30003 24.8033 10.5 24.8033H17.5C21.7 24.8033 22.2134 23.275 22.4117 21.42L23.2867 14.4083C23.4384 12.985 23.2517 12.0167 22.68 11.375C21.9917 10.5933 20.6384 10.2083 18.6667 10.2083H9.33337Z" fill="white"/>
<path d="M17.99 15.3417C17.3366 15.3417 16.8116 14.8167 16.8116 14.175C16.8116 13.5333 17.3366 13.0083 17.9783 13.0083C18.62 13.0083 19.145 13.5333 19.145 14.175C19.145 14.8167 18.6316 15.3417 17.99 15.3417Z" fill="white"/>
<path d="M9.82335 15.3417C9.17002 15.3417 8.64502 14.8167 8.64502 14.175C8.64502 13.5333 9.17002 13.0083 9.81169 13.0083C10.4534 13.0083 10.9784 13.5333 10.9784 14.175C10.9784 14.8167 10.465 15.3417 9.82335 15.3417Z" fill="white"/>
</svg>
