<svg width="24" height="24" viewBox="0 0 24 24" fill="none" xmlns="http://www.w3.org/2000/svg">
<g clip-path="url(#clip0_691_44318)">
<path d="M8.1 13.3452L10.93 10.5152L3.915 3.50016C2.355 5.06016 2.355 7.59516 3.915 9.15516L8.1 13.3452ZM14.885 11.5302C16.41 12.2452 18.565 11.7402 20.155 10.1502C22.07 8.23516 22.435 5.50016 20.97 4.03516C19.5 2.57016 16.76 2.93516 14.85 4.85016C13.26 6.44016 12.76 8.59516 13.47 10.1202C11.245 12.3402 3.705 19.8802 3.705 19.8802L5.12 21.2952L12 14.4152L18.88 21.2952L20.295 19.8802L13.415 13.0002L14.885 11.5302Z" fill="white"/>
</g>
<defs>
<clipPath id="clip0_691_44318">
<rect width="24" height="24" fill="white"/>
</clipPath>
</defs>
</svg>
