<svg width="24" height="24" viewBox="0 0 24 24" fill="none" xmlns="http://www.w3.org/2000/svg">
<path d="M11.9998 2.8877C11.9909 2.8877 11.8548 2.96792 11.5013 3.22683C10.9385 3.6391 10.5821 4.04048 10.4497 4.18733C10.1387 4.53238 9.70975 4.92599 9.6001 5.1337C9.56805 5.19439 9.4882 5.24876 9.02797 5.84729C8.56774 6.44582 7.72035 7.58107 7.24002 8.24112C6.7597 8.90118 6.67212 9.05165 6.55158 9.31187C6.43104 9.57209 6.28019 9.93751 6.14964 10.3245C6.0191 10.7116 5.91343 11.1092 5.767 11.4562C5.48996 12.1128 5.15643 12.6283 5.00795 13.0573C4.90997 13.3404 4.89248 13.8197 4.95318 14.7236C4.98975 15.2681 5.18497 15.9719 5.27539 16.3607C5.37743 16.7994 5.42022 16.8885 5.56005 17.1223C5.88747 17.6698 6.17548 18.0675 6.50427 18.3457C6.78126 18.5801 7.30401 18.9768 7.88731 19.3223C8.47062 19.6678 9.10429 19.9432 9.45024 20.0858C9.83031 20.2426 10.3239 20.3558 11.0465 20.5485C11.3196 20.6213 11.4071 20.6259 11.743 20.6295C12.0789 20.6331 12.6618 20.6311 13.131 20.598C13.6002 20.565 13.9382 20.501 14.3155 20.3904C15.1096 20.1576 15.563 19.9364 15.9341 19.6391C16.2639 19.3747 16.8653 18.8605 17.1868 18.5776C17.5398 18.267 17.5561 18.1225 17.597 17.9043C17.6538 17.6009 17.854 17.2237 18.0435 16.87C18.155 16.6617 18.3501 16.3357 18.5841 15.8448C18.7611 15.4735 18.8147 15.1558 18.8477 14.6542C18.8713 14.2949 18.8753 13.7214 18.8586 13.2722C18.8302 12.5131 18.716 12.1125 18.6095 11.8857C18.445 11.5356 18.2805 11.2394 18.1068 10.742C17.9689 10.3473 17.6528 9.69277 17.2975 9.09525C16.9422 8.49772 16.5375 7.98445 16.1235 7.50629C15.7096 7.02813 15.2987 6.60065 15.007 6.27015C14.7152 5.93966 14.5551 5.71911 14.2676 5.39135C13.9801 5.06359 13.5702 4.6353 13.3227 4.36304C12.8568 3.85038 12.6481 3.62609 12.4206 3.54538C12.3566 3.52269 12.2769 3.64049 11.9311 4.184C11.5854 4.72752 10.9759 5.73998 10.1486 7.14047C9.32125 8.54096 8.29444 10.2988 7.72065 11.3063C7.14687 12.3138 7.05722 12.5177 7.19689 12.1478C7.33656 11.7778 7.70827 10.8279 7.89076 10.3621C8.07326 9.89625 8.05529 9.94328 8.02783 10.0011C8.00037 10.0589 7.96397 10.126 7.79814 10.5147C7.63231 10.9034 7.33816 11.6116 7.18789 11.9388C7.03763 12.266 7.04016 12.1908 7.09634 11.9576C7.15251 11.7245 7.26225 11.3357 7.50065 10.7341C7.73905 10.1324 8.10278 9.32961 8.29487 8.93709C8.48696 8.54456 8.49639 8.58662 8.18943 9.46913C7.88247 10.3516 7.25883 12.0733 6.91276 13.0028C6.53279 14.0233 6.45475 14.1404 6.43073 14.3714C6.37382 14.9187 6.42383 15.3584 6.59574 15.6819C6.73002 15.9346 6.97187 16.3606 7.21882 16.7386C7.68472 17.4518 8.07726 17.8676 8.32978 18.0932C8.46731 18.216 8.65054 18.3243 8.75461 18.3599C8.85867 18.3954 8.88482 18.3468 8.89631 18.292C8.90779 18.2373 8.90381 18.1778 8.78962 17.7474C8.67543 17.3171 8.45115 16.5177 8.25366 15.6029C8.05618 14.688 7.89229 13.6819 8.0765 13.4941C8.26072 13.3063 8.798 13.9674 9.14823 14.4441C9.49846 14.9207 9.64536 15.1928 9.72465 15.272C9.80394 15.3513 9.81117 15.2294 9.72522 14.3498C9.63927 13.4702 9.45992 11.8365 9.4125 11.0384C9.36508 10.2403 9.45503 10.3274 9.60322 10.5092C9.75141 10.691 9.95511 10.965 10.1604 11.3082C10.5968 12.0378 10.7867 12.5081 10.7642 12.5324C10.6667 12.638 10.2621 12.1185 9.76196 11.659C9.55608 11.4699 9.43065 11.389 9.33608 11.3385C9.24151 11.2881 9.17728 11.2755 9.12724 11.37C9.07721 11.4645 9.04331 11.6666 8.9958 12.0587C8.9483 12.4509 8.8882 13.0269 8.82064 13.2847C8.75307 13.5426 8.67985 13.4648 8.61813 13.3293C8.47539 13.0159 8.44676 12.7073 8.42959 12.4243C8.40231 11.9748 8.47308 11.5238 8.6595 10.9854C8.78703 10.6171 9.04507 10.0794 9.24501 9.68594C9.44495 9.29253 9.59524 9.06576 9.87879 8.71559C10.1623 8.36543 10.5746 7.89875 10.8942 7.48261C11.464 6.74097 11.6886 6.36617 11.767 6.44494C11.9073 6.58595 11.9114 7.00695 11.9333 7.55501C11.9575 8.16027 11.7365 8.75318 11.4912 9.25931C11.2712 9.71327 10.8598 10.1174 10.4937 10.499C10.1929 10.8125 10.2323 11.0758 10.2472 11.1696C10.2552 11.2205 10.3799 10.9881 10.56 10.3808C10.7008 9.90587 10.902 9.08115 11.14 8.37562C11.3779 7.6701 11.6363 7.10585 11.8374 6.71429C12.2928 5.82756 12.3889 5.6722 12.4195 5.58728C12.4328 5.55022 12.4999 5.56222 12.5628 5.5905C12.6256 5.61877 12.697 5.67237 12.9717 5.94291C13.2464 6.21345 13.7223 6.69931 13.9919 6.98087C14.2616 7.26244 14.3105 7.325 14.4848 7.61453C14.659 7.90405 14.9571 8.41865 15.1558 8.73477C15.5292 9.32868 15.6206 9.48357 15.8922 9.7584C16.0695 9.93791 16.2357 10.1704 16.5129 10.7713C16.7271 11.2357 17.0051 12.061 17.1854 12.5946C17.3658 13.1283 17.4181 13.3546 17.4463 13.6265C17.4745 13.8985 17.4771 14.209 17.3669 14.798C17.2567 15.3869 17.0338 16.2448 16.8669 16.7987C16.7001 17.3525 16.596 17.5763 16.5245 17.7006C16.4355 17.8553 15.9463 17.9794 15.0697 18.2369C14.6241 18.3678 14.188 18.5353 13.7649 18.6477C13.3418 18.7601 12.9477 18.8215 12.6052 18.8554C12.2628 18.8893 11.984 18.8937 11.6401 18.8617C10.8918 18.7922 10.3817 18.6558 10.1946 18.5776C9.86997 18.4421 9.71163 18.0745 9.58301 17.7464C9.53707 17.6292 9.52306 17.2774 9.51011 16.7688C9.50156 16.4332 9.58889 16.1584 9.98818 15.2975C10.3228 14.576 11.0082 13.3164 11.5055 12.4711C12.0028 11.6259 12.3123 11.2433 12.4666 10.7023C12.6208 10.1614 12.6103 9.47365 12.6228 8.89962C12.6352 8.32558 12.6709 7.88607 13.0553 8.26571C13.4397 8.64534 14.1717 9.85743 14.7526 11.1856C15.3335 12.5138 15.741 13.9213 15.9675 14.7543C16.251 15.797 16.2626 16.1406 16.2628 16.3361C16.263 16.5787 16.0507 16.9011 15.814 17.1324C15.625 17.317 15.342 17.3554 15.0912 17.4046C14.7293 17.4756 14.3291 17.4764 14.0198 17.4664C13.8138 17.4598 13.4163 17.3098 12.873 17.1186C12.5447 17.003 12.3547 16.9371 12.2244 16.8252C12.0968 16.7155 11.9637 16.3014 11.7865 15.6165C11.6935 15.257 11.6927 14.8514 11.7051 14.4799C11.7174 14.1084 11.768 13.7777 11.9745 13.2705C12.181 12.7633 12.5418 12.0896 12.7529 11.6614C13.0385 11.0821 13.0794 10.8384 13.1376 10.7796C13.2436 10.6726 13.4553 11.129 13.837 12.0993C14.1424 12.8757 14.5188 14.2857 14.7468 15.1449C15.0464 16.2738 15.0326 16.6984 14.9802 16.8972C14.9338 17.0732 14.6595 17.0006 14.511 16.963C14.4156 16.9388 14.2879 16.8759 14.1285 16.6411C13.9691 16.4063 13.7838 15.9942 13.5932 15.2934C13.4026 14.5925 13.2123 13.6154 13.1074 13.0913C12.994 12.5246 12.9573 12.4489 12.9143 12.3801C12.8913 12.3434 12.8548 12.3109 12.8299 12.3378C12.8051 12.3648 12.7901 12.4543 12.8942 13.0678C12.9983 13.6813 13.2218 14.8161 13.3515 15.5962C13.4811 16.3763 13.5101 16.7674 13.5087 16.9773C13.5073 17.1872 13.4746 17.2041 13.1809 17.2218C12.3343 17.2727 11.7006 17.2609 11.5702 17.2174C11.2822 17.0054 11.0821 16.6632 10.9581 16.2595C10.8845 15.9975 10.7892 15.6199 10.6144 15.2154" stroke="#004D1A" stroke-width="2" stroke-linecap="round"/>
<path d="M12 22.75C7.12003 22.75 3.15003 18.78 3.15003 13.9C3.12003 8.17 8.58002 3.4 10.93 1.61C11.56 1.13 12.44 1.13 13.07 1.61C15.42 3.43 20.88 8.26 20.85 13.91C20.85 18.78 16.88 22.75 12 22.75ZM12 2.75C11.95 2.75 11.89 2.77 11.84 2.81C10.15 4.1 4.63004 8.71 4.66004 13.9C4.66004 17.96 7.96004 21.25 12.01 21.25C16.06 21.25 19.36 17.96 19.36 13.91C19.39 8.79 13.86 4.12 12.16 2.81C12.1 2.77 12.05 2.75 12 2.75Z" fill="#004D1A"/>
</svg>
