<svg width="22" height="22" viewBox="0 0 22 22" fill="none" xmlns="http://www.w3.org/2000/svg">
<g clip-path="url(#clip0_692_62628)">
<mask id="mask0_692_62628" style="mask-type:luminance" maskUnits="userSpaceOnUse" x="0" y="0" width="22" height="22">
<path d="M22 0H0V22H22V0Z" fill="white"/>
</mask>
<g mask="url(#mask0_692_62628)">
<path d="M19.25 13.9727V19.2572C19.2498 19.4985 19.1538 19.7298 18.9831 19.9003C18.8124 20.0708 18.581 20.1666 18.3398 20.1666H3.66027C3.5399 20.1658 3.42087 20.1412 3.30997 20.0944C3.19907 20.0475 3.09849 19.9793 3.01397 19.8936C2.92944 19.8079 2.86263 19.7063 2.81734 19.5948C2.77206 19.4832 2.74918 19.3639 2.75002 19.2435V8.24992H8.25002C8.49314 8.24992 8.7263 8.15334 8.89821 7.98144C9.07012 7.80952 9.16667 7.57637 9.16667 7.33325V1.83325H18.3352C18.8403 1.83325 19.25 2.25034 19.25 2.74259V6.19384L11.0009 14.4438L10.9954 18.3287L14.8876 18.3342L19.25 13.9727ZM19.9632 8.07392L21.2593 9.37009L14.1295 16.4999L12.8315 16.4981L12.8333 15.2038L19.9632 8.07392ZM2.75002 6.41658L7.33336 1.836V6.41658H2.75002Z" fill="white"/>
</g>
</g>
<defs>
<clipPath id="clip0_692_62628">
<rect width="22" height="22" fill="white"/>
</clipPath>
</defs>
</svg>
