<svg width="22" height="22" viewBox="0 0 22 22" fill="none" xmlns="http://www.w3.org/2000/svg">
<g clip-path="url(#clip0_692_62616)">
<mask id="mask0_692_62616" style="mask-type:luminance" maskUnits="userSpaceOnUse" x="0" y="0" width="22" height="22">
<path d="M22 0H0V22H22V0Z" fill="white"/>
</mask>
<g mask="url(#mask0_692_62616)">
<path d="M20.1663 9.16667V18.3333C20.1663 18.5764 20.0697 18.8096 19.8978 18.9815C19.726 19.1534 19.4928 19.25 19.2497 19.25H2.74967C2.50656 19.25 2.2734 19.1534 2.10149 18.9815C1.92959 18.8096 1.83301 18.5764 1.83301 18.3333V9.16667H20.1663ZM20.1663 7.33333H1.83301V3.66667C1.83301 3.42355 1.92959 3.19039 2.10149 3.01848C2.2734 2.84658 2.50656 2.75 2.74967 2.75H19.2497C19.4928 2.75 19.726 2.84658 19.8978 3.01848C20.0697 3.19039 20.1663 3.42355 20.1663 3.66667V7.33333ZM13.7497 14.6667V16.5H17.4163V14.6667H13.7497Z" fill="white"/>
</g>
</g>
<defs>
<clipPath id="clip0_692_62616">
<rect width="22" height="22" fill="white"/>
</clipPath>
</defs>
</svg>
