<svg width="24" height="27" viewBox="0 0 24 27" fill="none" xmlns="http://www.w3.org/2000/svg">
<path d="M9.98861 26.7022C9.78861 26.7022 9.62861 26.658 9.50861 26.6028C9.10861 26.437 8.42861 25.8956 8.42861 24.1828V17.0557H6.08861C4.74861 17.0557 4.26861 16.3596 4.09861 15.9507C3.92861 15.5308 3.77861 14.68 4.65861 13.564L12.2286 4.06109C13.2486 2.77931 14.0786 2.86771 14.4786 3.03346C14.8786 3.19921 15.5586 3.74065 15.5586 5.45337V12.5805H17.8986C19.2386 12.5805 19.7186 13.2767 19.8886 13.6855C20.0586 14.1054 20.2086 14.9562 19.3286 16.0723L11.7586 25.5751C11.0486 26.4702 10.4286 26.7022 9.98861 26.7022ZM13.9286 4.59149C13.8986 4.63569 13.6886 4.74618 13.3586 5.16608L5.78861 14.6689C5.50861 15.0225 5.46861 15.2435 5.46861 15.2877C5.48861 15.2988 5.66861 15.4093 6.08861 15.4093H9.17861C9.58861 15.4093 9.92861 15.785 9.92861 16.238V24.1939C9.92861 24.7464 10.0186 24.9895 10.0586 25.0558C10.0886 25.0116 10.2986 24.9011 10.6286 24.4812L18.1986 14.9783C18.4786 14.6247 18.5186 14.4037 18.5186 14.3595C18.4986 14.3485 18.3186 14.238 17.8986 14.238H14.8086C14.3986 14.238 14.0586 13.8623 14.0586 13.4093V5.45337C14.0686 4.90088 13.9686 4.66884 13.9286 4.59149Z" fill="#004D1A"/>
<path d="M12.4996 15.4295L14.2481 15.6627L15.583 15.8402L11.4366 20.9786L11.5167 13.9205L8.35368 13.8979L12.5731 8.95824L12.4996 15.4295Z" stroke="#004D1A" stroke-width="4"/>
</svg>
