<svg width="711" height="601" viewBox="0 0 711 601" fill="none" xmlns="http://www.w3.org/2000/svg">
<path d="M302.034 17.2803L272.339 -0.000976562V34.3184L302.034 17.2803ZM261.629 0.242188L232.421 17.2803L261.629 34.0752V0.242188ZM352.664 0.485352L323.456 17.2803L352.664 34.0752V0.485352ZM210.031 17.2803L181.796 0.97168V33.3447L210.031 17.2803ZM170.114 1.21582L142.609 17.2803L170.114 33.1016V1.21582ZM391.61 17.2803L364.105 1.21582V33.1016L391.61 17.2803ZM117.779 17.2803L91.4915 1.94531V32.6143L117.779 17.2803ZM78.5901 2.18945L52.5462 17.2803L78.5901 32.1279V2.18945ZM26.0159 17.2812L0.702423 2.67676V31.6416L26.0159 17.2812ZM441.991 3.16309L417.652 17.2803L441.991 31.1543V3.16309ZM478.505 17.2812L457.085 4.86719V29.6943L478.505 17.2812ZM528.887 10.2217L516.96 17.2803L528.887 24.0957V10.2217ZM710.222 11.1953L699.999 17.2803L710.222 23.1221V11.1953ZM560.771 17.2803L552.495 12.4121V21.9053L560.771 17.2803ZM651.806 17.2803L643.531 12.4121V21.9053L651.806 17.2803ZM618.214 13.1426L611.156 17.2803L618.214 21.418V13.1426ZM307.147 26.5293L277.695 43.5674L307.147 60.3623V26.5293ZM347.311 43.5674L317.859 26.5293V60.3623L347.311 43.5674ZM255.79 43.5684L227.312 27.0166V59.876L255.79 43.5684ZM215.627 27.2607L187.636 43.5684L215.627 59.6328V27.2607ZM163.783 43.5674L136.765 27.9902V59.1455L163.783 43.5674ZM397.45 27.9902L370.433 43.5684L397.45 58.9023V27.9902ZM124.107 28.2334L97.8196 43.5684L124.107 58.6592V28.2334ZM71.7757 43.5674L46.218 28.7197V58.1719L71.7757 43.5674ZM32.8323 28.9639L7.51883 43.5684L32.8323 57.9287V28.9639ZM435.421 43.5684L410.351 28.9639V57.9287L435.421 43.5684ZM485.804 32.1279L466.331 43.5684L485.804 54.7646V32.1279ZM519.393 43.5684L504.788 35.0488V51.8438L519.393 43.5684ZM698.051 43.5684L688.558 37.9697V48.9229L698.051 43.5684ZM664.218 38.4561L655.699 43.5674L664.218 48.4355V38.4561ZM572.944 39.1865L565.398 43.5684L572.944 47.7061V39.1865ZM605.072 43.5674L598.499 39.6729V47.4619L605.072 43.5674ZM352.42 53.0605L323.699 69.8555L352.42 86.4072V53.0605ZM301.306 69.8555L272.827 53.3037V86.1631L301.306 69.8555ZM261.143 53.5469L233.152 69.8555L261.143 85.9199V53.5469ZM391.85 69.8555L363.859 53.5469V85.9199L391.85 69.8555ZM209.299 69.8555L182.038 54.0342V85.4336L209.299 69.8555ZM169.868 54.2773L142.851 69.8555L169.868 85.1895V54.2773ZM117.535 69.8555L91.4915 54.7646V84.7031L117.535 69.8555ZM78.3479 55.251L53.0345 69.8555L78.3479 84.2158V55.251ZM25.2874 69.8555L1.1907 55.7383V83.7295L25.2874 69.8555ZM441.991 55.7383L417.652 69.8555L441.991 83.7295V55.7383ZM478.505 69.8555L457.085 57.4414V82.0254L478.505 69.8555ZM529.13 62.3096L516.23 69.8555L529.13 77.1572V62.3096ZM561.016 69.8555L552.253 64.501V74.9668L561.016 69.8555ZM709.735 64.7441L700.972 69.8555L709.735 74.9668V64.7441ZM651.074 69.8555L643.773 65.7178V73.9932L651.074 69.8555ZM617.972 65.9609L611.644 69.8555L617.972 73.5068V65.9609ZM346.334 95.8994L318.343 79.834V112.207L346.334 95.8994ZM255.059 95.8994L227.554 80.0781V111.721L255.059 95.8994ZM306.661 80.0781L278.913 95.8994L306.661 111.964V80.0781ZM215.385 80.3213L188.124 95.8994L215.385 111.721V80.3213ZM397.448 80.3213L370.187 95.8994L397.448 111.721V80.3213ZM163.539 95.8994L136.765 80.5654V111.478L163.539 95.8994ZM124.107 80.8076L97.8196 95.8994L124.107 111.233V80.8076ZM435.906 95.8994L410.105 81.0518V110.747L435.906 95.8994ZM71.2913 95.8994L46.4641 81.7812V110.26L71.2913 95.8994ZM32.346 82.0254L8.2493 95.8994L32.346 109.773V82.0254ZM486.047 84.7021L466.331 95.8984L486.047 107.339V84.7021ZM520.124 95.8994L504.546 87.1367V104.905L520.124 95.8994ZM572.945 91.5186L565.156 95.8994L572.945 100.524V91.5186ZM696.59 95.8994L689.288 91.7607V100.28L696.59 95.8994ZM663.49 92.248L656.917 95.8994L663.49 99.7939V92.248ZM604.83 95.8994L598.745 92.4922V99.5508L604.83 95.8994ZM170.111 106.365L142.363 122.187L170.111 138.251V106.365ZM209.543 122.187L182.038 106.365V138.251L209.543 122.187ZM351.932 106.608L324.671 122.187L351.932 138.008V106.608ZM391.366 122.187L364.105 106.608V138.008L391.366 122.187ZM260.9 106.609L233.882 122.187L260.9 137.765V106.609ZM118.024 122.187L91.2493 106.853V137.765L118.024 122.187ZM300.09 122.187L273.316 106.853V137.765L300.09 122.187ZM78.3499 107.582L52.7923 122.187L78.3499 137.034V107.582ZM441.993 108.069L417.409 122.188L441.993 136.548V108.069ZM25.0442 122.187L1.1907 108.556V136.061L25.0442 122.187ZM478.745 122.187L456.839 109.773V134.844L478.745 122.187ZM529.372 114.397L515.741 122.187L529.372 130.219V114.397ZM561.504 122.187L552.011 116.832V127.785L561.504 122.187ZM709.005 118.535L702.433 122.187L709.005 126.081V118.535ZM649.858 122.188L644.503 119.023V125.352L649.858 122.188ZM617.729 119.267L612.374 122.188L617.729 125.352V119.267ZM124.839 132.166L96.6048 148.474L124.839 165.025V132.166ZM164.511 148.474L136.277 132.166V165.025L164.511 148.474ZM215.629 132.653L188.124 148.475L215.629 164.539V132.653ZM72.5081 148.474L45.7337 133.14V164.052L72.5081 148.474ZM254.571 148.474L227.796 133.14V164.052L254.571 148.474ZM397.206 133.383L370.675 148.475L397.206 163.809V133.383ZM306.173 133.384L279.886 148.475L306.173 163.565V133.384ZM345.117 148.475L319.074 133.627V163.565L345.117 148.475ZM435.906 148.475L410.105 133.627V163.322L435.906 148.475ZM32.8323 133.87L7.51883 148.475L32.8323 163.322V133.87ZM486.293 136.791L465.847 148.475L486.293 160.401V136.791ZM520.612 148.474L504.304 139.225V157.967L520.612 148.474ZM572.942 143.85L564.909 148.474L572.942 153.099V143.85ZM604.344 148.475L598.745 145.311V151.639L604.344 148.475ZM695.373 148.475L690.019 145.554V151.639L695.373 148.475ZM663 145.797L658.132 148.475L663 151.396V145.797ZM119.727 174.762L90.5188 157.967V191.8L119.727 174.762ZM79.5657 158.211L50.6009 174.762L79.5657 191.557V158.211ZM170.355 158.454L142.12 174.763L170.355 191.07V158.454ZM209.543 174.762L182.038 158.94V190.583L209.543 174.762ZM27.2356 174.762L0.218048 159.185V190.34L27.2356 174.762ZM260.412 160.157L234.855 174.762L260.412 189.609V160.157ZM298.87 174.763L273.8 160.401V189.123L298.87 174.763ZM389.906 174.762L364.835 160.401V189.366L389.906 174.762ZM351.201 160.645L326.374 174.763L351.201 189.123V160.645ZM441.991 160.645L417.652 174.762L441.991 188.879V160.645ZM478.989 174.762L456.839 162.104V187.662L478.989 174.762ZM529.617 166.486L515.257 174.763L529.617 183.038V166.486ZM561.991 174.762L551.769 168.92V180.604L561.991 174.762ZM708.52 172.084L703.652 174.762L708.52 177.683V172.084ZM617.488 172.085L612.863 174.762L617.488 177.439V172.085ZM648.883 174.763L644.745 172.328V177.196L648.883 174.763ZM74.6956 201.05L44.7571 183.768V218.331L74.6956 201.05ZM34.2923 184.012L4.59695 201.05L34.2923 218.088V184.012ZM125.081 184.254L96.1165 201.049L125.081 217.844V184.254ZM164.271 201.05L136.523 184.985V217.114L164.271 201.05ZM214.897 186.445L189.339 201.05L214.897 215.897V186.445ZM252.866 201.05L228.527 187.176V215.167L252.866 201.05ZM434.689 201.05L410.835 187.176V214.924L434.689 201.05ZM396.235 187.419L372.624 201.049L396.235 214.68V187.419ZM304.957 187.905L282.077 201.05L304.957 214.437V187.905ZM342.926 201.05L320.046 187.906V214.193L342.926 201.05ZM486.049 189.366L465.847 201.049L486.049 212.732V189.366ZM520.612 201.049L504.304 191.557V210.542L520.612 201.049ZM573.185 196.425L564.909 201.049L573.185 205.674V196.425ZM604.099 201.05L598.988 198.129V204.214L604.099 201.05ZM694.403 201.05L690.265 198.858V203.483L694.403 201.05ZM662.514 198.859L658.863 201.05L662.514 203.24V198.859ZM29.6682 227.337L-1.0007 209.568V245.105L29.6682 227.337ZM79.8089 210.055L49.8704 227.337L79.8089 244.618V210.055ZM119.484 227.337L90.5188 210.786V244.132L119.484 227.337ZM169.382 212.489L143.581 227.337L169.382 242.185V212.489ZM207.351 227.337L183.011 213.463V241.454L207.351 227.337ZM441.262 214.437L419.113 227.337L441.262 240.237V214.437ZM259.199 214.681L237.292 227.337L259.199 239.994V214.681ZM387.469 227.338L366.05 214.924V239.751L387.469 227.338ZM296.439 227.338L275.019 215.167V239.751L296.439 227.338ZM349.988 215.167L328.812 227.337L349.988 239.507V215.167ZM478.017 227.337L457.327 215.41V239.264L478.017 227.337ZM529.616 219.305L515.741 227.337L529.616 235.369V219.305ZM561.747 227.337L552.011 221.739V232.936L561.747 227.337ZM617.242 224.902L613.105 227.337L617.242 229.771V224.902ZM708.033 225.146L704.382 227.337L708.033 229.527V225.146ZM648.399 227.337L644.991 225.39V229.284L648.399 227.337ZM34.7796 235.855L3.6243 253.624L34.7796 271.393V235.855ZM74.6956 253.625L44.7571 236.343V270.906L74.6956 253.625ZM124.353 238.047L97.3352 253.624L124.353 269.202V238.047ZM162.324 253.625L137.253 239.264V267.985L162.324 253.625ZM213.682 241.211L192.019 253.625L213.682 266.038V241.211ZM432.501 253.624L411.812 241.697V265.551L432.501 253.624ZM250.434 253.624L229.988 241.941V265.308L250.434 253.624ZM395.017 241.941L375.058 253.624L395.017 265.308V241.941ZM303.74 242.671L284.511 253.624L303.74 264.577V242.671ZM340.493 253.624L321.265 242.671V264.577L340.493 253.624ZM485.561 242.914L467.062 253.624L485.561 264.334V242.914ZM519.88 253.624L504.546 244.861V262.387L519.88 253.624ZM572.944 249.243L565.398 253.625L572.944 258.006V249.243ZM603.855 253.624L599.23 250.947V256.302L603.855 253.624ZM693.914 253.624L690.507 251.677V255.571L693.914 253.624ZM662.515 251.921L659.351 253.624L662.515 255.328V251.921ZM29.9114 279.912L-1.0007 261.9V297.681L29.9114 279.912ZM79.3216 263.36L50.843 279.911L79.3216 296.463V263.36ZM117.781 279.912L91.2493 264.577V295.246L117.781 279.912ZM168.164 267.012L146.015 279.912L168.164 292.812V267.012ZM204.674 279.912L184.472 268.229V291.596L204.674 279.912ZM440.289 268.959L421.304 279.912L440.289 290.865V268.959ZM385.281 279.911L367.269 269.445V290.378L385.281 279.911ZM476.313 279.911L458.058 269.445V290.378L476.313 279.911ZM257.737 269.688L239.968 279.912L257.737 290.135V269.688ZM294.005 279.912L276.48 269.688V290.135L294.005 279.912ZM348.771 269.688L331.245 279.912L348.771 290.135V269.688ZM529.131 272.854L516.718 279.912L529.131 286.971V272.854ZM561.016 279.912L552.253 274.801V284.78L561.016 279.912ZM617 277.965L613.593 279.912L617 281.859V277.965ZM648.155 279.912L645.234 278.209V281.616L648.155 279.912ZM708.031 278.209L704.866 279.912L708.031 281.616V278.209ZM34.2932 288.918L4.35477 306.2L34.2932 323.481V288.918ZM73.7239 306.2L45.2454 289.892V322.508L73.7239 306.2ZM123.376 292.569L99.5227 306.199L123.376 319.83V292.569ZM159.89 306.199L138.714 294.029V318.369L159.89 306.199ZM430.31 306.199L412.784 295.977V316.179L430.31 306.199ZM211.975 296.22L194.937 306.199L211.975 315.936V296.22ZM394.041 296.22L377.003 306.199L394.041 316.179V296.22ZM247.513 306.199L231.449 296.949V315.448L247.513 306.199ZM338.545 306.199L322.238 296.949V315.448L338.545 306.199ZM302.767 296.95L286.702 306.199L302.767 315.205V296.95ZM484.589 297.193L469.011 306.199L484.589 315.205V297.193ZM518.176 306.2L505.519 298.654V313.502L518.176 306.2ZM572.455 302.549L566.37 306.199L572.455 309.851V302.549ZM603.37 306.199L599.476 304.009V308.39L603.37 306.199ZM693.913 306.199L690.749 304.252V307.903L693.913 306.199ZM662.271 304.496L659.593 306.2L662.271 307.66V304.496ZM28.9368 332.487L-0.758514 315.206V349.525L28.9368 332.487ZM78.5901 317.396L52.5462 332.487L78.5901 347.335V317.396ZM115.587 332.487L92.4641 319.1V345.631L115.587 332.487ZM166.702 322.508L149.421 332.487L166.702 342.467V322.508ZM383.821 332.487L367.999 323.237V341.736L383.821 332.487ZM439.314 323.237L423.249 332.487L439.314 341.736V323.237ZM201.509 332.486L186.175 323.48V341.249L201.509 332.486ZM348.04 323.48L332.706 332.486L348.04 341.249V323.48ZM474.12 332.486L459.273 323.968V341.006L474.12 332.486ZM291.57 332.487L277.452 324.212V340.52L291.57 332.487ZM256.518 324.455L242.644 332.487L256.518 340.52V324.455ZM528.158 326.889L518.421 332.486L528.158 338.085V326.889ZM559.799 332.487L552.984 328.593V336.382L559.799 332.487ZM708.032 330.54L704.624 332.487L708.032 334.435V330.54ZM616.756 330.783L613.835 332.486L616.756 334.19V330.783ZM648.155 332.487L645.234 330.783V333.947L648.155 332.487ZM33.804 342.466L5.56961 358.774L33.804 374.839V342.466ZM72.0188 358.774L46.218 343.927V373.622L72.0188 358.774ZM121.673 347.578L102.445 358.774L121.673 369.728V347.578ZM156.482 358.774L140.417 349.281V368.023L156.482 358.774ZM393.556 350.012L378.222 358.774L393.556 367.537V350.012ZM428.605 358.774L413.757 350.013V367.294L428.605 358.774ZM337.085 358.774L322.968 350.499V366.807L337.085 358.774ZM301.791 350.986L288.648 358.774L301.791 366.32V350.986ZM210.517 351.716L198.347 358.774L210.517 365.833V351.716ZM244.594 358.774L232.667 351.716V365.59L244.594 358.774ZM483.372 351.716L471.202 358.774L483.372 365.833V351.716ZM516.232 358.774L506.495 352.934V364.373L516.232 358.774ZM571.968 356.098L567.343 358.774L571.968 361.452V356.098ZM694.158 358.774L690.507 356.584V360.965L694.158 358.774ZM602.882 358.774L599.718 356.827V360.479L602.882 358.774ZM662.515 356.827L659.351 358.774L662.515 360.479V356.827ZM27.9632 385.062L-0.0280457 368.754V401.127L27.9632 385.062ZM77.6184 371.675L54.4954 385.062L77.6184 398.206V371.675ZM112.91 385.062L93.9251 374.108V396.015L112.91 385.062ZM382.361 385.062L368.73 377.029V392.851L382.361 385.062ZM347.307 377.273L334.163 385.062L347.307 392.607V377.273ZM438.099 377.517L425.199 385.062L438.099 392.364V377.517ZM164.998 377.76L152.585 385.062L164.998 392.12V377.76ZM289.621 385.062L278.425 378.49V391.391L289.621 385.062ZM471.688 385.062L460.491 378.49V391.634L471.688 385.062ZM255.304 378.977L245.081 385.062L255.304 390.903V378.977ZM198.102 385.062L187.636 378.978V391.147L198.102 385.062ZM527.183 380.924L520.124 385.062L527.183 388.956V380.924ZM708.52 382.141L703.652 385.062L708.52 387.739V382.141ZM558.339 385.062L553.714 382.385V387.739L558.339 385.062ZM648.398 385.062L645.234 383.114V386.766L648.398 385.062ZM616.755 383.358L614.077 385.062L616.755 386.522V383.358ZM33.0745 396.259L7.03055 411.35L33.0745 426.44V396.259ZM70.3147 411.35L46.9485 397.719V424.736L70.3147 411.35ZM120.457 402.587L105.366 411.35L120.457 420.112V402.587ZM392.34 404.291L380.413 411.35L392.34 418.165V404.291ZM153.562 411.349L141.878 404.534V417.921L153.562 411.349ZM426.172 411.349L414.976 404.777V417.921L426.172 411.349ZM334.897 411.35L324.187 405.021V417.435L334.897 411.35ZM300.575 405.507L290.839 411.349L300.575 416.947V405.507ZM209.055 406.48L201.023 411.349L209.055 415.974V406.48ZM242.158 411.349L233.882 406.48V415.974L242.158 411.349ZM482.154 406.48L473.878 411.349L482.154 415.974V406.48ZM514.04 411.35L507.468 407.455V415.001L514.04 411.35ZM695.13 411.35L690.019 408.186V414.271L695.13 411.35ZM662.758 408.915L658.62 411.35L662.758 413.783V408.915ZM571.484 409.402L568.32 411.35L571.484 413.054V409.402ZM602.394 411.35L599.96 409.646V412.81L602.394 411.35ZM26.9915 437.637L0.460236 422.302V452.728L26.9915 437.637ZM76.6429 425.71L56.4407 437.637L76.6429 449.32V425.71ZM110.723 437.637L94.9016 428.388V446.643L110.723 437.637ZM345.848 432.281L337.085 437.637L345.848 442.748V432.281ZM379.436 437.637L370.187 432.281V442.748L379.436 437.637ZM163.784 432.525L155.265 437.637L163.784 442.505V432.525ZM436.638 432.769L428.363 437.637L436.638 442.262V432.769ZM469.008 437.637L461.706 433.255V441.774L469.008 437.637ZM195.913 437.637L188.855 433.499V441.531L195.913 437.637ZM286.945 437.637L279.886 433.499V441.774L286.945 437.637ZM254.087 433.742L247.515 437.637L254.087 441.288V433.742ZM709.006 433.986L702.921 437.638L709.006 441.045V433.986ZM526.211 434.96L522.074 437.638L526.211 440.071V434.96ZM648.883 437.637L644.745 435.202V439.827L648.883 437.637ZM557.366 437.637L554.202 435.689V439.341L557.366 437.637ZM616.756 435.689L613.835 437.637L616.756 439.341V435.689ZM32.5882 449.32L7.76102 463.681L32.5882 478.285V449.32ZM69.0999 463.682L47.4368 451.268V476.095L69.0999 463.682ZM119.483 456.623L107.07 463.682L119.483 470.983V456.623ZM151.37 463.682L142.851 458.813V468.793L151.37 463.682ZM390.635 459.787L383.82 463.682L390.635 467.819V459.787ZM423.009 463.681L416.437 460.029V467.575L423.009 463.681ZM331.976 463.681L325.648 460.273V467.332L331.976 463.681ZM695.863 463.681L689.534 460.273V467.332L695.863 463.681ZM299.357 460.517L293.515 463.682L299.357 467.089V460.517ZM208.083 460.761L202.972 463.682L208.083 466.846V460.761ZM663.001 460.761L657.89 463.682L663.001 466.846V460.761ZM239.969 463.681L235.101 461.003V466.602L239.969 463.681ZM480.937 461.003L476.312 463.681L480.937 466.602V461.003ZM512.092 463.682L508.441 461.734V465.872L512.092 463.682ZM602.639 463.681L599.718 462.221V465.385L602.639 463.681ZM571.238 462.464L568.804 463.682L571.238 465.142V462.464ZM26.26 489.969L0.702423 475.121V504.816L26.26 489.969ZM76.1595 479.259L57.4173 489.969L76.1595 500.922V479.259ZM109.506 489.969L95.6321 482.18V498.001L109.506 489.969ZM163.054 486.317L156.726 489.968L163.054 493.619V486.317ZM709.003 486.317L702.675 489.969L709.003 493.863V486.317ZM194.21 489.968L189.585 487.291V492.646L194.21 489.968ZM344.39 487.291L339.765 489.968L344.39 492.646V487.291ZM376.273 489.969L371.648 487.291V492.89L376.273 489.969ZM649.615 489.969L644.503 487.291V492.89L649.615 489.969ZM435.419 487.534L431.038 489.968L435.419 492.646V487.534ZM253.113 487.777L249.218 489.969L253.113 492.402V487.777ZM284.753 489.969L280.859 487.777V492.402L284.753 489.969ZM617.241 487.778L613.347 489.969L617.241 492.159V487.778ZM466.576 489.969L462.925 488.021V492.159L466.576 489.969ZM525.722 488.508L523.288 489.969L525.722 491.429V488.508ZM556.878 489.969L554.445 488.751V491.429L556.878 489.969ZM32.5911 502.139L8.00711 516.256L32.5911 530.373V502.139ZM68.6116 516.256L47.679 504.329V528.426L68.6116 516.256ZM118.995 509.928L108.042 516.257L118.995 522.585V509.928ZM150.394 516.256L143.335 512.118V520.394L150.394 516.256ZM695.618 516.257L689.777 512.849V519.664L695.618 516.257ZM663.246 513.092L657.648 516.256L663.246 519.42V513.092ZM207.594 514.309L204.187 516.256L207.594 518.203V514.309ZM389.418 514.309L386.011 516.256L389.418 518.203V514.309ZM603.127 516.256L599.476 514.309V518.446L603.127 516.256ZM238.749 516.256L235.585 514.552V518.203L238.749 516.256ZM329.784 516.256L326.62 514.552V518.203L329.784 516.256ZM420.816 516.256L417.652 514.552V518.203L420.816 516.256ZM298.385 514.553L295.464 516.256L298.385 517.96V514.553ZM480.206 514.796L477.773 516.257L480.206 517.717V514.796ZM571.24 514.796L568.562 516.256L571.24 517.96V514.796ZM511.363 516.257L508.929 515.039V517.717L511.363 516.257ZM26.26 542.543L0.702423 527.695V557.391L26.26 542.543ZM76.1595 531.834L57.4173 542.544L76.1595 553.497V531.834ZM109.263 542.544L95.6321 534.755V550.576L109.263 542.544ZM162.809 539.38L157.21 542.544L162.809 545.708V539.38ZM708.76 539.623L703.406 542.544L708.76 545.708V539.623ZM649.371 542.543L644.503 539.865V545.464L649.371 542.543ZM617.242 540.109L613.105 542.544L617.242 544.978V540.109ZM193.477 542.544L190.07 540.597V544.734L193.477 542.544ZM343.656 541.083L341.222 542.544L343.656 544.004V541.083ZM374.812 542.544L372.378 541.083V544.004L374.812 542.544ZM557.123 542.543L554.202 541.083V544.247L557.123 542.543ZM252.624 541.326L250.191 542.544L252.624 544.004V541.326ZM283.781 542.544L281.347 541.326V544.004L283.781 542.544ZM434.691 541.326L432.257 542.544L434.691 544.004V541.326ZM525.722 541.326L523.288 542.544L525.722 544.004V541.326ZM465.604 542.544L463.413 541.327V543.761L465.604 542.544ZM32.5911 554.713L8.00711 568.831L32.5911 583.191V554.713ZM69.0989 568.831L47.679 556.417V581.244L69.0989 568.831ZM119.241 562.26L107.558 568.831L119.241 575.646V562.26ZM150.637 568.831L143.335 564.692V573.212L150.637 568.831ZM663.003 566.154L658.378 568.831L663.003 571.509V566.154ZM694.89 568.831L690.265 566.154V571.509L694.89 568.831ZM603.127 568.831L599.476 566.641V571.021L603.127 568.831ZM571.481 566.884L568.074 568.831L571.481 570.778V566.884ZM207.354 567.128L204.433 568.831L207.354 570.535V567.128ZM511.363 568.831L508.929 567.37V570.291L511.363 568.831ZM238.021 568.831L236.074 567.614V570.048L238.021 568.831ZM298.143 567.614L295.952 568.831L298.143 570.048V567.614ZM329.052 568.831L327.105 567.614V570.048L329.052 568.831ZM388.931 567.614L386.984 568.831L388.931 570.048V567.614ZM420.087 568.831L418.14 567.614V570.048L420.087 568.831ZM480.205 567.614L478.015 568.831L480.205 570.048V567.614ZM26.5042 595.119L0.460236 580.028V610.21L26.5042 595.119ZM76.6429 583.679L56.4407 595.118L76.6429 606.802V583.679ZM110.235 595.118L95.1438 586.355V603.881L110.235 595.118ZM163.052 591.468L156.48 595.118L163.052 598.77V591.468ZM708.274 592.685L704.136 595.119L708.274 597.553V592.685ZM193.722 595.119L189.827 592.929V597.31L193.722 595.119ZM617.241 592.929L613.347 595.119L617.241 597.31V592.929ZM648.886 595.119L644.991 592.929V597.31L648.886 595.119ZM557.123 595.118L554.202 593.415V596.822L557.123 595.118ZM525.724 593.658L523.046 595.119L525.724 596.579V593.658ZM434.447 593.902L432.499 595.119L434.447 596.336V593.902ZM465.604 595.119L463.413 593.902V596.336L465.604 595.119ZM283.293 595.118L281.589 594.145V596.092L283.293 595.118ZM343.414 594.145L341.71 595.118L343.414 596.092V594.145ZM374.328 595.118L372.624 594.145V596.092L374.328 595.118ZM252.626 594.146L250.679 595.119L252.626 596.336V594.146ZM32.8323 606.802L7.51883 621.405L32.8323 636.01V606.802ZM69.8313 621.406L47.1946 608.263V634.55L69.8313 621.406ZM119.972 613.13L105.855 621.406L119.972 629.682V613.13ZM152.099 621.405L142.363 615.808V627.004L152.099 621.405ZM207.596 619.216L203.945 621.406L207.596 623.597V619.216ZM662.757 619.216L658.863 621.406L662.757 623.597V619.216ZM694.403 621.406L690.265 619.216V623.597L694.403 621.406ZM602.882 621.406L599.718 619.459V623.354L602.882 621.406ZM571.484 619.702L568.32 621.405L571.484 623.109V619.702ZM511.363 621.406L508.929 619.945V622.866L511.363 621.406ZM238.265 621.406L235.831 620.189V622.623L238.265 621.406ZM480.206 620.189L477.773 621.406L480.206 622.623V620.189ZM388.93 620.433L387.226 621.406L388.93 622.38V620.433ZM419.844 621.406L418.14 620.433V622.38L419.844 621.406ZM297.897 620.677L296.437 621.406L297.897 622.137V620.677ZM328.565 621.406L327.105 620.677V622.137L328.565 621.406ZM26.7473 647.693L0.460236 632.603V662.784L26.7473 647.693ZM77.1321 635.037L55.2259 647.693L77.1321 660.351V635.037ZM112.183 647.693L94.1712 637.228V658.16L112.183 647.693ZM164.026 642.339L154.777 647.694L164.026 653.049V642.339ZM195.181 647.694L189.339 644.286V651.102L195.181 647.694ZM708.274 645.259L704.136 647.693L708.274 649.884V645.259ZM616.999 645.746L613.835 647.693L616.999 649.397V645.746ZM648.643 647.693L644.991 645.746V649.641L648.643 647.693ZM525.722 646.233L523.288 647.694L525.722 649.154V646.233ZM556.88 647.694L554.202 646.233V649.154L556.88 647.694ZM252.623 646.477L250.433 647.693L252.623 648.91V646.477ZM465.603 647.693L463.656 646.477V648.91L465.603 647.693ZM283.293 647.693L281.589 646.72V648.667L283.293 647.693ZM434.446 646.72L432.741 647.693L434.446 648.667V646.72ZM343.412 646.964L341.952 647.693L343.412 648.424V646.964ZM374.084 647.693L372.624 646.964V648.424L374.084 647.693ZM32.8343 659.133L7.27664 673.98L32.8343 688.828V659.133ZM70.5598 673.981L46.7063 660.107V687.855L70.5598 673.981ZM121.189 663.759L103.663 673.981L121.189 683.961V663.759ZM154.534 673.98L141.148 666.191V681.77L154.534 673.98ZM208.326 670.33L202.241 673.981L208.326 677.389V670.33ZM239.237 673.981L235.585 671.791V676.172L239.237 673.981ZM662.514 671.791L658.863 673.981L662.514 675.929V671.791ZM694.402 673.981L690.507 671.791V676.172L694.402 673.981ZM602.639 673.98L599.718 672.277V675.685L602.639 673.98ZM571.24 672.521L568.562 673.981L571.24 675.441V672.521ZM479.962 672.765L478.015 673.981L479.962 674.955V672.765ZM511.119 673.981L508.929 672.765V675.198L511.119 673.981ZM297.897 673.007L296.437 673.98L297.897 674.711V673.007ZM419.844 673.981L418.14 673.008V674.955L419.844 673.981ZM328.568 673.98L327.351 673.251V674.711L328.568 673.98ZM388.932 673.251L387.472 673.98L388.932 674.711V673.251ZM112.725 691.857L91.7923 679.931V703.784L112.725 691.857ZM18.928 693.525L-0.699921 682.219V704.65L18.928 693.525ZM194.565 687.651L185.316 682.296V693.006L194.565 687.651ZM80.6155 683.62L62.3899 694.23L80.6155 704.65V683.62ZM165.244 685.714L152.101 693.259L165.244 700.805V685.714ZM708.274 697.834L704.136 700.269L708.274 702.459V697.834ZM253.112 698.078L249.46 700.269L253.112 702.459V698.078ZM648.399 700.269L644.991 698.321V702.216L648.399 700.269ZM616.756 698.565L613.835 700.269L616.756 701.973V698.565ZM283.781 700.269L281.347 698.808V701.485L283.781 700.269ZM556.635 700.269L554.445 698.808V701.485L556.635 700.269ZM525.478 699.052L523.531 700.269L525.478 701.485V699.052ZM434.446 699.295L432.741 700.269L434.446 700.999V699.295ZM465.36 700.269L463.656 699.295V701.242L465.36 700.269ZM343.172 699.538L342.199 700.269L343.172 700.755V699.538ZM373.84 700.269L372.866 699.538V700.755L373.84 700.269Z" fill="#005B1F"/>
</svg>
