<svg width="711" height="527" viewBox="0 0 711 527" fill="none" xmlns="http://www.w3.org/2000/svg">
<path d="M408.06 687.37L437.746 704.651L437.746 670.332L408.06 687.37ZM448.452 704.408L477.651 687.37L448.452 670.575L448.452 704.408ZM357.445 704.165L386.645 687.37L357.445 670.575L357.445 704.165ZM500.034 687.37L528.261 703.679L528.261 671.306L500.034 687.37ZM539.94 703.435L567.436 687.37L539.94 671.549L539.94 703.435ZM318.513 687.37L346.009 703.435L346.009 671.549L318.513 687.37ZM592.258 687.37L618.537 702.705L618.537 672.036L592.258 687.37ZM631.434 702.461L657.47 687.37L631.434 672.522L631.434 702.461ZM683.991 687.369L709.297 701.974L709.297 673.009L683.991 687.369ZM268.147 701.487L292.479 687.37L268.147 673.496L268.147 701.487ZM231.645 687.369L253.058 699.783L253.058 674.956L231.645 687.369ZM181.278 694.429L193.201 687.37L181.278 680.555L181.278 694.429ZM6.16237e-05 693.455L10.2198 687.37L6.05639e-05 681.528L6.16237e-05 693.455ZM149.404 687.37L157.677 692.238L157.677 682.745L149.404 687.37ZM58.3975 687.37L66.671 692.238L66.671 682.745L58.3975 687.37ZM91.9786 691.508L99.0352 687.37L91.9786 683.232L91.9786 691.508ZM402.949 678.121L432.392 661.083L402.949 644.288L402.949 678.121ZM362.798 661.083L392.24 678.121L392.24 644.288L362.798 661.083ZM454.29 661.082L482.759 677.634L482.759 644.774L454.29 661.082ZM494.44 677.39L522.422 661.082L494.44 645.018L494.44 677.39ZM546.269 661.083L573.277 676.66L573.277 645.505L546.269 661.083ZM312.674 676.66L339.683 661.082L312.674 645.748L312.674 676.66ZM585.932 676.417L612.211 661.082L585.932 645.991L585.932 676.417ZM638.247 661.083L663.796 675.931L663.796 646.479L638.247 661.083ZM677.177 675.687L702.483 661.082L677.177 646.722L677.177 675.687ZM274.715 661.082L299.777 675.687L299.777 646.722L274.715 661.082ZM224.348 672.523L243.815 661.082L224.348 649.886L224.348 672.523ZM190.77 661.082L205.369 669.602L205.369 652.807L190.77 661.082ZM12.168 661.082L21.6573 666.681L21.6573 655.728L12.168 661.082ZM45.9903 666.194L54.5059 661.083L45.9903 656.215L45.9903 666.194ZM137.235 665.464L144.779 661.082L137.235 656.944L137.235 665.464ZM105.118 661.083L111.688 664.978L111.688 657.189L105.118 661.083ZM357.69 651.59L386.402 634.795L357.69 618.243L357.69 651.59ZM408.788 634.795L437.258 651.347L437.258 618.487L408.788 634.795ZM448.939 651.104L476.921 634.795L448.939 618.73L448.939 651.104ZM318.273 634.795L346.255 651.104L346.255 618.731L318.273 634.795ZM500.766 634.795L528.019 650.616L528.019 619.217L500.766 634.795ZM540.185 650.373L567.193 634.795L540.185 619.461L540.185 650.373ZM592.501 634.795L618.537 649.886L618.537 619.947L592.501 634.795ZM631.676 649.399L656.982 634.795L631.676 620.435L631.676 649.399ZM684.72 634.795L708.81 648.912L708.81 620.921L684.72 634.795ZM268.147 648.912L292.479 634.795L268.147 620.921L268.147 648.912ZM231.645 634.795L253.058 647.209L253.058 622.625L231.645 634.795ZM181.035 642.341L193.932 634.795L181.035 627.493L181.035 642.341ZM149.159 634.795L157.919 640.149L157.919 629.684L149.159 634.795ZM0.487362 639.906L9.24713 634.795L0.487361 629.684L0.487362 639.906ZM59.129 634.795L66.4288 638.933L66.4288 630.657L59.129 634.795ZM92.2208 638.69L98.5469 634.795L92.2208 631.144L92.2208 638.69ZM363.773 608.751L391.756 624.816L391.756 592.443L363.773 608.751ZM455.021 608.751L482.517 624.572L482.517 592.93L455.021 608.751ZM403.435 624.572L431.174 608.751L403.435 592.687L403.435 624.572ZM494.682 624.329L521.935 608.751L494.682 592.93L494.682 624.329ZM312.676 624.329L339.929 608.751L312.676 592.93L312.676 624.329ZM546.512 608.751L573.277 624.085L573.277 593.173L546.512 608.751ZM585.932 623.843L612.211 608.751L585.932 593.417L585.932 623.843ZM274.231 608.751L300.023 623.599L300.023 593.903L274.231 608.751ZM638.731 608.751L663.55 622.869L663.55 594.391L638.731 608.751ZM677.663 622.625L701.753 608.751L677.663 594.877L677.663 622.625ZM224.105 619.948L243.815 608.752L224.105 597.312L224.105 619.948ZM190.038 608.751L205.611 617.514L205.611 599.745L190.038 608.751ZM137.234 613.132L145.021 608.751L137.234 604.126L137.234 613.132ZM13.627 608.751L20.9268 612.89L20.9268 604.37L13.627 608.751ZM46.7178 612.402L53.2881 608.751L46.7178 604.857L46.7178 612.402ZM105.358 608.751L111.441 612.158L111.441 605.1L105.358 608.751ZM539.942 598.285L567.682 582.464L539.942 566.399L539.942 598.285ZM500.523 582.464L528.019 598.285L528.019 566.399L500.523 582.464ZM358.178 598.042L385.43 582.464L358.178 566.643L358.178 598.042ZM318.756 582.464L346.009 598.042L346.009 566.643L318.756 582.464ZM449.182 598.041L476.19 582.464L449.182 566.886L449.182 598.041ZM592.013 582.464L618.779 597.798L618.779 566.886L592.013 582.464ZM410.004 582.464L436.77 597.798L436.77 566.886L410.004 582.464ZM631.675 597.068L657.224 582.464L631.675 567.616L631.675 597.068ZM268.145 596.581L292.721 582.463L268.145 568.103L268.145 596.581ZM684.963 582.464L708.81 596.095L708.81 568.59L684.963 582.464ZM231.404 582.464L253.304 594.877L253.304 569.807L231.404 582.464ZM180.793 590.253L194.42 582.464L180.793 574.432L180.793 590.253ZM148.672 582.464L158.161 587.818L158.161 576.865L148.672 582.464ZM1.21685 586.115L7.78618 582.464L1.21685 578.569L1.21685 586.115ZM60.3448 582.463L65.6983 585.627L65.6983 579.299L60.3448 582.463ZM92.4639 585.384L97.8174 582.463L92.4639 579.299L92.4639 585.384ZM585.199 572.484L613.425 556.177L585.199 539.625L585.199 572.484ZM545.54 556.177L573.766 572.484L573.766 539.625L545.54 556.177ZM494.439 571.997L521.935 556.176L494.439 540.111L494.439 571.997ZM637.515 556.177L664.28 571.511L664.28 540.599L637.515 556.177ZM455.509 556.177L482.274 571.511L482.274 540.599L455.509 556.177ZM312.918 571.268L339.44 556.176L312.918 540.842L312.918 571.268ZM403.922 571.267L430.201 556.176L403.922 541.085L403.922 571.267ZM364.99 556.176L391.026 571.023L391.026 541.085L364.99 556.176ZM274.231 556.176L300.023 571.023L300.023 541.328L274.231 556.176ZM677.177 570.78L702.483 556.176L677.177 541.328L677.177 570.78ZM223.859 567.859L244.299 556.176L223.859 544.249L223.859 567.859ZM189.551 556.177L205.854 565.426L205.854 546.684L189.551 556.177ZM137.237 560.801L145.267 556.177L137.237 551.552L137.237 560.801ZM105.845 556.176L111.441 559.34L111.441 553.012L105.845 556.176ZM14.8438 556.176L20.1963 559.097L20.1963 553.012L14.8438 556.176ZM47.2071 558.854L52.0733 556.176L47.2071 553.255L47.2071 558.854ZM590.31 529.889L619.509 546.684L619.509 512.851L590.31 529.889ZM630.459 546.439L659.414 529.889L630.459 513.094L630.459 546.439ZM539.698 546.196L567.924 529.888L539.698 513.58L539.698 546.196ZM500.523 529.889L528.019 545.71L528.019 514.067L500.523 529.889ZM682.773 529.889L709.781 545.466L709.781 514.311L682.773 529.889ZM449.669 544.493L475.219 529.889L449.669 515.041L449.669 544.493ZM411.223 529.888L436.285 544.249L436.285 515.527L411.223 529.888ZM320.216 529.889L345.278 544.249L345.278 515.284L320.216 529.889ZM358.908 544.006L383.728 529.888L358.908 515.527L358.908 544.006ZM268.147 544.006L292.479 529.889L268.147 515.772L268.147 544.006ZM231.161 529.889L253.304 542.546L253.304 516.988L231.161 529.889ZM180.548 538.164L194.903 529.888L180.548 521.612L180.548 538.164ZM148.184 529.889L158.403 535.731L158.403 524.047L148.184 529.889ZM1.7022 532.566L6.56841 529.889L1.7022 526.968L1.7022 532.566ZM92.7061 532.565L97.3291 529.889L92.7061 527.211L92.7061 532.565ZM61.3194 529.888L65.4561 532.322L65.4561 527.454L61.3194 529.888ZM635.327 503.601L665.257 520.883L665.257 486.319L635.327 503.601ZM675.718 520.639L705.404 503.601L675.718 486.563L675.718 520.639ZM584.957 520.396L613.913 503.602L584.957 486.807L584.957 520.396ZM545.78 503.601L573.52 519.665L573.52 487.536L545.78 503.601ZM495.17 518.205L520.72 503.601L495.17 488.753L495.17 518.205ZM457.212 503.601L481.545 517.475L481.545 489.483L457.212 503.601ZM275.447 503.601L299.293 517.475L299.293 489.727L275.447 503.601ZM313.89 517.231L337.492 503.602L313.89 489.971L313.89 517.231ZM405.138 516.745L428.011 503.601L405.138 490.214L405.138 516.745ZM367.181 503.601L390.054 516.744L390.054 490.457L367.181 503.601ZM224.103 515.284L244.299 503.602L224.103 491.918L224.103 515.284ZM189.551 503.602L205.854 513.094L205.854 494.108L189.551 503.602ZM136.994 508.226L145.267 503.602L136.994 498.977L136.994 508.226ZM106.09 503.601L111.199 506.522L111.199 500.437L106.09 503.601ZM15.8145 503.601L19.9512 505.792L19.9512 501.167L15.8145 503.601ZM47.6934 505.791L51.3428 503.601L47.6934 501.41L47.6934 505.791ZM680.341 477.313L711 495.082L711 459.545L680.341 477.313ZM630.216 494.596L660.145 477.313L630.216 460.032L630.216 494.596ZM590.553 477.313L619.509 493.864L619.509 460.519L590.553 477.313ZM540.671 492.161L566.463 477.313L540.671 462.466L540.671 492.161ZM502.713 477.313L527.046 491.188L527.046 463.196L502.713 477.313ZM268.876 490.214L291.019 477.314L268.876 464.413L268.876 490.214ZM450.882 489.97L472.781 477.313L450.882 464.656L450.882 489.97ZM322.651 477.313L344.064 489.727L344.064 464.899L322.651 477.313ZM413.654 477.313L435.066 489.483L435.066 464.899L413.654 477.313ZM360.121 489.483L381.291 477.314L360.121 465.144L360.121 489.483ZM232.133 477.314L252.815 489.24L252.815 465.387L232.133 477.314ZM180.55 485.346L194.42 477.314L180.55 469.281L180.55 485.346ZM148.429 477.314L158.161 482.911L158.161 471.715L148.429 477.314ZM92.9502 479.748L97.087 477.314L92.9502 474.88L92.9502 479.748ZM2.18852 479.504L5.83793 477.314L2.18852 475.123L2.18852 479.504ZM61.8038 477.314L65.21 479.261L65.21 475.366L61.8038 477.314ZM675.231 468.795L706.376 451.026L675.231 433.258L675.231 468.795ZM635.327 451.025L665.257 468.308L665.257 433.744L635.327 451.025ZM585.686 466.604L612.694 451.026L585.686 435.448L585.686 466.604ZM547.727 451.025L572.789 465.387L572.789 436.665L547.727 451.025ZM496.385 463.439L518.041 451.025L496.385 438.612L496.385 463.439ZM277.634 451.026L298.316 462.953L298.316 439.1L277.634 451.026ZM459.645 451.026L480.084 462.709L480.084 439.343L459.645 451.026ZM315.106 462.709L335.06 451.026L315.106 439.343L315.106 462.709ZM406.355 461.98L425.577 451.026L406.355 440.073L406.355 461.98ZM369.612 451.026L388.835 461.98L388.835 440.073L369.612 451.026ZM224.591 461.736L243.084 451.026L224.591 440.316L224.591 461.736ZM190.282 451.026L205.611 459.789L205.611 442.264L190.282 451.026ZM137.235 455.407L144.779 451.025L137.235 446.645L137.235 455.407ZM106.334 451.026L110.957 453.703L110.957 448.349L106.334 451.026ZM16.3018 451.026L19.709 452.974L19.709 449.079L16.3018 451.026ZM47.6914 452.73L50.8555 451.026L47.6914 449.322L47.6914 452.73ZM680.098 424.738L711 442.75L711 406.97L680.098 424.738ZM630.703 441.29L659.173 424.739L630.703 408.188L630.703 441.29ZM592.256 424.738L618.779 440.073L618.779 409.404L592.256 424.738ZM541.888 437.639L564.03 424.738L541.888 411.838L541.888 437.639ZM505.39 424.738L525.585 436.421L525.585 413.055L505.39 424.738ZM269.848 435.691L288.827 424.738L269.848 413.785L269.848 435.691ZM324.84 424.739L342.846 435.205L342.846 414.272L324.84 424.739ZM233.836 424.739L252.085 435.205L252.085 414.273L233.836 424.739ZM452.344 434.962L470.106 424.738L452.344 414.516L452.344 434.962ZM416.087 424.738L433.606 434.962L433.606 414.516L416.087 424.738ZM361.338 434.962L378.857 424.738L361.338 414.516L361.338 434.962ZM181.033 431.797L193.443 424.738L181.033 417.68L181.033 431.797ZM149.159 424.738L157.919 429.85L157.919 419.87L149.159 424.738ZM93.1924 426.686L96.5987 424.738L93.1924 422.791L93.1924 426.686ZM62.0469 424.738L64.9678 426.441L64.9678 423.034L62.0469 424.738ZM2.18949 426.441L5.35355 424.738L2.18949 423.034L2.18949 426.441ZM675.717 415.732L705.647 398.45L675.717 381.169L675.717 415.732ZM636.299 398.45L664.769 414.759L664.769 382.143L636.299 398.45ZM586.662 412.081L610.508 398.451L586.662 384.82L586.662 412.081ZM550.159 398.451L571.329 410.621L571.329 386.281L550.159 398.451ZM279.825 398.451L297.345 408.674L297.345 388.472L279.825 398.451ZM498.091 408.431L515.124 398.451L498.091 388.715L498.091 408.431ZM316.082 408.431L333.114 398.451L316.082 388.472L316.082 408.431ZM462.564 398.451L478.623 407.701L478.623 389.202L462.564 398.451ZM371.56 398.451L387.863 407.701L387.863 389.202L371.56 398.451ZM407.327 407.7L423.387 398.451L407.327 389.445L407.327 407.7ZM225.563 407.457L241.136 398.451L225.563 389.445L225.563 407.457ZM191.986 398.45L204.639 405.996L204.639 391.148L191.986 398.45ZM137.724 402.102L143.807 398.451L137.724 394.8L137.724 402.102ZM106.818 398.451L110.711 400.642L110.711 396.261L106.818 398.451ZM16.3028 398.451L19.4668 400.398L19.4668 396.747L16.3028 398.451ZM47.9356 400.154L50.6133 398.45L47.9356 396.99L47.9356 400.154ZM681.072 372.163L710.758 389.444L710.758 355.125L681.072 372.163ZM631.434 387.254L657.47 372.163L631.434 357.315L631.434 387.254ZM594.448 372.163L617.564 385.551L617.564 359.02L594.448 372.163ZM543.349 382.143L560.625 372.163L543.349 362.184L543.349 382.143ZM326.299 372.163L342.115 381.413L342.115 362.914L326.299 372.163ZM270.823 381.413L286.883 372.163L270.823 362.914L270.823 381.413ZM508.553 372.164L523.883 381.17L523.883 363.401L508.553 372.164ZM362.067 381.17L377.397 372.164L362.067 363.401L362.067 381.17ZM236.027 372.164L250.871 380.683L250.871 363.645L236.027 372.164ZM418.522 372.163L432.634 380.439L432.634 364.131L418.522 372.163ZM453.563 380.195L467.432 372.163L453.563 364.131L453.563 380.195ZM182.008 377.762L191.74 372.164L182.008 366.565L182.008 377.762ZM150.376 372.163L157.189 376.058L157.189 368.269L150.376 372.163ZM2.18949 374.11L5.59574 372.163L2.18949 370.216L2.18949 374.11ZM93.4356 373.867L96.3565 372.164L93.4356 370.46L93.4356 373.867ZM62.0469 372.163L64.9678 373.867L64.9678 370.703L62.0469 372.163ZM676.206 362.185L704.432 345.876L676.206 329.812L676.206 362.185ZM638.003 345.876L663.796 360.724L663.796 331.028L638.003 345.876ZM588.364 357.072L607.587 345.876L588.364 334.923L588.364 357.072ZM553.566 345.876L569.626 355.369L569.626 336.627L553.566 345.876ZM316.566 354.639L331.897 345.876L316.566 337.113L316.566 354.639ZM281.529 345.876L296.372 354.638L296.372 337.356L281.529 345.876ZM373.02 345.876L387.133 354.151L387.133 337.844L373.02 345.876ZM408.303 353.664L421.442 345.876L408.303 338.33L408.303 353.664ZM499.549 352.935L511.715 345.876L499.549 338.817L499.549 352.935ZM465.482 345.876L477.405 352.935L477.405 339.061L465.482 345.876ZM226.778 352.935L238.944 345.876L226.778 338.817L226.778 352.935ZM193.93 345.876L203.663 351.717L203.663 340.277L193.93 345.876ZM138.211 348.553L142.834 345.876L138.211 343.198L138.211 348.553ZM16.0586 345.876L19.709 348.066L19.709 343.686L16.0586 345.876ZM107.305 345.876L110.47 347.823L110.47 344.172L107.305 345.876ZM47.6914 347.823L50.8555 345.876L47.6914 344.172L47.6914 347.823ZM682.045 319.588L710.027 335.896L710.027 303.523L682.045 319.588ZM632.405 332.976L655.522 319.588L632.405 306.444L632.405 332.976ZM597.124 319.589L616.104 330.542L616.104 308.636L597.124 319.589ZM327.759 319.589L341.385 327.621L341.385 311.8L327.759 319.589ZM362.801 327.377L375.94 319.589L362.801 312.043L362.801 327.377ZM272.038 327.134L284.935 319.588L272.038 312.286L272.038 327.134ZM545.053 326.891L557.462 319.589L545.053 312.53L545.053 326.891ZM420.469 319.588L431.662 326.16L431.662 313.26L420.469 319.588ZM238.459 319.589L249.652 326.16L249.652 313.017L238.459 319.589ZM454.775 325.674L464.995 319.589L454.775 313.747L454.775 325.674ZM511.959 319.588L522.422 325.673L522.422 313.503L511.959 319.588ZM182.981 323.727L190.038 319.589L182.981 315.694L182.981 323.727ZM1.70218 322.51L6.56839 319.589L1.70218 316.911L1.70218 322.51ZM151.836 319.589L156.459 322.266L156.459 316.911L151.836 319.589ZM61.8037 319.589L64.9678 321.536L64.9678 317.885L61.8037 319.589ZM93.4366 321.292L96.1143 319.588L93.4366 318.128L93.4366 321.292ZM676.936 308.392L702.972 293.301L676.936 278.21L676.936 308.392ZM639.706 293.301L663.065 306.932L663.065 279.914L639.706 293.301ZM589.58 302.063L604.666 293.301L589.58 284.538L589.58 302.063ZM317.782 300.359L329.705 293.301L317.782 286.485L317.782 300.359ZM556.486 293.302L568.166 300.116L568.166 286.73L556.486 293.302ZM283.961 293.302L295.153 299.873L295.153 286.73L283.961 293.302ZM375.208 293.301L385.914 299.629L385.914 287.216L375.208 293.301ZM409.519 299.144L419.252 293.302L409.519 287.703L409.519 299.144ZM501.01 298.17L509.04 293.302L501.01 288.677L501.01 298.17ZM467.918 293.302L476.19 298.17L476.19 288.677L467.918 293.302ZM227.997 298.17L236.27 293.302L227.997 288.677L227.997 298.17ZM196.121 293.301L202.69 297.195L202.69 289.649L196.121 293.301ZM15.0869 293.301L20.1963 296.465L20.1963 290.38L15.0869 293.301ZM47.4492 295.735L51.585 293.301L47.4492 290.867L47.4492 295.735ZM138.693 295.248L141.857 293.301L138.693 291.597L138.693 295.248ZM107.793 293.301L110.228 295.005L110.228 291.841L107.793 293.301ZM683.017 267.014L709.539 282.349L709.539 251.923L683.017 267.014ZM633.381 278.94L653.576 267.014L633.381 255.33L633.381 278.94ZM599.312 267.014L615.128 276.263L615.128 258.008L599.312 267.014ZM364.26 272.369L373.02 267.014L364.26 261.902L364.26 272.369ZM330.683 267.014L339.929 272.369L339.929 261.902L330.683 267.014ZM546.267 272.125L554.783 267.014L546.267 262.146L546.267 272.125ZM273.498 271.882L281.772 267.014L273.498 262.389L273.498 271.882ZM241.138 267.014L248.438 271.396L248.438 262.876L241.138 267.014ZM514.147 267.014L521.204 271.151L521.204 263.119L514.147 267.014ZM423.145 267.014L430.201 271.151L430.201 262.876L423.145 267.014ZM455.992 270.908L462.563 267.014L455.992 263.362L455.992 270.908ZM1.21584 270.664L7.29885 267.013L1.21584 263.606L1.21584 270.664ZM183.953 269.69L188.09 267.013L183.953 264.579L183.953 269.69ZM61.3194 267.014L65.4561 269.448L65.4561 264.823L61.3194 267.014ZM152.807 267.014L155.971 268.961L155.971 265.31L152.807 267.014ZM93.4356 268.961L96.3565 267.014L93.4356 265.31L93.4356 268.961ZM677.422 255.33L702.241 240.97L677.422 226.365L677.422 255.33ZM640.922 240.969L662.577 253.383L662.577 228.556L640.922 240.969ZM590.554 248.027L602.964 240.969L590.554 233.667L590.554 248.027ZM558.677 240.969L567.193 245.837L567.193 235.857L558.677 240.969ZM319.487 244.863L326.3 240.969L319.487 236.831L319.487 244.863ZM287.123 240.97L293.693 244.621L293.693 237.075L287.123 240.97ZM378.127 240.97L384.454 244.377L384.454 237.318L378.127 240.97ZM14.3545 240.97L20.6807 244.377L20.6807 237.318L14.3545 240.97ZM410.736 244.134L416.576 240.969L410.736 237.562L410.736 244.134ZM501.981 243.89L507.091 240.969L501.981 237.805L501.981 243.89ZM47.2061 243.89L52.3155 240.969L47.2061 237.805L47.2061 243.89ZM470.105 240.97L474.973 243.647L474.973 238.049L470.105 240.97ZM229.214 243.648L233.837 240.97L229.214 238.049L229.214 243.648ZM198.068 240.969L201.718 242.916L201.718 238.778L198.068 240.969ZM107.549 240.97L110.47 242.43L110.47 239.266L107.549 240.97ZM138.939 242.187L141.374 240.969L138.939 239.509L138.939 242.187ZM683.748 214.682L709.297 229.529L709.297 199.834L683.748 214.682ZM633.864 225.392L652.601 214.682L633.864 203.729L633.864 225.392ZM600.527 214.682L614.397 222.471L614.397 206.649L600.527 214.682ZM546.996 218.333L553.323 214.683L546.996 211.031L546.996 218.333ZM1.21779 218.333L7.54494 214.682L1.21779 210.787L1.21779 218.333ZM515.851 214.683L520.474 217.359L520.474 212.005L515.851 214.683ZM365.718 217.359L370.341 214.683L365.718 212.005L365.718 217.359ZM333.845 214.682L338.468 217.359L338.468 211.761L333.845 214.682ZM60.5879 214.682L65.6983 217.359L65.6983 211.761L60.5879 214.682ZM274.716 217.116L279.096 214.683L274.716 212.005L274.716 217.116ZM456.967 216.873L460.859 214.682L456.967 212.248L456.967 216.873ZM425.336 214.682L429.229 216.873L429.229 212.248L425.336 214.682ZM92.9512 216.872L96.8447 214.682L92.9512 212.491L92.9512 216.872ZM243.569 214.682L247.22 216.629L247.22 212.491L243.569 214.682ZM184.441 216.143L186.875 214.682L184.441 213.222L184.441 216.143ZM153.295 214.682L155.729 215.899L155.729 213.222L153.295 214.682ZM677.419 202.512L701.995 188.395L677.419 174.277L677.419 202.512ZM641.409 188.395L662.336 200.321L662.336 176.225L641.409 188.395ZM591.041 194.723L601.991 188.394L591.041 182.065L591.041 194.723ZM559.652 188.395L566.709 192.532L566.709 184.257L559.652 188.395ZM14.5986 188.394L20.4385 191.802L20.4385 184.986L14.5986 188.394ZM46.961 191.559L52.5576 188.395L46.961 185.231L46.961 191.559ZM502.47 190.342L505.877 188.395L502.47 186.447L502.47 190.342ZM320.703 190.342L324.109 188.395L320.703 186.447L320.703 190.342ZM107.062 188.395L110.711 190.342L110.711 186.204L107.062 188.395ZM471.324 188.395L474.488 190.099L474.488 186.447L471.324 188.395ZM380.317 188.395L383.481 190.099L383.481 186.447L380.317 188.395ZM289.314 188.395L292.479 190.099L292.479 186.447L289.314 188.395ZM411.707 190.098L414.628 188.395L411.707 186.69L411.707 190.098ZM229.942 189.855L232.376 188.394L229.942 186.934L229.942 189.855ZM138.938 189.855L141.616 188.395L138.938 186.69L138.938 189.855ZM198.796 188.394L201.23 189.611L201.23 186.934L198.796 188.394ZM683.748 162.107L709.297 176.955L709.297 147.26L683.748 162.107ZM633.864 172.816L652.601 162.106L633.864 151.153L633.864 172.816ZM600.771 162.106L614.397 169.896L614.397 154.074L600.771 162.106ZM547.242 165.271L552.839 162.106L547.242 158.942L547.242 165.271ZM1.46095 165.027L6.81447 162.107L1.46095 158.942L1.46095 165.027ZM60.832 162.107L65.6983 164.785L65.6983 159.187L60.832 162.107ZM92.9502 164.541L97.0869 162.106L92.9502 159.673L92.9502 164.541ZM516.583 162.106L519.989 164.054L519.989 159.916L516.583 162.106ZM366.45 163.567L368.885 162.106L366.45 160.647L366.45 163.567ZM335.304 162.106L337.738 163.567L337.738 160.647L335.304 162.106ZM153.05 162.107L155.971 163.567L155.971 160.403L153.05 162.107ZM457.453 163.324L459.887 162.106L457.453 160.647L457.453 163.324ZM426.307 162.106L428.74 163.324L428.74 160.647L426.307 162.106ZM275.443 163.324L277.878 162.106L275.443 160.647L275.443 163.324ZM184.441 163.324L186.875 162.106L184.441 160.647L184.441 163.324ZM244.541 162.106L246.731 163.323L246.731 160.89L244.541 162.106ZM677.419 149.938L701.995 135.819L677.419 121.459L677.419 149.938ZM640.923 135.819L662.336 148.233L662.336 123.406L640.923 135.819ZM590.796 142.391L602.476 135.819L590.796 129.004L590.796 142.391ZM559.409 135.819L566.709 139.958L566.709 131.438L559.409 135.819ZM47.2041 138.496L51.8272 135.819L47.2041 133.142L47.2041 138.496ZM15.3272 135.819L19.9512 138.496L19.9512 133.142L15.3272 135.819ZM107.062 135.819L110.711 138.01L110.711 133.629L107.062 135.819ZM138.697 137.767L142.104 135.819L138.697 133.872L138.697 137.767ZM502.71 137.522L505.631 135.819L502.71 134.115L502.71 137.522ZM198.796 135.819L201.23 137.28L201.23 134.359L198.796 135.819ZM472.053 135.819L474 137.036L474 134.603L472.053 135.819ZM411.949 137.036L414.14 135.819L411.949 134.603L411.949 137.036ZM381.05 135.819L382.997 137.036L382.997 134.603L381.05 135.819ZM321.189 137.036L323.137 135.819L321.189 134.603L321.189 137.036ZM290.043 135.819L291.99 137.036L291.99 134.603L290.043 135.819ZM229.943 137.036L232.135 135.819L229.943 134.603L229.943 137.036ZM683.504 109.531L709.539 124.622L709.539 94.4404L683.504 109.531ZM633.381 120.972L653.576 109.532L633.381 97.8486L633.381 120.972ZM599.799 109.532L614.886 118.295L614.886 100.77L599.799 109.532ZM546.999 113.183L553.568 109.532L546.999 105.881L546.999 113.183ZM1.94728 111.966L6.08399 109.531L1.94728 107.098L1.94728 111.966ZM516.338 109.531L520.231 111.722L520.231 107.341L516.338 109.531ZM92.9512 111.722L96.8447 109.531L92.9512 107.341L92.9512 111.722ZM61.3164 109.531L65.21 111.722L65.21 107.341L61.3164 109.531ZM153.05 109.532L155.971 111.235L155.971 107.828L153.05 109.532ZM184.439 110.992L187.117 109.531L184.439 108.071L184.439 110.992ZM275.688 110.748L277.636 109.531L275.688 108.314L275.688 110.748ZM244.541 109.531L246.731 110.748L246.731 108.314L244.541 109.531ZM426.795 109.532L428.499 110.506L428.499 108.559L426.795 109.532ZM366.692 110.506L368.396 109.532L366.692 108.559L366.692 110.506ZM335.788 109.532L337.492 110.506L337.492 108.559L335.788 109.532ZM457.452 110.505L459.399 109.531L457.452 108.314L457.452 110.505ZM677.177 97.8486L702.483 83.2451L677.177 68.6406L677.177 97.8486ZM640.19 83.2441L662.819 96.3877L662.819 70.1006L640.19 83.2441ZM590.065 91.5205L604.178 83.2441L590.065 74.9688L590.065 91.5205ZM557.948 83.2451L567.682 88.8428L567.682 77.6465L557.948 83.2451ZM502.469 85.4346L506.119 83.2442L502.469 81.0537L502.469 85.4346ZM47.4502 85.4346L51.3438 83.2442L47.4502 81.0538L47.4502 85.4346ZM15.8145 83.2442L19.9512 85.4346L19.9512 81.0538L15.8145 83.2442ZM107.305 83.2442L110.47 85.1915L110.47 81.2969L107.305 83.2442ZM138.693 84.9483L141.857 83.2452L138.693 81.5411L138.693 84.9483ZM198.796 83.2442L201.229 84.7051L201.229 81.7842L198.796 83.2442ZM471.808 83.2442L474.242 84.461L474.242 82.0274L471.808 83.2442ZM229.942 84.461L232.376 83.2442L229.942 82.0274L229.942 84.461ZM321.191 84.2178L322.895 83.2442L321.191 82.2705L321.191 84.2178ZM290.287 83.2442L291.99 84.2178L291.99 82.2705L290.287 83.2442ZM412.195 83.9737L413.655 83.2442L412.195 82.5137L412.195 83.9737ZM381.537 83.2442L382.997 83.9737L382.997 82.5137L381.537 83.2442ZM683.26 56.957L709.539 72.0479L709.539 41.8662L683.26 56.957ZM632.892 69.6133L654.791 56.957L632.892 44.2998L632.892 69.6133ZM597.852 56.957L615.857 67.4229L615.857 46.4902L597.852 56.957ZM546.025 62.3115L555.271 56.9561L546.025 51.6016L546.025 62.3115ZM514.88 56.9561L520.72 60.3643L520.72 53.5488L514.88 56.9561ZM1.94727 59.3917L6.08399 56.9571L1.94727 54.7667L1.94727 59.3917ZM93.1924 58.9044L96.3565 56.9571L93.1924 55.253L93.1924 58.9044ZM61.5606 56.9571L65.21 58.9044L65.21 55.0098L61.5606 56.9571ZM184.441 58.417L186.875 56.9561L184.441 55.4961L184.441 58.417ZM153.293 56.9561L155.971 58.417L155.971 55.4961L153.293 56.9561ZM457.454 58.1738L459.646 56.9571L457.454 55.7403L457.454 58.1738ZM244.542 56.9571L246.489 58.1739L246.489 55.7403L244.542 56.9571ZM426.795 56.9571L428.499 57.9307L428.499 55.9834L426.795 56.9571ZM275.689 57.9307L277.394 56.9571L275.689 55.9834L275.689 57.9307ZM366.693 57.6866L368.154 56.9571L366.693 56.2266L366.693 57.6866ZM336.031 56.9571L337.492 57.6866L337.492 56.2266L336.031 56.9571ZM677.176 45.5176L702.726 30.6699L677.176 15.8223L677.176 45.5176ZM639.462 30.669L663.308 44.543L663.308 16.7949L639.462 30.669ZM588.85 40.8916L606.368 30.669L588.85 20.6895L588.85 40.8916ZM555.513 30.6699L568.896 38.459L568.896 22.8809L555.513 30.6699ZM501.738 34.3203L507.821 30.669L501.738 27.2617L501.738 34.3203ZM470.838 30.669L474.488 32.8594L474.488 28.4785L470.838 30.669ZM47.6934 32.8594L51.3438 30.669L47.6934 28.7217L47.6934 32.8594ZM15.8154 30.669L19.709 32.8594L19.709 28.4786L15.8154 30.669ZM107.549 30.67L110.47 32.3731L110.47 28.9659L107.549 30.67ZM138.938 32.1299L141.616 30.669L138.938 29.209L138.938 32.1299ZM230.188 31.8858L232.135 30.669L230.188 29.6954L230.188 31.8858ZM199.039 30.669L201.229 31.8858L201.229 29.4522L199.039 30.669ZM412.195 31.6436L413.655 30.6699L412.195 29.9395L412.195 31.6436ZM290.287 30.669L291.99 31.6426L291.99 29.6953L290.287 30.669ZM381.534 30.67L382.751 31.3994L382.751 29.9395L381.534 30.67ZM321.188 31.3994L322.648 30.67L321.188 29.9395L321.188 31.3994ZM597.31 12.793L618.236 24.7197L618.236 0.866219L597.31 12.793ZM691.077 11.125L710.699 22.4316L710.699 2.58684e-08L691.077 11.125ZM515.495 16.999L524.742 22.3545L524.742 11.6445L515.495 16.999ZM629.409 21.0303L647.629 10.4199L629.409 7.01715e-06L629.409 21.0303ZM544.807 18.9365L557.946 11.3916L544.807 3.84572L544.807 18.9365ZM1.94727 6.81647L6.08398 4.3819L1.94727 2.19147L1.94727 6.81647ZM456.968 6.57229L460.617 4.38186L456.968 2.19143L456.968 6.57229ZM61.8037 4.38189L65.21 6.32916L65.21 2.43463L61.8037 4.38189ZM93.4355 6.08501L96.3564 4.38189L93.4355 2.67779L93.4355 6.08501ZM426.307 4.38186L428.74 5.8428L428.74 3.16506L426.307 4.38186ZM153.538 4.38188L155.729 5.84282L155.729 3.16509L153.538 4.38188ZM184.686 5.59868L186.633 4.38188L184.686 3.16508L184.686 5.59868ZM275.689 5.35551L277.394 4.38187L275.689 3.6514L275.689 5.35551ZM244.785 4.38188L246.489 5.35551L246.489 3.40824L244.785 4.38188ZM366.935 5.11233L367.908 4.38187L366.935 3.89554L366.935 5.11233ZM336.276 4.38187L337.25 5.11234L337.25 3.89554L336.276 4.38187Z" fill="#4D4D4D"/>
</svg>
