<svg width="24" height="24" viewBox="0 0 24 24" fill="none" xmlns="http://www.w3.org/2000/svg">
<g clip-path="url(#clip0_691_44346)">
<path d="M19.77 7.23L19.785 7.215L16.06 3.5L15 4.56L17.11 6.67C16.17 7.03 15.5 7.935 15.5 9C15.5 10.38 16.62 11.5 18 11.5C18.355 11.5 18.695 11.425 19 11.29V18.5C19 19.05 18.55 19.5 18 19.5C17.45 19.5 17 19.05 17 18.5V14C17 12.895 16.105 12 15 12H14V5C14 3.895 13.105 3 12 3H6C4.895 3 4 3.895 4 5V21H14V13.5H15.5V18.5C15.5 19.88 16.62 21 18 21C19.38 21 20.5 19.88 20.5 18.5V9C20.5 8.31 20.22 7.685 19.77 7.23ZM12 10H6V5H12V10ZM18 10C17.45 10 17 9.55 17 9C17 8.45 17.45 8 18 8C18.55 8 19 8.45 19 9C19 9.55 18.55 10 18 10Z" fill="white"/>
</g>
<defs>
<clipPath id="clip0_691_44346">
<rect width="24" height="24" fill="white"/>
</clipPath>
</defs>
</svg>
