<svg width="16" height="16" viewBox="0 0 16 16" fill="none" xmlns="http://www.w3.org/2000/svg">
<g clip-path="url(#clip0_856_2690)">
<path d="M8.00065 8.66671C9.10532 8.66671 10.0007 9.56204 10.0007 10.6667C10.0007 11.2334 9.76532 11.744 9.38732 12.108L8.11398 13.3334H10.0007V14.6667H6.00065V13.5174L8.46265 11.1474C8.58932 11.0254 8.66732 10.8554 8.66732 10.6667C8.66732 10.2987 8.36865 10 8.00065 10C7.63265 10 7.33398 10.2987 7.33398 10.6667H6.00065C6.00065 9.56204 6.89598 8.66671 8.00065 8.66671ZM12.0007 8.66671V11.3334H13.334V8.66671H14.6673V14.6667H13.334V12.6667H10.6673V8.66671H12.0007ZM2.66732 8.00004C2.66732 9.68471 3.44798 11.1867 4.66732 12.164V13.7747C2.67465 12.622 1.33398 10.468 1.33398 8.00004H2.66732ZM8.00065 1.33337C11.4573 1.33337 14.3 3.96471 14.634 7.33337H13.2927C12.9647 4.70271 10.7207 2.66671 8.00065 2.66671C6.16732 2.66671 4.54998 3.59137 3.59065 5.00004H5.33398V6.33337H1.33398V2.33337H2.66732V4.00004C3.88332 2.38004 5.81998 1.33337 8.00065 1.33337Z" fill="white"/>
</g>
<defs>
<clipPath id="clip0_856_2690">
<rect width="16" height="16" fill="white"/>
</clipPath>
</defs>
</svg>
