<svg width="119" height="100" viewBox="0 0 119 100" fill="none" xmlns="http://www.w3.org/2000/svg">
<path d="M13.2487 22.9811C20.6511 25.881 29.4772 30.9975 35.3077 39.8659L35.3081 39.8651C38.425 44.6335 40.7964 51.2441 41.4412 57.8632C40.0676 58.9755 38.7811 60.1929 37.5954 61.5066L37.5936 61.5078C33.0013 66.6319 29.9327 73.2471 30.9102 80.6359C30.8425 80.6661 30.7743 80.6956 30.7057 80.7254C25.3226 77.0838 22.1732 73.2856 20.2936 69.393C18.3849 65.4401 17.7672 61.3536 17.4881 57.1554C16.9329 48.8041 17.7504 39.9151 11.9795 31.3259L11.1414 31.8711C12.0689 33.3477 15.899 40.5086 15.3399 58.0432C15.0788 66.1971 18.5064 72.2783 21.9829 76.3081C23.7207 78.3225 25.4743 79.8287 26.7943 80.8321C27.2743 81.197 27.6998 81.4925 28.0447 81.7254C27.7435 81.7909 27.3838 81.8593 26.9729 81.9169C25.624 82.1057 23.7307 82.1892 21.5623 81.765C17.2483 80.9208 11.7669 78.0537 7.29064 69.8166C3.30635 62.4811 3.40809 54.4119 3.62404 45.7672C3.83293 37.4054 4.14437 28.533 0.772987 19.5374C0.835636 19.5472 0.902033 19.5568 0.971251 19.5679C1.63954 19.6753 2.61003 19.8485 3.8125 20.1128C6.21873 20.6417 9.55104 21.5326 13.2487 22.9811ZM74.5763 50.1727C87.6645 50.7258 98.6674 56.8318 106.416 62.828C110.287 65.8238 113.336 68.7858 115.418 70.9973C116.458 72.1028 117.256 73.02 117.792 73.6598C117.897 73.7847 117.989 73.9008 118.074 74.0038C106.376 76.0892 97.1636 82.0481 88.4096 87.5866C79.4164 93.2764 70.931 98.5025 60.6301 98.9286C49.0675 99.4063 42.5431 95.4142 38.9023 91.3636C37.0742 89.3297 35.9598 87.2664 35.3035 85.7131C35.0549 85.1248 34.8722 84.6105 34.7415 84.1999C35.2359 84.4369 35.8991 84.7381 36.7102 85.0638C38.5977 85.8215 41.2885 86.7192 44.5043 87.2803C50.937 88.4029 59.4944 88.1816 67.9182 82.7784C86.1061 71.1028 96.1118 70.6148 98.2805 70.6693L98.3192 69.6707C85.6411 69.0039 76.8052 75.4611 67.6125 80.1621C62.996 82.5229 58.2729 84.4599 52.8702 84.9432C47.5339 85.4204 41.4949 84.4807 34.2072 81.0642C32.8401 70.916 38.4931 63.0598 46.7395 57.7796C55.065 52.4487 65.9458 49.8124 74.5763 50.1727ZM42.2359 0.968013C42.8282 1.32205 43.6818 1.85325 44.7211 2.55827C46.8006 3.96895 49.621 6.0748 52.5797 8.84973C58.5023 14.4045 64.9482 22.6123 67.1592 33.2785C68.0288 37.4691 68.1404 42.4724 67.4008 47.4357C63.1773 47.9435 59.0198 48.9338 55.009 50.3884C51.2189 51.7322 47.6069 53.5461 44.2569 55.7867C44.1497 55.0123 44.0198 54.2324 43.8672 53.4472L43.8681 53.4476C43.5211 51.6454 43.0661 49.8671 42.508 48.1215C43.0142 45.6307 43.7773 43.2009 44.6081 40.7566C45.4493 38.2814 46.3647 35.7758 47.1285 33.2146C48.6612 28.075 49.6124 22.6266 48.2464 16.3515L47.3933 16.5255L48.2463 16.3379C48.2459 16.3362 48.2452 16.3344 48.2448 16.3326L48.2457 16.3331L48.1681 15.9927L48.1678 15.9914L47.1932 16.2133L47.2691 16.5505L47.2673 16.5518C47.2681 16.5558 47.2685 16.56 47.2693 16.5641L47.2688 16.565C47.2691 16.5663 47.2696 16.5676 47.2699 16.5689C47.5971 18.3075 48.4791 26.1235 42.1486 41.5756L41.5108 43.1C41.3501 43.4742 41.2015 43.8472 41.0617 44.2184C40.1696 42.1108 39.0991 40.0851 37.857 38.166L37.8546 38.1624C36.4086 35.9645 34.7557 33.9137 32.9211 32.0344C36.5925 22.6025 41.8635 12.8181 42.0496 0.858993C42.1083 0.893595 42.1709 0.929133 42.2359 0.968013ZM11.7812 31.0439L10.9689 31.6251L11.1265 31.8638L11.9694 31.3258C11.9027 31.2166 11.8381 31.1179 11.7812 31.0439ZM98.7999 69.6941C98.7093 69.684 98.5502 69.6733 98.3338 69.6667L98.2894 70.6654L98.303 70.6652L98.3034 70.6665C98.3463 70.6679 98.3858 70.6716 98.422 70.6732L98.7154 70.6903L98.7999 69.6941Z" fill="url(#paint0_linear_793_4734)" stroke="url(#paint1_linear_793_4734)"/>
<defs>
<linearGradient id="paint0_linear_793_4734" x1="75.146" y1="19.0481" x2="16.9244" y2="106.771" gradientUnits="userSpaceOnUse">
<stop stop-color="#1F4200"/>
<stop offset="1" stop-color="#00B33C"/>
</linearGradient>
<linearGradient id="paint1_linear_793_4734" x1="75.146" y1="19.0481" x2="26.9244" y2="88.2709" gradientUnits="userSpaceOnUse">
<stop stop-color="#004D1A"/>
<stop offset="1" stop-color="#FAFAFA"/>
</linearGradient>
</defs>
</svg>
