<svg width="60" height="60" viewBox="0 0 60 60" fill="none" xmlns="http://www.w3.org/2000/svg">
<path d="M30 0C46.5685 0 60 13.4315 60 30C60 46.5685 46.5685 60 30 60C13.4315 60 0 46.5685 0 30C0 13.4315 13.4315 0 30 0ZM30.292 12C20.3724 12.0001 12.0001 19.7095 12 29.957C12 34.2477 12.791 37.2091 13.4873 39.8682C14.0718 42.0265 14.5869 44.0041 14.5869 46.3438C14.8367 49.4597 20.5533 47.6385 22.3584 45.3076C25.212 47.3794 26.8539 47.8975 30.3867 47.8975C35.077 47.8723 39.5661 45.9793 42.8682 42.6338C46.1703 39.2882 48.016 34.7626 48 30.0518C47.9998 20.0891 40.2202 12 30.292 12ZM30.5332 20.8574V20.8662C32.9396 21.0047 35.196 22.0868 36.8164 23.8789C38.4367 25.671 39.2913 28.0304 39.1973 30.4492C39.0357 32.8631 37.9381 35.1171 36.1396 36.7266C34.3411 38.336 31.9852 39.1728 29.5791 39.0566C28.012 38.9304 26.5054 38.3916 25.2119 37.4941C24.4297 38.2798 23.1743 39.2986 22.6758 39.1777C21.6358 38.9004 20.416 33.5917 21.1035 29.2324C21.9373 23.9661 25.7023 20.6071 30.5332 20.8574Z" fill="white"/>
</svg>
