<svg width="16" height="16" viewBox="0 0 16 16" fill="none" xmlns="http://www.w3.org/2000/svg">
<path d="M3.55445 10.6194C3.40769 9.97886 3.33389 9.32381 3.33445 8.6667C3.33445 5.2747 5.26978 2.37604 8.00112 1.21204C10.7325 2.37604 12.6678 5.2747 12.6678 8.6667C12.6678 9.34004 12.5918 9.99404 12.4478 10.6194L13.7945 11.8167C13.8524 11.8683 13.8906 11.9384 13.9024 12.0151C13.9142 12.0917 13.8989 12.1701 13.8591 12.2367L12.2205 14.9674C12.1944 15.0108 12.1587 15.0476 12.1163 15.0752C12.0738 15.1028 12.0256 15.1203 11.9754 15.1265C11.9251 15.1326 11.8741 15.1273 11.8263 15.1108C11.7784 15.0943 11.7349 15.0672 11.6991 15.0314L10.1965 13.5287C10.0715 13.4037 9.90191 13.3334 9.72512 13.3334H6.27712C6.10032 13.3334 5.93078 13.4037 5.80578 13.5287L4.30312 15.0314C4.26731 15.0672 4.22383 15.0943 4.17596 15.1108C4.12809 15.1273 4.0771 15.1326 4.02685 15.1265C3.9766 15.1203 3.92842 15.1028 3.88596 15.0752C3.84349 15.0476 3.80787 15.0108 3.78178 14.9674L2.14312 12.2374C2.10317 12.1707 2.08777 12.0922 2.09957 12.0154C2.11138 11.9386 2.14966 11.8683 2.20778 11.8167L3.55445 10.6194ZM8.00112 8.6667C8.35474 8.6667 8.69388 8.52623 8.94393 8.27618C9.19397 8.02613 9.33445 7.68699 9.33445 7.33337C9.33445 6.97975 9.19397 6.64061 8.94393 6.39056C8.69388 6.14051 8.35474 6.00004 8.00112 6.00004C7.6475 6.00004 7.30836 6.14051 7.05831 6.39056C6.80826 6.64061 6.66778 6.97975 6.66778 7.33337C6.66778 7.68699 6.80826 8.02613 7.05831 8.27618C7.30836 8.52623 7.6475 8.6667 8.00112 8.6667Z" fill="white"/>
</svg>
