<svg width="14" height="14" viewBox="0 0 14 14" fill="none" xmlns="http://www.w3.org/2000/svg">
<path d="M1.3373 5.16791C1.59581 4.36842 2.02165 3.63454 2.58354 3.0126C2.67856 2.90742 2.82762 2.86994 2.96109 2.91766L4.30389 3.39779C4.66794 3.52789 5.06853 3.33823 5.19862 2.97417C5.21142 2.93838 5.22127 2.9016 5.22808 2.86426L5.4839 1.46006C5.50934 1.32044 5.61656 1.21 5.75537 1.18046C6.1615 1.09401 6.57792 1.05005 6.99978 1.05005C7.42139 1.05005 7.83754 1.09396 8.24347 1.1803C8.38221 1.20982 8.48945 1.32019 8.51493 1.45975L8.77148 2.8642C8.84085 3.24453 9.20541 3.49662 9.58572 3.42726C9.6231 3.42044 9.65992 3.41058 9.69562 3.39781L11.0385 2.91766C11.1719 2.86994 11.321 2.90742 11.416 3.0126C11.9779 3.63454 12.4038 4.36842 12.6623 5.16791C12.7059 5.30279 12.6638 5.45065 12.5557 5.5424L11.4674 6.46646C11.1727 6.71669 11.1366 7.15846 11.3869 7.45316C11.4115 7.48214 11.4384 7.50902 11.4674 7.53366L12.5557 8.45773C12.6638 8.54943 12.7059 8.69734 12.6623 8.83216C12.4038 9.6317 11.9779 10.3656 11.416 10.9875C11.321 11.0927 11.1719 11.1302 11.0385 11.0824L9.69569 10.6023C9.33162 10.4722 8.93108 10.6619 8.80095 11.0259C8.78814 11.0617 8.77834 11.0985 8.77148 11.136L8.51493 12.5403C8.48945 12.6799 8.38221 12.7903 8.24347 12.8198C7.83754 12.9062 7.42139 12.95 6.99978 12.95C6.57792 12.95 6.1615 12.9061 5.75537 12.8196C5.61656 12.7901 5.50934 12.6796 5.4839 12.5401L5.22809 11.1359C5.15873 10.7555 4.79419 10.5035 4.41386 10.5728C4.37647 10.5796 4.33969 10.5895 4.30395 10.6023L2.96109 11.0824C2.82762 11.1302 2.67856 11.0927 2.58354 10.9875C2.02165 10.3656 1.59581 9.6317 1.3373 8.83216C1.29369 8.69734 1.33574 8.54943 1.4438 8.45773L2.53219 7.53366C2.82688 7.28341 2.86293 6.84166 2.6127 6.54697C2.58809 6.51799 2.56117 6.49106 2.5322 6.46647L1.4438 5.5424C1.33574 5.45065 1.29369 5.30279 1.3373 5.16791ZM5.59979 7.00005C5.59979 7.77327 6.22659 8.40005 6.99978 8.40005C7.773 8.40005 8.39978 7.77327 8.39978 7.00005C8.39978 6.22685 7.773 5.60005 6.99978 5.60005C6.22659 5.60005 5.59979 6.22685 5.59979 7.00005Z" fill="white"/>
</svg>
