<svg width="14" height="14" viewBox="0 0 14 14" fill="none" xmlns="http://www.w3.org/2000/svg">
<g clip-path="url(#clip0_856_2189)">
<path d="M7 0.583374L11.7932 1.64854C11.9228 1.67734 12.0386 1.74944 12.1217 1.85294C12.2047 1.95645 12.25 2.08518 12.25 2.21787V8.04362C12.25 8.6198 12.1077 9.18706 11.8358 9.69505C11.5639 10.203 11.1708 10.636 10.6913 10.9556L7 13.4167L3.30867 10.9556C2.82933 10.6361 2.43627 10.2032 2.16437 9.6953C1.89247 9.18743 1.75014 8.62029 1.75 8.04421V2.21787C1.75002 2.08518 1.79529 1.95645 1.87833 1.85294C1.96137 1.74944 2.07721 1.67734 2.20675 1.64854L7 0.583374ZM7 4.08337C6.74319 4.08339 6.49355 4.16813 6.28981 4.32448C6.08607 4.48082 5.93961 4.70002 5.87314 4.94808C5.80667 5.19614 5.82391 5.45921 5.92218 5.69648C6.02045 5.93374 6.19427 6.13196 6.41667 6.26037V8.75004H7.58333L7.58392 6.26037C7.80636 6.13193 7.9802 5.93367 8.07846 5.69634C8.17672 5.45901 8.19391 5.19589 8.12737 4.9478C8.06082 4.69971 7.91426 4.48051 7.71043 4.32421C7.50659 4.16791 7.25686 4.08326 7 4.08337Z" fill="white"/>
</g>
<defs>
<clipPath id="clip0_856_2189">
<rect width="14" height="14" fill="white"/>
</clipPath>
</defs>
</svg>
