<svg width="24" height="24" viewBox="0 0 24 24" fill="none" xmlns="http://www.w3.org/2000/svg">
<g clip-path="url(#clip0_691_44334)">
<path d="M8.54502 12.0001C7.47502 11.2851 6.29502 10.7251 5.02002 10.3901C6.29502 10.7251 7.47502 11.2851 8.54502 12.0001ZM18.98 10.3901C17.69 10.7301 16.495 11.3001 15.41 12.0251C16.49 11.3001 17.685 10.7301 18.98 10.3901Z" fill="#607D8B"/>
<path d="M15.495 9.635C15.31 6.845 14.18 4.12 12.06 2C9.92 4.14 8.74 6.86 8.51 9.635C9.79 10.32 10.975 11.195 12 12.26C13.025 11.195 14.21 10.315 15.495 9.635ZM8.995 12.285C8.855 12.18 8.695 12.095 8.55 12C8.695 12.095 8.85 12.18 8.995 12.285ZM15.41 12.025C15.28 12.115 15.135 12.19 15.01 12.28C15.135 12.19 15.275 12.115 15.41 12.025ZM12 15.455C9.85 12.17 6.175 10 2 10C2 15.315 5.36 19.825 10.035 21.485C10.67 21.71 11.325 21.88 12 22C12.675 21.885 13.33 21.715 13.965 21.485C18.64 19.825 22 15.315 22 10C17.825 10 14.15 12.17 12 15.455Z" fill="white"/>
</g>
<defs>
<clipPath id="clip0_691_44334">
<rect width="24" height="24" rx="6" fill="white"/>
</clipPath>
</defs>
</svg>
