<svg width="16" height="16" viewBox="0 0 16 16" fill="none" xmlns="http://www.w3.org/2000/svg">
<path d="M7.99935 12C6.93848 12 5.92107 11.5785 5.17092 10.8284C4.42078 10.0782 3.99935 9.06083 3.99935 7.99996C3.99935 6.93909 4.42078 5.92168 5.17092 5.17153C5.92107 4.42139 6.93848 3.99996 7.99935 3.99996C9.06021 3.99996 10.0776 4.42139 10.8278 5.17153C11.5779 5.92168 11.9993 6.93909 11.9993 7.99996C11.9993 9.06083 11.5779 10.0782 10.8278 10.8284C10.0776 11.5785 9.06021 12 7.99935 12ZM7.33268 0.666626H8.66602V2.66663H7.33268V0.666626ZM7.33268 13.3333H8.66602V15.3333H7.33268V13.3333ZM2.34268 3.28596L3.28535 2.34329L4.69935 3.75729L3.75668 4.69996L2.34268 3.28596ZM11.2993 12.2426L12.242 11.3L13.656 12.714L12.7133 13.6566L11.2993 12.2426ZM12.7133 2.34263L13.656 3.28596L12.242 4.69996L11.2993 3.75729L12.7133 2.34329V2.34263ZM3.75668 11.3L4.69935 12.2426L3.28535 13.6566L2.34268 12.714L3.75668 11.3ZM15.3327 7.33329V8.66663H13.3327V7.33329H15.3327ZM2.66602 7.33329V8.66663H0.666016V7.33329H2.66602Z" fill="white"/>
</svg>
