<svg width="20" height="20" viewBox="0 0 20 20" fill="none" xmlns="http://www.w3.org/2000/svg">
<path d="M7.49935 0.833496C6.57887 0.833496 5.83268 1.57969 5.83268 2.50016V3.3335H4.16602H2.49935C2.03911 3.3335 1.66602 3.70659 1.66602 4.16683C1.66602 4.62707 2.03911 5.00016 2.49935 5.00016H3.33268V16.6668C3.33268 18.0475 4.45197 19.1668 5.83268 19.1668H14.166C15.5467 19.1668 16.666 18.0475 16.666 16.6668V5.00016H17.4993C17.9596 5.00016 18.3327 4.62707 18.3327 4.16683C18.3327 3.70659 17.9596 3.3335 17.4993 3.3335H15.8327H14.166V2.50016C14.166 1.57969 13.4198 0.833496 12.4993 0.833496H7.49935ZM12.4993 3.3335H7.49935V2.50016H12.4993V3.3335ZM6.66602 5.00016H13.3327H14.9993V16.6668C14.9993 17.1271 14.6263 17.5002 14.166 17.5002H5.83268C5.37244 17.5002 4.99935 17.1271 4.99935 16.6668V5.00016H6.66602ZM9.16602 9.16683C9.16602 8.70659 8.79292 8.3335 8.33268 8.3335C7.87244 8.3335 7.49935 8.70659 7.49935 9.16683V13.3335C7.49935 13.7937 7.87244 14.1668 8.33268 14.1668C8.79292 14.1668 9.16602 13.7937 9.16602 13.3335V9.16683ZM11.666 8.3335C12.1263 8.3335 12.4993 8.70659 12.4993 9.16683V13.3335C12.4993 13.7937 12.1263 14.1668 11.666 14.1668C11.2058 14.1668 10.8327 13.7937 10.8327 13.3335V9.16683C10.8327 8.70659 11.2058 8.3335 11.666 8.3335Z" fill="#262626"/>
</svg>
