<svg width="16" height="16" viewBox="0 0 16 16" fill="none" xmlns="http://www.w3.org/2000/svg">
<path d="M7.50109 2.5999V8.61324C7.50109 8.83324 7.39443 9.03324 7.21443 9.1599L2.40776 12.5266C2.01443 12.7999 1.45443 12.5866 1.36776 12.1132C1.26776 11.5399 1.40109 10.8666 1.80109 10.1399L3.88109 6.3999L5.84109 2.87324C5.99443 2.5999 6.16109 2.3599 6.33443 2.15324C6.73443 1.68657 7.50109 1.98657 7.50109 2.5999Z" fill="white"/>
<path d="M13.5933 12.5266L8.78667 9.1599C8.60667 9.03324 8.5 8.83324 8.5 8.61324V2.5999C8.5 1.98657 9.26667 1.68657 9.66667 2.15324C9.84 2.3599 10.0067 2.5999 10.16 2.87324L12.12 6.3999L14.2 10.1399C14.6 10.8666 14.7333 11.5399 14.6333 12.1132C14.5467 12.5866 13.9867 12.7999 13.5933 12.5266Z" fill="white"/>
<path d="M3.50809 12.7601L7.60809 10.0267C7.82809 9.88008 8.18809 9.88008 8.40809 10.0267L12.5081 12.7601C13.5948 13.4867 13.4148 14.0801 12.1081 14.0801H3.90142C2.60142 14.0734 2.42142 13.4801 3.50809 12.7601Z" fill="white"/>
</svg>
