<svg width="32" height="32" viewBox="0 0 32 32" fill="none" xmlns="http://www.w3.org/2000/svg">
<path d="M16 0C24.8366 0 32 7.16344 32 16C32 24.8366 24.8366 32 16 32C7.16344 32 0 24.8366 0 16C2.5772e-07 7.16344 7.16344 2.57703e-07 16 0ZM16.5273 5.86621C11.2835 5.86632 7.01599 10.1344 7.01367 15.3799C7.01299 17.0564 7.45085 18.693 8.2832 20.1357L6.93359 25.0664L11.9775 23.7432C13.367 24.501 14.9313 24.9008 16.5234 24.9014H16.5273C21.7727 24.8991 26.0396 20.6319 26.042 15.3877C26.0429 12.8457 25.054 10.4544 23.2578 8.65625C21.4616 6.85805 19.0723 5.86737 16.5273 5.86621ZM16.5303 7.47363C18.6422 7.47443 20.6282 8.29753 22.1211 9.79199C23.614 11.2866 24.4363 13.2739 24.4355 15.3867C24.4338 19.7469 20.8857 23.2948 16.5273 23.2949H16.5244C15.1056 23.2944 13.714 22.9127 12.5 22.1924L12.2109 22.0205L9.21777 22.8057L10.0166 19.8877L9.8291 19.5889C9.0376 18.3299 8.6195 16.874 8.62012 15.3799C8.62228 11.0204 12.1689 7.47389 16.5303 7.47363ZM13.1592 10.9863C13.0008 10.9863 12.7432 11.0457 12.5254 11.2832C12.3075 11.5212 11.6936 12.0969 11.6934 13.2666C11.6934 14.436 12.5443 15.5658 12.6641 15.7256C12.7829 15.8843 14.3401 18.2856 16.7246 19.3154C17.2917 19.5603 17.7348 19.7069 18.0801 19.8164C18.6493 19.9973 19.1677 19.9714 19.5771 19.9102C20.034 19.8418 20.9845 19.3354 21.1826 18.7803C21.3805 18.2251 21.3797 17.7485 21.3203 17.6494C21.2606 17.5506 21.1024 17.4908 20.8652 17.3721C20.6277 17.2532 19.4605 16.6788 19.2412 16.5986C19.0235 16.5194 18.8644 16.4803 18.7061 16.7178C18.5477 16.9556 18.0923 17.4902 17.9531 17.6494C17.8145 17.808 17.676 17.8279 17.4385 17.709C17.2008 17.59 16.4344 17.3392 15.5264 16.5293C14.8201 15.8993 14.3431 15.1213 14.2041 14.8828C14.0656 14.6449 14.1896 14.516 14.3086 14.3975C14.4155 14.2909 14.5463 14.1191 14.665 13.9805C14.7835 13.842 14.8232 13.7423 14.9023 13.584C14.9812 13.4256 14.9421 13.2868 14.8828 13.168C14.8229 13.0476 14.3474 11.878 14.1494 11.4023C13.9568 10.94 13.761 11.0013 13.6152 10.9941C13.4768 10.9872 13.3176 10.9863 13.1592 10.9863Z" fill="white"/>
</svg>
