<svg width="40" height="40" viewBox="0 0 40 40" fill="none" xmlns="http://www.w3.org/2000/svg">
<path d="M20 40C31.0457 40 40 31.0457 40 20C40 8.9543 31.0457 0 20 0C8.9543 0 0 8.9543 0 20C0 31.0457 8.9543 40 20 40Z" fill="white"/>
<path d="M20.6589 7.3335C23.8404 7.33487 26.8267 8.57382 29.072 10.8218C31.3172 13.0696 32.5528 16.0573 32.5515 19.2349C32.5488 25.7904 27.2159 31.1248 20.6589 31.1274H20.6541C18.6639 31.1267 16.7083 30.6275 14.9714 29.6802L8.66675 31.3335L10.3542 25.1704C9.31359 23.3669 8.76546 21.3211 8.76636 19.2251C8.76911 12.6682 14.104 7.33364 20.6589 7.3335ZM20.6628 9.34229C15.2107 9.34248 10.7763 13.7762 10.7742 19.2261C10.7734 21.0938 11.2964 22.9131 12.2859 24.4868L12.5203 24.8608L11.5222 28.5083L15.2634 27.5269L15.6238 27.7407C17.1414 28.6413 18.8814 29.1179 20.655 29.1187H20.6589C26.1071 29.1187 30.5415 24.6843 30.5437 19.2339C30.5447 16.5927 29.5173 14.1091 27.6511 12.2407C25.7849 10.3725 23.3029 9.3432 20.6628 9.34229ZM17.0183 13.7437C17.2007 13.7528 17.446 13.675 17.6873 14.2544C17.935 14.8497 18.529 16.3117 18.6033 16.4604C18.6775 16.6092 18.7267 16.7826 18.6277 16.981C18.5287 17.1791 18.4794 17.3036 18.3308 17.4771C18.1823 17.6505 18.0182 17.8644 17.8845 17.9976C17.7359 18.1456 17.5814 18.3068 17.7546 18.604C17.9281 18.9017 18.5248 19.8748 19.408 20.6626C20.5429 21.6748 21.5005 21.9885 21.7976 22.1372C22.0945 22.2859 22.2679 22.2611 22.4412 22.063C22.6145 21.8647 23.1845 21.1954 23.3826 20.8979C23.5806 20.6007 23.7783 20.6495 24.0505 20.7485C24.3228 20.8477 25.7826 21.5661 26.0808 21.7153C26.378 21.8641 26.5769 21.939 26.6511 22.063C26.7252 22.1876 26.7246 22.7825 26.4773 23.4761C26.2294 24.1701 25.0423 24.8039 24.4714 24.8892C23.9596 24.9657 23.3119 24.9971 22.6003 24.771C22.1687 24.6341 21.615 24.4512 20.906 24.145C17.9251 22.8579 15.9784 19.8561 15.8298 19.6577C15.6807 19.4587 14.6161 18.0465 14.616 16.5845C14.616 15.1221 15.3836 14.4025 15.656 14.105C15.9284 13.8075 16.2509 13.7329 16.449 13.7329C16.647 13.7329 16.8452 13.735 17.0183 13.7437Z" fill="#004D1A"/>
</svg>
