<svg width="14" height="14" viewBox="0 0 14 14" fill="none" xmlns="http://www.w3.org/2000/svg">
<path d="M0.21967 12.2197C-0.0732233 12.5126 -0.0732233 12.9874 0.21967 13.2803C0.512563 13.5732 0.987437 13.5732 1.28033 13.2803L0.75 12.75L0.21967 12.2197ZM13.5 0.749999C13.5 0.335786 13.1642 -4.4867e-07 12.75 -9.75505e-07L6 -7.22624e-07C5.58579 -7.22624e-07 5.25 0.335786 5.25 0.749999C5.25 1.16421 5.58579 1.5 6 1.5H12V7.5C12 7.91421 12.3358 8.25 12.75 8.25C13.1642 8.25 13.5 7.91421 13.5 7.5L13.5 0.749999ZM0.75 12.75L1.28033 13.2803L13.2803 1.28033L12.75 0.749999L12.2197 0.219669L0.21967 12.2197L0.75 12.75Z" fill="#24512E"/>
</svg>
