<svg width="22" height="22" viewBox="0 0 22 22" fill="none" xmlns="http://www.w3.org/2000/svg">
<g clip-path="url(#clip0_40_45869)">
<path d="M18.3333 5.49984H11L9.16668 3.6665H3.66668C2.65376 3.6665 1.84251 4.48692 1.84251 5.49984L1.83334 16.4998C1.83334 17.5128 2.65376 18.3332 3.66668 18.3332H18.3333C19.3463 18.3332 20.1667 17.5128 20.1667 16.4998V7.33317C20.1667 6.32025 19.3463 5.49984 18.3333 5.49984ZM13.75 8.24984C14.7629 8.24984 15.5833 9.07025 15.5833 10.0832C15.5833 11.0961 14.7629 11.9165 13.75 11.9165C12.7371 11.9165 11.9167 11.0961 11.9167 10.0832C11.9167 9.07025 12.7371 8.24984 13.75 8.24984ZM17.4167 15.5832H10.0833V14.6665C10.0833 13.4428 12.5263 12.8332 13.75 12.8332C14.9738 12.8332 17.4167 13.4428 17.4167 14.6665V15.5832Z" fill="#366F08"/>
</g>
<defs>
<clipPath id="clip0_40_45869">
<rect width="22" height="22" fill="white"/>
</clipPath>
</defs>
</svg>
