<svg width="28" height="28" viewBox="0 0 28 28" fill="none" xmlns="http://www.w3.org/2000/svg">
<g clip-path="url(#clip0_41_51661)">
<path d="M23.3333 7.00008H14L11.6667 4.66675H4.66668C3.37751 4.66675 2.34501 5.71091 2.34501 7.00008L2.33334 21.0001C2.33334 22.2892 3.37751 23.3334 4.66668 23.3334H23.3333C24.6225 23.3334 25.6667 22.2892 25.6667 21.0001V9.33341C25.6667 8.04425 24.6225 7.00008 23.3333 7.00008ZM17.5 10.5001C18.7892 10.5001 19.8333 11.5442 19.8333 12.8334C19.8333 14.1226 18.7892 15.1667 17.5 15.1667C16.2108 15.1667 15.1667 14.1226 15.1667 12.8334C15.1667 11.5442 16.2108 10.5001 17.5 10.5001ZM22.1667 19.8334H12.8333V18.6667C12.8333 17.1092 15.9425 16.3334 17.5 16.3334C19.0575 16.3334 22.1667 17.1092 22.1667 18.6667V19.8334Z" fill="#FEE92E"/>
</g>
<defs>
<clipPath id="clip0_41_51661">
<rect width="28" height="28" fill="white"/>
</clipPath>
</defs>
</svg>
