<svg width="22" height="22" viewBox="0 0 22 22" fill="none" xmlns="http://www.w3.org/2000/svg">
<g clip-path="url(#clip0_40_45865)">
<path d="M11 2.75C6.44417 2.75 2.75 6.44417 2.75 11C2.75 15.5558 6.44417 19.25 11 19.25C11.7608 19.25 12.375 18.6358 12.375 17.875C12.375 17.5175 12.2421 17.1967 12.0175 16.9538C11.8021 16.7108 11.6737 16.3946 11.6737 16.0417C11.6737 15.2808 12.2879 14.6667 13.0487 14.6667H14.6667C17.1967 14.6667 19.25 12.6133 19.25 10.0833C19.25 6.03167 15.5558 2.75 11 2.75ZM5.95833 11C5.1975 11 4.58333 10.3858 4.58333 9.625C4.58333 8.86417 5.1975 8.25 5.95833 8.25C6.71917 8.25 7.33333 8.86417 7.33333 9.625C7.33333 10.3858 6.71917 11 5.95833 11ZM8.70833 7.33333C7.9475 7.33333 7.33333 6.71917 7.33333 5.95833C7.33333 5.1975 7.9475 4.58333 8.70833 4.58333C9.46917 4.58333 10.0833 5.1975 10.0833 5.95833C10.0833 6.71917 9.46917 7.33333 8.70833 7.33333ZM13.2917 7.33333C12.5308 7.33333 11.9167 6.71917 11.9167 5.95833C11.9167 5.1975 12.5308 4.58333 13.2917 4.58333C14.0525 4.58333 14.6667 5.1975 14.6667 5.95833C14.6667 6.71917 14.0525 7.33333 13.2917 7.33333ZM16.0417 11C15.2808 11 14.6667 10.3858 14.6667 9.625C14.6667 8.86417 15.2808 8.25 16.0417 8.25C16.8025 8.25 17.4167 8.86417 17.4167 9.625C17.4167 10.3858 16.8025 11 16.0417 11Z" fill="#366F08"/>
</g>
<defs>
<clipPath id="clip0_40_45865">
<rect width="22" height="22" fill="white"/>
</clipPath>
</defs>
</svg>
