<svg width="20" height="20" viewBox="0 0 20 20" fill="none" xmlns="http://www.w3.org/2000/svg">
<path fill-rule="evenodd" clip-rule="evenodd" d="M18.3292 0C19.252 0 20 0.747522 20 1.67079V18.3292C20 19.252 19.2525 20 18.3292 20H1.67079C0.748038 20 0 19.2525 0 18.3292V1.67079C0 0.748038 0.747522 0 1.67079 0H18.3292ZM9.99951 4.99891C12.7611 4.99891 14.9998 7.2376 14.9998 9.99921C14.9998 12.7608 12.7611 14.9995 9.99951 14.9995C7.23789 14.9995 4.99921 12.7608 4.99921 9.99921C4.99921 7.2376 7.23789 4.99891 9.99951 4.99891ZM9.99951 6.75347C8.20688 6.75347 6.75369 8.20666 6.75369 9.99929C6.75369 11.7919 8.20688 13.2451 9.99951 13.2451C11.7921 13.2451 13.2453 11.7919 13.2453 9.99929C13.2453 8.20666 11.7921 6.75347 9.99951 6.75347ZM15.4164 3.33279C16.1068 3.33279 16.6665 3.89248 16.6665 4.58288C16.6665 5.27328 16.1068 5.83293 15.4164 5.83293C14.7261 5.83293 14.1664 5.27328 14.1664 4.58288C14.1664 3.89248 14.7261 3.33279 15.4164 3.33279Z" fill="#366F08"/>
</svg>
