<svg width="28" height="28" viewBox="0 0 28 28" fill="none" xmlns="http://www.w3.org/2000/svg">
<g clip-path="url(#clip0_41_51658)">
<path d="M23.8584 6.37583L22.2075 4.725L20.1134 6.81917L21.7642 8.47L23.8584 6.37583ZM15.1667 1.80833L12.8334 1.80833L12.8334 5.25L15.1667 5.25L15.1667 1.80833ZM23.3334 15.75L26.8334 15.75L26.8334 13.4167L23.3334 13.4167L23.3334 15.75ZM10.5 20.6383L10.5 26.25L17.5 26.25L17.5 20.6383C19.5884 19.425 21 17.1733 21 14.5833C21 10.7158 17.8675 7.58333 14 7.58334C10.1325 7.58334 7.00004 10.7158 7.00004 14.5833C7.00004 17.1733 8.41171 19.4308 10.5 20.6383ZM4.66671 15.75L4.66671 13.4167L1.16671 13.4167L1.16671 15.75L4.66671 15.75ZM7.88087 6.81917L5.78671 4.725L4.13587 6.37584L6.23004 8.47L7.88087 6.81917Z" fill="#FEE92E"/>
</g>
<defs>
<clipPath id="clip0_41_51658">
<rect width="28" height="28" fill="white" transform="translate(28 28) rotate(180)"/>
</clipPath>
</defs>
</svg>
