<svg width="77" height="69" viewBox="0 0 77 69" fill="none" xmlns="http://www.w3.org/2000/svg">
<path d="M31.6967 62.8451C36.9432 61.9787 41.5719 58.9469 45.6237 55.6295C57.4758 46.0338 66.646 31.2053 64.0904 16.282C64.5414 19.1253 53.2949 28.5391 51.1542 30.2847C46.5788 33.9767 41.9337 36.2566 36.0093 36.9562C29.5161 37.7461 28.6288 40.4759 24.8162 43.4639C22.8135 44.9989 24.0205 46.2306 20.7999 47.2216C19.3318 47.6945 17.2117 45.0302 15.8036 47.071C15.4632 47.5193 15.4249 48.1427 15.4509 48.7387C15.2523 58.0805 22.497 64.4072 31.6967 62.8451Z" fill="#599F1E"/>
<path d="M22.498 39.4419C23.2594 39.2697 24.1028 39.2903 24.7822 38.9253C25.4616 38.5604 25.9401 37.9015 26.3543 37.27C33.8457 26.3427 45.7277 19.3143 57.242 12.6699C56.0665 9.9072 52.5111 9.21946 49.486 9.06486C40.0252 8.7651 30.4481 10.8671 21.9289 15.0989C16.3748 17.9174 11.0653 21.8458 8.19037 27.3942C6.08917 31.5511 4.63292 41.504 9.90658 44.2682C15.2992 47.1336 17.6821 40.4287 22.498 39.4419Z" fill="#599F1E"/>
</svg>
