<svg width="121" height="62" viewBox="0 0 121 62" fill="none" xmlns="http://www.w3.org/2000/svg">
<path d="M35.0807 22.7397C35.0807 25.3921 37.0847 27.2586 39.8746 27.2586C41.859 27.2586 43.4111 26.3352 44.1774 24.842H47.0852C46.2403 27.9266 43.4111 29.8913 39.8746 29.8913C35.5719 29.8913 32.3301 26.8263 32.3301 22.7397C32.3301 18.5941 35.5522 15.5488 39.8746 15.5488C43.4111 15.5488 46.2207 17.5136 47.0852 20.5982H44.1774C43.4308 19.0853 41.8786 18.1816 39.8746 18.1816C37.0651 18.1816 35.0807 20.0284 35.0807 22.7397Z" fill="#FFFDFA"/>
<path d="M48.9409 19.773H51.6915V22.2485H55.3262C58.4502 22.2485 60.3166 23.6042 60.3166 25.9029C60.3166 28.3195 58.5877 29.5966 55.3262 29.5966H48.9409V19.773ZM61.9081 19.773H64.6587V29.5966H61.9081V19.773ZM57.566 25.9029C57.566 24.9402 56.7212 24.3115 55.3262 24.3115H51.6915V27.4943H55.3262C56.7408 27.4943 57.566 26.9049 57.566 25.9029Z" fill="#FFFDFA"/>
<path d="M72.9839 18.7513C71.137 18.7513 68.9955 17.71 68.9955 15.8435H71.0978C71.0978 16.5312 71.9229 17.042 72.9839 17.042C74.0448 17.042 74.8307 16.5508 74.8307 15.8435H76.9526C76.9526 17.4939 75.263 18.7513 72.9839 18.7513ZM78.7995 29.5966H76.0489V23.5845L69.4474 29.5966H67.1683V19.773H69.9189V25.6868L76.5007 19.773H78.7995V29.5966Z" fill="#FFFDFA"/>
<path d="M80.6615 24.4687C80.6615 21.5412 83.0585 19.3014 86.3985 18.9871V15.8435H88.0096V18.9871C91.3693 19.2622 93.7466 21.3841 93.7466 24.4687C93.7466 27.4943 91.3693 29.6555 88.0096 29.9306V33.0742H86.3985V29.9306C83.0585 29.6162 80.6615 27.3568 80.6615 24.4687ZM88.0096 21.5412V27.3568C89.8368 27.121 90.996 25.9815 90.996 24.4687C90.996 22.9165 89.8368 21.777 88.0096 21.5412ZM83.4121 24.4687C83.4121 25.9815 84.6302 27.0818 86.3985 27.3568V21.5412C84.6106 21.7966 83.4121 22.9362 83.4121 24.4687Z" fill="#FFFDFA"/>
<path d="M107.606 29.5966H105.169L104.894 28.2999C103.892 29.3019 102.458 29.8913 100.788 29.8913C97.5267 29.8913 95.0708 27.6712 95.0708 24.7044C95.0708 21.6984 97.507 19.4783 100.788 19.4783C102.438 19.4783 103.892 20.048 104.894 21.0697L105.169 19.773H107.606V29.5966ZM97.8214 24.7044C97.8214 26.2959 99.3146 27.4551 101.378 27.4551C103.46 27.4551 104.855 26.3352 104.855 24.7044C104.855 23.0541 103.44 21.8949 101.378 21.8949C99.3146 21.8949 97.8214 23.0737 97.8214 24.7044Z" fill="#FFFDFA"/>
<path d="M113.723 29.5966V22.3075H109.263V19.773H120.874V22.3075H116.474V29.5966H113.723Z" fill="#FFFDFA"/>
<path d="M35.0807 42.3998C35.0807 45.0522 37.0847 46.9187 39.8746 46.9187C41.859 46.9187 43.4111 45.9953 44.1774 44.5021H47.0852C46.2403 47.5867 43.4111 49.5514 39.8746 49.5514C35.5719 49.5514 32.3301 46.4865 32.3301 42.3998C32.3301 38.2543 35.5522 35.209 39.8746 35.209C43.4111 35.209 46.2207 37.1737 47.0852 40.2583H44.1774C43.4308 38.7455 41.8786 37.8417 39.8746 37.8417C37.0651 37.8417 35.0807 39.6885 35.0807 42.3998Z" fill="#FFFDFA"/>
<path d="M51.3468 49.2567V41.9676H46.8868V39.4331H58.4984V41.9676H54.0974V49.2567H51.3468Z" fill="#FFFDFA"/>
<path d="M60.1651 39.4331H62.621L62.8765 40.6905C63.8785 39.7082 65.3127 39.1384 66.9631 39.1384C70.2245 39.1384 72.6804 41.3585 72.6804 44.3253C72.6804 47.3313 70.2442 49.5514 66.9631 49.5514C65.3324 49.5514 63.9178 49.0013 62.9158 48.019V53.1862H60.1651V39.4331ZM69.9298 44.3253C69.9298 42.7142 68.4366 41.555 66.3737 41.555C64.3107 41.555 62.9158 42.6946 62.9158 44.3253C62.9158 45.9756 64.3107 47.1152 66.3737 47.1152C68.4759 47.1152 69.9298 45.9363 69.9298 44.3253Z" fill="#FFFDFA"/>
<path d="M74.0037 44.3646C74.0037 41.3585 76.5578 39.1384 80.0158 39.1384C83.513 39.1384 86.0475 41.2407 86.0475 44.3646C86.0475 47.4295 83.513 49.5514 80.0158 49.5514C76.5775 49.5514 74.0037 47.3313 74.0037 44.3646ZM76.7543 44.3646C76.7543 45.8971 78.1493 46.9973 80.0158 46.9973C81.9805 46.9973 83.2968 45.8971 83.2968 44.3646C83.2968 42.7928 81.9805 41.6729 80.0158 41.6729C78.1296 41.6729 76.7543 42.7928 76.7543 44.3646Z" fill="#FFFDFA"/>
<path d="M93.7631 38.4115C91.9163 38.4115 89.7748 37.3702 89.7748 35.5037H91.877C91.877 36.1913 92.7022 36.7021 93.7631 36.7021C94.8241 36.7021 95.61 36.211 95.61 35.5037H97.7319C97.7319 37.154 96.0422 38.4115 93.7631 38.4115ZM99.5787 49.2567H96.8281V43.2447L90.2266 49.2567H87.9476V39.4331H90.6982V45.3469L97.28 39.4331H99.5787V49.2567Z" fill="#FFFDFA"/>
<path fill-rule="evenodd" clip-rule="evenodd" d="M9.64416 25.2842L15.8466 30.3341L23.6195 24.1029V14.0742L9.64416 25.2842Z" fill="#FFFDFA"/>
<path fill-rule="evenodd" clip-rule="evenodd" d="M0.835322 18.2757L7.00556 23.3474L23.6195 10.0287V0L0.835322 18.2757Z" fill="#FFFDFA"/>
<path fill-rule="evenodd" clip-rule="evenodd" d="M-1.65752e-06 28.9807L-2.5333e-06 18.9629L23.637 37.9118L23.637 47.9404L-1.65752e-06 28.9807Z" fill="#FFFDFA"/>
<path fill-rule="evenodd" clip-rule="evenodd" d="M-1.65629e-06 43.0543L-2.53207e-06 33.0365L23.6195 51.9713L23.6195 62L-1.65629e-06 43.0543Z" fill="#FFFDFA"/>
</svg>
