<svg width="560" height="1513" viewBox="0 0 560 1513" fill="none" xmlns="http://www.w3.org/2000/svg">
<path fill-rule="evenodd" clip-rule="evenodd" d="M0 805.785V1050.25L576.393 588.179V343.447L0 805.785Z" fill="url(#paint0_linear_1_7)" fill-opacity="0.4"/>
<path fill-rule="evenodd" clip-rule="evenodd" d="M0 462.337V706.803L576.393 244.731V0L0 462.337Z" fill="url(#paint1_linear_1_7)" fill-opacity="0.4"/>
<path fill-rule="evenodd" clip-rule="evenodd" d="M-9.93115e-06 707.216L-3.1303e-05 462.75L576.819 925.164L576.819 1169.9L-9.93115e-06 707.216Z" fill="url(#paint2_linear_1_7)" fill-opacity="0.4"/>
<path fill-rule="evenodd" clip-rule="evenodd" d="M-9.90123e-06 1050.66L-3.12731e-05 806.197L576.393 1268.27L576.393 1513L-9.90123e-06 1050.66Z" fill="url(#paint3_linear_1_7)" fill-opacity="0.4"/>
<defs>
<linearGradient id="paint0_linear_1_7" x1="-1.22213e-05" y1="557.053" x2="924.959" y2="557.053" gradientUnits="userSpaceOnUse">
<stop stop-color="#D4B292"/>
<stop offset="1" stop-color="#BF9C7A"/>
</linearGradient>
<linearGradient id="paint1_linear_1_7" x1="-1.22213e-05" y1="213.606" x2="924.959" y2="213.606" gradientUnits="userSpaceOnUse">
<stop stop-color="#D4B292"/>
<stop offset="1" stop-color="#BF9C7A"/>
</linearGradient>
<linearGradient id="paint2_linear_1_7" x1="924.959" y1="955.948" x2="1.18137e-05" y2="955.948" gradientUnits="userSpaceOnUse">
<stop stop-color="#BA9572"/>
<stop offset="1" stop-color="#A1764D"/>
</linearGradient>
<linearGradient id="paint3_linear_1_7" x1="924.959" y1="1299.39" x2="1.18436e-05" y2="1299.39" gradientUnits="userSpaceOnUse">
<stop stop-color="#BA9572"/>
<stop offset="1" stop-color="#A1764D"/>
</linearGradient>
</defs>
</svg>
