<svg width="44" height="25" viewBox="0 0 44 25" fill="none" xmlns="http://www.w3.org/2000/svg">
<path d="M21.4457 24.8956H24.0589C24.0589 24.8956 24.8472 24.8065 25.251 24.3723C25.6238 23.9729 25.6083 23.2208 25.6083 23.2208C25.6083 23.2208 25.5578 19.7082 27.1886 19.1887C28.7962 18.6808 30.8581 22.585 33.0403 24.0892C34.6906 25.2252 35.9487 24.9771 35.9487 24.9771L41.7926 24.8956C41.7926 24.8956 44.8485 24.7057 43.4001 22.2981C43.2836 22.1003 42.5536 20.5185 39.0551 17.2657C35.3895 13.8578 35.8827 14.4122 40.2976 8.52308C42.9847 4.93685 44.0602 2.74635 43.7263 1.80811C43.4079 0.916404 41.4276 1.14902 41.4276 1.14902L34.8537 1.18779C34.8537 1.18779 34.3683 1.12188 34.0033 1.339C33.6499 1.55223 33.4247 2.04461 33.4247 2.04461C33.4247 2.04461 32.3841 4.82054 30.994 7.18163C28.0662 12.1636 26.8935 12.4233 26.412 12.1132C25.2976 11.3921 25.5772 9.21706 25.5772 7.67014C25.5772 2.84327 26.3072 0.83111 24.1521 0.311592C23.4338 0.137127 22.9096 0.0246939 21.0807 0.0053089C18.7354 -0.0179531 16.7434 0.0130629 15.6212 0.563597C14.8718 0.931912 14.2932 1.74996 14.6466 1.79648C15.0815 1.85464 16.0677 2.06012 16.5881 2.77349C17.2637 3.69234 17.2404 5.7549 17.2404 5.7549C17.2404 5.7549 17.6287 11.4347 16.3357 12.1442C15.4465 12.6288 14.2311 11.6402 11.6178 7.1196C10.2821 4.80503 9.26862 2.24621 9.26862 2.24621C9.26862 2.24621 9.07447 1.76934 8.72888 1.51734C8.30564 1.20718 7.71542 1.11025 7.71542 1.11025L1.4638 1.14902C1.4638 1.14902 0.524118 1.17616 0.182415 1.58325C-0.124342 1.94769 0.159117 2.69982 0.159117 2.69982C0.159117 2.69982 5.05557 14.1641 10.5966 19.9447C15.6794 25.2446 21.4535 24.8956 21.4535 24.8956H21.4457Z" fill="#FFFDFA"/>
</svg>
