<svg width="345" height="45" viewBox="0 0 345 45" fill="none" xmlns="http://www.w3.org/2000/svg">
<mask id="path-1-inside-1_2017_8" fill="white">
<path fill-rule="evenodd" clip-rule="evenodd" d="M10 0C4.47715 0 0 4.47715 0 10V29C0 34.5228 4.47715 39 10 39H10.3498L14.7946 44.2585C15.2028 44.7415 15.9468 44.7363 16.3386 44.2477L20.5461 39H335C340.523 39 345 34.5228 345 29V10C345 4.47715 340.523 0 335 0H10Z"/>
</mask>
<path fill-rule="evenodd" clip-rule="evenodd" d="M10 0C4.47715 0 0 4.47715 0 10V29C0 34.5228 4.47715 39 10 39H10.3498L14.7946 44.2585C15.2028 44.7415 15.9468 44.7363 16.3386 44.2477L20.5461 39H335C340.523 39 345 34.5228 345 29V10C345 4.47715 340.523 0 335 0H10Z" fill="white"/>
<path d="M10.3498 39L11.1135 38.3545L10.8139 38H10.3498V39ZM14.7946 44.2585L14.0308 44.9041L14.7946 44.2585ZM16.3386 44.2477L15.5584 43.6222L15.5584 43.6222L16.3386 44.2477ZM20.5461 39V38H20.0662L19.766 38.3745L20.5461 39ZM1 10C1 5.02944 5.02944 1 10 1V-1C3.92487 -1 -1 3.92487 -1 10H1ZM1 29V10H-1V29H1ZM10 38C5.02944 38 1 33.9706 1 29H-1C-1 35.0751 3.92487 40 10 40V38ZM10.3498 38H10V40H10.3498V38ZM15.5583 43.613L11.1135 38.3545L9.58609 39.6455L14.0308 44.9041L15.5583 43.613ZM15.5584 43.6222C15.5576 43.6231 15.558 43.6225 15.5596 43.6213C15.5611 43.6201 15.5627 43.6191 15.5642 43.6184C15.5671 43.6171 15.5676 43.6175 15.5658 43.6175C15.5639 43.6175 15.5626 43.6171 15.5623 43.6169C15.5623 43.6169 15.5623 43.6169 15.562 43.6167C15.5618 43.6166 15.5605 43.6156 15.5583 43.613L14.0308 44.9041C14.8373 45.8581 16.3255 45.8626 17.1188 44.8733L15.5584 43.6222ZM19.766 38.3745L15.5584 43.6222L17.1188 44.8733L21.3263 39.6255L19.766 38.3745ZM335 38H20.5461V40H335V38ZM344 29C344 33.9706 339.971 38 335 38V40C341.075 40 346 35.0751 346 29H344ZM344 10V29H346V10H344ZM335 1C339.971 1 344 5.02944 344 10H346C346 3.92487 341.075 -1 335 -1V1ZM10 1H335V-1H10V1Z" fill="#0158A9" mask="url(#path-1-inside-1_2017_8)"/>
</svg>
