<svg width="345" height="45" viewBox="0 0 345 45" fill="none" xmlns="http://www.w3.org/2000/svg">
<mask id="path-1-inside-1_2017_3" fill="white">
<path fill-rule="evenodd" clip-rule="evenodd" d="M10 0C4.47715 0 0 4.47715 0 10V29C0 34.5228 4.47715 39 10 39H168.35L172.795 44.2586C173.203 44.7417 173.947 44.7365 174.339 44.2479L178.546 39H335C340.523 39 345 34.5228 345 29V10C345 4.47715 340.523 0 335 0H10Z"/>
</mask>
<path fill-rule="evenodd" clip-rule="evenodd" d="M10 0C4.47715 0 0 4.47715 0 10V29C0 34.5228 4.47715 39 10 39H168.35L172.795 44.2586C173.203 44.7417 173.947 44.7365 174.339 44.2479L178.546 39H335C340.523 39 345 34.5228 345 29V10C345 4.47715 340.523 0 335 0H10Z" fill="white"/>
<path d="M168.35 39L169.113 38.3545L168.814 38H168.35V39ZM172.795 44.2586L172.031 44.9042L172.031 44.9042L172.795 44.2586ZM174.339 44.2479L173.558 43.6223L173.558 43.6223L174.339 44.2479ZM178.546 39V38H178.066L177.766 38.3745L178.546 39ZM1 10C1 5.02944 5.02944 1 10 1V-1C3.92487 -1 -1 3.92487 -1 10H1ZM1 29V10H-1V29H1ZM10 38C5.02944 38 1 33.9706 1 29H-1C-1 35.0751 3.92487 40 10 40V38ZM168.35 38H10V40H168.35V38ZM173.558 43.6131L169.113 38.3545L167.586 39.6455L172.031 44.9042L173.558 43.6131ZM173.558 43.6223C173.558 43.6232 173.558 43.6226 173.56 43.6214C173.561 43.6202 173.563 43.6192 173.564 43.6185C173.567 43.6172 173.568 43.6176 173.566 43.6176C173.564 43.6176 173.563 43.6172 173.562 43.6171C173.562 43.6171 173.562 43.617 173.562 43.6169C173.562 43.6167 173.561 43.6158 173.558 43.6131L172.031 44.9042C172.837 45.8582 174.326 45.8628 175.119 44.8734L173.558 43.6223ZM177.766 38.3745L173.558 43.6223L175.119 44.8734L179.326 39.6255L177.766 38.3745ZM335 38H178.546V40H335V38ZM344 29C344 33.9706 339.971 38 335 38V40C341.075 40 346 35.0751 346 29H344ZM344 10V29H346V10H344ZM335 1C339.971 1 344 5.02944 344 10H346C346 3.92487 341.075 -1 335 -1V1ZM10 1H335V-1H10V1Z" fill="#0158A9" mask="url(#path-1-inside-1_2017_3)"/>
</svg>
