<svg width="175" height="66" viewBox="0 0 175 66" fill="none" xmlns="http://www.w3.org/2000/svg">
<mask id="path-1-inside-1_66_3226" fill="white">
<path fill-rule="evenodd" clip-rule="evenodd" d="M10.5825 0.0942383C5.05967 0.0942383 0.58252 4.5714 0.58252 10.0942V47.1969C0.58252 52.7198 5.05967 57.1969 10.5825 57.1969H83.1391C83.0876 57.4207 83.1123 57.666 83.2359 57.8941L86.8463 64.5575C87.2293 65.2643 88.2475 65.2533 88.615 64.5382L92.0793 57.7978C92.1807 57.6005 92.2096 57.3923 92.1806 57.1969H164.772C170.295 57.1969 174.772 52.7198 174.772 47.1969V10.0942C174.772 4.57139 170.295 0.0942383 164.772 0.0942383H10.5825Z"/>
</mask>
<path fill-rule="evenodd" clip-rule="evenodd" d="M10.5825 0.0942383C5.05967 0.0942383 0.58252 4.5714 0.58252 10.0942V47.1969C0.58252 52.7198 5.05967 57.1969 10.5825 57.1969H83.1391C83.0876 57.4207 83.1123 57.666 83.2359 57.8941L86.8463 64.5575C87.2293 65.2643 88.2475 65.2533 88.615 64.5382L92.0793 57.7978C92.1807 57.6005 92.2096 57.3923 92.1806 57.1969H164.772C170.295 57.1969 174.772 52.7198 174.772 47.1969V10.0942C174.772 4.57139 170.295 0.0942383 164.772 0.0942383H10.5825Z" fill="white"/>
<path d="M83.1391 57.1969L84.1136 57.4212L84.3953 56.1969H83.1391V57.1969ZM83.2359 57.8941L82.3567 58.3705V58.3705L83.2359 57.8941ZM86.8463 64.5575L87.7256 64.0811V64.0811L86.8463 64.5575ZM88.615 64.5382L87.7256 64.0811V64.0811L88.615 64.5382ZM92.0793 57.7978L92.9687 58.2549L92.9687 58.2549L92.0793 57.7978ZM92.1806 57.1969V56.1969H91.0215L91.1915 57.3436L92.1806 57.1969ZM1.58252 10.0942C1.58252 5.12368 5.61196 1.09424 10.5825 1.09424V-0.905762C4.50739 -0.905762 -0.41748 4.01912 -0.41748 10.0942H1.58252ZM1.58252 47.1969V10.0942H-0.41748V47.1969H1.58252ZM10.5825 56.1969C5.61196 56.1969 1.58252 52.1675 1.58252 47.1969H-0.41748C-0.41748 53.2721 4.50739 58.1969 10.5825 58.1969V56.1969ZM83.1391 56.1969H10.5825V58.1969H83.1391V56.1969ZM84.1152 57.4177C84.1134 57.4146 84.113 57.4131 84.1131 57.4134C84.1132 57.4136 84.1134 57.4145 84.1136 57.416C84.1138 57.4174 84.1138 57.4187 84.1138 57.4197C84.1137 57.4207 84.1136 57.4212 84.1136 57.4212L82.1646 56.9727C82.0607 57.4242 82.1124 57.9197 82.3567 58.3705L84.1152 57.4177ZM87.7256 64.0811L84.1152 57.4177L82.3567 58.3705L85.9671 65.0339L87.7256 64.0811ZM87.7256 64.0811V64.0811L85.9671 65.0339C86.733 66.4476 88.7694 66.4254 89.5044 64.9954L87.7256 64.0811ZM91.1899 57.3407L87.7256 64.0811L89.5044 64.9954L92.9687 58.2549L91.1899 57.3407ZM91.1915 57.3436C91.1913 57.3424 91.1912 57.3402 91.1916 57.3378C91.1917 57.3367 91.1919 57.3361 91.1919 57.3363C91.1918 57.3364 91.1914 57.3379 91.1899 57.3407L92.9687 58.2549C93.1684 57.8665 93.2286 57.4465 93.1698 57.0503L91.1915 57.3436ZM164.772 56.1969H92.1806V58.1969H164.772V56.1969ZM173.772 47.1969C173.772 52.1675 169.743 56.1969 164.772 56.1969V58.1969C170.847 58.1969 175.772 53.2721 175.772 47.1969H173.772ZM173.772 10.0942V47.1969H175.772V10.0942H173.772ZM164.772 1.09424C169.743 1.09424 173.772 5.12368 173.772 10.0942H175.772C175.772 4.01911 170.847 -0.905762 164.772 -0.905762V1.09424ZM10.5825 1.09424H164.772V-0.905762H10.5825V1.09424Z" fill="#0158A9" mask="url(#path-1-inside-1_66_3226)"/>
</svg>
