<svg width="200" height="67" viewBox="0 0 200 67" fill="none" xmlns="http://www.w3.org/2000/svg">
<mask id="path-1-inside-1_168_2" fill="white">
<path fill-rule="evenodd" clip-rule="evenodd" d="M10 0C4.47715 0 0 4.47715 0 10V52.4607C0 57.9835 4.47716 62.4607 10 62.4607H19.8175L23.2472 69.3846C23.6185 70.1341 24.6921 70.1213 25.0483 69.3631L28.2917 62.4607H190C195.523 62.4607 200 57.9835 200 52.4607V10C200 4.47715 195.523 0 190 0H10Z"/>
</mask>
<path fill-rule="evenodd" clip-rule="evenodd" d="M10 0C4.47715 0 0 4.47715 0 10V52.4607C0 57.9835 4.47716 62.4607 10 62.4607H19.8175L23.2472 69.3846C23.6185 70.1341 24.6921 70.1213 25.0483 69.3631L28.2917 62.4607H190C195.523 62.4607 200 57.9835 200 52.4607V10C200 4.47715 195.523 0 190 0H10Z" fill="white"/>
<path d="M19.8175 62.4607L20.7136 62.0168L20.4381 61.4607H19.8175V62.4607ZM23.2472 69.3846L22.3511 69.8285L22.3511 69.8285L23.2472 69.3846ZM25.0483 69.3631L25.9534 69.7884L25.9534 69.7884L25.0483 69.3631ZM28.2917 62.4607V61.4607H27.6566L27.3866 62.0354L28.2917 62.4607ZM1 10C1 5.02944 5.02944 1 10 1V-1C3.92487 -1 -1 3.92487 -1 10H1ZM1 52.4607V10H-1V52.4607H1ZM10 61.4607C5.02944 61.4607 1 57.4313 1 52.4607H-1C-1 58.5358 3.92487 63.4607 10 63.4607V61.4607ZM19.8175 61.4607H10V63.4607H19.8175V61.4607ZM24.1433 68.9407L20.7136 62.0168L18.9214 62.9046L22.3511 69.8285L24.1433 68.9407ZM24.1433 68.9379C24.14 68.9449 24.1383 68.9461 24.14 68.9442C24.1414 68.9426 24.1436 68.9408 24.1457 68.9395C24.1475 68.9384 24.1482 68.9383 24.1473 68.9386C24.1462 68.9389 24.1441 68.9393 24.1415 68.9393C24.1389 68.9393 24.1369 68.939 24.1361 68.9388C24.1354 68.9386 24.1365 68.9388 24.1388 68.9401C24.1413 68.9416 24.1439 68.9437 24.1459 68.9457C24.1479 68.948 24.1466 68.9473 24.1433 68.9407L22.3511 69.8285C23.0961 71.3324 25.2433 71.2998 25.9534 69.7884L24.1433 68.9379ZM27.3866 62.0354L24.1433 68.9379L25.9534 69.7884L29.1967 62.886L27.3866 62.0354ZM190 61.4607H28.2917V63.4607H190V61.4607ZM199 52.4607C199 57.4313 194.971 61.4607 190 61.4607V63.4607C196.075 63.4607 201 58.5358 201 52.4607H199ZM199 10V52.4607H201V10H199ZM190 1C194.971 1 199 5.02944 199 10H201C201 3.92487 196.075 -1 190 -1V1ZM10 1H190V-1H10V1Z" fill="#0158A9" mask="url(#path-1-inside-1_168_2)"/>
</svg>
