<svg width="201" height="71" viewBox="0 0 201 71" fill="none" xmlns="http://www.w3.org/2000/svg">
<mask id="path-1-inside-1_66_3226" fill="white">
<path fill-rule="evenodd" clip-rule="evenodd" d="M10.5825 0.0942383C5.05967 0.0942383 0.58252 4.57139 0.58252 10.0942V51.4011C0.58252 56.924 5.05967 61.4011 10.5825 61.4011H95.3128C95.2759 61.618 95.3102 61.8513 95.4352 62.0669L99.776 69.5582C100.167 70.2322 101.143 70.2223 101.518 69.5405L105.683 61.9625C105.783 61.7799 105.82 61.5862 105.804 61.4011H190.583C196.105 61.4011 200.583 56.924 200.583 51.4011V10.0942C200.583 4.57139 196.105 0.0942383 190.583 0.0942383H10.5825Z"/>
</mask>
<path fill-rule="evenodd" clip-rule="evenodd" d="M10.5825 0.0942383C5.05967 0.0942383 0.58252 4.57139 0.58252 10.0942V51.4011C0.58252 56.924 5.05967 61.4011 10.5825 61.4011H95.3128C95.2759 61.618 95.3102 61.8513 95.4352 62.0669L99.776 69.5582C100.167 70.2322 101.143 70.2223 101.518 69.5405L105.683 61.9625C105.783 61.7799 105.82 61.5862 105.804 61.4011H190.583C196.105 61.4011 200.583 56.924 200.583 51.4011V10.0942C200.583 4.57139 196.105 0.0942383 190.583 0.0942383H10.5825Z" fill="white"/>
<path d="M95.3128 61.4011L96.2986 61.5688L96.4972 60.4011H95.3128V61.4011ZM95.4352 62.0669L96.3004 61.5655L96.3004 61.5655L95.4352 62.0669ZM99.776 69.5582L100.641 69.0569L100.641 69.0569L99.776 69.5582ZM101.518 69.5405L100.641 69.0588L100.641 69.0588L101.518 69.5405ZM105.683 61.9625L104.807 61.4808L104.807 61.4808L105.683 61.9625ZM105.804 61.4011V60.4011H104.718L104.808 61.4839L105.804 61.4011ZM1.58252 10.0942C1.58252 5.12368 5.61196 1.09424 10.5825 1.09424V-0.905762C4.50739 -0.905762 -0.41748 4.01911 -0.41748 10.0942H1.58252ZM1.58252 51.4011V10.0942H-0.41748V51.4011H1.58252ZM10.5825 60.4011C5.61196 60.4011 1.58252 56.3717 1.58252 51.4011H-0.41748C-0.41748 57.4763 4.50739 62.4011 10.5825 62.4011V60.4011ZM95.3128 60.4011H10.5825V62.4011H95.3128V60.4011ZM96.3004 61.5655C96.2994 61.5638 96.2988 61.5626 96.2985 61.5618C96.2981 61.5611 96.298 61.5607 96.2979 61.5606C96.2979 61.5606 96.2982 61.5614 96.2984 61.5628C96.299 61.5657 96.2988 61.568 96.2986 61.5688L94.3269 61.2335C94.2523 61.6725 94.3238 62.1435 94.5699 62.5682L96.3004 61.5655ZM100.641 69.0569L96.3004 61.5655L94.5699 62.5682L98.9108 70.0596L100.641 69.0569ZM100.641 69.0588C100.639 69.0636 100.638 69.0641 100.639 69.0624C100.641 69.0609 100.643 69.0594 100.645 69.0583C100.648 69.0565 100.647 69.0578 100.643 69.0578C100.638 69.0579 100.637 69.0566 100.64 69.0581C100.641 69.0589 100.643 69.0602 100.644 69.0614C100.645 69.0627 100.644 69.0619 100.641 69.0569L98.9108 70.0596C99.6901 71.4045 101.643 71.3888 102.394 70.0222L100.641 69.0588ZM104.807 61.4808L100.641 69.0588L102.394 70.0222L106.559 62.4442L104.807 61.4808ZM104.808 61.4839C104.808 61.4822 104.808 61.4799 104.808 61.4777C104.809 61.4752 104.809 61.476 104.807 61.4808L106.559 62.4442C106.757 62.0852 106.832 61.6946 106.801 61.3184L104.808 61.4839ZM190.583 60.4011H105.804V62.4011H190.583V60.4011ZM199.583 51.4011C199.583 56.3717 195.553 60.4011 190.583 60.4011V62.4011C196.658 62.4011 201.583 57.4763 201.583 51.4011H199.583ZM199.583 10.0942V51.4011H201.583V10.0942H199.583ZM190.583 1.09424C195.553 1.09424 199.583 5.12368 199.583 10.0942H201.583C201.583 4.01911 196.658 -0.905762 190.583 -0.905762V1.09424ZM10.5825 1.09424H190.583V-0.905762H10.5825V1.09424Z" fill="#0158A9" mask="url(#path-1-inside-1_66_3226)"/>
</svg>
