<svg width="544" height="423" viewBox="0 0 544 423" fill="none" xmlns="http://www.w3.org/2000/svg">
<path d="M342.847 250.023H332.105L332.656 357.17H342.847V250.023Z" fill="white"/>
<path fill-rule="evenodd" clip-rule="evenodd" d="M94.3997 358.272L202.648 211.462H286.657V358.272H235.976V334.859H180.888L166.014 358.272H94.3997ZM199.893 307.04L239.006 247.82L232.946 307.04H199.893Z" fill="white"/>
<path d="M0.75 235.701V156.649H50.8801V235.701H47.5749L48.9521 359.098C48.0706 386.201 63.2749 391.141 70.9873 390.223H373.145C401.883 390.59 463.324 391.104 479.19 390.223C495.055 389.341 502.878 385.816 504.806 384.163C519.569 368.959 504.163 360.934 494.614 358.822H454.125C421.953 359.924 399.22 342.755 391.875 334.033C362.128 308.472 372.87 264.805 381.959 246.167H328.524V357.445H291.064V210.635H540.888L517.751 240.934L475.058 242.311C462.057 241.65 450.36 244.606 446.137 246.167C410.33 264.897 421.806 297.583 434.568 311.997C438.516 317.323 454.786 329.075 481.669 326.871C508.552 324.668 527.392 337.154 533.452 343.673C540.338 351.294 550.804 372.154 537.583 394.63C524.362 417.106 493.145 422.908 479.19 423L46.4731 421.623C10.5557 422.284 3.59622 375.441 4.60616 351.936V235.701H0.75Z" fill="white"/>
<path d="M182.541 338.991L171.248 357.996H231.294V338.991H182.541Z" fill="white"/>
<path d="M8.18686 79.8014C20.7469 52.4777 19.6635 15.7156 17.5518 0.75C35.18 30.2772 43.4432 52.7164 45.3713 60.2451C50.3293 74.1089 57.2704 107.566 45.3713 130.482C33.4723 153.399 14.7975 144.438 9.56409 136.818C4.33073 129.197 -4.37322 107.125 8.18686 79.8014Z" fill="white"/>
<ellipse cx="475.747" cy="283.352" rx="42.5555" ry="35.2564" fill="white"/>
</svg>
