<svg width="295" height="119" viewBox="0 0 295 119" fill="none" xmlns="http://www.w3.org/2000/svg">
<path d="M51.6501 43.2497V17.2167C51.6501 14.0561 50.7906 11.5887 49.0717 9.81435C47.4083 8.04 45.2458 7.15283 42.5843 7.15283C39.8119 7.15283 37.4276 8.1509 35.4314 10.147C33.4353 12.0877 32.4372 14.4443 32.4372 17.2167H28.8608C28.8608 12.6699 30.3579 8.78856 33.3521 5.57255C36.3463 2.35655 40.0337 0.748552 44.4141 0.748552C48.3509 0.748552 51.6501 2.13476 54.3116 4.90717C56.9731 7.67959 58.3039 11.3115 58.3039 15.8028V43.2497H51.6501ZM0 43.2497V1.66345H6.65379V43.2497H0ZM25.7835 43.2497V17.2167C25.7835 14.0561 24.924 11.5887 23.2051 9.81435C21.5417 8.04 19.4069 7.15283 16.8008 7.15283C13.973 7.15283 11.561 8.1509 9.56483 10.147C7.62414 12.0877 6.65379 14.4443 6.65379 17.2167H2.99421C2.99421 12.6699 4.49131 8.78856 7.48552 5.57255C10.4797 2.35655 14.1948 0.748552 18.6306 0.748552C22.5674 0.748552 25.8389 2.13476 28.445 4.90717C31.1065 7.67959 32.4372 11.3115 32.4372 15.8028V43.2497H25.7835Z" fill="#366F08"/>
<path d="M77.4673 10.9788C74.4177 13.9175 72.8928 17.7157 72.8928 22.3734C72.8928 27.031 74.4177 30.857 77.4673 33.8512C80.5724 36.7899 84.3429 38.2593 88.7788 38.2593C93.2146 38.2593 96.9574 36.7899 100.007 33.8512C103.112 30.857 104.665 27.031 104.665 22.3734C104.665 17.7157 103.112 13.9175 100.007 10.9788C96.9574 7.98455 93.2146 6.48745 88.7788 6.48745C84.3429 6.48745 80.5724 7.98455 77.4673 10.9788ZM72.7265 38.4257C68.4015 34.2116 66.239 28.8608 66.239 22.3734C66.239 15.8859 68.4015 10.5352 72.7265 6.3211C77.1069 2.10703 82.4576 0 88.7788 0C95.0999 0 100.423 2.10703 104.748 6.3211C109.128 10.5352 111.318 15.8859 111.318 22.3734C111.318 28.8608 109.128 34.2116 104.748 38.4257C100.423 42.6397 95.0999 44.7468 88.7788 44.7468C82.4576 44.7468 77.1069 42.6397 72.7265 38.4257Z" fill="#366F08"/>
<path d="M128.882 10.9788C125.832 13.9175 124.307 17.7157 124.307 22.3734C124.307 27.031 125.832 30.857 128.882 33.8512C131.987 36.7899 135.757 38.2593 140.193 38.2593C144.629 38.2593 148.372 36.7899 151.421 33.8512C154.526 30.857 156.079 27.031 156.079 22.3734C156.079 17.7157 154.526 13.9175 151.421 10.9788C148.372 7.98455 144.629 6.48745 140.193 6.48745C135.757 6.48745 131.987 7.98455 128.882 10.9788ZM124.141 38.4257C119.816 34.2116 117.653 28.8608 117.653 22.3734C117.653 15.8859 119.816 10.5352 124.141 6.3211C128.521 2.10703 133.872 0 140.193 0C146.514 0 151.837 2.10703 156.162 6.3211C160.542 10.5352 162.733 15.8859 162.733 22.3734C162.733 28.8608 160.542 34.2116 156.162 38.4257C151.837 42.6397 146.514 44.7468 140.193 44.7468C133.872 44.7468 128.521 42.6397 124.141 38.4257Z" fill="#366F08"/>
<path d="M185.536 25.2844C175.222 23.5101 170.066 19.4346 170.066 13.0581C170.066 9.45393 171.452 6.48745 174.224 4.15862C176.997 1.77435 180.462 0.582209 184.621 0.582209C188.447 0.582209 191.884 1.63573 194.934 3.74276C198.039 5.8498 200.257 8.67766 201.588 12.2263L195.267 14.472C194.324 12.0323 192.91 10.1193 191.025 8.73311C189.195 7.3469 187.116 6.65379 184.787 6.65379C182.458 6.65379 180.518 7.236 178.965 8.40042C177.468 9.56483 176.719 11.0065 176.719 12.7254C176.719 14.3334 177.468 15.6364 178.965 16.6345C180.518 17.6326 182.985 18.4366 186.367 19.0465C197.235 20.9317 202.669 25.2012 202.669 31.855C202.669 35.3483 201.144 38.287 198.095 40.6713C195.1 43.0001 191.441 44.1646 187.116 44.1646C183.068 44.1646 179.381 43.1665 176.054 41.1703C172.782 39.1742 170.454 36.485 169.067 33.1026L175.139 30.5243C176.193 32.9086 177.745 34.7938 179.797 36.18C181.904 37.5662 184.288 38.2593 186.95 38.2593C189.556 38.2593 191.718 37.6771 193.437 36.5127C195.156 35.2928 196.015 33.768 196.015 31.9382C196.015 28.7222 192.522 26.5043 185.536 25.2844Z" fill="#366F08"/>
<path d="M245.463 19.296C245.13 15.4146 243.55 12.2818 240.722 9.89752C237.894 7.51324 234.484 6.3211 230.492 6.3211C226.666 6.3211 223.366 7.51324 220.594 9.89752C217.877 12.2263 216.269 15.3592 215.77 19.296H245.463ZM215.77 25.3676C216.269 29.3044 217.933 32.465 220.76 34.8492C223.588 37.2335 226.943 38.4257 230.824 38.4257C233.818 38.4257 236.535 37.7326 238.975 36.3463C241.415 34.9047 243.245 32.9363 244.465 30.4411L250.619 32.8531C248.79 36.5127 246.1 39.4237 242.552 41.5862C239.058 43.6932 235.177 44.7468 230.907 44.7468C224.697 44.7468 219.457 42.6397 215.188 38.4257C210.974 34.1561 208.867 28.8054 208.867 22.3734C208.867 15.9414 210.946 10.6183 215.105 6.40428C219.263 2.13476 224.365 0 230.408 0C236.508 0 241.664 2.07931 245.878 6.23793C250.093 10.3411 252.2 15.5255 252.2 21.7912C252.2 22.7892 252.061 23.9814 251.784 25.3676H215.77Z" fill="#366F08"/>
<path d="M58.416 115.181H51.7622L51.6501 43.2497H58.3039L58.416 115.181ZM47.1046 105.699C50.2097 102.705 51.7622 98.9066 51.7622 94.3044C51.7622 89.7022 50.2097 85.904 47.1046 82.9098C44.0549 79.9156 40.3121 78.4185 35.8763 78.4185C31.4404 78.4185 27.6699 79.9156 24.5648 82.9098C21.5152 85.904 19.9903 89.7022 19.9903 94.3044C19.9903 98.9066 21.5152 102.705 24.5648 105.699C27.6699 108.693 31.4404 110.19 35.8763 110.19C40.3121 110.19 44.0549 108.693 47.1046 105.699ZM49.0175 78.3353C52.9543 82.5494 54.9228 87.8724 54.9228 94.3044C54.9228 100.736 52.9543 106.087 49.0175 110.357C45.0807 114.571 40.229 116.678 34.4623 116.678C28.5294 116.678 23.5113 114.571 19.4081 110.357C15.3604 106.087 13.3366 100.736 13.3366 94.3044C13.3366 87.8724 15.3604 82.5494 19.4081 78.3353C23.5113 74.0658 28.5294 71.931 34.4623 71.931C40.229 71.931 45.0807 74.0658 49.0175 78.3353Z" fill="#366F08"/>
<path d="M102.971 91.227C102.638 87.3457 101.058 84.2128 98.2303 81.8286C95.4024 79.4443 91.9923 78.2521 88 78.2521C84.1741 78.2521 80.8749 79.4443 78.1025 81.8286C75.3856 84.1574 73.7776 87.2902 73.2785 91.227H102.971ZM73.2785 97.2986C73.7776 101.235 75.441 104.396 78.2689 106.78C81.0967 109.165 84.4514 110.357 88.3327 110.357C91.3269 110.357 94.0439 109.664 96.4836 108.277C98.9234 106.836 100.753 104.867 101.973 102.372L108.128 104.784C106.298 108.444 103.609 111.355 100.06 113.517C96.5668 115.624 92.6854 116.678 88.4159 116.678C82.2057 116.678 76.9658 114.571 72.6963 110.357C68.4823 106.087 66.3752 100.736 66.3752 94.3044C66.3752 87.8724 68.4545 82.5494 72.6131 78.3353C76.7718 74.0658 81.873 71.931 87.9169 71.931C94.0162 71.931 99.1729 74.0103 103.387 78.169C107.601 82.2721 109.708 87.4566 109.708 93.7222C109.708 94.7203 109.569 95.9124 109.292 97.2986H73.2785Z" fill="#366F08"/>
<path d="M147.732 73.5945H154.885L138.583 115.181H129.933L113.715 73.5945H120.867L134.258 108.527L147.732 73.5945Z" fill="#366F08"/>
<path d="M186.59 75.1748C186.59 69.4636 187.921 64.5287 190.582 60.3701C193.244 56.2114 196.681 53.4113 200.896 51.9697L203.557 58.2908C200.507 59.2888 197.985 61.4513 195.988 64.7782C194.048 68.1051 193.077 72.0419 193.077 76.5887C193.077 81.5236 191.414 84.5178 188.087 85.5713C189.861 86.1258 191.137 87.0407 191.913 88.316C192.689 89.5359 193.077 91.3934 193.077 93.8885C193.077 98.768 194.131 102.899 196.238 106.281C198.4 109.608 201.117 111.687 204.389 112.519L201.894 118.84C197.402 117.62 193.715 114.903 190.832 110.689C188.004 106.475 186.59 101.43 186.59 95.552C186.59 91.0052 184.594 88.7319 180.601 88.7319V82.3276C182.598 82.3276 184.095 81.6622 185.093 80.3314C186.091 79.0007 186.59 77.2818 186.59 75.1748Z" fill="#366F08"/>
<path d="M231.981 82.2444C231.981 80.6919 232.48 79.4165 233.478 78.4185C234.476 77.365 235.752 76.8382 237.304 76.8382C238.801 76.8382 240.049 77.365 241.047 78.4185C242.101 79.4165 242.627 80.6919 242.627 82.2444C242.627 83.7415 242.128 85.0168 241.13 86.0703C240.132 87.0684 238.857 87.5674 237.304 87.5674C235.807 87.5674 234.532 87.0684 233.478 86.0703C232.48 85.0168 231.981 83.7415 231.981 82.2444ZM231.981 110.856C231.981 109.359 232.48 108.111 233.478 107.113C234.476 106.059 235.752 105.533 237.304 105.533C238.801 105.533 240.049 106.059 241.047 107.113C242.101 108.111 242.627 109.359 242.627 110.856C242.627 112.408 242.128 113.684 241.13 114.682C240.132 115.68 238.857 116.179 237.304 116.179C235.807 116.179 234.532 115.68 233.478 114.682C232.48 113.684 231.981 112.408 231.981 110.856Z" fill="#366F08"/>
<path d="M288.106 95.6352C288.106 101.346 286.775 106.281 284.113 110.44C281.507 114.598 278.07 117.399 273.8 118.84L271.222 112.519C274.271 111.521 276.767 109.359 278.707 106.032C280.703 102.705 281.701 98.768 281.701 94.2212C281.701 89.2863 283.365 86.2921 286.692 85.2386C284.917 84.6841 283.642 83.797 282.866 82.5771C282.09 81.3018 281.701 79.4165 281.701 76.9214C281.701 72.0419 280.62 67.9388 278.458 64.6119C276.351 61.2295 273.661 59.1225 270.39 58.2908L272.885 51.9697C277.376 53.1895 281.036 55.9065 283.864 60.1205C286.692 64.3346 288.106 69.3804 288.106 75.2579C288.106 79.8047 290.13 82.0781 294.177 82.0781V88.4823C292.181 88.4823 290.656 89.1477 289.603 90.4785C288.605 91.8092 288.106 93.5281 288.106 95.6352Z" fill="#366F08"/>
</svg>
