<svg width="24" height="24" viewBox="0 0 24 24" fill="none" xmlns="http://www.w3.org/2000/svg">
<path d="M7 18.6667C5.71083 18.6667 4.67833 19.7108 4.67833 21C4.67833 22.2892 5.71083 23.3333 7 23.3333C8.28917 23.3333 9.33333 22.2892 9.33333 21C9.33333 19.7108 8.28917 18.6667 7 18.6667ZM0 0V2.33333H2.33333L6.5275 11.1825L4.9525 14.0408C4.77167 14.3792 4.66667 14.7583 4.66667 15.1667C4.66667 16.4558 5.71083 17.5 7 17.5H21V15.1667H7.49583C7.3325 15.1667 7.20417 15.0383 7.20417 14.875C7.20417 14.8225 7.21583 14.7758 7.23917 14.735L8.28333 12.8333H16.975C17.85 12.8333 18.6142 12.3492 19.0167 11.6317L23.1875 4.06C23.2808 3.89667 23.3333 3.70417 23.3333 3.5C23.3333 2.8525 22.8083 2.33333 22.1667 2.33333H4.9175L3.80917 0H0ZM18.6667 18.6667C17.3775 18.6667 16.345 19.7108 16.345 21C16.345 22.2892 17.3775 23.3333 18.6667 23.3333C19.9558 23.3333 21 22.2892 21 21C21 19.7108 19.9558 18.6667 18.6667 18.6667Z" fill="white"/>
</svg>
