<svg width="28" height="28" viewBox="0 0 28 28" fill="none" xmlns="http://www.w3.org/2000/svg">
<path d="M10.5002 1.16666C9.2115 1.16666 8.16683 2.21133 8.16683 3.49999V4.66666H5.8335H3.50016C2.85583 4.66666 2.3335 5.18899 2.3335 5.83332C2.3335 6.47766 2.85583 6.99999 3.50016 6.99999H4.66683V23.3333C4.66683 25.2663 6.23383 26.8333 8.16683 26.8333H19.8335C21.7665 26.8333 23.3335 25.2663 23.3335 23.3333V6.99999H24.5002C25.1445 6.99999 25.6668 6.47766 25.6668 5.83332C25.6668 5.18899 25.1445 4.66666 24.5002 4.66666H22.1668H19.8335V3.49999C19.8335 2.21133 18.7888 1.16666 17.5002 1.16666H10.5002ZM17.5002 4.66666H10.5002V3.49999H17.5002V4.66666ZM9.3335 6.99999H18.6668H21.0002V23.3333C21.0002 23.9777 20.4778 24.5 19.8335 24.5H8.16683C7.5225 24.5 7.00016 23.9777 7.00016 23.3333V6.99999H9.3335ZM12.8335 12.8333C12.8335 12.189 12.3112 11.6667 11.6668 11.6667C11.0225 11.6667 10.5002 12.189 10.5002 12.8333V18.6667C10.5002 19.311 11.0225 19.8333 11.6668 19.8333C12.3112 19.8333 12.8335 19.311 12.8335 18.6667V12.8333ZM16.3335 11.6667C16.9778 11.6667 17.5002 12.189 17.5002 12.8333V18.6667C17.5002 19.311 16.9778 19.8333 16.3335 19.8333C15.6892 19.8333 15.1668 19.311 15.1668 18.6667V12.8333C15.1668 12.189 15.6892 11.6667 16.3335 11.6667Z" fill="#ED1C24"/>
</svg>
