<svg width="28" height="28" viewBox="0 0 28 28" fill="none" xmlns="http://www.w3.org/2000/svg">
<path d="M15.6884 24.3893C16.0837 24.1939 16.3333 23.7943 16.3333 23.3572V17.1499C16.3333 16.8438 16.4562 16.5503 16.675 16.3339L23.8163 9.27005C24.2538 8.8373 24.5 8.24991 24.5 7.63713V4.65401C24.5 4.01584 23.9785 3.5 23.3333 3.5H4.66667C4.0215 3.5 3.5 4.01584 3.5 4.65401V7.63713C3.5 8.24991 3.74617 8.8373 4.18367 9.27005L11.325 16.3339C11.5438 16.5503 11.6667 16.8438 11.6667 17.1499V24.5112C11.6667 25.369 12.5794 25.927 13.3551 25.5433L15.6884 24.3893Z" fill="white"/>
</svg>
