<svg width="110" height="19" viewBox="0 0 110 19" fill="none" xmlns="http://www.w3.org/2000/svg">
<path d="M4.83631 14.9205L3.8759 17.7331H0L5.00781 4.52755H8.95231L13.9601 17.7331H10.0842L9.12381 14.9205H4.83631ZM6.99721 8.23195L5.76241 12.1079H8.19771L6.99721 8.23195Z" fill="white"/>
<path d="M19.071 9.91265V17.7331H15.5038V4.52755H18.6937L22.7411 9.74115L26.7885 4.56185H29.9784V17.7331H26.4112V9.91265L22.7411 14.5432L19.071 9.91265Z" fill="white"/>
<path d="M36.5982 9.91265V17.7331H33.031V4.52755H36.2209L40.2683 9.70685L44.35 4.52755H47.5399V17.7331H43.9727V9.91265L40.3026 14.5432L36.5982 9.91265Z" fill="white"/>
<path d="M62.3573 16.0523C60.9167 17.4243 59.2017 18.1103 57.1437 18.1103C55.0857 18.1103 53.3707 17.4243 51.9301 16.0523C50.4895 14.6803 49.8035 13.0339 49.8035 11.1131C49.8035 9.19233 50.5238 7.54593 51.9301 6.17393C53.3707 4.80193 55.0857 4.11592 57.1437 4.11592C59.2017 4.11592 60.9167 4.80193 62.3573 6.17393C63.7979 7.54593 64.4839 9.19233 64.4839 11.1131C64.4839 13.0339 63.7979 14.6803 62.3573 16.0523ZM54.5369 13.8228C55.2572 14.5431 56.1147 14.8861 57.178 14.8861C58.207 14.8861 59.0988 14.5431 59.7848 13.8228C60.4708 13.1025 60.8481 12.2107 60.8481 11.1131C60.8481 10.0155 60.5051 9.12373 59.7848 8.40343C59.0988 7.68313 58.207 7.34013 57.178 7.34013C56.149 7.34013 55.2572 7.68313 54.5369 8.40343C53.8166 9.12373 53.4736 10.0155 53.4736 11.1131C53.4736 12.2107 53.8166 13.1025 54.5369 13.8228Z" fill="white"/>
<path d="M78.7527 17.7331H75.1855V12.6567H70.3835V17.7331H66.8163V4.52755H70.3835V9.43245H75.1855V4.52755H78.7527V17.7331Z" fill="white"/>
<path d="M85.3731 4.52755V11.9021L90.9983 4.52755H94.1196V17.7331H90.5524V10.3929L84.8586 17.7331H81.7716V4.52755H85.3731Z" fill="white"/>
<path d="M100.74 4.5276V11.9021L106.399 4.5276H109.52V17.7331H105.953V10.3929L100.259 17.7331H97.1723V4.5276H100.74ZM100.98 2.2295C100.362 1.6464 100.054 0.891801 100.054 0L102.317 0C102.317 0.686001 102.66 1.029 103.346 1.029C104.032 1.029 104.375 0.686001 104.375 0L106.639 0C106.639 0.891801 106.33 1.6464 105.713 2.2295C105.096 2.8126 104.307 3.1213 103.312 3.1213C102.317 3.1213 101.597 2.8126 100.98 2.2295Z" fill="white"/>
</svg>
