<svg width="20" height="20" viewBox="0 0 20 20" fill="none" xmlns="http://www.w3.org/2000/svg">
<path d="M7.50033 0.833252C6.57985 0.833252 5.83366 1.57944 5.83366 2.49992V3.33325H4.16699H2.50033C2.04009 3.33325 1.66699 3.70635 1.66699 4.16659C1.66699 4.62682 2.04009 4.99992 2.50033 4.99992H3.33366V16.6666C3.33366 18.0473 4.45295 19.1666 5.83366 19.1666H14.167C15.5477 19.1666 16.667 18.0473 16.667 16.6666V4.99992H17.5003C17.9606 4.99992 18.3337 4.62682 18.3337 4.16659C18.3337 3.70635 17.9606 3.33325 17.5003 3.33325H15.8337H14.167V2.49992C14.167 1.57944 13.4208 0.833252 12.5003 0.833252H7.50033ZM12.5003 3.33325H7.50033V2.49992H12.5003V3.33325ZM6.66699 4.99992H13.3337H15.0003V16.6666C15.0003 17.1268 14.6272 17.4999 14.167 17.4999H5.83366C5.37342 17.4999 5.00033 17.1268 5.00033 16.6666V4.99992H6.66699ZM9.16699 9.16659C9.16699 8.70635 8.7939 8.33325 8.33366 8.33325C7.87342 8.33325 7.50033 8.70635 7.50033 9.16659V13.3333C7.50033 13.7935 7.87342 14.1666 8.33366 14.1666C8.7939 14.1666 9.16699 13.7935 9.16699 13.3333V9.16659ZM11.667 8.33325C12.1272 8.33325 12.5003 8.70635 12.5003 9.16659V13.3333C12.5003 13.7935 12.1272 14.1666 11.667 14.1666C11.2068 14.1666 10.8337 13.7935 10.8337 13.3333V9.16659C10.8337 8.70635 11.2068 8.33325 11.667 8.33325Z" fill="white"/>
</svg>
