<svg width="321" height="327" viewBox="0 0 321 327" fill="none" xmlns="http://www.w3.org/2000/svg">
<path d="M234.685 327H171.704C179.006 291.531 212.231 218.411 286.712 209.68C361.193 200.949 399.894 231.507 409.935 247.877C392.592 244.239 348.05 239.692 308.618 250.605C269.187 261.519 242.9 306.082 234.685 327Z" fill="#92BE35"/>
<path fill-rule="evenodd" clip-rule="evenodd" d="M97.7698 318.814C115.112 285.164 163.65 221.876 204.563 201.494C242.899 182.396 325.047 168.753 412.672 226.049C453.747 138.742 390.766 56.8903 346.953 32.3349C303.141 7.77953 218.254 -11.3191 141.582 7.77953C64.9104 26.8782 32.051 56.8909 10.1447 106.002C-11.7615 155.112 7.40644 215.137 15.6213 236.964C23.8361 258.791 67.6478 307.9 97.7698 318.814ZM270.89 135.994C250.861 135.736 152.58 134.472 89.5557 226.049C75.8643 206.95 67.6495 168.754 78.6026 127.829C89.5557 86.903 127.892 62.3476 171.704 51.4341C215.517 40.5206 273.021 54.1625 308.618 75.9895C337.096 93.4511 346.041 132.376 346.953 149.656C326.873 145.108 283.974 136.014 273.021 136.014C272.459 136.014 271.746 136.005 270.89 135.994Z" fill="#92BE35"/>
</svg>
