<svg width="35" height="34" viewBox="0 0 35 34" fill="none" xmlns="http://www.w3.org/2000/svg">
<path fill-rule="evenodd" clip-rule="evenodd" d="M25 0.0800781H10C4.82234 0.0800781 0.625 4.27742 0.625 9.45508V24.4551C0.625 29.6327 4.82234 33.8301 10 33.8301H25C30.1776 33.8301 34.375 29.6327 34.375 24.4551V9.45508C34.375 4.27742 30.1776 0.0800781 25 0.0800781ZM31.0938 24.4551C31.0834 27.8162 28.3611 30.5385 25 30.5488H10C6.63878 30.5385 3.91654 27.8162 3.90625 24.4551V9.45508C3.91654 6.09386 6.63878 3.37162 10 3.36133H25C28.3611 3.37162 31.0834 6.09386 31.0938 9.45508V24.4551ZM26.4062 9.92383C27.4418 9.92383 28.2812 9.08435 28.2812 8.04883C28.2812 7.0133 27.4418 6.17383 26.4062 6.17383C25.3707 6.17383 24.5312 7.0133 24.5312 8.04883C24.5312 9.08435 25.3707 9.92383 26.4062 9.92383ZM17.5 8.51758C12.8401 8.51758 9.0625 12.2952 9.0625 16.9551C9.0625 21.615 12.8401 25.3926 17.5 25.3926C22.1599 25.3926 25.9375 21.615 25.9375 16.9551C25.9426 14.7158 25.0551 12.5668 23.4717 10.9834C21.8883 9.39993 19.7393 8.51259 17.5 8.51758ZM12.3438 16.9551C12.3438 19.8028 14.6522 22.1113 17.5 22.1113C20.3478 22.1113 22.6562 19.8028 22.6562 16.9551C22.6562 14.1073 20.3478 11.7988 17.5 11.7988C14.6522 11.7988 12.3438 14.1073 12.3438 16.9551Z" fill="#1C1C19"/>
</svg>
