<svg width="37" height="31" viewBox="0 0 37 31" fill="none" xmlns="http://www.w3.org/2000/svg">
<path d="M2.19189 13.5637C2.19189 13.5637 18.2334 6.92997 23.7816 4.63833C25.9526 3.67342 33.1894 0.778708 33.1894 0.778708C33.1894 0.778708 36.5665 -0.548034 36.2047 2.5879C36.0841 3.91464 35.3604 8.37733 34.6368 13.3225C33.5512 20.318 32.3451 27.9166 32.3451 27.9166C32.3451 27.9166 32.1039 30.0877 30.5359 30.4495C28.968 30.8113 26.3144 29.1227 25.9526 28.7609C25.5908 28.5197 18.9571 24.2982 16.5448 22.2478C15.9418 21.6447 15.0975 20.5592 16.6654 19.2325C20.0426 16.2172 24.0228 12.3576 26.4351 9.9453C27.5206 8.85978 28.6061 6.2063 24.0228 9.34223C17.3891 13.9255 10.9966 18.147 10.9966 18.147C10.9966 18.147 9.54926 19.1119 6.77516 18.2676C4.00106 17.4233 0.744516 16.3378 0.744516 16.3378C0.744516 16.3378 -1.66773 15.011 2.19189 13.5637Z" fill="#1C1C19"/>
</svg>
