<svg width="53" height="31" viewBox="0 0 53 31" fill="none" xmlns="http://www.w3.org/2000/svg">
<path d="M25.919 30.3748H29.0549C29.0549 30.3748 30.0008 30.2678 30.4854 29.7467C30.9327 29.2675 30.914 28.3649 30.914 28.3649C30.914 28.3649 30.8535 24.1499 32.8105 23.5264C34.7396 22.917 37.2138 27.6019 39.8325 29.4071C41.8128 30.7702 43.3225 30.4725 43.3225 30.4725L50.3352 30.3748C50.3352 30.3748 54.0023 30.1468 52.2643 27.2577C52.1245 27.0204 51.2485 25.1222 47.0502 21.2189C42.6516 17.1294 43.2433 17.7947 48.5413 10.7277C51.7657 6.42422 53.0564 3.79562 52.6557 2.66974C52.2736 1.59968 49.8972 1.87883 49.8972 1.87883L42.0085 1.92535C42.0085 1.92535 41.4261 1.84626 40.9881 2.1068C40.5641 2.36268 40.2938 2.95353 40.2938 2.95353C40.2938 2.95353 39.045 6.28465 37.3769 9.11796C33.8636 15.0963 32.4564 15.408 31.8786 15.0358C30.5413 14.1705 30.8768 11.5605 30.8768 9.70416C30.8768 3.91193 31.7528 1.49733 29.1667 0.87391C28.3047 0.664552 27.6756 0.529633 25.481 0.506371C22.6666 0.478456 20.2762 0.515676 18.9296 1.17632C18.0303 1.61829 17.336 2.59995 17.76 2.65578C18.2819 2.72557 19.4654 2.97214 20.0898 3.82818C20.9006 4.9308 20.8726 7.40588 20.8726 7.40588C20.8726 7.40588 21.3386 14.2216 19.7869 15.073C18.7199 15.6546 17.2614 14.4682 14.1255 9.04352C12.5226 6.26604 11.3065 3.19546 11.3065 3.19546C11.3065 3.19546 11.0735 2.62321 10.6588 2.32081C10.1509 1.94861 9.44263 1.8323 9.44263 1.8323L1.94069 1.87883C1.94069 1.87883 0.813066 1.9114 0.403022 2.3999C0.0349143 2.83722 0.375065 3.73979 0.375065 3.73979C0.375065 3.73979 6.25081 17.4969 12.9001 24.4337C18.9995 30.7935 25.9283 30.3748 25.9283 30.3748H25.919Z" fill="#1C1C19"/>
</svg>
