<?xml version="1.0" standalone="no"?>
  <!DOCTYPE svg PUBLIC "-//W3C//DTD SVG 1.1//EN" "http://www.w3.org/Graphics/SVG/1.1/DTD/svg11.dtd" >
  <svg>
  <metadata>
  Created by font-carrier
  </metadata>
  <defs>
  <font id="ValueSansPro-Regular" horiz-adv-x="1172" vert-adv-y="1172" >
    <font-face
      
      font-family="Value Sans Pro"
      
      font-weight="400"
      
      font-stretch="normal"
      
      units-per-em="1000"
      
      ascent="774"
      
      descent="-226"
      
    />
      <missing-glyph />

      

      
      <glyph glyph-name="uni21" unicode="&#x21;" d="M71 700L151 700L151 200L71 200L71 700M110-14Q87-14 70.50 2.50Q54 19 54 42Q54 66 70.50 83Q87 100 110 100Q134 100 151 83Q168 66 168 42Q168 19 151 2.50Q134-14 110-14Z"  horiz-adv-x="222" vert-adv-y="1000"  />

      
      <glyph glyph-name="uni22" unicode="&#x22;" d="M40 700L138 700L116 480L62 480L40 700M200 700L298 700L276 480L222 480L200 700Z"  horiz-adv-x="338" vert-adv-y="1000"  />

      
      <glyph glyph-name="uni23" unicode="&#x23;" d="M152 199L30 199L45 267L165 267L196 433L70 433L85 501L208 501L245 700L319 700L282 501L457 501L494 700L568 700L531 501L653 501L638 433L518 433L487 267L613 267L598 199L475 199L438 0L364 0L401 199L226 199L189 0L115 0L152 199M413 267L444 433L270 433L239 267L413 267Z"  horiz-adv-x="683" vert-adv-y="1000"  />

      
      <glyph glyph-name="uni24" unicode="&#x24;" d="M475 196Q475 117 424.50 59.50Q374 2 293-11L293-76L235-76L235-14Q128-8 52 66L58 170L68 170Q104 125 144 96Q184 67 235 63L235 339Q155 374 108 425.50Q61 477 61 543Q61 614 110.50 660Q160 706 235 713L235 776L293 776L293 712Q332 708 365.50 693.50Q399 679 423 658L427 562L414 562Q361 624 293 638L293 402Q381 364 428 314Q475 264 475 196M141 546Q141 511 165 483Q189 455 235 430L235 641Q193 635 167 609Q141 583 141 546M293 66Q336 76 360.50 107.50Q385 139 385 184Q385 225 361.50 255Q338 285 293 311L293 66Z"  horiz-adv-x="517" vert-adv-y="1000"  />

      
      <glyph glyph-name="uni25" unicode="&#x25;" d="M202 398Q158 398 120.50 418.50Q83 439 61.50 475.50Q40 512 40 556Q40 600 61.50 636.50Q83 673 120.50 693.50Q158 714 202 714Q246 714 283.50 693.50Q321 673 342.50 636.50Q364 600 364 556Q364 512 342.50 475.50Q321 439 283.50 418.50Q246 398 202 398M202 456Q244 456 272 483.50Q300 511 300 556Q300 601 272 628.50Q244 656 202 656Q160 656 132 628.50Q104 601 104 556Q104 511 132 483.50Q160 456 202 456M148 157L481 569L523 532L192 122L148 157M492-14Q448-14 410.50 6.50Q373 27 351.50 63.50Q330 100 330 144Q330 188 351.50 224.50Q373 261 410.50 281.50Q448 302 492 302Q536 302 573.50 281.50Q611 261 632.50 224.50Q654 188 654 144Q654 100 632.50 63.50Q611 27 573.50 6.50Q536-14 492-14M492 44Q534 44 562 71.50Q590 99 590 144Q590 189 562 216.50Q534 244 492 244Q450 244 422 216.50Q394 189 394 144Q394 99 422 71.50Q450 44 492 44Z"  horiz-adv-x="694" vert-adv-y="1000"  />

      
      <glyph glyph-name="uni26" unicode="&#x26;" d="M248-14Q188-14 140.50 12Q93 38 65.50 84Q38 130 38 189Q38 247 74.50 300.50Q111 354 186 394Q153 436 136 473Q119 510 119 547Q119 599 144.50 637Q170 675 211 694.50Q252 714 297 714Q345 714 384.50 694Q424 674 447 639.50Q470 605 470 565Q470 448 308 371L456 191Q500 253 529 337L537 337L561 239Q537 178 504 132L613 0L512 0L452 72Q361-14 248-14M261 429Q335 461 362.50 491.50Q390 522 390 558Q390 594 364 618Q338 642 297 642Q256 642 229.50 615.50Q203 589 203 547Q203 521 217.50 492.50Q232 464 261 429M259 62Q334 62 405 130L234 336Q180 309 154 271.50Q128 234 128 193Q128 134 164.50 98Q201 62 259 62Z"  horiz-adv-x="633" vert-adv-y="1000"  />

      
      <glyph glyph-name="uni27" unicode="&#x27;" d="M40 700L138 700L116 480L62 480L40 700Z"  horiz-adv-x="178" vert-adv-y="1000"  />

      
      <glyph glyph-name="uni28" unicode="&#x28;" d="M202-226Q135-137 92.50-20.50Q50 96 50 237Q50 378 92.50 494.50Q135 611 202 700L271 700Q205 590 167.50 476Q130 362 130 237Q130 112 167.50-2Q205-116 271-226L202-226Z"  horiz-adv-x="291" vert-adv-y="1000"  />

      
      <glyph glyph-name="uni29" unicode="&#x29;" d="M20-226Q86-116 123.50-2Q161 112 161 237Q161 362 123.50 476Q86 590 20 700L89 700Q156 611 198.50 494.50Q241 378 241 237Q241 96 198.50-20.50Q156-137 89-226L20-226Z"  horiz-adv-x="291" vert-adv-y="1000"  />

      
      <glyph glyph-name="uni2a" unicode="&#x2a;" d="M149 410L177 530L86 446L78 449L44 507L46 516L164 552L46 588L44 597L78 655L86 658L177 574L149 694L155 700L223 700L229 694L201 574L292 658L300 655L334 597L332 588L214 552L332 516L334 507L300 449L292 446L201 530L229 410L223 404L155 404L149 410Z"  horiz-adv-x="378" vert-adv-y="1000"  />

      
      <glyph glyph-name="uni2b" unicode="&#x2b;" d="M208 274L42 274L42 340L208 340L208 506L274 506L274 340L440 340L440 274L274 274L274 108L208 108L208 274Z"  horiz-adv-x="482" vert-adv-y="1000"  />

      
      <glyph glyph-name="uni2c" unicode="&#x2c;" d="M52-97Q97-67 100-14Q78-14 61 2Q44 18 44 41Q44 66 60 83Q76 100 100 100Q125 100 141.50 81.50Q158 63 158 33Q158-14 130-53.50Q102-93 59-116L52-97Z"  horiz-adv-x="202" vert-adv-y="1000"  />

      
      <glyph glyph-name="uni2d" unicode="&#x2d;" d="M42 350L350 350L350 284L42 284L42 350Z"  horiz-adv-x="392" vert-adv-y="1000"  />

      
      <glyph glyph-name="uni2e" unicode="&#x2e;" d="M100-14Q77-14 60.50 2.50Q44 19 44 42Q44 66 60.50 83Q77 100 100 100Q124 100 141 83Q158 66 158 42Q158 19 141 2.50Q124-14 100-14Z"  horiz-adv-x="202" vert-adv-y="1000"  />

      
      <glyph glyph-name="uni2f" unicode="&#x2f;" d="M414 700L500 700L101 0L15 0L414 700Z"  horiz-adv-x="515" vert-adv-y="1000"  />

      
      <glyph glyph-name="uni30" unicode="&#x30;" d="M338-14Q247-14 179.50 33Q112 80 76 162.50Q40 245 40 350Q40 455 76 537.50Q112 620 179.50 667Q247 714 338 714Q429 714 496.50 667Q564 620 600 537.50Q636 455 636 350Q636 245 600 162.50Q564 80 496.50 33Q429-14 338-14M338 62Q398 62 445.50 96.50Q493 131 519.50 196Q546 261 546 350Q546 439 519.50 504Q493 569 445.50 603.50Q398 638 338 638Q278 638 230.50 603.50Q183 569 156.50 504Q130 439 130 350Q130 261 156.50 196Q183 131 230.50 96.50Q278 62 338 62Z"  horiz-adv-x="676" vert-adv-y="1000"  />

      
      <glyph glyph-name="uni31" unicode="&#x31;" d="M70 653L139 700L160 700L160 0L70 0L70 653Z"  horiz-adv-x="230" vert-adv-y="1000"  />

      
      <glyph glyph-name="uni32" unicode="&#x32;" d="M38 10L312 344Q351 393 368.50 431.50Q386 470 386 515Q386 572 348.50 605Q311 638 255 638Q202 638 155 609Q108 580 78 531L69 531L75 635Q111 671 159 692.50Q207 714 257 714Q320 714 369 688.50Q418 663 445 618.50Q472 574 472 520Q472 462 446.50 410.50Q421 359 378 306L189 76L501 76L501 0L38 0L38 10Z"  horiz-adv-x="551" vert-adv-y="1000"  />

      
      <glyph glyph-name="uni33" unicode="&#x33;" d="M257-14Q203-14 161.50-1.50Q120 11 80 33L69 128L77 128Q162 62 261 62Q335 62 381.50 107.50Q428 153 428 226Q428 305 380.50 348.50Q333 392 258 392Q215 392 173 382L164 400L333 624L58 624L58 700L480 700L480 690L301 459Q392 447 453 390.50Q514 334 514 233Q514 159 481.50 103Q449 47 391 16.50Q333-14 257-14Z"  horiz-adv-x="568" vert-adv-y="1000"  />

      
      <glyph glyph-name="uni34" unicode="&#x34;" d="M342 174L20 174L20 214L411 700L432 700L432 250L510 250L510 174L432 174L432 0L342 0L342 174M342 250L342 496L143 250L342 250Z"  horiz-adv-x="550" vert-adv-y="1000"  />

      
      <glyph glyph-name="uni35" unicode="&#x35;" d="M236-14Q187-14 147.50-4Q108 6 59 28L40 127L48 127Q91 94 136.50 78Q182 62 237 62Q282 62 321 82Q360 102 384.50 141Q409 180 409 235Q409 317 359.50 362Q310 407 237 407Q194 407 149 390Q104 373 62 344L45 347L88 700L461 700L461 624L154 624L129 442Q193 473 261 473Q327 473 380.50 444.50Q434 416 464.50 362Q495 308 495 235Q495 162 461.50 105.50Q428 49 369 17.50Q310-14 236-14Z"  horiz-adv-x="535" vert-adv-y="1000"  />

      
      <glyph glyph-name="uni36" unicode="&#x36;" d="M305-14Q221-14 163.50 28.50Q106 71 77 145.50Q48 220 48 316Q48 422 82 513Q116 604 183.50 659Q251 714 347 714Q383 714 413.50 706.50Q444 699 474 682L483 592L471 592Q437 618 408.50 628Q380 638 347 638Q257 638 202.50 569Q148 500 138 370Q173 411 223.50 432.50Q274 454 323 454Q391 454 442.50 424.50Q494 395 522 342.50Q550 290 550 222Q550 160 517 105.50Q484 51 428 18.50Q372-14 305-14M304 62Q374 62 417 107.50Q460 153 460 222Q460 291 417 336.50Q374 382 304 382Q258 382 222 361Q186 340 166 303.50Q146 267 146 222Q146 177 166 140.50Q186 104 222 83Q258 62 304 62Z"  horiz-adv-x="594" vert-adv-y="1000"  />

      
      <glyph glyph-name="uni37" unicode="&#x37;" d="M400 624L54 624L54 700L519 700L519 690L172 0L82 0L400 624Z"  horiz-adv-x="539" vert-adv-y="1000"  />

      
      <glyph glyph-name="uni38" unicode="&#x38;" d="M279-14Q207-14 155 18Q103 50 76.50 99.50Q50 149 50 200Q50 262 81 310.50Q112 359 162 385Q79 441 79 530Q79 582 104.50 624Q130 666 175.50 690Q221 714 279 714Q337 714 382.50 690Q428 666 453.50 624Q479 582 479 530Q479 441 396 385Q446 359 477 310.50Q508 262 508 200Q508 149 481.50 99.50Q455 50 403 18Q351-14 279-14M279 418Q330 418 364.50 449.50Q399 481 399 530Q399 579 364.50 610.50Q330 642 279 642Q228 642 193.50 610.50Q159 579 159 530Q159 481 193.50 449.50Q228 418 279 418M279 62Q318 62 350.50 79.50Q383 97 402.50 129.50Q422 162 422 204Q422 246 402.50 278.50Q383 311 350.50 328.50Q318 346 279 346Q240 346 207.50 328.50Q175 311 155.50 278.50Q136 246 136 204Q136 162 155.50 129.50Q175 97 207.50 79.50Q240 62 279 62Z"  horiz-adv-x="558" vert-adv-y="1000"  />

      
      <glyph glyph-name="uni39" unicode="&#x39;" d="M247-14Q211-14 180.50-6.50Q150 1 120 18L111 108L123 108Q157 82 185.50 72Q214 62 247 62Q337 62 391.50 131Q446 200 456 330Q386 246 271 246Q205 246 153.50 275.50Q102 305 73 357.50Q44 410 44 478Q44 541 76 595Q108 649 164.50 681.50Q221 714 289 714Q415 714 480.50 623.50Q546 533 546 384Q546 278 512 187Q478 96 410.50 41Q343-14 247-14M290 318Q336 318 372 339Q408 360 428 396.50Q448 433 448 478Q448 523 428 559.50Q408 596 372 617Q336 638 290 638Q220 638 177 592.50Q134 547 134 478Q134 409 177 363.50Q220 318 290 318Z"  horiz-adv-x="594" vert-adv-y="1000"  />

      
      <glyph glyph-name="uni3a" unicode="&#x3a;" d="M100 362Q77 362 60.50 378.50Q44 395 44 418Q44 442 60.50 459Q77 476 100 476Q124 476 141 459Q158 442 158 418Q158 395 141 378.50Q124 362 100 362M100-14Q77-14 60.50 2.50Q44 19 44 42Q44 66 60.50 83Q77 100 100 100Q124 100 141 83Q158 66 158 42Q158 19 141 2.50Q124-14 100-14Z"  horiz-adv-x="202" vert-adv-y="1000"  />

      
      <glyph glyph-name="uni3b" unicode="&#x3b;" d="M100 362Q77 362 60.50 378.50Q44 395 44 418Q44 442 60.50 459Q77 476 100 476Q124 476 141 459Q158 442 158 418Q158 395 141 378.50Q124 362 100 362M52-98Q97-68 100-15Q78-15 61 1Q44 17 44 40Q44 65 60 82Q76 99 100 99Q125 99 141.50 81.50Q158 64 158 39Q158-13 130.50-53.50Q103-94 59-117L52-98Z"  horiz-adv-x="202" vert-adv-y="1000"  />

      
      <glyph glyph-name="uni3c" unicode="&#x3c;" d="M48 270L48 340L350 554L360 554L360 473L121 305L360 137L360 56L350 56L48 270Z"  horiz-adv-x="408" vert-adv-y="1000"  />

      
      <glyph glyph-name="uni3d" unicode="&#x3d;" d="M48 440L446 440L446 374L48 374L48 440M48 220L446 220L446 154L48 154L48 220Z"  horiz-adv-x="494" vert-adv-y="1000"  />

      
      <glyph glyph-name="uni3e" unicode="&#x3e;" d="M48 137L287 305L48 473L48 554L58 554L360 340L360 270L58 56L48 56L48 137Z"  horiz-adv-x="408" vert-adv-y="1000"  />

      
      <glyph glyph-name="uni3f" unicode="&#x3f;" d="M163 239Q163 291 184 327Q205 363 246 408Q282 447 300 476Q318 505 318 544Q318 591 286.50 619.50Q255 648 202 648Q157 648 115.50 623.50Q74 599 49 568L40 568L46 654Q75 679 119.50 696.50Q164 714 206 714Q290 714 344 670Q398 626 398 552Q398 497 376.50 460.50Q355 424 312 378Q277 341 260 314Q243 287 243 251L243 200L163 200L163 239M204-14Q181-14 164.50 2.50Q148 19 148 42Q148 66 164.50 83Q181 100 204 100Q228 100 245 83Q262 66 262 42Q262 19 245 2.50Q228-14 204-14Z"  horiz-adv-x="438" vert-adv-y="1000"  />

      
      <glyph glyph-name="uni40" unicode="&#x40;" d="M438-85Q324-85 233-33.50Q142 18 91 109.50Q40 201 40 315Q40 428 94 519Q148 610 239.50 662Q331 714 438 714Q546 714 634 665.50Q722 617 772 531.50Q822 446 822 341Q822 275 801 227.50Q780 180 744 155Q708 130 666 130Q624 130 595 151.50Q566 173 553 208Q493 130 407 130Q362 130 321 153Q280 176 255 219Q230 262 230 319Q230 376 256 419Q282 462 324 485Q366 508 413 508Q447 508 480 492.50Q513 477 534 452L534 498L601 498L601 292Q601 240 619.50 214Q638 188 671 188Q693 188 712 206.50Q731 225 742.50 258Q754 291 754 333Q754 433 709.50 504.50Q665 576 592.50 612Q520 648 438 648Q357 648 283 608Q209 568 162.50 492.50Q116 417 116 315Q116 212 160.50 136.50Q205 61 278.50 21Q352-19 438-19Q541-19 621 40L630 40L626-34Q539-85 438-85M417 188Q470 188 503.50 224.50Q537 261 537 319Q537 377 503.50 413.50Q470 450 417 450Q364 450 331 413.50Q298 377 298 319Q298 261 331 224.50Q364 188 417 188Z"  horiz-adv-x="862" vert-adv-y="1000"  />

      
      <glyph glyph-name="uni41" unicode="&#x41;" d="M324 700L350 700L654 0L564 0L504 142L170 142L110 0L20 0L324 700M471 218L337 532L203 218L471 218Z"  horiz-adv-x="674" vert-adv-y="1000"  />

      
      <glyph glyph-name="uni42" unicode="&#x42;" d="M70 700L297 700Q366 700 417 677.50Q468 655 495.50 616Q523 577 523 527Q523 417 421 368Q484 349 521.50 305Q559 261 559 198Q559 133 525.50 88.50Q492 44 438 22Q384 0 324 0L70 0L70 700M302 398Q364 398 399 429Q434 460 434 511Q434 562 399 593Q364 624 302 624L160 624L160 398L302 398M321 76Q391 76 430 109.50Q469 143 469 199Q469 255 430 288.50Q391 322 321 322L160 322L160 76L321 76Z"  horiz-adv-x="591" vert-adv-y="1000"  />

      
      <glyph glyph-name="uni43" unicode="&#x43;" d="M396-14Q297-14 215.50 33Q134 80 87 163Q40 246 40 350Q40 454 88 537Q136 620 218 667Q300 714 399 714Q515 714 603 654L609 555L599 555Q556 595 507 616.50Q458 638 395 638Q324 638 263 603Q202 568 166 502.50Q130 437 130 350Q130 263 166 197.50Q202 132 263 97Q324 62 395 62Q458 62 507 83.50Q556 105 599 145L609 145L603 46Q515-14 396-14Z"  horiz-adv-x="663" vert-adv-y="1000"  />

      
      <glyph glyph-name="uni44" unicode="&#x44;" d="M70 700L226 700Q323 700 405 657.50Q487 615 536 535.50Q585 456 585 350Q585 244 536 164.50Q487 85 405 42.50Q323 0 226 0L70 0L70 700M228 76Q303 76 363.50 108Q424 140 459.50 202Q495 264 495 350Q495 436 459.50 498Q424 560 363.50 592Q303 624 228 624L160 624L160 76L228 76Z"  horiz-adv-x="625" vert-adv-y="1000"  />

      
      <glyph glyph-name="uni45" unicode="&#x45;" d="M70 700L470 700L470 624L160 624L160 398L459 398L459 322L160 322L160 76L474 76L474 0L70 0L70 700Z"  horiz-adv-x="518" vert-adv-y="1000"  />

      
      <glyph glyph-name="uni46" unicode="&#x46;" d="M70 700L486 700L486 624L160 624L160 373L475 373L475 297L160 297L160 0L70 0L70 700Z"  horiz-adv-x="540" vert-adv-y="1000"  />

      
      <glyph glyph-name="uni47" unicode="&#x47;" d="M394-14Q297-14 216 32Q135 78 87.50 161Q40 244 40 350Q40 456 90 539Q140 622 224.50 668Q309 714 408 714Q542 714 632 649L638 557L626 557Q570 602 519.50 620Q469 638 409 638Q338 638 274 605Q210 572 170 507Q130 442 130 350Q130 258 167.50 193Q205 128 266 95Q327 62 397 62Q448 62 498 81Q548 100 588 139L588 316L366 316L366 392L678 392L678 111Q553-14 394-14Z"  horiz-adv-x="732" vert-adv-y="1000"  />

      
      <glyph glyph-name="uni48" unicode="&#x48;" d="M70 700L160 700L160 407L490 407L490 700L580 700L580 0L490 0L490 331L160 331L160 0L70 0L70 700Z"  horiz-adv-x="650" vert-adv-y="1000"  />

      
      <glyph glyph-name="uni49" unicode="&#x49;" d="M70 700L160 700L160 0L70 0L70 700Z"  horiz-adv-x="230" vert-adv-y="1000"  />

      
      <glyph glyph-name="uni4a" unicode="&#x4a;" d="M149-14Q123-14 103.50-11Q84-8 55 0L46 85L59 85Q103 62 142 62Q224 62 224 155L224 700L314 700L314 165Q314 84 271 35Q228-14 149-14Z"  horiz-adv-x="384" vert-adv-y="1000"  />

      
      <glyph glyph-name="uni4b" unicode="&#x4b;" d="M70 700L160 700L160 359L425 700L530 700L256 356L554 0L449 0L160 345L160 0L70 0L70 700Z"  horiz-adv-x="566" vert-adv-y="1000"  />

      
      <glyph glyph-name="uni4c" unicode="&#x4c;" d="M70 700L160 700L160 76L520 76L520 0L70 0L70 700Z"  horiz-adv-x="560" vert-adv-y="1000"  />

      
      <glyph glyph-name="uni4d" unicode="&#x4d;" d="M206 700L236 700L439 188L642 700L672 700L854 0L764 0L643 469L449 0L429 0L235 469L114 0L24 0L206 700Z"  horiz-adv-x="878" vert-adv-y="1000"  />

      
      <glyph glyph-name="uni4e" unicode="&#x4e;" d="M70 700L104 700L515 202L515 700L605 700L605 0L571 0L160 500L160 0L70 0L70 700Z"  horiz-adv-x="675" vert-adv-y="1000"  />

      
      <glyph glyph-name="uni4f" unicode="&#x4f;" d="M405-14Q304-14 220.50 33.50Q137 81 88.50 164Q40 247 40 350Q40 453 88.50 536Q137 619 220.50 666.50Q304 714 405 714Q506 714 589.50 666.50Q673 619 721.50 536Q770 453 770 350Q770 247 721.50 164Q673 81 589.50 33.50Q506-14 405-14M405 62Q482 62 544.50 97Q607 132 643.50 197Q680 262 680 350Q680 438 643.50 503Q607 568 544.50 603Q482 638 405 638Q328 638 265.50 603Q203 568 166.50 503Q130 438 130 350Q130 262 166.50 197Q203 132 265.50 97Q328 62 405 62Z"  horiz-adv-x="810" vert-adv-y="1000"  />

      
      <glyph glyph-name="uni50" unicode="&#x50;" d="M70 700L248 700Q325 700 380.50 671Q436 642 464.50 593.50Q493 545 493 488Q493 431 464.50 382.50Q436 334 380.50 305Q325 276 248 276L160 276L160 0L70 0L70 700M249 352Q319 352 361 386.50Q403 421 403 488Q403 555 361 589.50Q319 624 249 624L160 624L160 352L249 352Z"  horiz-adv-x="527" vert-adv-y="1000"  />

      
      <glyph glyph-name="uni51" unicode="&#x51;" d="M629 58Q532-14 405-14Q304-14 220.50 33.50Q137 81 88.50 164Q40 247 40 350Q40 453 88.50 536Q137 619 220.50 666.50Q304 714 405 714Q506 714 589.50 666.50Q673 619 721.50 536Q770 453 770 350Q770 282 748 221.50Q726 161 686 114L780 20L725-37L629 58M405 62Q502 62 573 115L479 210L535 266L628 172Q680 248 680 350Q680 438 643.50 503Q607 568 544.50 603Q482 638 405 638Q328 638 265.50 603Q203 568 166.50 503Q130 438 130 350Q130 262 166.50 197Q203 132 265.50 97Q328 62 405 62Z"  horiz-adv-x="810" vert-adv-y="1000"  />

      
      <glyph glyph-name="uni52" unicode="&#x52;" d="M70 700L255 700Q323 700 376.50 676.50Q430 653 460 608.50Q490 564 490 504Q490 434 447 387Q404 340 340 320L533 0L437 0L251 308L160 308L160 0L70 0L70 700M257 384Q326 384 363 415Q400 446 400 504Q400 562 363 593Q326 624 257 624L160 624L160 384L257 384Z"  horiz-adv-x="553" vert-adv-y="1000"  />

      
      <glyph glyph-name="uni53" unicode="&#x53;" d="M252-14Q134-14 52 66L58 170L68 170Q107 121 150.50 91.50Q194 62 252 62Q314 62 349.50 95.50Q385 129 385 184Q385 236 347.50 271.50Q310 307 236 339Q156 373 108.50 425Q61 477 61 543Q61 594 88 633Q115 672 160.50 693Q206 714 260 714Q310 714 352 698.50Q394 683 423 658L427 562L414 562Q380 602 340 622Q300 642 257 642Q206 642 173.50 614.50Q141 587 141 546Q141 502 179.50 468Q218 434 291 403Q380 365 427.50 314.50Q475 264 475 196Q475 137 446.50 89Q418 41 367 13.50Q316-14 252-14Z"  horiz-adv-x="517" vert-adv-y="1000"  />

      
      <glyph glyph-name="uni54" unicode="&#x54;" d="M224 624L40 624L40 700L498 700L498 624L314 624L314 0L224 0L224 624Z"  horiz-adv-x="538" vert-adv-y="1000"  />

      
      <glyph glyph-name="uni55" unicode="&#x55;" d="M319-14Q243-14 184.50 18Q126 50 93 112Q60 174 60 261L60 700L150 700L150 246Q150 183 174 141.50Q198 100 236.50 81Q275 62 319 62Q363 62 401.50 81Q440 100 464 141.50Q488 183 488 246L488 700L578 700L578 261Q578 174 545 112Q512 50 453.50 18Q395-14 319-14Z"  horiz-adv-x="638" vert-adv-y="1000"  />

      
      <glyph glyph-name="uni56" unicode="&#x56;" d="M15 700L105 700L342 151L579 700L669 700L361 0L323 0L15 700Z"  horiz-adv-x="684" vert-adv-y="1000"  />

      
      <glyph glyph-name="uni57" unicode="&#x57;" d="M22 700L112 700L269 206L458 700L486 700L675 206L832 700L922 700L688 0L666 0L472 513L278 0L256 0L22 700Z"  horiz-adv-x="944" vert-adv-y="1000"  />

      
      <glyph glyph-name="uni58" unicode="&#x58;" d="M249 380L55 700L147 700L295 449L443 700L535 700L341 380L568 0L476 0L295 306L114 0L22 0L249 380Z"  horiz-adv-x="590" vert-adv-y="1000"  />

      
      <glyph glyph-name="uni59" unicode="&#x59;" d="M248 304L14 700L110 700L293 382L476 700L572 700L338 304L338 0L248 0L248 304Z"  horiz-adv-x="586" vert-adv-y="1000"  />

      
      <glyph glyph-name="uni5a" unicode="&#x5a;" d="M28 10L408 624L58 624L58 700L544 700L544 690L160 76L560 76L560 0L28 0L28 10Z"  horiz-adv-x="596" vert-adv-y="1000"  />

      
      <glyph glyph-name="uni5b" unicode="&#x5b;" d="M60 700L238 700L238 624L140 624L140-150L238-150L238-226L60-226L60 700Z"  horiz-adv-x="273" vert-adv-y="1000"  />

      
      <glyph glyph-name="uni5c" unicode="&#x5c;" d="M15 700L101 700L500 0L414 0L15 700Z"  horiz-adv-x="515" vert-adv-y="1000"  />

      
      <glyph glyph-name="uni5d" unicode="&#x5d;" d="M35-150L133-150L133 624L35 624L35 700L213 700L213-226L35-226L35-150Z"  horiz-adv-x="273" vert-adv-y="1000"  />

      
      <glyph glyph-name="uni5e" unicode="&#x5e;" d="M35 406L226 700L278 700L469 406L469 396L395 396L252 614L109 396L35 396L35 406Z"  horiz-adv-x="504" vert-adv-y="1000"  />

      
      <glyph glyph-name="uni5f" unicode="&#x5f;" d="M22 0L480 0L480-66L22-66L22 0Z"  horiz-adv-x="502" vert-adv-y="1000"  />

      
      <glyph glyph-name="uni60" unicode="&#x60;" d="M30 700L148 700L240 563L172 563L30 700Z"  horiz-adv-x="270" vert-adv-y="1000"  />

      
      <glyph glyph-name="uni61" unicode="&#x61;" d="M296-14Q224-14 165 21Q106 56 72 116Q38 176 38 247Q38 318 72 378Q106 438 165 473Q224 508 296 508Q351 508 396 486.50Q441 465 469 432L469 494L549 494L549 0L469 0L469 62Q441 29 396 7.50Q351-14 296-14M296 58Q349 58 389.50 83.50Q430 109 452 152Q474 195 474 247Q474 299 452 342Q430 385 389.50 410.50Q349 436 296 436Q243 436 202.50 410.50Q162 385 140 342Q118 299 118 247Q118 195 140 152Q162 109 202.50 83.50Q243 58 296 58Z"  horiz-adv-x="613" vert-adv-y="1000"  />

      
      <glyph glyph-name="uni62" unicode="&#x62;" d="M325-14Q268-14 221.50 8.50Q175 31 144 67L144 0L64 0L64 720L144 720L144 422Q176 458 224.50 483Q273 508 330 508Q398 508 455 474.50Q512 441 545.50 381.50Q579 322 579 247Q579 172 545 112.50Q511 53 453 19.50Q395-14 325-14M319 58Q372 58 413 83.50Q454 109 476.50 152Q499 195 499 247Q499 299 476.50 342Q454 385 413 410.50Q372 436 319 436Q266 436 225 410.50Q184 385 161.50 342Q139 299 139 247Q139 195 161.50 152Q184 109 225 83.50Q266 58 319 58Z"  horiz-adv-x="617" vert-adv-y="1000"  />

      
      <glyph glyph-name="uni63" unicode="&#x63;" d="M296-14Q225-14 166.50 18Q108 50 73 109Q38 168 38 247Q38 325 73.50 384.50Q109 444 168 476Q227 508 296 508Q339 508 376 496Q413 484 439 464L442 384L433 384Q401 412 369.50 424Q338 436 296 436Q244 436 203.50 411.50Q163 387 140.50 344Q118 301 118 247Q118 163 165.50 110.50Q213 58 296 58Q337 58 367.50 70Q398 82 431 110L440 110L437 30Q383-14 296-14Z"  horiz-adv-x="492" vert-adv-y="1000"  />

      
      <glyph glyph-name="uni64" unicode="&#x64;" d="M292-14Q222-14 164 20Q106 54 72 114Q38 174 38 247Q38 320 72 380Q106 440 165.50 474Q225 508 298 508Q352 508 399 485.50Q446 463 473 429L473 720L553 720L553 0L473 0L473 67Q441 30 395.50 8Q350-14 292-14M298 58Q351 58 392 83.50Q433 109 455.50 152Q478 195 478 247Q478 299 455.50 342Q433 385 392 410.50Q351 436 298 436Q245 436 204 410.50Q163 385 140.50 342Q118 299 118 247Q118 195 140.50 152Q163 109 204 83.50Q245 58 298 58Z"  horiz-adv-x="617" vert-adv-y="1000"  />

      
      <glyph glyph-name="uni65" unicode="&#x65;" d="M296-14Q224-14 165 20.50Q106 55 72 115Q38 175 38 247Q38 320 71.50 379.50Q105 439 161.50 473.50Q218 508 284 508Q353 508 407.50 478Q462 448 492.50 393.50Q523 339 523 266L523 226L118 226Q122 173 148.50 135Q175 97 214 77.50Q253 58 295 58Q348 58 389.50 75.50Q431 93 480 138L488 138L485 51Q441 18 396 2Q351-14 296-14M450 292Q442 359 397 400.50Q352 442 284 442Q227 442 180.50 402.50Q134 363 122 292L450 292Z"  horiz-adv-x="565" vert-adv-y="1000"  />

      
      <glyph glyph-name="uni66" unicode="&#x66;" d="M109 422L44 422L44 494L109 494L109 568Q109 609 127 642.50Q145 676 176 695Q207 714 244 714Q269 714 287.50 709Q306 704 327 693L330 616L322 616Q309 629 291 635.50Q273 642 258 642Q225 642 207 621.50Q189 601 189 563L189 494L277 494L277 422L189 422L189 0L109 0L109 422Z"  horiz-adv-x="346" vert-adv-y="1000"  />

      
      <glyph glyph-name="uni67" unicode="&#x67;" d="M280-240Q195-240 124-197L121-117L134-117Q168-142 204-155Q240-168 291-168Q367-168 414.50-124Q462-80 462 2L462 78Q431 39 385 19.50Q339 0 286 0Q219 0 162 31Q105 62 71.50 120Q38 178 38 254Q38 330 73 387.50Q108 445 166 476.50Q224 508 291 508Q345 508 390.50 487.50Q436 467 462 433L462 494L542 494L542 45Q542-103 473-171.50Q404-240 280-240M294 72Q350 72 389.50 97Q429 122 449.50 164Q470 206 470 254Q470 302 449.50 344Q429 386 389.50 411Q350 436 294 436Q238 436 198.50 411Q159 386 138.50 344Q118 302 118 254Q118 206 138.50 164Q159 122 198.50 97Q238 72 294 72Z"  horiz-adv-x="606" vert-adv-y="1000"  />

      
      <glyph glyph-name="uni68" unicode="&#x68;" d="M64 720L144 720L144 418Q171 457 219.50 482.50Q268 508 319 508Q399 508 448 461.50Q497 415 497 335L497 0L417 0L417 318Q417 372 382.50 404Q348 436 294 436Q253 436 219 415Q185 394 164.50 357Q144 320 144 275L144 0L64 0L64 720Z"  horiz-adv-x="555" vert-adv-y="1000"  />

      
      <glyph glyph-name="uni69" unicode="&#x69;" d="M104 588Q81 588 64.50 604.50Q48 621 48 644Q48 667 64.50 683.50Q81 700 104 700Q127 700 143.50 683.50Q160 667 160 644Q160 621 143.50 604.50Q127 588 104 588M64 494L144 494L144 0L64 0L64 494Z"  horiz-adv-x="208" vert-adv-y="1000"  />

      
      <glyph glyph-name="uni6a" unicode="&#x6a;" d="M116 588Q94 588 77.50 604.50Q61 621 61 643Q61 666 77.50 683Q94 700 116 700Q139 700 156 683Q173 666 173 643Q173 621 156 604.50Q139 588 116 588M29-240Q-10-240-38-223L-46-149L-36-149Q-21-159-9.50-163.50Q2-168 17-168Q77-168 77-96L77 494L157 494L157-81Q157-158 124.50-199Q92-240 29-240Z"  horiz-adv-x="225" vert-adv-y="1000"  />

      
      <glyph glyph-name="uni6b" unicode="&#x6b;" d="M64 720L144 720L144 273L341 494L437 494L228 262L441 0L345 0L144 247L144 0L64 0L64 720Z"  horiz-adv-x="457" vert-adv-y="1000"  />

      
      <glyph glyph-name="uni6c" unicode="&#x6c;" d="M64 720L144 720L144 0L64 0L64 720Z"  horiz-adv-x="208" vert-adv-y="1000"  />

      
      <glyph glyph-name="uni6d" unicode="&#x6d;" d="M64 494L144 494L144 433Q167 468 204.50 488Q242 508 286 508Q377 508 413 427Q435 463 478 485.50Q521 508 565 508Q638 508 675.50 466Q713 424 713 351L713 0L633 0L633 340Q633 385 607 410.50Q581 436 537 436Q493 436 462 402.50Q431 369 431 316L431 0L351 0L351 339Q351 386 323 411Q295 436 254 436Q205 436 174.50 397Q144 358 144 291L144 0L64 0L64 494Z"  horiz-adv-x="771" vert-adv-y="1000"  />

      
      <glyph glyph-name="uni6e" unicode="&#x6e;" d="M64 494L144 494L144 420Q171 459 217 483.50Q263 508 315 508Q393 508 441 461Q489 414 489 335L489 0L409 0L409 318Q409 373 376.50 404.50Q344 436 290 436Q249 436 216 415Q183 394 163.50 357Q144 320 144 275L144 0L64 0L64 494Z"  horiz-adv-x="547" vert-adv-y="1000"  />

      
      <glyph glyph-name="uni6f" unicode="&#x6f;" d="M297-14Q225-14 166 19.50Q107 53 72.50 112.50Q38 172 38 247Q38 322 72.50 381.50Q107 441 166 474.50Q225 508 297 508Q369 508 428 474.50Q487 441 521.50 381.50Q556 322 556 247Q556 172 521.50 112.50Q487 53 428 19.50Q369-14 297-14M297 58Q348 58 388.50 82Q429 106 452.50 149Q476 192 476 247Q476 302 452.50 345Q429 388 388.50 412Q348 436 297 436Q246 436 205.50 412Q165 388 141.50 345Q118 302 118 247Q118 192 141.50 149Q165 106 205.50 82Q246 58 297 58Z"  horiz-adv-x="594" vert-adv-y="1000"  />

      
      <glyph glyph-name="uni70" unicode="&#x70;" d="M64 494L144 494L144 420Q178 458 224.50 483Q271 508 327 508Q397 508 454.50 474.50Q512 441 545.50 381.50Q579 322 579 247Q579 172 545.50 112.50Q512 53 455 19.50Q398-14 330-14Q271-14 222 10Q173 34 144 72L144-226L64-226L64 494M319 58Q370 58 411 83.50Q452 109 475.50 152.50Q499 196 499 247Q499 298 475.50 341.50Q452 385 411 410.50Q370 436 319 436Q268 436 227 410.50Q186 385 162.50 341.50Q139 298 139 247Q139 196 162.50 152.50Q186 109 227 83.50Q268 58 319 58Z"  horiz-adv-x="617" vert-adv-y="1000"  />

      
      <glyph glyph-name="uni71" unicode="&#x71;" d="M473 72Q441 33 393.50 9.50Q346-14 287-14Q219-14 162 19.50Q105 53 71.50 112.50Q38 172 38 247Q38 322 72.50 381.50Q107 441 165.50 474.50Q224 508 294 508Q351 508 399 483.50Q447 459 473 424L473 494L553 494L553-226L473-226L473 72M298 58Q349 58 390 83.50Q431 109 454.50 152.50Q478 196 478 247Q478 298 454.50 341.50Q431 385 390 410.50Q349 436 298 436Q247 436 206 410.50Q165 385 141.50 341.50Q118 298 118 247Q118 196 141.50 152.50Q165 109 206 83.50Q247 58 298 58Z"  horiz-adv-x="617" vert-adv-y="1000"  />

      
      <glyph glyph-name="uni72" unicode="&#x72;" d="M64 494L144 494L144 422Q169 464 207 486Q245 508 285 508Q329 508 361 485L366 404L357 404Q324 436 273 436Q221 436 182.50 398Q144 360 144 282L144 0L64 0L64 494Z"  horiz-adv-x="394" vert-adv-y="1000"  />

      
      <glyph glyph-name="uni73" unicode="&#x73;" d="M205-14Q116-14 40 36L59 112L65 112Q100 85 133.50 71.50Q167 58 206 58Q253 58 279.50 78.50Q306 99 306 132Q306 168 279.50 187Q253 206 191 227Q128 248 90.50 282.50Q53 317 53 375Q53 411 73 441.50Q93 472 130 490Q167 508 216 508Q288 508 351 470L354 392L347 392Q315 416 283.50 427Q252 438 214 438Q175 438 150 423Q125 408 125 377Q125 344 153 324Q181 304 242 283Q315 258 350.50 225Q386 192 386 136Q386 94 361.50 59.50Q337 25 295.50 5.50Q254-14 205-14Z"  horiz-adv-x="422" vert-adv-y="1000"  />

      
      <glyph glyph-name="uni74" unicode="&#x74;" d="M239-14Q180-14 145.50 21.50Q111 57 111 121L111 422L16 422L16 494L111 494L111 588L191 626L191 494L332 494L332 422L191 422L191 119Q191 89 210 73.50Q229 58 255 58Q273 58 290 64Q307 70 329 87L338 87L332 11Q305-3 286-8.50Q267-14 239-14Z"  horiz-adv-x="372" vert-adv-y="1000"  />

      
      <glyph glyph-name="uni75" unicode="&#x75;" d="M232-14Q154-14 106 33Q58 80 58 159L58 494L138 494L138 176Q138 121 170.50 89.50Q203 58 257 58Q298 58 331 79Q364 100 383.50 137Q403 174 403 219L403 494L483 494L483 0L403 0L403 74Q376 35 330 10.50Q284-14 232-14Z"  horiz-adv-x="547" vert-adv-y="1000"  />

      
      <glyph glyph-name="uni76" unicode="&#x76;" d="M18 494L108 494L265 158L422 494L512 494L271 0L259 0L18 494Z"  horiz-adv-x="530" vert-adv-y="1000"  />

      
      <glyph glyph-name="uni77" unicode="&#x77;" d="M16 494L100 494L240 164L371 494L395 494L526 164L666 494L750 494L535 0L513 0L383 338L253 0L231 0L16 494Z"  horiz-adv-x="766" vert-adv-y="1000"  />

      
      <glyph glyph-name="uni78" unicode="&#x78;" d="M189 255L34 494L123 494L233 315L342 494L428 494L279 257L437 0L351 0L231 192L112 0L24 0L189 255Z"  horiz-adv-x="461" vert-adv-y="1000"  />

      
      <glyph glyph-name="uni79" unicode="&#x79;" d="M206 89L14 494L100 494L248 177L401 494L487 494L139-226L54-226L206 89Z"  horiz-adv-x="501" vert-adv-y="1000"  />

      
      <glyph glyph-name="uni7a" unicode="&#x7a;" d="M34 10L301 422L53 422L53 494L426 494L426 484L162 72L433 72L433 0L34 0L34 10Z"  horiz-adv-x="475" vert-adv-y="1000"  />

      
      <glyph glyph-name="uni7b" unicode="&#x7b;" d="M218-226Q163-226 133-195.50Q103-165 103-113L103 144Q103 174 90 186.50Q77 199 51 199L30 199L30 275L51 275Q77 275 90 287.50Q103 300 103 330L103 587Q103 639 133 669.50Q163 700 218 700L281 700L281 624L226 624Q183 624 183 574L183 323Q183 252 117 237Q183 222 183 151L183-100Q183-150 226-150L281-150L281-226L218-226Z"  horiz-adv-x="316" vert-adv-y="1000"  />

      
      <glyph glyph-name="uni7c" unicode="&#x7c;" d="M70 700L150 700L150-226L70-226L70 700Z"  horiz-adv-x="220" vert-adv-y="1000"  />

      
      <glyph glyph-name="uni7d" unicode="&#x7d;" d="M35-150L90-150Q133-150 133-100L133 151Q133 222 199 237Q133 252 133 323L133 574Q133 624 90 624L35 624L35 700L98 700Q153 700 183 669.50Q213 639 213 587L213 330Q213 300 226 287.50Q239 275 265 275L286 275L286 199L265 199Q239 199 226 186.50Q213 174 213 144L213-113Q213-165 183-195.50Q153-226 98-226L35-226L35-150Z"  horiz-adv-x="316" vert-adv-y="1000"  />

      
      <glyph glyph-name="uni7e" unicode="&#x7e;" d="M331 269Q303 269 281 276.50Q259 284 228 300Q203 314 184 321Q165 328 143 328Q97 328 54 285L48 285L54 358Q96 400 149 400Q177 400 199 392.50Q221 385 252 369Q277 355 296 348Q315 341 337 341Q383 341 426 384L432 384L426 311Q384 269 331 269Z"  horiz-adv-x="480" vert-adv-y="1000"  />

      
      <glyph glyph-name="unia1" unicode="&#xa1;" d="M110 508Q134 508 151 491.50Q168 475 168 452Q168 428 151 411Q134 394 110 394Q87 394 70.50 411Q54 428 54 452Q54 475 70.50 491.50Q87 508 110 508M151 294L151-206L71-206L71 294L151 294Z"  horiz-adv-x="222" vert-adv-y="1000"  />

      
      <glyph glyph-name="unia2" unicode="&#xa2;" d="M261-12Q198-4 147.50 29.50Q97 63 67.50 119Q38 175 38 247Q38 319 68 374.50Q98 430 148.50 464Q199 498 261 506L261 630L319 630L319 507Q390 502 439 464L442 384L433 384Q405 409 378.50 420.50Q352 432 319 435L319 59Q351 62 377 74Q403 86 431 110L440 110L437 30Q386-10 319-13L319-136L261-136L261-12M261 433Q196 421 157 370Q118 319 118 247Q118 173 155.50 122.50Q193 72 261 61L261 433Z"  horiz-adv-x="492" vert-adv-y="1000"  />

      
      <glyph glyph-name="unia3" unicode="&#xa3;" d="M89 340L20 340L20 406L94 406L98 449Q105 530 138 590Q171 650 223 682Q275 714 339 714Q417 714 481 675L491 583L479 580Q405 638 339 638Q280 638 236 593Q192 548 183 453L178 406L362 406L362 340L172 340L146 76L509 76L509 0L60 0L89 340Z"  horiz-adv-x="544" vert-adv-y="1000"  />

      
      <glyph glyph-name="unia4" unicode="&#xa4;" d="M56 165L117 226Q74 282 74 350Q74 418 117 474L56 535L105 584L168 522Q223 558 290 558Q357 558 412 522L475 584L524 535L463 474Q506 418 506 350Q506 282 463 226L524 165L475 116L412 178Q357 142 290 142Q223 142 168 178L105 116L56 165M290 210Q327 210 359.50 228Q392 246 411 278Q430 310 430 350Q430 390 411 422Q392 454 359.50 472Q327 490 290 490Q253 490 220.50 472Q188 454 169 422Q150 390 150 350Q150 310 169 278Q188 246 220.50 228Q253 210 290 210Z"  horiz-adv-x="580" vert-adv-y="1000"  />

      
      <glyph glyph-name="unia5" unicode="&#xa5;" d="M248 174L94 174L94 240L248 240L248 304L94 304L94 370L209 370L14 700L110 700L293 382L476 700L572 700L377 370L492 370L492 304L338 304L338 240L492 240L492 174L338 174L338 0L248 0L248 174Z"  horiz-adv-x="586" vert-adv-y="1000"  />

      
      <glyph glyph-name="unia6" unicode="&#xa6;" d="M70 700L150 700L150 300L70 300L70 700M70 174L150 174L150-226L70-226L70 174Z"  horiz-adv-x="220" vert-adv-y="1000"  />

      
      <glyph glyph-name="unia7" unicode="&#xa7;" d="M252-240Q197-240 156-223Q115-206 88-182L84-93L91-93Q128-133 168.50-153.50Q209-174 256-174Q306-174 339.50-145Q373-116 373-69Q373-30 339 4Q305 38 219 79Q52 158 52 267Q52 310 74 347Q96 384 136 411Q70 468 70 542Q70 590 97.50 629.50Q125 669 170.50 691.50Q216 714 267 714Q322 714 363 697Q404 680 431 656L435 567L428 567Q391 607 350.50 627.50Q310 648 263 648Q213 648 179.50 619Q146 590 146 543Q146 504 180 470Q214 436 300 395Q467 316 467 207Q467 121 383 62Q449 5 449-68Q449-116 421.50-155.50Q394-195 348.50-217.50Q303-240 252-240M328 101Q358 120 376 146.50Q394 173 394 202Q394 241 358 274.50Q322 308 251 341Q211 359 190 372Q161 354 143 327.50Q125 301 125 272Q125 233 161 199.50Q197 166 268 133Q310 112 328 101Z"  horiz-adv-x="509" vert-adv-y="1000"  />

      
      <glyph glyph-name="unia8" unicode="&#xa8;" d="M83 574Q61 574 45.50 589.50Q30 605 30 627Q30 650 45.50 666Q61 682 83 682Q106 682 122 666Q138 650 138 627Q138 605 122 589.50Q106 574 83 574M262 574Q240 574 224.50 589.50Q209 605 209 627Q209 650 224.50 666Q240 682 262 682Q285 682 301 666Q317 650 317 627Q317 605 301 589.50Q285 574 262 574Z"  horiz-adv-x="347" vert-adv-y="1000"  />

      
      <glyph glyph-name="unia9" unicode="&#xa9;" d="M404-14Q298-14 215 34.50Q132 83 86 166.50Q40 250 40 350Q40 450 86 533.50Q132 617 215 665.50Q298 714 404 714Q510 714 593 665.50Q676 617 722 533.50Q768 450 768 350Q768 250 722 166.50Q676 83 593 34.50Q510-14 404-14M404 34Q494 34 564 76.50Q634 119 673 191Q712 263 712 350Q712 437 673 509Q634 581 564 623.50Q494 666 404 666Q314 666 244 623.50Q174 581 135 509Q96 437 96 350Q96 263 135 191Q174 119 244 76.50Q314 34 404 34M419 162Q368 162 325.50 185Q283 208 258 250.50Q233 293 233 350Q233 407 258.50 449.50Q284 492 326.50 515Q369 538 419 538Q482 538 522 506L524 449L518 449Q495 469 472 477.50Q449 486 419 486Q362 486 326.50 447.50Q291 409 291 350Q291 289 325 251.50Q359 214 419 214Q448 214 470 222.50Q492 231 516 251L523 251L520 194Q483 162 419 162Z"  horiz-adv-x="808" vert-adv-y="1000"  />

      
      <glyph glyph-name="uniaa" unicode="&#xaa;" d="M219 347Q168 347 127 371.50Q86 396 62 438.50Q38 481 38 531Q38 581 62 623Q86 665 127 689.50Q168 714 219 714Q258 714 289.50 698.50Q321 683 340 661L340 704L397 704L397 357L340 357L340 401Q321 378 289.50 362.50Q258 347 219 347M219 398Q275 398 309.50 436.50Q344 475 344 531Q344 587 309.50 625.50Q275 664 219 664Q163 664 128.50 625.50Q94 587 94 531Q94 475 128.50 436.50Q163 398 219 398Z"  horiz-adv-x="461" vert-adv-y="1000"  />

      
      <glyph glyph-name="uniab" unicode="&#xab;" d="M32 296L32 338L261 536L272 536L272 454L111 317L272 180L272 98L261 98L32 296M216 296L216 338L445 536L456 536L456 454L295 317L456 180L456 98L445 98L216 296Z"  horiz-adv-x="496" vert-adv-y="1000"  />

      
      <glyph glyph-name="uniac" unicode="&#xac;" d="M330 312L52 312L52 384L406 384L406 169L330 169L330 312Z"  horiz-adv-x="458" vert-adv-y="1000"  />

      
      <glyph glyph-name="uniad" unicode="&#xad;" d="M0 350L308 350L308 284L0 284L0 350Z"  horiz-adv-x="308" vert-adv-y="1000"  />

      
      <glyph glyph-name="uniae" unicode="&#xae;" d="M404-14Q298-14 215 34.50Q132 83 86 166.50Q40 250 40 350Q40 450 86 533.50Q132 617 215 665.50Q298 714 404 714Q510 714 593 665.50Q676 617 722 533.50Q768 450 768 350Q768 250 722 166.50Q676 83 593 34.50Q510-14 404-14M404 34Q494 34 564 76.50Q634 119 673 191Q712 263 712 350Q712 437 673 509Q634 581 564 623.50Q494 666 404 666Q314 666 244 623.50Q174 581 135 509Q96 437 96 350Q96 263 135 191Q174 119 244 76.50Q314 34 404 34M296 544L404 544Q459 544 493 515Q527 486 527 438Q527 401 503 375Q479 349 445 338L548 172L490 172L392 332L347 332L347 172L296 172L296 544M402 380Q471 380 471 438Q471 466 453.50 481Q436 496 402 496L347 496L347 380L402 380Z"  horiz-adv-x="808" vert-adv-y="1000"  />

      
      <glyph glyph-name="uniaf" unicode="&#xaf;" d="M30 654L260 654L260 590L30 590L30 654Z"  horiz-adv-x="290" vert-adv-y="1000"  />

      
      <glyph glyph-name="unib0" unicode="&#xb0;" d="M154 470Q101 470 65.50 505.50Q30 541 30 592Q30 643 65.50 678.50Q101 714 154 714Q207 714 242.50 678.50Q278 643 278 592Q278 541 242.50 505.50Q207 470 154 470M154 514Q189 514 209.50 536Q230 558 230 592Q230 626 209.50 648Q189 670 154 670Q119 670 98.50 648Q78 626 78 592Q78 558 98.50 536Q119 514 154 514Z"  horiz-adv-x="308" vert-adv-y="1000"  />

      
      <glyph glyph-name="unib1" unicode="&#xb1;" d="M48 6L446 6L446-60L48-60L48 6M214 274L48 274L48 340L214 340L214 506L280 506L280 340L446 340L446 274L280 274L280 108L214 108L214 274Z"  horiz-adv-x="494" vert-adv-y="1000"  />

      
      <glyph glyph-name="unib2" unicode="&#xb2;" d="M14 514L153 678Q172 701 180.50 720Q189 739 189 760Q189 783 171.50 798Q154 813 129 813Q103 813 79.50 797.50Q56 782 39 758L30 758L34 821Q53 840 79 851.50Q105 863 132 863Q182 863 214 834.50Q246 806 246 760Q246 708 187 641L113 556L260 556L260 506L14 506L14 514Z"  horiz-adv-x="281" vert-adv-y="1000"  />

      
      <glyph glyph-name="unib3" unicode="&#xb3;" d="M129 506Q76 506 33 532L27 594L34 594Q78 556 127 556Q158 556 180 575.50Q202 595 202 629Q202 663 179.50 683.50Q157 704 125 704Q105 704 87 698L79 714L154 813L29 813L29 863L246 863L246 857L159 744Q202 738 232 709Q262 680 262 636Q262 575 223 540.50Q184 506 129 506Z"  horiz-adv-x="284" vert-adv-y="1000"  />

      
      <glyph glyph-name="unib4" unicode="&#xb4;" d="M122 700L240 700L98 563L30 563L122 700Z"  horiz-adv-x="270" vert-adv-y="1000"  />

      
      <glyph glyph-name="unib5" unicode="&#xb5;" d="M64 494L144 494L144 176Q144 121 176.50 89.50Q209 58 263 58Q304 58 337 79Q370 100 389.50 137Q409 174 409 219L409 494L489 494L489 0L409 0L409 74Q382 35 336 10.50Q290-14 238-14Q185-14 144 8L144-226L64-226L64 494Z"  horiz-adv-x="553" vert-adv-y="1000"  />

      
      <glyph glyph-name="unib6" unicode="&#xb6;" d="M220 388L206 388Q122 388 73 432Q24 476 24 544Q24 612 73 656Q122 700 206 700L519 700L519-226L433-226L433 624L306 624L306-226L220-226L220 388Z"  horiz-adv-x="589" vert-adv-y="1000"  />

      
      <glyph glyph-name="unib7" unicode="&#xb7;" d="M100 286Q77 286 60.50 302.50Q44 319 44 342Q44 366 60.50 383Q77 400 100 400Q124 400 141 383Q158 366 158 342Q158 319 141 302.50Q124 286 100 286Z"  horiz-adv-x="202" vert-adv-y="1000"  />

      
      <glyph glyph-name="unib8" unicode="&#xb8;" d="M119-240Q94-240 76-236.50Q58-233 38-224L30-174L37-171Q77-193 111-193Q136-193 153-180Q170-167 170-142Q170-117 153.50-104.50Q137-92 113-92Q100-92 82-96.50Q64-101 53-106L48-100L113 46L160 29L101-62Q129-51 160-51Q196-51 219.50-76.50Q243-102 243-140Q243-183 209-211.50Q175-240 119-240Z"  horiz-adv-x="273" vert-adv-y="1000"  />

      
      <glyph glyph-name="unib9" unicode="&#xb9;" d="M30 826L77 859L90 859L90 509L30 509L30 826Z"  horiz-adv-x="120" vert-adv-y="1000"  />

      
      <glyph glyph-name="uniba" unicode="&#xba;" d="M220 347Q169 347 127.50 370.50Q86 394 62 436Q38 478 38 531Q38 583 62 625Q86 667 127.50 690.50Q169 714 220 714Q271 714 312.50 690.50Q354 667 378 625Q402 583 402 531Q402 478 378 436Q354 394 312.50 370.50Q271 347 220 347M220 398Q274 398 309.50 435Q345 472 345 531Q345 590 309.50 627Q274 664 220 664Q165 664 129.50 627Q94 590 94 531Q94 472 129.50 435Q165 398 220 398Z"  horiz-adv-x="440" vert-adv-y="1000"  />

      
      <glyph glyph-name="unibb" unicode="&#xbb;" d="M40 180L201 317L40 454L40 536L51 536L280 338L280 296L51 98L40 98L40 180M224 180L385 317L224 454L224 536L235 536L464 338L464 296L235 98L224 98L224 180Z"  horiz-adv-x="496" vert-adv-y="1000"  />

      
      <glyph glyph-name="unibc" unicode="&#xbc;" d="M30 667L77 700L90 700L90 350L30 350L30 667M20 157L353 569L395 532L64 122L20 157M363 73L205 73L205 106L398 343L423 343L423 123L471 123L471 73L423 73L423-7L363-7L363 73M363 123L363 225L279 123L363 123Z"  horiz-adv-x="484" vert-adv-y="1000"  />

      
      <glyph glyph-name="unibd" unicode="&#xbd;" d="M30 667L77 700L90 700L90 350L30 350L30 667M20 157L353 569L395 532L64 122L20 157M309 1L448 165Q467 188 475.50 207Q484 226 484 247Q484 270 466.50 285Q449 300 424 300Q398 300 374.50 284.50Q351 269 334 245L325 245L329 308Q348 327 374 338.50Q400 350 427 350Q477 350 509 321.50Q541 293 541 247Q541 195 482 128L408 43L555 43L555-7L309-7L309 1Z"  horiz-adv-x="576" vert-adv-y="1000"  />

      
      <glyph glyph-name="unibe" unicode="&#xbe;" d="M129 343Q76 343 33 369L27 431L34 431Q78 393 127 393Q158 393 180 412.50Q202 432 202 466Q202 500 179.50 520.50Q157 541 125 541Q105 541 87 535L79 551L154 650L29 650L29 700L246 700L246 694L159 581Q202 575 232 546Q262 517 262 473Q262 412 223 377.50Q184 343 129 343M154 157L487 569L529 532L198 122L154 157M497 73L339 73L339 106L532 343L557 343L557 123L605 123L605 73L557 73L557-7L497-7L497 73M497 123L497 225L413 123L497 123Z"  horiz-adv-x="618" vert-adv-y="1000"  />

      
      <glyph glyph-name="unibf" unicode="&#xbf;" d="M234 508Q257 508 273.50 491.50Q290 475 290 452Q290 428 273.50 411Q257 394 234 394Q210 394 193 411Q176 428 176 452Q176 475 193 491.50Q210 508 234 508M275 255Q275 203 254 167Q233 131 192 86Q156 47 138 18Q120-11 120-50Q120-97 151.50-125.50Q183-154 236-154Q281-154 322.50-129.50Q364-105 389-74L398-74L392-160Q363-185 318.50-202.50Q274-220 232-220Q148-220 94-176Q40-132 40-58Q40-3 61.50 33.50Q83 70 126 116Q161 153 178 180Q195 207 195 243L195 294L275 294L275 255Z"  horiz-adv-x="438" vert-adv-y="1000"  />

      
      <glyph glyph-name="unic0" unicode="&#xc0;" d="M324 700L350 700L654 0L564 0L504 142L170 142L110 0L20 0L324 700M471 218L337 532L203 218L471 218M320 769L178 906L296 906L388 769L320 769Z"  horiz-adv-x="674" vert-adv-y="1000"  />

      
      <glyph glyph-name="unic1" unicode="&#xc1;" d="M324 700L350 700L654 0L564 0L504 142L170 142L110 0L20 0L324 700M471 218L337 532L203 218L471 218M378 906L496 906L354 769L286 769L378 906Z"  horiz-adv-x="674" vert-adv-y="1000"  />

      
      <glyph glyph-name="unic2" unicode="&#xc2;" d="M324 700L350 700L654 0L564 0L504 142L170 142L110 0L20 0L324 700M471 218L337 532L203 218L471 218M284 906L389 906L489 769L429 769L336 858L244 769L184 769L284 906Z"  horiz-adv-x="674" vert-adv-y="1000"  />

      
      <glyph glyph-name="unic3" unicode="&#xc3;" d="M324 700L350 700L654 0L564 0L504 142L170 142L110 0L20 0L324 700M471 218L337 532L203 218L471 218M407 773Q381 773 361 781.50Q341 790 318 805Q298 818 283.50 824Q269 830 252 830Q208 830 165 782L160 782L167 854Q190 875 213.50 885.50Q237 896 266 896Q292 896 312 887.50Q332 879 355 864Q375 851 389.50 845Q404 839 421 839Q465 839 508 887L513 887L506 815Q483 794 459.50 783.50Q436 773 407 773Z"  horiz-adv-x="674" vert-adv-y="1000"  />

      
      <glyph glyph-name="unic4" unicode="&#xc4;" d="M324 700L350 700L654 0L564 0L504 142L170 142L110 0L20 0L324 700M471 218L337 532L203 218L471 218M246 780Q224 780 208.50 795.50Q193 811 193 833Q193 856 208.50 872Q224 888 246 888Q268 888 284.50 872Q301 856 301 833Q301 811 285 795.50Q269 780 246 780M425 780Q403 780 387.50 795.50Q372 811 372 833Q372 856 387.50 872Q403 888 425 888Q447 888 463.50 872Q480 856 480 833Q480 811 464 795.50Q448 780 425 780Z"  horiz-adv-x="674" vert-adv-y="1000"  />

      
      <glyph glyph-name="unic5" unicode="&#xc5;" d="M654 0L564 0L504 142L170 142L110 0L20 0L309 666Q276 674 255 701Q234 728 234 763Q234 805 264 834.50Q294 864 337 864Q380 864 410 834.50Q440 805 440 763Q440 728 419 701Q398 674 365 666L654 0M274 763Q274 737 291.50 718.50Q309 700 337 700Q365 700 382.50 718.50Q400 737 400 763Q400 789 382.50 807.50Q365 826 337 826Q309 826 291.50 807.50Q274 789 274 763M471 218L337 532L203 218L471 218Z"  horiz-adv-x="674" vert-adv-y="1000"  />

      
      <glyph glyph-name="unic6" unicode="&#xc6;" d="M324 700L649 700L683 624L379 624L480 398L759 398L791 322L513 322L621 76L927 76L960 0L564 0L504 142L170 142L110 0L20 0L324 700M471 218L337 532L204 218L471 218Z"  horiz-adv-x="977" vert-adv-y="1000"  />

      
      <glyph glyph-name="unic7" unicode="&#xc7;" d="M389-240Q361-240 343-236.50Q325-233 305-224L297-174L304-171Q344-193 378-193Q401-193 419-179Q437-165 437-140Q437-115 420-103.50Q403-92 378-92Q365-92 348-96.50Q331-101 320-106L315-100L354-11Q265-2 193.50 47Q122 96 81 174.50Q40 253 40 350Q40 454 88 537Q136 620 218 667Q300 714 399 714Q515 714 603 654L609 555L599 555Q556 595 507 616.50Q458 638 395 638Q324 638 263 603Q202 568 166 502.50Q130 437 130 350Q130 263 166 197.50Q202 132 263 97Q324 62 395 62Q458 62 507 83.50Q556 105 599 145L609 145L603 46Q517-13 399-14L368-62Q396-51 427-51Q465-51 487.50-76Q510-101 510-140Q510-183 477.50-211.50Q445-240 389-240Z"  horiz-adv-x="663" vert-adv-y="1000"  />

      
      <glyph glyph-name="unic8" unicode="&#xc8;" d="M70 700L470 700L470 624L160 624L160 398L459 398L459 322L160 322L160 76L474 76L474 0L70 0L70 700M262 769L120 906L238 906L330 769L262 769Z"  horiz-adv-x="518" vert-adv-y="1000"  />

      
      <glyph glyph-name="unic9" unicode="&#xc9;" d="M70 700L470 700L470 624L160 624L160 398L459 398L459 322L160 322L160 76L474 76L474 0L70 0L70 700M320 906L438 906L296 769L228 769L320 906Z"  horiz-adv-x="518" vert-adv-y="1000"  />

      
      <glyph glyph-name="unica" unicode="&#xca;" d="M70 700L470 700L470 624L160 624L160 398L459 398L459 322L160 322L160 76L474 76L474 0L70 0L70 700M226 906L331 906L431 769L371 769L278 858L186 769L126 769L226 906Z"  horiz-adv-x="518" vert-adv-y="1000"  />

      
      <glyph glyph-name="unicb" unicode="&#xcb;" d="M70 700L470 700L470 624L160 624L160 398L459 398L459 322L160 322L160 76L474 76L474 0L70 0L70 700M188 780Q166 780 150.50 795.50Q135 811 135 833Q135 856 150.50 872Q166 888 188 888Q210 888 226.50 872Q243 856 243 833Q243 811 227 795.50Q211 780 188 780M367 780Q345 780 329.50 795.50Q314 811 314 833Q314 856 329.50 872Q345 888 367 888Q389 888 405.50 872Q422 856 422 833Q422 811 406 795.50Q390 780 367 780Z"  horiz-adv-x="518" vert-adv-y="1000"  />

      
      <glyph glyph-name="unicc" unicode="&#xcc;" d="M70 700L160 700L160 0L70 0L70 700M98 769L-44 906L74 906L166 769L98 769Z"  horiz-adv-x="230" vert-adv-y="1000"  />

      
      <glyph glyph-name="unicd" unicode="&#xcd;" d="M70 700L160 700L160 0L70 0L70 700M156 906L274 906L132 769L64 769L156 906Z"  horiz-adv-x="230" vert-adv-y="1000"  />

      
      <glyph glyph-name="unice" unicode="&#xce;" d="M70 700L160 700L160 0L70 0L70 700M62 906L167 906L267 769L207 769L114 858L22 769L-38 769L62 906Z"  horiz-adv-x="230" vert-adv-y="1000"  />

      
      <glyph glyph-name="unicf" unicode="&#xcf;" d="M70 700L160 700L160 0L70 0L70 700M24 780Q2 780-13.50 795.50Q-29 811-29 833Q-29 856-13.50 872Q2 888 24 888Q46 888 62.50 872Q79 856 79 833Q79 811 63 795.50Q47 780 24 780M203 780Q181 780 165.50 795.50Q150 811 150 833Q150 856 165.50 872Q181 888 203 888Q225 888 241.50 872Q258 856 258 833Q258 811 242 795.50Q226 780 203 780Z"  horiz-adv-x="230" vert-adv-y="1000"  />

      
      <glyph glyph-name="unid0" unicode="&#xd0;" d="M70 316L-8 316L-8 382L70 382L70 700L226 700Q323 700 405 657.50Q487 615 536 535.50Q585 456 585 350Q585 244 536 164.50Q487 85 405 42.50Q323 0 226 0L70 0L70 316M228 76Q303 76 363.50 108Q424 140 459.50 202Q495 264 495 350Q495 436 459.50 498Q424 560 363.50 592Q303 624 228 624L160 624L160 382L300 382L300 316L160 316L160 76L228 76Z"  horiz-adv-x="625" vert-adv-y="1000"  />

      
      <glyph glyph-name="unid1" unicode="&#xd1;" d="M70 700L104 700L515 202L515 700L605 700L605 0L571 0L160 500L160 0L70 0L70 700M408 773Q382 773 362 781.50Q342 790 319 805Q299 818 284.50 824Q270 830 253 830Q209 830 166 782L161 782L168 854Q191 875 214.50 885.50Q238 896 267 896Q293 896 313 887.50Q333 879 356 864Q376 851 390.50 845Q405 839 422 839Q466 839 509 887L514 887L507 815Q484 794 460.50 783.50Q437 773 408 773Z"  horiz-adv-x="675" vert-adv-y="1000"  />

      
      <glyph glyph-name="unid2" unicode="&#xd2;" d="M405-14Q304-14 220.50 33.50Q137 81 88.50 164Q40 247 40 350Q40 453 88.50 536Q137 619 220.50 666.50Q304 714 405 714Q506 714 589.50 666.50Q673 619 721.50 536Q770 453 770 350Q770 247 721.50 164Q673 81 589.50 33.50Q506-14 405-14M405 62Q482 62 544.50 97Q607 132 643.50 197Q680 262 680 350Q680 438 643.50 503Q607 568 544.50 603Q482 638 405 638Q328 638 265.50 603Q203 568 166.50 503Q130 438 130 350Q130 262 166.50 197Q203 132 265.50 97Q328 62 405 62M388 769L246 906L364 906L456 769L388 769Z"  horiz-adv-x="810" vert-adv-y="1000"  />

      
      <glyph glyph-name="unid3" unicode="&#xd3;" d="M405-14Q304-14 220.50 33.50Q137 81 88.50 164Q40 247 40 350Q40 453 88.50 536Q137 619 220.50 666.50Q304 714 405 714Q506 714 589.50 666.50Q673 619 721.50 536Q770 453 770 350Q770 247 721.50 164Q673 81 589.50 33.50Q506-14 405-14M405 62Q482 62 544.50 97Q607 132 643.50 197Q680 262 680 350Q680 438 643.50 503Q607 568 544.50 603Q482 638 405 638Q328 638 265.50 603Q203 568 166.50 503Q130 438 130 350Q130 262 166.50 197Q203 132 265.50 97Q328 62 405 62M446 906L564 906L422 769L354 769L446 906Z"  horiz-adv-x="810" vert-adv-y="1000"  />

      
      <glyph glyph-name="unid4" unicode="&#xd4;" d="M405-14Q304-14 220.50 33.50Q137 81 88.50 164Q40 247 40 350Q40 453 88.50 536Q137 619 220.50 666.50Q304 714 405 714Q506 714 589.50 666.50Q673 619 721.50 536Q770 453 770 350Q770 247 721.50 164Q673 81 589.50 33.50Q506-14 405-14M405 62Q482 62 544.50 97Q607 132 643.50 197Q680 262 680 350Q680 438 643.50 503Q607 568 544.50 603Q482 638 405 638Q328 638 265.50 603Q203 568 166.50 503Q130 438 130 350Q130 262 166.50 197Q203 132 265.50 97Q328 62 405 62M352 906L457 906L557 769L497 769L404 858L312 769L252 769L352 906Z"  horiz-adv-x="810" vert-adv-y="1000"  />

      
      <glyph glyph-name="unid5" unicode="&#xd5;" d="M405-14Q304-14 220.50 33.50Q137 81 88.50 164Q40 247 40 350Q40 453 88.50 536Q137 619 220.50 666.50Q304 714 405 714Q506 714 589.50 666.50Q673 619 721.50 536Q770 453 770 350Q770 247 721.50 164Q673 81 589.50 33.50Q506-14 405-14M405 62Q482 62 544.50 97Q607 132 643.50 197Q680 262 680 350Q680 438 643.50 503Q607 568 544.50 603Q482 638 405 638Q328 638 265.50 603Q203 568 166.50 503Q130 438 130 350Q130 262 166.50 197Q203 132 265.50 97Q328 62 405 62M475 773Q449 773 429 781.50Q409 790 386 805Q366 818 351.50 824Q337 830 320 830Q276 830 233 782L228 782L235 854Q258 875 281.50 885.50Q305 896 334 896Q360 896 380 887.50Q400 879 423 864Q443 851 457.50 845Q472 839 489 839Q533 839 576 887L581 887L574 815Q551 794 527.50 783.50Q504 773 475 773Z"  horiz-adv-x="810" vert-adv-y="1000"  />

      
      <glyph glyph-name="unid6" unicode="&#xd6;" d="M405-14Q304-14 220.50 33.50Q137 81 88.50 164Q40 247 40 350Q40 453 88.50 536Q137 619 220.50 666.50Q304 714 405 714Q506 714 589.50 666.50Q673 619 721.50 536Q770 453 770 350Q770 247 721.50 164Q673 81 589.50 33.50Q506-14 405-14M405 62Q482 62 544.50 97Q607 132 643.50 197Q680 262 680 350Q680 438 643.50 503Q607 568 544.50 603Q482 638 405 638Q328 638 265.50 603Q203 568 166.50 503Q130 438 130 350Q130 262 166.50 197Q203 132 265.50 97Q328 62 405 62M314 780Q292 780 276.50 795.50Q261 811 261 833Q261 856 276.50 872Q292 888 314 888Q336 888 352.50 872Q369 856 369 833Q369 811 353 795.50Q337 780 314 780M493 780Q471 780 455.50 795.50Q440 811 440 833Q440 856 455.50 872Q471 888 493 888Q515 888 531.50 872Q548 856 548 833Q548 811 532 795.50Q516 780 493 780Z"  horiz-adv-x="810" vert-adv-y="1000"  />

      
      <glyph glyph-name="unid7" unicode="&#xd7;" d="M48 190L165 307L48 424L95 471L212 354L329 471L376 424L259 307L376 190L329 143L212 260L95 143L48 190Z"  horiz-adv-x="424" vert-adv-y="1000"  />

      
      <glyph glyph-name="unid8" unicode="&#xd8;" d="M618 648Q689 599 729.50 521.50Q770 444 770 350Q770 247 721.50 164Q673 81 589.50 33.50Q506-14 405-14Q326-14 257 15L228-36L162 0L192 52Q121 101 80.50 178.50Q40 256 40 350Q40 453 88.50 536Q137 619 220.50 666.50Q304 714 405 714Q484 714 553 685L582 736L648 700L618 648M130 350Q130 275 156.50 217Q183 159 231 120L514 617Q464 638 405 638Q328 638 265.50 603Q203 568 166.50 503Q130 438 130 350M405 62Q482 62 544.50 97Q607 132 643.50 197Q680 262 680 350Q680 425 653.50 483Q627 541 579 580L296 83Q346 62 405 62Z"  horiz-adv-x="810" vert-adv-y="1000"  />

      
      <glyph glyph-name="unid9" unicode="&#xd9;" d="M319-14Q243-14 184.50 18Q126 50 93 112Q60 174 60 261L60 700L150 700L150 246Q150 183 174 141.50Q198 100 236.50 81Q275 62 319 62Q363 62 401.50 81Q440 100 464 141.50Q488 183 488 246L488 700L578 700L578 261Q578 174 545 112Q512 50 453.50 18Q395-14 319-14M302 769L160 906L278 906L370 769L302 769Z"  horiz-adv-x="638" vert-adv-y="1000"  />

      
      <glyph glyph-name="unida" unicode="&#xda;" d="M319-14Q243-14 184.50 18Q126 50 93 112Q60 174 60 261L60 700L150 700L150 246Q150 183 174 141.50Q198 100 236.50 81Q275 62 319 62Q363 62 401.50 81Q440 100 464 141.50Q488 183 488 246L488 700L578 700L578 261Q578 174 545 112Q512 50 453.50 18Q395-14 319-14M360 906L478 906L336 769L268 769L360 906Z"  horiz-adv-x="638" vert-adv-y="1000"  />

      
      <glyph glyph-name="unidb" unicode="&#xdb;" d="M319-14Q243-14 184.50 18Q126 50 93 112Q60 174 60 261L60 700L150 700L150 246Q150 183 174 141.50Q198 100 236.50 81Q275 62 319 62Q363 62 401.50 81Q440 100 464 141.50Q488 183 488 246L488 700L578 700L578 261Q578 174 545 112Q512 50 453.50 18Q395-14 319-14M266 906L371 906L471 769L411 769L318 858L226 769L166 769L266 906Z"  horiz-adv-x="638" vert-adv-y="1000"  />

      
      <glyph glyph-name="unidc" unicode="&#xdc;" d="M319-14Q243-14 184.50 18Q126 50 93 112Q60 174 60 261L60 700L150 700L150 246Q150 183 174 141.50Q198 100 236.50 81Q275 62 319 62Q363 62 401.50 81Q440 100 464 141.50Q488 183 488 246L488 700L578 700L578 261Q578 174 545 112Q512 50 453.50 18Q395-14 319-14M228 780Q206 780 190.50 795.50Q175 811 175 833Q175 856 190.50 872Q206 888 228 888Q250 888 266.50 872Q283 856 283 833Q283 811 267 795.50Q251 780 228 780M407 780Q385 780 369.50 795.50Q354 811 354 833Q354 856 369.50 872Q385 888 407 888Q429 888 445.50 872Q462 856 462 833Q462 811 446 795.50Q430 780 407 780Z"  horiz-adv-x="638" vert-adv-y="1000"  />

      
      <glyph glyph-name="unidd" unicode="&#xdd;" d="M248 304L14 700L110 700L293 382L476 700L572 700L338 304L338 0L248 0L248 304M334 906L452 906L310 769L242 769L334 906Z"  horiz-adv-x="586" vert-adv-y="1000"  />

      
      <glyph glyph-name="unide" unicode="&#xde;" d="M70 700L160 700L160 568L248 568Q324 568 379.50 537.50Q435 507 464 457Q493 407 493 350Q493 293 464 243Q435 193 379.50 162.50Q324 132 248 132L160 132L160 0L70 0L70 700M249 208Q318 208 360.50 245.50Q403 283 403 350Q403 417 360.50 454.50Q318 492 249 492L160 492L160 208L249 208Z"  horiz-adv-x="527" vert-adv-y="1000"  />

      
      <glyph glyph-name="unidf" unicode="&#xdf;" d="M367-14Q333-14 299.50-4.50Q266 5 238 24L253 99L261 99Q313 61 367 61Q423 61 456.50 97.50Q490 134 490 193Q490 260 443.50 300.50Q397 341 301 341L266 341L266 413Q332 418 370 453.50Q408 489 408 541Q408 587 379 616.50Q350 646 301 646Q254 646 222.50 618Q191 590 191 535L191 0L111 0L111 422L44 422L44 494L111 494L111 532Q111 590 138 631.50Q165 673 209.50 693.50Q254 714 306 714Q360 714 401.50 691.50Q443 669 465.50 631Q488 593 488 546Q488 446 382 390Q466 385 518 332Q570 279 570 193Q570 132 543 85Q516 38 470 12Q424-14 367-14Z"  horiz-adv-x="608" vert-adv-y="1000"  />

      
      <glyph glyph-name="unie0" unicode="&#xe0;" d="M296-14Q224-14 165 21Q106 56 72 116Q38 176 38 247Q38 318 72 378Q106 438 165 473Q224 508 296 508Q351 508 396 486.50Q441 465 469 432L469 494L549 494L549 0L469 0L469 62Q441 29 396 7.50Q351-14 296-14M296 58Q349 58 389.50 83.50Q430 109 452 152Q474 195 474 247Q474 299 452 342Q430 385 389.50 410.50Q349 436 296 436Q243 436 202.50 410.50Q162 385 140 342Q118 299 118 247Q118 195 140 152Q162 109 202.50 83.50Q243 58 296 58M132 700L250 700L342 563L274 563L132 700Z"  horiz-adv-x="613" vert-adv-y="1000"  />

      
      <glyph glyph-name="unie1" unicode="&#xe1;" d="M296-14Q224-14 165 21Q106 56 72 116Q38 176 38 247Q38 318 72 378Q106 438 165 473Q224 508 296 508Q351 508 396 486.50Q441 465 469 432L469 494L549 494L549 0L469 0L469 62Q441 29 396 7.50Q351-14 296-14M296 58Q349 58 389.50 83.50Q430 109 452 152Q474 195 474 247Q474 299 452 342Q430 385 389.50 410.50Q349 436 296 436Q243 436 202.50 410.50Q162 385 140 342Q118 299 118 247Q118 195 140 152Q162 109 202.50 83.50Q243 58 296 58M342 700L460 700L318 563L250 563L342 700Z"  horiz-adv-x="613" vert-adv-y="1000"  />

      
      <glyph glyph-name="unie2" unicode="&#xe2;" d="M296-14Q224-14 165 21Q106 56 72 116Q38 176 38 247Q38 318 72 378Q106 438 165 473Q224 508 296 508Q351 508 396 486.50Q441 465 469 432L469 494L549 494L549 0L469 0L469 62Q441 29 396 7.50Q351-14 296-14M296 58Q349 58 389.50 83.50Q430 109 452 152Q474 195 474 247Q474 299 452 342Q430 385 389.50 410.50Q349 436 296 436Q243 436 202.50 410.50Q162 385 140 342Q118 299 118 247Q118 195 140 152Q162 109 202.50 83.50Q243 58 296 58M243 700L348 700L448 563L388 563L295 652L203 563L143 563L243 700Z"  horiz-adv-x="613" vert-adv-y="1000"  />

      
      <glyph glyph-name="unie3" unicode="&#xe3;" d="M296-14Q224-14 165 21Q106 56 72 116Q38 176 38 247Q38 318 72 378Q106 438 165 473Q224 508 296 508Q351 508 396 486.50Q441 465 469 432L469 494L549 494L549 0L469 0L469 62Q441 29 396 7.50Q351-14 296-14M296 58Q349 58 389.50 83.50Q430 109 452 152Q474 195 474 247Q474 299 452 342Q430 385 389.50 410.50Q349 436 296 436Q243 436 202.50 410.50Q162 385 140 342Q118 299 118 247Q118 195 140 152Q162 109 202.50 83.50Q243 58 296 58M366 567Q340 567 320 575.50Q300 584 277 599Q257 612 242.50 618Q228 624 211 624Q167 624 124 576L119 576L126 648Q149 669 172.50 679.50Q196 690 225 690Q251 690 271 681.50Q291 673 314 658Q334 645 348.50 639Q363 633 380 633Q424 633 467 681L472 681L465 609Q442 588 418.50 577.50Q395 567 366 567Z"  horiz-adv-x="613" vert-adv-y="1000"  />

      
      <glyph glyph-name="unie4" unicode="&#xe4;" d="M296-14Q224-14 165 21Q106 56 72 116Q38 176 38 247Q38 318 72 378Q106 438 165 473Q224 508 296 508Q351 508 396 486.50Q441 465 469 432L469 494L549 494L549 0L469 0L469 62Q441 29 396 7.50Q351-14 296-14M296 58Q349 58 389.50 83.50Q430 109 452 152Q474 195 474 247Q474 299 452 342Q430 385 389.50 410.50Q349 436 296 436Q243 436 202.50 410.50Q162 385 140 342Q118 299 118 247Q118 195 140 152Q162 109 202.50 83.50Q243 58 296 58M205 574Q183 574 167.50 589.50Q152 605 152 627Q152 650 167.50 666Q183 682 205 682Q227 682 243.50 666Q260 650 260 627Q260 605 244 589.50Q228 574 205 574M384 574Q362 574 346.50 589.50Q331 605 331 627Q331 650 346.50 666Q362 682 384 682Q406 682 422.50 666Q439 650 439 627Q439 605 423 589.50Q407 574 384 574Z"  horiz-adv-x="613" vert-adv-y="1000"  />

      
      <glyph glyph-name="unie5" unicode="&#xe5;" d="M296-14Q224-14 165 21Q106 56 72 116Q38 176 38 247Q38 318 72 378Q106 438 165 473Q224 508 296 508Q351 508 396 486.50Q441 465 469 432L469 494L549 494L549 0L469 0L469 62Q441 29 396 7.50Q351-14 296-14M296 58Q349 58 389.50 83.50Q430 109 452 152Q474 195 474 247Q474 299 452 342Q430 385 389.50 410.50Q349 436 296 436Q243 436 202.50 410.50Q162 385 140 342Q118 299 118 247Q118 195 140 152Q162 109 202.50 83.50Q243 58 296 58M296 544Q253 544 223 573.50Q193 603 193 645Q193 687 223 716.50Q253 746 296 746Q339 746 369 716.50Q399 687 399 645Q399 603 369 573.50Q339 544 296 544M296 582Q324 582 341.50 600.50Q359 619 359 645Q359 671 341.50 689.50Q324 708 296 708Q268 708 250.50 689.50Q233 671 233 645Q233 619 250.50 600.50Q268 582 296 582Z"  horiz-adv-x="613" vert-adv-y="1000"  />

      
      <glyph glyph-name="unie6" unicode="&#xe6;" d="M198-14Q150-14 113.50 5Q77 24 57.50 55Q38 86 38 122Q38 181 72 219Q106 257 159 274.50Q212 292 271 292L340 292Q340 368 306 405Q272 442 224 442Q150 442 88 377L77 377L85 460Q111 479 151.50 493.50Q192 508 232 508Q286 508 329.50 482.50Q373 457 395 413Q430 457 480 482.50Q530 508 586 508Q655 508 709.50 478Q764 448 794.50 393.50Q825 339 825 266L825 226L420 226Q424 173 450.50 135Q477 97 516 77.50Q555 58 597 58Q650 58 691.50 75.50Q733 93 782 138L790 138L787 51Q743 18 698 2Q653-14 598-14Q530-14 474 16Q418 46 384 99Q353 47 303 16.50Q253-14 198-14M752 292Q744 359 699 400.50Q654 442 586 442Q529 442 482.50 402.50Q436 363 424 292L752 292M206 58Q238 58 269 76.50Q300 95 320 133Q340 171 340 226Q122 226 122 131Q122 97 145 77.50Q168 58 206 58Z"  horiz-adv-x="867" vert-adv-y="1000"  />

      
      <glyph glyph-name="unie7" unicode="&#xe7;" d="M296 58Q337 58 367.50 70Q398 82 431 110L440 110L437 30Q383-14 296-14L292-14L261-62Q289-51 320-51Q356-51 379.50-76.50Q403-102 403-140Q403-183 369-211.50Q335-240 279-240Q254-240 236-236.50Q218-233 198-224L190-174L197-171Q237-193 271-193Q296-193 313-180Q330-167 330-142Q330-117 313.50-104.50Q297-92 273-92Q260-92 242-96.50Q224-101 213-106L208-100L248-10Q188 0 140.50 34Q93 68 65.50 122.50Q38 177 38 247Q38 325 73.50 384.50Q109 444 168 476Q227 508 296 508Q339 508 376 496Q413 484 439 464L442 384L433 384Q401 412 369.50 424Q338 436 296 436Q244 436 203.50 411.50Q163 387 140.50 344Q118 301 118 247Q118 163 165.50 110.50Q213 58 296 58Z"  horiz-adv-x="492" vert-adv-y="1000"  />

      
      <glyph glyph-name="unie8" unicode="&#xe8;" d="M296-14Q224-14 165 20.50Q106 55 72 115Q38 175 38 247Q38 320 71.50 379.50Q105 439 161.50 473.50Q218 508 284 508Q353 508 407.50 478Q462 448 492.50 393.50Q523 339 523 266L523 226L118 226Q122 173 148.50 135Q175 97 214 77.50Q253 58 295 58Q348 58 389.50 75.50Q431 93 480 138L488 138L485 51Q441 18 396 2Q351-14 296-14M450 292Q442 359 397 400.50Q352 442 284 442Q227 442 180.50 402.50Q134 363 122 292L450 292M125 700L243 700L335 563L267 563L125 700Z"  horiz-adv-x="565" vert-adv-y="1000"  />

      
      <glyph glyph-name="unie9" unicode="&#xe9;" d="M296-14Q224-14 165 20.50Q106 55 72 115Q38 175 38 247Q38 320 71.50 379.50Q105 439 161.50 473.50Q218 508 284 508Q353 508 407.50 478Q462 448 492.50 393.50Q523 339 523 266L523 226L118 226Q122 173 148.50 135Q175 97 214 77.50Q253 58 295 58Q348 58 389.50 75.50Q431 93 480 138L488 138L485 51Q441 18 396 2Q351-14 296-14M450 292Q442 359 397 400.50Q352 442 284 442Q227 442 180.50 402.50Q134 363 122 292L450 292M335 700L453 700L311 563L243 563L335 700Z"  horiz-adv-x="565" vert-adv-y="1000"  />

      
      <glyph glyph-name="uniea" unicode="&#xea;" d="M296-14Q224-14 165 20.50Q106 55 72 115Q38 175 38 247Q38 320 71.50 379.50Q105 439 161.50 473.50Q218 508 284 508Q353 508 407.50 478Q462 448 492.50 393.50Q523 339 523 266L523 226L118 226Q122 173 148.50 135Q175 97 214 77.50Q253 58 295 58Q348 58 389.50 75.50Q431 93 480 138L488 138L485 51Q441 18 396 2Q351-14 296-14M450 292Q442 359 397 400.50Q352 442 284 442Q227 442 180.50 402.50Q134 363 122 292L450 292M236 700L341 700L441 563L381 563L288 652L196 563L136 563L236 700Z"  horiz-adv-x="565" vert-adv-y="1000"  />

      
      <glyph glyph-name="unieb" unicode="&#xeb;" d="M296-14Q224-14 165 20.50Q106 55 72 115Q38 175 38 247Q38 320 71.50 379.50Q105 439 161.50 473.50Q218 508 284 508Q353 508 407.50 478Q462 448 492.50 393.50Q523 339 523 266L523 226L118 226Q122 173 148.50 135Q175 97 214 77.50Q253 58 295 58Q348 58 389.50 75.50Q431 93 480 138L488 138L485 51Q441 18 396 2Q351-14 296-14M450 292Q442 359 397 400.50Q352 442 284 442Q227 442 180.50 402.50Q134 363 122 292L450 292M198 574Q176 574 160.50 589.50Q145 605 145 627Q145 650 160.50 666Q176 682 198 682Q220 682 236.50 666Q253 650 253 627Q253 605 237 589.50Q221 574 198 574M377 574Q355 574 339.50 589.50Q324 605 324 627Q324 650 339.50 666Q355 682 377 682Q399 682 415.50 666Q432 650 432 627Q432 605 416 589.50Q400 574 377 574Z"  horiz-adv-x="565" vert-adv-y="1000"  />

      
      <glyph glyph-name="uniec" unicode="&#xec;" d="M64 494L144 494L144 0L64 0L64 494M-60 700L58 700L150 563L82 563L-60 700Z"  horiz-adv-x="208" vert-adv-y="1000"  />

      
      <glyph glyph-name="unied" unicode="&#xed;" d="M64 494L144 494L144 0L64 0L64 494M150 700L268 700L126 563L58 563L150 700Z"  horiz-adv-x="208" vert-adv-y="1000"  />

      
      <glyph glyph-name="uniee" unicode="&#xee;" d="M64 494L144 494L144 0L64 0L64 494M51 700L156 700L256 563L196 563L103 652L11 563L-49 563L51 700Z"  horiz-adv-x="208" vert-adv-y="1000"  />

      
      <glyph glyph-name="unief" unicode="&#xef;" d="M64 494L144 494L144 0L64 0L64 494M13 574Q-9 574-24.50 589.50Q-40 605-40 627Q-40 650-24.50 666Q-9 682 13 682Q35 682 51.50 666Q68 650 68 627Q68 605 52 589.50Q36 574 13 574M192 574Q170 574 154.50 589.50Q139 605 139 627Q139 650 154.50 666Q170 682 192 682Q214 682 230.50 666Q247 650 247 627Q247 605 231 589.50Q215 574 192 574Z"  horiz-adv-x="208" vert-adv-y="1000"  />

      
      <glyph glyph-name="unif0" unicode="&#xf0;" d="M280-14Q213-14 157.50 18Q102 50 70 104.50Q38 159 38 223Q38 288 71 341Q104 394 157.50 424Q211 454 271 454Q322 454 364.50 432Q407 410 434 376Q426 429 401 476.50Q376 524 336 563L173 496L157 536L300 594Q249 634 174 661L174 677L245 710Q323 677 381 628L469 665L485 625L414 596Q469 537 499 456.50Q529 376 529 290Q529 202 497.50 133Q466 64 409.50 25Q353-14 280-14M279 58Q321 58 358 78Q395 98 418 135.50Q441 173 441 222Q441 271 418 307.50Q395 344 358 363Q321 382 279 382Q237 382 200 363Q163 344 140.50 307.50Q118 271 118 222Q118 172 140.50 135Q163 98 200 78Q237 58 279 58Z"  horiz-adv-x="571" vert-adv-y="1000"  />

      
      <glyph glyph-name="unif1" unicode="&#xf1;" d="M64 494L144 494L144 420Q171 459 217 483.50Q263 508 315 508Q393 508 441 461Q489 414 489 335L489 0L409 0L409 318Q409 373 376.50 404.50Q344 436 290 436Q249 436 216 415Q183 394 163.50 357Q144 320 144 275L144 0L64 0L64 494M363 567Q337 567 317 575.50Q297 584 274 599Q254 612 239.50 618Q225 624 208 624Q164 624 121 576L116 576L123 648Q146 669 169.50 679.50Q193 690 222 690Q248 690 268 681.50Q288 673 311 658Q331 645 345.50 639Q360 633 377 633Q421 633 464 681L469 681L462 609Q439 588 415.50 577.50Q392 567 363 567Z"  horiz-adv-x="547" vert-adv-y="1000"  />

      
      <glyph glyph-name="unif2" unicode="&#xf2;" d="M297-14Q225-14 166 19.50Q107 53 72.50 112.50Q38 172 38 247Q38 322 72.50 381.50Q107 441 166 474.50Q225 508 297 508Q369 508 428 474.50Q487 441 521.50 381.50Q556 322 556 247Q556 172 521.50 112.50Q487 53 428 19.50Q369-14 297-14M297 58Q348 58 388.50 82Q429 106 452.50 149Q476 192 476 247Q476 302 452.50 345Q429 388 388.50 412Q348 436 297 436Q246 436 205.50 412Q165 388 141.50 345Q118 302 118 247Q118 192 141.50 149Q165 106 205.50 82Q246 58 297 58M133 700L251 700L343 563L275 563L133 700Z"  horiz-adv-x="594" vert-adv-y="1000"  />

      
      <glyph glyph-name="unif3" unicode="&#xf3;" d="M297-14Q225-14 166 19.50Q107 53 72.50 112.50Q38 172 38 247Q38 322 72.50 381.50Q107 441 166 474.50Q225 508 297 508Q369 508 428 474.50Q487 441 521.50 381.50Q556 322 556 247Q556 172 521.50 112.50Q487 53 428 19.50Q369-14 297-14M297 58Q348 58 388.50 82Q429 106 452.50 149Q476 192 476 247Q476 302 452.50 345Q429 388 388.50 412Q348 436 297 436Q246 436 205.50 412Q165 388 141.50 345Q118 302 118 247Q118 192 141.50 149Q165 106 205.50 82Q246 58 297 58M343 700L461 700L319 563L251 563L343 700Z"  horiz-adv-x="594" vert-adv-y="1000"  />

      
      <glyph glyph-name="unif4" unicode="&#xf4;" d="M297-14Q225-14 166 19.50Q107 53 72.50 112.50Q38 172 38 247Q38 322 72.50 381.50Q107 441 166 474.50Q225 508 297 508Q369 508 428 474.50Q487 441 521.50 381.50Q556 322 556 247Q556 172 521.50 112.50Q487 53 428 19.50Q369-14 297-14M297 58Q348 58 388.50 82Q429 106 452.50 149Q476 192 476 247Q476 302 452.50 345Q429 388 388.50 412Q348 436 297 436Q246 436 205.50 412Q165 388 141.50 345Q118 302 118 247Q118 192 141.50 149Q165 106 205.50 82Q246 58 297 58M244 700L349 700L449 563L389 563L296 652L204 563L144 563L244 700Z"  horiz-adv-x="594" vert-adv-y="1000"  />

      
      <glyph glyph-name="unif5" unicode="&#xf5;" d="M297-14Q225-14 166 19.50Q107 53 72.50 112.50Q38 172 38 247Q38 322 72.50 381.50Q107 441 166 474.50Q225 508 297 508Q369 508 428 474.50Q487 441 521.50 381.50Q556 322 556 247Q556 172 521.50 112.50Q487 53 428 19.50Q369-14 297-14M297 58Q348 58 388.50 82Q429 106 452.50 149Q476 192 476 247Q476 302 452.50 345Q429 388 388.50 412Q348 436 297 436Q246 436 205.50 412Q165 388 141.50 345Q118 302 118 247Q118 192 141.50 149Q165 106 205.50 82Q246 58 297 58M367 567Q341 567 321 575.50Q301 584 278 599Q258 612 243.50 618Q229 624 212 624Q168 624 125 576L120 576L127 648Q150 669 173.50 679.50Q197 690 226 690Q252 690 272 681.50Q292 673 315 658Q335 645 349.50 639Q364 633 381 633Q425 633 468 681L473 681L466 609Q443 588 419.50 577.50Q396 567 367 567Z"  horiz-adv-x="594" vert-adv-y="1000"  />

      
      <glyph glyph-name="unif6" unicode="&#xf6;" d="M297-14Q225-14 166 19.50Q107 53 72.50 112.50Q38 172 38 247Q38 322 72.50 381.50Q107 441 166 474.50Q225 508 297 508Q369 508 428 474.50Q487 441 521.50 381.50Q556 322 556 247Q556 172 521.50 112.50Q487 53 428 19.50Q369-14 297-14M297 58Q348 58 388.50 82Q429 106 452.50 149Q476 192 476 247Q476 302 452.50 345Q429 388 388.50 412Q348 436 297 436Q246 436 205.50 412Q165 388 141.50 345Q118 302 118 247Q118 192 141.50 149Q165 106 205.50 82Q246 58 297 58M206 574Q184 574 168.50 589.50Q153 605 153 627Q153 650 168.50 666Q184 682 206 682Q228 682 244.50 666Q261 650 261 627Q261 605 245 589.50Q229 574 206 574M385 574Q363 574 347.50 589.50Q332 605 332 627Q332 650 347.50 666Q363 682 385 682Q407 682 423.50 666Q440 650 440 627Q440 605 424 589.50Q408 574 385 574Z"  horiz-adv-x="594" vert-adv-y="1000"  />

      
      <glyph glyph-name="unif7" unicode="&#xf7;" d="M246 436Q223 436 206.50 452.50Q190 469 190 492Q190 516 206.50 533Q223 550 246 550Q270 550 287 533Q304 516 304 492Q304 469 287 452.50Q270 436 246 436M48 340L446 340L446 274L48 274L48 340M246 68Q223 68 206.50 84.50Q190 101 190 124Q190 148 206.50 165Q223 182 246 182Q270 182 287 165Q304 148 304 124Q304 101 287 84.50Q270 68 246 68Z"  horiz-adv-x="494" vert-adv-y="1000"  />

      
      <glyph glyph-name="unif8" unicode="&#xf8;" d="M458 454Q504 419 530 365.50Q556 312 556 247Q556 172 521.50 112.50Q487 53 428 19.50Q369-14 297-14Q247-14 201 3L179-36L113 0L136 40Q90 75 64 128.50Q38 182 38 247Q38 322 72.50 381.50Q107 441 166 474.50Q225 508 297 508Q347 508 393 491L415 530L481 494L458 454M118 247Q118 204 132.50 167.50Q147 131 173 106L356 427Q329 436 297 436Q246 436 205.50 412Q165 388 141.50 345Q118 302 118 247M297 58Q348 58 388.50 82Q429 106 452.50 149Q476 192 476 247Q476 290 461.50 326.50Q447 363 421 388L238 67Q265 58 297 58Z"  horiz-adv-x="594" vert-adv-y="1000"  />

      
      <glyph glyph-name="unif9" unicode="&#xf9;" d="M232-14Q154-14 106 33Q58 80 58 159L58 494L138 494L138 176Q138 121 170.50 89.50Q203 58 257 58Q298 58 331 79Q364 100 383.50 137Q403 174 403 219L403 494L483 494L483 0L403 0L403 74Q376 35 330 10.50Q284-14 232-14M110 700L228 700L320 563L252 563L110 700Z"  horiz-adv-x="547" vert-adv-y="1000"  />

      
      <glyph glyph-name="unifa" unicode="&#xfa;" d="M232-14Q154-14 106 33Q58 80 58 159L58 494L138 494L138 176Q138 121 170.50 89.50Q203 58 257 58Q298 58 331 79Q364 100 383.50 137Q403 174 403 219L403 494L483 494L483 0L403 0L403 74Q376 35 330 10.50Q284-14 232-14M320 700L438 700L296 563L228 563L320 700Z"  horiz-adv-x="547" vert-adv-y="1000"  />

      
      <glyph glyph-name="unifb" unicode="&#xfb;" d="M232-14Q154-14 106 33Q58 80 58 159L58 494L138 494L138 176Q138 121 170.50 89.50Q203 58 257 58Q298 58 331 79Q364 100 383.50 137Q403 174 403 219L403 494L483 494L483 0L403 0L403 74Q376 35 330 10.50Q284-14 232-14M221 700L326 700L426 563L366 563L273 652L181 563L121 563L221 700Z"  horiz-adv-x="547" vert-adv-y="1000"  />

      
      <glyph glyph-name="unifc" unicode="&#xfc;" d="M232-14Q154-14 106 33Q58 80 58 159L58 494L138 494L138 176Q138 121 170.50 89.50Q203 58 257 58Q298 58 331 79Q364 100 383.50 137Q403 174 403 219L403 494L483 494L483 0L403 0L403 74Q376 35 330 10.50Q284-14 232-14M183 574Q161 574 145.50 589.50Q130 605 130 627Q130 650 145.50 666Q161 682 183 682Q205 682 221.50 666Q238 650 238 627Q238 605 222 589.50Q206 574 183 574M362 574Q340 574 324.50 589.50Q309 605 309 627Q309 650 324.50 666Q340 682 362 682Q384 682 400.50 666Q417 650 417 627Q417 605 401 589.50Q385 574 362 574Z"  horiz-adv-x="547" vert-adv-y="1000"  />

      
      <glyph glyph-name="unifd" unicode="&#xfd;" d="M206 89L14 494L100 494L248 177L401 494L487 494L139-226L54-226L206 89M297 700L415 700L273 563L205 563L297 700Z"  horiz-adv-x="501" vert-adv-y="1000"  />

      
      <glyph glyph-name="unife" unicode="&#xfe;" d="M64 700L144 700L144 420Q178 458 224.50 483Q271 508 327 508Q397 508 454.50 474.50Q512 441 545.50 381.50Q579 322 579 247Q579 172 545.50 112.50Q512 53 455 19.50Q398-14 330-14Q271-14 222 10Q173 34 144 72L144-226L64-226L64 700M319 58Q370 58 411 83.50Q452 109 475.50 152.50Q499 196 499 247Q499 298 475.50 341.50Q452 385 411 410.50Q370 436 319 436Q268 436 227 410.50Q186 385 162.50 341.50Q139 298 139 247Q139 196 162.50 152.50Q186 109 227 83.50Q268 58 319 58Z"  horiz-adv-x="617" vert-adv-y="1000"  />

      
      <glyph glyph-name="uniff" unicode="&#xff;" d="M206 89L14 494L100 494L248 177L401 494L487 494L139-226L54-226L206 89M160 574Q138 574 122.50 589.50Q107 605 107 627Q107 650 122.50 666Q138 682 160 682Q182 682 198.50 666Q215 650 215 627Q215 605 199 589.50Q183 574 160 574M339 574Q317 574 301.50 589.50Q286 605 286 627Q286 650 301.50 666Q317 682 339 682Q361 682 377.50 666Q394 650 394 627Q394 605 378 589.50Q362 574 339 574Z"  horiz-adv-x="501" vert-adv-y="1000"  />

      
      <glyph glyph-name="uni0100" unicode="&#x0100;" d="M324 700L350 700L654 0L564 0L504 142L170 142L110 0L20 0L324 700M471 218L337 532L203 218L471 218M222 860L452 860L452 796L222 796L222 860Z"  horiz-adv-x="674" vert-adv-y="1000"  />

      
      <glyph glyph-name="uni0101" unicode="&#x0101;" d="M296-14Q224-14 165 21Q106 56 72 116Q38 176 38 247Q38 318 72 378Q106 438 165 473Q224 508 296 508Q351 508 396 486.50Q441 465 469 432L469 494L549 494L549 0L469 0L469 62Q441 29 396 7.50Q351-14 296-14M296 58Q349 58 389.50 83.50Q430 109 452 152Q474 195 474 247Q474 299 452 342Q430 385 389.50 410.50Q349 436 296 436Q243 436 202.50 410.50Q162 385 140 342Q118 299 118 247Q118 195 140 152Q162 109 202.50 83.50Q243 58 296 58M181 654L411 654L411 590L181 590L181 654Z"  horiz-adv-x="613" vert-adv-y="1000"  />

      
      <glyph glyph-name="uni0102" unicode="&#x0102;" d="M324 700L350 700L654 0L564 0L504 142L170 142L110 0L20 0L324 700M471 218L337 532L203 218L471 218M337 775Q286 775 253 805.50Q220 836 220 886L282 886Q284 859 298 843.50Q312 828 337 828Q362 828 376 843.50Q390 859 392 886L454 886Q454 836 421 805.50Q388 775 337 775Z"  horiz-adv-x="674" vert-adv-y="1000"  />

      
      <glyph glyph-name="uni0103" unicode="&#x0103;" d="M296-14Q224-14 165 21Q106 56 72 116Q38 176 38 247Q38 318 72 378Q106 438 165 473Q224 508 296 508Q351 508 396 486.50Q441 465 469 432L469 494L549 494L549 0L469 0L469 62Q441 29 396 7.50Q351-14 296-14M296 58Q349 58 389.50 83.50Q430 109 452 152Q474 195 474 247Q474 299 452 342Q430 385 389.50 410.50Q349 436 296 436Q243 436 202.50 410.50Q162 385 140 342Q118 299 118 247Q118 195 140 152Q162 109 202.50 83.50Q243 58 296 58M296 569Q245 569 212 599.50Q179 630 179 680L241 680Q243 653 257 637.50Q271 622 296 622Q321 622 335 637.50Q349 653 351 680L413 680Q413 630 380 599.50Q347 569 296 569Z"  horiz-adv-x="613" vert-adv-y="1000"  />

      
      <glyph glyph-name="uni0104" unicode="&#x0104;" d="M739-169L731-221Q710-231 690-235.50Q670-240 644-240Q589-240 553-208Q517-176 517-125Q517-87 538-55Q559-23 596 0L564 0L504 142L170 142L110 0L20 0L324 700L350 700L654 0Q619-29 600-57.50Q581-86 581-119Q581-150 602-170Q623-190 655-190Q700-190 732-166L739-169M471 218L337 532L203 218L471 218Z"  horiz-adv-x="674" vert-adv-y="1000"  />

      
      <glyph glyph-name="uni0105" unicode="&#x0105;" d="M634-169L626-221Q605-231 585-235.50Q565-240 539-240Q484-240 448-208Q412-176 412-125Q412-87 433-55Q454-23 491 0L469 0L469 62Q441 29 396 7.50Q351-14 296-14Q224-14 165 21Q106 56 72 116Q38 176 38 247Q38 318 72 378Q106 438 165 473Q224 508 296 508Q351 508 396 486.50Q441 465 469 432L469 494L549 494L549 0Q514-29 495-57.50Q476-86 476-119Q476-150 497-170Q518-190 550-190Q595-190 627-166L634-169M296 58Q349 58 389.50 83.50Q430 109 452 152Q474 195 474 247Q474 299 452 342Q430 385 389.50 410.50Q349 436 296 436Q243 436 202.50 410.50Q162 385 140 342Q118 299 118 247Q118 195 140 152Q162 109 202.50 83.50Q243 58 296 58Z"  horiz-adv-x="613" vert-adv-y="1000"  />

      
      <glyph glyph-name="uni0106" unicode="&#x0106;" d="M396-14Q297-14 215.50 33Q134 80 87 163Q40 246 40 350Q40 454 88 537Q136 620 218 667Q300 714 399 714Q515 714 603 654L609 555L599 555Q556 595 507 616.50Q458 638 395 638Q324 638 263 603Q202 568 166 502.50Q130 437 130 350Q130 263 166 197.50Q202 132 263 97Q324 62 395 62Q458 62 507 83.50Q556 105 599 145L609 145L603 46Q515-14 396-14M432 906L550 906L408 769L340 769L432 906Z"  horiz-adv-x="663" vert-adv-y="1000"  />

      
      <glyph glyph-name="uni0107" unicode="&#x0107;" d="M296-14Q225-14 166.50 18Q108 50 73 109Q38 168 38 247Q38 325 73.50 384.50Q109 444 168 476Q227 508 296 508Q339 508 376 496Q413 484 439 464L442 384L433 384Q401 412 369.50 424Q338 436 296 436Q244 436 203.50 411.50Q163 387 140.50 344Q118 301 118 247Q118 163 165.50 110.50Q213 58 296 58Q337 58 367.50 70Q398 82 431 110L440 110L437 30Q383-14 296-14M335 700L453 700L311 563L243 563L335 700Z"  horiz-adv-x="492" vert-adv-y="1000"  />

      
      <glyph glyph-name="uni0108" unicode="&#x0108;" d="M396-14Q297-14 215.50 33Q134 80 87 163Q40 246 40 350Q40 454 88 537Q136 620 218 667Q300 714 399 714Q515 714 603 654L609 555L599 555Q556 595 507 616.50Q458 638 395 638Q324 638 263 603Q202 568 166 502.50Q130 437 130 350Q130 263 166 197.50Q202 132 263 97Q324 62 395 62Q458 62 507 83.50Q556 105 599 145L609 145L603 46Q515-14 396-14M338 906L443 906L543 769L483 769L390 858L298 769L238 769L338 906Z"  horiz-adv-x="663" vert-adv-y="1000"  />

      
      <glyph glyph-name="uni0109" unicode="&#x0109;" d="M296-14Q225-14 166.50 18Q108 50 73 109Q38 168 38 247Q38 325 73.50 384.50Q109 444 168 476Q227 508 296 508Q339 508 376 496Q413 484 439 464L442 384L433 384Q401 412 369.50 424Q338 436 296 436Q244 436 203.50 411.50Q163 387 140.50 344Q118 301 118 247Q118 163 165.50 110.50Q213 58 296 58Q337 58 367.50 70Q398 82 431 110L440 110L437 30Q383-14 296-14M236 700L341 700L441 563L381 563L288 652L196 563L136 563L236 700Z"  horiz-adv-x="492" vert-adv-y="1000"  />

      
      <glyph glyph-name="uni010A" unicode="&#x010A;" d="M396-14Q297-14 215.50 33Q134 80 87 163Q40 246 40 350Q40 454 88 537Q136 620 218 667Q300 714 399 714Q515 714 603 654L609 555L599 555Q556 595 507 616.50Q458 638 395 638Q324 638 263 603Q202 568 166 502.50Q130 437 130 350Q130 263 166 197.50Q202 132 263 97Q324 62 395 62Q458 62 507 83.50Q556 105 599 145L609 145L603 46Q515-14 396-14M391 794Q368 794 351.50 810.50Q335 827 335 850Q335 873 351.50 889.50Q368 906 391 906Q414 906 430.50 889.50Q447 873 447 850Q447 827 430.50 810.50Q414 794 391 794Z"  horiz-adv-x="663" vert-adv-y="1000"  />

      
      <glyph glyph-name="uni010B" unicode="&#x010B;" d="M296-14Q225-14 166.50 18Q108 50 73 109Q38 168 38 247Q38 325 73.50 384.50Q109 444 168 476Q227 508 296 508Q339 508 376 496Q413 484 439 464L442 384L433 384Q401 412 369.50 424Q338 436 296 436Q244 436 203.50 411.50Q163 387 140.50 344Q118 301 118 247Q118 163 165.50 110.50Q213 58 296 58Q337 58 367.50 70Q398 82 431 110L440 110L437 30Q383-14 296-14M289 588Q266 588 249.50 604.50Q233 621 233 644Q233 667 249.50 683.50Q266 700 289 700Q312 700 328.50 683.50Q345 667 345 644Q345 621 328.50 604.50Q312 588 289 588Z"  horiz-adv-x="492" vert-adv-y="1000"  />

      
      <glyph glyph-name="uni010C" unicode="&#x010C;" d="M396-14Q297-14 215.50 33Q134 80 87 163Q40 246 40 350Q40 454 88 537Q136 620 218 667Q300 714 399 714Q515 714 603 654L609 555L599 555Q556 595 507 616.50Q458 638 395 638Q324 638 263 603Q202 568 166 502.50Q130 437 130 350Q130 263 166 197.50Q202 132 263 97Q324 62 395 62Q458 62 507 83.50Q556 105 599 145L609 145L603 46Q515-14 396-14M238 906L298 906L390 817L483 906L543 906L443 769L338 769L238 906Z"  horiz-adv-x="663" vert-adv-y="1000"  />

      
      <glyph glyph-name="uni010D" unicode="&#x010D;" d="M296-14Q225-14 166.50 18Q108 50 73 109Q38 168 38 247Q38 325 73.50 384.50Q109 444 168 476Q227 508 296 508Q339 508 376 496Q413 484 439 464L442 384L433 384Q401 412 369.50 424Q338 436 296 436Q244 436 203.50 411.50Q163 387 140.50 344Q118 301 118 247Q118 163 165.50 110.50Q213 58 296 58Q337 58 367.50 70Q398 82 431 110L440 110L437 30Q383-14 296-14M136 700L196 700L288 611L381 700L441 700L341 563L236 563L136 700Z"  horiz-adv-x="492" vert-adv-y="1000"  />

      
      <glyph glyph-name="uni010E" unicode="&#x010E;" d="M70 700L226 700Q323 700 405 657.50Q487 615 536 535.50Q585 456 585 350Q585 244 536 164.50Q487 85 405 42.50Q323 0 226 0L70 0L70 700M228 76Q303 76 363.50 108Q424 140 459.50 202Q495 264 495 350Q495 436 459.50 498Q424 560 363.50 592Q303 624 228 624L160 624L160 76L228 76M100 906L160 906L252 817L345 906L405 906L305 769L200 769L100 906Z"  horiz-adv-x="625" vert-adv-y="1000"  />

      
      <glyph glyph-name="uni010F" unicode="&#x010F;" d="M292-14Q222-14 164 20Q106 54 72 114Q38 174 38 247Q38 320 72 380Q106 440 165.50 474Q225 508 298 508Q352 508 399 485.50Q446 463 473 429L473 720L553 720L553 0L473 0L473 67Q441 30 395.50 8Q350-14 292-14M298 58Q351 58 392 83.50Q433 109 455.50 152Q478 195 478 247Q478 299 455.50 342Q433 385 392 410.50Q351 436 298 436Q245 436 204 410.50Q163 385 140.50 342Q118 299 118 247Q118 195 140.50 152Q163 109 204 83.50Q245 58 298 58M620 513Q665 550 668 596Q646 596 629 612Q612 628 612 651Q612 676 628 693Q644 710 668 710Q693 710 709.50 692.50Q726 675 726 650Q726 602 701 563Q676 524 637 497L620 513Z"  horiz-adv-x="726" vert-adv-y="1000"  />

      
      <glyph glyph-name="uni0110" unicode="&#x0110;" d="M70 316L-8 316L-8 382L70 382L70 700L226 700Q323 700 405 657.50Q487 615 536 535.50Q585 456 585 350Q585 244 536 164.50Q487 85 405 42.50Q323 0 226 0L70 0L70 316M228 76Q303 76 363.50 108Q424 140 459.50 202Q495 264 495 350Q495 436 459.50 498Q424 560 363.50 592Q303 624 228 624L160 624L160 382L300 382L300 316L160 316L160 76L228 76Z"  horiz-adv-x="625" vert-adv-y="1000"  />

      
      <glyph glyph-name="uni0111" unicode="&#x0111;" d="M292-14Q222-14 164 20Q106 54 72 114Q38 174 38 247Q38 320 72 380Q106 440 165.50 474Q225 508 298 508Q352 508 399 485.50Q446 463 473 429L473 578L311 578L311 636L473 636L473 720L553 720L553 636L619 636L619 578L553 578L553 0L473 0L473 67Q441 30 395.50 8Q350-14 292-14M298 58Q351 58 392 83.50Q433 109 455.50 152Q478 195 478 247Q478 299 455.50 342Q433 385 392 410.50Q351 436 298 436Q245 436 204 410.50Q163 385 140.50 342Q118 299 118 247Q118 195 140.50 152Q163 109 204 83.50Q245 58 298 58Z"  horiz-adv-x="617" vert-adv-y="1000"  />

      
      <glyph glyph-name="uni0112" unicode="&#x0112;" d="M70 700L470 700L470 624L160 624L160 398L459 398L459 322L160 322L160 76L474 76L474 0L70 0L70 700M164 860L394 860L394 796L164 796L164 860Z"  horiz-adv-x="518" vert-adv-y="1000"  />

      
      <glyph glyph-name="uni0113" unicode="&#x0113;" d="M296-14Q224-14 165 20.50Q106 55 72 115Q38 175 38 247Q38 320 71.50 379.50Q105 439 161.50 473.50Q218 508 284 508Q353 508 407.50 478Q462 448 492.50 393.50Q523 339 523 266L523 226L118 226Q122 173 148.50 135Q175 97 214 77.50Q253 58 295 58Q348 58 389.50 75.50Q431 93 480 138L488 138L485 51Q441 18 396 2Q351-14 296-14M450 292Q442 359 397 400.50Q352 442 284 442Q227 442 180.50 402.50Q134 363 122 292L450 292M174 654L404 654L404 590L174 590L174 654Z"  horiz-adv-x="565" vert-adv-y="1000"  />

      
      <glyph glyph-name="uni0114" unicode="&#x0114;" d="M70 700L470 700L470 624L160 624L160 398L459 398L459 322L160 322L160 76L474 76L474 0L70 0L70 700M279 775Q228 775 195 805.50Q162 836 162 886L224 886Q226 859 240 843.50Q254 828 279 828Q304 828 318 843.50Q332 859 334 886L396 886Q396 836 363 805.50Q330 775 279 775Z"  horiz-adv-x="518" vert-adv-y="1000"  />

      
      <glyph glyph-name="uni0115" unicode="&#x0115;" d="M296-14Q224-14 165 20.50Q106 55 72 115Q38 175 38 247Q38 320 71.50 379.50Q105 439 161.50 473.50Q218 508 284 508Q353 508 407.50 478Q462 448 492.50 393.50Q523 339 523 266L523 226L118 226Q122 173 148.50 135Q175 97 214 77.50Q253 58 295 58Q348 58 389.50 75.50Q431 93 480 138L488 138L485 51Q441 18 396 2Q351-14 296-14M450 292Q442 359 397 400.50Q352 442 284 442Q227 442 180.50 402.50Q134 363 122 292L450 292M289 569Q238 569 205 599.50Q172 630 172 680L234 680Q236 653 250 637.50Q264 622 289 622Q314 622 328 637.50Q342 653 344 680L406 680Q406 630 373 599.50Q340 569 289 569Z"  horiz-adv-x="565" vert-adv-y="1000"  />

      
      <glyph glyph-name="uni0116" unicode="&#x0116;" d="M70 700L470 700L470 624L160 624L160 398L459 398L459 322L160 322L160 76L474 76L474 0L70 0L70 700M279 794Q256 794 239.50 810.50Q223 827 223 850Q223 873 239.50 889.50Q256 906 279 906Q302 906 318.50 889.50Q335 873 335 850Q335 827 318.50 810.50Q302 794 279 794Z"  horiz-adv-x="518" vert-adv-y="1000"  />

      
      <glyph glyph-name="uni0117" unicode="&#x0117;" d="M296-14Q224-14 165 20.50Q106 55 72 115Q38 175 38 247Q38 320 71.50 379.50Q105 439 161.50 473.50Q218 508 284 508Q353 508 407.50 478Q462 448 492.50 393.50Q523 339 523 266L523 226L118 226Q122 173 148.50 135Q175 97 214 77.50Q253 58 295 58Q348 58 389.50 75.50Q431 93 480 138L488 138L485 51Q441 18 396 2Q351-14 296-14M450 292Q442 359 397 400.50Q352 442 284 442Q227 442 180.50 402.50Q134 363 122 292L450 292M289 588Q266 588 249.50 604.50Q233 621 233 644Q233 667 249.50 683.50Q266 700 289 700Q312 700 328.50 683.50Q345 667 345 644Q345 621 328.50 604.50Q312 588 289 588Z"  horiz-adv-x="565" vert-adv-y="1000"  />

      
      <glyph glyph-name="uni0118" unicode="&#x0118;" d="M559-169L551-221Q530-231 510-235.50Q490-240 464-240Q409-240 373-208Q337-176 337-125Q337-87 358-55Q379-23 416 0L70 0L70 700L470 700L470 624L160 624L160 398L459 398L459 322L160 322L160 76L474 76L474 0Q439-29 420-57.50Q401-86 401-119Q401-150 422-170Q443-190 475-190Q520-190 552-166L559-169Z"  horiz-adv-x="518" vert-adv-y="1000"  />

      
      <glyph glyph-name="uni0119" unicode="&#x0119;" d="M523 226L118 226Q122 173 148.50 135Q175 97 214 77.50Q253 58 295 58Q348 58 389.50 75.50Q431 93 480 138L488 138L485 51Q434 13 388 0Q353-29 334.50-57.50Q316-86 316-119Q316-150 337-170Q358-190 390-190Q435-190 467-166L474-169L466-221Q445-231 425-235.50Q405-240 379-240Q324-240 288-208Q252-176 252-125Q252-93 267.50-64.50Q283-36 311-14L296-14Q224-14 165 20.50Q106 55 72 115Q38 175 38 247Q38 320 71.50 379.50Q105 439 161.50 473.50Q218 508 284 508Q353 508 407.50 478Q462 448 492.50 393.50Q523 339 523 266L523 226M450 292Q442 359 397 400.50Q352 442 284 442Q227 442 180.50 402.50Q134 363 122 292L450 292Z"  horiz-adv-x="565" vert-adv-y="1000"  />

      
      <glyph glyph-name="uni011A" unicode="&#x011A;" d="M70 700L470 700L470 624L160 624L160 398L459 398L459 322L160 322L160 76L474 76L474 0L70 0L70 700M126 906L186 906L278 817L371 906L431 906L331 769L226 769L126 906Z"  horiz-adv-x="518" vert-adv-y="1000"  />

      
      <glyph glyph-name="uni011B" unicode="&#x011B;" d="M296-14Q224-14 165 20.50Q106 55 72 115Q38 175 38 247Q38 320 71.50 379.50Q105 439 161.50 473.50Q218 508 284 508Q353 508 407.50 478Q462 448 492.50 393.50Q523 339 523 266L523 226L118 226Q122 173 148.50 135Q175 97 214 77.50Q253 58 295 58Q348 58 389.50 75.50Q431 93 480 138L488 138L485 51Q441 18 396 2Q351-14 296-14M450 292Q442 359 397 400.50Q352 442 284 442Q227 442 180.50 402.50Q134 363 122 292L450 292M136 700L196 700L288 611L381 700L441 700L341 563L236 563L136 700Z"  horiz-adv-x="565" vert-adv-y="1000"  />

      
      <glyph glyph-name="uni011C" unicode="&#x011C;" d="M394-14Q297-14 216 32Q135 78 87.50 161Q40 244 40 350Q40 456 90 539Q140 622 224.50 668Q309 714 408 714Q542 714 632 649L638 557L626 557Q570 602 519.50 620Q469 638 409 638Q338 638 274 605Q210 572 170 507Q130 442 130 350Q130 258 167.50 193Q205 128 266 95Q327 62 397 62Q448 62 498 81Q548 100 588 139L588 316L366 316L366 392L678 392L678 111Q553-14 394-14M353 906L458 906L558 769L498 769L405 858L313 769L253 769L353 906Z"  horiz-adv-x="732" vert-adv-y="1000"  />

      
      <glyph glyph-name="uni011D" unicode="&#x011D;" d="M280-240Q195-240 124-197L121-117L134-117Q168-142 204-155Q240-168 291-168Q367-168 414.50-124Q462-80 462 2L462 78Q431 39 385 19.50Q339 0 286 0Q219 0 162 31Q105 62 71.50 120Q38 178 38 254Q38 330 73 387.50Q108 445 166 476.50Q224 508 291 508Q345 508 390.50 487.50Q436 467 462 433L462 494L542 494L542 45Q542-103 473-171.50Q404-240 280-240M294 72Q350 72 389.50 97Q429 122 449.50 164Q470 206 470 254Q470 302 449.50 344Q429 386 389.50 411Q350 436 294 436Q238 436 198.50 411Q159 386 138.50 344Q118 302 118 254Q118 206 138.50 164Q159 122 198.50 97Q238 72 294 72M239 700L344 700L444 563L384 563L291 652L199 563L139 563L239 700Z"  horiz-adv-x="606" vert-adv-y="1000"  />

      
      <glyph glyph-name="uni011E" unicode="&#x011E;" d="M394-14Q297-14 216 32Q135 78 87.50 161Q40 244 40 350Q40 456 90 539Q140 622 224.50 668Q309 714 408 714Q542 714 632 649L638 557L626 557Q570 602 519.50 620Q469 638 409 638Q338 638 274 605Q210 572 170 507Q130 442 130 350Q130 258 167.50 193Q205 128 266 95Q327 62 397 62Q448 62 498 81Q548 100 588 139L588 316L366 316L366 392L678 392L678 111Q553-14 394-14M406 775Q355 775 322 805.50Q289 836 289 886L351 886Q353 859 367 843.50Q381 828 406 828Q431 828 445 843.50Q459 859 461 886L523 886Q523 836 490 805.50Q457 775 406 775Z"  horiz-adv-x="732" vert-adv-y="1000"  />

      
      <glyph glyph-name="uni011F" unicode="&#x011F;" d="M280-240Q195-240 124-197L121-117L134-117Q168-142 204-155Q240-168 291-168Q367-168 414.50-124Q462-80 462 2L462 78Q431 39 385 19.50Q339 0 286 0Q219 0 162 31Q105 62 71.50 120Q38 178 38 254Q38 330 73 387.50Q108 445 166 476.50Q224 508 291 508Q345 508 390.50 487.50Q436 467 462 433L462 494L542 494L542 45Q542-103 473-171.50Q404-240 280-240M294 72Q350 72 389.50 97Q429 122 449.50 164Q470 206 470 254Q470 302 449.50 344Q429 386 389.50 411Q350 436 294 436Q238 436 198.50 411Q159 386 138.50 344Q118 302 118 254Q118 206 138.50 164Q159 122 198.50 97Q238 72 294 72M299 569Q248 569 215 599.50Q182 630 182 680L244 680Q246 653 260 637.50Q274 622 299 622Q324 622 338 637.50Q352 653 354 680L416 680Q416 630 383 599.50Q350 569 299 569Z"  horiz-adv-x="606" vert-adv-y="1000"  />

      
      <glyph glyph-name="uni0120" unicode="&#x0120;" d="M394-14Q297-14 216 32Q135 78 87.50 161Q40 244 40 350Q40 456 90 539Q140 622 224.50 668Q309 714 408 714Q542 714 632 649L638 557L626 557Q570 602 519.50 620Q469 638 409 638Q338 638 274 605Q210 572 170 507Q130 442 130 350Q130 258 167.50 193Q205 128 266 95Q327 62 397 62Q448 62 498 81Q548 100 588 139L588 316L366 316L366 392L678 392L678 111Q553-14 394-14M406 794Q383 794 366.50 810.50Q350 827 350 850Q350 873 366.50 889.50Q383 906 406 906Q429 906 445.50 889.50Q462 873 462 850Q462 827 445.50 810.50Q429 794 406 794Z"  horiz-adv-x="732" vert-adv-y="1000"  />

      
      <glyph glyph-name="uni0121" unicode="&#x0121;" d="M280-240Q195-240 124-197L121-117L134-117Q168-142 204-155Q240-168 291-168Q367-168 414.50-124Q462-80 462 2L462 78Q431 39 385 19.50Q339 0 286 0Q219 0 162 31Q105 62 71.50 120Q38 178 38 254Q38 330 73 387.50Q108 445 166 476.50Q224 508 291 508Q345 508 390.50 487.50Q436 467 462 433L462 494L542 494L542 45Q542-103 473-171.50Q404-240 280-240M294 72Q350 72 389.50 97Q429 122 449.50 164Q470 206 470 254Q470 302 449.50 344Q429 386 389.50 411Q350 436 294 436Q238 436 198.50 411Q159 386 138.50 344Q118 302 118 254Q118 206 138.50 164Q159 122 198.50 97Q238 72 294 72M291 588Q268 588 251.50 604.50Q235 621 235 644Q235 667 251.50 683.50Q268 700 291 700Q314 700 330.50 683.50Q347 667 347 644Q347 621 330.50 604.50Q314 588 291 588Z"  horiz-adv-x="606" vert-adv-y="1000"  />

      
      <glyph glyph-name="uni0122" unicode="&#x0122;" d="M394-14Q297-14 216 32Q135 78 87.50 161Q40 244 40 350Q40 456 90 539Q140 622 224.50 668Q309 714 408 714Q542 714 632 649L638 557L626 557Q570 602 519.50 620Q469 638 409 638Q338 638 274 605Q210 572 170 507Q130 442 130 350Q130 258 167.50 193Q205 128 266 95Q327 62 397 62Q448 62 498 81Q548 100 588 139L588 316L366 316L366 392L678 392L678 111Q553-14 394-14M337-277Q382-247 385-194Q363-194 346-178Q329-162 329-139Q329-114 345-97Q361-80 385-80Q410-80 426.50-98.50Q443-117 443-147Q443-194 415-233.50Q387-273 344-296L337-277Z"  horiz-adv-x="732" vert-adv-y="1000"  />

      
      <glyph glyph-name="uni0123" unicode="&#x0123;" d="M280-240Q195-240 124-197L121-117L134-117Q168-142 204-155Q240-168 291-168Q367-168 414.50-124Q462-80 462 2L462 78Q431 39 385 19.50Q339 0 286 0Q219 0 162 31Q105 62 71.50 120Q38 178 38 254Q38 330 73 387.50Q108 445 166 476.50Q224 508 291 508Q345 508 390.50 487.50Q436 467 462 433L462 494L542 494L542 45Q542-103 473-171.50Q404-240 280-240M294 72Q350 72 389.50 97Q429 122 449.50 164Q470 206 470 254Q470 302 449.50 344Q429 386 389.50 411Q350 436 294 436Q238 436 198.50 411Q159 386 138.50 344Q118 302 118 254Q118 206 138.50 164Q159 122 198.50 97Q238 72 294 72M298 567Q273 567 256.50 584.50Q240 602 240 627Q240 675 265 714Q290 753 329 780L346 764Q301 727 298 681Q320 681 337 665Q354 649 354 626Q354 601 338 584Q322 567 298 567Z"  horiz-adv-x="606" vert-adv-y="1000"  />

      
      <glyph glyph-name="uni0124" unicode="&#x0124;" d="M70 700L160 700L160 407L490 407L490 700L580 700L580 0L490 0L490 331L160 331L160 0L70 0L70 700M272 906L377 906L477 769L417 769L324 858L232 769L172 769L272 906Z"  horiz-adv-x="650" vert-adv-y="1000"  />

      
      <glyph glyph-name="uni0125" unicode="&#x0125;" d="M64 720L144 720L144 418Q171 457 219.50 482.50Q268 508 319 508Q399 508 448 461.50Q497 415 497 335L497 0L417 0L417 318Q417 372 382.50 404Q348 436 294 436Q253 436 219 415Q185 394 164.50 357Q144 320 144 275L144 0L64 0L64 720M201 926L306 926L406 789L346 789L253 878L161 789L101 789L201 926Z"  horiz-adv-x="555" vert-adv-y="1000"  />

      
      <glyph glyph-name="uni0126" unicode="&#x0126;" d="M100 524L20 524L20 588L100 588L100 700L190 700L190 588L520 588L520 700L610 700L610 588L690 588L690 524L610 524L610 0L520 0L520 331L190 331L190 0L100 0L100 524M520 407L520 524L190 524L190 407L520 407Z"  horiz-adv-x="710" vert-adv-y="1000"  />

      
      <glyph glyph-name="uni0127" unicode="&#x0127;" d="M64 578L0 578L0 636L64 636L64 720L144 720L144 636L306 636L306 578L144 578L144 418Q171 457 219.50 482.50Q268 508 319 508Q399 508 448 461.50Q497 415 497 335L497 0L417 0L417 318Q417 372 382.50 404Q348 436 294 436Q253 436 219 415Q185 394 164.50 357Q144 320 144 275L144 0L64 0L64 578Z"  horiz-adv-x="555" vert-adv-y="1000"  />

      
      <glyph glyph-name="uni0128" unicode="&#x0128;" d="M70 700L160 700L160 0L70 0L70 700M185 773Q159 773 139 781.50Q119 790 96 805Q76 818 61.50 824Q47 830 30 830Q-14 830-57 782L-62 782L-55 854Q-32 875-8.50 885.50Q15 896 44 896Q70 896 90 887.50Q110 879 133 864Q153 851 167.50 845Q182 839 199 839Q243 839 286 887L291 887L284 815Q261 794 237.50 783.50Q214 773 185 773Z"  horiz-adv-x="230" vert-adv-y="1000"  />

      
      <glyph glyph-name="uni0129" unicode="&#x0129;" d="M64 494L144 494L144 0L64 0L64 494M174 567Q148 567 128 575.50Q108 584 85 599Q65 612 50.50 618Q36 624 19 624Q-25 624-68 576L-73 576L-66 648Q-43 669-19.50 679.50Q4 690 33 690Q59 690 79 681.50Q99 673 122 658Q142 645 156.50 639Q171 633 188 633Q232 633 275 681L280 681L273 609Q250 588 226.50 577.50Q203 567 174 567Z"  horiz-adv-x="208" vert-adv-y="1000"  />

      
      <glyph glyph-name="uni012A" unicode="&#x012A;" d="M70 700L160 700L160 0L70 0L70 700M0 860L230 860L230 796L0 796L0 860Z"  horiz-adv-x="230" vert-adv-y="1000"  />

      
      <glyph glyph-name="uni012B" unicode="&#x012B;" d="M64 494L144 494L144 0L64 0L64 494M-11 654L219 654L219 590L-11 590L-11 654Z"  horiz-adv-x="208" vert-adv-y="1000"  />

      
      <glyph glyph-name="uni012C" unicode="&#x012C;" d="M70 700L160 700L160 0L70 0L70 700M115 775Q64 775 31 805.50Q-2 836-2 886L60 886Q62 859 76 843.50Q90 828 115 828Q140 828 154 843.50Q168 859 170 886L232 886Q232 836 199 805.50Q166 775 115 775Z"  horiz-adv-x="230" vert-adv-y="1000"  />

      
      <glyph glyph-name="uni012D" unicode="&#x012D;" d="M64 494L144 494L144 0L64 0L64 494M104 569Q53 569 20 599.50Q-13 630-13 680L49 680Q51 653 65 637.50Q79 622 104 622Q129 622 143 637.50Q157 653 159 680L221 680Q221 630 188 599.50Q155 569 104 569Z"  horiz-adv-x="208" vert-adv-y="1000"  />

      
      <glyph glyph-name="uni012E" unicode="&#x012E;" d="M150-240Q95-240 59-208Q23-176 23-125Q23-87 43.50-54.50Q64-22 102 0L70 0L70 700L160 700L160 0Q125-29 106-57.50Q87-86 87-119Q87-150 108-170Q129-190 161-190Q206-190 238-166L245-169L237-221Q216-231 196-235.50Q176-240 150-240Z"  horiz-adv-x="230" vert-adv-y="1000"  />

      
      <glyph glyph-name="uni012F" unicode="&#x012F;" d="M104 588Q81 588 64.50 604.50Q48 621 48 644Q48 667 64.50 683.50Q81 700 104 700Q127 700 143.50 683.50Q160 667 160 644Q160 621 143.50 604.50Q127 588 104 588M229-169L221-221Q200-231 180-235.50Q160-240 134-240Q79-240 43-208Q7-176 7-125Q7-87 28-55Q49-23 86 0L64 0L64 494L144 494L144 0Q109-29 90-57.50Q71-86 71-119Q71-150 92-170Q113-190 145-190Q190-190 222-166L229-169Z"  horiz-adv-x="208" vert-adv-y="1000"  />

      
      <glyph glyph-name="uni0130" unicode="&#x0130;" d="M70 700L160 700L160 0L70 0L70 700M115 794Q92 794 75.50 810.50Q59 827 59 850Q59 873 75.50 889.50Q92 906 115 906Q138 906 154.50 889.50Q171 873 171 850Q171 827 154.50 810.50Q138 794 115 794Z"  horiz-adv-x="230" vert-adv-y="1000"  />

      
      <glyph glyph-name="uni0131" unicode="&#x0131;" d="M64 494L144 494L144 0L64 0L64 494Z"  horiz-adv-x="208" vert-adv-y="1000"  />

      
      <glyph glyph-name="uni0132" unicode="&#x0132;" d="M70 700L160 700L160 0L70 0L70 700M359-14Q333-14 313.50-11Q294-8 265 0L256 85L269 85Q313 62 352 62Q434 62 434 155L434 700L524 700L524 165Q524 84 481 35Q438-14 359-14Z"  horiz-adv-x="594" vert-adv-y="1000"  />

      
      </font>
</defs>
</svg>
