<svg width="25" height="24" viewBox="0 0 25 24" fill="none" xmlns="http://www.w3.org/2000/svg">
<path d="M12.0485 2.16716C15.2552 2.16716 15.6384 2.17724 16.909 2.23771C18.0787 2.28811 18.714 2.48971 19.1375 2.65099C19.7022 2.87274 20.0955 3.12474 20.5191 3.54809C20.9426 3.97144 21.2048 4.36455 21.4165 4.92902C21.5779 5.35237 21.7796 5.9874 21.83 7.15666C21.8905 8.42671 21.9006 8.79966 21.9006 12.0151C21.9006 15.2306 21.8905 15.6035 21.83 16.8736C21.7796 18.0428 21.5779 18.6779 21.4165 19.1012C21.1947 19.6657 20.9426 20.0588 20.5191 20.4821C20.0955 20.9055 19.7022 21.1676 19.1375 21.3793C18.714 21.5405 18.0787 21.7421 16.909 21.7925C15.6384 21.853 15.2653 21.8631 12.0485 21.8631C8.83166 21.8631 8.45855 21.853 7.18796 21.7925C6.01821 21.7421 5.38292 21.5405 4.95939 21.3793C4.39468 21.1575 4.0014 20.9055 3.57787 20.4821C3.15435 20.0588 2.89216 19.6657 2.68039 19.1012C2.51905 18.6779 2.31737 18.0428 2.26695 16.8736C2.20644 15.6035 2.19636 15.2306 2.19636 12.0151C2.19636 8.79966 2.20644 8.42671 2.26695 7.15666C2.31737 5.9874 2.51905 5.35237 2.68039 4.92902C2.90224 4.36455 3.15435 3.97144 3.57787 3.54809C4.0014 3.12474 4.39468 2.86266 4.95939 2.65099C5.38292 2.48971 6.01821 2.28811 7.18796 2.23771C8.45855 2.17724 8.83166 2.16716 12.0485 2.16716ZM12.0485 0C8.78124 0 8.37788 0.0100795 7.0972 0.0705583C5.81653 0.131037 4.93922 0.332633 4.18292 0.624947C3.39636 0.927341 2.72073 1.34061 2.05518 2.01596C1.38964 2.68123 0.976193 3.35657 0.673672 4.1428C0.381235 4.90886 0.16947 5.77572 0.11905 7.05586C0.0585456 8.33599 0.0484619 8.74926 0.0484619 12.005C0.0484619 15.2608 0.0585456 15.6741 0.11905 16.9542C0.179554 18.2344 0.381235 19.1113 0.673672 19.8673C0.976193 20.6535 1.38964 21.3289 2.05518 21.9941C2.72073 22.6594 3.39636 23.0727 4.18292 23.3751C4.9493 23.6674 5.81653 23.879 7.0972 23.9294C8.37788 23.9899 8.79132 24 12.0485 24C15.3056 24 15.7191 23.9899 16.9997 23.9294C18.2804 23.869 19.1577 23.6674 19.914 23.3751C20.7006 23.0727 21.3762 22.6594 22.0417 21.9941C22.7073 21.3289 23.1207 20.6535 23.4233 19.8673C23.7157 19.1012 23.9275 18.2344 23.9779 16.9542C24.0384 15.6741 24.0485 15.2608 24.0485 12.005C24.0485 8.74926 24.0384 8.33599 23.9779 7.05586C23.9174 5.77572 23.7157 4.89878 23.4233 4.1428C23.1207 3.35657 22.7073 2.68123 22.0417 2.01596C21.3762 1.35069 20.7006 0.937421 19.914 0.624947C19.1476 0.332633 18.2804 0.120957 16.9997 0.0705583C15.7191 0.0100795 15.3056 0 12.0485 0Z" fill="white"/>
<path d="M12.0485 5.8457C8.6401 5.8457 5.87708 8.60757 5.87708 12.0145C5.87708 15.4215 8.6401 18.1834 12.0485 18.1834C15.4569 18.1834 18.2199 15.4215 18.2199 12.0145C18.2199 8.60757 15.4569 5.8457 12.0485 5.8457ZM12.0485 16.0162C9.8401 16.0162 8.04514 14.222 8.04514 12.0145C8.04514 9.80706 9.8401 8.01286 12.0485 8.01286C14.2569 8.01286 16.0519 9.80706 16.0519 12.0145C16.0519 14.222 14.2569 16.0162 12.0485 16.0162Z" fill="white"/>
<path d="M19.9038 5.60547C19.9038 6.40178 19.2584 7.04689 18.4618 7.04689C17.6652 7.04689 17.0198 6.40178 17.0198 5.60547C17.0198 4.80917 17.6652 4.16406 18.4618 4.16406C19.2584 4.16406 19.9038 4.80917 19.9038 5.60547Z" fill="white"/>
</svg>
