<svg width="24" height="24" viewBox="0 0 24 24" fill="none" xmlns="http://www.w3.org/2000/svg">
<path d="M7.89958 3.1C6.29958 4.7 5.89958 6 6.39958 8.2C6.99958 11.4 10.5996 17 11.9996 17C13.3996 17 16.9996 11.4 17.5996 8.2C18.2996 4.8 15.3996 1 11.9996 1C10.8996 1 9.09958 1.9 7.89958 3.1ZM14.9996 4.5C16.3996 6.2 15.7996 9.6 13.4996 12.5L11.9996 14.5L10.4996 12.5C6.99958 8.1 7.89958 3 11.9996 3C12.9996 3 14.2996 3.7 14.9996 4.5Z" fill="#1C1C1C"/>
<path d="M10.3998 6.10087C9.3998 7.80087 11.6998 9.70087 13.0998 8.30087C14.2998 7.10087 13.4998 5.00087 11.9998 5.00087C11.4998 5.00087 10.7998 5.50087 10.3998 6.10087Z" fill="#1C1C1C"/>
<path d="M4.6 15.9C4.3 16.3 3.6 17.9 3.1 19.4L2 22H12H21.9L20.8 18.9C19.8 15.9 17.5 14.1 16.3 15.3C16 15.6 16.6 16.7 17.6 17.7C19.3 19.4 19.2 19.5 15.7 19.8C13.7 20 10.3 20 8.3 19.8C4.9 19.5 4.7 19.4 6.3 17.8C7.2 16.9 8 15.9 8 15.6C8 14.7 5.2 14.9 4.6 15.9Z" fill="#1C1C1C"/>
</svg>
