<svg width="60" height="60" viewBox="0 0 60 60" fill="none" xmlns="http://www.w3.org/2000/svg">
<rect width="60" height="60" rx="5" fill="#766146"/>
<g clip-path="url(#clip0_194_156)">
<path d="M10.3767 16.2683L29.6654 34.5176L48.7592 16.2755C48.831 16.2077 48.9218 16.1774 48.9995 16.1211C48.1013 15.43 46.9877 15 45.7568 15H13.2881C12.0793 15 10.9789 15.4141 10.088 16.0865C10.1847 16.15 10.2931 16.1846 10.3767 16.2683Z" fill="#FFFDFA"/>
<path d="M50.1511 41.3727C50.3372 41.4592 50.5101 41.5804 50.6581 41.7262C50.9028 41.1288 51.0435 40.4781 51.0435 39.7942V20.2059C51.0435 19.8942 51.0039 19.5927 50.9511 19.2969L39.2261 30.4993C43.956 35.3805 49.0492 40.4911 50.1511 41.3727Z" fill="#FFFDFA"/>
<path d="M36.5477 33.0597L30.9709 38.3881C30.609 38.7344 30.1401 38.9061 29.6727 38.9061C29.2053 38.9061 28.7423 38.7359 28.3818 38.3939L22.6468 32.9688L10.9144 44.4236C11.6309 44.78 12.4295 45.0008 13.2882 45.0008H45.7583C46.6111 45.0008 47.4023 44.7844 48.1159 44.4309C46.5774 43.3703 43.6322 40.388 36.5477 33.0597Z" fill="#FFFDFA"/>
<path d="M8.10257 19.209C8.03956 19.5322 8 19.864 8 20.2074V39.7943C8 40.4753 8.14213 41.1246 8.3839 41.722L19.9565 30.4244L8.10257 19.209Z" fill="#FFFDFA"/>
</g>
<defs>
<clipPath id="clip0_194_156">
<rect width="43.0435" height="30" fill="white" transform="translate(8 15)"/>
</clipPath>
</defs>
</svg>
