<svg width="60" height="60" viewBox="0 0 60 60" fill="none" xmlns="http://www.w3.org/2000/svg">
<rect width="60" height="60" rx="5" fill="#766146"/>
<g clip-path="url(#clip0_194_154)">
<path d="M32.4313 38.9225C33.4066 39.8167 34.4359 39.5402 35.6318 38.063C37.3577 40.374 44.3605 47.7418 44.3605 47.7418C44.3605 47.7418 41.6444 49.7846 36.4896 47.932C33.1522 46.7333 25.967 42.3636 20.4277 35.0117C17.4141 31.0097 15.5229 26.2736 14.032 20.7223C12.8431 15.8401 14.5569 13.8966 16.5562 12.6676L23.7147 23.8078C23.7147 23.8078 21.2363 25.4171 23.3064 28.5606C23.3064 28.5606 26.0017 34.4223 32.4327 38.9222L32.4313 38.9225Z" fill="#FFFDFA"/>
<path d="M18.1536 11.7749C18.1536 11.7749 21.1509 9.69747 23.7625 12.5807C26.3751 15.462 29.0229 20.3016 25.3412 23.0236C23.3582 20.2044 18.1536 11.7749 18.1536 11.7749Z" fill="#FFFDFA"/>
<path d="M37.2689 36.8686L46.186 46.3269C46.186 46.3269 48.9499 42.9249 46.9126 40.8139C44.8748 38.7014 42.445 36.0274 42.445 36.0274C42.445 36.0274 40.1777 34.03 37.2689 36.8686Z" fill="#FFFDFA"/>
</g>
<defs>
<clipPath id="clip0_194_154">
<rect width="26.88" height="42" fill="white" transform="translate(12.0131 13.2051) rotate(-15.0329)"/>
</clipPath>
</defs>
</svg>
