<svg width="60" height="60" viewBox="0 0 60 60" fill="none" xmlns="http://www.w3.org/2000/svg">
<rect width="60" height="60" rx="5" fill="#766146"/>
<g clip-path="url(#clip0_194_155)">
<path d="M34.9775 37.1746V47.0023L42.3158 46.9971C43.1196 46.9971 43.772 46.4283 43.772 45.7276V32.2575H46.5406C47.7614 32.2575 48.4408 31.0273 47.6804 30.1958L43.1361 25.2238L43.2816 17.1755C43.2921 16.4682 42.6367 15.8903 41.8254 15.8903H38.2215C37.4161 15.8903 36.7652 16.459 36.7652 17.1598V20.3511L30.0193 13.4481C29.4254 12.8402 28.3411 12.8559 27.7697 13.4808L12.3193 30.3971C11.5574 31.2299 12.2413 32.4615 13.4636 32.4589L15.5707 32.4536V45.7263C15.5707 46.4283 16.2231 46.9958 17.027 46.9958H24.6472L24.6622 37.1942" fill="#FFFDFA"/>
</g>
<defs>
<clipPath id="clip0_194_155">
<rect width="36" height="34" fill="white" transform="translate(12 13)"/>
</clipPath>
</defs>
</svg>
