<svg width="31" height="25" viewBox="0 0 31 25" fill="none" xmlns="http://www.w3.org/2000/svg">
<path d="M1.81729 10.8311C1.81729 10.8311 15.1173 5.33108 19.7173 3.43108C21.5173 2.63108 27.5173 0.231076 27.5173 0.231076C27.5173 0.231076 30.3173 -0.868924 30.0173 1.73108C29.9173 2.83108 29.3173 6.53109 28.7173 10.6311C27.8173 16.4311 26.8173 22.7311 26.8173 22.7311C26.8173 22.7311 26.6173 24.5311 25.3173 24.8311C24.0173 25.1311 21.8173 23.7311 21.5173 23.4311C21.2173 23.2311 15.7173 19.7311 13.7173 18.0311C13.2173 17.5311 12.5173 16.6311 13.8173 15.5311C16.6173 13.0311 19.9173 9.83108 21.9173 7.83108C22.8173 6.93108 23.7173 4.73108 19.9173 7.33108C14.4173 11.1311 9.11728 14.6311 9.11728 14.6311C9.11728 14.6311 7.91728 15.4311 5.61728 14.7311C3.31728 14.0311 0.617277 13.1311 0.617277 13.1311C0.617277 13.1311 -1.38271 12.0311 1.81729 10.8311Z" fill="#FFFDFA"/>
</svg>
