<svg width="796" height="796" viewBox="0 0 796 796" fill="none" xmlns="http://www.w3.org/2000/svg">
<g clip-path="url(#clip0_1_262)">
<mask id="mask0_1_262" style="mask-type:luminance" maskUnits="userSpaceOnUse" x="0" y="0" width="796" height="796">
<path d="M0 0H796V796H0V0Z" fill="white"/>
</mask>
<g mask="url(#mask0_1_262)">
<g opacity="0.2">
<path d="M271.173 69.7296C275.703 68.1933 280.614 70.6132 282.15 75.1424C282.723 76.8299 282.747 78.5652 282.317 80.1652L398.422 123.086C398.637 122.99 398.852 122.902 399.083 122.823C400.213 122.441 401.367 122.305 402.482 122.385L436.757 -84.8616C434.043 -85.578 431.727 -87.5918 430.755 -90.4495C429.219 -94.9787 431.639 -99.89 436.168 -101.434C440.697 -102.971 445.609 -100.551 447.153 -96.0215C447.758 -94.2305 447.742 -92.3837 447.225 -90.7042L581.932 -35.2787C582.927 -37.1812 584.622 -38.7174 586.811 -39.4577C589.748 -40.4527 592.845 -39.7761 595.082 -37.9453L668.035 -111.703C667.366 -112.499 666.817 -113.43 666.459 -114.481C664.923 -119.01 667.343 -123.921 671.872 -125.465C676.401 -127.002 681.312 -124.582 682.857 -120.053C683.788 -117.307 683.255 -114.417 681.686 -112.228L768.53 -36.815C769.414 -37.6588 770.488 -38.3433 771.722 -38.7652C775.782 -40.1423 780.152 -38.3274 782.118 -34.6738L888.384 -85.3153C886.919 -89.8127 889.331 -94.6683 893.828 -96.1966C898.358 -97.7329 903.269 -95.313 904.805 -90.7838C905.076 -89.9958 905.211 -89.1918 905.251 -88.3958L993.265 -81.8845C993.774 -84.9252 995.9 -87.5918 999.02 -88.6505C999.832 -88.9291 1000.65 -89.0724 1001.46 -89.1042L1008.67 -223.071C1005.56 -223.533 1002.81 -225.666 1001.73 -228.85C1000.19 -233.379 1002.61 -238.291 1007.14 -239.827C1011.67 -241.363 1016.58 -238.943 1018.12 -234.414C1018.23 -234.08 1018.31 -233.753 1018.39 -233.419L1214.95 -256.185C1214.86 -259.862 1217.16 -263.333 1220.83 -264.582C1225.35 -266.119 1230.27 -263.699 1231.8 -259.17C1233.34 -254.64 1230.92 -249.729 1226.39 -248.193C1225.1 -247.755 1223.78 -247.652 1222.51 -247.811L1159.4 34.8728C1161.71 35.7643 1163.62 37.6349 1164.48 40.1662C1166.01 44.6954 1163.59 49.6068 1159.06 51.151C1154.53 52.6873 1149.62 50.2674 1148.09 45.7382C1147.94 45.2845 1147.83 44.8307 1147.75 44.377L1045.9 46.1999C1045.73 49.6386 1043.5 52.7828 1040.05 53.9529C1038.92 54.335 1037.78 54.4703 1036.66 54.3907L990.503 290.803C993.114 291.575 995.326 293.549 996.266 296.319C997.802 300.848 995.382 305.76 990.853 307.304C986.324 308.84 981.412 306.42 979.868 301.891C979.518 300.848 979.383 299.79 979.422 298.763L868.993 284.005C868.341 286.831 866.295 289.266 863.35 290.269L864.122 290.07L935.507 564.213C939.614 563.536 943.722 565.9 945.099 569.968C945.807 572.061 945.664 574.234 944.86 576.129L1049.18 632.239C1050.19 630.695 1051.72 629.469 1053.6 628.824C1058.13 627.288 1063.04 629.708 1064.58 634.237C1066.11 638.766 1063.69 643.678 1059.17 645.222C1057.4 645.819 1055.58 645.811 1053.92 645.317L987.335 811.363C989.269 812.35 990.829 814.061 991.585 816.274C993.121 820.803 990.702 825.715 986.172 827.259C984.286 827.896 982.344 827.84 980.592 827.243L935.754 927.181C937.545 928.192 938.986 929.831 939.694 931.925C941.23 936.454 938.81 941.366 934.281 942.902C933.804 943.061 933.318 943.172 932.84 943.252L941.66 1143.88C945.035 1144.12 948.1 1146.34 949.262 1149.73C950.13 1152.3 949.732 1154.99 948.394 1157.12L1056.38 1242.78C1057.33 1241.74 1058.54 1240.93 1059.96 1240.45C1064.49 1238.91 1069.4 1241.33 1070.94 1245.86C1072.47 1250.39 1070.05 1255.3 1065.53 1256.84C1065.49 1256.84 1065.46 1256.85 1065.42 1256.87L1085.95 1417.6C1089.37 1417.8 1092.49 1420.02 1093.66 1423.46C1095.2 1427.99 1092.78 1432.9 1088.25 1434.45C1084.73 1435.64 1080.99 1434.44 1078.77 1431.72L969.305 1488.75C969.353 1488.86 969.401 1488.97 969.44 1489.09C970.977 1493.62 968.557 1498.53 964.028 1500.08C959.498 1501.61 954.587 1499.19 953.051 1494.67C952.685 1493.59 952.549 1492.5 952.605 1491.43L838.236 1480.41C837.671 1483.37 835.577 1485.95 832.521 1486.98C827.991 1488.52 823.08 1486.1 821.536 1481.57C820.334 1478.02 821.568 1474.24 824.338 1472.03L714.378 1304.48C713.972 1304.7 713.55 1304.89 713.105 1305.04C708.575 1306.58 703.664 1304.16 702.12 1299.63C700.583 1295.1 703.003 1290.19 707.533 1288.64C708.257 1288.4 708.989 1288.26 709.722 1288.21L712.34 1176.92C709.125 1176.54 706.251 1174.38 705.145 1171.11C703.608 1166.58 706.028 1161.67 710.557 1160.12C712.563 1159.45 714.641 1159.54 716.464 1160.25L770.958 1050.78C769.31 1049.76 767.989 1048.19 767.32 1046.21C766.588 1044.06 766.763 1041.83 767.615 1039.91L515.474 898.7C514.455 900.18 512.974 901.366 511.135 901.995C506.606 903.532 501.695 901.112 500.159 896.583C498.622 892.053 501.042 887.142 505.571 885.598C506.893 885.152 508.238 885.048 509.528 885.224L588.722 544.95C584.455 545.921 580.061 543.525 578.62 539.29C577.084 534.761 579.504 529.849 584.033 528.305C584.447 528.162 584.861 528.066 585.283 527.995L574.25 400.014C570.668 399.99 567.325 397.729 566.107 394.147C565.494 392.34 565.518 390.478 566.052 388.79L416.053 326.344L416.205 328.533L414.613 325.739L413.713 325.365L414.167 324.951L277.533 85.8327C277.271 85.9521 277.008 86.0556 276.737 86.1511C272.208 87.6874 267.297 85.2675 265.761 80.7383C264.224 76.209 266.644 71.2977 271.173 69.7535V69.7296ZM516.453 890.676L654.113 852.094C653.349 847.939 655.713 843.744 659.836 842.343L639.745 758.174L514.917 888.105C515.561 888.845 516.079 889.713 516.445 890.668L516.453 890.676ZM1082.7 1418.03C1083.25 1417.84 1083.81 1417.72 1084.37 1417.64L1075.15 1345.45L1063.88 1257.2C1063.04 1257.31 1062.21 1257.3 1061.39 1257.16L998.566 1406.95L1077.12 1424.03C1077.83 1421.31 1079.85 1419 1082.7 1418.03ZM974.742 819.076C974.734 816.975 975.498 814.953 976.851 813.385L920.144 754.433L832.274 829.488C832.743 830.148 833.125 830.889 833.404 831.693C833.531 832.075 833.627 832.457 833.699 832.847L974.75 819.084L974.742 819.076ZM928.709 575.516C928.287 574.274 928.176 573.009 928.311 571.791L800.267 545.602L915.941 586.501L929.394 577.036C929.123 576.559 928.884 576.057 928.701 575.516H928.709ZM981.906 293.032L865.976 155.714L784.768 207.406C784.96 207.78 785.135 208.162 785.27 208.576C785.883 210.375 785.859 212.238 785.334 213.925L980.417 295.053C980.807 294.313 981.301 293.637 981.898 293.032H981.906ZM1151.63 35.6529L1101.96 -57.4314L1042.58 38.9324C1043.87 39.9353 1044.89 41.3124 1045.46 42.9681C1045.64 43.5094 1045.76 44.0507 1045.84 44.5919L1147.63 42.7691C1147.69 39.9035 1149.18 37.213 1151.63 35.6529ZM1101.09 -59.0632L1013.28 -223.652C1013.09 -223.573 1012.9 -223.493 1012.71 -223.429C1012.34 -223.302 1011.95 -223.214 1011.58 -223.135L1037.54 37.1016C1038.84 37.1414 1040.11 37.4757 1041.24 38.0647L1101.09 -59.0632ZM1215.41 -253.59C1215.3 -253.924 1215.21 -254.258 1215.14 -254.585L1018.58 -231.819C1018.65 -228.858 1017.17 -226.04 1014.68 -224.4L1102.05 -60.6393L1218.4 -249.45C1217.05 -250.461 1215.99 -251.87 1215.4 -253.582L1215.41 -253.59ZM572.308 382.916C573.996 382.51 575.707 382.637 577.251 383.194L630.169 270.178L524.142 225.212C523.259 226.852 521.858 228.213 520.051 229.017L572.3 382.916H572.308ZM718.533 1294.03C719.226 1296.06 719.106 1298.18 718.366 1300.04L866.128 1375.93C866.534 1375.29 867.027 1374.7 867.6 1374.18L743.162 1209.14L714.036 1288.99C716.082 1289.97 717.745 1291.72 718.533 1294.03V1294.03ZM760.506 1179.89L869.869 1372.69C870.124 1372.57 870.378 1372.47 870.641 1372.38C872.137 1371.87 873.666 1371.8 875.114 1372.09L921.8 1215.04L763.722 1175.65C763.125 1177.35 762.019 1178.84 760.506 1179.89ZM866.669 1370.3L759.113 1180.69C758.859 1180.8 758.604 1180.91 758.341 1181C756.67 1181.57 754.942 1181.59 753.358 1181.18L743.806 1207.36L866.669 1370.31V1370.3ZM763.754 1170.02C763.874 1170.37 763.961 1170.72 764.033 1171.07L932.411 1152.6C932.395 1151.08 932.785 1149.6 933.501 1148.3L826.781 1078.08L761.326 1166.35C762.401 1167.32 763.253 1168.55 763.746 1170.02H763.754ZM926.106 941.445C925.812 941.206 925.525 940.952 925.262 940.673L783.073 1039.15C783.336 1039.61 783.559 1040.09 783.734 1040.61C784.53 1042.97 784.251 1045.43 783.168 1047.46L826.399 1075.91L926.098 941.437L926.106 941.445ZM782.166 1037.83L924.267 939.415C923.877 938.818 923.551 938.173 923.312 937.465C922.843 936.088 922.747 934.671 922.962 933.326L810.909 898.055L778.313 1035.2C779.801 1035.7 781.139 1036.61 782.173 1037.83H782.166ZM822.427 842.662C819.96 841.826 817.898 839.907 816.999 837.249C816.871 836.867 816.776 836.492 816.704 836.11L671.267 850.486C671.267 851.123 671.203 851.752 671.068 852.365L809.739 896.017L822.419 842.662H822.427ZM852.253 279.635L773.975 254.728L766.882 318.082C769.223 318.567 771.316 320.008 772.574 322.133L852.214 284.331C851.784 282.739 851.816 281.123 852.253 279.635ZM766.309 -27.7804C766.11 -28.3694 765.983 -28.9585 765.911 -29.5475L675.788 -30.0092L676.003 26.1964C678.351 26.4033 680.532 27.5735 682.005 29.4361L767.042 -26.1725C766.747 -26.674 766.5 -27.2073 766.309 -27.7804ZM673.886 -108.638C672.15 -108.797 670.503 -109.474 669.165 -110.572L596.212 -36.815C596.881 -36.019 597.43 -35.0876 597.78 -34.0369C598.011 -33.3683 598.138 -32.6837 598.202 -32.0071L674.18 -31.6171L673.886 -108.638ZM598.194 -30.4151C598.059 -29.0619 597.613 -27.7645 596.897 -26.6262L668.895 28.9107C669.842 27.8918 671.044 27.0879 672.453 26.6103C673.098 26.3874 673.75 26.26 674.403 26.1964L674.188 -30.0251L598.194 -30.4151ZM582.218 387.803L756.717 328.557C756.335 326.981 756.423 325.381 756.893 323.916L631.634 270.791L578.692 383.863C580.212 384.755 581.462 386.1 582.218 387.795V387.803ZM822.419 826.264C823.064 826.041 823.725 825.914 824.377 825.85L823.884 661.245C823.096 661.301 822.316 661.245 821.56 661.086L755.484 740.368L820.66 827.1C821.201 826.765 821.782 826.479 822.411 826.272L822.419 826.264ZM670.821 847.756C670.948 848.13 671.044 848.512 671.116 848.894L701.372 845.901L816.553 834.511C816.537 832.043 817.58 829.695 819.387 828.047L754.433 741.617L668.751 844.429C669.659 845.336 670.383 846.45 670.821 847.748V847.756ZM754.497 739.054L819.912 660.569C818.885 660.131 817.954 659.494 817.158 658.698L734.342 678.16L719.6 681.623C719.998 684.433 718.979 687.227 716.973 689.121L754.497 739.054ZM719.226 680.047C719.226 680.047 719.226 680.055 719.226 680.063L816.043 657.305C815.669 656.716 815.343 656.087 815.112 655.395C814.73 654.256 814.587 653.094 814.674 651.972L747.675 618.269L715.986 675.74C717.443 676.759 718.605 678.224 719.226 680.039V680.047ZM783.837 549.375C782.516 548.372 781.473 546.971 780.9 545.284C780.677 544.623 780.542 543.955 780.486 543.286H780.383L595.416 537.539C595.328 538.255 595.153 538.964 594.891 539.632L747.014 616.152L783.837 549.367V549.375ZM768.427 211.29C768.451 208.52 769.804 205.901 772.08 204.293L740.439 149.449L662.957 211.505C663.355 212.11 663.689 212.763 663.936 213.479C664.007 213.694 664.063 213.909 664.119 214.132L768.427 211.29ZM758.508 320.995L661.237 222.936C660.449 223.581 659.542 224.106 658.523 224.456C656.764 225.053 654.949 225.045 653.293 224.56L632.319 269.35L757.521 322.452C757.8 321.934 758.126 321.449 758.508 320.995ZM524.723 218.327C524.914 218.884 525.042 219.449 525.113 220.007L570.246 218.414L647.1 215.7C647.132 215.215 647.212 214.745 647.315 214.275L550.92 181.966L522.717 215.071C523.593 215.971 524.293 217.061 524.723 218.327ZM647.825 212.763C648.772 210.622 650.563 208.87 652.951 208.059C653.914 207.732 654.893 207.597 655.856 207.605L673.512 43.2865C672.333 43.0477 671.227 42.5701 670.248 41.8776L552.026 180.652L647.817 212.755L647.825 212.763ZM678.009 43.0079C677.046 43.3343 676.067 43.4696 675.104 43.4616L657.448 207.78C659.16 208.13 660.736 208.99 661.954 210.248L739.627 148.04L678.853 42.6815C678.582 42.8009 678.303 42.9124 678.017 43.0159L678.009 43.0079ZM662.654 221.455L759.655 319.849C760.435 319.212 761.334 318.687 762.345 318.344C763.324 318.01 764.319 317.875 765.29 317.891L772.415 254.219L663.689 219.624C663.418 220.269 663.068 220.89 662.646 221.447L662.654 221.455ZM786.321 534.299C786.44 534.259 786.567 534.227 786.687 534.196L773.672 413.323L765.266 335.204C763.428 335.227 761.645 334.662 760.172 333.628L660.33 451.181L782.158 537.332C783.169 535.971 784.585 534.888 786.321 534.299ZM651.805 223.963C649.87 222.976 648.294 221.264 647.538 219.043C647.347 218.486 647.22 217.921 647.148 217.356L525.169 221.606C525.129 222.339 524.986 223.047 524.771 223.732L630.846 268.722L651.805 223.963ZM510.244 215.159C511.183 214.164 512.361 213.376 513.746 212.906C516.469 211.983 519.318 212.5 521.507 214.029L549.288 181.416L409.717 134.635C409.534 135.033 409.319 135.416 409.08 135.782L471.296 184.6L510.244 215.159ZM410.298 129.079C410.617 130.448 410.577 131.841 410.25 133.139L550.41 180.111L669.046 40.8507C668.369 40.1582 667.796 39.3542 667.374 38.4309L410.306 129.079H410.298ZM680.23 41.8776L740.893 147.029L805.066 95.6394C804.668 95.0345 804.334 94.3817 804.087 93.6653C803.482 91.8823 803.498 90.0356 804.008 88.364L682.904 38.821C682.276 40.0229 681.368 41.0816 680.23 41.8855V41.8776ZM806.061 96.8812L741.705 148.43L773.465 203.489C773.736 203.37 774.014 203.259 774.301 203.155C775.782 202.654 777.302 202.582 778.735 202.861L809.102 98.9189C807.964 98.4652 806.929 97.7727 806.061 96.8812ZM768.88 214.14C768.737 213.726 768.642 213.304 768.57 212.89L664.373 215.724C664.421 216.536 664.358 217.34 664.19 218.112L772.614 252.611L776.267 219.967C772.98 219.656 770.019 217.467 768.888 214.14H768.88ZM785.198 550.219L748.447 616.868L814.961 650.324C815.661 647.777 817.524 645.596 820.135 644.569L790.237 551.079C788.47 551.318 786.719 550.991 785.19 550.219H785.198ZM667.518 843.41L753.446 740.312L715.715 690.1C715.134 690.474 714.506 690.793 713.813 691.024C712.388 691.509 710.932 691.597 709.546 691.358L665.782 842.486C666.395 842.725 666.976 843.043 667.518 843.418V843.41ZM708.241 674.626C710.406 673.894 712.659 674.069 714.593 674.944L746.242 617.545L594.174 541.057C593.848 541.582 593.458 542.068 593.02 542.514L706.195 675.645C706.816 675.223 707.501 674.873 708.241 674.626ZM595.034 533.686C595.289 534.434 595.424 535.191 595.472 535.939L780.494 541.686C780.589 540.643 780.876 539.632 781.33 538.701L659.295 452.407L593.02 530.431C593.896 531.33 594.604 532.421 595.034 533.694V533.686ZM758.954 332.593C758.254 331.876 757.665 331.033 757.235 330.069L582.736 389.316C583.269 391.529 582.887 393.781 581.812 395.652L659.024 450.249L758.954 332.593ZM409.638 127.233L410.179 127.432L666.849 36.9265C666.371 35.032 666.562 33.1057 667.287 31.4181L575.723 -18.2045L408.913 125.991C409.192 126.381 409.431 126.795 409.646 127.233H409.638ZM666.881 29.3804L595.925 -25.3526C594.978 -24.3337 593.776 -23.5297 592.367 -23.0521C589.199 -21.9775 585.848 -22.8452 583.587 -25.0103L577.005 -19.3189L666.873 29.3804H666.881ZM677.436 -109.052C676.791 -108.829 676.138 -108.702 675.486 -108.638L675.78 -31.6012L765.871 -31.1395C765.983 -32.7554 766.548 -34.2996 767.479 -35.6051L680.628 -111.002C679.744 -110.15 678.67 -109.474 677.428 -109.052H677.436ZM767.981 -24.875L694.414 23.2273L775.678 -21.9855C772.765 -21.5795 769.867 -22.7019 767.981 -24.875ZM683.151 31.3306C683.255 31.5614 683.35 31.7922 683.43 32.039C684.035 33.8221 684.019 35.6688 683.509 37.3404L804.613 86.8755C805.608 84.9651 807.303 83.4208 809.5 82.6805C811.434 82.0198 813.44 82.0915 815.223 82.7363L891.966 -80.6905C890.899 -81.3671 889.984 -82.2746 889.291 -83.381L683.151 31.3226V31.3306ZM902.346 -81.5104C901.51 -80.7701 900.515 -80.1811 899.392 -79.799C897.355 -79.1065 895.245 -79.2259 893.391 -79.9661L816.672 83.4208C817.198 83.7313 817.691 84.0894 818.145 84.5034L950.894 -35.5016L902.346 -81.5024V-81.5104ZM819.211 85.6894C819.745 86.3979 820.182 87.2018 820.477 88.0934C820.509 88.1968 820.533 88.2924 820.565 88.3958L1028.65 46.5182C1028.43 44.17 1029.2 41.8616 1030.69 40.1184L952.056 -34.4031L819.211 85.6894ZM1031.84 39.004C1032.6 38.3911 1033.49 37.8817 1034.47 37.5473L1003.38 -71.9504C1000.65 -71.441 997.905 -72.2768 995.939 -74.0757L953.242 -35.4777L1031.84 39.004ZM1004.92 -72.3882L1035.88 36.6638L1010.16 -221.185L1003.06 -89.0167C1006.18 -88.555 1008.92 -86.4217 1010 -83.2377C1011.49 -78.8279 1009.22 -74.0519 1004.92 -72.3882ZM1029.06 48.5321C1029.01 48.3889 1028.98 48.2376 1028.93 48.0943L820.891 89.9639C821.17 92.5668 820.246 95.122 818.455 96.9449L866.303 153.62L1029.56 49.6863C1029.37 49.3122 1029.2 48.9301 1029.06 48.5242V48.5321ZM817.229 97.9796C816.577 98.4334 815.852 98.8075 815.064 99.0781C813.584 99.5796 812.063 99.6512 810.63 99.3727L780.263 203.314C781.688 203.88 782.954 204.819 783.917 206.061L864.934 154.488L817.229 97.9796ZM783.296 217.372C782.373 218.335 781.21 219.099 779.857 219.553C779.196 219.776 778.528 219.911 777.867 219.967L774.158 253.104L852.842 278.138C853.081 277.669 853.36 277.215 853.678 276.793L783.296 217.372ZM852.779 285.836L773.258 323.582C773.282 323.646 773.314 323.701 773.33 323.773C774.866 328.302 772.446 333.214 767.917 334.758C767.567 334.877 767.209 334.965 766.85 335.036L788.255 533.901C788.844 533.845 789.433 533.845 790.006 533.909L857.117 290.007C855.262 289.203 853.694 287.762 852.771 285.844L852.779 285.836ZM796.955 546.128C795.992 548.205 794.225 549.909 791.885 550.705C791.861 550.713 791.829 550.721 791.805 550.728L821.671 644.131C824.775 643.526 827.912 644.68 829.902 647.013L914.341 587.631L796.955 546.128ZM830.817 648.318C831.088 648.796 831.327 649.297 831.51 649.838C831.669 650.308 831.772 650.778 831.852 651.247L1047.74 636.776C1047.76 636.131 1047.85 635.495 1048 634.882L916.188 588.284L830.825 648.318H830.817ZM1048.19 639.785C1048.03 639.315 1047.93 638.846 1047.85 638.376L831.955 652.847C831.9 654.853 831.151 656.772 829.854 658.276L920.24 752.236L1049.31 641.99C1048.84 641.329 1048.46 640.589 1048.19 639.785ZM828.708 659.382C827.944 659.987 827.076 660.489 826.097 660.823C825.89 660.895 825.683 660.943 825.476 660.998L825.969 825.858C827.951 826.033 829.806 826.893 831.231 828.278L919.03 753.287L828.708 659.39V659.382ZM830.913 840.974C830.085 841.706 829.098 842.287 827.983 842.669C826.654 843.123 825.285 843.219 823.987 843.036L811.283 896.503L923.368 931.782C923.647 930.994 924.045 930.245 924.546 929.569L830.921 840.974H830.913ZM927.451 942.321L827.745 1076.79L934.409 1146.98C935.396 1145.79 936.709 1144.83 938.285 1144.3C938.874 1144.1 939.471 1143.97 940.068 1143.9L931.248 943.332C929.903 943.292 928.606 942.942 927.444 942.321H927.451ZM932.88 1155.28C932.761 1154.92 932.665 1154.56 932.594 1154.19L764.224 1172.65C764.232 1173.14 764.192 1173.63 764.12 1174.11L922.262 1213.51L937.998 1160.58C935.674 1159.7 933.748 1157.82 932.88 1155.27V1155.28ZM876.651 1372.55C877.964 1373.08 879.15 1373.93 880.074 1375.03L1055.95 1253.95C1055.36 1253.2 1054.88 1252.35 1054.56 1251.4C1054.18 1250.28 1054.05 1249.13 1054.13 1248.02L923.36 1215.44L876.651 1372.56V1372.55ZM1059.83 1256.76C1058.82 1256.39 1057.88 1255.84 1057.06 1255.12L880.981 1376.35C881.236 1376.8 881.459 1377.28 881.634 1377.79C882.064 1379.06 882.175 1380.37 882.024 1381.62L996.982 1406.6L1059.83 1256.75V1256.76ZM881.673 1383.19C881.244 1384.55 880.472 1385.8 879.437 1386.8L957.349 1484.13C957.715 1483.95 958.09 1483.78 958.48 1483.65C960.549 1482.95 962.706 1483.08 964.577 1483.86L996.353 1408.11L881.681 1383.19H881.673ZM955.542 1485.34C955.678 1485.22 955.829 1485.11 955.98 1484.99L878.187 1387.8C877.582 1388.2 876.929 1388.53 876.213 1388.77C874.334 1389.41 872.4 1389.36 870.657 1388.77L860.412 1411.81L955.55 1485.35L955.542 1485.34ZM869.192 1388.12C867.393 1387.11 865.945 1385.47 865.228 1383.36C864.536 1381.32 864.655 1379.21 865.395 1377.35L717.69 1301.48L859.099 1410.8L869.192 1388.12ZM712.531 1288.44L742.007 1207.61L717.904 1175.64C717.355 1175.98 716.774 1176.27 716.137 1176.48C715.413 1176.73 714.681 1176.86 713.948 1176.91L711.322 1288.21C711.727 1288.25 712.125 1288.33 712.523 1288.43L712.531 1288.44ZM719.186 1174.69L742.66 1205.83L751.854 1180.62C749.808 1179.65 748.145 1177.9 747.356 1175.58C747.03 1174.62 746.895 1173.64 746.903 1172.68L721.829 1170C721.463 1171.8 720.539 1173.45 719.178 1174.69H719.186ZM760.053 1165.4L825.452 1077.19L782.293 1048.79C781.298 1050.04 779.945 1051.04 778.321 1051.59C777.222 1051.96 776.1 1052.1 775.009 1052.03L757.657 1164.4C758.5 1164.61 759.304 1164.95 760.045 1165.39L760.053 1165.4ZM772.757 1035.2C774.086 1034.74 775.455 1034.64 776.761 1034.83L809.381 897.585L670.598 853.901C669.985 855.358 668.982 856.647 667.669 857.586L771.881 1035.56C772.168 1035.43 772.462 1035.31 772.765 1035.21L772.757 1035.2ZM661.396 841.977C662.36 841.842 663.323 841.866 664.246 842.049L708.002 690.944C707.151 690.626 706.355 690.172 705.638 689.599L641.067 756.805L661.396 841.977ZM704.484 688.492C703.775 687.672 703.202 686.709 702.836 685.611C701.73 682.363 702.677 678.916 704.969 676.664L591.818 543.557C591.372 543.867 590.895 544.146 590.377 544.376L640.637 754.95L704.492 688.484L704.484 688.492ZM591.802 529.396L657.982 451.475L580.889 396.957C579.91 398.104 578.628 399.011 577.1 399.528C576.686 399.672 576.272 399.767 575.85 399.839L586.883 527.82C588.658 527.828 590.369 528.393 591.794 529.388L591.802 529.396ZM570.796 383.433L518.952 230.729L487.837 259.345L570.231 383.712C570.414 383.616 570.597 383.513 570.796 383.433ZM517.726 229.686C513.691 230.251 509.687 227.903 508.334 223.899C507.45 221.296 507.88 218.574 509.257 216.424L408.077 137.039C407.831 137.294 407.568 137.533 407.281 137.756L486.937 257.992L517.718 229.678L517.726 229.686ZM404.058 122.648C405.482 123.022 406.788 123.754 407.862 124.781L574.211 -19.0164L446.134 -88.4197C445.115 -86.8914 443.603 -85.6655 441.724 -85.0287C440.594 -84.6466 439.44 -84.5113 438.325 -84.5909L404.05 122.656L404.058 122.648ZM452.542 -86.7799L575.508 -20.1388L582.545 -26.2202C582.067 -26.8968 581.669 -27.6451 581.39 -28.4729C580.786 -30.2639 580.801 -32.1106 581.319 -33.7902L452.542 -86.7719V-86.7799ZM782.747 -33.1932C783.678 -30.2798 782.985 -27.2391 781.163 -25.0342L873.857 -76.615L782.747 -33.1932ZM905.179 -86.7879C904.964 -85.2834 904.367 -83.8586 903.436 -82.6725L952.08 -36.5762L994.873 -75.2618C994.339 -75.9702 993.902 -76.7742 993.607 -77.6657C993.313 -78.5333 993.169 -79.4169 993.145 -80.2845L905.171 -86.7879H905.179ZM1220.95 -248.137C1220.55 -248.264 1220.15 -248.424 1219.77 -248.607L1102.93 -58.9995L1153.05 34.9365C1153.2 34.8807 1153.34 34.8091 1153.49 34.7614C1154.95 34.2678 1156.44 34.1882 1157.85 34.4509L1220.94 -248.129L1220.95 -248.137ZM1035.09 54.1201C1033.25 53.6425 1031.6 52.5678 1030.42 51.0395L867.338 154.854L983.124 292.005C983.776 291.551 984.501 291.177 985.289 290.906C986.499 290.492 987.741 290.373 988.935 290.5L1035.09 54.128V54.1201ZM979.637 297.163C979.685 296.948 979.741 296.733 979.812 296.526L784.721 215.398C784.593 215.644 784.45 215.883 784.291 216.122L854.769 275.623C855.62 274.859 856.631 274.246 857.778 273.856C862.307 272.32 867.218 274.739 868.754 279.269C869.105 280.311 869.24 281.37 869.2 282.397L979.629 297.155L979.637 297.163ZM862.577 290.468C861.248 290.787 859.911 290.771 858.645 290.484L791.59 534.212C794.177 534.992 796.366 536.958 797.305 539.712C797.727 540.954 797.839 542.219 797.703 543.437L928.63 570.215C929.394 567.691 931.304 565.55 933.963 564.587L862.585 290.468H862.577ZM939.686 580.921C936.231 582.091 932.546 580.953 930.317 578.334L917.788 587.145L1046.87 632.78L944.112 577.514C943.093 579.058 941.573 580.292 939.686 580.929V580.921ZM1052.44 644.688C1051.68 644.298 1050.97 643.797 1050.35 643.192L921.354 753.374L977.997 812.254C978.762 811.649 979.629 811.148 980.608 810.822C982.375 810.225 984.198 810.232 985.854 810.726L1052.44 644.68V644.688ZM979.136 826.55C977.345 825.54 975.904 823.9 975.188 821.806C975.06 821.424 974.965 821.042 974.893 820.652L833.842 834.415C833.85 836.381 833.189 838.276 831.995 839.796L925.581 928.359C926.456 927.539 927.507 926.886 928.709 926.472C930.596 925.836 932.538 925.891 934.289 926.488L979.128 826.55H979.136ZM947.431 1158.36C946.484 1159.38 945.266 1160.2 943.849 1160.68C942.408 1161.17 940.928 1161.25 939.527 1161L923.806 1213.88L1054.37 1246.42C1054.6 1245.56 1054.95 1244.75 1055.41 1244.01L947.431 1158.36ZM1077.88 1430.35C1077.65 1429.92 1077.44 1429.47 1077.27 1429C1076.89 1427.86 1076.76 1426.71 1076.84 1425.6L997.921 1408.44L965.978 1484.6C967.021 1485.28 967.92 1486.19 968.597 1487.28L1077.87 1430.34L1077.88 1430.35ZM952.844 1489.8C953.138 1488.6 953.68 1487.48 954.436 1486.51L859.728 1413.3L833.969 1471.2C835.768 1472.21 837.225 1473.85 837.933 1475.96C838.252 1476.89 838.387 1477.84 838.387 1478.78L952.844 1489.81V1489.8ZM825.683 1471.1C826.089 1470.89 826.511 1470.7 826.956 1470.55C828.835 1469.91 830.769 1469.97 832.513 1470.55L858.43 1412.29L716.663 1302.7C716.376 1303.01 716.058 1303.29 715.723 1303.56L825.683 1471.1ZM717.912 1160.92C719.56 1161.94 720.882 1163.51 721.55 1165.5C721.877 1166.46 722.012 1167.44 722.004 1168.4L747.078 1171.08C747.667 1168.15 749.744 1165.61 752.777 1164.59C753.876 1164.21 754.998 1164.08 756.089 1164.15L773.441 1051.78C773.091 1051.69 772.749 1051.59 772.423 1051.46L717.928 1160.93L717.912 1160.92ZM768.411 1038.48C768.968 1037.67 769.668 1036.94 770.488 1036.34L666.276 858.367C665.989 858.502 665.695 858.621 665.392 858.725C660.975 860.229 656.191 857.945 654.535 853.622L516.875 892.204C517.193 893.956 516.962 895.715 516.27 897.267L768.411 1038.48ZM513.762 886.991L639.307 756.311L589.621 548.15L511.096 885.55C512.059 885.868 512.958 886.354 513.754 886.991H513.762ZM566.672 387.278C567.214 386.251 567.97 385.336 568.893 384.587L486.643 260.435L416.642 324.816L566.68 387.278H566.672ZM415.862 323.359L485.751 259.082L405.952 138.631C405.538 138.854 405.108 139.053 404.647 139.212C404.185 139.372 403.715 139.475 403.254 139.555L415.87 323.367L415.862 323.359ZM414.143 321.648L401.654 139.658C398.127 139.571 394.864 137.334 393.662 133.792C392.436 130.17 393.741 126.301 396.631 124.112L281.76 81.6458C281.123 82.9671 280.16 84.1292 278.926 84.9969L414.151 321.648H414.143Z" fill="#657A68"/>
</g>
<path d="M308.538 -180.477C309.668 -183.804 313.282 -185.587 316.617 -184.457C319.316 -183.542 321.003 -180.987 320.939 -178.28L465.549 -161.532C465.604 -161.779 465.66 -162.026 465.748 -162.265C466.878 -165.592 470.492 -167.383 473.827 -166.245C477.154 -165.114 478.945 -161.5 477.807 -158.165C477.011 -155.825 474.989 -154.257 472.705 -153.915L478.006 -55.3539C478.603 -55.33 479.208 -55.2265 479.805 -55.0195C482.105 -54.2395 483.666 -52.2813 484.04 -50.0445L548.786 -54.8365C548.81 -55.4175 548.914 -56.0066 549.113 -56.5876C550.243 -59.9149 553.857 -61.698 557.192 -60.5676C560.496 -59.4453 562.279 -55.8713 561.196 -52.5599L639.371 -15.2991C640.82 -17.9896 644.028 -19.3269 647.021 -18.308C647.928 -17.9976 648.724 -17.4961 649.369 -16.8752L713.264 -72.3485C712.11 -73.9643 711.72 -76.0817 712.404 -78.1035C713.534 -81.4308 717.148 -83.2218 720.484 -82.0835C723.811 -80.9532 725.602 -77.3394 724.464 -74.0041C724.201 -73.232 723.803 -72.5475 723.309 -71.9584L776.984 -17.7269C778.631 -19.0722 780.908 -19.5737 783.065 -18.8413C784.673 -18.2921 785.923 -17.1618 786.655 -15.7688L885.757 -56.5399C885.375 -57.7737 885.359 -59.1348 885.813 -60.4562C886.943 -63.7835 890.557 -65.5665 893.892 -64.4362C897.219 -63.3059 899.002 -59.6921 897.872 -56.3568C897.156 -54.2554 895.452 -52.7748 893.454 -52.2495L918.672 100.224C919.492 100.169 920.343 100.264 921.171 100.551C921.338 100.606 921.497 100.67 921.657 100.742L1007.08 69.1644C1006.76 67.9864 1006.77 66.7128 1007.19 65.471C1008.33 62.1437 1011.94 60.3527 1015.27 61.491C1018.6 62.6213 1020.39 66.2352 1019.25 69.5704C1018.12 72.8977 1014.51 74.6887 1011.17 73.5504C1010.98 73.4788 1010.78 73.4071 1010.59 73.3195L910.059 249.243L910.393 249.546L909.733 249.825L908.562 251.878L908.674 250.27L798.324 296.2C798.714 297.441 798.73 298.81 798.277 300.14C797.377 302.775 794.925 304.438 792.291 304.454L784.172 398.613C784.482 398.669 784.784 398.74 785.087 398.844C788.414 399.974 790.197 403.588 789.067 406.923C788.008 410.044 784.776 411.803 781.632 411.086L839.892 661.428C840.839 661.301 841.834 661.373 842.805 661.699C846.132 662.829 847.915 666.443 846.785 669.778C845.655 673.106 842.041 674.889 838.705 673.758C837.352 673.297 836.262 672.429 835.514 671.339L650.014 775.224C650.643 776.633 650.77 778.273 650.229 779.857C649.735 781.314 648.764 782.476 647.554 783.224L687.649 863.756C688.994 863.23 690.522 863.159 691.995 863.66C695.322 864.79 697.113 868.404 695.975 871.74C695.155 874.143 693.045 875.735 690.681 876.014L692.608 957.899C693.141 957.938 693.682 958.034 694.216 958.217C697.543 959.347 699.326 962.961 698.196 966.296C697.065 969.624 693.451 971.407 690.116 970.276C689.79 970.165 689.479 970.022 689.177 969.862L608.279 1093.12C610.317 1094.75 611.233 1097.53 610.341 1100.14C609.211 1103.47 605.597 1105.25 602.262 1104.12C600.009 1103.36 598.473 1101.47 598.059 1099.28L513.914 1107.4C513.953 1108.18 513.858 1108.99 513.587 1109.78C512.457 1113.1 508.843 1114.89 505.508 1113.76C502.181 1112.62 500.398 1109.01 501.528 1105.68C501.56 1105.59 501.592 1105.51 501.623 1105.43L421.092 1063.47C419.46 1065.47 416.706 1066.35 414.119 1065.48C410.792 1064.35 409.009 1060.73 410.139 1057.4C410.999 1054.87 413.299 1053.24 415.815 1053.09L430.915 934.839C430.915 934.839 430.867 934.823 430.843 934.815C427.516 933.684 425.733 930.07 426.863 926.735C427.993 923.408 431.607 921.625 434.942 922.755C435.985 923.113 436.885 923.71 437.577 924.474L517.018 861.455C516.039 859.887 515.736 857.913 516.381 856.026C517.233 853.519 519.486 851.895 521.969 851.72L528.457 704.118C528.098 704.062 527.748 703.982 527.398 703.863C524.071 702.733 522.288 699.119 523.418 695.784C523.943 694.239 525.002 693.037 526.323 692.289L493.337 618.763C492.055 619.201 490.615 619.24 489.23 618.771C485.902 617.64 484.111 614.026 485.25 610.691C485.807 609.059 486.953 607.802 488.378 607.077L439.392 484.923C438.174 485.289 436.829 485.297 435.531 484.852C432.204 483.721 430.421 480.107 431.551 476.772C432.682 473.445 436.296 471.662 439.631 472.792C441.016 473.262 442.13 474.169 442.887 475.308L519.629 434.027C519.04 432.634 518.928 431.042 519.454 429.498C520.473 426.505 523.49 424.769 526.514 425.263L579.034 223.573L579.6 223.724C577.434 222.983 575.93 221.193 575.444 219.115L494.205 229.972C494.237 230.737 494.133 231.509 493.878 232.273C492.748 235.6 489.134 237.391 485.799 236.253C482.464 235.115 480.689 231.509 481.819 228.173C482.511 226.136 484.135 224.679 486.062 224.114L452.104 50.1878C451.284 50.2435 450.441 50.148 449.613 49.8614C447.065 49.0018 445.434 46.6854 445.306 44.1541L370.379 42.8168C370.323 43.1512 370.244 43.4855 370.132 43.8198C369.002 47.1471 365.388 48.9381 362.053 47.7998C358.726 46.6695 356.935 43.0556 358.073 39.7204C358.702 37.8578 360.11 36.4886 361.814 35.8279L315.383 -172.127C314.452 -172.008 313.481 -172.087 312.526 -172.406C309.198 -173.536 307.415 -177.15 308.546 -180.485L308.538 -180.477ZM370.466 41.6547L445.354 42.9919C445.41 42.5939 445.497 42.188 445.633 41.7979C446.047 40.5801 446.795 39.5692 447.742 38.8289L404.058 -32.0629L367.521 36.4249C369.32 37.5712 370.419 39.5532 370.459 41.6626L370.466 41.6547ZM493.488 227.258L637.015 167.574C636.625 166.332 636.609 164.963 637.063 163.634C637.166 163.331 637.294 163.053 637.437 162.774L577.697 124.741L492.414 225.762C492.851 226.207 493.218 226.709 493.504 227.25L493.488 227.258ZM531.537 433.589C531.402 433.987 531.227 434.361 531.028 434.712L540.922 441.669L626.022 411.58L531.824 430.843C531.919 431.742 531.84 432.674 531.529 433.581L531.537 433.589ZM497.667 612.777L601.434 622.902C601.49 622.615 601.553 622.337 601.649 622.058C601.848 621.461 602.134 620.92 602.477 620.434L537.833 565.216L496.115 608.59C497.11 609.744 497.675 611.232 497.667 612.777ZM417.017 1053.14C417.423 1053.2 417.836 1053.28 418.242 1053.43C420.344 1054.14 421.824 1055.85 422.358 1057.84L480.147 1045.28L433.924 935.077C433.327 935.173 432.714 935.189 432.101 935.101L423.066 1005.81L417.024 1053.13L417.017 1053.14ZM834.829 665.456C835.1 664.748 835.482 664.111 835.951 663.57L744.117 567.978L729.335 629.899C732.368 630.926 734.111 634.014 733.546 637.071L834.821 665.456H834.829ZM644.115 -5.9939L703.903 27.271L649.775 -8.11125C648.382 -6.51926 646.257 -5.69142 644.107 -5.98593L644.115 -5.9939ZM553.101 -48.5242C552.273 -48.8028 551.541 -49.2406 550.928 -49.7818L515.211 -15.9359L612.872 72.3564C613.207 72.0539 613.573 71.7833 613.955 71.5604L557.511 -48.6436C556.149 -48.0943 554.597 -48.0147 553.093 -48.5242H553.101ZM475.459 -43.0716C472.291 -44.2974 470.619 -47.8078 471.726 -51.0555C472.522 -53.3957 474.543 -54.9638 476.828 -55.3061L471.598 -152.545L452.677 37.1573L475.459 -43.0716ZM482.066 -44.3133C480.617 -42.984 478.595 -42.3711 476.589 -42.7452L453.712 37.81C454.437 38.0568 455.081 38.4229 455.646 38.8766L513.476 -15.92L482.066 -44.3213V-44.3133ZM456.498 39.7045C457.597 40.986 458.162 42.6815 458.003 44.4168L611.089 75.222C611.113 75.1504 611.129 75.0708 611.153 74.9991C611.376 74.3464 611.694 73.7574 612.084 73.232L514.351 -15.124L456.498 39.7045ZM587.798 219.37L646.384 247.182C647.307 245.622 648.852 244.563 650.571 244.197L645.357 197.591L587.766 215.915C588.085 217.013 588.117 218.2 587.79 219.37H587.798ZM686.152 962.205C686.725 960.501 687.959 959.212 689.455 958.504L668.027 899.751L576.479 1021.17C576.901 1021.55 577.259 1021.99 577.562 1022.46L686.271 966.623C685.722 965.261 685.635 963.701 686.144 962.205H686.152ZM656.859 879.047C656.66 878.983 656.477 878.904 656.286 878.824L577.156 1018.32L667.542 898.437L660.521 879.174C659.351 879.485 658.085 879.469 656.851 879.047H656.859ZM574.242 1019.85C574.441 1019.91 574.625 1019.99 574.816 1020.07L655.275 878.235C654.161 877.463 653.349 876.364 652.911 875.115L536.616 904.097L570.963 1019.64C572.022 1019.42 573.152 1019.48 574.25 1019.84L574.242 1019.85ZM528.791 858.16L652.672 871.74C652.728 871.485 652.792 871.222 652.879 870.967C653.245 869.893 653.874 868.977 654.662 868.277L606.504 803.331L527.987 855C528.52 855.955 528.807 857.045 528.791 858.168V858.16ZM606.783 801.739L638.591 780.812C637.795 779.316 637.588 777.509 638.177 775.774C638.305 775.392 638.472 775.033 638.663 774.699L534.052 702.255C533.861 702.462 533.654 702.645 533.432 702.82L606.783 801.747V801.739ZM535.493 699.891C535.318 700.408 535.071 700.886 534.785 701.324L639.331 773.728C640.088 772.829 641.075 772.16 642.165 771.794L618.182 670.901L535.74 696.85C535.899 697.837 535.827 698.88 535.485 699.891H535.493ZM619.041 669.396L721.065 637.278C720.969 636.824 720.913 636.362 720.921 635.901L613.923 625.322C613.867 625.6 613.804 625.879 613.708 626.158C613.047 628.108 611.527 629.525 609.712 630.138L619.041 669.388V669.396ZM832.178 178.678C830.857 178.089 829.822 177.086 829.169 175.876L751.169 208.958L790.102 292.108C791.24 291.702 792.498 291.607 793.739 291.909L832.178 178.686V178.678ZM719.003 -69.7376L718.788 -13.0783L774.683 -13.3649C774.731 -13.8663 774.826 -14.3598 774.994 -14.8613C775.256 -15.6335 775.654 -16.318 776.148 -16.907L722.482 -71.1704C721.494 -70.3664 720.285 -69.8649 719.011 -69.7455L719.003 -69.7376ZM774.691 -12.1868L718.788 -11.9002L718.629 29.4679C719.106 29.5157 719.592 29.6112 720.062 29.7704C721.096 30.1206 721.98 30.7176 722.681 31.4659L775.646 -9.40077C775.121 -10.2366 774.787 -11.1918 774.691 -12.1868ZM651.303 -11.55C651.247 -11.1122 651.152 -10.6823 651.009 -10.2525C650.865 -9.83061 650.682 -9.44057 650.467 -9.0744L713.033 31.832C714.124 30.4629 715.723 29.6032 717.451 29.452L717.61 -11.9002L651.303 -11.5579V-11.55ZM623.22 79.0905C623.045 79.6159 622.79 80.1015 622.504 80.5472L669.715 118.357L714.346 40.994C713.511 40.405 712.842 39.6249 712.38 38.7413L623.284 75.1902C623.658 76.424 623.674 77.7772 623.228 79.0905H623.22ZM649.456 165.632L726.191 167.717C726.231 167.558 726.27 167.399 726.326 167.24C726.501 166.714 726.756 166.229 727.043 165.783L670.041 120.124L646.766 160.474C648.438 161.66 649.441 163.586 649.456 165.624V165.632ZM609.736 618.07C610.198 618.229 610.628 618.436 611.026 618.683L658.977 554.876L610.365 496.553C609.808 496.672 609.235 496.712 608.654 496.672L608.287 617.776C608.765 617.823 609.251 617.919 609.728 618.078L609.736 618.07ZM685.38 511.653L669.078 507.824L613.605 494.786C613.024 495.375 612.331 495.844 611.583 496.163L659.709 553.905L687.314 517.169C685.842 515.776 685.085 513.723 685.38 511.653ZM611.965 619.384C613.294 620.593 614.058 622.321 614.05 624.136L698.41 632.478L721.049 634.715C721.104 634.436 721.168 634.157 721.264 633.879C721.59 632.924 722.123 632.104 722.784 631.435L659.749 555.799L611.965 619.384ZM615.101 492.358C614.926 492.867 614.695 493.329 614.417 493.759L685.643 510.499C685.643 510.499 685.643 510.491 685.643 510.483C686.096 509.146 686.948 508.071 688.023 507.315L664.708 465.031L615.412 489.827C615.475 490.654 615.372 491.506 615.093 492.342L615.101 492.358ZM665.201 463.487L777.119 407.202C776.928 406.708 776.801 406.191 776.729 405.665L652.489 409.526L640.573 409.892C640.525 410.378 640.43 410.871 640.271 411.357C639.849 412.599 639.085 413.625 638.113 414.366L665.201 463.495V463.487ZM786.44 295.499C786.997 294.249 787.921 293.254 789.035 292.602L750.087 209.412L657.934 248.495C658.276 249.57 658.34 250.748 658.061 251.91L786.44 295.499ZM913.824 110.087C913.649 109.816 913.49 109.538 913.354 109.243L810.67 143.662L831.112 167.654C832.72 166.523 834.821 166.149 836.819 166.826C837.838 167.168 838.705 167.749 839.398 168.481L862.482 150.372L913.824 110.087ZM730.306 175.319C729.558 175.064 728.889 174.674 728.308 174.197L656.748 246.338C657.026 246.672 657.265 247.031 657.472 247.405L749.585 208.337L734.159 175.383C732.941 175.741 731.604 175.749 730.314 175.311L730.306 175.319ZM731.094 163.053L718.104 42.1641C717.395 42.1721 716.671 42.0766 715.962 41.8298C715.755 41.7581 715.548 41.6786 715.349 41.583L670.63 119.098L727.775 164.868C728.674 163.936 729.829 163.307 731.094 163.053ZM721.678 41.002C720.961 41.5034 720.141 41.8616 719.282 42.0368L732.272 162.925C732.981 162.917 733.705 163.013 734.414 163.26C736.173 163.857 737.494 165.146 738.187 166.722L808.656 143.105L721.67 41.002H721.678ZM738.553 167.837C738.632 168.179 738.688 168.529 738.712 168.887L793.055 170.806L828.453 172.055C828.509 171.641 828.604 171.228 828.74 170.822C829.058 169.89 829.567 169.086 830.212 168.426L809.468 144.068L738.545 167.837H738.553ZM828.421 173.233L738.68 170.105C738.624 170.519 738.529 170.933 738.394 171.347C737.836 172.979 736.682 174.244 735.257 174.969L750.676 207.899L828.716 174.802C828.556 174.3 828.453 173.775 828.421 173.233ZM655.53 255.643C654.447 256.4 653.134 256.821 651.781 256.798L645.723 313.067L636.02 403.198C636.108 403.222 636.203 403.246 636.291 403.277C637.564 403.707 638.607 404.503 639.355 405.506L728.985 342.121L655.53 255.635V255.643ZM653.922 244.404C654.67 244.659 655.331 245.041 655.904 245.51L727.273 173.122C726.963 172.708 726.708 172.254 726.509 171.777L646.519 197.233L651.757 244.077C652.473 244.062 653.206 244.165 653.922 244.412V244.404ZM723.795 38.4627C723.484 39.1393 723.063 39.7283 722.569 40.2378L809.85 142.699L912.964 108.145C912.726 107.189 912.694 106.17 912.925 105.16L723.795 38.4627ZM786.058 296.613L657.679 253.025C657.369 253.733 656.931 254.354 656.414 254.879L729.932 341.444L786.735 301.278C785.947 299.909 785.66 298.245 786.058 296.621V296.613ZM729.733 343.02L639.952 406.509C640.287 407.194 640.494 407.942 640.565 408.706L776.681 404.479C776.713 403.93 776.816 403.373 777 402.824C777.318 401.892 777.835 401.081 778.48 400.42L729.725 343.012L729.733 343.02ZM777.636 408.245L665.759 464.522L689.042 506.75C690.466 506.105 692.122 505.969 693.714 506.511C694.263 506.694 694.765 506.956 695.219 507.259L778.48 409.311C778.162 408.985 777.875 408.627 777.628 408.237L777.636 408.245ZM689.623 518.57C689.121 518.395 688.652 518.164 688.23 517.886L660.473 554.828L723.691 630.679C724.089 630.408 724.519 630.177 724.965 629.994L692.767 518.809C691.748 518.984 690.673 518.92 689.631 518.562L689.623 518.57ZM615.205 488.633L664.143 464.02L637.103 414.987C635.98 415.552 634.691 415.791 633.393 415.615L611.4 484.398C613.326 485.154 614.695 486.754 615.205 488.633ZM646.36 196.031L726.127 170.646C726 170.073 725.952 169.484 725.992 168.887L649.337 166.802C649.281 167.112 649.21 167.415 649.106 167.725C648.27 170.177 646.097 171.785 643.678 172.016L646.368 196.031H646.36ZM645.118 159.646C645.325 159.717 645.532 159.797 645.731 159.893L669.102 119.384L621.756 81.4626C621.119 82.1154 620.363 82.6328 619.519 82.9591L641.863 159.431C642.913 159.224 644.036 159.28 645.126 159.646H645.118ZM558.561 -49.1769L615.022 71.0589C616.335 70.5813 617.808 70.5336 619.232 71.0112C620.848 71.5604 622.098 72.6987 622.83 74.0996L711.927 37.6508C711.552 36.417 711.536 35.0638 711.982 33.7504C712.046 33.5753 712.118 33.4002 712.189 33.233L560.527 -51.151C560.018 -50.3391 559.341 -49.6704 558.561 -49.1769ZM651.335 -12.728L717.61 -13.0703L717.825 -69.7455C717.347 -69.7933 716.862 -69.8888 716.392 -70.048C715.485 -70.3585 714.689 -70.8599 714.044 -71.4808L650.149 -16.0076C650.834 -15.0524 651.255 -13.9141 651.335 -12.7201V-12.728ZM778.974 -6.77397C777.939 -7.12421 777.055 -7.72121 776.355 -8.46945L724.153 31.8002L790.277 -4.02777L785.437 -8.21472C783.774 -6.62273 781.306 -5.98593 778.982 -6.77397H778.974ZM723.859 33.2967C724.392 34.5384 724.535 35.9553 724.177 37.3483L913.004 103.934L913.402 103.783C913.561 103.464 913.736 103.154 913.943 102.867L791.224 -3.20789L723.859 33.2967ZM914.556 111.002L840.114 169.405C841.133 170.981 841.444 172.987 840.799 174.905C839.796 177.85 836.859 179.578 833.89 179.164L856.536 199.995L915.137 111.536C914.93 111.368 914.739 111.193 914.556 111.002ZM832.99 179.928L794.846 292.283C794.989 292.347 795.124 292.419 795.26 292.49L855.875 200.99L832.982 179.936L832.99 179.928ZM790.205 304.128C789.083 303.746 788.136 303.077 787.419 302.233L730.704 342.344L779.396 399.672C780.446 398.939 781.704 398.525 783.009 398.517L791.129 304.359C790.818 304.303 790.516 304.231 790.213 304.128H790.205ZM696.142 508.015C697.829 509.679 698.522 512.21 697.71 514.598C697.439 515.402 697.017 516.111 696.492 516.715L743.472 565.614L780.446 410.688C780.072 410.521 779.714 410.314 779.388 410.083L696.142 508.007V508.015ZM695.648 517.527C695.123 517.949 694.534 518.284 693.905 518.514L726.095 629.684C726.78 629.556 727.48 629.533 728.197 629.636L743.154 566.975L695.648 517.527ZM721.431 638.4L619.328 670.543L643.327 771.515C644.282 771.38 645.293 771.451 646.272 771.786C646.495 771.865 646.71 771.953 646.917 772.048L723.588 641.114C722.617 640.422 721.885 639.475 721.431 638.4ZM642.173 783.845C640.979 783.439 639.984 782.707 639.252 781.792L607.499 802.687L655.618 867.576C656.159 867.25 656.756 867.003 657.377 866.844L644.609 784.172C643.805 784.219 642.985 784.124 642.173 783.845ZM664.955 875.067C664.374 876.77 663.148 878.06 661.643 878.776L668.409 897.323L685.682 874.414C684.68 873.499 683.995 872.281 683.732 870.959L665.289 872.926C665.297 873.634 665.201 874.35 664.955 875.059V875.067ZM687.919 875.735C687.458 875.576 687.02 875.369 686.622 875.123L668.887 898.636L690.57 958.098C690.856 958.018 691.151 957.97 691.453 957.938L689.527 876.054C688.994 876.014 688.453 875.919 687.919 875.735ZM578.119 1023.51C578.668 1024.87 578.756 1026.43 578.246 1027.93C577.721 1029.48 576.654 1030.69 575.325 1031.43L582.752 1048.12L686.789 967.697L578.119 1023.51ZM574.25 1031.91C572.969 1032.35 571.544 1032.38 570.167 1031.91C569.642 1031.74 569.156 1031.49 568.718 1031.19L511.486 1102.7C511.597 1102.79 511.701 1102.87 511.804 1102.95L581.796 1048.85L574.258 1031.9L574.25 1031.91ZM509.639 1101.71C509.934 1101.81 510.204 1101.93 510.475 1102.07L567.795 1030.46C567.031 1029.72 566.466 1028.81 566.147 1027.8L481.779 1046.14L505.158 1101.86C506.535 1101.29 508.119 1101.19 509.639 1101.71ZM565.892 1026.65C565.781 1025.73 565.861 1024.77 566.179 1023.83C566.306 1023.46 566.466 1023.11 566.657 1022.77L437.108 933.589C436.511 934.114 435.818 934.52 435.07 934.791L481.309 1045.04L565.884 1026.66L565.892 1026.65ZM438.946 930.843C438.708 931.543 438.357 932.172 437.927 932.721L567.325 1021.8C568.01 1020.99 568.869 1020.36 569.841 1019.97L535.477 904.375L439.273 928.351C439.328 929.171 439.233 930.015 438.946 930.843ZM536.281 902.967L652.625 873.976C652.569 873.626 652.545 873.268 652.553 872.91L528.679 859.33C528.624 859.601 528.56 859.863 528.472 860.134C527.836 862.004 526.419 863.381 524.707 864.034L536.281 902.975V902.967ZM524.484 852.047C525.647 852.437 526.61 853.137 527.334 854.021L605.812 802.376L532.46 703.449C531.601 703.903 530.646 704.165 529.658 704.189L523.171 851.744C523.609 851.792 524.047 851.887 524.484 852.038V852.047ZM535.469 695.696L617.927 669.739L608.574 630.4C607.619 630.536 606.616 630.464 605.629 630.13C604.809 629.851 604.085 629.421 603.472 628.888L534.594 694.064C534.96 694.566 535.246 695.115 535.461 695.696H535.469ZM603.249 619.543C604.291 618.532 605.661 617.895 607.117 617.768L607.483 496.481C607.332 496.441 607.181 496.402 607.03 496.354C606.313 496.107 605.669 495.741 605.111 495.295L538.661 564.372L603.257 619.543H603.249ZM604.26 494.475C603.304 493.369 602.755 491.96 602.715 490.479L443.882 479.837C443.826 480.187 443.746 480.529 443.627 480.872C443.428 481.469 443.141 482.01 442.799 482.495L537.754 563.6L604.252 494.475H604.26ZM443.961 478.659L602.795 489.301C602.851 488.951 602.93 488.609 603.05 488.266C603.185 487.868 603.352 487.494 603.559 487.144L540.755 442.974L443.778 477.258C443.89 477.711 443.953 478.181 443.969 478.651L443.961 478.659ZM604.228 486.189C605.692 484.469 607.993 483.626 610.277 484.071L632.247 415.353C632.247 415.353 632.207 415.345 632.183 415.337C630.464 414.756 629.158 413.498 628.45 411.97L542.092 442.496L604.212 486.181L604.228 486.189ZM634.858 402.967L650.611 256.662C650.348 256.607 650.085 256.543 649.823 256.455C646.495 255.325 644.704 251.711 645.843 248.376C645.859 248.328 645.882 248.288 645.898 248.241L587.4 220.468C586.724 221.877 585.57 222.936 584.2 223.525L633.576 402.967C633.998 402.919 634.428 402.919 634.866 402.967H634.858ZM587.345 214.817L645.23 196.397L642.499 172.016C642.014 171.968 641.52 171.872 641.035 171.713C640.04 171.379 639.188 170.814 638.504 170.105L586.716 213.829C586.955 214.14 587.162 214.474 587.337 214.817H587.345ZM638.058 161.779C638.766 160.872 639.698 160.179 640.748 159.757L618.405 83.2855C617.354 83.4924 616.231 83.4367 615.141 83.0706C614.56 82.8716 614.027 82.593 613.549 82.2586L578.453 123.834L638.058 161.779ZM612.649 81.5024C611.336 80.1652 610.651 78.2787 610.858 76.3683L457.796 45.563C457.764 45.6745 457.74 45.778 457.7 45.8894C457.597 46.1919 457.469 46.4705 457.334 46.7411L577.45 123.205L612.649 81.5104V81.5024ZM448.745 38.1841C449.581 37.7543 450.512 37.5075 451.467 37.4757L470.563 -153.986C470.285 -154.042 470.006 -154.106 469.728 -154.201C469.584 -154.249 469.449 -154.313 469.314 -154.368L404.71 -33.2808L448.745 38.1762V38.1841ZM468.279 -154.918C466.448 -156.127 465.358 -158.197 465.413 -160.378L320.804 -177.126C320.748 -176.879 320.693 -176.632 320.605 -176.394C320.175 -175.136 319.395 -174.093 318.4 -173.353L403.994 -34.4429L468.279 -154.926V-154.918ZM483.785 -46.964C483.562 -46.3113 483.244 -45.7223 482.854 -45.1969L514.335 -16.7399L550.124 -50.6495C549.439 -51.5251 549.001 -52.5758 548.842 -53.6823L484.119 -48.8983C484.103 -48.2615 484 -47.6088 483.785 -46.972V-46.964ZM640.08 -8.23065C638.734 -9.84653 638.225 -12.0912 638.909 -14.2325L571.878 -46.176L640.08 -8.23065ZM787.053 -10.7619C786.846 -10.157 786.56 -9.59978 786.201 -9.10625L791.375 -4.63272L881.841 -53.6584L787.109 -14.6703C787.491 -13.4365 787.507 -12.0753 787.053 -10.754V-10.7619ZM892.3 -52.0505C891.48 -51.9947 890.629 -52.0903 889.801 -52.3768C888.416 -52.8465 887.309 -53.7459 886.561 -54.8683L792.331 -3.80489L914.716 101.991C915.504 101.235 916.467 100.694 917.509 100.423L892.292 -52.0505H892.3ZM1009.57 72.7305C1008.67 72.0937 1007.95 71.242 1007.49 70.2709L922.978 101.514C925.103 103.122 926.066 105.971 925.159 108.63C924.275 111.233 921.88 112.881 919.277 112.944L910.083 246.832L1009.57 72.7305H1009.57ZM908.825 248.089L918.106 112.857C917.764 112.801 917.422 112.722 917.08 112.61C916.737 112.499 916.427 112.347 916.116 112.188L857.404 200.807L908.817 248.097L908.825 248.089ZM908.252 249.164L856.751 201.794L796.239 293.135C796.915 293.684 797.473 294.361 797.871 295.117L908.252 249.164ZM780.988 413.466L744.435 566.617L836.795 662.758C837.384 662.288 838.045 661.938 838.753 661.699L780.988 413.466ZM834.948 670.312C834.439 669.165 834.264 667.876 834.503 666.586L733.228 638.201C732.01 641.385 728.491 643.065 725.236 641.958C725.013 641.879 724.798 641.791 724.583 641.695L647.912 772.63C648.517 773.059 649.027 773.601 649.441 774.198L834.94 670.312H834.948ZM646.511 783.742C646.265 783.837 646.018 783.917 645.763 783.981L658.531 866.653C659.335 866.605 660.155 866.701 660.967 866.979C663.195 867.736 664.724 869.606 665.154 871.755L683.597 869.789C683.589 869.081 683.684 868.365 683.931 867.656C684.425 866.199 685.396 865.037 686.606 864.289L646.511 783.758V783.742ZM688.222 969.218C687.975 969.019 687.744 968.812 687.529 968.589L583.229 1049.22L602.301 1092.07C603.583 1091.63 605.008 1091.6 606.385 1092.07C606.711 1092.18 607.022 1092.33 607.324 1092.49L688.222 969.226V969.218ZM597.971 1098.12C597.971 1097.44 598.075 1096.74 598.306 1096.05C598.831 1094.5 599.898 1093.29 601.227 1092.55L582.274 1049.95L512.6 1103.81C513.157 1104.52 513.555 1105.35 513.77 1106.23L597.971 1098.12ZM502.173 1104.38C502.674 1103.57 503.335 1102.91 504.099 1102.4L480.601 1046.37L422.541 1058.99C422.596 1059.81 422.501 1060.66 422.214 1061.49C422.095 1061.84 421.944 1062.17 421.769 1062.48L502.165 1104.37L502.173 1104.38ZM438.31 925.406C438.652 925.955 438.907 926.552 439.074 927.173L535.135 903.237L523.569 864.329C522.542 864.52 521.452 864.456 520.385 864.09C519.342 863.732 518.451 863.135 517.75 862.379L438.31 925.398V925.406ZM527.414 691.804C528.695 691.366 530.136 691.326 531.521 691.796C532.405 692.098 533.185 692.576 533.822 693.181L602.676 628.028C601.8 626.906 601.314 625.513 601.314 624.072L497.548 613.947C497.492 614.233 497.428 614.512 497.333 614.791C496.808 616.335 495.749 617.537 494.428 618.285L527.414 691.812V691.804ZM489.484 606.64C490.702 606.273 492.047 606.266 493.345 606.711C494.061 606.958 494.706 607.324 495.263 607.77L536.934 564.452L442.027 483.387C441.573 483.833 441.056 484.199 440.491 484.485L489.476 606.64H489.484ZM444.598 475.721L539.561 442.146L530.343 435.667C528.703 437.593 525.997 438.437 523.45 437.569C522.065 437.1 520.95 436.192 520.194 435.054L444.598 475.714V475.721ZM527.661 425.558C529.619 426.266 531.02 427.834 531.585 429.697L627.909 409.996C627.813 409.096 627.893 408.165 628.203 407.258C628.888 405.228 630.504 403.779 632.406 403.206L583.07 223.899C582.139 224.114 581.152 224.122 580.181 223.883L527.668 425.558H527.661ZM575.301 217.953C575.269 217.189 575.373 216.417 575.627 215.652C576.758 212.325 580.372 210.534 583.707 211.672C584.551 211.959 585.299 212.405 585.92 212.97L637.771 169.19C637.66 169.015 637.556 168.84 637.461 168.656L493.934 228.341C493.982 228.492 494.022 228.651 494.061 228.81L575.301 217.953ZM487.216 223.899C488.099 223.811 489.007 223.899 489.898 224.201C490.479 224.4 491.013 224.679 491.49 225.013L576.67 124.112L456.689 47.7361C455.822 48.8585 454.604 49.6545 453.258 50.0047L487.208 223.899H487.216ZM362.936 35.5175C363.971 35.3265 365.07 35.3822 366.144 35.7483C366.256 35.7881 366.367 35.8359 366.471 35.8757L403.341 -33.233L317.389 -172.724C317.111 -172.589 316.816 -172.469 316.514 -172.374L362.928 35.5175H362.936Z" fill="#657A68"/>
</g>
</g>
<defs>
<clipPath id="clip0_1_262">
<rect width="796" height="796" fill="white" transform="matrix(-1 0 0 1 796 0)"/>
</clipPath>
</defs>
</svg>
