<svg width="897" height="534" viewBox="0 0 897 534" fill="none" xmlns="http://www.w3.org/2000/svg">
<path d="M818.062 -69.6011C820.676 -69.7171 822.891 -67.6918 823.01 -65.0716C823.105 -62.9514 821.79 -61.089 819.895 -60.4008L847.424 44.4788C847.61 44.4507 847.796 44.4226 847.986 44.4187C850.599 44.3028 852.82 46.3259 852.933 48.9483C853.05 51.563 851.028 53.7837 848.406 53.8963C846.568 53.9772 844.933 52.9985 844.077 51.5058L777.146 81.854C777.291 82.2747 777.383 82.7225 777.401 83.1928C777.483 85.0002 776.547 86.6127 775.097 87.4776L795.947 131.11C796.357 130.97 796.793 130.882 797.25 130.863C799.864 130.747 802.079 132.772 802.198 135.392C802.314 137.988 800.317 140.193 797.727 140.337L793.044 204.667C795.302 204.945 797.098 206.809 797.202 209.161C797.232 209.875 797.1 210.563 796.843 211.179L852.618 240.506C853.427 239.268 854.79 238.425 856.378 238.353C858.991 238.237 861.212 240.26 861.325 242.882C861.442 245.497 859.42 247.718 856.798 247.83C856.192 247.857 855.609 247.766 855.067 247.583L831.979 299.503C833.358 300.282 834.323 301.727 834.399 303.422C834.453 304.686 834.007 305.859 833.239 306.744L888.346 364.481C889.099 363.882 890.039 363.503 891.078 363.46C893.692 363.344 895.907 365.369 896.026 367.99C896.143 370.604 894.118 372.82 891.499 372.938C889.847 373.009 888.359 372.228 887.454 370.983L788.518 429.74C788.779 430.294 788.943 430.911 788.968 431.563C788.975 431.694 788.974 431.822 788.967 431.951L833.993 482.681C834.724 482.141 835.612 481.808 836.588 481.765C839.202 481.649 841.422 483.672 841.535 486.294C841.652 488.909 839.63 491.129 837.009 491.242C834.395 491.358 832.174 489.335 832.061 486.713C832.057 486.555 832.052 486.398 832.061 486.241L682.821 464.086L682.701 464.4L682.329 464.017L680.588 463.761L681.733 463.403L620.004 399.257C619.248 399.864 618.302 400.245 617.258 400.29C615.186 400.379 613.369 399.128 612.645 397.304L545.134 417.148C545.18 417.378 545.212 417.608 545.222 417.846C545.338 420.46 543.314 422.676 540.695 422.794C538.244 422.903 536.149 421.137 535.795 418.761L377.918 526.928C378.262 527.551 378.482 528.261 378.518 529.023C378.635 531.638 376.611 533.853 373.992 533.971C371.378 534.087 369.163 532.062 369.044 529.442C368.998 528.378 369.304 527.386 369.858 526.572L247.584 425.96C246.777 426.777 245.674 427.309 244.429 427.362C243.285 427.414 242.216 427.055 241.369 426.418L196.363 476.031C197.091 476.822 197.555 477.864 197.606 479.021C197.722 481.636 195.7 483.857 193.079 483.969C191.189 484.051 189.514 483.018 188.681 481.453L132.404 504.946C132.52 505.327 132.601 505.729 132.618 506.148C132.735 508.763 130.711 510.978 128.091 511.096C125.477 511.212 123.262 509.187 123.144 506.567C123.132 506.31 123.148 506.056 123.176 505.803L15.7787 483.019C15.2039 484.873 13.5193 486.262 11.4669 486.35C8.85306 486.466 6.63788 484.44 6.5191 481.82C6.43937 480.05 7.33763 478.471 8.73839 477.594L-19.6659 421.399C-20.2017 421.639 -20.7852 421.791 -21.4051 421.816C-24.019 421.932 -26.2395 419.909 -26.3529 417.287C-26.4695 414.672 -24.4456 412.457 -21.8262 412.339C-21.7568 412.337 -21.6929 412.337 -21.6291 412.338L-14.3255 345.102C-16.1532 344.511 -17.5117 342.838 -17.6046 340.806C-17.7212 338.192 -15.6971 335.976 -13.0777 335.858C-11.0892 335.77 -9.33452 336.925 -8.55422 338.631L77.5591 317.112C77.5591 317.112 77.5573 317.074 77.5563 317.055C77.4396 314.441 79.4637 312.226 82.0832 312.107C84.6971 311.991 86.9121 314.017 87.0309 316.637C87.0647 317.457 86.8942 318.243 86.5516 318.93L151.769 357.004C152.592 355.9 153.879 355.156 155.362 355.093C157.332 355.006 159.068 356.129 159.862 357.805L264.001 322.368C263.943 322.104 263.903 321.839 263.891 321.564C263.775 318.949 265.799 316.734 268.418 316.616C269.631 316.563 270.752 316.972 271.629 317.687L313.7 274.901C313.05 274.13 312.632 273.141 312.583 272.053C312.466 269.438 314.488 267.218 317.11 267.105C318.393 267.05 319.575 267.505 320.463 268.298L391.934 201.252C391.351 200.506 390.981 199.575 390.939 198.554C390.822 195.939 392.846 193.724 395.466 193.606C398.08 193.49 400.295 195.515 400.413 198.135C400.463 199.223 400.135 200.242 399.55 201.075L448.958 243.158C449.765 242.373 450.839 241.864 452.052 241.811C454.404 241.708 456.424 243.332 456.901 245.565L611.019 227.434L611.067 227.868C610.995 226.165 611.83 224.636 613.139 223.737L583.617 170.301C583.095 170.53 582.532 170.667 581.933 170.697C579.319 170.813 577.098 168.79 576.985 166.167C576.872 163.545 578.892 161.337 581.512 161.219C583.113 161.148 584.563 161.881 585.476 163.065L696.926 92.4385C696.666 91.8847 696.504 91.2733 696.478 90.6214C696.385 88.6212 697.55 86.8621 699.271 86.0887L679.916 33.7329C679.669 33.7847 679.416 33.8199 679.154 33.8331C676.54 33.949 674.319 31.926 674.206 29.3036C674.089 26.6888 676.111 24.4681 678.733 24.3555C680.195 24.2879 681.526 24.8951 682.445 25.8984L814.123 -62.5913C813.788 -63.2053 813.58 -63.9008 813.543 -64.6498C813.426 -67.2645 815.45 -69.4796 818.07 -69.5977L818.062 -69.6011ZM680.746 33.4792L700.09 85.8074C700.382 85.7383 700.687 85.6892 700.994 85.6776C701.951 85.6353 702.855 85.881 703.624 86.338L740.973 36.8418L683.576 30.0204C683.268 31.5789 682.191 32.8775 680.738 33.4759L680.746 33.4792ZM585.305 169.069L665.557 252.516C666.313 251.909 667.259 251.528 668.303 251.483C668.541 251.473 668.769 251.486 669.001 251.51L679.211 199.764L586.053 167.919C585.862 168.343 585.613 168.733 585.315 169.078L585.305 169.069ZM452.485 251.303C452.173 251.317 451.866 251.297 451.569 251.253L449.421 260.002L493.329 310.913L454.468 250.759C453.87 251.069 453.202 251.265 452.489 251.295L452.485 251.303ZM319.025 276.286L340.091 351.032C340.305 350.993 340.515 350.962 340.734 350.953C341.202 350.929 341.655 350.982 342.085 351.088L362.888 291.289L321.509 274.076C320.977 275.079 320.098 275.874 319.025 276.286ZM-8.26206 339.478C-8.19083 339.775 -8.13946 340.086 -8.12896 340.407C-8.05701 342.059 -8.83777 343.547 -10.0793 344.458L14.277 381.16L78.2081 319.264C77.9802 318.876 77.8032 318.455 77.698 318.006L26.2059 330.869L-8.25434 339.482L-8.26206 339.478ZM373.753 524.505C374.318 524.501 374.863 524.594 375.366 524.774L416.813 435.181L369.86 441.679C369.969 444.062 368.299 446.107 366.025 446.542L373.751 524.5L373.753 524.505ZM787.873 210.477L780.984 260.967L790.874 213.832C789.393 213.296 788.243 212.045 787.866 210.474L787.873 210.477ZM792.737 135.812C792.706 135.162 792.811 134.536 793.021 133.964L759.875 118.338L725.069 209.998C725.369 210.148 725.656 210.329 725.914 210.534L794.013 138.84C793.264 138.044 792.788 136.988 792.735 135.806L792.737 135.812ZM767.937 83.4099C767.93 80.8798 769.912 78.77 772.464 78.659C774.303 78.5781 775.938 79.5567 776.794 81.0494L842.828 51.1084L706.12 89.3103L767.937 83.4099ZM770.587 87.6585C769.273 87.0129 768.3 85.7757 768.017 84.2826L705.947 90.205C705.972 90.7745 705.893 91.3209 705.731 91.8359L759.395 117.138L770.592 87.6564L770.587 87.6585ZM705.387 92.6509C704.796 93.76 703.773 94.6109 702.526 94.97L722.599 209.536C722.655 209.533 722.714 209.523 722.77 209.52C723.284 209.498 723.778 209.56 724.248 209.688L759.08 117.961L705.387 92.6509ZM616.307 232.379L612.874 280.558C614.206 280.777 615.359 281.562 616.078 282.656L646.994 266.427L618.694 231.422C618.019 231.94 617.205 232.283 616.305 232.373L616.307 232.379ZM127.669 501.632C129.006 501.569 130.234 502.076 131.131 502.923L166.084 472.155L57.0782 441.483C56.9274 441.879 56.7207 442.246 56.4768 442.583L124.637 502.91C125.433 502.161 126.491 501.678 127.667 501.626L127.669 501.632ZM177.422 458.803C177.412 458.648 177.417 458.499 177.421 458.345L59.238 441.182L166.863 471.463L178.324 461.379C177.792 460.651 177.461 459.768 177.419 458.798L177.422 458.803ZM57.3894 439.574C57.3991 439.729 57.3934 439.878 57.3899 440.032L177.556 457.484C177.79 456.502 178.332 455.641 179.08 454.999L127.496 382.142L56.6507 437.24C57.0864 437.916 57.3536 438.716 57.397 439.577L57.3894 439.574ZM157.242 364.282L181.357 453.921C181.549 453.89 181.748 453.863 181.948 453.855C182.793 453.819 183.598 454.007 184.297 454.365L216.31 403.373L159.216 362.869C158.698 363.497 158.019 363.991 157.236 364.284L157.242 364.282ZM217.49 403.135L240.616 419.545C241.438 418.588 242.636 417.955 243.999 417.895C244.298 417.88 244.592 417.899 244.876 417.941L266.808 325.747C266.613 325.67 266.43 325.576 266.248 325.469L217.484 403.138L217.49 403.135ZM268.838 326.107C268.432 326.125 268.034 326.083 267.652 326.003L245.73 418.142C246.559 418.423 247.29 418.927 247.839 419.585L311.331 375.642L271.014 325.455C270.372 325.833 269.63 326.065 268.836 326.101L268.838 326.107ZM312.607 375.831L362.503 437.937C362.792 437.748 363.097 437.584 363.42 437.465L341.793 360.353C341.585 360.39 341.374 360.421 341.155 360.431C339.624 360.5 338.229 359.828 337.313 358.735L312.612 375.829L312.607 375.831ZM710.686 390.949C710.736 389.873 711.152 388.883 711.815 388.103L667.753 342.928L620.616 392.444C621.205 393.124 621.612 393.971 621.738 394.915L710.68 390.951L710.686 390.949ZM852.361 245.195L813.001 260.378L828.331 299.087C828.692 298.985 829.06 298.917 829.453 298.898C830.06 298.871 830.642 298.962 831.184 299.145L854.296 247.222C853.471 246.754 852.796 246.05 852.368 245.199L852.361 245.195ZM827.516 299.411L812.184 260.696L783.446 271.78C783.543 272.124 783.608 272.487 783.624 272.856C783.662 273.669 783.487 274.443 783.157 275.132L825.842 300.828C826.279 300.237 826.852 299.747 827.516 299.411ZM793.673 213.962C793.354 214.042 793.03 214.092 792.693 214.109C792.362 214.123 792.042 214.102 791.73 214.052L780.292 268.536C781.537 268.923 782.566 269.8 783.139 270.958L811.865 259.879L793.679 213.96L793.673 213.962ZM723.199 219.001C722.787 219.021 722.381 218.976 721.995 218.898L708.548 261.89L774.292 271.927C774.475 271.187 774.835 270.512 775.322 269.953L725.922 217.99C725.167 218.583 724.233 218.96 723.201 219.006L723.199 219.001ZM670.273 260.624L689.598 314.436C689.719 314.42 689.84 314.405 689.966 314.401C690.378 314.38 690.783 314.425 691.17 314.504L707.411 262.594L673.122 257.361C672.752 258.842 671.687 260.059 670.278 260.622L670.273 260.624ZM345.69 355.486C345.704 355.849 345.677 356.204 345.614 356.547L402.854 372.555L430.15 323.041C429.916 322.687 429.733 322.3 429.604 321.886L345.502 354.401C345.598 354.745 345.663 355.108 345.682 355.482L345.69 355.486ZM439.982 379.182L438.225 366.833L432.252 324.811C431.686 324.567 431.173 324.214 430.75 323.781L403.725 372.801L436.679 382.016C437.247 380.618 438.467 379.537 439.982 379.182ZM345.382 357.388C344.903 358.638 343.911 359.635 342.65 360.121L359.7 420.918L364.277 437.232C364.485 437.195 364.696 437.164 364.915 437.155C365.666 437.123 366.379 437.271 367.021 437.549L402.422 373.341L345.382 357.388ZM434.341 325.192C433.941 325.209 433.558 325.173 433.184 325.096L440.854 379.052C440.854 379.052 440.859 379.049 440.865 379.047C441.915 379 442.891 379.301 443.707 379.842L466.725 352.221L436.181 324.723C435.624 324.991 435.006 325.15 434.35 325.183L434.341 325.192ZM467.93 352.146L537.267 414.578C537.558 414.312 537.882 414.084 538.227 413.892L501.918 328.724L498.438 320.554C498.089 320.652 497.72 320.719 497.341 320.74C496.365 320.783 495.446 320.531 494.67 320.057L467.924 352.148L467.93 352.146ZM617.272 390.821C618.29 390.869 619.23 391.241 619.985 391.837L667.145 342.3L615.09 288.928C614.437 289.457 613.637 289.82 612.755 289.941L617.272 390.821ZM780.365 429.045C780.505 428.85 780.655 428.664 780.823 428.491L729.152 366.549L718.044 387.226C719.263 388.036 720.092 389.393 720.163 390.962C720.202 391.762 720.033 392.521 719.713 393.2L738.523 404.318L780.365 429.045ZM685.439 319.349C685.413 318.76 685.503 318.191 685.677 317.658L616.265 287.522C616.108 287.806 615.925 288.068 615.721 288.313L667.755 341.661L686.438 322.039C685.86 321.291 685.492 320.365 685.447 319.352L685.439 319.349ZM694.161 316.576L774.498 274.851C774.3 274.361 774.17 273.833 774.15 273.274C774.144 273.111 774.143 272.946 774.155 272.782L708.282 262.725L692.003 314.764C692.893 315.136 693.641 315.767 694.161 316.576ZM776.271 277.016C775.729 276.655 775.259 276.183 774.905 275.634L694.568 317.359C694.765 317.849 694.895 318.377 694.916 318.936C694.978 320.318 694.441 321.584 693.535 322.491L728.993 365.001L776.269 277.011L776.271 277.016ZM692.861 323.046C692.646 323.194 692.418 323.328 692.176 323.441L705.556 361.67L714.271 386.572C714.573 386.499 714.886 386.453 715.204 386.437C715.937 386.406 716.632 386.542 717.265 386.81L728.545 365.825L692.859 323.041L692.861 323.046ZM713.445 386.869L691.322 323.749C691.02 323.822 690.707 323.868 690.383 323.886C689.101 323.941 687.91 323.482 687.022 322.69L668.354 342.299L712.437 387.497C712.742 387.251 713.078 387.037 713.445 386.869ZM609.481 289.195C608.663 288.648 608.015 287.851 607.665 286.905L566.995 297.928L501.849 315.583C501.856 315.65 501.866 315.723 501.867 315.792C501.914 316.792 501.644 317.731 501.151 318.522L569.38 363.566L609.486 289.192L609.481 289.195ZM616.842 285.037C616.868 285.626 616.781 286.187 616.611 286.712L686.142 316.65C686.345 316.322 686.591 316.023 686.868 315.755L647.558 267.137L616.482 283.447C616.687 283.94 616.813 284.476 616.836 285.04L616.842 285.037ZM778.606 277.798C778.052 277.766 777.53 277.633 777.043 277.428L729.598 365.72L781.479 427.923C782.077 427.499 782.775 427.201 783.539 427.087L778.606 277.798ZM616.396 390.857L611.879 289.977C611.304 289.954 610.754 289.818 610.25 289.601L570.106 364.041L613.344 392.589C614.08 391.672 615.156 391.023 616.39 390.859L616.396 390.857ZM568.959 364.329L500.617 319.207C500.233 319.625 499.77 319.971 499.259 320.227L539.037 413.538C539.427 413.411 539.841 413.332 540.272 413.311C541.004 413.28 541.707 413.419 542.34 413.688L568.962 364.321L568.959 364.329ZM536.684 415.219L467.363 352.813L444.374 380.396C445.207 381.21 445.749 382.322 445.805 383.573C445.827 384.004 445.78 384.423 445.693 384.82L536.173 416.093C536.313 415.784 536.484 415.488 536.688 415.212L536.684 415.219ZM436.332 383.997C436.318 383.602 436.351 383.214 436.43 382.846L403.292 373.581L367.792 437.974C368.087 438.177 368.363 438.413 368.611 438.673L437.018 386.244C436.621 385.584 436.374 384.821 436.34 384.001L436.332 383.997ZM436.954 324.256L467.273 351.556L493.965 319.524C493.269 318.898 492.755 318.068 492.525 317.12L438.861 320.47C438.858 322.011 438.119 323.394 436.954 324.256ZM648.348 266.701L687.549 315.184C687.912 314.941 688.307 314.748 688.732 314.615L669.429 260.858C669.198 260.903 668.969 260.935 668.726 260.947C666.799 261.031 665.095 259.958 664.28 258.341L648.35 266.706L648.348 266.701ZM673.25 255.994C673.257 256.157 673.257 256.322 673.245 256.486L707.67 261.742L721.157 218.626C720.532 218.361 719.968 217.976 719.514 217.479L672.518 253.676C672.946 254.35 673.211 255.143 673.252 255.999L673.25 255.994ZM794.668 139.425L726.551 211.138C727.238 211.92 727.669 212.929 727.724 214.047C727.78 215.317 727.329 216.492 726.555 217.38L775.956 269.343C776.711 268.75 777.645 268.372 778.677 268.326C778.815 268.323 778.956 268.325 779.092 268.33L796.569 140.255C795.868 140.121 795.221 139.832 794.668 139.425ZM794.499 213.665L812.677 259.562L852.047 244.376C851.951 244.031 851.886 243.669 851.869 243.3C851.839 242.586 851.971 241.898 852.228 241.283L796.453 211.955C795.975 212.688 795.3 213.289 794.493 213.667L794.499 213.665ZM824.921 303.848C824.883 303.035 825.058 302.26 825.388 301.572L783.324 276.244L826.075 312.434L827.67 307.943C826.115 307.219 825.005 305.679 824.923 303.853L824.921 303.848ZM782.206 276.445C781.489 277.151 780.545 277.634 779.482 277.762L784.411 426.811L784.624 427.046C784.888 427.071 785.15 427.108 785.405 427.174L825.763 313.314L782.206 276.445ZM779.928 429.801L719.266 393.947C718.449 395.08 717.142 395.839 715.636 395.91C713.322 396.011 711.329 394.44 710.812 392.268L702.493 413.619L779.715 430.348C779.775 430.159 779.845 429.979 779.928 429.801ZM710.039 391.851L621.778 395.784C621.773 395.9 621.76 396.013 621.747 396.127L701.624 413.43L710.031 391.847L710.039 391.851ZM612.306 395.768C612.268 394.886 612.475 394.048 612.866 393.322L569.691 364.82L543.107 414.12C543.899 414.651 544.527 415.412 544.886 416.316L612.396 396.471C612.351 396.241 612.319 396.012 612.309 395.774L612.306 395.768ZM445.419 385.665C444.721 387.286 443.153 388.452 441.277 388.535C440.646 388.564 440.04 388.463 439.478 388.262L418.278 434.094L535.75 417.83C535.764 417.526 535.811 417.221 535.883 416.932L445.424 385.663L445.419 385.665ZM438.687 387.897C438.252 387.646 437.861 387.328 437.53 386.954L369.132 439.373C369.406 439.813 369.612 440.293 369.734 440.818L417.248 434.242L438.687 387.897ZM361.824 438.495L311.889 376.34L248.347 420.316C248.699 420.942 248.923 421.663 248.957 422.433C248.962 422.609 248.959 422.782 248.949 422.952L360.525 440.726C360.742 439.865 361.201 439.1 361.824 438.495ZM239.482 422.852C239.44 421.913 239.679 421.025 240.116 420.269L217.027 403.889L185.042 454.838C185.415 455.125 185.747 455.473 186.026 455.86L239.915 424.63C239.664 424.085 239.508 423.49 239.482 422.852ZM182.374 463.344C181.035 463.402 179.808 462.9 178.904 462.05L167.871 471.763L188.437 477.551C188.801 476.607 189.46 475.803 190.306 475.263L183.949 462.996C183.46 463.194 182.937 463.321 182.379 463.342L182.374 463.344ZM188.126 479.46C188.112 479.097 188.137 478.737 188.2 478.394L167.089 472.45L131.714 503.586C131.847 503.763 131.96 503.955 132.064 504.156L188.341 480.662C188.224 480.282 188.144 479.88 188.126 479.46ZM55.8989 443.254C55.1034 444.004 54.0449 444.487 52.8689 444.538C51.65 444.594 50.5221 444.181 49.6488 443.459L40.0863 453.127L124.032 503.56L55.8989 443.254ZM49.0266 442.842C48.376 442.071 47.9682 441.091 47.9212 440.009C47.9004 439.597 47.9402 439.193 48.026 438.81L-17.0655 418.443C-17.0961 418.544 -17.1232 418.637 -17.1559 418.733L39.3198 452.662L49.0342 442.846L49.0266 442.842ZM-16.8807 416.894C-16.8673 417.125 -16.8824 417.347 -16.9029 417.571L48.2839 437.971C48.5906 437.24 49.0726 436.6 49.6821 436.108L14.128 382.523L-18.1988 413.826C-17.4285 414.626 -16.9335 415.699 -16.8807 416.894ZM50.4137 435.619C51.024 435.292 51.7082 435.088 52.4459 435.055C52.7399 435.042 53.0259 435.058 53.3095 435.1L80.1025 321.071C79.5764 320.799 79.1073 320.428 78.7171 319.982L14.7628 381.9L50.4061 435.615L50.4137 435.619ZM82.505 321.604C81.9545 321.628 81.4235 321.555 80.9262 321.405L54.164 435.301C54.9126 435.557 55.5815 435.983 56.1149 436.551L126.994 381.427L84.3215 321.156C83.7679 321.416 83.1568 321.579 82.505 321.604ZM128.189 381.604L179.792 454.493C180.02 454.359 180.262 454.246 180.513 454.154L156.4 364.521C156.197 364.556 155.998 364.582 155.786 364.595C154.316 364.659 152.978 364.049 152.062 363.038L128.184 381.606L128.189 381.604ZM160.316 359.639C160.36 360.551 160.135 361.409 159.719 362.151L216.785 402.634L265.549 324.965C265.001 324.491 264.561 323.9 264.277 323.221L160.171 358.646C160.256 358.963 160.308 359.292 160.322 359.637L160.316 359.639ZM271.741 324.955L312.068 375.151L336.823 358.016C336.47 357.39 336.248 356.674 336.213 355.899C336.184 355.254 336.286 354.636 336.49 354.066L272.636 323.906C272.387 324.296 272.084 324.643 271.739 324.95L271.741 324.955ZM342.912 351.383C343.896 351.833 344.708 352.61 345.191 353.587L429.419 321.022C429.406 320.906 429.393 320.791 429.385 320.673C429.362 320.109 429.441 319.562 429.6 319.055L363.697 291.635L342.914 351.388L342.912 351.383ZM429.938 318.242C430.447 317.28 431.276 316.518 432.292 316.089L396.678 202.991C396.42 203.047 396.161 203.085 395.891 203.094C395.423 203.118 394.97 203.065 394.54 202.959L363.987 290.797L429.936 318.237L429.938 318.242ZM397.516 202.727L433.13 315.826C433.388 315.77 433.647 315.732 433.917 315.723C434.23 315.709 434.535 315.723 434.834 315.772L448.471 260.239L398.439 202.221C398.154 202.421 397.846 202.593 397.524 202.731L397.516 202.727ZM435.677 315.978C437.266 316.529 438.474 317.897 438.783 319.603L492.397 316.254C492.397 316.254 492.392 316.224 492.391 316.205C492.328 314.855 492.847 313.609 493.716 312.703L449.164 261.038L435.678 315.965L435.677 315.978ZM501.695 314.714L607.442 286.057C607.41 285.859 607.383 285.66 607.373 285.454C607.256 282.839 609.278 280.618 611.899 280.506C611.937 280.504 611.971 280.51 612.008 280.508L615.437 232.4C614.277 232.311 613.23 231.797 612.451 231.006L501.348 313.825C501.495 314.104 501.612 314.403 501.697 314.719L501.695 314.714ZM619.342 230.832L647.788 266.016L663.961 257.524C663.863 257.174 663.795 256.805 663.774 256.425C663.737 255.645 663.898 254.901 664.205 254.234L619.857 230.128C619.706 230.378 619.53 230.612 619.34 230.826L619.342 230.832ZM669.859 251.672C670.68 251.918 671.413 252.376 671.99 252.991L718.986 216.794C718.558 216.121 718.292 215.327 718.251 214.471C718.232 214.014 718.281 213.569 718.383 213.147L680.045 200.043L669.859 251.672ZM718.665 212.318C719.237 211.045 720.36 210.059 721.741 209.686L701.675 95.1365C701.589 95.1446 701.511 95.156 701.423 95.1586C701.185 95.1686 700.957 95.1556 700.733 95.1349L680.21 199.177L718.659 212.32L718.665 212.318ZM704.343 86.8595C704.868 87.3232 705.291 87.9027 705.572 88.5569L843.547 50.0005C843.51 49.7921 843.479 49.5816 843.47 49.3624C843.464 49.2501 843.472 49.1389 843.474 49.0299L741.994 36.9652L704.349 86.8574L704.343 86.8595ZM843.575 48.1633C843.918 46.5655 845.059 45.2487 846.586 44.6972L819.058 -60.1824C818.872 -60.1543 818.685 -60.1262 818.496 -60.1223C817.507 -60.0803 816.573 -60.3394 815.79 -60.8296L742.606 36.1535L843.58 48.1611L843.575 48.1633ZM772.891 88.1343C772.378 88.1563 771.883 88.0948 771.413 87.9663L760.196 117.512L793.405 133.171C793.827 132.459 794.437 131.871 795.162 131.461L774.323 87.843C773.877 88.0042 773.396 88.109 772.896 88.1322L772.891 88.1343ZM788.333 207.072C789.089 205.701 790.508 204.74 792.179 204.636L796.191 149.478L788.333 207.072ZM829.874 308.375C829.398 308.395 828.934 308.347 828.495 308.232L826.792 313.033L885.288 362.543L832.6 307.356C831.848 307.955 830.908 308.335 829.868 308.377L829.874 308.375ZM887.004 370.236C886.743 369.682 886.579 369.066 886.553 368.414C886.504 367.325 886.829 366.314 887.405 365.491L826.477 313.92L786.221 427.473C786.959 427.815 787.595 428.337 788.065 428.987L887.001 370.231L887.004 370.236ZM832.196 485.38C832.392 484.578 832.789 483.851 833.338 483.268L788.789 433.077C788.249 434.987 786.533 436.427 784.444 436.516C782.399 436.608 780.607 435.391 779.859 433.602L684.5 463.45L832.194 485.375L832.196 485.38ZM683.287 462.918L779.603 432.766C779.549 432.514 779.511 432.254 779.496 431.987C779.48 431.719 779.501 431.463 779.528 431.204L702.165 414.441L683.28 462.915L683.287 462.918ZM682.387 462.811L701.303 414.255L621.565 396.981C621.367 397.599 621.048 398.168 620.632 398.649L682.387 462.811ZM533.969 418.958L417.843 435.034L376.157 525.139C376.643 525.421 377.064 525.785 377.422 526.212L533.969 418.958ZM370.418 525.902C371.075 525.238 371.922 524.768 372.881 524.585L365.155 446.627C362.617 446.643 360.5 444.656 360.386 442.098C360.381 441.921 360.383 441.749 360.391 441.574L248.815 423.799C248.681 424.335 248.443 424.835 248.141 425.284L370.415 525.896L370.418 525.902ZM240.728 425.834C240.595 425.689 240.473 425.539 240.36 425.379L186.471 456.61C186.722 457.155 186.877 457.749 186.904 458.388C186.983 460.139 186.099 461.706 184.724 462.586L191.081 474.852C191.57 474.655 192.093 474.527 192.651 474.507C193.795 474.455 194.864 474.815 195.711 475.452L240.717 425.838L240.728 425.834ZM123.365 504.966C123.436 504.741 123.517 504.524 123.614 504.315L39.4537 453.756L14.8893 478.587C15.5399 479.358 15.9477 480.338 15.9947 481.42C16.0058 481.677 15.9904 481.931 15.9619 482.184L123.36 504.968L123.365 504.966ZM9.52082 477.219C9.99567 477.034 10.5096 476.916 11.047 476.891C12.2658 476.835 13.3938 477.248 14.2671 477.97L38.6871 453.291L-17.5313 419.516C-17.8773 420.096 -18.3438 420.596 -18.8986 420.985L9.52082 477.219ZM-20.7516 412.435C-20.0582 412.565 -19.4155 412.843 -18.8608 413.237L13.6434 381.77L-10.8249 344.895C-11.3785 345.155 -11.9951 345.32 -12.6469 345.345C-12.9222 345.357 -13.1895 345.34 -13.4577 345.305L-20.7482 412.427L-20.7516 412.435ZM86.1038 319.691C85.8155 320.077 85.4703 320.415 85.0849 320.699L127.691 380.882L151.549 362.327C151.139 361.667 150.888 360.893 150.853 360.053C150.819 359.233 150.992 358.453 151.327 357.762L86.1093 319.689L86.1038 319.691ZM272.261 318.312C272.911 319.083 273.329 320.072 273.378 321.16C273.407 321.855 273.287 322.526 273.04 323.131L336.871 353.281C337.413 352.37 338.248 351.656 339.247 351.266L318.181 276.52C317.967 276.559 317.756 276.59 317.537 276.599C316.324 276.653 315.204 276.243 314.327 275.529L272.255 318.314L272.261 318.312ZM321.067 268.947C321.65 269.693 322.02 270.625 322.062 271.646C322.085 272.21 322.005 272.756 321.847 273.263L363.174 290.458L393.713 202.665C393.281 202.47 392.887 202.21 392.535 201.896L321.064 268.942L321.067 268.947ZM399.726 202.375L448.722 259.186L450.721 251.037C448.941 250.42 447.623 248.77 447.535 246.768C447.486 245.68 447.814 244.661 448.399 243.828L399.732 202.372L399.726 202.375ZM457.007 246.44C457.046 247.99 456.337 249.387 455.198 250.283L494.938 311.794C495.536 311.484 496.204 311.287 496.917 311.257C498.511 311.183 499.953 311.912 500.866 313.077L611.885 230.323C611.484 229.735 611.211 229.052 611.114 228.314L457.009 246.445L457.007 246.44ZM613.907 223.323C614.428 223.094 614.992 222.957 615.591 222.927C618.205 222.811 620.425 224.834 620.538 227.457C620.568 228.12 620.461 228.76 620.237 229.343L664.641 253.478C664.733 253.353 664.826 253.234 664.927 253.118L584.675 169.671C584.583 169.746 584.484 169.816 584.384 169.887L613.907 223.323ZM585.938 163.808C586.237 164.397 586.422 165.05 586.454 165.751C586.473 166.208 586.424 166.653 586.322 167.075L679.369 198.881L699.868 94.9567C698.855 94.6584 697.973 94.0287 697.366 93.1899L585.935 163.802L585.938 163.808ZM682.965 26.5932C683.377 27.2596 683.636 28.0369 683.673 28.8817C683.675 28.9698 683.672 29.0601 683.673 29.1426L741.59 36.028L815.08 -61.361C814.911 -61.5177 814.748 -61.6897 814.6 -61.8737L682.962 26.5877L682.965 26.5932Z" fill="#657A68" fill-opacity="0.3"/>
</svg>
